<?xml version="1.0" encoding="UTF-8"?>
<svg id="Layer_1" data-name="Layer 1" xmlns="http://www.w3.org/2000/svg" xmlns:xlink="http://www.w3.org/1999/xlink" viewBox="0 0 1366 768">
  <defs>
    <style>
      .cls-1 {
        fill: #fff;
      }

      .cls-2 {
        fill: #00d800;
      }

      .cls-3 {
        clip-path: url(#clippath);
      }
    </style>
    <clipPath id="clippath">
      <rect class="cls-1" x="-10" y="-10" width="1386" height="788"/>
    </clipPath>
  </defs>
  <g>
    <rect class="cls-1" x="-10" y="-10" width="1386" height="788"/>
    <g class="cls-3">
      <rect class="cls-1" x="-.35" y="-3.25" width="1366.71" height="779.89"/>
    </g>
  </g>
  <g>
    <path class="cls-2" d="M287.58,96.53l12.61,27.18c2.69,5.75,5.39,7.84,13.59,8.33v4.29h-20.21l-17.02-39.55h-10.16l-16.29,33.06,12.98,2.08v4.41h-34.65v-4.41c8.69-1.47,10.9-2.45,15.06-10.9l28.78-58.16-9.31-2.2v-4.41h37.22c15.55,0,23.27,4.78,23.27,15.43,0,8.33-5.27,22.65-35.88,24.86ZM312.68,72.78c0-7.71-5.75-10.9-14.69-10.9h-14.45l-14.33,29.27h16.78c21.55,0,26.69-11.02,26.69-18.37Z"/>
    <path class="cls-2" d="M343.58,131.92v4.41h-26.82v-4.41c6.37-.61,8.82-1.47,16.9-11.88l50.57-65.88h10.16l-10.16,76.41,7.96,1.35v4.41h-30.86v-4.41c10.78-1.35,12.12-3.43,13.35-11.88l1.47-10.9h-26.94l-16.41,21.43,10.78,1.35ZM376.77,104.37l5.14-37.96-29.02,37.96h23.88Z"/>
    <path class="cls-2" d="M469.47,60.66l-13.59,2.2-32.57,66.86,11.76,2.2v4.41h-36.98v-4.41c10.9-.73,14.45-2.33,18.49-10.65l28.41-58.41-11.75-2.2v-4.41h36.25v4.41Z"/>
    <path class="cls-2" d="M490.45,70.7h-.98l-28.9,59.02,13.47,2.2v4.41h-31.84v-4.41c10.16-.49,12.12-2.57,15.55-9.67l28.9-59.14-9.31-2.82v-4.04h21.18l12.12,61.1,26.57-54.49-13.71-2.2v-4.41h32.08v4.41c-10.04.98-12.49,3.43-16.41,11.39l-31.35,64.29h-4.41l-12.98-65.63Z"/>
    <path class="cls-2" d="M586.1,82.21h4.9v26.57h-4.9c0-7.84-2.69-10.53-9.43-10.53h-11.88l-15.06,30.37,14.94,1.22c2.2.12,4.16.49,5.88.49,11.63,0,16.53-7.1,23.27-18.74l4.65,1.84-11.27,22.9h-59.63v-4.41c10.04-1.59,11.39-3.55,15.55-11.88l28.29-57.19-9.31-2.2v-4.41h52.29v24.49h-4.9c.12-11.88-3.06-17.76-16.41-18.25l-10.41-.37-15.06,30.49h9.06c6.74,0,9.43-2.57,9.43-10.41Z"/>
    <path class="cls-2" d="M657.09,96.53l12.61,27.18c2.69,5.75,5.39,7.84,13.59,8.33v4.29h-20.21l-17.02-39.55h-10.16l-16.29,33.06,12.98,2.08v4.41h-34.65v-4.41c8.69-1.47,10.9-2.45,15.06-10.9l28.78-58.16-9.31-2.2v-4.41h37.22c15.55,0,23.27,4.78,23.27,15.43,0,8.33-5.27,22.65-35.88,24.86ZM682.19,72.78c0-7.71-5.75-10.9-14.69-10.9h-14.45l-14.33,29.27h16.78c21.55,0,26.69-11.02,26.69-18.37Z"/>
    <path class="cls-2" d="M864.39,56.25v3.8l-10.53,2.57-32.69,66.98,8.94,2.33v4.41h-31.47v-4.41c9.92-.86,12.37-3.92,16.41-12.25l26.45-54.25-65.39,70.9h-5.88l5.27-68.45-30.37,62.33,10.53,1.71v4.41h-28.41v-4.41c7.84-.86,11.88-2.57,15.67-10.29l28.53-58.65-9.92-2.45v-4.29h25.47l-5.02,65.51,60.37-65.51h22.04Z"/>
    <path class="cls-2" d="M862.17,131.92v4.41h-26.82v-4.41c6.37-.61,8.82-1.47,16.9-11.88l50.57-65.88h10.16l-10.16,76.41,7.96,1.35v4.41h-30.86v-4.41c10.78-1.35,12.12-3.43,13.35-11.88l1.47-10.9h-26.94l-16.41,21.43,10.78,1.35ZM895.35,104.37l5.14-37.96-29.02,37.96h23.88Z"/>
    <path class="cls-2" d="M976.1,96.53l12.61,27.18c2.69,5.75,5.39,7.84,13.59,8.33v4.29h-20.21l-17.02-39.55h-10.16l-16.29,33.06,12.98,2.08v4.41h-34.65v-4.41c8.69-1.47,10.9-2.45,15.06-10.9l28.78-58.16-9.31-2.2v-4.41h37.22c15.55,0,23.27,4.78,23.27,15.43,0,8.33-5.27,22.65-35.88,24.86ZM1001.2,72.78c0-7.71-5.75-10.9-14.69-10.9h-14.45l-14.33,29.27h16.78c21.55,0,26.69-11.02,26.69-18.37Z"/>
    <path class="cls-2" d="M1078.82,60.66l-13.59,2.2-32.57,66.86,11.76,2.2v4.41h-36.98v-4.41c10.9-.73,14.45-2.33,18.49-10.65l28.41-58.41-11.75-2.2v-4.41h36.25v4.41Z"/>
    <path class="cls-2" d="M1076.22,131.92v4.41h-26.82v-4.41c6.37-.61,8.82-1.47,16.9-11.88l50.57-65.88h10.16l-10.16,76.41,7.96,1.35v4.41h-30.86v-4.41c10.78-1.35,12.12-3.43,13.35-11.88l1.47-10.9h-26.94l-16.41,21.43,10.78,1.35ZM1109.41,104.37l5.14-37.96-29.02,37.96h23.88Z"/>
    <path class="cls-2" d="M558.54,197.12l12.61,27.18c2.69,5.75,5.39,7.84,13.59,8.33v4.29h-20.2l-17.02-39.55h-10.16l-16.29,33.06,12.98,2.08v4.41h-34.65v-4.41c8.69-1.47,10.9-2.45,15.06-10.9l28.78-58.16-9.31-2.2v-4.41h37.22c15.55,0,23.27,4.78,23.27,15.43,0,8.33-5.27,22.65-35.88,24.86ZM583.64,173.36c0-7.71-5.75-10.9-14.69-10.9h-14.45l-14.33,29.27h16.78c21.55,0,26.69-11.02,26.69-18.37Z"/>
    <path class="cls-2" d="M661.26,161.24l-13.59,2.2-32.57,66.86,11.76,2.2v4.41h-36.98v-4.41c10.9-.73,14.45-2.33,18.49-10.65l28.41-58.41-11.75-2.2v-4.41h36.25v4.41Z"/>
    <path class="cls-2" d="M701.68,156.83v4.41l-13.22,2.2-32.57,65.76,16.29,1.47c13.22,1.1,18.49-1.96,27.8-18.49l4.65,1.84-11.27,22.9h-59.63v-4.41c8.2-1.1,11.02-2.82,14.08-9.06l29.75-60-8.08-2.2v-4.41h32.2Z"/>
    <path class="cls-2" d="M751.11,195.16l-13.35,8.08-13.35,27.18,12.98,2.08v4.41h-34.65v-4.41c9.92-1.47,11.51-3.8,15.43-11.63l28.41-57.43-9.31-2.2v-4.41h31.35v4.41l-11.27,2.2-14.82,30.25,50.94-30.25-11.27-2.2v-4.41h35.39l.12,4.53c-8.2.37-13.47,2.69-23.14,8.33l-34.04,19.96,11.63,31.96c2.94,8.2,5.51,10.53,14.69,11.02v4.29h-21.06l-14.69-41.76Z"/>
    <path class="cls-2" d="M850.81,182.79h4.9v26.57h-4.9c0-7.84-2.69-10.53-9.43-10.53h-11.88l-15.06,30.37,14.94,1.22c2.2.12,4.16.49,5.88.49,11.63,0,16.53-7.1,23.27-18.74l4.65,1.84-11.27,22.9h-59.63v-4.41c10.04-1.59,11.39-3.55,15.55-11.88l28.29-57.19-9.31-2.2v-4.41h52.29v24.49h-4.9c.12-11.88-3.06-17.76-16.41-18.25l-10.41-.37-15.06,30.49h9.06c6.74,0,9.43-2.57,9.43-10.41Z"/>
  </g>
  <g>
    <path class="cls-2" d="M192.58,686.78l8.95,19.29c1.91,4.08,3.82,5.56,9.65,5.91v3.04h-14.34l-12.08-28.07h-7.21l-11.56,23.47,9.21,1.48v3.13h-24.6v-3.13c6.17-1.04,7.74-1.74,10.69-7.74l20.42-41.28-6.61-1.56v-3.13h26.42c11.04,0,16.51,3.39,16.51,10.95,0,5.91-3.74,16.08-25.47,17.64ZM210.4,669.92c0-5.48-4.08-7.74-10.43-7.74h-10.26l-10.17,20.77h11.91c15.3,0,18.95-7.82,18.95-13.04Z"/>
    <path class="cls-2" d="M256.57,676.61h3.48v18.86h-3.48c0-5.56-1.91-7.47-6.69-7.47h-8.43l-10.69,21.55,10.6.87c1.56.09,2.96.35,4.17.35,8.26,0,11.73-5.04,16.51-13.3l3.3,1.3-8,16.25h-42.33v-3.13c7.13-1.13,8.08-2.52,11.04-8.43l20.08-40.59-6.61-1.56v-3.13h37.11v17.38h-3.48c.09-8.43-2.17-12.6-11.65-12.95l-7.39-.26-10.69,21.64h6.43c4.78,0,6.69-1.83,6.69-7.39Z"/>
    <path class="cls-2" d="M316.82,657.32c17.3,0,22.95,9.39,22.95,20.51,0,13.65-13.99,38.16-39.72,38.24,20.34,6.26,34.33,8.87,46.5,9.04,7.04.09,12.08-1.65,16.17-4.69l.7,1.13c-5.13,4.52-13.3,9.04-23.29,8.87-8.34-.09-33.38-6.34-52.41-16.6-7.82-3.48-10.78-10.78-10.78-18.69,0-16.25,15.04-37.81,39.89-37.81ZM332.03,675.14c0-8-4.43-14.17-14.34-14.17-20.86,0-33.29,22.6-33.29,37.46,0,7.47,3.48,13.99,14.6,13.99,20.42,0,33.03-23.38,33.03-37.29Z"/>
    <path class="cls-2" d="M360.19,715.9c-14.51,0-21.03-8.95-14.43-22.25l15.21-30.77-6.61-1.56v-3.13h22.77v3.13l-8.52,1.56-15.56,31.64c-5.3,10.69-.35,16.08,9.73,16.08,10.6,0,14.08-6.26,18.43-15.47l15.38-32.25-7.65-1.56v-3.13h19.38v3.13c-5.21.43-7.3,1.65-9.47,6.17l-13.21,27.64c-5.13,10.78-10.17,20.77-25.47,20.77Z"/>
    <path class="cls-2" d="M438.53,661.32l-9.65,1.56-23.12,47.46,8.34,1.56v3.13h-26.25v-3.13c7.74-.52,10.26-1.65,13.12-7.56l20.16-41.46-8.34-1.56v-3.13h25.73v3.13Z"/>
    <path class="cls-2" d="M460.92,676.61h3.48v18.86h-3.48c0-5.56-1.91-7.47-6.69-7.47h-8.43l-10.69,21.55,10.6.87c1.56.09,2.96.35,4.17.35,8.26,0,11.73-5.04,16.51-13.3l3.3,1.3-8,16.25h-42.33v-3.13c7.13-1.13,8.08-2.52,11.04-8.43l20.08-40.59-6.61-1.56v-3.13h37.11v17.38h-3.48c.09-8.43-2.17-12.6-11.65-12.95l-7.39-.26-10.69,21.64h6.43c4.78,0,6.69-1.83,6.69-7.39Z"/>
    <path class="cls-2" d="M566.74,658.19v2.69l-7.47,1.83-23.21,47.54,6.34,1.65v3.13h-22.34v-3.13c7.04-.61,8.78-2.78,11.65-8.69l18.77-38.5-46.41,50.32h-4.17l3.74-48.58-21.55,44.24,7.47,1.22v3.13h-20.16v-3.13c5.56-.61,8.43-1.83,11.12-7.3l20.25-41.63-7.04-1.74v-3.04h18.08l-3.56,46.5,42.85-46.5h15.64Z"/>
    <path class="cls-2" d="M587.85,703.73l20.16-40.85-6.61-1.56v-3.13h37.11v17.38h-3.48c0-9.56-3.04-12.69-11.56-12.95l-7.47-.26-11.82,23.99h7.56c5.3,0,7.21-1.91,7.21-7.39h3.48v18.86h-3.48c0-5.48-1.91-7.39-7.21-7.39h-9.65l-10,20.34,10,1.13v3.13h-25.21v-3.13c6.43-.96,8.08-2.35,10.95-8.17Z"/>
    <path class="cls-2" d="M638.57,695.13c0-16.25,15.04-37.81,39.89-37.81,17.3,0,22.95,9.39,22.95,20.51,0,13.65-13.99,38.24-39.89,38.24-17.3,0-22.95-9.82-22.95-20.95ZM693.68,675.14c0-8-4.43-14.17-14.34-14.17-20.86,0-33.29,22.6-33.29,37.46,0,7.47,3.48,13.99,14.6,13.99,20.42,0,33.03-23.38,33.03-37.29Z"/>
    <path class="cls-2" d="M736.27,686.78l8.95,19.29c1.91,4.08,3.82,5.56,9.65,5.91v3.04h-14.34l-12.08-28.07h-7.21l-11.56,23.47,9.21,1.48v3.13h-24.6v-3.13c6.17-1.04,7.74-1.74,10.69-7.74l20.42-41.28-6.61-1.56v-3.13h26.42c11.04,0,16.51,3.39,16.51,10.95,0,5.91-3.74,16.08-25.47,17.64ZM754.09,669.92c0-5.48-4.08-7.74-10.43-7.74h-10.26l-10.17,20.77h11.91c15.3,0,18.95-7.82,18.95-13.04Z"/>
    <path class="cls-2" d="M801.1,711.9v3.13h-19.03v-3.13c4.52-.43,6.26-1.04,11.99-8.43l35.9-46.76h7.21l-7.21,54.23,5.65.96v3.13h-21.9v-3.13c7.65-.96,8.6-2.43,9.47-8.43l1.04-7.74h-19.12l-11.65,15.21,7.65.96ZM824.66,692.35l3.65-26.94-20.6,26.94h16.95Z"/>
    <path class="cls-2" d="M878.89,703.73l20.16-40.85-6.61-1.56v-3.13h37.11v17.38h-3.48c0-9.56-3.04-12.69-11.56-12.95l-7.47-.26-11.82,23.99h7.56c5.3,0,7.21-1.91,7.21-7.39h3.48v18.86h-3.48c0-5.48-1.91-7.39-7.21-7.39h-9.65l-10,20.34,10,1.13v3.13h-25.21v-3.13c6.43-.96,8.08-2.35,10.95-8.17Z"/>
    <path class="cls-2" d="M959.63,686.78l8.95,19.29c1.91,4.08,3.82,5.56,9.65,5.91v3.04h-14.34l-12.08-28.07h-7.21l-11.56,23.47,9.21,1.48v3.13h-24.6v-3.13c6.17-1.04,7.74-1.74,10.69-7.74l20.42-41.28-6.61-1.56v-3.13h26.42c11.04,0,16.51,3.39,16.51,10.95,0,5.91-3.74,16.08-25.47,17.64ZM977.44,669.92c0-5.48-4.08-7.74-10.43-7.74h-10.26l-10.17,20.77h11.91c15.3,0,18.95-7.82,18.95-13.04Z"/>
    <path class="cls-2" d="M1032.53,661.32l-9.65,1.56-23.12,47.46,8.34,1.56v3.13h-26.25v-3.13c7.74-.52,10.26-1.65,13.12-7.56l20.16-41.46-8.34-1.56v-3.13h25.73v3.13Z"/>
    <path class="cls-2" d="M1054.92,676.61h3.48v18.86h-3.48c0-5.56-1.91-7.47-6.69-7.47h-8.43l-10.69,21.55,10.6.87c1.56.09,2.96.35,4.17.35,8.26,0,11.73-5.04,16.51-13.3l3.3,1.3-8,16.25h-42.33v-3.13c7.13-1.13,8.08-2.52,11.04-8.43l20.08-40.59-6.61-1.56v-3.13h37.11v17.38h-3.48c.09-8.43-2.17-12.6-11.65-12.95l-7.39-.26-10.69,21.64h6.43c4.78,0,6.69-1.83,6.69-7.39Z"/>
    <path class="cls-2" d="M1097.38,668.44h-.7l-20.51,41.89,9.56,1.56v3.13h-22.6v-3.13c7.21-.35,8.6-1.83,11.04-6.87l20.51-41.98-6.61-2v-2.87h15.04l8.6,43.37,18.86-38.68-9.73-1.56v-3.13h22.77v3.13c-7.13.7-8.87,2.43-11.65,8.08l-22.25,45.63h-3.13l-9.21-46.59Z"/>
    <path class="cls-2" d="M1197.95,681.31c0,8.6-5.39,33.72-45.98,33.72h-29.12v-3.13c6.87-1.04,8-2.35,11.12-8.6l19.99-40.42-5.74-1.56v-3.13h22.16c11.82,0,27.55,3.91,27.55,23.12ZM1156.32,710.77c27.81,0,33.46-19.99,33.46-29.46,0-15.3-10.69-19.12-21.21-19.12h-6.52l-23.47,47.37c5.13.43,12.78,1.22,17.73,1.22Z"/>
  </g>
</svg>