<?xml version="1.0" encoding="UTF-8"?>
<svg id="Layer_1" data-name="Layer 1" xmlns="http://www.w3.org/2000/svg" xmlns:xlink="http://www.w3.org/1999/xlink" viewBox="0 0 1366 768">
  <defs>
    <style>
      .cls-1 {
        fill: #c3bfb6;
      }

      .cls-2 {
        fill: #12100b;
      }

      .cls-3 {
        clip-path: url(#clippath);
      }
    </style>
    <clipPath id="clippath">
      <rect class="cls-1" x="-10" y="-10" width="1386" height="788"/>
    </clipPath>
  </defs>
  <g>
    <rect class="cls-1" x="-10" y="-10" width="1386" height="788"/>
    <g class="cls-3">
      <rect class="cls-1" x="-.35" y="-3.25" width="1366.71" height="779.89"/>
    </g>
  </g>
  <g>
    <path class="cls-2" d="M486.94,145.81c-27.82,0-43.58-20.42-43.58-47.28s16.31-47.28,45.5-47.28c9.87,0,20.01,1.23,31.25,4.66v1.37c-1.92,6.58-1.64,16.45.27,23.16l-1.78.41c-5.62-21.52-17.68-27.14-31.25-27.14-26.18,0-36.04,20.15-36.04,41.66,0,25.77,11.1,46.6,37.69,46.6,14.12,0,28.23-6.99,33.44-27l1.92.27c-3.97,17.82-17,30.56-37.42,30.56Z"/>
    <path class="cls-2" d="M586.24,83.31v28.23h-1.78c-1.23-10.83-3.7-13.02-13.57-13.02h-22.34v43.04l30.56-.82c17.13-.55,21.52-8.63,26.18-21.52l2.33.55c-3.29,9.32-5.89,18.78-5.62,23.85l-.69.82c-2.33-.82-4.25-.82-8.91-.82h-64.28v-1.78c12.06-.55,13.84-3.43,13.84-12.61v-61.4c0-9.18-1.78-12.06-13.84-12.61v-1.78h56.88c6.85,0,9.73-.41,12.61-.82l.41.82c-2.19,7.13-2.06,16.99.69,23.85l-2.19.82c-5.34-17.68-11.1-21.38-26.86-21.93l-21.11-.82v40.71h22.34c9.87,0,12.33-1.78,13.57-12.75h1.78Z"/>
    <path class="cls-2" d="M680.88,119.22l2.33.55c-3.29,9.32-5.76,18.64-5.48,23.71l-.69.68c-2.19-.55-4.39-.55-8.63-.55h-58.8v-1.78c12.06-.55,13.84-3.29,13.84-12.61v-61.26c0-9.18-1.78-12.2-13.84-12.75v-1.78h34.13v1.78c-11.79.55-13.71,3.56-13.71,12.75v73.6l24.53-.82c17.13-.41,21.65-8.63,26.31-21.52Z"/>
    <path class="cls-2" d="M684.34,55.21v-1.78h33.72v1.78c-11.92.69-13.57,3.43-13.57,12.75v61.13c0,9.32,1.64,12.06,13.57,12.75v1.78h-33.72v-1.78c11.92-.69,13.57-3.7,13.57-12.75v-61.13c0-9.04-1.64-12.06-13.57-12.75Z"/>
    <path class="cls-2" d="M735.03,57.54h1.23v1.51l61.26,73.6-.27-68.39c0-7.13-2.33-9.05-15.08-9.18v-1.64h27.14v1.64c-7.81.14-9.59,2.06-9.59,7.81l-.55,71.82.41.41-.41,1.51v6.99h-1.65l-61.13-73.46.41,59.34c0,8.77,2.33,12.2,15.21,12.33v1.78h-29.88v-1.78c10.42-.14,12.2-3.56,12.2-12.33v-61.67l-11.51-13.84.41-.55h8.36l3.43,4.11Z"/>
    <path class="cls-2" d="M872.11,83.31v28.23h-1.78c-1.23-10.83-3.7-13.02-13.57-13.02h-22.34v43.04l30.56-.82c17.13-.55,21.52-8.63,26.18-21.52l2.33.55c-3.29,9.32-5.89,18.78-5.62,23.85l-.68.82c-2.33-.82-4.25-.82-8.91-.82h-64.28v-1.78c12.06-.55,13.84-3.43,13.84-12.61v-61.4c0-9.18-1.78-12.06-13.84-12.61v-1.78h56.88c6.85,0,9.73-.41,12.61-.82l.41.82c-2.19,7.13-2.06,16.99.69,23.85l-2.19.82c-5.35-17.68-11.1-21.38-26.86-21.93l-21.11-.82v40.71h22.34c9.87,0,12.33-1.78,13.57-12.75h1.78Z"/>
  </g>
  <g>
    <path class="cls-2" d="M483.89,261.66c-27.41,0-44.27-19.74-44.27-46.74s17.41-47.56,48.24-47.56c9.32,0,19.74,1.37,30.97,4.8v1.51c-2.33,6.99-1.78,15.9.14,23.3l-2.47.55c-5.62-20.42-16.58-27.27-30.97-27.27-25.08,0-35.09,18.91-35.09,40.84,0,24.94,11.38,45.5,36.59,45.5,15.08,0,27.82-7.54,33.17-26.04l2.47.55c-4.11,17.41-16.86,30.56-38.79,30.56Z"/>
    <path class="cls-2" d="M584.17,198.47v29.33h-2.47c-.96-10.42-3.15-13.29-12.61-13.29h-19.87v42.49l28.23-.82c16.58-.55,20.7-8.22,25.49-21.66l2.74.69c-3.29,9.73-5.34,18.91-5.34,24.26l-.69.69c-2.33-.69-4.93-.69-9.18-.69h-63.87v-2.47c11.38-.69,13.29-3.29,13.29-12.33v-60.58c0-9.18-1.92-11.65-13.29-12.33v-2.47h56.33c6.58,0,10.14-.41,13.29-.69l.55.82c-1.92,6.99-1.92,16.45.69,24.12l-2.6.82c-5.07-16.58-10-21.24-25.49-21.79l-20.15-.82v39.75h19.87c9.46,0,11.65-2.6,12.61-13.02h2.47Z"/>
    <path class="cls-2" d="M679.48,234.52l2.74.69c-3.29,9.73-5.35,18.91-5.35,24.26l-.69.69c-2.33-.69-4.93-.69-9.18-.69h-58.8v-2.47c11.38-.55,13.29-3.56,13.29-12.2v-61.13c0-8.91-2.33-11.38-13.29-11.92v-2.47h35.77v2.47c-10.83.69-13.16,3.02-13.16,11.92v73.32l23.16-.82c16.45-.55,20.7-8.22,25.49-21.66Z"/>
    <path class="cls-2" d="M683.79,171.75v-2.47h36.73v2.47c-11.38.41-13.71,2.6-13.71,11.51v62.22c0,8.77,2.33,11.1,13.71,11.51v2.47h-36.73v-2.47c11.24-.41,13.71-2.74,13.71-11.51v-62.22c0-8.77-2.47-11.1-13.71-11.51Z"/>
    <path class="cls-2" d="M800.41,244.39l-.27-62.36c0-7.95-2.06-10-14.94-10.42v-2.33h27.96v2.33c-8.09.41-10,2.33-10,9.59l-.41,78.26h-2.19l-60.99-72.64.41,57.84c0,9.05,2.06,11.92,14.94,12.33v2.47h-29.74v-2.47c9.73-.27,11.79-3.15,11.79-12.33v-60.85l-11.51-13.71.41-.82h11.65l62.91,75.11Z"/>
    <path class="cls-2" d="M875.7,198.47v29.33h-2.47c-.96-10.42-3.15-13.29-12.61-13.29h-19.87v42.49l28.23-.82c16.58-.55,20.7-8.22,25.49-21.66l2.74.69c-3.29,9.73-5.34,18.91-5.34,24.26l-.69.69c-2.33-.69-4.93-.69-9.18-.69h-63.87v-2.47c11.38-.69,13.29-3.29,13.29-12.33v-60.58c0-9.18-1.92-11.65-13.29-12.33v-2.47h56.33c6.58,0,10.14-.41,13.29-.69l.55.82c-1.92,6.99-1.92,16.45.69,24.12l-2.6.82c-5.07-16.58-10-21.24-25.49-21.79l-20.15-.82v39.75h19.87c9.46,0,11.65-2.6,12.61-13.02h2.47Z"/>
  </g>
  <g>
    <path class="cls-2" d="M481.25,377.1c-26.59,0-44.95-18.91-44.95-45.64,0-29.19,18.78-48.24,51.12-48.24,8.36,0,18.78,1.23,30.97,4.93v1.78c-2.88,7.13-2.06,15.08-.14,23.03l-3.15.82c-6.17-20.28-16.31-27.27-31.39-27.27-24.12,0-34.54,17.68-34.54,40.02,0,23.98,11.92,44.27,35.5,44.27,16.31,0,27.96-7.26,33.72-24.81l2.88.69c-4.39,17.27-17.13,30.43-40.02,30.43Z"/>
    <path class="cls-2" d="M582.58,313.23v30.7h-3.15c-.82-10.42-2.6-13.84-11.65-13.84h-17.68v41.8l27.14-.82c15.35-.55,18.78-7.13,23.85-21.24l3.15.82c-3.43,10.69-4.8,18.37-4.8,24.26l-.68.82c-2.33-.69-5.48-.82-9.46-.82h-63.32v-3.15c10.69-.82,12.61-2.88,12.61-12.33v-59.21c0-9.46-1.92-11.51-12.61-12.33v-3.15h56.06c6.03,0,9.32-.27,13.02-.82l.69.96c-1.51,6.85-1.37,15.76,1.1,24.12l-3.15.82c-5.07-14.8-8.91-20.7-23.85-21.24l-19.74-.82v39.06h17.68c9.05,0,10.83-3.15,11.65-13.57h3.15Z"/>
    <path class="cls-2" d="M678.22,349.82l3.15.82c-3.43,10.69-4.8,18.37-4.8,24.26l-.69.82c-2.33-.69-5.48-.82-9.46-.82h-58.93v-3.15c11.1-.69,12.61-3.7,12.61-11.79v-60.85c0-8.77-3.01-10.69-12.61-11.24v-3.15h36.32v3.15c-8.77.82-12.2,2.47-12.2,11.24v72.78l22.75-.82c15.21-.55,18.78-7.13,23.85-21.24Z"/>
    <path class="cls-2" d="M683.94,287.87v-3.15h38.92v3.15c-10.83.27-13.71,1.64-13.71,10v63.87c0,8.36,2.88,9.73,13.71,10v3.15h-38.92v-3.15c10.69-.27,13.71-1.64,13.71-10v-63.87c0-8.36-3.02-9.73-13.71-10Z"/>
    <path class="cls-2" d="M803.44,356.54l-.41-57.01c-.14-9.18-1.92-10.96-14.39-11.65v-3.15h28.64v3.15c-8.77.68-10.69,2.6-10.69,11.38l-.14,75.65h-2.88l-60.99-72.5.55,57.15c.14,9.46,1.78,11.51,14.39,12.2v3.15h-29.19v-3.15c9.32-.69,11.38-2.74,11.38-12.2v-60.58l-11.24-13.29.41-.96h14.12l60.44,71.82Z"/>
    <path class="cls-2" d="M879.31,313.23v30.7h-3.15c-.82-10.42-2.6-13.84-11.65-13.84h-17.68v41.8l27.14-.82c15.35-.55,18.78-7.13,23.85-21.24l3.15.82c-3.43,10.69-4.8,18.37-4.8,24.26l-.69.82c-2.33-.69-5.48-.82-9.46-.82h-63.32v-3.15c10.69-.82,12.61-2.88,12.61-12.33v-59.21c0-9.46-1.92-11.51-12.61-12.33v-3.15h56.05c6.03,0,9.32-.27,13.02-.82l.69.96c-1.51,6.85-1.37,15.76,1.1,24.12l-3.15.82c-5.07-14.8-8.91-20.7-23.85-21.24l-19.74-.82v39.06h17.68c9.04,0,10.83-3.15,11.65-13.57h3.15Z"/>
  </g>
  <g>
    <path class="cls-2" d="M479.08,492.26c-26.59,0-45.5-18.64-45.5-45.5,0-29.33,19.19-48.38,52.63-48.38,8.36,0,18.78,1.37,30.84,5.07v1.78c-3.02,7.4-2.06,15.08-.14,23.44l-3.56.82c-5.89-19.32-15.21-27.41-30.84-27.41-23.44,0-33.72,17-33.72,39.33,0,23.85,12.06,43.72,34.67,43.72,16.86,0,27.41-7.68,33.17-24.26l3.29.82c-4.39,16.86-17,30.56-40.84,30.56Z"/>
    <path class="cls-2" d="M581.01,427.98v31.25h-3.56c-.69-10.28-2.33-13.84-11.24-13.84h-15.9v41.39l25.08-.82c15.08-.41,18.78-6.85,23.98-21.52l3.43.82c-3.43,10.96-4.66,18.37-4.8,24.67l-.82.82c-2.33-.55-5.89-.69-9.73-.69h-63.18v-3.56c10.42-.82,12.33-2.74,12.33-12.06v-59.07c0-9.05-1.92-11.1-12.33-11.92v-3.56h55.78c6.03,0,10-.27,13.84-.69l.82,1.1c-1.51,6.99-1.51,15.35.96,24.4l-3.43.82c-4.8-14.53-8.36-20.97-23.16-21.52l-18.78-.69v38.24h15.9c8.91,0,10.55-3.29,11.24-13.57h3.56Z"/>
    <path class="cls-2" d="M677.2,464.44l3.29.82c-3.43,10.96-4.66,18.5-4.8,24.94l-.82.82c-2.6-.82-5.76-.96-10.14-.96h-58.8v-3.56c10.69-.69,12.33-3.56,12.33-11.38v-60.99c0-8.36-3.29-10.14-12.33-10.69v-3.56h38.1v3.56c-8.5.82-12.06,2.06-12.06,10.69v72.64l21.52-.82c14.94-.69,18.5-6.85,23.71-21.52Z"/>
    <path class="cls-2" d="M683.01,403.45v-3.56h41.39v3.56c-10.69.14-13.84,1.37-13.84,9.46v64.14c0,8.22,3.15,9.32,13.84,9.46v3.56h-41.39v-3.56c10.69-.14,13.84-1.23,13.84-9.46v-64.14c0-8.09-3.15-9.32-13.84-9.46Z"/>
    <path class="cls-2" d="M805.25,468.82l-.55-53.18c-.14-9.59-1.78-11.51-14.39-12.2v-3.56h29.33v3.56c-9.05.82-10.96,2.74-10.96,12.2v74.42h-3.29l-60.71-71.54.41,55.78c.14,9.59,1.78,11.51,14.39,12.2v3.56h-29.6v-3.56c9.32-.82,11.38-2.74,11.38-12.2v-59.75l-11.38-13.43.41-1.23h16.45l58.52,68.94Z"/>
    <path class="cls-2" d="M881.75,427.98v31.25h-3.56c-.68-10.28-2.33-13.84-11.24-13.84h-15.9v41.39l25.08-.82c15.08-.41,18.78-6.85,23.98-21.52l3.43.82c-3.43,10.96-4.66,18.37-4.8,24.67l-.82.82c-2.33-.55-5.89-.69-9.73-.69h-63.18v-3.56c10.42-.82,12.33-2.74,12.33-12.06v-59.07c0-9.05-1.92-11.1-12.33-11.92v-3.56h55.78c6.03,0,10-.27,13.84-.69l.82,1.1c-1.51,6.99-1.51,15.35.96,24.4l-3.43.82c-4.8-14.53-8.36-20.97-23.16-21.52l-18.78-.69v38.24h15.9c8.91,0,10.55-3.29,11.24-13.57h3.56Z"/>
  </g>
  <g>
    <path class="cls-2" d="M475.64,608.11c-27.14,0-45.64-18.91-45.64-46.19s18.78-47.97,53.45-47.97c8.91,0,20.15,1.51,30.56,4.8v2.06c-2.6,7.13-2.19,15.08-.14,24.26l-3.84.82c-4.66-17.13-12.88-27.82-29.33-27.82-22.2,0-32.21,16.45-32.21,38.79,0,24.4,12.06,43.31,33.85,43.31,17,0,26.18-9.46,31.11-24.12l3.97.82c-4.25,16.31-16.04,31.25-41.8,31.25Z"/>
    <path class="cls-2" d="M578.75,543.56v31.25h-3.7c-.69-10-2.47-13.71-11.24-13.71h-13.84v41.39l20.7-.68c16.45-.55,20.83-7.13,26.31-23.03l3.56.82c-3.56,11.51-5.21,19.87-5.48,26.04l-.82.69c-2.47-.27-6.44-.41-10.55-.41h-63.04v-3.7c10.42-.82,12.33-3.15,12.33-11.51v-59.89c0-8.22-1.92-10.55-12.33-11.38v-3.7h55.1c6.85,0,11.51-.14,16.31-.41l.96,1.37c-1.92,7.4-1.78,15.9.55,24.94l-3.84.82c-4.11-15.49-8.09-22.07-23.16-22.61l-16.58-.69v37.83h13.84c8.77,0,10.55-3.43,11.24-13.43h3.7Z"/>
    <path class="cls-2" d="M675.74,578.78l3.56.82c-3.56,11.51-5.07,20.28-5.34,26.73l-.82.69c-2.88-.96-6.58-1.1-12.06-1.1h-58.25v-3.7c10.69-.82,12.33-3.7,12.33-10.96v-61.67c0-7.4-3.29-9.59-12.33-10.14v-3.7h42.21v3.7c-9.87.69-12.88,1.92-12.88,10.14v73.05l18.37-.96c15.35-.82,19.74-6.99,25.22-22.89Z"/>
    <path class="cls-2" d="M681.04,519.44v-3.7h45.23v3.7c-11.24.27-14.12,1.64-14.12,9.46v63.87c0,7.81,2.88,9.18,14.12,9.46v3.7h-45.23v-3.7c11.24-.27,14.12-1.64,14.12-9.46v-63.87c0-7.81-2.88-9.18-14.12-9.46Z"/>
    <path class="cls-2" d="M806.97,580.29l-.14-48.38c0-9.32-1.92-11.79-15.35-12.47v-3.7h30.43v3.7c-8.77.82-10.83,3.02-10.83,12.47v74.01h-3.97l-60.03-70.17.27,54c0,9.32,1.78,11.79,14.94,12.47v3.7h-31.11v-3.7c10.01-.82,11.79-3.02,11.79-12.47v-58.8l-11.79-13.71.55-1.51h19.74l55.51,64.55Z"/>
    <path class="cls-2" d="M884.91,543.56v31.25h-3.7c-.68-10-2.47-13.71-11.24-13.71h-13.84v41.39l20.7-.68c16.45-.55,20.83-7.13,26.31-23.03l3.56.82c-3.56,11.51-5.21,19.87-5.48,26.04l-.82.69c-2.47-.27-6.44-.41-10.55-.41h-63.04v-3.7c10.42-.82,12.33-3.15,12.33-11.51v-59.89c0-8.22-1.92-10.55-12.33-11.38v-3.7h55.1c6.85,0,11.51-.14,16.31-.41l.96,1.37c-1.92,7.4-1.78,15.9.55,24.94l-3.84.82c-4.11-15.49-8.09-22.07-23.16-22.61l-16.58-.69v37.83h13.84c8.77,0,10.55-3.43,11.24-13.43h3.7Z"/>
  </g>
  <g>
    <path class="cls-2" d="M472.29,724.3c-27.96,0-46.19-19.19-46.19-46.87s18.64-47.7,54.68-47.7c9.46,0,21.79,1.92,30.15,4.66v2.19c-2.06,6.99-2.06,15.62,0,25.35l-4.25.82c-3.15-14.53-10.14-28.23-27.55-28.23-20.83,0-30.29,15.76-30.29,37.83,0,25.22,12.06,43.04,32.62,43.04,17.13,0,24.67-11.24,28.78-23.98l4.66.82c-3.97,15.62-14.94,32.07-42.62,32.07Z"/>
    <path class="cls-2" d="M576.3,659.47v31.11h-3.97c-.55-9.59-2.47-13.29-11.24-13.29h-11.38v41.25l15.76-.55c17.95-.69,23.03-7.54,28.78-24.81l3.84.96c-3.56,11.79-5.62,21.11-6.17,27.41l-.82.55h-74.42v-3.97c10.42-.82,12.33-3.43,12.33-10.69v-61.13c0-6.85-1.92-9.59-12.33-10.42v-3.97h73.46l1.23,1.64c-2.33,7.67-2.33,16.45-.14,25.77l-4.39.82c-3.15-16.58-7.54-23.57-23.03-24.12l-14.12-.55v37h11.38c8.77,0,10.69-3.43,11.24-13.02h3.97Z"/>
    <path class="cls-2" d="M674.1,693.19l3.84.96c-3.56,11.79-5.62,21.93-6.17,28.78l-.82.55c-3.43-1.23-7.26-1.37-14.25-1.37h-57.43v-3.97c10.42-.82,12.33-3.56,12.33-10.42v-62.5c0-6.17-3.29-8.77-12.33-9.32v-3.97h46.87v3.97c-11.51.55-13.84,1.64-13.84,9.46v73.46l14.94-.96c16.04-1.1,21.11-7.4,26.86-24.67Z"/>
    <path class="cls-2" d="M678.56,635.9v-3.97h49.75v3.97c-11.51.14-14.53,2.06-14.53,9.46v63.32c0,7.4,3.02,9.32,14.53,9.46v3.97h-49.75v-3.97c11.51-.14,14.53-2.06,14.53-9.46v-63.32c0-7.4-3.02-9.32-14.53-9.46Z"/>
    <path class="cls-2" d="M809.04,691.68v-43.17c0-9.46-2.33-12.06-16.45-12.61v-3.97h31.66v3.97c-8.36.69-10.42,3.29-10.42,12.61v73.6h-4.8l-59.34-68.39v51.81c0,9.46,2.19,12.06,15.76,12.61v3.97h-33.03v-3.97c10.55-.69,12.47-3.29,12.47-12.61v-57.29l-12.47-14.39.69-1.92h23.44l52.49,59.76Z"/>
    <path class="cls-2" d="M888.13,659.47v31.11h-3.97c-.55-9.59-2.47-13.29-11.24-13.29h-11.38v41.25l15.76-.55c17.95-.69,23.03-7.54,28.78-24.81l3.84.96c-3.56,11.79-5.62,21.11-6.17,27.41l-.82.55h-74.42v-3.97c10.42-.82,12.33-3.43,12.33-10.69v-61.13c0-6.85-1.92-9.59-12.33-10.42v-3.97h73.46l1.23,1.64c-2.33,7.67-2.33,16.45-.14,25.77l-4.39.82c-3.15-16.58-7.54-23.57-23.03-24.12l-14.12-.55v37h11.38c8.77,0,10.69-3.43,11.24-13.02h3.97Z"/>
  </g>
</svg>