<?xml version="1.0" encoding="UTF-8"?>
<svg id="Layer_1" data-name="Layer 1" xmlns="http://www.w3.org/2000/svg" xmlns:xlink="http://www.w3.org/1999/xlink" viewBox="0 0 1366 768">
  <defs>
    <style>
      .cls-1 {
        fill: #bdcaea;
      }

      .cls-2 {
        fill: #12100b;
      }

      .cls-3 {
        clip-path: url(#clippath);
      }
    </style>
    <clipPath id="clippath">
      <rect class="cls-2" x="-10" y="-10" width="1386" height="788"/>
    </clipPath>
  </defs>
  <g>
    <rect class="cls-2" x="-10" y="-10" width="1386" height="788"/>
    <g class="cls-3">
      <rect class="cls-2" x="-.35" y="-3.25" width="1366.71" height="779.89"/>
    </g>
  </g>
  <g>
    <path class="cls-1" d="M128.29,242.21h43.09v23.35h-77.95v-111.66h34.86v88.31Z"/>
    <path class="cls-1" d="M192.42,242.54h24.17v-38.97h-20.88v-23.02h53.45v62h24.17v23.02h-80.91v-23.02ZM220.46,164.83c-3.24-3.34-4.85-7.21-4.85-11.59s1.62-8.06,4.85-11.35c3.23-3.29,7.43-4.93,12.58-4.93s9.07,1.64,12.42,4.93c3.34,3.29,5.02,7.07,5.02,11.35,0,2.74-.77,5.4-2.3,7.98-1.54,2.58-3.62,4.66-6.25,6.25-2.63,1.59-5.59,2.38-8.88,2.38-5.15,0-9.35-1.67-12.58-5.02Z"/>
    <path class="cls-1" d="M350.79,242.54h24.17v23.02h-80.91v-23.02h24.17v-72.36h-22.53v-23.02h55.09v95.38Z"/>
    <path class="cls-1" d="M452.42,242.54h24.17v23.02h-80.91v-23.02h24.17v-72.36h-22.53v-23.02h55.09v95.38Z"/>
    <path class="cls-1" d="M541.88,296.48h-34.7l12.33-32.4-28.61-83.54h34.04l12.17,42.76,14.14-42.76h33.38l-42.76,115.94Z"/>
    <path class="cls-1" d="M696.63,153.9h49.34c9.54,0,17.48,1.51,23.84,4.52,6.36,3.02,11.02,7.02,13.98,12,2.96,4.99,4.44,10.5,4.44,16.53,0,14.14-5.98,24.01-17.93,29.6l22.37,49.01h-37.17l-18.09-43.74h-5.92v43.74h-34.86v-111.66ZM739.05,200.6c4.05,0,7.24-1.23,9.54-3.7s3.45-5.51,3.45-9.13-1.15-6.63-3.45-9.04c-2.3-2.41-5.48-3.62-9.54-3.62h-7.56v25.49h7.56Z"/>
    <path class="cls-1" d="M819.06,261.94c-6.96-3.73-12.25-8.96-15.87-15.71-3.62-6.74-5.43-14.55-5.43-23.43,0-8.33,1.78-15.84,5.34-22.53,3.56-6.69,8.8-11.98,15.71-15.87,6.91-3.89,15.24-5.84,25-5.84s17.6,2,24.17,6c6.58,4,11.51,9.35,14.8,16.03,3.29,6.69,4.93,14.09,4.93,22.2,0,2.74-.11,5.15-.33,7.24h-56.73c1.21,11.95,5.86,17.92,13.98,17.92,2.52,0,4.6-.58,6.25-1.73s3.01-2.99,4.11-5.51h29.77c-2.19,8.33-6.82,14.88-13.9,19.65-7.07,4.77-16.09,7.15-27.05,7.15-9.54,0-17.79-1.87-24.75-5.59ZM855.65,214.74c-.33-5.48-1.46-9.62-3.37-12.42-1.92-2.8-4.74-4.19-8.47-4.19-7.35,0-11.68,5.54-12.99,16.61h24.83Z"/>
    <path class="cls-1" d="M903.83,242.54h24.17v-38.97h-20.88v-23.02h53.45v62h24.17v23.02h-80.91v-23.02ZM931.87,164.83c-3.24-3.34-4.85-7.21-4.85-11.59s1.62-8.06,4.85-11.35c3.23-3.29,7.43-4.93,12.58-4.93s9.07,1.64,12.42,4.93c3.34,3.29,5.02,7.07,5.02,11.35,0,2.74-.77,5.4-2.3,7.98-1.54,2.58-3.62,4.66-6.25,6.25-2.63,1.59-5.59,2.38-8.88,2.38-5.15,0-9.35-1.67-12.58-5.02Z"/>
    <path class="cls-1" d="M1023.22,261.86c-7.02-3.78-12.42-9.02-16.2-15.71-3.78-6.69-5.67-14.36-5.67-23.02s1.89-16.36,5.67-23.1c3.78-6.74,9.18-12.01,16.2-15.79,7.01-3.78,15.13-5.67,24.34-5.67,25.54,0,40.34,10.8,44.4,32.4h-31.08c-1.21-4.38-2.91-7.34-5.1-8.88-2.19-1.53-4.66-2.3-7.4-2.3-4.39,0-7.89,1.84-10.52,5.51-2.63,3.67-3.95,9.62-3.95,17.84s1.32,14.01,3.95,17.68c2.63,3.67,6.14,5.51,10.52,5.51,6.47,0,10.69-3.78,12.66-11.35h30.59c-1.97,10.64-6.36,18.72-13.16,24.26-6.8,5.54-17.1,8.3-30.92,8.3-9.21,0-17.32-1.89-24.34-5.67Z"/>
    <path class="cls-1" d="M1157.58,205.04c-1.75-1.97-4.22-2.96-7.4-2.96-8.11,0-12.17,5.21-12.17,15.62v47.86h-32.56v-118.4h32.56v41.44c2.63-3.29,5.86-5.78,9.7-7.48,3.84-1.7,8.06-2.55,12.66-2.55,9.65,0,17.46,2.63,23.43,7.89,5.97,5.26,8.96,13.16,8.96,23.68v55.42h-32.56v-51.97c0-3.73-.88-6.58-2.63-8.55Z"/>
    <path class="cls-1" d="M89.81,343.26h42.59c12.39,0,21.79,2.8,28.2,8.39,6.41,5.59,9.62,13.21,9.62,22.86,0,8.33-2.36,15.19-7.07,20.56-4.71,5.37-11.9,8.83-21.54,10.36l34.53,49.5h-19.57l-33.05-47.69h-16.61v47.69h-17.1v-111.66ZM129.44,393.42c7.45,0,13.1-1.64,16.94-4.93,3.84-3.29,5.76-7.89,5.76-13.81s-1.95-10.2-5.84-13.16c-3.89-2.96-9.62-4.44-17.19-4.44h-22.2v36.34h22.53Z"/>
    <path class="cls-1" d="M207.47,451.47c-5.76-3.62-10.33-8.77-13.73-15.46-3.4-6.69-5.1-14.53-5.1-23.52s1.64-16.86,4.93-23.6c3.29-6.74,7.75-11.92,13.4-15.54,5.64-3.62,11.92-5.43,18.83-5.43,13.48,0,23.19,5.48,29.11,16.44v-14.47h15.46v85.02h-15.13v-16.12c-2.85,5.7-6.69,10.14-11.51,13.32s-10.58,4.77-17.27,4.77-13.24-1.81-18.99-5.43ZM211.91,434.86c4.55,5.59,10.44,8.39,17.68,8.39s12.99-2.77,17.6-8.3c4.6-5.54,6.91-13.02,6.91-22.45,0-6.03-1.07-11.4-3.21-16.12-2.14-4.71-5.07-8.36-8.8-10.94-3.73-2.58-7.89-3.86-12.5-3.86-7.56,0-13.54,2.82-17.92,8.47-4.39,5.65-6.58,13.13-6.58,22.45s2.27,16.77,6.83,22.37Z"/>
    <path class="cls-1" d="M318.72,485.84h-17.43l17.6-38.81-31.57-77.13h17.27l23.52,59.37,25.16-59.37h16.94l-51.47,115.94Z"/>
    <path class="cls-1" d="M487.44,343.26h78.61v14.31h-61.67v33.22h57.89v14.14h-57.89v35.69h62.33v14.31h-79.27v-111.66Z"/>
    <path class="cls-1" d="M647.94,443.25c-6.58,9.1-15.84,13.65-27.79,13.65-6.03,0-11.43-1.07-16.2-3.21s-8.47-5.12-11.1-8.96c-2.63-3.84-3.95-8.22-3.95-13.16,0-15.24,10.08-23.9,30.26-25.98l27.63-2.8v-5.59c0-5.48-1.64-9.59-4.93-12.33-3.29-2.74-7.79-4.11-13.49-4.11-6.36,0-11.26,1.23-14.72,3.7-3.45,2.47-5.57,6.33-6.33,11.59h-16.45c1.1-9.21,4.88-16.2,11.35-20.97,6.47-4.77,15.18-7.15,26.15-7.15s19.32,2.5,25.41,7.48c6.08,4.99,9.13,12.53,9.13,22.61v56.9h-14.96v-11.68ZM610.7,440.7c3.12,2.47,7.48,3.7,13.07,3.7,7.12,0,12.69-2.06,16.69-6.17,4-4.11,6-9.67,6-16.69v-7.73l-23.52,2.96c-6.14.77-10.5,2.33-13.07,4.69-2.58,2.36-3.86,5.57-3.86,9.62s1.56,7.15,4.69,9.62Z"/>
    <path class="cls-1" d="M753.6,386.02c-1.59-2.52-4.25-3.78-7.98-3.78s-6.41,1.29-8.39,3.87c-1.97,2.58-2.96,6.28-2.96,11.1v57.72h-15.13v-57.23c0-5.15-.8-9.02-2.38-11.59-1.59-2.58-4.25-3.87-7.98-3.87s-6.41,1.29-8.39,3.87c-1.97,2.58-2.96,6.28-2.96,11.1v57.72h-15.13v-85.02h12.66v9.04c3.62-7.34,9.59-11.02,17.93-11.02s14.31,3.51,17.92,10.52c2.08-3.29,4.69-5.86,7.81-7.73,3.12-1.86,6.71-2.79,10.77-2.79,7.34,0,12.8,2.44,16.36,7.32,3.56,4.88,5.34,11.65,5.34,20.31v59.37h-15.13v-57.23c0-5.26-.8-9.15-2.38-11.68Z"/>
    <path class="cls-1" d="M805.48,451.47c-6.25-3.62-11.02-8.72-14.31-15.29s-4.93-14.25-4.93-23.02,1.73-17.07,5.18-23.93c3.45-6.85,8.25-12.11,14.39-15.79,6.14-3.67,13.1-5.51,20.89-5.51,12.61,0,22.31,4,29.11,12,6.8,8,10.2,18.97,10.2,32.89l-.16,4.93h-62.33c.77,8.55,3.23,14.96,7.4,19.24,4.17,4.28,9.59,6.41,16.28,6.41,5.48,0,9.95-1.18,13.4-3.54,3.45-2.36,5.84-5.62,7.15-9.79h16.77c-1.97,7.89-6.08,14.33-12.33,19.32-6.25,4.99-14.31,7.48-24.17,7.48-8.77,0-16.28-1.81-22.53-5.43ZM849.06,405.43c-.44-8-2.63-14.03-6.58-18.09-3.95-4.06-9.21-6.08-15.79-6.08-6.03,0-11.1,2.06-15.21,6.17s-6.66,10.11-7.65,18.01h45.22Z"/>
    <path class="cls-1" d="M887.38,430.09h16.45c.99,4.93,3.26,8.58,6.82,10.94,3.56,2.36,8.69,3.54,15.38,3.54,5.92,0,10.47-1.09,13.65-3.29,3.18-2.19,4.77-5.21,4.77-9.04,0-3.18-.99-5.67-2.96-7.48-1.97-1.81-5.26-3.1-9.87-3.86l-18.25-2.96c-15.79-2.63-23.68-10.63-23.68-24.01,0-4.71,1.31-9.04,3.95-12.99s6.5-7.1,11.59-9.46c5.1-2.36,11.15-3.54,18.17-3.54,10.63,0,19.05,2.47,25.24,7.4,6.19,4.93,9.89,11.84,11.1,20.72h-16.77c-1.43-10.53-8.06-15.79-19.9-15.79-5.15,0-9.24,1.15-12.25,3.45-3.02,2.3-4.52,5.21-4.52,8.72,0,2.96.96,5.32,2.88,7.07,1.92,1.75,5.12,3.02,9.62,3.78l17.43,2.96c8.77,1.54,15.13,4.36,19.08,8.47s5.92,9.4,5.92,15.87c0,7.89-2.93,14.25-8.8,19.08-5.87,4.83-14.77,7.24-26.72,7.24-22.8,0-35.58-8.93-38.32-26.81Z"/>
    <path class="cls-1" d="M95.23,587.39v56.9h-2.96v-111.66h2.96v52.13l67.92-52.13h4.77l-69.73,53.45,69.89,58.22h-4.61l-68.25-56.9Z"/>
    <path class="cls-1" d="M255.9,622.59c-2.41,7.46-6.63,13.27-12.66,17.43-6.03,4.17-13.05,6.25-21.05,6.25-5.81,0-10.88-1.1-15.21-3.29-4.33-2.19-7.65-5.15-9.95-8.88-2.3-3.73-3.45-7.84-3.45-12.33,0-6.8,2.22-12.33,6.66-16.61,4.44-4.28,10.99-6.91,19.65-7.89l35.85-4.11v-6.25c0-8.33-2.3-14.85-6.91-19.57-4.6-4.71-11.08-7.07-19.41-7.07-17.43,0-27.3,8.39-29.6,25.16h-3.12c1.09-9.21,4.44-16.2,10.03-20.97,5.59-4.77,13.1-7.15,22.53-7.15s16.69,2.61,21.79,7.81c5.1,5.21,7.65,12.42,7.65,21.63v57.56h-2.8v-21.71ZM199.66,632.7c2.08,3.24,5.07,5.81,8.96,7.73,3.89,1.92,8.41,2.88,13.57,2.88,6.47,0,12.25-1.51,17.35-4.52,5.1-3.01,9.07-7.18,11.92-12.5,2.85-5.32,4.28-11.26,4.28-17.84v-12.33l-35.69,4.11c-7.79.88-13.65,3.24-17.6,7.07-3.95,3.84-5.92,8.72-5.92,14.64,0,3.95,1.04,7.54,3.12,10.77Z"/>
    <path class="cls-1" d="M323.57,633.77c2.03,3.51,4.74,5.81,8.14,6.91,3.4,1.1,7.78,1.64,13.16,1.64s10.42-.44,15.46-1.32v2.8c-4.93.99-10.42,1.48-16.45,1.48-8.55,0-15.07-1.86-19.57-5.59-4.5-3.73-6.74-10.69-6.74-20.89v-56.57h-26.64v-2.96h26.64v-24.01h2.96v24.01h38.15v2.96h-38.15v55.91c0,6.91,1.01,12.12,3.04,15.62Z"/>
    <path class="cls-1" d="M422.9,633.77c2.03,3.51,4.74,5.81,8.14,6.91,3.4,1.1,7.78,1.64,13.16,1.64s10.41-.44,15.46-1.32v2.8c-4.93.99-10.42,1.48-16.45,1.48-8.55,0-15.08-1.86-19.57-5.59-4.5-3.73-6.74-10.69-6.74-20.89v-56.57h-26.64v-2.96h26.64v-24.01h2.96v24.01h38.15v2.96h-38.15v55.91c0,6.91,1.01,12.12,3.04,15.62Z"/>
    <path class="cls-1" d="M588.91,532.63h38.32c11.73,0,20.42,2.52,26.07,7.56,5.64,5.04,8.47,12,8.47,20.89,0,6.36-2.06,11.95-6.17,16.77-4.11,4.83-9.4,7.84-15.87,9.04,8.33.88,14.94,3.81,19.82,8.8,4.88,4.99,7.32,10.88,7.32,17.68,0,20.61-13.87,30.92-41.61,30.92h-36.34v-111.66ZM631.33,585.42c5.15,0,9.79-1.04,13.9-3.12,4.11-2.08,7.37-4.99,9.79-8.72,2.41-3.73,3.62-7.89,3.62-12.5,0-8-2.52-14.25-7.56-18.75-5.04-4.49-12.99-6.74-23.85-6.74h-35.36v49.83h39.47ZM653.45,635c6.85-4.22,10.28-11.43,10.28-21.63,0-7.45-3.02-13.48-9.04-18.09-6.03-4.6-13.81-6.91-23.35-6.91h-39.47v52.95h33.38c11.95,0,21.35-2.11,28.2-6.33Z"/>
    <path class="cls-1" d="M706.57,640.51c-5.65-3.84-9.95-9.13-12.91-15.87-2.96-6.74-4.44-14.33-4.44-22.78s1.48-16.06,4.44-22.86c2.96-6.8,7.24-12.11,12.83-15.95,5.59-3.84,12.17-5.76,19.73-5.76s14.12,1.92,19.65,5.76c5.53,3.84,9.78,9.16,12.74,15.95,2.96,6.8,4.44,14.42,4.44,22.86s-1.48,16.03-4.44,22.78c-2.96,6.74-7.21,12.03-12.74,15.87-5.54,3.84-12.03,5.76-19.49,5.76s-14.17-1.92-19.82-5.76ZM744.23,637.96c5.1-3.56,9.02-8.5,11.76-14.8,2.74-6.3,4.11-13.4,4.11-21.3s-1.34-15.13-4.03-21.38c-2.69-6.25-6.58-11.18-11.68-14.8s-11.16-5.43-18.17-5.43-13.1,1.81-18.25,5.43c-5.15,3.62-9.07,8.55-11.76,14.8-2.69,6.25-4.03,13.38-4.03,21.38s1.37,14.99,4.11,21.3c2.74,6.31,6.69,11.24,11.84,14.8,5.15,3.56,11.24,5.34,18.25,5.34s12.75-1.78,17.84-5.34Z"/>
    <path class="cls-1" d="M820.2,633.77c2.03,3.51,4.74,5.81,8.14,6.91,3.4,1.1,7.78,1.64,13.16,1.64s10.42-.44,15.46-1.32v2.8c-4.93.99-10.42,1.48-16.45,1.48-8.55,0-15.08-1.86-19.57-5.59-4.5-3.73-6.74-10.69-6.74-20.89v-56.57h-26.64v-2.96h26.64v-24.01h2.96v24.01h38.15v2.96h-38.15v55.91c0,6.91,1.01,12.12,3.04,15.62Z"/>
    <path class="cls-1" d="M946.83,569.31c-4.88-6.03-11.98-9.04-21.3-9.04-5.7,0-10.83,1.54-15.38,4.6-4.55,3.07-8.14,7.29-10.77,12.66-2.63,5.37-3.95,11.51-3.95,18.42v48.35h-2.96v-118.4h2.96v54.27c2.41-7.12,6.25-12.72,11.51-16.77,5.26-4.05,11.46-6.08,18.58-6.08,10.2,0,18.01,3.32,23.43,9.95,5.43,6.63,8.14,15.71,8.14,27.22v49.83h-2.96v-49.83c0-10.74-2.44-19.13-7.32-25.16Z"/>
  </g>
</svg>