<?xml version="1.0" encoding="UTF-8"?>
<svg id="Layer_1" data-name="Layer 1" xmlns="http://www.w3.org/2000/svg" xmlns:xlink="http://www.w3.org/1999/xlink" viewBox="0 0 1366 768">
  <defs>
    <style>
      .cls-1 {
        fill: #00d800;
      }

      .cls-2 {
        stroke: #000;
        stroke-miterlimit: 10;
        stroke-width: 3px;
      }

      .cls-3 {
        clip-path: url(#clippath);
      }
    </style>
    <clipPath id="clippath">
      <rect class="cls-1" x="-10" y="-10" width="1386" height="788"/>
    </clipPath>
  </defs>
  <g>
    <rect class="cls-1" x="-10" y="-10" width="1386" height="788"/>
    <g class="cls-3">
      <rect class="cls-1" x="-.35" y="-3.25" width="1366.71" height="779.89"/>
    </g>
  </g>
  <g>
    <rect class="cls-2" x="293.35" y="265.41" width="779.29" height="237.18"/>
    <g>
      <path class="cls-1" d="M466.01,431.23v-3.64c13.72-1.65,18.68-4.63,17.19-17.03l-8.93-78.69-34.39,99.35h-3.31l-36.37-97.87-7.6,91.91,17.52,2.31v3.64h-36.2v-3.64c9.42-1.65,13.39-3.31,14.22-13.89l6.94-83.81-11.57-3.14v-3.64h25.79l32.4,87.29,30.25-87.29h27.44v3.64l-13.56,2.98,10.75,95.55,13.72,2.31v3.64h-44.3Z"/>
      <path class="cls-1" d="M519.05,322.68h39.5v6.31l-12.28,2.16v90.63l12.28,3.32v6.14h-39.5v-6.14c11.29-1.83,12.28-6.47,12.28-19.42v-74.53l-12.28-2.16v-6.31Z"/>
      <path class="cls-1" d="M602.69,332.14v88.64c7.8.66,15.77,1.33,26.06,1.33,13.44,0,16.93-7.97,19.75-25.06l6.97.33-2.66,33.86h-82.49v-5.64c9.13-2.49,11.78-4.81,11.78-15.27v-78.35l-11.78-2.16v-7.14h44.82v7.14l-12.45,2.32Z"/>
      <path class="cls-1" d="M726.71,404.84l-1.99-6.31h-35.69l-7.97,23.57,13.45,2.32v6.81h-36.68v-6.81c8.13-1.83,9.79-5.15,16.6-23.57l27.72-74.86,22.41-6.81,32.7,102.75,7.97,2.49v6.81h-45.15v-6.81c6.8-1,9.29-3.15,9.29-7.3,0-2.99-1-6.97-2.66-12.28ZM692.51,387.08h29.21l-13.78-43.65-15.44,43.65Z"/>
      <path class="cls-1" d="M797.71,394.38l-12.78,28.72,16.6,2.32-.66,5.81h-33.69l.66-5.81c9.13-1.83,11.12-6.14,19.42-24.57l33.86-74.86,13.94-6.81,21.58,103.74,9.96,2.49-.66,5.81h-41.5l.5-5.81c13.94-1.66,16.43-5.48,12.78-20.58l-2.49-10.46h-37.51ZM823.94,335.46l-23.07,52.45h33.03l-9.96-52.45Z"/>
      <path class="cls-1" d="M900.14,425.26v5.98h-36.35v-5.98c8.63-.83,11.95-1.99,22.91-16.1l68.55-89.3h13.78l-13.78,103.57,10.79,1.83v5.98h-41.83v-5.98c14.61-1.83,16.43-4.65,18.09-16.1l1.99-14.77h-36.52l-22.24,29.05,14.61,1.83ZM945.12,387.91l6.97-51.46-39.34,51.46h32.37Z"/>
    </g>
  </g>
</svg>