<?xml version="1.0" encoding="UTF-8"?>
<svg id="Layer_1" data-name="Layer 1" xmlns="http://www.w3.org/2000/svg" xmlns:xlink="http://www.w3.org/1999/xlink" viewBox="0 0 1366 768">
  <defs>
    <style>
      .cls-1 {
        font-family: Ronda-Regular, Ronda;
        font-size: 1187.61px;
      }

      .cls-2 {
        fill: #c3bfb6;
      }

      .cls-3 {
        fill: #12100b;
      }

      .cls-4 {
        clip-path: url(#clippath);
      }
    </style>
    <clipPath id="clippath">
      <rect class="cls-2" x="-10" y="-10" width="1386" height="788"/>
    </clipPath>
  </defs>
  <g>
    <rect class="cls-2" x="-10" y="-10" width="1386" height="788"/>
    <g class="cls-4">
      <rect class="cls-2" x="-.35" y="-3.25" width="1366.71" height="779.89"/>
    </g>
  </g>
  <g>
    <path class="cls-3" d="M280.12,132.62v2.66l-6.42,1.25v33.34c0,5.32.16,10.8.78,13.77l-2.5.47c-1.72-4.07-2.82-6.89-6.26-6.89-6.73,0-12.99,8.92-34.75,8.92-32.56-.16-52.44-21.76-52.44-53.53s19.25-54.16,56.04-54.16c12.21,0,25.04,1.88,36.78,5.48v1.72c-2.19,7.2-2.66,16.12.16,26.61l-2.82.63c-6.1-23.01-18.16-31.15-35.37-31.15-31.77,0-42.42,25.98-42.42,49.93s10.96,51.03,41.48,51.03c18.31,0,30.52-8.45,30.52-25.2v-20.04l-31.3-2.19v-2.66h48.52Z"/>
    <path class="cls-3" d="M348.34,143.73h-38.82l-9.55,23.79c-1.1,2.82-1.57,4.7-1.57,6.57,0,4.38,4.23,6.26,13.46,6.73v2.82h-30.05v-2.82c7.98-.63,10.64-4.7,13.77-12.37l35.84-87.81h2.5l35.84,86.09c4.7,11.11,7.98,13.62,15.03,14.09v2.82h-37.1v-2.82c7.98-.31,11.9-2.35,11.9-7.04,0-1.88-.63-4.23-1.72-6.89l-9.55-23.17ZM346.93,140.29l-18.31-44.3-17.69,44.3h36Z"/>
    <path class="cls-3" d="M452.82,83.63l.31,1.25c-1.88,7.83-1.72,17.06-.16,26.14l-2.66.47c-2.97-20.04-11.27-29.74-27.08-29.74-14.09,0-22.38,7.36-22.38,18.94s6.1,17.22,19.57,21.91l10.49,3.76c17.53,6.1,25.2,16.44,25.2,30.68,0,18.94-13.93,29.11-32.87,29.11-10.49,0-20.5-2.35-28.33-4.85l-.94-1.1c0-9.24-1.1-18.78-2.97-27.86l2.82-.47c5.17,19.88,12.68,30.83,30.05,30.83,13.15,0,22.38-7.83,22.38-21.91,0-12.05-6.1-19.72-20.19-24.42l-11.11-3.76c-15.81-5.32-23.17-15.03-23.17-27.7,0-17.38,13.3-26.45,32.09-26.45,9.71,0,20.04,1.88,28.96,5.17Z"/>
    <path class="cls-3" d="M530.08,83.63l.31,1.25c-1.88,7.83-1.72,17.06-.16,26.14l-2.66.47c-2.97-20.04-11.27-29.74-27.08-29.74-14.09,0-22.38,7.36-22.38,18.94s6.1,17.22,19.57,21.91l10.49,3.76c17.53,6.1,25.2,16.44,25.2,30.68,0,18.94-13.93,29.11-32.87,29.11-10.49,0-20.5-2.35-28.33-4.85l-.94-1.1c0-9.24-1.1-18.78-2.97-27.86l2.82-.47c5.17,19.88,12.68,30.83,30.05,30.83,13.15,0,22.38-7.83,22.38-21.91,0-12.05-6.1-19.72-20.19-24.42l-11.11-3.76c-15.81-5.32-23.17-15.03-23.17-27.7,0-17.38,13.3-26.45,32.09-26.45,9.71,0,20.04,1.88,28.96,5.17Z"/>
    <path class="cls-3" d="M607.34,83.63l.31,1.25c-1.88,7.83-1.72,17.06-.16,26.14l-2.66.47c-2.97-20.04-11.27-29.74-27.08-29.74-14.09,0-22.38,7.36-22.38,18.94s6.1,17.22,19.57,21.91l10.49,3.76c17.53,6.1,25.2,16.44,25.2,30.68,0,18.94-13.93,29.11-32.87,29.11-10.49,0-20.5-2.35-28.33-4.85l-.94-1.1c0-9.24-1.1-18.78-2.97-27.86l2.82-.47c5.17,19.88,12.68,30.83,30.05,30.83,13.15,0,22.38-7.83,22.38-21.91,0-12.05-6.1-19.72-20.19-24.42l-11.11-3.76c-15.81-5.32-23.17-15.03-23.17-27.7,0-17.38,13.3-26.45,32.09-26.45,9.71,0,20.04,1.88,28.96,5.17Z"/>
    <path class="cls-3" d="M684.6,83.63l.31,1.25c-1.88,7.83-1.72,17.06-.16,26.14l-2.66.47c-2.97-20.04-11.27-29.74-27.08-29.74-14.09,0-22.38,7.36-22.38,18.94s6.1,17.22,19.57,21.91l10.49,3.76c17.53,6.1,25.2,16.44,25.2,30.68,0,18.94-13.93,29.11-32.87,29.11-10.49,0-20.5-2.35-28.33-4.85l-.94-1.1c0-9.24-1.1-18.78-2.97-27.86l2.82-.47c5.17,19.88,12.68,30.83,30.05,30.83,13.15,0,22.38-7.83,22.38-21.91,0-12.05-6.1-19.72-20.19-24.42l-11.11-3.76c-15.81-5.32-23.17-15.03-23.17-27.7,0-17.38,13.3-26.45,32.09-26.45,9.71,0,20.04,1.88,28.96,5.17Z"/>
    <path class="cls-3" d="M761.83,180.83v2.82h-42.11v-2.82c12.37-.63,15.65-2.35,15.65-10.96v-85.78h-10.64c-17.69,0-21.76,7.98-27.08,25.2l-3.13-.94c2.82-7.67,4.07-19.88.63-27.55l.63-1.1c4.38.63,8.3.94,13.15.94h63.55c5.01,0,8.92-.31,13.3-.94l.47,1.1c-3.44,7.67-2.19,19.88.63,27.55l-2.97.94c-5.32-17.22-9.39-25.2-27.08-25.2h-10.64v85.78c0,8.61,3.29,10.33,15.65,10.96Z"/>
    <path class="cls-3" d="M844.47,143.73h-38.82l-9.55,23.79c-1.1,2.82-1.57,4.7-1.57,6.57,0,4.38,4.23,6.26,13.46,6.73v2.82h-30.05v-2.82c7.98-.63,10.64-4.7,13.77-12.37l35.84-87.81h2.5l35.84,86.09c4.7,11.11,7.98,13.62,15.03,14.09v2.82h-37.1v-2.82c7.98-.31,11.9-2.35,11.9-7.04,0-1.88-.63-4.23-1.72-6.89l-9.55-23.17ZM843.07,140.29l-18.31-44.3-17.69,44.3h36Z"/>
    <path class="cls-3" d="M939.24,180.83v2.82h-42.11v-2.82c12.37-.63,15.65-2.35,15.65-10.96v-85.78h-10.64c-17.69,0-21.76,7.98-27.08,25.2l-3.13-.94c2.82-7.67,4.07-19.88.63-27.55l.63-1.1c4.38.63,8.3.94,13.15.94h63.55c5.01,0,8.92-.31,13.3-.94l.47,1.1c-3.44,7.67-2.19,19.88.63,27.55l-2.97.94c-5.32-17.22-9.39-25.2-27.08-25.2h-10.64v85.78c0,8.61,3.29,10.33,15.65,10.96Z"/>
    <path class="cls-3" d="M969.71,83.47v-2.82h41.95v2.82c-12.99.47-15.65,2.97-15.65,13.15v71.06c0,10.02,2.66,12.68,15.65,13.15v2.82h-41.95v-2.82c12.83-.47,15.65-3.13,15.65-13.15v-71.06c0-10.02-2.82-12.68-15.65-13.15Z"/>
    <path class="cls-3" d="M1065.61,186.15c-32.56,0-52.12-22.7-52.12-53.69s18.16-54,52.75-54,51.5,21.6,51.5,54.47c0,30.37-17.22,53.22-52.12,53.22ZM1067.65,182.55c31.77,0,37.72-24.57,37.72-48.05,0-25.67-9.86-52.44-40.7-52.44s-38.82,22.54-38.82,46.8c-.16,28.64,11.11,53.69,41.79,53.69Z"/>
    <path class="cls-3" d="M1206.61,166.43l-.31-71.22c0-9.08-2.35-11.43-17.06-11.9v-2.66h31.93v2.66c-9.24.47-11.43,2.66-11.43,10.96l-.47,89.38h-2.5l-69.65-82.96.47,66.05c0,10.33,2.35,13.62,17.06,14.09v2.82h-33.97v-2.82c11.11-.31,13.46-3.6,13.46-14.09v-69.5l-13.15-15.65.47-.94h13.3l71.84,85.78Z"/>
    <path class="cls-3" d="M1288.55,83.63l.31,1.25c-1.88,7.83-1.72,17.06-.16,26.14l-2.66.47c-2.97-20.04-11.27-29.74-27.08-29.74-14.09,0-22.38,7.36-22.38,18.94s6.1,17.22,19.57,21.91l10.49,3.76c17.53,6.1,25.2,16.44,25.2,30.68,0,18.94-13.93,29.11-32.87,29.11-10.49,0-20.5-2.35-28.33-4.85l-.94-1.1c0-9.24-1.1-18.78-2.97-27.86l2.82-.47c5.17,19.88,12.68,30.83,30.05,30.83,13.15,0,22.38-7.83,22.38-21.91,0-12.05-6.1-19.72-20.19-24.42l-11.11-3.76c-15.81-5.32-23.17-15.03-23.17-27.7,0-17.38,13.3-26.45,32.09-26.45,9.71,0,20.04,1.88,28.96,5.17Z"/>
    <path class="cls-3" d="M715.79,300.36h-34.91l-8.77,21.76c-1.25,2.97-1.72,5.01-1.72,6.89,0,5.17,5.17,6.1,15.34,6.57v4.07h-32.71v-4.07c7.36-.63,10.49-4.85,14.09-13.62l35.22-85.62h4.38l36.16,85.93c4.54,10.64,7.51,12.83,12.99,13.3v4.07h-43.04v-4.07c9.24-.16,13.15-2.82,13.15-7.51,0-1.72-.31-3.76-1.41-6.26l-8.77-21.44ZM714.07,296.13l-15.81-39.13-15.65,39.13h31.46Z"/>
    <path class="cls-3" d="M841.48,342.15l-45.24-53.38h-5.01v33.03c0,10.64,2.35,12.83,17.06,13.77v4.07h-46.8v-4.07c11.74-.94,14.09-3.13,14.09-13.77v-67.31c0-10.64-2.35-12.83-14.09-13.77v-4.07h45.55c23.79,0,39.44,7.67,39.44,25.36,0,15.96-12.37,23.63-31.46,25.67l41.79,48.37v3.6c-5.01,0-10.49.94-15.34,2.5ZM804.38,284.55c16.28-.63,24.89-7.51,24.89-21.76s-8.45-21.91-25.67-22.23l-12.37-.31v44.77l13.15-.47Z"/>
    <path class="cls-3" d="M910.17,342.15c-34.28,0-53.06-22.54-53.06-53.53s18.63-53.69,55.72-53.69c34.44,0,53.06,22.7,53.06,53.69s-18.78,53.53-55.72,53.53ZM913.92,337.92c27.24,0,34.75-20.82,34.75-44.92,0-28.17-9.08-53.69-37.41-53.69s-36.78,21.6-36.78,45.55c0,28.49,10.49,53.06,39.44,53.06Z"/>
    <path class="cls-3" d="M1020,342.15c-25.98,0-38.04-14.56-38.04-36.31v-54.31c0-8.3-2.04-10.64-13.93-10.96v-3.91h45.39v3.91c-12.37.31-15.81,2.66-15.81,10.8v55.72c0,17.38,9.08,28.02,27.86,28.02s27.86-10.64,27.86-28.02v-55.72c0-8.92-3.29-10.33-15.97-10.8v-3.91h32.87v3.91c-9.55.47-12.68,1.88-12.68,10.96l.16,54.31c0,21.76-12.05,36.31-37.72,36.31Z"/>
    <path class="cls-3" d="M1162.05,315.38l-.63-60.73c-.16-10.96-2.03-13.15-16.43-13.93v-4.07h33.5v4.07c-10.33.94-12.52,3.13-12.52,13.93v84.99h-3.76l-69.34-81.71.47,63.71c.16,10.96,2.04,13.15,16.44,13.93v4.07h-33.81v-4.07c10.64-.94,12.99-3.13,12.99-13.93v-68.25l-12.99-15.34.47-1.41h18.78l66.84,78.73Z"/>
    <path class="cls-3" d="M1184.62,335.58c11.74-.94,14.09-3.13,14.09-13.77v-67.31c0-10.64-2.35-12.83-14.09-13.77v-4.07h52.44c41.32,0,56.82,23.01,56.82,51.5s-15.5,51.5-56.82,51.5h-52.44v-4.07ZM1233.77,335.11c32.56-1.41,42.89-22.07,42.89-46.96s-10.33-45.55-42.89-46.96l-19.41-.78v95.32l19.41-.63Z"/>
    <path class="cls-3" d="M891.51,491.11v4.54h-56.82v-4.54c13.15-.16,16.59-2.35,16.59-10.8v-82.33h-8.14c-15.03,0-18.16,9.39-23.95,26.92l-4.54-.94c1.88-7.51,5.79-23.63,1.25-30.05l.63-1.25h93.13l.63,1.25c-4.54,5.17-.63,22.54,1.25,30.05l-4.54.94c-5.79-17.53-8.92-26.92-23.95-26.92h-8.14v82.33c0,8.45,3.44,10.64,16.59,10.8Z"/>
    <path class="cls-3" d="M972.28,498.15c-37.88,0-56.98-22.23-56.98-53.38s18.31-54.63,56.98-54.63,56.97,23.48,56.97,54.63-19.1,53.38-56.97,53.38ZM973.84,492.67c19.88,0,29.43-15.65,29.43-42.42,0-22.85-4.07-54.63-31.31-54.63-22.54,0-30.68,17.69-30.68,43.67s7.04,53.38,32.56,53.38Z"/>
    <path class="cls-3" d="M1156.59,396.56v-3.91h31.46v3.91c-6.1.63-10.33,2.97-13.93,15.03l-22.07,72.78,3.29,11.27c-8.77,0-17.22,1.1-24.89,4.38l-22.38-75.76-19.1,59.48,3.76,11.9c-8.77,0-17.22,1.1-24.89,4.38l-29.11-91.57c-3.13-9.86-6.73-11.11-13.62-11.9v-3.91h49.93v3.91c-10.64,1.1-12.37,3.91-9.86,11.9l21.6,68.09,19.1-59.64-2.35-8.14c-2.97-9.86-5.01-11.11-14.71-12.21v-3.91h52.91v3.91c-11.74.63-13.46,6.1-10.02,17.84l18.16,62.3,18.94-63.39c3.29-11.27.16-16.12-12.21-16.75Z"/>
    <path class="cls-3" d="M1280.88,460.9v-49.31c0-10.8-2.66-13.77-18.78-14.4v-4.54h36.16v4.54c-9.55.78-11.9,3.76-11.9,14.4v84.05h-5.48l-67.78-78.11v59.17c0,10.8,2.5,13.77,18,14.4v4.54h-37.72v-4.54c12.05-.78,14.24-3.76,14.24-14.4v-65.43l-14.24-16.43.78-2.19h26.77l59.95,68.25Z"/>
  </g>
  <text class="cls-1" transform="translate(362.66 -165.66)"><tspan x="0" y="0">a</tspan></text>
</svg>