<?xml version="1.0" encoding="UTF-8"?>
<svg id="Layer_1" data-name="Layer 1" xmlns="http://www.w3.org/2000/svg" xmlns:xlink="http://www.w3.org/1999/xlink" viewBox="0 0 1366 768">
  <defs>
    <style>
      .cls-1 {
        fill: #fff;
      }

      .cls-2 {
        clip-path: url(#clippath);
      }
    </style>
    <clipPath id="clippath">
      <rect x="-10" y="-10" width="1386" height="788"/>
    </clipPath>
  </defs>
  <g>
    <rect x="-10" y="-10" width="1386" height="788"/>
    <g class="cls-2">
      <rect x="-.35" y="-3.25" width="1366.71" height="779.89"/>
    </g>
  </g>
  <g>
    <path class="cls-1" d="M52.64,73.32c-1.21-1.28-2.84-2.73-4.87-4.33-2.04-1.45-3.49-2.91-4.36-4.36-.87-1.46-1.31-3.08-1.31-4.87,0-2.13.61-3.91,1.82-5.34,1.21-1.43,2.88-2.15,5.02-2.15,1.65,0,3.02.39,4.11,1.16s1.88,1.72,2.36,2.84c.44-1.12,1.2-2.06,2.29-2.84s2.46-1.16,4.11-1.16c2.13,0,3.82.72,5.05,2.15,1.24,1.43,1.85,3.21,1.85,5.34,0,1.79-.43,3.42-1.27,4.87-.85,1.45-2.29,2.91-4.33,4.36-2.08,1.55-3.73,2.97-4.94,4.25-1.21,1.29-2.13,2.73-2.76,4.33-.63-1.55-1.55-2.97-2.76-4.25ZM52.64,97.43c-1.21-1.26-2.84-2.69-4.87-4.29-2.04-1.45-3.49-2.91-4.36-4.36-.87-1.45-1.31-3.08-1.31-4.87,0-2.13.61-3.93,1.82-5.38,1.21-1.46,2.88-2.18,5.02-2.18,1.65,0,3.01.4,4.07,1.2,1.07.8,1.87,1.78,2.4,2.95.48-1.11,1.26-2.08,2.33-2.91,1.07-.82,2.42-1.24,4.07-1.24,2.13,0,3.82.73,5.05,2.18,1.24,1.45,1.85,3.25,1.85,5.38,0,1.79-.43,3.42-1.27,4.87-.85,1.46-2.29,2.91-4.33,4.36-2.08,1.55-3.73,2.97-4.94,4.25-1.21,1.29-2.13,2.7-2.76,4.25-.63-1.55-1.55-2.96-2.76-4.22Z"/>
    <path class="cls-1" d="M264.78,98.41c-3.44-2.74-5.38-6.61-5.82-11.6h14.69c.15,1.75.78,3.1,1.89,4.07s2.59,1.45,4.44,1.45c1.65,0,2.91-.42,3.78-1.27.87-.85,1.31-1.9,1.31-3.16,0-.97-.32-1.78-.95-2.44-.63-.66-1.67-1.15-3.13-1.49l-8.51-2.11c-4.46-1.12-7.77-2.85-9.93-5.2-2.16-2.35-3.24-5.46-3.24-9.34,0-2.91.74-5.57,2.22-8,1.48-2.42,3.72-4.35,6.73-5.78,3.01-1.43,6.67-2.14,10.98-2.14,5.91,0,10.63,1.36,14.14,4.07s5.49,6.38,5.93,10.98h-14.54c-.58-3.3-2.42-4.94-5.53-4.94-1.55,0-2.76.39-3.64,1.16-.87.78-1.31,1.77-1.31,2.98,0,2.08,1.28,3.42,3.85,4l8.8,2.18c4.31,1.02,7.51,2.73,9.6,5.13,2.08,2.4,3.13,5.47,3.13,9.2,0,4.94-1.59,8.91-4.76,11.89-3.18,2.98-8.08,4.47-14.72,4.47s-11.97-1.37-15.42-4.11Z"/>
    <path class="cls-1" d="M329.72,97.07c-1.45,1.75-3.16,3.09-5.13,4.04-1.96.95-4.13,1.42-6.51,1.42-4.17,0-7.45-1.05-9.85-3.16-2.4-2.11-3.6-4.79-3.6-8.03s1.24-6.12,3.71-8.18c2.47-2.06,6.01-3.31,10.62-3.75l9.45-.87v-2.33c0-1.36-.39-2.41-1.16-3.16-.78-.75-1.87-1.13-3.27-1.13-2.86,0-4.53,1.24-5.02,3.71h-13.74c.39-3.83,2.14-6.86,5.27-9.09s7.6-3.35,13.42-3.35c6.5,0,11.21,1.29,14.14,3.85,2.93,2.57,4.4,6.08,4.4,10.54v24.07h-12.72v-4.58ZM319.54,93.25c.82.7,1.94,1.05,3.35,1.05,1.6,0,2.87-.48,3.82-1.45.95-.97,1.42-2.21,1.42-3.71v-4l-4.29.58c-3.69.53-5.53,2.08-5.53,4.65,0,1.21.41,2.17,1.24,2.87Z"/>
    <path class="cls-1" d="M351.31,91.47h10.69v-17.23h-9.24v-10.18h23.63v27.41h10.69v10.18h-35.78v-10.18ZM363.71,57.11c-1.43-1.48-2.15-3.19-2.15-5.13s.71-3.56,2.15-5.02c1.43-1.46,3.28-2.18,5.56-2.18s4.01.73,5.49,2.18c1.48,1.45,2.22,3.13,2.22,5.02,0,1.21-.34,2.39-1.02,3.53-.68,1.14-1.6,2.06-2.76,2.76-1.16.7-2.47,1.05-3.93,1.05-2.28,0-4.13-.74-5.56-2.22Z"/>
    <path class="cls-1" d="M400.61,99.5c-3.2-2.01-5.07-4.96-5.6-8.83h13.31c.53,2.33,2.55,3.49,6.04,3.49,1.65,0,2.87-.23,3.67-.69.8-.46,1.2-1.08,1.2-1.85,0-.63-.23-1.14-.69-1.53-.46-.39-1.32-.68-2.58-.87l-8.87-1.45c-7.47-1.21-11.2-5.11-11.2-11.71,0-2.47.67-4.68,2-6.62,1.33-1.94,3.32-3.47,5.96-4.58,2.64-1.11,5.85-1.67,9.63-1.67,11.1,0,17.35,4.15,18.76,12.43h-13.31c-.44-2.62-2.28-3.93-5.53-3.93-1.55,0-2.72.23-3.49.69-.78.46-1.16,1.1-1.16,1.93,0,.68.24,1.19.73,1.53.48.34,1.28.63,2.4.87l10.47,2.04c3.68.73,6.35,2,8,3.82,1.65,1.82,2.47,4.21,2.47,7.16,0,3.93-1.61,7.04-4.84,9.34-3.22,2.3-7.84,3.45-13.85,3.45s-10.33-1.01-13.52-3.02Z"/>
    <path class="cls-1" d="M448.42,100.3c-3.08-1.48-5.49-3.7-7.24-6.65-1.75-2.96-2.62-6.54-2.62-10.76s.87-7.88,2.62-10.83,4.16-5.17,7.24-6.65c3.08-1.48,6.6-2.22,10.58-2.22s7.51.74,10.62,2.22c3.1,1.48,5.54,3.7,7.31,6.65s2.65,6.57,2.65,10.83-.9,7.81-2.69,10.76c-1.79,2.96-4.24,5.18-7.34,6.65-3.1,1.48-6.62,2.22-10.54,2.22s-7.5-.74-10.58-2.22ZM463.69,90.05c1.09-1.58,1.64-3.96,1.64-7.16s-.55-5.66-1.64-7.24c-1.09-1.57-2.61-2.36-4.54-2.36s-3.45.79-4.54,2.36c-1.09,1.58-1.64,3.99-1.64,7.24s.54,5.59,1.64,7.16,2.61,2.36,4.54,2.36,3.45-.79,4.54-2.36Z"/>
    <path class="cls-1" d="M508.45,74.92c-.78-.9-1.87-1.35-3.27-1.35-3.59,0-5.38,2.3-5.38,6.91v21.16h-14.4v-37.59h12.8v5.96c1.21-2.23,2.8-3.93,4.76-5.09,1.96-1.16,4.21-1.75,6.73-1.75,4.27,0,7.72,1.16,10.36,3.49,2.64,2.33,3.96,5.82,3.96,10.47v24.5h-14.4v-22.83c0-1.7-.39-2.99-1.16-3.89Z"/>
    <path class="cls-1" d="M736.95,52.27v39.05h9.6v10.33h-37.23v-10.33h12.22v-21.6c-3.01,1.84-6.71,2.76-11.13,2.76v-10.83c3.73-.34,6.73-1.31,8.98-2.91s3.62-3.76,4.11-6.47h13.45Z"/>
    <path class="cls-1" d="M941.16,52.27h21.38l11.71,49.37h-15.05l-1.96-10.11h-10.76l-1.96,10.11h-15.05l11.71-49.37ZM938.33,38.97h16.36l3.49,10.62h-12l-7.85-10.62ZM955.27,81.21l-3.42-17.96-3.42,17.96h6.83Z"/>
    <path class="cls-1" d="M1170.25,96.56v18.76h-14.4v-51.26h13.53v6.83c2.18-5.14,6.13-7.71,11.85-7.71,2.76,0,5.28.81,7.56,2.44,2.28,1.62,4.1,3.93,5.45,6.91,1.36,2.98,2.04,6.43,2.04,10.36s-.7,7.44-2.11,10.4c-1.41,2.96-3.29,5.24-5.64,6.83-2.35,1.6-4.91,2.4-7.67,2.4-4.75,0-8.29-1.99-10.62-5.96ZM1171.88,90.12c1.09,1.53,2.58,2.29,4.47,2.29,1.75,0,3.13-.76,4.14-2.29,1.02-1.53,1.53-3.96,1.53-7.31s-.5-5.71-1.49-7.24c-.99-1.53-2.36-2.29-4.11-2.29-1.89,0-3.39.76-4.51,2.29-1.12,1.53-1.67,3.94-1.67,7.24s.55,5.78,1.64,7.31Z"/>
    <path class="cls-1" d="M1227.91,91.47h10.69v10.18h-35.78v-10.18h10.69v-32h-9.96v-10.18h24.36v42.18Z"/>
    <path class="cls-1" d="M1271.1,97.07c-1.45,1.75-3.16,3.09-5.13,4.04-1.96.95-4.13,1.42-6.51,1.42-4.17,0-7.45-1.05-9.85-3.16-2.4-2.11-3.6-4.79-3.6-8.03s1.24-6.12,3.71-8.18c2.47-2.06,6.01-3.31,10.62-3.75l9.45-.87v-2.33c0-1.36-.39-2.41-1.16-3.16-.78-.75-1.87-1.13-3.27-1.13-2.86,0-4.53,1.24-5.02,3.71h-13.74c.39-3.83,2.14-6.86,5.27-9.09s7.6-3.35,13.42-3.35c6.5,0,11.21,1.29,14.14,3.85,2.93,2.57,4.4,6.08,4.4,10.54v24.07h-12.72v-4.58ZM1260.92,93.25c.82.7,1.94,1.05,3.35,1.05,1.6,0,2.87-.48,3.82-1.45.95-.97,1.42-2.21,1.42-3.71v-4l-4.29.58c-3.69.53-5.53,2.08-5.53,4.65,0,1.21.41,2.17,1.24,2.87Z"/>
    <path class="cls-1" d="M1317.2,90.74c.97.73,2.67,1.09,5.09,1.09s5.11-.24,7.93-.73v9.67c-3.44.87-7.54,1.31-12.29,1.31-5.67,0-9.85-1.07-12.54-3.2s-4.04-5.84-4.04-11.13v-13.53h-9.45v-10.18h9.6v-10.62h14.32v10.62h14.4v10.18h-14.47v12.51c0,1.94.48,3.27,1.45,4Z"/>
    <path class="cls-1" d="M46.14,187.23c-2.55-1.7-4.49-4.02-5.82-6.98-1.33-2.96-2-6.33-2-10.11s.67-7.16,2-10.14c1.33-2.98,3.26-5.32,5.78-7.02s5.48-2.55,8.87-2.55,6.34.85,8.83,2.55,4.41,4.04,5.75,7.02c1.33,2.98,2,6.36,2,10.14s-.67,7.15-2,10.11c-1.33,2.96-3.25,5.28-5.75,6.98s-5.42,2.55-8.76,2.55-6.36-.85-8.91-2.55ZM62.64,185.49c2.16-1.5,3.82-3.59,4.98-6.25,1.16-2.67,1.75-5.7,1.75-9.09s-.57-6.42-1.71-9.09c-1.14-2.67-2.79-4.76-4.94-6.29-2.16-1.53-4.74-2.29-7.74-2.29s-5.6.76-7.78,2.29c-2.18,1.53-3.84,3.62-4.98,6.29-1.14,2.67-1.71,5.7-1.71,9.09s.58,6.42,1.75,9.09,2.84,4.75,5.02,6.25c2.18,1.5,4.77,2.25,7.78,2.25s5.44-.75,7.6-2.25Z"/>
    <path class="cls-1" d="M90.09,160.11c.77-2.76,2.48-4.99,5.13-6.69,2.64-1.7,6.14-2.54,10.51-2.54,2.67,0,4.56.15,5.67.44v2.11c-1.94-.29-4-.44-6.18-.44-9.99,0-14.98,4.73-14.98,14.18v21.74h-2.11v-37.59h1.96v8.8Z"/>
    <path class="cls-1" d="M133.94,187.27c-2.47-1.67-4.39-4-5.74-6.98-1.36-2.98-2.04-6.36-2.04-10.14s.67-7.16,2-10.14c1.33-2.98,3.22-5.32,5.67-7.02,2.45-1.7,5.29-2.55,8.54-2.55,3.68,0,6.79,1.01,9.31,3.02,2.52,2.01,4.34,4.74,5.45,8.18v-25.09h2.11v52.36h-2.04v-10.62c-1.12,3.54-2.92,6.34-5.42,8.4-2.5,2.06-5.59,3.09-9.27,3.09-3.25,0-6.11-.84-8.58-2.51ZM130.16,179.23c1.21,2.67,2.9,4.75,5.05,6.25,2.16,1.5,4.67,2.25,7.53,2.25s5.45-.76,7.63-2.29c2.18-1.53,3.85-3.59,5.02-6.18,1.16-2.59,1.75-5.44,1.75-8.54v-1.31c0-3.1-.59-5.94-1.78-8.51-1.19-2.57-2.88-4.62-5.09-6.14-2.21-1.53-4.76-2.29-7.67-2.29s-5.3.76-7.45,2.29c-2.16,1.53-3.83,3.62-5.02,6.29-1.19,2.67-1.78,5.7-1.78,9.09s.61,6.42,1.82,9.09Z"/>
    <path class="cls-1" d="M171.68,186.87h13.89v-33.52h-13.02v-2.04h15.2v35.56h13.89v2.04h-29.96v-2.04ZM184.98,141.42c-.48-.48-.73-1.07-.73-1.75s.24-1.25.73-1.71c.48-.46,1.07-.69,1.75-.69s1.25.23,1.71.69c.46.46.69,1.03.69,1.71s-.24,1.26-.73,1.75c-.49.49-1.04.73-1.67.73-.68,0-1.26-.24-1.75-.73Z"/>
    <path class="cls-1" d="M240.14,156.26c-2.06-2.52-5.01-3.78-8.83-3.78s-7.03,1.31-9.31,3.93c-2.28,2.62-3.42,6.18-3.42,10.69v21.81h-2.18v-37.59h2.04v8c1.02-2.81,2.64-4.99,4.87-6.54,2.23-1.55,4.97-2.33,8.22-2.33,4.31,0,7.7,1.39,10.14,4.18,2.45,2.79,3.67,6.68,3.67,11.67v22.61h-2.11v-22.11c0-4.51-1.03-8.02-3.09-10.54Z"/>
    <path class="cls-1" d="M285.84,180.54c-1.26,2.96-3.15,5.24-5.67,6.83-2.52,1.6-5.43,2.4-8.73,2.4-2.62,0-4.9-.49-6.84-1.46-1.94-.97-3.43-2.28-4.47-3.93-1.04-1.65-1.56-3.49-1.56-5.53,0-3.05.99-5.53,2.98-7.42,1.99-1.89,4.97-3.05,8.94-3.49l15.27-1.75v-2.76c0-3.49-.97-6.21-2.91-8.14-1.94-1.94-4.68-2.91-8.22-2.91-7.42,0-11.61,3.49-12.58,10.47h-2.25c.48-4.07,2-7.16,4.54-9.27,2.54-2.11,5.95-3.16,10.22-3.16s7.49,1.14,9.82,3.42c2.33,2.28,3.49,5.48,3.49,9.6v25.45h-2.04v-8.36ZM263.69,185.23c1.96,1.72,4.59,2.58,7.89,2.58,2.76,0,5.21-.63,7.34-1.89,2.13-1.26,3.79-2.99,4.98-5.2,1.19-2.21,1.78-4.69,1.78-7.45v-5.16l-14.98,1.75c-3.34.39-5.84,1.37-7.49,2.95-1.65,1.58-2.47,3.6-2.47,6.07s.98,4.64,2.95,6.36Z"/>
    <path class="cls-1" d="M309.69,160.11c.77-2.76,2.48-4.99,5.13-6.69,2.64-1.7,6.14-2.54,10.51-2.54,2.67,0,4.56.15,5.67.44v2.11c-1.94-.29-4-.44-6.18-.44-9.99,0-14.98,4.73-14.98,14.18v21.74h-2.11v-37.59h1.96v8.8Z"/>
    <path class="cls-1" d="M354.11,202.58h-2.33l8.44-17.02-14.76-34.25h2.33l13.74,31.92,15.34-31.92h2.33l-25.09,51.26Z"/>
    <path class="cls-1" d="M661.04,160.91v2.4l-21.01-19.2v43.12h-1.82v-43.19l-21.09,19.27v-2.4l21.96-19.85,21.96,19.85Z"/>
    <path class="cls-1" d="M907.1,160.11c.77-2.76,2.48-4.99,5.13-6.69,2.64-1.7,6.14-2.54,10.51-2.54,2.67,0,4.56.15,5.67.44v2.11c-1.94-.29-4-.44-6.18-.44-9.99,0-14.98,4.73-14.98,14.18v21.74h-2.11v-37.59h1.96v8.8Z"/>
    <path class="cls-1" d="M951.27,187.23c-2.59-1.7-4.56-4.01-5.89-6.94-1.33-2.93-2-6.26-2-10s.68-7.32,2.04-10.33,3.28-5.34,5.78-7.02c2.5-1.67,5.37-2.51,8.62-2.51,5.09,0,9.03,1.72,11.82,5.16,2.79,3.44,4.18,8.07,4.18,13.89v1.45h-30.18c.1,4.99,1.45,9.04,4.07,12.14,2.62,3.1,6.2,4.65,10.76,4.65,3.25,0,5.97-.91,8.18-2.73,2.21-1.82,3.62-4.18,4.25-7.09h2.33c-.87,3.49-2.54,6.34-5.02,8.54-2.47,2.21-5.7,3.31-9.67,3.31-3.59,0-6.68-.85-9.27-2.55ZM973.63,168.98c-.05-5.19-1.3-9.24-3.75-12.14-2.45-2.91-5.81-4.36-10.07-4.36s-7.45,1.5-10,4.51c-2.54,3.01-3.94,7.01-4.18,12h28Z"/>
    <path class="cls-1" d="M996.25,186.91c-2.52-1.91-4.36-4.5-5.53-7.74v23.42h-2.11v-51.26h2.04v10.18c1.11-3.34,2.96-6.02,5.53-8.04,2.57-2.01,5.67-3.02,9.31-3.02,3.2,0,6.04.85,8.51,2.55,2.47,1.7,4.39,4.04,5.75,7.02,1.36,2.98,2.04,6.36,2.04,10.14s-.69,7.16-2.07,10.14c-1.38,2.98-3.32,5.31-5.82,6.98-2.5,1.67-5.34,2.51-8.54,2.51-3.54,0-6.57-.96-9.09-2.87ZM992.46,179.27c1.16,2.59,2.84,4.65,5.02,6.18s4.73,2.29,7.63,2.29,5.37-.75,7.53-2.25c2.16-1.5,3.84-3.59,5.05-6.25,1.21-2.67,1.82-5.7,1.82-9.09s-.59-6.42-1.78-9.09c-1.19-2.67-2.86-4.76-5.02-6.29-2.16-1.53-4.64-2.29-7.45-2.29s-5.47.76-7.67,2.29c-2.21,1.53-3.9,3.58-5.09,6.14-1.19,2.57-1.78,5.41-1.78,8.51v1.31c0,3.1.58,5.95,1.75,8.54Z"/>
    <path class="cls-1" d="M1039.11,187.23c-2.59-1.7-4.56-4.01-5.89-6.94-1.33-2.93-2-6.26-2-10s.68-7.32,2.04-10.33,3.28-5.34,5.78-7.02c2.5-1.67,5.37-2.51,8.62-2.51,5.09,0,9.03,1.72,11.82,5.16,2.79,3.44,4.18,8.07,4.18,13.89v1.45h-30.18c.1,4.99,1.45,9.04,4.07,12.14,2.62,3.1,6.2,4.65,10.76,4.65,3.25,0,5.97-.91,8.18-2.73,2.21-1.82,3.62-4.18,4.25-7.09h2.33c-.87,3.49-2.54,6.34-5.02,8.54-2.47,2.21-5.7,3.31-9.67,3.31-3.59,0-6.68-.85-9.27-2.55ZM1061.47,168.98c-.05-5.19-1.3-9.24-3.75-12.14-2.45-2.91-5.81-4.36-10.07-4.36s-7.45,1.5-10,4.51c-2.54,3.01-3.94,7.01-4.18,12h28Z"/>
    <path class="cls-1" d="M1089.97,183.63c.82,1.48,1.96,2.46,3.42,2.94,1.45.49,3.34.73,5.67.73s4.65-.19,6.98-.58v1.89c-2.13.48-4.65.73-7.56.73-3.93,0-6.9-.85-8.91-2.54-2.01-1.7-3.02-4.75-3.02-9.16v-24.29h-11.78v-2.04h11.78v-10.62h2.18v10.62h16.72v2.04h-16.72v23.85c0,2.81.41,4.96,1.24,6.44Z"/>
    <path class="cls-1" d="M1120.44,186.87h13.89v-33.52h-13.02v-2.04h15.2v35.56h13.89v2.04h-29.96v-2.04ZM1133.75,141.42c-.48-.48-.73-1.07-.73-1.75s.24-1.25.73-1.71c.48-.46,1.07-.69,1.75-.69s1.25.23,1.71.69c.46.46.69,1.03.69,1.71s-.24,1.26-.73,1.75c-.49.49-1.04.73-1.67.73-.68,0-1.26-.24-1.75-.73Z"/>
    <path class="cls-1" d="M1177.81,183.63c.82,1.48,1.96,2.46,3.42,2.94,1.45.49,3.34.73,5.67.73s4.65-.19,6.98-.58v1.89c-2.13.48-4.65.73-7.56.73-3.93,0-6.9-.85-8.91-2.54-2.01-1.7-3.02-4.75-3.02-9.16v-24.29h-11.78v-2.04h11.78v-10.62h2.18v10.62h16.72v2.04h-16.72v23.85c0,2.81.41,4.96,1.24,6.44Z"/>
    <path class="cls-1" d="M1208.28,186.87h13.89v-33.52h-13.02v-2.04h15.2v35.56h13.89v2.04h-29.96v-2.04ZM1221.58,141.42c-.48-.48-.73-1.07-.73-1.75s.24-1.25.73-1.71c.48-.46,1.07-.69,1.75-.69s1.25.23,1.71.69c.46.46.69,1.03.69,1.71s-.24,1.26-.73,1.75c-.49.49-1.04.73-1.67.73-.68,0-1.26-.24-1.75-.73Z"/>
    <path class="cls-1" d="M1258.41,187.23c-2.55-1.7-4.49-4.02-5.82-6.98-1.33-2.96-2-6.33-2-10.11s.67-7.16,2-10.14c1.33-2.98,3.26-5.32,5.78-7.02s5.48-2.55,8.87-2.55,6.34.85,8.83,2.55,4.41,4.04,5.75,7.02c1.33,2.98,2,6.36,2,10.14s-.67,7.15-2,10.11c-1.33,2.96-3.25,5.28-5.75,6.98s-5.42,2.55-8.76,2.55-6.36-.85-8.91-2.55ZM1274.92,185.49c2.16-1.5,3.82-3.59,4.98-6.25,1.16-2.67,1.75-5.7,1.75-9.09s-.57-6.42-1.71-9.09c-1.14-2.67-2.79-4.76-4.94-6.29-2.16-1.53-4.74-2.29-7.74-2.29s-5.6.76-7.78,2.29c-2.18,1.53-3.84,3.62-4.98,6.29-1.14,2.67-1.71,5.7-1.71,9.09s.58,6.42,1.75,9.09,2.84,4.75,5.02,6.25c2.18,1.5,4.77,2.25,7.78,2.25s5.44-.75,7.6-2.25Z"/>
    <path class="cls-1" d="M1320.66,156.26c-2.06-2.52-5.01-3.78-8.83-3.78s-7.03,1.31-9.31,3.93c-2.28,2.62-3.42,6.18-3.42,10.69v21.81h-2.18v-37.59h2.04v8c1.02-2.81,2.64-4.99,4.87-6.54,2.23-1.55,4.97-2.33,8.22-2.33,4.31,0,7.7,1.39,10.14,4.18,2.45,2.79,3.67,6.68,3.67,11.67v22.61h-2.11v-22.11c0-4.51-1.03-8.02-3.09-10.54Z"/>
    <path class="cls-1" d="M63.55,271.29c-2.86,3.83-6.86,5.75-12,5.75-2.76,0-5.19-.49-7.27-1.46-2.08-.97-3.71-2.3-4.87-4-1.16-1.7-1.75-3.64-1.75-5.82,0-6.79,4.56-10.66,13.67-11.63l11.34-1.16v-2.04c0-2.08-.59-3.65-1.78-4.69-1.19-1.04-2.87-1.56-5.05-1.56s-4.04.45-5.27,1.34c-1.24.9-2.05,2.27-2.44,4.11h-9.67c.53-4.07,2.27-7.16,5.2-9.27,2.93-2.11,6.97-3.16,12.11-3.16s9.27,1.14,12.11,3.42c2.84,2.28,4.25,5.74,4.25,10.4v24.65h-8.58v-4.87ZM49.34,269.15c1.14.95,2.73,1.42,4.76,1.42,2.71,0,4.8-.82,6.25-2.47,1.45-1.65,2.18-3.85,2.18-6.62v-2.76l-8.43,1.09c-2.28.34-3.93.97-4.94,1.89-1.02.92-1.53,2.18-1.53,3.78,0,1.5.57,2.73,1.71,3.67Z"/>
    <path class="cls-1" d="M194.69,274.64c-2.84-1.6-5.05-3.88-6.65-6.83-1.6-2.96-2.4-6.45-2.4-10.47s.8-7.45,2.4-10.43,3.82-5.26,6.65-6.84c2.84-1.57,6.07-2.36,9.71-2.36,5.14,0,9.19,1.27,12.14,3.82,2.96,2.54,4.75,5.97,5.38,10.29h-9.74c-.92-4.22-3.52-6.33-7.78-6.33-2.76,0-4.93,1.04-6.51,3.13-1.58,2.08-2.36,4.97-2.36,8.65s.79,6.67,2.36,8.8c1.58,2.13,3.75,3.2,6.51,3.2,2.18,0,3.89-.52,5.13-1.56,1.24-1.04,2.12-2.63,2.65-4.76h9.74c-.68,4.32-2.53,7.74-5.56,10.29s-7.02,3.82-11.96,3.82c-3.64,0-6.87-.8-9.71-2.4Z"/>
    <path class="cls-1" d="M256.39,271.29c-2.86,3.83-6.86,5.75-12,5.75-2.76,0-5.19-.49-7.27-1.46-2.08-.97-3.71-2.3-4.87-4-1.16-1.7-1.75-3.64-1.75-5.82,0-6.79,4.56-10.66,13.67-11.63l11.34-1.16v-2.04c0-2.08-.59-3.65-1.78-4.69-1.19-1.04-2.87-1.56-5.05-1.56s-4.04.45-5.27,1.34c-1.24.9-2.05,2.27-2.44,4.11h-9.67c.53-4.07,2.27-7.16,5.2-9.27,2.93-2.11,6.97-3.16,12.11-3.16s9.27,1.14,12.11,3.42c2.84,2.28,4.25,5.74,4.25,10.4v24.65h-8.58v-4.87ZM242.17,269.15c1.14.95,2.73,1.42,4.76,1.42,2.71,0,4.8-.82,6.25-2.47,1.45-1.65,2.18-3.85,2.18-6.62v-2.76l-8.43,1.09c-2.28.34-3.93.97-4.94,1.89-1.02.92-1.53,2.18-1.53,3.78,0,1.5.57,2.73,1.71,3.67Z"/>
    <path class="cls-1" d="M298.09,247.91c-1.29-1.48-3.09-2.22-5.42-2.22s-4.21.78-5.64,2.33c-1.43,1.55-2.15,3.76-2.15,6.62v21.52h-9.6v-37.59h8.65v5.31c2.47-4.12,6.42-6.18,11.85-6.18,4.17,0,7.51,1.25,10.04,3.75,2.52,2.5,3.78,6.17,3.78,11.02v23.71h-9.6v-21.52c0-3.01-.64-5.25-1.93-6.73Z"/>
    <path class="cls-1" d="M317.03,238.57h10.47l8.73,26.98,8.29-26.98h10.33l-13.16,37.59h-11.05l-13.6-37.59Z"/>
    <path class="cls-1" d="M388.58,271.29c-2.86,3.83-6.86,5.75-12,5.75-2.76,0-5.19-.49-7.27-1.46-2.08-.97-3.71-2.3-4.87-4-1.16-1.7-1.75-3.64-1.75-5.82,0-6.79,4.56-10.66,13.67-11.63l11.34-1.16v-2.04c0-2.08-.59-3.65-1.78-4.69-1.19-1.04-2.87-1.56-5.05-1.56s-4.04.45-5.27,1.34c-1.24.9-2.05,2.27-2.44,4.11h-9.67c.53-4.07,2.27-7.16,5.2-9.27,2.93-2.11,6.97-3.16,12.11-3.16s9.27,1.14,12.11,3.42c2.84,2.28,4.25,5.74,4.25,10.4v24.65h-8.58v-4.87ZM374.37,269.15c1.14.95,2.73,1.42,4.76,1.42,2.71,0,4.8-.82,6.25-2.47,1.45-1.65,2.18-3.85,2.18-6.62v-2.76l-8.43,1.09c-2.28.34-3.93.97-4.94,1.89-1.02.92-1.53,2.18-1.53,3.78,0,1.5.57,2.73,1.71,3.67Z"/>
    <path class="cls-1" d="M406.69,265.18h9.38c.39,1.7,1.27,2.97,2.65,3.82,1.38.85,3.33,1.27,5.85,1.27,2.28,0,4-.39,5.16-1.16,1.16-.77,1.75-1.84,1.75-3.2,0-1.07-.36-1.91-1.09-2.54-.73-.63-1.89-1.09-3.49-1.38l-8.29-1.38c-3.68-.63-6.44-1.83-8.25-3.6-1.82-1.77-2.73-4.23-2.73-7.38,0-2.23.61-4.24,1.82-6.04,1.21-1.79,3.02-3.22,5.42-4.29s5.3-1.6,8.69-1.6c4.99,0,8.93,1.1,11.82,3.31,2.88,2.21,4.64,5.25,5.27,9.13h-9.53c-.58-3.78-3.15-5.67-7.71-5.67-1.99,0-3.54.39-4.65,1.16-1.12.78-1.67,1.79-1.67,3.05,0,1.07.35,1.9,1.05,2.51.7.61,1.95,1.05,3.75,1.34l7.85,1.46c4.02.73,6.94,2,8.76,3.82s2.73,4.23,2.73,7.24c0,3.49-1.39,6.36-4.18,8.62-2.79,2.25-6.94,3.38-12.47,3.38-10.47,0-16.43-3.95-17.89-11.85Z"/>
    <path class="cls-1" d="M562.95,274.64c-2.91-1.6-5.19-3.89-6.83-6.87-1.65-2.98-2.47-6.44-2.47-10.36s.82-7.38,2.47-10.36c1.65-2.98,3.93-5.28,6.83-6.91,2.91-1.62,6.2-2.44,9.89-2.44s6.99.81,9.92,2.44c2.93,1.62,5.22,3.93,6.87,6.91,1.65,2.98,2.47,6.43,2.47,10.36s-.83,7.37-2.47,10.33c-1.65,2.96-3.94,5.25-6.87,6.87-2.93,1.62-6.24,2.44-9.92,2.44s-6.98-.8-9.89-2.4ZM579.6,266.06c1.7-2.13,2.54-5.02,2.54-8.65s-.84-6.59-2.51-8.73c-1.67-2.13-3.94-3.2-6.8-3.2s-5.07,1.08-6.76,3.24c-1.7,2.16-2.54,5.05-2.54,8.69s.85,6.52,2.54,8.65c1.7,2.13,3.95,3.2,6.76,3.2s5.06-1.07,6.76-3.2Z"/>
    <path class="cls-1" d="M632.54,223.88v7.34c-1.46-.29-3.18-.44-5.16-.44-2.62,0-4.5.44-5.64,1.31-1.14.87-1.71,2.28-1.71,4.22v2.25h12.58v7.93h-12.58v29.67h-9.6v-29.67h-10.11v-7.93h10.11v-2.18c0-4.36,1.3-7.67,3.89-9.93,2.59-2.25,6.31-3.38,11.16-3.38,2.96,0,5.31.27,7.05.8Z"/>
    <path class="cls-1" d="M759.49,267.18c1.12,1.24,2.71,1.85,4.8,1.85,2.37,0,4.28-.78,5.71-2.33,1.43-1.55,2.15-3.61,2.15-6.18v-21.96h9.67v37.59h-8.65v-5.6c-1.26,2.08-2.88,3.68-4.87,4.8-1.99,1.11-4.24,1.67-6.76,1.67-4.22,0-7.49-1.19-9.82-3.56-2.33-2.38-3.49-5.79-3.49-10.25v-24.65h9.6v23.34c0,2.28.56,4.04,1.67,5.27Z"/>
    <path class="cls-1" d="M815.96,247.91c-1.29-1.48-3.09-2.22-5.42-2.22s-4.21.78-5.64,2.33c-1.43,1.55-2.15,3.76-2.15,6.62v21.52h-9.6v-37.59h8.65v5.31c2.47-4.12,6.42-6.18,11.85-6.18,4.17,0,7.51,1.25,10.04,3.75,2.52,2.5,3.78,6.17,3.78,11.02v23.71h-9.6v-21.52c0-3.01-.64-5.25-1.93-6.73Z"/>
    <path class="cls-1" d="M837.01,268.24h12.07v-21.74h-10.11v-7.93h19.71v29.67h11.93v7.93h-33.59v-7.93ZM849.77,230.72c-1.09-1.11-1.64-2.45-1.64-4s.54-2.95,1.64-4.04,2.48-1.64,4.18-1.64,3.02.54,4.11,1.64c1.09,1.09,1.64,2.44,1.64,4.04s-.55,2.88-1.64,4c-1.09,1.12-2.46,1.67-4.11,1.67s-3.09-.56-4.18-1.67Z"/>
    <path class="cls-1" d="M913.5,223.88v7.34c-1.46-.29-3.18-.44-5.16-.44-2.62,0-4.5.44-5.64,1.31-1.14.87-1.71,2.28-1.71,4.22v2.25h12.58v7.93h-12.58v29.67h-9.6v-29.67h-10.11v-7.93h10.11v-2.18c0-4.36,1.3-7.67,3.89-9.93,2.59-2.25,6.31-3.38,11.16-3.38,2.96,0,5.31.27,7.05.8Z"/>
    <path class="cls-1" d="M932.04,274.64c-2.91-1.6-5.19-3.89-6.83-6.87-1.65-2.98-2.47-6.44-2.47-10.36s.82-7.38,2.47-10.36c1.65-2.98,3.93-5.28,6.83-6.91,2.91-1.62,6.2-2.44,9.89-2.44s6.99.81,9.92,2.44c2.93,1.62,5.22,3.93,6.87,6.91,1.65,2.98,2.47,6.43,2.47,10.36s-.83,7.37-2.47,10.33c-1.65,2.96-3.94,5.25-6.87,6.87-2.93,1.62-6.24,2.44-9.92,2.44s-6.98-.8-9.89-2.4ZM948.69,266.06c1.7-2.13,2.54-5.02,2.54-8.65s-.84-6.59-2.51-8.73c-1.67-2.13-3.94-3.2-6.8-3.2s-5.07,1.08-6.76,3.24c-1.7,2.16-2.54,5.05-2.54,8.69s.85,6.52,2.54,8.65c1.7,2.13,3.95,3.2,6.76,3.2s5.06-1.07,6.76-3.2Z"/>
    <path class="cls-1" d="M981.34,246.35c1.11-2.57,2.93-4.57,5.45-6,2.52-1.43,5.7-2.14,9.53-2.14,2.38,0,4.39.17,6.04.51v9.02c-2.04-.29-4.24-.44-6.62-.44-4.7,0-8.12.81-10.25,2.44-2.13,1.62-3.2,4.16-3.2,7.6v18.83h-9.6v-37.59h8.65v7.78Z"/>
    <path class="cls-1" d="M1040.68,247c-.53-.82-1.41-1.24-2.62-1.24s-2.12.42-2.73,1.27c-.61.85-.91,2.02-.91,3.53v25.6h-8.43v-25.45c0-1.65-.27-2.88-.8-3.71-.53-.82-1.41-1.24-2.62-1.24s-2.05.42-2.65,1.27c-.61.85-.91,2.02-.91,3.53v25.6h-8.44v-37.59h7.13v3.71c1.65-3.05,4.24-4.58,7.78-4.58s5.96,1.5,7.42,4.51c1.84-3,4.48-4.51,7.93-4.51,3.15,0,5.45,1.08,6.91,3.24,1.46,2.16,2.18,5.05,2.18,8.69v26.54h-8.43v-25.45c0-1.65-.27-2.88-.8-3.71Z"/>
    <path class="cls-1" d="M1057.33,268.24h12.07v-21.74h-10.11v-7.93h19.71v29.67h11.93v7.93h-33.59v-7.93ZM1070.09,230.72c-1.09-1.11-1.64-2.45-1.64-4s.54-2.95,1.64-4.04,2.48-1.64,4.18-1.64,3.02.54,4.11,1.64c1.09,1.09,1.64,2.44,1.64,4.04s-.55,2.88-1.64,4c-1.09,1.12-2.46,1.67-4.11,1.67s-3.09-.56-4.18-1.67Z"/>
    <path class="cls-1" d="M1122.08,267.26c1.04.85,2.92,1.27,5.64,1.27s5.55-.22,8.51-.65v7.78c-3.2.63-6.71.95-10.54.95-5.33,0-9.14-1.08-11.42-3.24-2.28-2.16-3.42-5.54-3.42-10.14v-16.72h-10.33v-7.93h10.33v-10.62h9.67v10.62h15.71v7.93h-15.71v16c0,2.33.52,3.92,1.56,4.76Z"/>
    <path class="cls-1" d="M1159.49,289.83h-10.18l7.71-17.31-14.18-33.96h10.18l9.38,23.49,9.53-23.49h9.74l-22.18,51.26Z"/>
    <path class="cls-1" d="M1332.99,254.79l-21.96,19.71-21.96-19.71v-9.82l18.4,16.87v-33.52h7.2v33.45l18.32-16.8v9.82Z"/>
    <path class="cls-1" d="M69.85,310.78v2.04c-1.59-.29-3.57-.44-5.94-.44-3.38,0-5.84.68-7.38,2.04-1.54,1.36-2.32,3.61-2.32,6.76v4.65h15.63v2.04h-15.63v35.56h-2.17v-35.56h-12.3v-2.04h12.3v-4.94c0-7.03,3.91-10.54,11.72-10.54,2.32,0,4.34.15,6.08.44Z"/>
    <path class="cls-1" d="M109.8,355.06c-1.26,2.96-3.14,5.24-5.65,6.83-2.51,1.6-5.4,2.4-8.69,2.4-2.61,0-4.87-.49-6.8-1.46-1.93-.97-3.41-2.28-4.45-3.93-1.04-1.65-1.56-3.49-1.56-5.53,0-3.05.99-5.53,2.97-7.42,1.98-1.89,4.95-3.05,8.9-3.49l15.2-1.75v-2.76c0-3.49-.97-6.21-2.9-8.14-1.93-1.94-4.66-2.91-8.18-2.91-7.38,0-11.56,3.49-12.52,10.47h-2.24c.48-4.07,1.99-7.16,4.52-9.27,2.53-2.11,5.92-3.16,10.17-3.16s7.46,1.14,9.77,3.42c2.32,2.28,3.47,5.48,3.47,9.6v25.45h-2.03v-8.36ZM87.76,359.75c1.95,1.72,4.57,2.58,7.85,2.58,2.75,0,5.19-.63,7.31-1.89,2.12-1.26,3.77-2.99,4.96-5.2,1.18-2.21,1.77-4.69,1.77-7.45v-5.16l-14.91,1.75c-3.33.39-5.81,1.37-7.45,2.95-1.64,1.58-2.46,3.6-2.46,6.07s.98,4.64,2.93,6.36Z"/>
    <path class="cls-1" d="M157.93,329.76c-1.21-1.84-3.18-2.76-5.94-2.76s-4.93,1.13-6.41,3.38c-1.47,2.25-2.21,5.2-2.21,8.83v24.21h-2.17v-26.25c0-3.05-.59-5.51-1.77-7.38-1.18-1.87-3.15-2.8-5.9-2.8s-4.89,1.13-6.41,3.38c-1.52,2.25-2.28,5.2-2.28,8.83v24.21h-2.1v-37.59h1.88v6.25c.77-2.23,1.93-3.97,3.47-5.24,1.54-1.26,3.47-1.89,5.79-1.89s4.29.64,5.79,1.93c1.5,1.28,2.56,3.07,3.18,5.34.72-2.28,1.88-4.06,3.47-5.34,1.59-1.28,3.59-1.93,6.01-1.93,3.18,0,5.56,1.08,7.13,3.24,1.57,2.16,2.35,5.05,2.35,8.69v26.54h-2.1v-26.25c0-3.1-.6-5.57-1.81-7.42Z"/>
    <path class="cls-1" d="M171.03,361.39h13.82v-33.52h-12.96v-2.04h15.13v35.56h13.82v2.04h-29.82v-2.04ZM184.27,315.94c-.48-.48-.72-1.07-.72-1.75s.24-1.25.72-1.71c.48-.46,1.06-.69,1.74-.69s1.24.23,1.7.69c.46.46.69,1.03.69,1.71s-.24,1.26-.72,1.75c-.48.49-1.04.73-1.67.73-.68,0-1.25-.24-1.74-.73Z"/>
    <path class="cls-1" d="M230.74,361.39h13.82v2.04h-29.82v-2.04h13.82v-48.28h-12.52v-2.04h14.69v50.32Z"/>
    <path class="cls-1" d="M258.46,361.39h13.82v-33.52h-12.96v-2.04h15.13v35.56h13.82v2.04h-29.82v-2.04ZM271.7,315.94c-.48-.48-.72-1.07-.72-1.75s.24-1.25.72-1.71c.48-.46,1.06-.69,1.74-.69s1.24.23,1.7.69c.46.46.69,1.03.69,1.71s-.24,1.26-.72,1.75c-.48.49-1.04.73-1.67.73-.68,0-1.25-.24-1.74-.73Z"/>
    <path class="cls-1" d="M328.37,355.06c-1.26,2.96-3.14,5.24-5.65,6.83-2.51,1.6-5.4,2.4-8.69,2.4-2.61,0-4.87-.49-6.8-1.46-1.93-.97-3.41-2.28-4.45-3.93-1.04-1.65-1.56-3.49-1.56-5.53,0-3.05.99-5.53,2.97-7.42,1.98-1.89,4.95-3.05,8.9-3.49l15.2-1.75v-2.76c0-3.49-.97-6.21-2.9-8.14-1.93-1.94-4.66-2.91-8.18-2.91-7.38,0-11.56,3.49-12.52,10.47h-2.24c.48-4.07,1.99-7.16,4.52-9.27,2.53-2.11,5.92-3.16,10.17-3.16s7.46,1.14,9.77,3.42c2.32,2.28,3.47,5.48,3.47,9.6v25.45h-2.03v-8.36ZM306.33,359.75c1.95,1.72,4.57,2.58,7.85,2.58,2.75,0,5.19-.63,7.31-1.89,2.12-1.26,3.77-2.99,4.96-5.2,1.18-2.21,1.77-4.69,1.77-7.45v-5.16l-14.91,1.75c-3.33.39-5.81,1.37-7.45,2.95-1.64,1.58-2.46,3.6-2.46,6.07s.98,4.64,2.93,6.36Z"/>
    <path class="cls-1" d="M352.11,334.63c.77-2.76,2.47-4.99,5.1-6.69,2.63-1.7,6.12-2.54,10.46-2.54,2.65,0,4.53.15,5.65.44v2.11c-1.93-.29-3.98-.44-6.15-.44-9.94,0-14.91,4.73-14.91,14.18v21.74h-2.1v-37.59h1.96v8.8Z"/>
    <path class="cls-1" d="M513.46,361.75c-2.58-1.7-4.54-4.01-5.86-6.94-1.33-2.93-1.99-6.26-1.99-10s.67-7.32,2.03-10.33c1.35-3.01,3.27-5.34,5.75-7.02,2.48-1.67,5.34-2.51,8.58-2.51,5.07,0,8.99,1.72,11.76,5.16,2.77,3.44,4.16,8.07,4.16,13.89v1.45h-30.04c.1,4.99,1.45,9.04,4.05,12.14,2.61,3.1,6.18,4.65,10.71,4.65,3.23,0,5.95-.91,8.14-2.73,2.2-1.82,3.61-4.18,4.23-7.09h2.32c-.87,3.49-2.53,6.34-4.99,8.54s-5.67,3.31-9.63,3.31c-3.57,0-6.65-.85-9.23-2.55ZM535.72,343.5c-.05-5.19-1.29-9.24-3.73-12.14-2.44-2.91-5.78-4.36-10.02-4.36s-7.42,1.5-9.95,4.51c-2.53,3.01-3.92,7.01-4.16,12h27.87Z"/>
    <path class="cls-1" d="M566.69,361.39h13.82v2.04h-29.82v-2.04h13.82v-48.28h-12.52v-2.04h14.69v50.32Z"/>
    <path class="cls-1" d="M600.89,361.75c-2.58-1.7-4.54-4.01-5.86-6.94-1.33-2.93-1.99-6.26-1.99-10s.67-7.32,2.03-10.33c1.35-3.01,3.27-5.34,5.75-7.02,2.48-1.67,5.34-2.51,8.58-2.51,5.07,0,8.99,1.72,11.76,5.16,2.77,3.44,4.16,8.07,4.16,13.89v1.45h-30.04c.1,4.99,1.45,9.04,4.05,12.14,2.61,3.1,6.18,4.65,10.71,4.65,3.23,0,5.95-.91,8.14-2.73,2.2-1.82,3.61-4.18,4.23-7.09h2.32c-.87,3.49-2.53,6.34-4.99,8.54s-5.67,3.31-9.63,3.31c-3.57,0-6.65-.85-9.23-2.55ZM623.15,343.5c-.05-5.19-1.29-9.24-3.73-12.14-2.44-2.91-5.78-4.36-10.02-4.36s-7.42,1.5-9.95,4.51c-2.53,3.01-3.92,7.01-4.16,12h27.87Z"/>
    <path class="cls-1" d="M668.74,329.76c-1.21-1.84-3.18-2.76-5.94-2.76s-4.93,1.13-6.41,3.38c-1.47,2.25-2.21,5.2-2.21,8.83v24.21h-2.17v-26.25c0-3.05-.59-5.51-1.77-7.38-1.18-1.87-3.15-2.8-5.9-2.8s-4.89,1.13-6.41,3.38c-1.52,2.25-2.28,5.2-2.28,8.83v24.21h-2.1v-37.59h1.88v6.25c.77-2.23,1.93-3.97,3.47-5.24,1.54-1.26,3.47-1.89,5.79-1.89s4.29.64,5.79,1.93c1.5,1.28,2.56,3.07,3.18,5.34.72-2.28,1.88-4.06,3.47-5.34,1.59-1.28,3.59-1.93,6.01-1.93,3.18,0,5.56,1.08,7.13,3.24,1.57,2.16,2.35,5.05,2.35,8.69v26.54h-2.1v-26.25c0-3.1-.6-5.57-1.81-7.42Z"/>
    <path class="cls-1" d="M688.32,361.75c-2.58-1.7-4.54-4.01-5.86-6.94-1.33-2.93-1.99-6.26-1.99-10s.67-7.32,2.03-10.33c1.35-3.01,3.27-5.34,5.75-7.02,2.48-1.67,5.34-2.51,8.58-2.51,5.07,0,8.99,1.72,11.76,5.16,2.77,3.44,4.16,8.07,4.16,13.89v1.45h-30.04c.1,4.99,1.45,9.04,4.05,12.14,2.61,3.1,6.18,4.65,10.71,4.65,3.23,0,5.95-.91,8.14-2.73,2.2-1.82,3.61-4.18,4.23-7.09h2.32c-.87,3.49-2.53,6.34-4.99,8.54s-5.67,3.31-9.63,3.31c-3.57,0-6.65-.85-9.23-2.55ZM710.57,343.5c-.05-5.19-1.29-9.24-3.73-12.14-2.44-2.91-5.78-4.36-10.02-4.36s-7.42,1.5-9.95,4.51c-2.53,3.01-3.92,7.01-4.16,12h27.87Z"/>
    <path class="cls-1" d="M749.98,330.77c-2.05-2.52-4.98-3.78-8.79-3.78s-7,1.31-9.26,3.93c-2.27,2.62-3.4,6.18-3.4,10.69v21.81h-2.17v-37.59h2.03v8c1.01-2.81,2.63-4.99,4.85-6.54,2.22-1.55,4.95-2.33,8.18-2.33,4.29,0,7.66,1.39,10.1,4.18,2.44,2.79,3.66,6.68,3.66,11.67v22.61h-2.1v-22.11c0-4.51-1.03-8.02-3.08-10.54Z"/>
    <path class="cls-1" d="M782.66,358.15c.82,1.48,1.95,2.46,3.4,2.94,1.45.49,3.33.73,5.65.73s4.63-.19,6.95-.58v1.89c-2.12.48-4.63.73-7.53.73-3.91,0-6.86-.85-8.87-2.54-2-1.7-3-4.75-3-9.16v-24.29h-11.72v-2.04h11.72v-10.62h2.17v10.62h16.65v2.04h-16.65v23.85c0,2.81.41,4.96,1.23,6.44Z"/>
    <path class="cls-1" d="M818.27,361.24c-2.75-2.04-4.42-4.97-4.99-8.8h2.24c.53,3.25,1.99,5.71,4.38,7.38,2.39,1.67,5.46,2.51,9.23,2.51,3.57,0,6.33-.7,8.29-2.11,1.95-1.41,2.93-3.44,2.93-6.11,0-2.23-.71-3.95-2.13-5.16-1.42-1.21-3.73-2.16-6.91-2.84l-7.38-1.53c-3.33-.68-5.73-1.77-7.2-3.27-1.47-1.5-2.21-3.51-2.21-6.04,0-3.05,1.18-5.54,3.55-7.45,2.36-1.92,5.62-2.87,9.77-2.87s7.67,1.03,10.13,3.09c2.46,2.06,3.91,5.17,4.34,9.34h-2.24c-.77-6.98-4.85-10.47-12.23-10.47-3.52,0-6.25.76-8.18,2.29-1.93,1.53-2.89,3.53-2.89,6,0,1.94.58,3.5,1.74,4.69,1.16,1.19,3.18,2.07,6.08,2.65l7.53,1.53c3.67.78,6.32,1.93,7.96,3.45,1.64,1.53,2.46,3.67,2.46,6.44,0,3.25-1.15,5.78-3.44,7.6-2.29,1.82-5.61,2.73-9.95,2.73s-8.11-1.02-10.86-3.05Z"/>
    <path class="cls-1" d="M984.88,351.93c-1.84-1.94-4.31-4.07-7.42-6.4-3.05-2.33-5.24-4.57-6.54-6.73-1.31-2.16-1.96-4.59-1.96-7.31,0-3.3.93-6.01,2.8-8.14,1.87-2.13,4.4-3.2,7.6-3.2,2.52,0,4.59.58,6.22,1.75,1.62,1.16,2.8,2.62,3.53,4.36.68-1.75,1.84-3.2,3.49-4.36,1.65-1.16,3.71-1.75,6.18-1.75,3.2,0,5.75,1.08,7.64,3.24,1.89,2.16,2.84,4.86,2.84,8.11,0,2.71-.66,5.15-1.96,7.31-1.31,2.16-3.49,4.4-6.54,6.73-3.1,2.33-5.58,4.46-7.42,6.4-1.84,1.94-3.25,4.07-4.22,6.4-.97-2.33-2.38-4.46-4.22-6.4ZM992.04,346.08c1.28-1.19,2.87-2.48,4.76-3.89,2.37-1.79,3.99-3.41,4.84-4.84.85-1.43,1.27-3.07,1.27-4.91s-.55-3.34-1.64-4.65c-1.09-1.31-2.68-1.96-4.76-1.96s-3.66.54-4.87,1.64c-1.21,1.09-2.06,2.46-2.54,4.11-.49-1.65-1.33-3.02-2.54-4.11-1.21-1.09-2.84-1.64-4.87-1.64s-3.67.65-4.76,1.96c-1.09,1.31-1.64,2.86-1.64,4.65s.42,3.48,1.27,4.91c.85,1.43,2.46,3.04,4.83,4.84,1.89,1.41,3.48,2.7,4.76,3.89,1.28,1.19,2.27,2.41,2.95,3.67.68-1.26,1.66-2.48,2.95-3.67Z"/>
    <path class="cls-1" d="M1172.16,335.43v2.4l-21.01-19.2v43.12h-1.82v-43.19l-21.09,19.27v-2.4l21.96-19.85,21.96,19.85Z"/>
    <path class="cls-1" d="M1333.26,335.43v2.4l-21.01-19.2v43.12h-1.82v-43.19l-21.09,19.27v-2.4l21.96-19.85,21.96,19.85Z"/>
    <path class="cls-1" d="M64.71,445.45c-3.01,4.07-7.15,6.11-12.43,6.11-2.62,0-4.98-.47-7.09-1.42-2.11-.95-3.76-2.27-4.95-3.96-1.19-1.7-1.78-3.64-1.78-5.82,0-6.64,4.44-10.42,13.31-11.34l12.65-1.31v-2.69c0-2.67-.79-4.64-2.36-5.93-1.58-1.28-3.74-1.93-6.51-1.93-3.15,0-5.58.59-7.27,1.78-1.7,1.19-2.71,3.09-3.05,5.71h-5.82c.48-4.07,2.12-7.16,4.91-9.27,2.79-2.11,6.53-3.16,11.23-3.16s8.07,1.08,10.69,3.24c2.62,2.16,3.93,5.42,3.93,9.78v25.45h-5.45v-5.24ZM46.94,444.79c1.53,1.21,3.67,1.82,6.43,1.82,3.39,0,6.07-.97,8.04-2.91,1.96-1.94,2.95-4.53,2.95-7.78v-3.93l-11.56,1.45c-2.96.39-5.05,1.14-6.29,2.25-1.24,1.12-1.85,2.62-1.85,4.51s.76,3.37,2.29,4.58Z"/>
    <path class="cls-1" d="M146.36,448.39c-2.64-2.11-4.21-5-4.69-8.69h5.89c.48,2.42,1.59,4.22,3.31,5.38,1.72,1.16,4.16,1.75,7.31,1.75,2.81,0,5-.53,6.58-1.6,1.58-1.07,2.36-2.57,2.36-4.51,0-1.6-.48-2.86-1.45-3.78-.97-.92-2.62-1.55-4.94-1.89l-7.85-1.24c-6.79-1.07-10.18-4.53-10.18-10.4,0-2.04.56-3.9,1.67-5.6,1.12-1.7,2.76-3.05,4.95-4.07,2.18-1.02,4.75-1.53,7.71-1.53,4.56,0,8.14,1.08,10.76,3.24,2.62,2.16,4.17,5.22,4.65,9.2h-6.11c-.73-5.14-3.88-7.71-9.45-7.71-2.52,0-4.5.57-5.93,1.71-1.43,1.14-2.15,2.58-2.15,4.33,0,1.41.45,2.56,1.35,3.45.9.9,2.41,1.52,4.54,1.85l7.71,1.31c7.17,1.21,10.76,4.73,10.76,10.54,0,3.44-1.25,6.21-3.75,8.29-2.5,2.08-6.29,3.13-11.38,3.13s-9.03-1.05-11.67-3.16Z"/>
    <path class="cls-1" d="M188.93,446.32c-3.2-3.49-4.8-8.17-4.8-14.03,0-4.07.76-7.62,2.29-10.65,1.53-3.03,3.61-5.36,6.25-6.98,2.64-1.62,5.61-2.44,8.91-2.44,5.53,0,9.72,1.76,12.58,5.27s4.29,8.42,4.29,14.72l-.07,1.82h-28c.29,4.02,1.47,7.09,3.53,9.2,2.06,2.11,4.69,3.16,7.89,3.16,2.71,0,4.91-.61,6.58-1.82,1.67-1.21,2.82-2.84,3.45-4.87h6.04c-.78,3.49-2.5,6.34-5.16,8.54s-6.16,3.31-10.47,3.31c-5.67,0-10.11-1.75-13.31-5.24ZM212.42,429.08c-.24-4.02-1.32-7-3.24-8.94-1.92-1.94-4.45-2.91-7.6-2.91-2.96,0-5.44,1.01-7.45,3.02s-3.24,4.96-3.67,8.83h21.96Z"/>
    <path class="cls-1" d="M254.23,445.45c-3.01,4.07-7.15,6.11-12.43,6.11-2.62,0-4.98-.47-7.09-1.42-2.11-.95-3.76-2.27-4.95-3.96-1.19-1.7-1.78-3.64-1.78-5.82,0-6.64,4.44-10.42,13.31-11.34l12.65-1.31v-2.69c0-2.67-.79-4.64-2.36-5.93-1.58-1.28-3.74-1.93-6.51-1.93-3.15,0-5.58.59-7.27,1.78-1.7,1.19-2.71,3.09-3.05,5.71h-5.82c.48-4.07,2.12-7.16,4.91-9.27,2.79-2.11,6.53-3.16,11.23-3.16s8.07,1.08,10.69,3.24c2.62,2.16,3.93,5.42,3.93,9.78v25.45h-5.45v-5.24ZM236.45,444.79c1.53,1.21,3.67,1.82,6.43,1.82,3.39,0,6.07-.97,8.04-2.91,1.96-1.94,2.95-4.53,2.95-7.78v-3.93l-11.56,1.45c-2.96.39-5.05,1.14-6.29,2.25-1.24,1.12-1.85,2.62-1.85,4.51s.76,3.37,2.29,4.58Z"/>
    <path class="cls-1" d="M337.58,449.12c-2.72-1.62-4.8-3.91-6.25-6.87s-2.18-6.37-2.18-10.25.73-7.38,2.18-10.36,3.54-5.3,6.25-6.94c2.71-1.65,5.89-2.47,9.53-2.47s6.88.83,9.6,2.47c2.71,1.65,4.8,3.95,6.25,6.91,1.46,2.96,2.18,6.4,2.18,10.33s-.73,7.3-2.18,10.25c-1.45,2.96-3.54,5.26-6.25,6.91-2.72,1.65-5.89,2.47-9.53,2.47s-6.88-.81-9.6-2.44ZM355.76,442.35c2.13-2.69,3.2-6.17,3.2-10.43s-1.05-7.82-3.16-10.51-5.01-4.04-8.69-4.04-6.51,1.36-8.62,4.07c-2.11,2.72-3.16,6.23-3.16,10.54s1.07,7.67,3.2,10.36c2.13,2.69,5.02,4.04,8.65,4.04s6.45-1.35,8.58-4.04Z"/>
    <path class="cls-1" d="M406.22,398.11v4.94c-1.41-.24-3.32-.36-5.75-.36-3.05,0-5.27.59-6.65,1.78-1.38,1.19-2.07,3.02-2.07,5.49v3.13h14.47v5.09h-14.47v32.5h-5.82v-32.5h-11.12v-5.09h11.12v-3.2c0-3.88,1.19-6.9,3.56-9.05,2.37-2.16,5.86-3.24,10.47-3.24,2.67,0,4.75.17,6.25.51Z"/>
    <path class="cls-1" d="M481.97,448.39c-2.64-2.11-4.21-5-4.69-8.69h5.89c.48,2.42,1.59,4.22,3.31,5.38,1.72,1.16,4.16,1.75,7.31,1.75,2.81,0,5-.53,6.58-1.6,1.58-1.07,2.36-2.57,2.36-4.51,0-1.6-.48-2.86-1.45-3.78-.97-.92-2.62-1.55-4.94-1.89l-7.85-1.24c-6.79-1.07-10.18-4.53-10.18-10.4,0-2.04.56-3.9,1.67-5.6,1.12-1.7,2.76-3.05,4.95-4.07,2.18-1.02,4.75-1.53,7.71-1.53,4.56,0,8.14,1.08,10.76,3.24,2.62,2.16,4.17,5.22,4.65,9.2h-6.11c-.73-5.14-3.88-7.71-9.45-7.71-2.52,0-4.5.57-5.93,1.71-1.43,1.14-2.15,2.58-2.15,4.33,0,1.41.45,2.56,1.35,3.45.9.9,2.41,1.52,4.54,1.85l7.71,1.31c7.17,1.21,10.76,4.73,10.76,10.54,0,3.44-1.25,6.21-3.75,8.29-2.5,2.08-6.29,3.13-11.38,3.13s-9.03-1.05-11.67-3.16Z"/>
    <path class="cls-1" d="M546.43,445.45c-3.01,4.07-7.15,6.11-12.43,6.11-2.62,0-4.98-.47-7.09-1.42-2.11-.95-3.76-2.27-4.95-3.96-1.19-1.7-1.78-3.64-1.78-5.82,0-6.64,4.44-10.42,13.31-11.34l12.65-1.31v-2.69c0-2.67-.79-4.64-2.36-5.93-1.58-1.28-3.74-1.93-6.51-1.93-3.15,0-5.58.59-7.27,1.78-1.7,1.19-2.71,3.09-3.05,5.71h-5.82c.48-4.07,2.12-7.16,4.91-9.27,2.79-2.11,6.53-3.16,11.23-3.16s8.07,1.08,10.69,3.24c2.62,2.16,3.93,5.42,3.93,9.78v25.45h-5.45v-5.24ZM528.65,444.79c1.53,1.21,3.67,1.82,6.43,1.82,3.39,0,6.07-.97,8.04-2.91,1.96-1.94,2.95-4.53,2.95-7.78v-3.93l-11.56,1.45c-2.96.39-5.05,1.14-6.29,2.25-1.24,1.12-1.85,2.62-1.85,4.51s.76,3.37,2.29,4.58Z"/>
    <path class="cls-1" d="M593.11,419.45c-.83-1.33-2.18-2-4.07-2s-3.27.68-4.29,2.04c-1.02,1.36-1.53,3.25-1.53,5.67v25.52h-5.67v-25.16c0-2.71-.41-4.74-1.24-6.07-.83-1.33-2.18-2-4.07-2s-3.27.68-4.29,2.04c-1.02,1.36-1.53,3.25-1.53,5.67v25.52h-5.67v-37.59h4.73v4.14c1.65-3.34,4.31-5.02,8-5.02s6.57,1.58,8.22,4.73c.92-1.45,2.1-2.6,3.53-3.45,1.43-.85,3.04-1.27,4.84-1.27,3.3,0,5.78,1.09,7.45,3.27,1.67,2.18,2.51,5.24,2.51,9.16v26.03h-5.67v-25.16c0-2.71-.41-4.74-1.24-6.07Z"/>
    <path class="cls-1" d="M611.36,446.32c-3.2-3.49-4.8-8.17-4.8-14.03,0-4.07.76-7.62,2.29-10.65,1.53-3.03,3.61-5.36,6.25-6.98,2.64-1.62,5.61-2.44,8.91-2.44,5.53,0,9.72,1.76,12.58,5.27s4.29,8.42,4.29,14.72l-.07,1.82h-28c.29,4.02,1.47,7.09,3.53,9.2,2.06,2.11,4.69,3.16,7.89,3.16,2.71,0,4.91-.61,6.58-1.82,1.67-1.21,2.82-2.84,3.45-4.87h6.04c-.78,3.49-2.5,6.34-5.16,8.54s-6.16,3.31-10.47,3.31c-5.67,0-10.11-1.75-13.31-5.24ZM634.85,429.08c-.24-4.02-1.32-7-3.24-8.94-1.92-1.94-4.45-2.91-7.6-2.91-2.96,0-5.44,1.01-7.45,3.02s-3.24,4.96-3.67,8.83h21.96Z"/>
    <path class="cls-1" d="M675.39,420.29c-1.58-1.94-3.82-2.91-6.73-2.91s-5.33,1.01-7.13,3.02c-1.79,2.01-2.69,4.88-2.69,8.62v21.67h-5.82v-37.59h5.6v5.16c2.33-4.02,6.06-6.04,11.2-6.04,4.17,0,7.5,1.35,10,4.04,2.5,2.69,3.75,6.51,3.75,11.45v22.98h-5.82v-21.96c0-3.68-.79-6.5-2.36-8.43Z"/>
    <path class="cls-1" d="M698.18,446.32c-3.2-3.49-4.8-8.17-4.8-14.03,0-4.07.76-7.62,2.29-10.65,1.53-3.03,3.61-5.36,6.25-6.98,2.64-1.62,5.61-2.44,8.91-2.44,5.53,0,9.72,1.76,12.58,5.27s4.29,8.42,4.29,14.72l-.07,1.82h-28c.29,4.02,1.47,7.09,3.53,9.2,2.06,2.11,4.69,3.16,7.89,3.16,2.71,0,4.91-.61,6.58-1.82,1.67-1.21,2.82-2.84,3.45-4.87h6.04c-.78,3.49-2.5,6.34-5.16,8.54s-6.16,3.31-10.47,3.31c-5.67,0-10.11-1.75-13.31-5.24ZM721.67,429.08c-.24-4.02-1.32-7-3.24-8.94-1.92-1.94-4.45-2.91-7.6-2.91-2.96,0-5.44,1.01-7.45,3.02s-3.24,4.96-3.67,8.83h21.96Z"/>
    <path class="cls-1" d="M742.43,448.39c-2.64-2.11-4.21-5-4.69-8.69h5.89c.48,2.42,1.59,4.22,3.31,5.38,1.72,1.16,4.16,1.75,7.31,1.75,2.81,0,5-.53,6.58-1.6,1.58-1.07,2.36-2.57,2.36-4.51,0-1.6-.48-2.86-1.45-3.78-.97-.92-2.62-1.55-4.94-1.89l-7.85-1.24c-6.79-1.07-10.18-4.53-10.18-10.4,0-2.04.56-3.9,1.67-5.6,1.12-1.7,2.76-3.05,4.95-4.07,2.18-1.02,4.75-1.53,7.71-1.53,4.56,0,8.14,1.08,10.76,3.24,2.62,2.16,4.17,5.22,4.65,9.2h-6.11c-.73-5.14-3.88-7.71-9.45-7.71-2.52,0-4.5.57-5.93,1.71-1.43,1.14-2.15,2.58-2.15,4.33,0,1.41.45,2.56,1.35,3.45.9.9,2.41,1.52,4.54,1.85l7.71,1.31c7.17,1.21,10.76,4.73,10.76,10.54,0,3.44-1.25,6.21-3.75,8.29-2.5,2.08-6.29,3.13-11.38,3.13s-9.03-1.05-11.67-3.16Z"/>
    <path class="cls-1" d="M785.84,448.39c-2.64-2.11-4.21-5-4.69-8.69h5.89c.48,2.42,1.59,4.22,3.31,5.38,1.72,1.16,4.16,1.75,7.31,1.75,2.81,0,5-.53,6.58-1.6,1.58-1.07,2.36-2.57,2.36-4.51,0-1.6-.48-2.86-1.45-3.78-.97-.92-2.62-1.55-4.94-1.89l-7.85-1.24c-6.79-1.07-10.18-4.53-10.18-10.4,0-2.04.56-3.9,1.67-5.6,1.12-1.7,2.76-3.05,4.95-4.07,2.18-1.02,4.75-1.53,7.71-1.53,4.56,0,8.14,1.08,10.76,3.24,2.62,2.16,4.17,5.22,4.65,9.2h-6.11c-.73-5.14-3.88-7.71-9.45-7.71-2.52,0-4.5.57-5.93,1.71-1.43,1.14-2.15,2.58-2.15,4.33,0,1.41.45,2.56,1.35,3.45.9.9,2.41,1.52,4.54,1.85l7.71,1.31c7.17,1.21,10.76,4.73,10.76,10.54,0,3.44-1.25,6.21-3.75,8.29-2.5,2.08-6.29,3.13-11.38,3.13s-9.03-1.05-11.67-3.16Z"/>
    <path class="cls-1" d="M916.56,417.38h-26.54l27.27,27.27-3.2,3.27-27.2-27.2v26.32l-4.58-4.51.22-29.52,29.52-.22,4.51,4.58Z"/>
    <path class="cls-1" d="M997.85,420.14c2.18-4.99,7.15-7.49,14.91-7.49,3.2,0,5.45.19,6.76.58v5.67c-2.38-.34-4.85-.51-7.42-.51-5.24,0-8.88.88-10.94,2.65-2.06,1.77-3.09,4.5-3.09,8.18v21.45h-5.82v-37.59h5.6v7.05Z"/>
    <path class="cls-1" d="M1035.51,446.32c-3.2-3.49-4.8-8.17-4.8-14.03,0-4.07.76-7.62,2.29-10.65,1.53-3.03,3.61-5.36,6.25-6.98,2.64-1.62,5.61-2.44,8.91-2.44,5.53,0,9.72,1.76,12.58,5.27s4.29,8.42,4.29,14.72l-.07,1.82h-28c.29,4.02,1.47,7.09,3.53,9.2,2.06,2.11,4.69,3.16,7.89,3.16,2.71,0,4.91-.61,6.58-1.82,1.67-1.21,2.82-2.84,3.45-4.87h6.04c-.78,3.49-2.5,6.34-5.16,8.54s-6.16,3.31-10.47,3.31c-5.67,0-10.11-1.75-13.31-5.24ZM1059,429.08c-.24-4.02-1.32-7-3.24-8.94-1.92-1.94-4.45-2.91-7.6-2.91-2.96,0-5.44,1.01-7.45,3.02s-3.24,4.96-3.67,8.83h21.96Z"/>
    <path class="cls-1" d="M1070.78,413.09h5.6l5.82,30.47,6.62-30.47h5.38l6.62,30.47,5.82-30.47h5.6l-7.49,37.59h-7.56l-5.67-27.05-5.67,27.05h-7.56l-7.49-37.59Z"/>
    <path class="cls-1" d="M1125.89,449.12c-2.72-1.62-4.8-3.91-6.25-6.87s-2.18-6.37-2.18-10.25.73-7.38,2.18-10.36,3.54-5.3,6.25-6.94c2.71-1.65,5.89-2.47,9.53-2.47s6.88.83,9.6,2.47c2.71,1.65,4.8,3.95,6.25,6.91,1.46,2.96,2.18,6.4,2.18,10.33s-.73,7.3-2.18,10.25c-1.45,2.96-3.54,5.26-6.25,6.91-2.72,1.65-5.89,2.47-9.53,2.47s-6.88-.81-9.6-2.44ZM1144.07,442.35c2.13-2.69,3.2-6.17,3.2-10.43s-1.05-7.82-3.16-10.51-5.01-4.04-8.69-4.04-6.51,1.36-8.62,4.07c-2.11,2.72-3.16,6.23-3.16,10.54s1.07,7.67,3.2,10.36c2.13,2.69,5.02,4.04,8.65,4.04s6.45-1.35,8.58-4.04Z"/>
    <path class="cls-1" d="M1173.52,420.14c2.18-4.99,7.15-7.49,14.91-7.49,3.2,0,5.45.19,6.76.58v5.67c-2.38-.34-4.85-.51-7.42-.51-5.24,0-8.88.88-10.94,2.65-2.06,1.77-3.09,4.5-3.09,8.18v21.45h-5.82v-37.59h5.6v7.05Z"/>
    <path class="cls-1" d="M1215.26,431.77v18.91h-5.82v-52.36h5.82v30.1l17.31-15.34h7.05l-18.91,16.94,19.56,20.65h-7.13l-17.89-18.91Z"/>
    <path class="cls-1" d="M1255.11,446.32c-3.2-3.49-4.8-8.17-4.8-14.03,0-4.07.76-7.62,2.29-10.65,1.53-3.03,3.61-5.36,6.25-6.98,2.64-1.62,5.61-2.44,8.91-2.44,5.53,0,9.72,1.76,12.58,5.27s4.29,8.42,4.29,14.72l-.07,1.82h-28c.29,4.02,1.47,7.09,3.53,9.2,2.06,2.11,4.69,3.16,7.89,3.16,2.71,0,4.91-.61,6.58-1.82,1.67-1.21,2.82-2.84,3.45-4.87h6.04c-.78,3.49-2.5,6.34-5.16,8.54s-6.16,3.31-10.47,3.31c-5.67,0-10.11-1.75-13.31-5.24ZM1278.59,429.08c-.24-4.02-1.32-7-3.24-8.94-1.92-1.94-4.45-2.91-7.6-2.91-2.96,0-5.44,1.01-7.45,3.02s-3.24,4.96-3.67,8.83h21.96Z"/>
    <path class="cls-1" d="M1301.42,449.15c-2.57-1.6-4.58-3.89-6.04-6.87-1.46-2.98-2.18-6.44-2.18-10.36s.71-7.32,2.14-10.33,3.42-5.32,5.96-6.94c2.54-1.62,5.39-2.44,8.54-2.44,5.96,0,10.28,2.45,12.94,7.34v-21.23h5.82v52.36h-5.53v-7.56c-1.26,2.62-2.99,4.68-5.2,6.18-2.21,1.5-4.81,2.25-7.82,2.25-3.2,0-6.08-.8-8.65-2.4ZM1300.88,439.59c.99,2.21,2.38,3.9,4.15,5.09,1.77,1.19,3.77,1.78,6,1.78s4.24-.58,6.04-1.75c1.79-1.16,3.2-2.85,4.22-5.05,1.02-2.21,1.53-4.79,1.53-7.74s-.52-5.33-1.56-7.56c-1.04-2.23-2.46-3.97-4.25-5.24-1.79-1.26-3.78-1.89-5.96-1.89-3.59,0-6.42,1.33-8.51,4-2.08,2.67-3.13,6.23-3.13,10.69,0,2.91.5,5.47,1.49,7.67Z"/>
    <path class="cls-1" d="M39.19,533.87l32.07-32.14,1.31,1.24-32.14,32.14,28.36.07-1.67,1.75-29.52-.29-.29-29.52,1.75-1.67.15,28.43Z"/>
    <path class="cls-1" d="M118.3,533.87l32.07-32.14,1.31,1.24-32.14,32.14,28.36.07-1.67,1.75-29.52-.29-.29-29.52,1.75-1.67.15,28.43Z"/>
    <path class="cls-1" d="M204.32,536.3c-2.47-1.67-4.39-4-5.74-6.98-1.36-2.98-2.04-6.36-2.04-10.14s.67-7.16,2-10.14c1.33-2.98,3.22-5.32,5.67-7.02,2.45-1.7,5.29-2.55,8.54-2.55,3.68,0,6.79,1.01,9.31,3.02,2.52,2.01,4.34,4.74,5.45,8.18v-25.09h2.11v52.36h-2.04v-10.62c-1.12,3.54-2.92,6.34-5.42,8.4-2.5,2.06-5.59,3.09-9.27,3.09-3.25,0-6.11-.84-8.58-2.51ZM200.54,528.27c1.21,2.67,2.9,4.75,5.05,6.25,2.16,1.5,4.67,2.25,7.53,2.25s5.45-.76,7.63-2.29c2.18-1.53,3.85-3.59,5.02-6.18,1.16-2.59,1.75-5.44,1.75-8.54v-1.31c0-3.1-.59-5.94-1.78-8.51-1.19-2.57-2.88-4.62-5.09-6.14-2.21-1.53-4.76-2.29-7.67-2.29s-5.3.76-7.45,2.29c-2.16,1.53-3.83,3.62-5.02,6.29-1.19,2.67-1.78,5.7-1.78,9.09s.61,6.42,1.82,9.09Z"/>
    <path class="cls-1" d="M248.57,536.27c-2.59-1.7-4.56-4.01-5.89-6.94-1.33-2.93-2-6.26-2-10s.68-7.32,2.04-10.33,3.28-5.34,5.78-7.02c2.5-1.67,5.37-2.51,8.62-2.51,5.09,0,9.03,1.72,11.82,5.16,2.79,3.44,4.18,8.07,4.18,13.89v1.45h-30.18c.1,4.99,1.45,9.04,4.07,12.14,2.62,3.1,6.2,4.65,10.76,4.65,3.25,0,5.97-.91,8.18-2.73,2.21-1.82,3.62-4.18,4.25-7.09h2.33c-.87,3.49-2.54,6.34-5.02,8.54-2.47,2.21-5.7,3.31-9.67,3.31-3.59,0-6.68-.85-9.27-2.55ZM270.93,518.01c-.05-5.19-1.3-9.24-3.75-12.14-2.45-2.91-5.81-4.36-10.07-4.36s-7.45,1.5-10,4.51c-2.54,3.01-3.94,7.01-4.18,12h28Z"/>
    <path class="cls-1" d="M292.6,536.3c-2.52-1.67-4.44-4-5.74-6.98-1.31-2.98-1.96-6.36-1.96-10.14s.65-7.24,1.96-10.22c1.31-2.98,3.22-5.31,5.74-6.98,2.52-1.67,5.5-2.51,8.94-2.51,4.56,0,8.14,1.26,10.76,3.78,2.62,2.52,4.22,5.84,4.8,9.96h-2.25c-.53-3.59-1.93-6.43-4.18-8.54-2.25-2.11-5.3-3.16-9.13-3.16-4.61,0-8.17,1.62-10.69,4.87-2.52,3.25-3.78,7.49-3.78,12.73s1.26,9.43,3.78,12.72c2.52,3.3,6.08,4.95,10.69,4.95,3.83,0,6.87-1.05,9.13-3.16,2.25-2.11,3.65-4.93,4.18-8.47h2.25c-.58,4.07-2.18,7.37-4.8,9.89-2.62,2.52-6.21,3.78-10.76,3.78-3.44,0-6.42-.84-8.94-2.51Z"/>
    <path class="cls-1" d="M336.12,536.27c-2.55-1.7-4.49-4.02-5.82-6.98-1.33-2.96-2-6.33-2-10.11s.67-7.16,2-10.14c1.33-2.98,3.26-5.32,5.78-7.02s5.48-2.55,8.87-2.55,6.34.85,8.83,2.55,4.41,4.04,5.75,7.02c1.33,2.98,2,6.36,2,10.14s-.67,7.15-2,10.11c-1.33,2.96-3.25,5.28-5.75,6.98s-5.42,2.55-8.76,2.55-6.36-.85-8.91-2.55ZM352.62,534.52c2.16-1.5,3.82-3.59,4.98-6.25,1.16-2.67,1.75-5.7,1.75-9.09s-.57-6.42-1.71-9.09c-1.14-2.67-2.79-4.76-4.94-6.29-2.16-1.53-4.74-2.29-7.74-2.29s-5.6.76-7.78,2.29c-2.18,1.53-3.84,3.62-4.98,6.29-1.14,2.67-1.71,5.7-1.71,9.09s.58,6.42,1.75,9.09,2.84,4.75,5.02,6.25c2.18,1.5,4.77,2.25,7.78,2.25s5.44-.75,7.6-2.25Z"/>
    <path class="cls-1" d="M398.36,505.29c-2.06-2.52-5.01-3.78-8.83-3.78s-7.03,1.31-9.31,3.93c-2.28,2.62-3.42,6.18-3.42,10.69v21.81h-2.18v-37.59h2.04v8c1.02-2.81,2.64-4.99,4.87-6.54,2.23-1.55,4.97-2.33,8.22-2.33,4.31,0,7.7,1.39,10.14,4.18,2.45,2.79,3.67,6.68,3.67,11.67v22.61h-2.11v-22.11c0-4.51-1.03-8.02-3.09-10.54Z"/>
    <path class="cls-1" d="M423.05,535.76c-2.76-2.04-4.44-4.97-5.02-8.8h2.25c.53,3.25,2,5.71,4.4,7.38,2.4,1.67,5.49,2.51,9.27,2.51,3.59,0,6.36-.7,8.33-2.11,1.96-1.41,2.94-3.44,2.94-6.11,0-2.23-.72-3.95-2.14-5.16-1.43-1.21-3.75-2.16-6.94-2.84l-7.42-1.53c-3.34-.68-5.76-1.77-7.24-3.27-1.48-1.5-2.22-3.51-2.22-6.04,0-3.05,1.19-5.54,3.56-7.45s5.65-2.87,9.82-2.87,7.71,1.03,10.18,3.09c2.47,2.06,3.93,5.17,4.36,9.34h-2.25c-.78-6.98-4.87-10.47-12.29-10.47-3.54,0-6.28.76-8.22,2.29-1.94,1.53-2.91,3.53-2.91,6,0,1.94.58,3.5,1.75,4.69,1.16,1.19,3.2,2.07,6.11,2.65l7.56,1.53c3.68.78,6.35,1.93,8,3.45,1.65,1.53,2.47,3.67,2.47,6.44,0,3.25-1.15,5.78-3.45,7.6-2.3,1.82-5.63,2.73-10,2.73s-8.14-1.02-10.91-3.05Z"/>
    <path class="cls-1" d="M475.11,532.67c.82,1.48,1.96,2.46,3.42,2.94,1.45.49,3.34.73,5.67.73s4.65-.19,6.98-.58v1.89c-2.13.48-4.65.73-7.56.73-3.93,0-6.9-.85-8.91-2.54-2.01-1.7-3.02-4.75-3.02-9.16v-24.29h-11.78v-2.04h11.78v-10.62h2.18v10.62h16.72v2.04h-16.72v23.85c0,2.81.41,4.96,1.24,6.44Z"/>
    <path class="cls-1" d="M511.83,509.14c.77-2.76,2.48-4.99,5.13-6.69,2.64-1.7,6.14-2.54,10.51-2.54,2.67,0,4.56.15,5.67.44v2.11c-1.94-.29-4-.44-6.18-.44-9.99,0-14.98,4.73-14.98,14.18v21.74h-2.11v-37.59h1.96v8.8Z"/>
    <path class="cls-1" d="M554.95,533.54c1.84,2.16,4.7,3.24,8.58,3.24s6.88-1.37,9.16-4.11c2.28-2.74,3.42-6.31,3.42-10.73v-21.6h2.18v37.59h-2.04v-8.8c-.97,3.05-2.57,5.43-4.8,7.13-2.23,1.7-4.99,2.55-8.29,2.55-4.51,0-7.83-1.25-9.96-3.75-2.13-2.5-3.2-5.9-3.2-10.22v-24.5h2.18v24.43c0,3.68.92,6.61,2.76,8.76Z"/>
    <path class="cls-1" d="M600.03,536.3c-2.52-1.67-4.44-4-5.74-6.98-1.31-2.98-1.96-6.36-1.96-10.14s.65-7.24,1.96-10.22c1.31-2.98,3.22-5.31,5.74-6.98,2.52-1.67,5.5-2.51,8.94-2.51,4.56,0,8.14,1.26,10.76,3.78,2.62,2.52,4.22,5.84,4.8,9.96h-2.25c-.53-3.59-1.93-6.43-4.18-8.54-2.25-2.11-5.3-3.16-9.13-3.16-4.61,0-8.17,1.62-10.69,4.87-2.52,3.25-3.78,7.49-3.78,12.73s1.26,9.43,3.78,12.72c2.52,3.3,6.08,4.95,10.69,4.95,3.83,0,6.87-1.05,9.13-3.16,2.25-2.11,3.65-4.93,4.18-8.47h2.25c-.58,4.07-2.18,7.37-4.8,9.89-2.62,2.52-6.21,3.78-10.76,3.78-3.44,0-6.42-.84-8.94-2.51Z"/>
    <path class="cls-1" d="M650.78,532.67c.82,1.48,1.96,2.46,3.42,2.94,1.45.49,3.34.73,5.67.73s4.65-.19,6.98-.58v1.89c-2.13.48-4.65.73-7.56.73-3.93,0-6.9-.85-8.91-2.54-2.01-1.7-3.02-4.75-3.02-9.16v-24.29h-11.78v-2.04h11.78v-10.62h2.18v10.62h16.72v2.04h-16.72v23.85c0,2.81.41,4.96,1.24,6.44Z"/>
    <path class="cls-1" d="M687.76,536.27c-2.59-1.7-4.56-4.01-5.89-6.94-1.33-2.93-2-6.26-2-10s.68-7.32,2.04-10.33,3.28-5.34,5.78-7.02c2.5-1.67,5.37-2.51,8.62-2.51,5.09,0,9.03,1.72,11.82,5.16,2.79,3.44,4.18,8.07,4.18,13.89v1.45h-30.18c.1,4.99,1.45,9.04,4.07,12.14,2.62,3.1,6.2,4.65,10.76,4.65,3.25,0,5.97-.91,8.18-2.73,2.21-1.82,3.62-4.18,4.25-7.09h2.33c-.87,3.49-2.54,6.34-5.02,8.54-2.47,2.21-5.7,3.31-9.67,3.31-3.59,0-6.68-.85-9.27-2.55ZM710.12,518.01c-.05-5.19-1.3-9.24-3.75-12.14-2.45-2.91-5.81-4.36-10.07-4.36s-7.45,1.5-10,4.51c-2.54,3.01-3.94,7.01-4.18,12h28Z"/>
    <path class="cls-1" d="M731.35,536.3c-2.47-1.67-4.39-4-5.74-6.98-1.36-2.98-2.04-6.36-2.04-10.14s.67-7.16,2-10.14c1.33-2.98,3.22-5.32,5.67-7.02,2.45-1.7,5.29-2.55,8.54-2.55,3.68,0,6.79,1.01,9.31,3.02,2.52,2.01,4.34,4.74,5.45,8.18v-25.09h2.11v52.36h-2.04v-10.62c-1.12,3.54-2.92,6.34-5.42,8.4-2.5,2.06-5.59,3.09-9.27,3.09-3.25,0-6.11-.84-8.58-2.51ZM727.57,528.27c1.21,2.67,2.9,4.75,5.05,6.25,2.16,1.5,4.67,2.25,7.53,2.25s5.45-.76,7.63-2.29c2.18-1.53,3.85-3.59,5.02-6.18,1.16-2.59,1.75-5.44,1.75-8.54v-1.31c0-3.1-.59-5.94-1.78-8.51-1.19-2.57-2.88-4.62-5.09-6.14-2.21-1.53-4.76-2.29-7.67-2.29s-5.3.76-7.45,2.29c-2.16,1.53-3.83,3.62-5.02,6.29-1.19,2.67-1.78,5.7-1.78,9.09s.61,6.42,1.82,9.09Z"/>
    <path class="cls-1" d="M823.77,526.45c-1.84-1.94-4.31-4.07-7.42-6.4-3.05-2.33-5.24-4.57-6.54-6.73-1.31-2.16-1.96-4.59-1.96-7.31,0-3.3.93-6.01,2.8-8.14,1.87-2.13,4.4-3.2,7.6-3.2,2.52,0,4.59.58,6.22,1.75,1.62,1.16,2.8,2.62,3.53,4.36.68-1.75,1.84-3.2,3.49-4.36,1.65-1.16,3.71-1.75,6.18-1.75,3.2,0,5.75,1.08,7.64,3.24,1.89,2.16,2.84,4.86,2.84,8.11,0,2.71-.66,5.15-1.96,7.31-1.31,2.16-3.49,4.4-6.54,6.73-3.1,2.33-5.58,4.46-7.42,6.4-1.84,1.94-3.25,4.07-4.22,6.4-.97-2.33-2.38-4.46-4.22-6.4Z"/>
    <path class="cls-1" d="M907.1,509.14c.77-2.76,2.48-4.99,5.13-6.69,2.64-1.7,6.14-2.54,10.51-2.54,2.67,0,4.56.15,5.67.44v2.11c-1.94-.29-4-.44-6.18-.44-9.99,0-14.98,4.73-14.98,14.18v21.74h-2.11v-37.59h1.96v8.8Z"/>
    <path class="cls-1" d="M951.27,536.27c-2.59-1.7-4.56-4.01-5.89-6.94-1.33-2.93-2-6.26-2-10s.68-7.32,2.04-10.33,3.28-5.34,5.78-7.02c2.5-1.67,5.37-2.51,8.62-2.51,5.09,0,9.03,1.72,11.82,5.16,2.79,3.44,4.18,8.07,4.18,13.89v1.45h-30.18c.1,4.99,1.45,9.04,4.07,12.14,2.62,3.1,6.2,4.65,10.76,4.65,3.25,0,5.97-.91,8.18-2.73,2.21-1.82,3.62-4.18,4.25-7.09h2.33c-.87,3.49-2.54,6.34-5.02,8.54-2.47,2.21-5.7,3.31-9.67,3.31-3.59,0-6.68-.85-9.27-2.55ZM973.63,518.01c-.05-5.19-1.3-9.24-3.75-12.14-2.45-2.91-5.81-4.36-10.07-4.36s-7.45,1.5-10,4.51c-2.54,3.01-3.94,7.01-4.18,12h28Z"/>
    <path class="cls-1" d="M988.68,535.9h13.89v-33.52h-13.02v-2.04h15.2v35.56h13.89v2.04h-29.96v-2.04ZM1001.99,490.46c-.48-.48-.73-1.07-.73-1.75s.24-1.25.73-1.71c.48-.46,1.07-.69,1.75-.69s1.25.23,1.71.69c.46.46.69,1.03.69,1.71s-.24,1.26-.73,1.75c-.49.49-1.04.73-1.67.73-.68,0-1.26-.24-1.75-.73Z"/>
    <path class="cls-1" d="M1063.36,504.27c-1.21-1.84-3.2-2.76-5.96-2.76s-4.96,1.13-6.44,3.38c-1.48,2.25-2.22,5.2-2.22,8.83v24.21h-2.18v-26.25c0-3.05-.59-5.51-1.78-7.38-1.19-1.87-3.16-2.8-5.93-2.8s-4.91,1.13-6.44,3.38c-1.53,2.25-2.29,5.2-2.29,8.83v24.21h-2.11v-37.59h1.89v6.25c.78-2.23,1.94-3.97,3.49-5.24,1.55-1.26,3.49-1.89,5.82-1.89s4.31.64,5.82,1.93c1.5,1.28,2.57,3.07,3.2,5.34.73-2.28,1.89-4.06,3.49-5.34s3.61-1.93,6.04-1.93c3.2,0,5.59,1.08,7.16,3.24,1.57,2.16,2.36,5.05,2.36,8.69v26.54h-2.11v-26.25c0-3.1-.61-5.57-1.82-7.42Z"/>
    <path class="cls-1" d="M1102.84,529.58c-1.26,2.96-3.15,5.24-5.67,6.83-2.52,1.6-5.43,2.4-8.73,2.4-2.62,0-4.9-.49-6.84-1.46-1.94-.97-3.43-2.28-4.47-3.93-1.04-1.65-1.56-3.49-1.56-5.53,0-3.05.99-5.53,2.98-7.42,1.99-1.89,4.97-3.05,8.94-3.49l15.27-1.75v-2.76c0-3.49-.97-6.21-2.91-8.14-1.94-1.94-4.68-2.91-8.22-2.91-7.42,0-11.61,3.49-12.58,10.47h-2.25c.48-4.07,2-7.16,4.54-9.27,2.54-2.11,5.95-3.16,10.22-3.16s7.49,1.14,9.82,3.42c2.33,2.28,3.49,5.48,3.49,9.6v25.45h-2.04v-8.36ZM1080.7,534.27c1.96,1.72,4.59,2.58,7.89,2.58,2.76,0,5.21-.63,7.34-1.89,2.13-1.26,3.79-2.99,4.98-5.2,1.19-2.21,1.78-4.69,1.78-7.45v-5.16l-14.98,1.75c-3.34.39-5.84,1.37-7.49,2.95-1.65,1.58-2.47,3.6-2.47,6.07s.98,4.64,2.95,6.36Z"/>
    <path class="cls-1" d="M1125.89,547.54c2.33,1.94,5.67,2.91,10.03,2.91s7.95-1.12,10.33-3.34c2.37-2.23,3.56-5.5,3.56-9.82v-11.2c-1.16,3.2-2.98,5.68-5.45,7.45-2.47,1.77-5.5,2.65-9.09,2.65-3.3,0-6.17-.75-8.62-2.25-2.45-1.5-4.35-3.64-5.71-6.4-1.36-2.76-2.04-6.01-2.04-9.74,0-3.49.67-6.63,2-9.42,1.33-2.79,3.22-4.97,5.67-6.54,2.45-1.57,5.3-2.36,8.54-2.36,3.64,0,6.73.96,9.27,2.87s4.37,4.5,5.49,7.74v-9.74h2.04v36.87c0,4.99-1.37,8.79-4.11,11.38-2.74,2.59-6.7,3.89-11.89,3.89s-8.98-1.14-11.67-3.42-4.13-5.58-4.33-9.89h2.25c.15,3.64,1.38,6.42,3.71,8.36ZM1125.02,529.76c2.62,2.93,6.11,4.4,10.47,4.4,2.96,0,5.51-.7,7.67-2.11,2.16-1.41,3.8-3.34,4.94-5.82,1.14-2.47,1.71-5.28,1.71-8.44,0-2.91-.58-5.6-1.75-8.07-1.16-2.47-2.85-4.46-5.05-5.96-2.21-1.5-4.76-2.25-7.67-2.25s-5.3.7-7.45,2.11-3.83,3.34-5.02,5.82c-1.19,2.47-1.78,5.26-1.78,8.36,0,5.04,1.31,9.03,3.93,11.96Z"/>
    <path class="cls-1" d="M1164.36,535.9h13.89v-33.52h-13.02v-2.04h15.2v35.56h13.89v2.04h-29.96v-2.04ZM1177.67,490.46c-.48-.48-.73-1.07-.73-1.75s.24-1.25.73-1.71c.48-.46,1.07-.69,1.75-.69s1.25.23,1.71.69c.46.46.69,1.03.69,1.71s-.24,1.26-.73,1.75c-.49.49-1.04.73-1.67.73-.68,0-1.26-.24-1.75-.73Z"/>
    <path class="cls-1" d="M1232.82,505.29c-2.06-2.52-5.01-3.78-8.83-3.78s-7.03,1.31-9.31,3.93c-2.28,2.62-3.42,6.18-3.42,10.69v21.81h-2.18v-37.59h2.04v8c1.02-2.81,2.64-4.99,4.87-6.54,2.23-1.55,4.97-2.33,8.22-2.33,4.31,0,7.7,1.39,10.14,4.18,2.45,2.79,3.67,6.68,3.67,11.67v22.61h-2.11v-22.11c0-4.51-1.03-8.02-3.09-10.54Z"/>
    <path class="cls-1" d="M1258.7,536.27c-2.59-1.7-4.56-4.01-5.89-6.94-1.33-2.93-2-6.26-2-10s.68-7.32,2.04-10.33,3.28-5.34,5.78-7.02c2.5-1.67,5.37-2.51,8.62-2.51,5.09,0,9.03,1.72,11.82,5.16,2.79,3.44,4.18,8.07,4.18,13.89v1.45h-30.18c.1,4.99,1.45,9.04,4.07,12.14,2.62,3.1,6.2,4.65,10.76,4.65,3.25,0,5.97-.91,8.18-2.73,2.21-1.82,3.62-4.18,4.25-7.09h2.33c-.87,3.49-2.54,6.34-5.02,8.54-2.47,2.21-5.7,3.31-9.67,3.31-3.59,0-6.68-.85-9.27-2.55ZM1281.06,518.01c-.05-5.19-1.3-9.24-3.75-12.14-2.45-2.91-5.81-4.36-10.07-4.36s-7.45,1.5-10,4.51c-2.54,3.01-3.94,7.01-4.18,12h28Z"/>
    <path class="cls-1" d="M1302.3,536.3c-2.47-1.67-4.39-4-5.74-6.98-1.36-2.98-2.04-6.36-2.04-10.14s.67-7.16,2-10.14c1.33-2.98,3.22-5.32,5.67-7.02,2.45-1.7,5.29-2.55,8.54-2.55,3.68,0,6.79,1.01,9.31,3.02,2.52,2.01,4.34,4.74,5.45,8.18v-25.09h2.11v52.36h-2.04v-10.62c-1.12,3.54-2.92,6.34-5.42,8.4-2.5,2.06-5.59,3.09-9.27,3.09-3.25,0-6.11-.84-8.58-2.51ZM1298.51,528.27c1.21,2.67,2.9,4.75,5.05,6.25,2.16,1.5,4.67,2.25,7.53,2.25s5.45-.76,7.63-2.29c2.18-1.53,3.85-3.59,5.02-6.18,1.16-2.59,1.75-5.44,1.75-8.54v-1.31c0-3.1-.59-5.94-1.78-8.51-1.19-2.57-2.88-4.62-5.09-6.14-2.21-1.53-4.76-2.29-7.67-2.29s-5.3.76-7.45,2.29c-2.16,1.53-3.83,3.62-5.02,6.29-1.19,2.67-1.78,5.7-1.78,9.09s.61,6.42,1.82,9.09Z"/>
    <path class="cls-1" d="M63.77,620.25c-2.86,3.88-6.88,5.82-12.07,5.82-2.72,0-5.13-.49-7.24-1.46-2.11-.97-3.75-2.3-4.91-4-1.16-1.7-1.75-3.61-1.75-5.74,0-6.79,4.51-10.66,13.53-11.63l11.71-1.16v-2.18c0-2.23-.64-3.9-1.93-5.02-1.28-1.11-3.09-1.67-5.42-1.67-2.52,0-4.46.47-5.82,1.42-1.36.95-2.21,2.46-2.54,4.54h-8.65c.48-4.07,2.18-7.16,5.09-9.27,2.91-2.11,6.86-3.16,11.85-3.16s8.97,1.13,11.78,3.38,4.22,5.66,4.22,10.22v24.87h-7.85v-4.94ZM48.72,618.43c1.26,1.02,2.98,1.53,5.16,1.53,2.86,0,5.09-.86,6.69-2.58,1.6-1.72,2.4-4.01,2.4-6.87v-3.05l-9.31,1.16c-2.42.34-4.17.99-5.24,1.96-1.07.97-1.6,2.3-1.6,4,0,1.55.63,2.84,1.89,3.85Z"/>
    <path class="cls-1" d="M90.02,620.25v18.62h-8.65v-51.26h7.85v6.4c1.26-2.33,2.97-4.12,5.13-5.38,2.16-1.26,4.74-1.89,7.74-1.89s5.93.79,8.47,2.36c2.55,1.58,4.56,3.85,6.04,6.84,1.48,2.98,2.22,6.48,2.22,10.51s-.76,7.45-2.29,10.43c-1.53,2.98-3.6,5.26-6.22,6.84-2.62,1.57-5.48,2.36-8.58,2.36-5.14,0-9.04-1.94-11.71-5.82ZM92.78,615.63c1.84,2.25,4.22,3.38,7.13,3.38s5.28-1.15,7.13-3.45c1.84-2.3,2.76-5.34,2.76-9.13s-.9-6.83-2.69-9.16c-1.79-2.33-4.19-3.49-7.2-3.49s-5.28,1.18-7.13,3.53c-1.84,2.35-2.76,5.39-2.76,9.13s.92,6.94,2.76,9.2Z"/>
    <path class="cls-1" d="M133.94,620.25v18.62h-8.65v-51.26h7.85v6.4c1.26-2.33,2.97-4.12,5.13-5.38,2.16-1.26,4.74-1.89,7.74-1.89s5.93.79,8.47,2.36c2.55,1.58,4.56,3.85,6.04,6.84,1.48,2.98,2.22,6.48,2.22,10.51s-.76,7.45-2.29,10.43c-1.53,2.98-3.6,5.26-6.22,6.84-2.62,1.57-5.48,2.36-8.58,2.36-5.14,0-9.04-1.94-11.71-5.82ZM136.7,615.63c1.84,2.25,4.22,3.38,7.13,3.38s5.28-1.15,7.13-3.45c1.84-2.3,2.76-5.34,2.76-9.13s-.9-6.83-2.69-9.16c-1.79-2.33-4.19-3.49-7.2-3.49s-5.28,1.18-7.13,3.53c-1.84,2.35-2.76,5.39-2.76,9.13s.92,6.94,2.76,9.2Z"/>
    <path class="cls-1" d="M195.53,620.25c-2.86,3.88-6.88,5.82-12.07,5.82-2.72,0-5.13-.49-7.24-1.46-2.11-.97-3.75-2.3-4.91-4-1.16-1.7-1.75-3.61-1.75-5.74,0-6.79,4.51-10.66,13.53-11.63l11.71-1.16v-2.18c0-2.23-.64-3.9-1.93-5.02-1.28-1.11-3.09-1.67-5.42-1.67-2.52,0-4.46.47-5.82,1.42-1.36.95-2.21,2.46-2.54,4.54h-8.65c.48-4.07,2.18-7.16,5.09-9.27,2.91-2.11,6.86-3.16,11.85-3.16s8.97,1.13,11.78,3.38,4.22,5.66,4.22,10.22v24.87h-7.85v-4.94ZM180.47,618.43c1.26,1.02,2.98,1.53,5.16,1.53,2.86,0,5.09-.86,6.69-2.58,1.6-1.72,2.4-4.01,2.4-6.87v-3.05l-9.31,1.16c-2.42.34-4.17.99-5.24,1.96-1.07.97-1.6,2.3-1.6,4,0,1.55.63,2.84,1.89,3.85Z"/>
    <path class="cls-1" d="M225.63,595.38c1.07-2.52,2.84-4.51,5.31-5.96,2.47-1.45,5.67-2.18,9.6-2.18,2.86,0,4.97.17,6.33.51v8.14c-2.28-.24-4.56-.36-6.83-.36-4.85,0-8.34.83-10.47,2.47-2.13,1.65-3.2,4.22-3.2,7.71v19.49h-8.65v-37.59h7.93v7.78Z"/>
    <path class="cls-1" d="M265.4,623.63c-2.86-1.62-5.03-3.89-6.51-6.8-1.48-2.91-2.22-6.28-2.22-10.11s.78-7.48,2.33-10.51c1.55-3.03,3.72-5.37,6.51-7.02,2.79-1.65,5.95-2.47,9.49-2.47,5.67,0,10.07,1.78,13.2,5.34,3.13,3.56,4.69,8.35,4.69,14.36l-.07,2.54h-27.05c.29,3.44,1.3,6.02,3.02,7.74,1.72,1.72,3.89,2.58,6.51,2.58,2.18,0,3.95-.45,5.31-1.35,1.36-.9,2.33-2.14,2.91-3.75h8.65c-.83,3.49-2.69,6.34-5.6,8.54-2.91,2.21-6.57,3.31-10.98,3.31-3.93,0-7.32-.81-10.18-2.44ZM284.09,603.09c-.24-3.15-1.15-5.55-2.73-7.2-1.58-1.65-3.67-2.47-6.29-2.47-2.38,0-4.38.82-6,2.47-1.62,1.65-2.68,4.05-3.16,7.2h18.18Z"/>
    <path class="cls-1" d="M325.17,596.44c-1.36-1.58-3.27-2.36-5.74-2.36s-4.46.83-5.96,2.47c-1.5,1.65-2.25,4.02-2.25,7.13v21.52h-8.73v-37.59h7.93v5.31c2.38-4.12,6.28-6.18,11.71-6.18,4.12,0,7.45,1.27,10,3.82,2.54,2.54,3.82,6.27,3.82,11.16v23.49h-8.73v-21.6c0-3.2-.68-5.59-2.04-7.16Z"/>
    <path class="cls-1" d="M365.93,616.91c1.09.87,3.07,1.31,5.93,1.31,3.05,0,5.82-.22,8.29-.65v7.13c-3.1.63-6.5.95-10.18.95-5.14,0-8.81-1.04-11.02-3.13-2.21-2.08-3.31-5.36-3.31-9.82v-17.89h-10.76v-7.2h10.76v-10.62h8.65v10.62h15.85v7.2h-15.85v17.01c0,2.52.54,4.22,1.64,5.09Z"/>
    <path class="cls-1" d="M587.34,595.57c-.61-.95-1.61-1.42-3.02-1.42s-2.39.47-3.09,1.42c-.7.95-1.05,2.29-1.05,4.04v25.6h-7.78v-25.38c0-1.89-.3-3.31-.91-4.25-.61-.95-1.59-1.42-2.95-1.42s-2.39.47-3.09,1.42c-.7.95-1.05,2.29-1.05,4.04v25.6h-7.71v-37.59h6.47v3.85c.73-1.5,1.76-2.67,3.09-3.49,1.33-.82,2.92-1.24,4.76-1.24,3.59,0,6.13,1.53,7.63,4.58.87-1.45,1.97-2.58,3.31-3.38,1.33-.8,2.9-1.2,4.69-1.2,3.2,0,5.56,1.09,7.09,3.27,1.53,2.18,2.29,5.12,2.29,8.8v26.4h-7.78v-25.38c0-1.89-.3-3.31-.91-4.25Z"/>
    <path class="cls-1" d="M610.21,623.67c-2.86-1.6-5.09-3.88-6.69-6.83-1.6-2.96-2.4-6.4-2.4-10.33s.8-7.45,2.4-10.43c1.6-2.98,3.83-5.28,6.69-6.91,2.86-1.62,6.13-2.44,9.82-2.44s6.96.81,9.82,2.44c2.86,1.62,5.09,3.93,6.69,6.91,1.6,2.98,2.4,6.43,2.4,10.36s-.8,7.37-2.4,10.33c-1.6,2.96-3.82,5.25-6.65,6.87-2.83,1.62-6.1,2.44-9.78,2.44s-7.03-.8-9.89-2.4ZM627.3,615.53c1.79-2.28,2.69-5.31,2.69-9.09s-.9-6.82-2.69-9.13c-1.79-2.3-4.22-3.45-7.27-3.45s-5.47,1.15-7.24,3.45c-1.77,2.3-2.65,5.37-2.65,9.2s.9,6.74,2.69,9.02c1.79,2.28,4.22,3.42,7.27,3.42s5.4-1.14,7.2-3.42Z"/>
    <path class="cls-1" d="M670.71,596.44c-1.36-1.58-3.27-2.36-5.74-2.36s-4.46.83-5.96,2.47c-1.5,1.65-2.25,4.02-2.25,7.13v21.52h-8.73v-37.59h7.93v5.31c2.38-4.12,6.28-6.18,11.71-6.18,4.12,0,7.45,1.27,10,3.82,2.54,2.54,3.82,6.27,3.82,11.16v23.49h-8.73v-21.6c0-3.2-.68-5.59-2.04-7.16Z"/>
    <path class="cls-1" d="M698.05,623.67c-2.86-1.6-5.09-3.88-6.69-6.83-1.6-2.96-2.4-6.4-2.4-10.33s.8-7.45,2.4-10.43c1.6-2.98,3.83-5.28,6.69-6.91,2.86-1.62,6.13-2.44,9.82-2.44s6.96.81,9.82,2.44c2.86,1.62,5.09,3.93,6.69,6.91,1.6,2.98,2.4,6.43,2.4,10.36s-.8,7.37-2.4,10.33c-1.6,2.96-3.82,5.25-6.65,6.87-2.83,1.62-6.1,2.44-9.78,2.44s-7.03-.8-9.89-2.4ZM715.14,615.53c1.79-2.28,2.69-5.31,2.69-9.09s-.9-6.82-2.69-9.13c-1.79-2.3-4.22-3.45-7.27-3.45s-5.47,1.15-7.24,3.45c-1.77,2.3-2.65,5.37-2.65,9.2s.9,6.74,2.69,9.02c1.79,2.28,4.22,3.42,7.27,3.42s5.4-1.14,7.2-3.42Z"/>
    <path class="cls-1" d="M755.38,616.91c1.09.87,3.07,1.31,5.93,1.31,3.05,0,5.82-.22,8.29-.65v7.13c-3.1.63-6.5.95-10.18.95-5.14,0-8.81-1.04-11.02-3.13-2.21-2.08-3.31-5.36-3.31-9.82v-17.89h-10.76v-7.2h10.76v-10.62h8.65v10.62h15.85v7.2h-15.85v17.01c0,2.52.54,4.22,1.64,5.09Z"/>
    <path class="cls-1" d="M785.89,623.67c-2.86-1.6-5.09-3.88-6.69-6.83-1.6-2.96-2.4-6.4-2.4-10.33s.8-7.45,2.4-10.43c1.6-2.98,3.83-5.28,6.69-6.91,2.86-1.62,6.13-2.44,9.82-2.44s6.96.81,9.82,2.44c2.86,1.62,5.09,3.93,6.69,6.91,1.6,2.98,2.4,6.43,2.4,10.36s-.8,7.37-2.4,10.33c-1.6,2.96-3.82,5.25-6.65,6.87-2.83,1.62-6.1,2.44-9.78,2.44s-7.03-.8-9.89-2.4ZM802.97,615.53c1.79-2.28,2.69-5.31,2.69-9.09s-.9-6.82-2.69-9.13c-1.79-2.3-4.22-3.45-7.27-3.45s-5.47,1.15-7.24,3.45c-1.77,2.3-2.65,5.37-2.65,9.2s.9,6.74,2.69,9.02c1.79,2.28,4.22,3.42,7.27,3.42s5.4-1.14,7.2-3.42Z"/>
    <path class="cls-1" d="M846.38,596.44c-1.36-1.58-3.27-2.36-5.74-2.36s-4.46.83-5.96,2.47c-1.5,1.65-2.25,4.02-2.25,7.13v21.52h-8.73v-37.59h7.93v5.31c2.38-4.12,6.28-6.18,11.71-6.18,4.12,0,7.45,1.27,10,3.82,2.54,2.54,3.82,6.27,3.82,11.16v23.49h-8.73v-21.6c0-3.2-.68-5.59-2.04-7.16Z"/>
    <path class="cls-1" d="M880.12,638.87h-9.16l7.71-17.31-14.11-33.96h9.16l9.82,24.5,10.18-24.5h8.8l-22.4,51.26Z"/>
    <path class="cls-1" d="M1093.1,613.71c-1.84-1.94-4.31-4.07-7.42-6.4-3.05-2.33-5.24-4.57-6.54-6.73-1.31-2.16-1.96-4.59-1.96-7.31,0-3.3.93-6.01,2.8-8.14,1.87-2.13,4.4-3.2,7.6-3.2,2.52,0,4.59.58,6.22,1.75,1.62,1.16,2.8,2.62,3.53,4.36.68-1.75,1.84-3.2,3.49-4.36,1.65-1.16,3.71-1.75,6.18-1.75,3.2,0,5.75,1.08,7.64,3.24,1.89,2.16,2.84,4.86,2.84,8.11,0,2.71-.66,5.15-1.96,7.31-1.31,2.16-3.49,4.4-6.54,6.73-3.1,2.33-5.58,4.46-7.42,6.4-1.84,1.94-3.25,4.07-4.22,6.4-.97-2.33-2.38-4.46-4.22-6.4Z"/>
    <path class="cls-1" d="M1308.33,596.88c-1.21-1.28-2.84-2.73-4.87-4.33-2.04-1.45-3.49-2.91-4.36-4.36-.87-1.46-1.31-3.08-1.31-4.87,0-2.13.61-3.91,1.82-5.34,1.21-1.43,2.88-2.15,5.02-2.15,1.65,0,3.02.39,4.11,1.16s1.88,1.72,2.36,2.84c.44-1.12,1.2-2.06,2.29-2.84,1.09-.78,2.46-1.16,4.11-1.16,2.13,0,3.82.72,5.05,2.15,1.24,1.43,1.85,3.21,1.85,5.34,0,1.79-.42,3.42-1.27,4.87-.85,1.45-2.29,2.91-4.33,4.36-2.08,1.55-3.73,2.97-4.94,4.25-1.21,1.29-2.13,2.73-2.76,4.33-.63-1.55-1.55-2.97-2.76-4.25ZM1308.33,620.98c-1.21-1.26-2.84-2.69-4.87-4.29-2.04-1.45-3.49-2.91-4.36-4.36-.87-1.45-1.31-3.08-1.31-4.87,0-2.13.61-3.93,1.82-5.38,1.21-1.46,2.88-2.18,5.02-2.18,1.65,0,3,.4,4.07,1.2,1.07.8,1.87,1.78,2.4,2.95.48-1.11,1.26-2.08,2.33-2.91,1.07-.82,2.42-1.24,4.07-1.24,2.13,0,3.82.73,5.05,2.18,1.24,1.45,1.85,3.25,1.85,5.38,0,1.79-.42,3.42-1.27,4.87-.85,1.46-2.29,2.91-4.33,4.36-2.08,1.55-3.73,2.97-4.94,4.25-1.21,1.29-2.13,2.7-2.76,4.25-.63-1.55-1.55-2.96-2.76-4.22Z"/>
    <path class="cls-1" d="M46.14,710.78c-2.55-1.7-4.49-4.02-5.82-6.98-1.33-2.96-2-6.33-2-10.11s.67-7.16,2-10.14c1.33-2.98,3.26-5.32,5.78-7.02s5.48-2.55,8.87-2.55,6.34.85,8.83,2.55,4.41,4.04,5.75,7.02c1.33,2.98,2,6.36,2,10.14s-.67,7.15-2,10.11c-1.33,2.96-3.25,5.28-5.75,6.98s-5.42,2.55-8.76,2.55-6.36-.85-8.91-2.55ZM62.64,709.04c2.16-1.5,3.82-3.59,4.98-6.25,1.16-2.67,1.75-5.7,1.75-9.09s-.57-6.42-1.71-9.09c-1.14-2.67-2.79-4.76-4.94-6.29-2.16-1.53-4.74-2.29-7.74-2.29s-5.6.76-7.78,2.29c-2.18,1.53-3.84,3.62-4.98,6.29-1.14,2.67-1.71,5.7-1.71,9.09s.58,6.42,1.75,9.09,2.84,4.75,5.02,6.25c2.18,1.5,4.77,2.25,7.78,2.25s5.44-.75,7.6-2.25Z"/>
    <path class="cls-1" d="M89.29,708.06c1.84,2.16,4.7,3.24,8.58,3.24s6.88-1.37,9.16-4.11c2.28-2.74,3.42-6.31,3.42-10.73v-21.6h2.18v37.59h-2.04v-8.8c-.97,3.05-2.57,5.43-4.8,7.13-2.23,1.7-4.99,2.55-8.29,2.55-4.51,0-7.83-1.25-9.96-3.75-2.13-2.5-3.2-5.9-3.2-10.22v-24.5h2.18v24.43c0,3.68.92,6.61,2.76,8.76Z"/>
    <path class="cls-1" d="M134.01,683.66c.77-2.76,2.48-4.99,5.13-6.69,2.64-1.7,6.14-2.54,10.51-2.54,2.67,0,4.56.15,5.67.44v2.11c-1.94-.29-4-.44-6.18-.44-9.99,0-14.98,4.73-14.98,14.18v21.74h-2.11v-37.59h1.96v8.8Z"/>
    <path class="cls-1" d="M238.64,708.06c1.84,2.16,4.7,3.24,8.58,3.24s6.88-1.37,9.16-4.11c2.28-2.74,3.42-6.31,3.42-10.73v-21.6h2.18v37.59h-2.04v-8.8c-.97,3.05-2.57,5.43-4.8,7.13-2.23,1.7-4.99,2.55-8.29,2.55-4.51,0-7.83-1.25-9.96-3.75-2.13-2.5-3.2-5.9-3.2-10.22v-24.5h2.18v24.43c0,3.68.92,6.61,2.76,8.76Z"/>
    <path class="cls-1" d="M301.65,679.81c-2.06-2.52-5.01-3.78-8.83-3.78s-7.03,1.31-9.31,3.93c-2.28,2.62-3.42,6.18-3.42,10.69v21.81h-2.18v-37.59h2.04v8c1.02-2.81,2.64-4.99,4.87-6.54,2.23-1.55,4.97-2.33,8.22-2.33,4.31,0,7.7,1.39,10.14,4.18,2.45,2.79,3.67,6.68,3.67,11.67v22.61h-2.11v-22.11c0-4.51-1.03-8.02-3.09-10.54Z"/>
    <path class="cls-1" d="M327.21,710.82c-2.47-1.67-4.39-4-5.74-6.98-1.36-2.98-2.04-6.36-2.04-10.14s.67-7.16,2-10.14c1.33-2.98,3.22-5.32,5.67-7.02,2.45-1.7,5.29-2.55,8.54-2.55,3.68,0,6.79,1.01,9.31,3.02,2.52,2.01,4.34,4.74,5.45,8.18v-25.09h2.11v52.36h-2.04v-10.62c-1.12,3.54-2.92,6.34-5.42,8.4-2.5,2.06-5.59,3.09-9.27,3.09-3.25,0-6.11-.84-8.58-2.51ZM323.43,702.78c1.21,2.67,2.9,4.75,5.05,6.25,2.16,1.5,4.67,2.25,7.53,2.25s5.45-.76,7.63-2.29c2.18-1.53,3.85-3.59,5.02-6.18,1.16-2.59,1.75-5.44,1.75-8.54v-1.31c0-3.1-.59-5.94-1.78-8.51-1.19-2.57-2.88-4.62-5.09-6.14-2.21-1.53-4.76-2.29-7.67-2.29s-5.3.76-7.45,2.29c-2.16,1.53-3.83,3.62-5.02,6.29-1.19,2.67-1.78,5.7-1.78,9.09s.61,6.42,1.82,9.09Z"/>
    <path class="cls-1" d="M371.46,710.78c-2.59-1.7-4.56-4.01-5.89-6.94-1.33-2.93-2-6.26-2-10s.68-7.32,2.04-10.33,3.28-5.34,5.78-7.02c2.5-1.67,5.37-2.51,8.62-2.51,5.09,0,9.03,1.72,11.82,5.16,2.79,3.44,4.18,8.07,4.18,13.89v1.45h-30.18c.1,4.99,1.45,9.04,4.07,12.14,2.62,3.1,6.2,4.65,10.76,4.65,3.25,0,5.97-.91,8.18-2.73,2.21-1.82,3.62-4.18,4.25-7.09h2.33c-.87,3.49-2.54,6.34-5.02,8.54-2.47,2.21-5.7,3.31-9.67,3.31-3.59,0-6.68-.85-9.27-2.55ZM393.82,692.53c-.05-5.19-1.3-9.24-3.75-12.14-2.45-2.91-5.81-4.36-10.07-4.36s-7.45,1.5-10,4.51c-2.54,3.01-3.94,7.01-4.18,12h28Z"/>
    <path class="cls-1" d="M415.12,683.66c.77-2.76,2.48-4.99,5.13-6.69,2.64-1.7,6.14-2.54,10.51-2.54,2.67,0,4.56.15,5.67.44v2.11c-1.94-.29-4-.44-6.18-.44-9.99,0-14.98,4.73-14.98,14.18v21.74h-2.11v-37.59h1.96v8.8Z"/>
    <path class="cls-1" d="M458.09,710.27c-2.76-2.04-4.44-4.97-5.02-8.8h2.25c.53,3.25,2,5.71,4.4,7.38,2.4,1.67,5.49,2.51,9.27,2.51,3.59,0,6.36-.7,8.33-2.11,1.96-1.41,2.94-3.44,2.94-6.11,0-2.23-.72-3.95-2.14-5.16-1.43-1.21-3.75-2.16-6.94-2.84l-7.42-1.53c-3.34-.68-5.76-1.77-7.24-3.27-1.48-1.5-2.22-3.51-2.22-6.04,0-3.05,1.19-5.54,3.56-7.45s5.65-2.87,9.82-2.87,7.71,1.03,10.18,3.09c2.47,2.06,3.93,5.17,4.36,9.34h-2.25c-.78-6.98-4.87-10.47-12.29-10.47-3.54,0-6.28.76-8.22,2.29-1.94,1.53-2.91,3.53-2.91,6,0,1.94.58,3.5,1.75,4.69,1.16,1.19,3.2,2.07,6.11,2.65l7.56,1.53c3.68.78,6.35,1.93,8,3.45,1.65,1.53,2.47,3.67,2.47,6.44,0,3.25-1.15,5.78-3.45,7.6-2.3,1.82-5.63,2.73-10,2.73s-8.14-1.02-10.91-3.05Z"/>
    <path class="cls-1" d="M510.16,707.18c.82,1.48,1.96,2.46,3.42,2.94,1.45.49,3.34.73,5.67.73s4.65-.19,6.98-.58v1.89c-2.13.48-4.65.73-7.56.73-3.93,0-6.9-.85-8.91-2.54-2.01-1.7-3.02-4.75-3.02-9.16v-24.29h-11.78v-2.04h11.78v-10.62h2.18v10.62h16.72v2.04h-16.72v23.85c0,2.81.41,4.96,1.24,6.44Z"/>
    <path class="cls-1" d="M566.95,704.09c-1.26,2.96-3.15,5.24-5.67,6.83-2.52,1.6-5.43,2.4-8.73,2.4-2.62,0-4.9-.49-6.84-1.46-1.94-.97-3.43-2.28-4.47-3.93-1.04-1.65-1.56-3.49-1.56-5.53,0-3.05.99-5.53,2.98-7.42,1.99-1.89,4.97-3.05,8.94-3.49l15.27-1.75v-2.76c0-3.49-.97-6.21-2.91-8.14-1.94-1.94-4.68-2.91-8.22-2.91-7.42,0-11.61,3.49-12.58,10.47h-2.25c.48-4.07,2-7.16,4.54-9.27,2.54-2.11,5.95-3.16,10.22-3.16s7.49,1.14,9.82,3.42c2.33,2.28,3.49,5.48,3.49,9.6v25.45h-2.04v-8.36ZM544.81,708.78c1.96,1.72,4.59,2.58,7.89,2.58,2.76,0,5.21-.63,7.34-1.89,2.13-1.26,3.79-2.99,4.98-5.2,1.19-2.21,1.78-4.69,1.78-7.45v-5.16l-14.98,1.75c-3.34.39-5.84,1.37-7.49,2.95-1.65,1.58-2.47,3.6-2.47,6.07s.98,4.64,2.95,6.36Z"/>
    <path class="cls-1" d="M609.08,679.81c-2.06-2.52-5.01-3.78-8.83-3.78s-7.03,1.31-9.31,3.93c-2.28,2.62-3.42,6.18-3.42,10.69v21.81h-2.18v-37.59h2.04v8c1.02-2.81,2.64-4.99,4.87-6.54,2.23-1.55,4.97-2.33,8.22-2.33,4.31,0,7.7,1.39,10.14,4.18,2.45,2.79,3.67,6.68,3.67,11.67v22.61h-2.11v-22.11c0-4.51-1.03-8.02-3.09-10.54Z"/>
    <path class="cls-1" d="M634.64,710.82c-2.47-1.67-4.39-4-5.74-6.98-1.36-2.98-2.04-6.36-2.04-10.14s.67-7.16,2-10.14c1.33-2.98,3.22-5.32,5.67-7.02,2.45-1.7,5.29-2.55,8.54-2.55,3.68,0,6.79,1.01,9.31,3.02,2.52,2.01,4.34,4.74,5.45,8.18v-25.09h2.11v52.36h-2.04v-10.62c-1.12,3.54-2.92,6.34-5.42,8.4-2.5,2.06-5.59,3.09-9.27,3.09-3.25,0-6.11-.84-8.58-2.51ZM630.86,702.78c1.21,2.67,2.9,4.75,5.05,6.25,2.16,1.5,4.67,2.25,7.53,2.25s5.45-.76,7.63-2.29c2.18-1.53,3.85-3.59,5.02-6.18,1.16-2.59,1.75-5.44,1.75-8.54v-1.31c0-3.1-.59-5.94-1.78-8.51-1.19-2.57-2.88-4.62-5.09-6.14-2.21-1.53-4.76-2.29-7.67-2.29s-5.3.76-7.45,2.29c-2.16,1.53-3.83,3.62-5.02,6.29-1.19,2.67-1.78,5.7-1.78,9.09s.61,6.42,1.82,9.09Z"/>
    <path class="cls-1" d="M672.38,710.42h13.89v-33.52h-13.02v-2.04h15.2v35.56h13.89v2.04h-29.96v-2.04ZM685.69,664.97c-.48-.48-.73-1.07-.73-1.75s.24-1.25.73-1.71c.48-.46,1.07-.69,1.75-.69s1.25.23,1.71.69c.46.46.69,1.03.69,1.71s-.24,1.26-.73,1.75c-.49.49-1.04.73-1.67.73-.68,0-1.26-.24-1.75-.73Z"/>
    <path class="cls-1" d="M740.84,679.81c-2.06-2.52-5.01-3.78-8.83-3.78s-7.03,1.31-9.31,3.93c-2.28,2.62-3.42,6.18-3.42,10.69v21.81h-2.18v-37.59h2.04v8c1.02-2.81,2.64-4.99,4.87-6.54,2.23-1.55,4.97-2.33,8.22-2.33,4.31,0,7.7,1.39,10.14,4.18,2.45,2.79,3.67,6.68,3.67,11.67v22.61h-2.11v-22.11c0-4.51-1.03-8.02-3.09-10.54Z"/>
    <path class="cls-1" d="M765.67,722.05c2.33,1.94,5.67,2.91,10.03,2.91s7.95-1.12,10.33-3.34c2.37-2.23,3.56-5.5,3.56-9.82v-11.2c-1.16,3.2-2.98,5.68-5.45,7.45-2.47,1.77-5.5,2.65-9.09,2.65-3.3,0-6.17-.75-8.62-2.25-2.45-1.5-4.35-3.64-5.71-6.4-1.36-2.76-2.04-6.01-2.04-9.74,0-3.49.67-6.63,2-9.42,1.33-2.79,3.22-4.97,5.67-6.54,2.45-1.57,5.3-2.36,8.54-2.36,3.64,0,6.73.96,9.27,2.87s4.37,4.5,5.49,7.74v-9.74h2.04v36.87c0,4.99-1.37,8.79-4.11,11.38-2.74,2.59-6.7,3.89-11.89,3.89s-8.98-1.14-11.67-3.42-4.13-5.58-4.33-9.89h2.25c.15,3.64,1.38,6.42,3.71,8.36ZM764.8,704.27c2.62,2.93,6.11,4.4,10.47,4.4,2.96,0,5.51-.7,7.67-2.11,2.16-1.41,3.8-3.34,4.94-5.82,1.14-2.47,1.71-5.28,1.71-8.44,0-2.91-.58-5.6-1.75-8.07-1.16-2.47-2.85-4.46-5.05-5.96-2.21-1.5-4.76-2.25-7.67-2.25s-5.3.7-7.45,2.11-3.83,3.34-5.02,5.82c-1.19,2.47-1.78,5.26-1.78,8.36,0,5.04,1.31,9.03,3.93,11.96Z"/>
    <path class="cls-1" d="M871.87,710.78c-2.55-1.7-4.49-4.02-5.82-6.98-1.33-2.96-2-6.33-2-10.11s.67-7.16,2-10.14c1.33-2.98,3.26-5.32,5.78-7.02s5.48-2.55,8.87-2.55,6.34.85,8.83,2.55,4.41,4.04,5.75,7.02c1.33,2.98,2,6.36,2,10.14s-.67,7.15-2,10.11c-1.33,2.96-3.25,5.28-5.75,6.98s-5.42,2.55-8.76,2.55-6.36-.85-8.91-2.55ZM888.38,709.04c2.16-1.5,3.82-3.59,4.98-6.25,1.16-2.67,1.75-5.7,1.75-9.09s-.57-6.42-1.71-9.09c-1.14-2.67-2.79-4.76-4.94-6.29-2.16-1.53-4.74-2.29-7.74-2.29s-5.6.76-7.78,2.29c-2.18,1.53-3.84,3.62-4.98,6.29-1.14,2.67-1.71,5.7-1.71,9.09s.58,6.42,1.75,9.09,2.84,4.75,5.02,6.25c2.18,1.5,4.77,2.25,7.78,2.25s5.44-.75,7.6-2.25Z"/>
    <path class="cls-1" d="M939.68,659.81v2.04c-1.6-.29-3.59-.44-5.96-.44-3.39,0-5.87.68-7.42,2.04-1.55,1.36-2.33,3.61-2.33,6.76v4.65h15.71v2.04h-15.71v35.56h-2.18v-35.56h-12.36v-2.04h12.36v-4.94c0-7.03,3.93-10.54,11.78-10.54,2.33,0,4.36.15,6.11.44Z"/>
    <path class="cls-1" d="M1020.31,710.27c-2.76-2.04-4.44-4.97-5.02-8.8h2.25c.53,3.25,2,5.71,4.4,7.38,2.4,1.67,5.49,2.51,9.27,2.51,3.59,0,6.36-.7,8.33-2.11,1.96-1.41,2.94-3.44,2.94-6.11,0-2.23-.72-3.95-2.14-5.16-1.43-1.21-3.75-2.16-6.94-2.84l-7.42-1.53c-3.34-.68-5.76-1.77-7.24-3.27-1.48-1.5-2.22-3.51-2.22-6.04,0-3.05,1.19-5.54,3.56-7.45s5.65-2.87,9.82-2.87,7.71,1.03,10.18,3.09c2.47,2.06,3.93,5.17,4.36,9.34h-2.25c-.78-6.98-4.87-10.47-12.29-10.47-3.54,0-6.28.76-8.22,2.29-1.94,1.53-2.91,3.53-2.91,6,0,1.94.58,3.5,1.75,4.69,1.16,1.19,3.2,2.07,6.11,2.65l7.56,1.53c3.68.78,6.35,1.93,8,3.45,1.65,1.53,2.47,3.67,2.47,6.44,0,3.25-1.15,5.78-3.45,7.6-2.3,1.82-5.63,2.73-10,2.73s-8.14-1.02-10.91-3.05Z"/>
    <path class="cls-1" d="M1083.43,679.81c-2.08-2.52-5.04-3.78-8.87-3.78-2.42,0-4.59.63-6.51,1.89-1.92,1.26-3.42,3.04-4.51,5.34-1.09,2.3-1.64,4.91-1.64,7.82v21.38h-2.18v-52.36h2.18v23.05c1.11-2.86,2.79-5.1,5.02-6.73,2.23-1.62,4.85-2.44,7.85-2.44,4.46,0,7.89,1.46,10.29,4.36s3.6,6.88,3.6,11.93v22.18h-2.11v-22.11c0-4.51-1.04-8.02-3.13-10.54Z"/>
    <path class="cls-1" d="M1129.17,704.09c-1.26,2.96-3.15,5.24-5.67,6.83-2.52,1.6-5.43,2.4-8.73,2.4-2.62,0-4.9-.49-6.84-1.46-1.94-.97-3.43-2.28-4.47-3.93-1.04-1.65-1.56-3.49-1.56-5.53,0-3.05.99-5.53,2.98-7.42,1.99-1.89,4.97-3.05,8.94-3.49l15.27-1.75v-2.76c0-3.49-.97-6.21-2.91-8.14-1.94-1.94-4.68-2.91-8.22-2.91-7.42,0-11.61,3.49-12.58,10.47h-2.25c.48-4.07,2-7.16,4.54-9.27,2.54-2.11,5.95-3.16,10.22-3.16s7.49,1.14,9.82,3.42c2.33,2.28,3.49,5.48,3.49,9.6v25.45h-2.04v-8.36ZM1107.02,708.78c1.96,1.72,4.59,2.58,7.89,2.58,2.76,0,5.21-.63,7.34-1.89,2.13-1.26,3.79-2.99,4.98-5.2,1.19-2.21,1.78-4.69,1.78-7.45v-5.16l-14.98,1.75c-3.34.39-5.84,1.37-7.49,2.95-1.65,1.58-2.47,3.6-2.47,6.07s.98,4.64,2.95,6.36Z"/>
    <path class="cls-1" d="M1154.32,710.46c-2.52-1.91-4.36-4.5-5.53-7.74v23.42h-2.11v-51.26h2.04v10.18c1.11-3.34,2.96-6.02,5.53-8.04,2.57-2.01,5.67-3.02,9.31-3.02,3.2,0,6.04.85,8.51,2.55,2.47,1.7,4.39,4.04,5.75,7.02,1.36,2.98,2.04,6.36,2.04,10.14s-.69,7.16-2.07,10.14c-1.38,2.98-3.32,5.31-5.82,6.98-2.5,1.67-5.34,2.51-8.54,2.51-3.54,0-6.57-.96-9.09-2.87ZM1150.54,702.82c1.16,2.59,2.84,4.65,5.02,6.18s4.73,2.29,7.63,2.29,5.37-.75,7.53-2.25c2.16-1.5,3.84-3.59,5.05-6.25,1.21-2.67,1.82-5.7,1.82-9.09s-.59-6.42-1.78-9.09c-1.19-2.67-2.86-4.76-5.02-6.29-2.16-1.53-4.64-2.29-7.45-2.29s-5.47.76-7.67,2.29c-2.21,1.53-3.9,3.58-5.09,6.14-1.19,2.57-1.78,5.41-1.78,8.51v1.31c0,3.1.58,5.95,1.75,8.54Z"/>
    <path class="cls-1" d="M1197.19,710.78c-2.59-1.7-4.56-4.01-5.89-6.94-1.33-2.93-2-6.26-2-10s.68-7.32,2.04-10.33,3.28-5.34,5.78-7.02c2.5-1.67,5.37-2.51,8.62-2.51,5.09,0,9.03,1.72,11.82,5.16,2.79,3.44,4.18,8.07,4.18,13.89v1.45h-30.18c.1,4.99,1.45,9.04,4.07,12.14,2.62,3.1,6.2,4.65,10.76,4.65,3.25,0,5.97-.91,8.18-2.73,2.21-1.82,3.62-4.18,4.25-7.09h2.33c-.87,3.49-2.54,6.34-5.02,8.54-2.47,2.21-5.7,3.31-9.67,3.31-3.59,0-6.68-.85-9.27-2.55ZM1219.55,692.53c-.05-5.19-1.3-9.24-3.75-12.14-2.45-2.91-5.81-4.36-10.07-4.36s-7.45,1.5-10,4.51c-2.54,3.01-3.94,7.01-4.18,12h28Z"/>
    <path class="cls-1" d="M1306.88,700.97c-1.84-1.94-4.31-4.07-7.42-6.4-3.05-2.33-5.24-4.57-6.54-6.73-1.31-2.16-1.96-4.59-1.96-7.31,0-3.3.93-6.01,2.8-8.14,1.87-2.13,4.4-3.2,7.6-3.2,2.52,0,4.59.58,6.22,1.75,1.62,1.16,2.8,2.62,3.53,4.36.68-1.75,1.84-3.2,3.49-4.36,1.65-1.16,3.71-1.75,6.18-1.75,3.2,0,5.75,1.08,7.64,3.24,1.89,2.16,2.84,4.86,2.84,8.11,0,2.71-.66,5.15-1.96,7.31-1.31,2.16-3.49,4.4-6.54,6.73-3.1,2.33-5.58,4.46-7.42,6.4-1.84,1.94-3.25,4.07-4.22,6.4-.97-2.33-2.38-4.46-4.22-6.4ZM1314.04,695.11c1.28-1.19,2.87-2.48,4.76-3.89,2.37-1.79,3.99-3.41,4.84-4.84.85-1.43,1.27-3.07,1.27-4.91s-.55-3.34-1.64-4.65c-1.09-1.31-2.68-1.96-4.76-1.96s-3.66.54-4.87,1.64c-1.21,1.09-2.06,2.46-2.54,4.11-.49-1.65-1.33-3.02-2.54-4.11-1.21-1.09-2.84-1.64-4.87-1.64s-3.67.65-4.76,1.96c-1.09,1.31-1.64,2.86-1.64,4.65s.42,3.48,1.27,4.91c.85,1.43,2.46,3.04,4.83,4.84,1.89,1.41,3.48,2.7,4.76,3.89,1.28,1.19,2.27,2.41,2.95,3.67.68-1.26,1.66-2.48,2.95-3.67Z"/>
  </g>
</svg>