<?xml version="1.0" encoding="UTF-8"?>
<svg id="Layer_1" data-name="Layer 1" xmlns="http://www.w3.org/2000/svg" xmlns:xlink="http://www.w3.org/1999/xlink" viewBox="0 0 1366 768">
  <defs>
    <style>
      .cls-1 {
        fill: #12100b;
      }

      .cls-2 {
        fill: #3b45c4;
      }

      .cls-3 {
        clip-path: url(#clippath);
      }
    </style>
    <clipPath id="clippath">
      <rect class="cls-1" x="-10" y="-10" width="1386" height="788"/>
    </clipPath>
  </defs>
  <g>
    <rect class="cls-1" x="-10" y="-10" width="1386" height="788"/>
    <g class="cls-3">
      <rect class="cls-1" x="-.35" y="-3.25" width="1366.71" height="779.89"/>
    </g>
  </g>
  <g>
    <path class="cls-2" d="M323.61,507.95v10.46h-129.63v-10.46c36.39-1.36,45.48-5,45.48-31.38v-245.62h-37.75c-49.12,0-54.58,23.2-70.96,70.96l-10.01-2.73c7.28-22.29,15.46-61.4,1.37-80.05l1.36-3.18c10.92,1.82,23.2,2.73,44.12,2.73h182.39c20.92,0,33.2-.91,44.12-2.73l1.36,3.18c-14.1,18.65-5.46,57.77,1.82,80.05l-10.01,2.73c-16.37-47.3-21.83-70.96-71.41-70.96h-37.75v245.62c0,26.38,9.55,30.02,45.49,31.38Z"/>
    <path class="cls-2" d="M376.37,416.53c0-65.95,37.75-109.62,103.25-109.62s103.25,43.67,103.25,109.62-37.75,109.62-103.25,109.62-103.25-44.12-103.25-109.62ZM542.85,416.53c0-60.04-17.28-100.52-63.22-100.52s-63.22,40.48-63.22,100.52,17.28,100.52,63.22,100.52,63.22-40.48,63.22-100.52Z"/>
    <path class="cls-2" d="M587.42,221.85v-7.73c33.66-1.82,54.58-12.28,65.5-35.48l5.46.91v230.15l63.68-51.85c13.65-11.37,16.83-16.38,16.83-22.74s-4.09-11.83-14.56-15.46v-5.91h84.15v8.64c-22.29.91-36.39,6.37-61.86,27.75l-40.94,34.11,105.07,134.18h-46.85l-87.33-111.89-18.19,15.01v62.31c0,20.47,10.46,25.02,34.57,26.84v7.73h-105.52v-7.73c24.11-1.82,34.57-6.37,34.57-26.84v-225.15c0-25.47-9.1-35.48-34.57-36.84Z"/>
    <path class="cls-2" d="M964.03,313.73h65.04v7.73c-14.1,3.18-20.47,11.83-31.38,37.75l-75.05,179.67c-13.65,32.29-32.75,70.5-79.14,70.5v-44.58c33.2,0,54.58-.46,66.86-27.29l10.46-22.74-64.59-155.1c-10.92-25.93-16.83-36.39-33.2-38.21v-7.73h93.7v7.73c-27.29,1.82-31.84,15.47-22.29,39.12l45.03,110.53,45.48-112.35c8.64-21.83,5-34.11-20.92-37.3v-7.73Z"/>
    <path class="cls-2" d="M1031.8,416.53c0-65.95,37.75-109.62,103.25-109.62s103.25,43.67,103.25,109.62-37.75,109.62-103.25,109.62-103.25-44.12-103.25-109.62ZM1198.28,416.53c0-60.04-17.28-100.52-63.22-100.52s-63.22,40.48-63.22,100.52,17.28,100.52,63.22,100.52,63.22-40.48,63.22-100.52Z"/>
  </g>
</svg>