<?xml version="1.0" encoding="UTF-8"?>
<svg id="Layer_1" data-name="Layer 1" xmlns="http://www.w3.org/2000/svg" viewBox="0 0 1366 768">
  <defs>
    <style>
      .cls-1 {
        fill: #dde0e4;
      }
    </style>
  </defs>
  <rect x="-10.25" y="-10" width="1386.25" height="788"/>
  <g>
    <path class="cls-1" d="M142.79,289.49c34.4,0,51.6-17.2,51.6-41.83,0-31.66-23.45-42.22-59.03-55.51-55.51-21.11-66.85-46.91-66.85-74.27,0-40.26,29.71-65.67,79.36-65.67,21.11,0,43.39,2.35,62.16,7.43v77.4h-3.91c-5.08-48.47-27.36-70.36-64.5-70.36-29.32,0-47.69,14.85-47.69,40.66,0,20.72,14.85,34.79,54.34,51.21,40.26,16.81,74.67,30.88,74.67,77.4,0,38.7-25.8,68.8-87.17,68.8-20.72,0-42.61-4.3-66.46-11.73l-3.91-84.83h3.91c8.21,50.82,24.63,81.31,73.49,81.31Z"/>
    <path class="cls-1" d="M382.38,245.32h3.91c-3.91,29.71-21.11,59.42-63.33,59.42-48.47,0-74.67-38.31-74.67-84.05s26.19-84.83,73.88-84.83,68.02,39.09,63.33,77.4h-111.41c1.96,40.26,23.85,68.02,60.98,68.02,24.63,0,39.48-8.99,47.3-35.96ZM355.79,201.54c0-29.32-11.34-53.95-40.26-53.95-25.02,0-39.87,17.59-41.44,53.95h81.7Z"/>
    <path class="cls-1" d="M551.09,281.67c10.95,0,16.03-7.82,16.03-24.24v-11.73h3.91v13.68c0,21.89-4.3,42.22-32.06,42.22-16.42,0-30.1-7.43-32.05-25.41-7.04,16.42-21.5,28.54-45.35,28.54-30.88,0-52.38-18.76-52.38-48.47,0-36.36,26.19-52.38,59.81-52.38,16.42,0,28.15,3.91,37.53,9.38v-27.75c0-24.24-9.38-37.53-31.66-37.53s-36.75,12.51-43.39,47.69h-3.91v-53.56c18.37-3.52,35.18-6.25,50.43-6.25,45.35,0,60.2,17.59,60.2,55.12v75.06c0,10.95,4.69,15.64,12.9,15.64ZM471.73,281.67c28.15,0,34.79-21.89,34.79-36.75v-19.15c-7.82-6.65-19.55-10.55-31.27-10.55-21.11,0-35.57,12.51-35.57,34.4,0,18.37,10.95,32.05,32.05,32.05Z"/>
    <path class="cls-1" d="M577.35,344.61c0-30.49,24.63-50.04,67.63-50.04h7.82v-26.58c-43.78-1.96-69.19-25.41-69.19-66.46,0-37.53,25.02-65.28,72.71-65.28,14.86,0,27.76,2.74,37.92,7.43l55.51-23.85h2.74v30.1h-47.3c16.42,11.73,24.63,29.32,24.63,50.04,0,38.7-23.06,65.67-65.28,68.02v26.58h12.12c39.09,0,65.28,16.42,65.28,50.04,0,39.48-39.48,57.86-83.26,57.86-46.91,0-81.31-18.37-81.31-57.86ZM659.84,390.74c29.71,0,49.25-17.59,49.25-43.39,0-28.54-19.15-40.26-46.91-40.26h-5.08c-30.49,0-48.47,11.73-48.47,40.26,0,26.97,24.63,43.39,51.21,43.39ZM659.45,254.7c24.63,0,35.96-17.98,35.96-44.17,0-37.92-14.46-62.16-42.22-62.16-23.06,0-35.57,17.2-35.57,44.56,0,41.44,14.85,61.76,41.83,61.76Z"/>
    <path class="cls-1" d="M769.09,142.12h55.12v99.68c0,28.54,8.6,41.05,30.1,41.05,23.45,0,39.48-18.76,39.48-50.82v-77.79l-29.32-8.21v-3.91h88.35v3.91l-27.36,7.82v132.91l27.36,7.82v3.91h-59.03v-30.1c-6.65,18.37-23.46,36.36-51.99,36.36-35.18,0-49.25-23.06-49.25-56.29v-94.6l-23.46-7.82v-3.91Z"/>
    <path class="cls-1" d="M951.61,44.39h208.75v3.91l-53.56,6.25v197.02c0,19.16,5.08,32.06,23.85,32.06,13.29,0,23.46-5.47,27.36-25.8h3.91c-3.52,27.36-16.03,46.91-44.96,46.91-26.97,0-41.83-14.07-41.83-46.91V48.69l-63.72,5.86v197.02c0,19.16,5.08,32.06,23.85,32.06,13.29,0,23.45-5.47,27.36-25.8h3.91c-3.52,27.36-16.03,46.91-44.96,46.91-26.97,0-41.83-14.07-41.83-46.91l-.39-179.43v-22.67l-27.75-7.43v-3.91Z"/>
    <path class="cls-1" d="M1244.33,147.98c-21.11,0-33.23,9.38-33.23,25.41,0,13.29,7.43,21.5,36.75,30.88,34.79,11.34,57.86,21.11,57.86,52.38,0,28.93-21.5,48.08-62.55,48.08-17.2,0-35.57-3.52-57.86-12.51v-46.91h3.91c5.08,35.18,30.1,47.69,57.07,47.69,24.24,0,34.4-11.73,34.4-26.19,0-16.03-8.99-23.06-40.26-32.05-35.96-10.16-53.55-23.06-53.55-51.99s21.89-46.91,58.25-46.91c17.59,0,29.71,1.56,50.82,6.25v53.56h-3.91c-4.69-26.58-15.25-47.69-47.69-47.69Z"/>
  </g>
</svg>