<?xml version="1.0" encoding="UTF-8"?>
<svg id="Layer_1" data-name="Layer 1" xmlns="http://www.w3.org/2000/svg" xmlns:xlink="http://www.w3.org/1999/xlink" viewBox="0 0 1366 768">
  <defs>
    <style>
      .cls-1 {
        fill: #b2b8db;
      }

      .cls-2 {
        fill: #12100b;
      }

      .cls-3 {
        fill: #fff;
      }

      .cls-4 {
        clip-path: url(#clippath);
      }
    </style>
    <clipPath id="clippath">
      <rect x="-10" y="-10" width="1386" height="788"/>
    </clipPath>
  </defs>
  <g>
    <rect x="-10" y="-10" width="1386" height="788"/>
    <g class="cls-4">
      <rect x="-.35" y="-3.25" width="1366.71" height="779.89"/>
    </g>
  </g>
  <g>
    <rect class="cls-3" x="620.03" y="15.12" width="125.95" height="30.49" rx="15.25" ry="15.25"/>
    <g>
      <path class="cls-2" d="M656.73,33.47c-.58-.81-.88-1.93-.88-3.36s.29-2.55.88-3.36,1.49-1.22,2.71-1.22,2.13.41,2.71,1.22c.58.81.88,1.93.88,3.35s-.29,2.54-.88,3.35c-.59.81-1.49,1.22-2.71,1.22s-2.13-.41-2.71-1.22ZM661.1,32.68c.34-.59.51-1.45.51-2.57s-.17-1.98-.5-2.57c-.33-.59-.89-.88-1.66-.88s-1.32.29-1.66.88c-.33.59-.5,1.45-.5,2.57s.17,1.99.5,2.57c.33.59.89.88,1.66.88s1.31-.3,1.65-.89Z"/>
      <path class="cls-2" d="M668.67,29.23c-.26-.31-.63-.47-1.11-.47s-.89.16-1.18.49-.44.79-.44,1.41v3.86h-1.29v-6.72h1.21v.92c.42-.72,1.1-1.08,2.04-1.08.75,0,1.34.23,1.79.7s.67,1.14.67,2.01v4.16h-1.29v-3.9c0-.62-.13-1.08-.4-1.39Z"/>
      <path class="cls-2" d="M673.87,35.74c.3.23.75.35,1.33.35s1.06-.15,1.39-.46c.33-.31.49-.76.49-1.35v-1.23c-.24.38-.55.67-.92.86-.37.2-.79.29-1.27.29-.57,0-1.09-.13-1.55-.4s-.82-.65-1.09-1.14c-.26-.49-.4-1.07-.4-1.73s.13-1.22.39-1.72c.26-.5.62-.88,1.08-1.16.46-.27.97-.41,1.53-.41.51,0,.96.11,1.35.32.39.21.7.52.94.92v-1.08h1.22v6.41c0,.87-.26,1.57-.79,2.11-.53.54-1.33.81-2.39.81s-1.85-.21-2.35-.64c-.5-.43-.78-1.01-.84-1.74h1.35c.03.43.2.77.51,1ZM673.78,32.52c.36.39.82.59,1.38.59.53,0,.97-.17,1.32-.52.35-.35.55-.81.6-1.38v-.57c-.05-.58-.26-1.04-.61-1.39s-.79-.52-1.31-.52c-.58,0-1.05.2-1.4.6-.35.4-.53.93-.53,1.6s.18,1.2.54,1.59Z"/>
      <path class="cls-2" d="M681.28,34.24c-.5-.29-.88-.7-1.16-1.23s-.41-1.14-.41-1.83.14-1.32.41-1.85.66-.95,1.15-1.24c.49-.29,1.07-.44,1.73-.44s1.24.15,1.74.44c.5.29.88.7,1.16,1.24.27.53.41,1.15.41,1.85s-.14,1.32-.41,1.85-.66.94-1.15,1.23-1.07.44-1.73.44-1.24-.15-1.74-.44ZM684.42,32.91c.35-.45.53-1.03.53-1.75s-.18-1.32-.53-1.76-.83-.67-1.42-.67-1.07.23-1.42.68c-.35.45-.52,1.04-.52,1.77s.18,1.29.53,1.74.83.67,1.42.67,1.06-.22,1.41-.67Z"/>
      <path class="cls-2" d="M688.06,33.41h2.16v-4.51h-1.87v-1.1h3.17v5.62h2.13v1.11h-5.59v-1.11ZM690.25,26.24c-.17-.16-.25-.36-.25-.6s.08-.43.25-.59c.16-.16.37-.24.61-.24s.44.08.6.24c.16.16.24.36.24.59s-.08.43-.24.6c-.16.17-.36.25-.6.25s-.45-.08-.61-.25Z"/>
      <path class="cls-2" d="M700.08,29.23c-.26-.31-.63-.47-1.11-.47s-.89.16-1.18.49-.44.79-.44,1.41v3.86h-1.29v-6.72h1.21v.92c.42-.72,1.1-1.08,2.04-1.08.75,0,1.34.23,1.79.7s.67,1.14.67,2.01v4.16h-1.29v-3.9c0-.62-.13-1.08-.4-1.39Z"/>
      <path class="cls-2" d="M705.28,35.74c.3.23.75.35,1.33.35s1.06-.15,1.39-.46c.33-.31.49-.76.49-1.35v-1.23c-.24.38-.55.67-.92.86-.37.2-.79.29-1.27.29-.57,0-1.09-.13-1.55-.4s-.82-.65-1.09-1.14c-.26-.49-.4-1.07-.4-1.73s.13-1.22.39-1.72c.26-.5.62-.88,1.08-1.16.46-.27.97-.41,1.53-.41.51,0,.96.11,1.35.32.39.21.7.52.94.92v-1.08h1.22v6.41c0,.87-.26,1.57-.79,2.11-.53.54-1.33.81-2.39.81s-1.85-.21-2.35-.64c-.5-.43-.78-1.01-.84-1.74h1.35c.03.43.2.77.51,1ZM705.18,32.52c.36.39.82.59,1.38.59.53,0,.97-.17,1.32-.52.35-.35.55-.81.6-1.38v-.57c-.05-.58-.26-1.04-.61-1.39s-.79-.52-1.31-.52c-.58,0-1.05.2-1.4.6-.35.4-.53.93-.53,1.6s.18,1.2.54,1.59Z"/>
    </g>
  </g>
  <g>
    <path class="cls-1" d="M440.9,449.75l-7.01,11.76c-42.54-17.77-69.57-47.3-87.33-81.08h-24.77v66.31l21.02,2.25v12.51h-66.06v-12.51l19.27-2.25v-151.4l-19.02-2.25v-12.51h78.33c42.29,0,67.57,17.52,67.57,48.8,0,26.53-20.27,42.54-46.29,48.3,14.26,29.53,33.78,51.55,64.31,72.07ZM347.81,365.67c30.03,0,46.8-12.01,46.8-36.29,0-23.02-19.77-33.78-48.05-33.78-4.5,0-15.77,0-24.77-.25v70.32h26.03Z"/>
    <path class="cls-1" d="M561.02,435.48c-8.76,16.52-25.02,30.03-50.55,30.03-38.54,0-60.81-30.03-60.81-64.56,0-36.29,20.52-68.57,59.81-68.57,29.78,0,50.55,23.02,51.3,57.56h-86.33c0,26.78,14.01,55.55,43.79,55.55,14.01,0,25.53-4.5,34.78-15.77l8.01,5.76ZM475.18,376.43h56.81c-2.5-17.02-10.76-29.28-28.28-29.28-16.27,0-26.03,14.51-28.53,29.28Z"/>
    <path class="cls-1" d="M692.89,447v12.01c-5.25,2.25-9.51,4.5-16.52,4.5-10.51,0-18.77-5-22.52-15.51h-3c-10.26,10.01-23.52,17.52-39.04,17.52-23.27,0-34.78-15.51-34.78-33.28s14.01-27.53,29.28-32.78c13.01-4.5,28.28-9.26,44.54-14.01v-14.51c0-16.77-9.01-25.27-23.77-25.27-10.26,0-18.27,3.75-18.27,13.51,0,3.5,1.5,8.01,4,11.01l-26.03,5.5c-2.25-4-3-8.26-3-12.76,0-18.27,21.27-30.53,45.79-30.53,30.03,0,47.3,9.76,47.3,36.79v67.32c0,6.51,1.75,12.51,7.76,12.51,3,0,5.5-.75,8.26-2ZM650.85,433.98v-36.04c-11.51,3.25-22.27,6.51-30.78,9.51-12.51,4.25-17.02,12.51-17.02,21.77,0,12.76,10.26,19.77,21.52,19.77s19.77-6.76,26.28-15.01Z"/>
    <path class="cls-1" d="M845.54,428.48v14.76l-38.29,22.52h-4.75v-19.27h-2.75c-9.51,10.26-22.77,19.02-38.54,19.02-35.28,0-54.55-31.53-54.55-64.06,0-38.04,24.77-69.07,59.56-69.07,12.26,0,24.02,4.25,33.53,10.26v-33.03l-20.02-2.5v-7.51l49.55-27.53,8.26,13.76-12.01,7.51v146.14l20.02-11.01ZM799.74,434.73v-67.32c-7.26-10.76-18.77-18.77-32.03-18.77-23.77,0-35.54,21.02-35.54,45.79,0,27.53,13.01,51.8,38.79,51.8,11.26,0,21.27-4.5,28.78-11.51Z"/>
    <path class="cls-1" d="M970.65,435.48c-8.76,16.52-25.02,30.03-50.55,30.03-38.54,0-60.81-30.03-60.81-64.56,0-36.29,20.52-68.57,59.81-68.57,29.78,0,50.55,23.02,51.3,57.56h-86.33c0,26.78,14.01,55.55,43.79,55.55,14.01,0,25.53-4.5,34.78-15.77l8.01,5.76ZM884.82,376.43h56.81c-2.5-17.02-10.76-29.28-28.28-29.28-16.27,0-26.03,14.51-28.53,29.28Z"/>
    <path class="cls-1" d="M1092.27,354.66l-22.27,18.02c-5.5-9.51-8.26-13.51-14.26-13.51s-11.76,8.01-22.27,24.02v63.56l20.77,2.25v12.51h-65.81v-12.51l19.27-2.25v-80.83l-19.77-1v-7.26l38.29-25.02h7.26v33.53h2c11.01-16.77,21.27-33.78,34.03-33.78,10.76,0,16.27,10.01,22.77,22.27Z"/>
  </g>
</svg>