<?xml version="1.0" encoding="UTF-8"?>
<svg id="Layer_1" data-name="Layer 1" xmlns="http://www.w3.org/2000/svg" xmlns:xlink="http://www.w3.org/1999/xlink" viewBox="0 0 1366 768">
  <defs>
    <style>
      .cls-1 {
        fill: #c3bfb6;
      }

      .cls-2 {
        fill: #12100b;
      }

      .cls-3 {
        fill: #fff;
      }

      .cls-4 {
        clip-path: url(#clippath);
      }
    </style>
    <clipPath id="clippath">
      <rect class="cls-1" x="-10" y="-10" width="1386" height="788"/>
    </clipPath>
  </defs>
  <g>
    <rect class="cls-1" x="-10" y="-10" width="1386" height="788"/>
    <g class="cls-4">
      <rect class="cls-1" x="-.35" y="-3.25" width="1366.71" height="779.89"/>
    </g>
  </g>
  <g>
    <rect class="cls-3" x="620.03" y="15.12" width="125.95" height="30.49" rx="15.25" ry="15.25"/>
    <g>
      <path class="cls-2" d="M656.73,33.47c-.58-.81-.88-1.93-.88-3.36s.29-2.55.88-3.36,1.49-1.22,2.71-1.22,2.13.41,2.71,1.22c.58.81.88,1.93.88,3.35s-.29,2.54-.88,3.35c-.59.81-1.49,1.22-2.71,1.22s-2.13-.41-2.71-1.22ZM661.1,32.68c.34-.59.51-1.45.51-2.57s-.17-1.98-.5-2.57c-.33-.59-.89-.88-1.66-.88s-1.32.29-1.66.88c-.33.59-.5,1.45-.5,2.57s.17,1.99.5,2.57c.33.59.89.88,1.66.88s1.31-.3,1.65-.89Z"/>
      <path class="cls-2" d="M668.67,29.23c-.26-.31-.63-.47-1.11-.47s-.89.16-1.18.49-.44.79-.44,1.41v3.86h-1.29v-6.72h1.21v.92c.42-.72,1.1-1.08,2.04-1.08.75,0,1.34.23,1.79.7s.67,1.14.67,2.01v4.16h-1.29v-3.9c0-.62-.13-1.08-.4-1.39Z"/>
      <path class="cls-2" d="M673.87,35.74c.3.23.75.35,1.33.35s1.06-.15,1.39-.46c.33-.31.49-.76.49-1.35v-1.23c-.24.38-.55.67-.92.86-.37.2-.79.29-1.27.29-.57,0-1.09-.13-1.55-.4s-.82-.65-1.09-1.14c-.26-.49-.4-1.07-.4-1.73s.13-1.22.39-1.72c.26-.5.62-.88,1.08-1.16.46-.27.97-.41,1.53-.41.51,0,.96.11,1.35.32.39.21.7.52.94.92v-1.08h1.22v6.41c0,.87-.26,1.57-.79,2.11-.53.54-1.33.81-2.39.81s-1.85-.21-2.35-.64c-.5-.43-.78-1.01-.84-1.74h1.35c.03.43.2.77.51,1ZM673.78,32.52c.36.39.82.59,1.38.59.53,0,.97-.17,1.32-.52.35-.35.55-.81.6-1.38v-.57c-.05-.58-.26-1.04-.61-1.39s-.79-.52-1.31-.52c-.58,0-1.05.2-1.4.6-.35.4-.53.93-.53,1.6s.18,1.2.54,1.59Z"/>
      <path class="cls-2" d="M681.28,34.24c-.5-.29-.88-.7-1.16-1.23s-.41-1.14-.41-1.83.14-1.32.41-1.85.66-.95,1.15-1.24c.49-.29,1.07-.44,1.73-.44s1.24.15,1.74.44c.5.29.88.7,1.16,1.24.27.53.41,1.15.41,1.85s-.14,1.32-.41,1.85-.66.94-1.15,1.23-1.07.44-1.73.44-1.24-.15-1.74-.44ZM684.42,32.91c.35-.45.53-1.03.53-1.75s-.18-1.32-.53-1.76-.83-.67-1.42-.67-1.07.23-1.42.68c-.35.45-.52,1.04-.52,1.77s.18,1.29.53,1.74.83.67,1.42.67,1.06-.22,1.41-.67Z"/>
      <path class="cls-2" d="M688.06,33.41h2.16v-4.51h-1.87v-1.1h3.17v5.62h2.13v1.11h-5.59v-1.11ZM690.25,26.24c-.17-.16-.25-.36-.25-.6s.08-.43.25-.59c.16-.16.37-.24.61-.24s.44.08.6.24c.16.16.24.36.24.59s-.08.43-.24.6c-.16.17-.36.25-.6.25s-.45-.08-.61-.25Z"/>
      <path class="cls-2" d="M700.08,29.23c-.26-.31-.63-.47-1.11-.47s-.89.16-1.18.49-.44.79-.44,1.41v3.86h-1.29v-6.72h1.21v.92c.42-.72,1.1-1.08,2.04-1.08.75,0,1.34.23,1.79.7s.67,1.14.67,2.01v4.16h-1.29v-3.9c0-.62-.13-1.08-.4-1.39Z"/>
      <path class="cls-2" d="M705.28,35.74c.3.23.75.35,1.33.35s1.06-.15,1.39-.46c.33-.31.49-.76.49-1.35v-1.23c-.24.38-.55.67-.92.86-.37.2-.79.29-1.27.29-.57,0-1.09-.13-1.55-.4s-.82-.65-1.09-1.14c-.26-.49-.4-1.07-.4-1.73s.13-1.22.39-1.72c.26-.5.62-.88,1.08-1.16.46-.27.97-.41,1.53-.41.51,0,.96.11,1.35.32.39.21.7.52.94.92v-1.08h1.22v6.41c0,.87-.26,1.57-.79,2.11-.53.54-1.33.81-2.39.81s-1.85-.21-2.35-.64c-.5-.43-.78-1.01-.84-1.74h1.35c.03.43.2.77.51,1ZM705.18,32.52c.36.39.82.59,1.38.59.53,0,.97-.17,1.32-.52.35-.35.55-.81.6-1.38v-.57c-.05-.58-.26-1.04-.61-1.39s-.79-.52-1.31-.52c-.58,0-1.05.2-1.4.6-.35.4-.53.93-.53,1.6s.18,1.2.54,1.59Z"/>
    </g>
  </g>
  <g>
    <path d="M162.14,408.21h-83.4v-1.92l-21.49,53.57c-1.92,5.13-3.53,9.62-3.53,13.47,0,8.02,7.7,12.83,25.34,13.79v4.17H20.99v-4.17c17-1.28,22.13-9.62,27.91-23.74l73.78-182.53h3.21l72.82,176.43c9.94,23.74,16.68,28.87,33.04,29.83v4.17h-68.01v-4.17c14.44-.64,22.78-3.85,22.78-13.79,0-3.85-.96-8.34-3.53-14.44l-20.85-50.68ZM159.57,402.43l-40.42-97.84-38.81,97.84h79.23Z"/>
    <path d="M245.51,367.47v-4.49c23.1-.32,32.72-8.02,37.85-20.85h3.53v125.43c0,14.44,7.38,17.64,24.7,18.93v4.81h-65.76v-4.81c17.32-1.28,24.7-4.49,24.7-18.93v-76.35c0-17.96-8.66-22.78-25.02-23.74ZM260.58,304.59c0-9.94,5.45-15.08,14.76-15.08s14.76,5.13,14.76,15.08-5.13,15.08-14.76,15.08-14.76-5.13-14.76-15.08Z"/>
    <path d="M327.21,367.47v-4.49c18.93-.32,32.08-5.77,37.85-20.85l3.53.32v29.19c12.51-16.68,31.44-29.51,49.08-29.51,34,0,46.51,24.7,46.51,55.82v69.61c0,14.44,7.38,17.64,24.7,18.93v4.81h-66.08v-4.81c17.64-1.28,25.02-4.49,25.02-18.93v-67.36c0-27.27-7.7-45.55-34-45.55-17.32,0-32.4,8.66-45.23,25.34v87.57c0,14.44,7.38,17.64,25.02,18.93v4.81h-66.08v-4.81c17.32-1.28,24.7-4.49,24.7-18.93v-75.71c0-16.68-6.42-23.42-25.02-24.38Z"/>
    <path d="M496.71,419.76c0-43.95,25.34-76.99,70.57-76.99s70.57,33.04,70.57,76.99-25.66,76.67-70.57,76.67-70.57-32.72-70.57-76.67ZM621.17,419.76c0-42.34-17-70.89-53.89-70.89s-54.21,28.55-54.21,70.89,17,70.89,54.21,70.89,53.89-28.55,53.89-70.89Z"/>
  </g>
  <g>
    <path d="M1221.03,419h66.4l15.4-37.21c1.92-4.81,2.89-8.66,2.89-11.55,0-11.23-11.55-13.47-28.55-14.44v-9.3h66.08v9.3c-13.79,1.28-18.93,8.66-26.62,26.3l-77.95,180.6h-12.83l-77.63-180.92c-8.02-18.29-15.4-24.7-26.3-25.98v-9.3h104.9v9.3c-15.4.32-23.1,6.42-23.1,14.11,0,6.09,2.57,12.83,6.09,21.17l11.23,27.91ZM1225.85,430.23l28.23,69.61,28.87-69.61h-57.1Z"/>
    <path d="M1115.24,466.48v9.62c-28.87,1.28-46.51,6.74-60.31,23.1h-8.02v-124.14c0-14.44-7.38-17.64-21.17-18.93v-9.62h89.5v9.62c-13.79,1.28-21.17,4.49-21.17,18.93v63.84c0,18.93,7.06,24.38,21.17,27.59ZM1101.77,539.62c0,16.36-13.79,30.15-30.15,30.15s-30.15-13.79-30.15-30.15,13.79-30.15,30.15-30.15,30.15,13.79,30.15,30.15Z"/>
    <path d="M1017.69,466.48v9.62c-30.47.96-48.44,8.34-60.31,23.1l-8.02-1.6v-28.55c-10.59,15.4-23.42,30.15-48.12,30.15-31.76,0-41.38-21.81-41.38-53.25v-70.89c0-14.44-7.38-17.64-21.17-18.93v-9.62h86.29v9.62c-10.59,1.28-17.96,4.49-17.96,18.93v68.33c0,15.72,6.42,25.34,19.89,25.34,9.3,0,15.4-3.85,22.46-9.94v-83.73c0-14.44-7.38-17.64-17.96-18.93v-9.62h86.29v9.62c-13.79,1.28-21.17,4.49-21.17,18.93v63.84c0,17.32,5.77,24.38,21.17,27.59Z"/>
    <path d="M836.1,420.29c0,47.48-27.91,78.91-79.55,78.91s-79.56-31.44-79.56-78.91,27.91-78.91,79.56-78.91,79.55,31.44,79.55,78.91ZM727.03,420.29c0,42.99,9.3,64.48,29.51,64.48s29.51-21.49,29.51-64.48-9.3-64.48-29.51-64.48-29.51,21.49-29.51,64.48Z"/>
  </g>
</svg>