<?xml version="1.0" encoding="UTF-8"?>
<svg id="Layer_1" data-name="Layer 1" xmlns="http://www.w3.org/2000/svg" xmlns:xlink="http://www.w3.org/1999/xlink" viewBox="0 0 1366 768">
  <defs>
    <style>
      .cls-1 {
        fill: #dde0e4;
      }

      .cls-2 {
        clip-path: url(#clippath);
      }
    </style>
    <clipPath id="clippath">
      <rect class="cls-1" x="-10" y="-10" width="1386" height="788"/>
    </clipPath>
  </defs>
  <g>
    <rect class="cls-1" x="-10" y="-10" width="1386" height="788"/>
    <g class="cls-2">
      <rect class="cls-1" x="-.35" y="-3.25" width="1366.71" height="779.89"/>
    </g>
  </g>
  <path d="M1175.97,392.52v-50.42h68.92c4.81,0,8.91.53,12.3,1.58,3.39,1.05,6.18,2.61,8.39,4.68,2.2,2.07,3.83,4.69,4.88,7.88,1.05,3.19,1.58,6.91,1.58,11.18s-.58,8.06-1.73,11.18c-1.15,3.12-2.88,5.69-5.18,7.73-2.3,2.03-5.27,3.58-8.89,4.62-3.63,1.05-7.95,1.58-12.96,1.58h-67.29ZM1167.33,405.23c0,1.63-.3,3.08-.91,4.37-.61,1.29-1.97,2.27-4.07,2.95v.41h19.72v-.41c-2.64-.68-4.32-1.66-5.03-2.95-.71-1.29-1.07-2.74-1.07-4.37v-12.1h72.57c3.12,0,5.56.19,7.32.56,1.76.37,3.29,1.07,4.57,2.08,1.29,1.02,2.78,2.51,4.47,4.47l5.59,6.71c1.69,1.9,3.56,3.4,5.59,4.52,2.03,1.12,4.4,1.81,7.12,2.08,2.71.27,5.86.03,9.45-.71v-.51c-2.17.34-3.95.1-5.34-.71-1.39-.81-2.8-2.07-4.22-3.76l-6.51-7.42c-1.69-2.1-3.37-3.67-5.03-4.73-1.66-1.05-3.52-1.81-5.59-2.29-2.07-.47-4.59-.71-7.57-.71h-5.18v-.3c4.27-.27,8.13-.95,11.59-2.03,3.46-1.08,6.45-2.63,9-4.62,2.54-2,4.47-4.52,5.79-7.57,1.32-3.05,1.98-6.64,1.98-10.77,0-4.54-.71-8.45-2.13-11.74-1.42-3.29-3.56-5.98-6.4-8.08-2.85-2.1-6.44-3.64-10.77-4.63-4.34-.98-9.42-1.47-15.25-1.47h-84.67v.41c2.1.68,3.46,1.68,4.07,3,.61,1.32.91,2.76.91,4.32v56.01ZM1067.06,411.17c-6.61-1.05-12.11-2.61-16.52-4.68-4.41-2.07-7.88-4.54-10.42-7.42-2.54-2.88-4.37-6.18-5.49-9.91-1.12-3.73-1.68-7.83-1.68-12.3s.56-8.47,1.68-12.2c1.12-3.73,2.95-7.03,5.49-9.91,2.54-2.88,6.01-5.34,10.42-7.37,4.4-2.03,9.89-3.57,16.47-4.62,6.57-1.05,14.43-1.58,23.58-1.58s17.03.53,23.63,1.58c6.61,1.05,12.1,2.59,16.47,4.62,4.37,2.03,7.86,4.49,10.47,7.37,2.61,2.88,4.45,6.18,5.54,9.91,1.08,3.73,1.63,7.79,1.63,12.2s-.54,8.69-1.63,12.45c-1.08,3.76-2.93,7.08-5.54,9.96-2.61,2.88-6.1,5.32-10.47,7.32-4.37,2-9.84,3.52-16.42,4.57-6.57,1.05-14.43,1.58-23.58,1.58s-17.03-.52-23.63-1.58M1117.47,411.83c7.62-1.02,14.03-2.52,19.21-4.52,5.18-2,9.37-4.47,12.55-7.42,3.18-2.95,5.49-6.33,6.91-10.16,1.42-3.83,2.13-8.11,2.13-12.86s-.71-8.81-2.13-12.6c-1.42-3.79-3.73-7.17-6.91-10.11-3.19-2.95-7.39-5.42-12.6-7.42-5.22-2-11.64-3.52-19.26-4.57-7.62-1.05-16.55-1.58-26.78-1.58s-19.06.53-26.68,1.58c-7.62,1.05-14.04,2.58-19.26,4.57-5.22,2-9.4,4.47-12.55,7.42-3.15,2.95-5.44,6.32-6.86,10.11-1.42,3.8-2.13,8-2.13,12.6s.71,8.83,2.13,12.65c1.42,3.83,3.73,7.22,6.91,10.16,3.18,2.95,7.37,5.44,12.55,7.47,5.18,2.03,11.59,3.58,19.21,4.62,7.62,1.05,16.55,1.58,26.78,1.58s19.16-.51,26.78-1.52M922.57,404.62c0,1.97-.32,3.61-.97,4.93-.64,1.32-2.02,2.32-4.12,3v.41h83.04c4.61,0,8.22.03,10.83.1,2.61.07,4.56.2,5.84.41,1.29.2,2.27.54,2.95,1.02h.81l4.17-9.96-.41-.1c-1.49,2.24-3.2,3.93-5.13,5.08-1.93,1.15-4.41,1.92-7.42,2.29-3.02.37-6.9.56-11.64.56h-69.32v-63.12c0-1.56.32-3,.97-4.32.64-1.32,2.05-2.32,4.22-3v-.41h-18.91v.41c2.1.68,3.47,1.68,4.12,3,.64,1.32.97,2.76.97,4.32v55.4ZM826.82,394.55c-6.17-.81-11.32-1.98-15.45-3.51-4.13-1.52-7.39-3.37-9.76-5.54-2.37-2.17-4.07-4.66-5.08-7.47-1.02-2.81-1.52-5.91-1.52-9.3s.51-6.49,1.52-9.3c1.02-2.81,2.71-5.32,5.08-7.52,2.37-2.2,5.61-4.08,9.71-5.64,4.1-1.56,9.23-2.74,15.4-3.56,6.17-.81,13.52-1.22,22.06-1.22s16.06.41,22.16,1.22c6.1.81,11.21,2,15.35,3.56,4.13,1.56,7.37,3.44,9.71,5.64,2.34,2.2,4.01,4.71,5.03,7.52,1.02,2.81,1.52,5.91,1.52,9.3s-.51,6.47-1.52,9.25c-1.02,2.78-2.69,5.27-5.03,7.47-2.34,2.2-5.57,4.07-9.71,5.59-4.13,1.52-9.27,2.69-15.4,3.51-6.13.81-13.5,1.22-22.11,1.22s-15.79-.41-21.96-1.22M879.12,394.5c8.16-1.18,14.7-2.96,19.62-5.34,4.91-2.37,8.44-5.27,10.57-8.69,2.13-3.42,3.2-7.33,3.2-11.74s-1.07-8.42-3.2-11.84c-2.13-3.42-5.66-6.32-10.57-8.69-4.91-2.37-11.45-4.17-19.62-5.39-8.17-1.22-18.28-1.83-30.34-1.83s-21.97.61-30.14,1.83c-8.17,1.22-14.71,3.02-19.62,5.39-4.91,2.37-8.45,5.27-10.62,8.69-2.17,3.42-3.25,7.37-3.25,11.84s1.08,8.32,3.25,11.74c2.17,3.42,5.71,6.32,10.62,8.69,4.91,2.37,11.45,4.15,19.62,5.34,8.16,1.19,18.21,1.78,30.14,1.78s22.17-.59,30.34-1.78M721.82,371.38l-8.84,3.86,21.65,12.81c9.62,5.9,19.21,11.37,28.77,16.42,9.55,5.05,19.23,9.47,29.02,13.26,9.79,3.79,19.87,6.74,30.24,8.84,10.37,2.1,21.14,3.15,32.32,3.15,7.32,0,14.3-.7,20.94-2.08,6.64-1.39,12.67-3.61,18.09-6.66,5.42-3.05,9.91-7.08,13.47-12.1,3.56-5.01,5.91-11.15,7.06-18.4h-.61c-1.15,6.91-3.42,12.81-6.81,17.69-3.39,4.88-7.67,8.84-12.86,11.89s-11.06,5.3-17.64,6.76c-6.57,1.46-13.66,2.19-21.24,2.19s-14.48-.63-21.29-1.88c-6.81-1.25-13.52-3.08-20.13-5.49-6.61-2.41-13.33-5.29-20.18-8.64-6.85-3.35-13.99-7.22-21.45-11.59-7.46-4.37-15.45-9.1-23.99-14.18l-26.53-15.86ZM783.21,346.27c3.05-1.35,5.61-2.4,7.67-3.15,2.07-.74,3.78-1.15,5.13-1.22v-.41h-17.48v.41c2.1.27,3.51.56,4.22.86.71.3,1.07.73,1.07,1.27,0,.41-.24.81-.71,1.22-.47.41-1.46.91-2.95,1.52l-89.04,37.3v.71l92.09-38.52ZM696.05,344.85c.64-1.35,2.08-2.34,4.32-2.95v-.41h-19.01v.41c2.1.61,3.47,1.59,4.12,2.95.64,1.36.97,2.81.97,4.37v56.01c0,1.63-.32,3.08-.97,4.37-.64,1.29-2.02,2.27-4.12,2.95v.41h19.11v-.41c-2.24-.68-3.71-1.68-4.42-3s-1.07-2.76-1.07-4.32l.1-56.01c0-1.56.32-3.01.97-4.37M656.67,341.9c2.1.68,3.47,1.68,4.12,3,.64,1.32.97,2.76.97,4.32v56.01c0,1.63-.32,3.08-.97,4.37-.64,1.29-2.02,2.27-4.12,2.95v.41h18.8v-.41c-2.17-.68-3.56-1.66-4.17-2.95-.61-1.29-.91-2.74-.91-4.37v-56.01c0-1.56.3-3,.91-4.32.61-1.32,2-2.32,4.17-3v-.41h-18.8v.41ZM538.15,404.01c0,2.51-.42,4.44-1.27,5.79-.85,1.36-2.32,2.27-4.42,2.74v.41h16.06v-.41c-2.91-.2-5.05-.66-6.4-1.37-1.36-.71-2.24-1.69-2.64-2.95-.41-1.25-.61-2.93-.61-5.03v-57.84h-.71v58.65ZM644.98,405.33l.51-.71-101.24-63.12h-16.67v.51c1.08.34,2.07.71,2.95,1.12.88.41,1.93.91,3.15,1.52l111.61,69.53.41-.1v-63.63c0-2.51.44-4.44,1.32-5.79.88-1.35,2.34-2.27,4.37-2.74v-.41h-16.06v.41c2.91.27,5.03.75,6.35,1.42,1.32.68,2.2,1.66,2.64,2.95.44,1.29.66,2.95.66,4.98v54.08ZM400.93,405.23c0,1.63-.32,3.07-.97,4.32-.64,1.26-2.02,2.25-4.12,3v.41h18.91v-.41c-2.17-.74-3.57-1.74-4.22-3-.64-1.25-.97-2.69-.97-4.32v-27.75h98.9v27.75c0,1.63-.3,3.07-.91,4.32-.61,1.26-2,2.25-4.17,3v.41h18.91v-.41c-2.17-.74-3.57-1.74-4.22-3-.64-1.25-.97-2.69-.97-4.32v-56.01c0-1.56.32-3,.97-4.32.64-1.32,2.05-2.32,4.22-3v-.41h-18.91v.41c2.17.68,3.56,1.68,4.17,3,.61,1.32.91,2.76.91,4.32v27.75h-98.9v-27.75c0-1.56.32-3,.97-4.32.64-1.32,2.05-2.32,4.22-3v-.41h-18.91v.41c2.1.68,3.47,1.68,4.12,3,.64,1.32.97,2.76.97,4.32v56.01ZM270.67,390.03c1.59,3.9,4.07,7.3,7.42,10.22,3.35,2.91,7.67,5.35,12.96,7.32,5.29,1.97,11.57,3.42,18.85,4.37,7.28.95,15.74,1.42,25.36,1.42,8.06,0,15.6-.37,22.62-1.12,7.01-.74,13.3-1.74,18.86-3,5.56-1.25,10.2-2.66,13.93-4.22v-8.54h-.41c-.68,2.64-2.32,4.9-4.93,6.76-2.61,1.87-5.84,3.42-9.71,4.68-3.86,1.26-8.01,2.22-12.45,2.9-4.44.68-8.89,1.17-13.37,1.47-4.47.3-8.61.46-12.4.46-10.37,0-19.3-.76-26.78-2.29-7.49-1.52-13.62-3.81-18.4-6.86-4.78-3.05-8.32-6.79-10.62-11.23-2.3-4.44-3.46-9.57-3.46-15.4s1.15-10.98,3.46-15.45c2.3-4.47,5.83-8.22,10.57-11.23,4.74-3.01,10.82-5.29,18.25-6.81,7.42-1.52,16.25-2.29,26.48-2.29,4.07,0,8.35.12,12.86.36,4.51.24,8.98.7,13.42,1.37,4.44.68,8.54,1.64,12.3,2.9,3.76,1.26,6.95,2.88,9.55,4.88,2.61,2,4.35,4.46,5.23,7.37h.51v-9.05c-4.81-2.03-10.13-3.67-15.96-4.93-5.83-1.25-12.05-2.15-18.65-2.69-6.61-.54-13.54-.81-20.79-.81-9.55,0-18.01.47-25.36,1.42-7.35.95-13.67,2.39-18.96,4.32-5.29,1.93-9.61,4.36-12.96,7.27-3.35,2.91-5.83,6.32-7.42,10.22-1.59,3.9-2.39,8.28-2.39,13.16s.8,9.17,2.39,13.06M249.88,358.27c-.68.34-1.76.59-3.25.76-1.49.17-3.51.27-6.05.3-2.54.04-5.81.05-9.81.05h-76.95v.41c2.03.34,3.37,1,4.01,1.98.64.98.97,2.42.97,4.32v40.15c0,1.9-.32,3.34-.97,4.32-.64.98-1.98,1.64-4.01,1.98v.41h79.59c3.86,0,7.06.02,9.61.05,2.54.03,4.57.12,6.1.25,1.52.14,2.69.41,3.51.81h.51l4.17-8.03-.51-.2c-1.49,2.03-3.17,3.49-5.03,4.37-1.87.88-4.2,1.46-7.01,1.73-2.81.27-6.35.41-10.62.41h-66.88v-23.58h74.2c1.35,0,2.47.09,3.35.25.88.17,1.59.58,2.13,1.22.54.65.91,1.71,1.12,3.2h.51v-9.66h-.51c-.2,1.49-.59,2.56-1.17,3.2-.58.65-1.31,1.03-2.19,1.17-.88.14-1.97.2-3.25.2h-74.2v-28.36h71.25c2.64,0,4.84.15,6.61.46,1.76.3,3.2.86,4.32,1.68,1.12.81,2.08,2.07,2.9,3.76l.41-.1-2.13-7.52h-.71ZM130.45,405.23c0,2.24-.39,3.86-1.17,4.88-.78,1.02-2.22,1.83-4.32,2.44v.41h19.62v-.41c-2.17-.61-3.64-1.42-4.42-2.44-.78-1.02-1.17-2.64-1.17-4.88v-63.12h113.64c3.46,0,6.18.25,8.18.76,2,.51,3.52,1.46,4.57,2.85,1.05,1.39,1.95,3.47,2.69,6.25h.41l-.71-11.69h-.41c-.68.54-1.81.88-3.4,1.02-1.59.14-3.88.2-6.86.2H86.95c-2.98,0-5.25-.07-6.81-.2-1.56-.14-2.68-.47-3.35-1.02h-.41l-.81,11.69h.41c.81-2.78,1.74-4.86,2.8-6.25,1.05-1.39,2.56-2.34,4.52-2.85,1.96-.51,4.71-.76,8.23-.76h38.93v63.12Z"/>
</svg>