<?xml version="1.0" encoding="UTF-8"?>
<svg id="Layer_1" data-name="Layer 1" xmlns="http://www.w3.org/2000/svg" xmlns:xlink="http://www.w3.org/1999/xlink" viewBox="0 0 1366 768">
  <defs>
    <style>
      .cls-1 {
        fill: #b2b8db;
      }

      .cls-2 {
        clip-path: url(#clippath);
      }
    </style>
    <clipPath id="clippath">
      <rect x="-10" y="-10" width="1386" height="788"/>
    </clipPath>
  </defs>
  <g>
    <rect x="-10" y="-10" width="1386" height="788"/>
    <g class="cls-2">
      <rect x="-.35" y="-3.25" width="1366.71" height="779.89"/>
    </g>
  </g>
  <rect class="cls-1" x="324.36" y="25.36" width="717.27" height="717.27"/>
  <path d="M960.9,619.29v57.01c-24.94,10.69-45.13,21.38-78.38,21.38-49.88,0-89.07-23.75-106.88-73.63h-14.25c-48.69,47.5-111.63,83.13-185.27,83.13-110.45,0-165.08-73.63-165.08-157.95s66.51-130.64,138.95-155.58c61.75-21.38,134.2-43.94,211.39-66.51v-68.88c0-79.57-42.75-119.95-112.82-119.95-48.69,0-86.7,17.81-86.7,64.13,0,16.63,7.12,38,19,52.25l-123.51,26.13c-10.69-19-14.25-39.19-14.25-60.57,0-86.7,100.95-144.89,217.33-144.89,142.51,0,224.46,46.32,224.46,174.58v319.47c0,30.88,8.31,59.38,36.82,59.38,14.25,0,26.13-3.56,39.19-9.5ZM761.38,557.54v-171.02c-54.63,15.44-105.7,30.88-146.08,45.13-59.38,20.19-80.76,59.38-80.76,103.32,0,60.57,48.69,93.82,102.13,93.82s93.82-32.07,124.7-71.26Z"/>
</svg>