<?xml version="1.0" encoding="UTF-8"?>
<svg id="Layer_1" data-name="Layer 1" xmlns="http://www.w3.org/2000/svg" viewBox="0 0 1366 768">
  <defs>
    <style>
      .cls-1 {
        fill: #ccbbe4;
      }

      .cls-2 {
        fill: #efeeeb;
      }
    </style>
  </defs>
  <rect x="-10" y="-10" width="1386" height="788"/>
  <g>
    <path class="cls-2" d="M73.89,85.22h-32.78l-3.31,4.48h-10.97l36.23-48.51h1.38l22.49,48.51h-10.97l-2.07-4.48ZM47.74,76.25h22.01l-8.35-18.42-13.66,18.42Z"/>
    <path class="cls-2" d="M136.12,41.2c7.52,0,12.97,5.93,12.97,13.25,0,4.9-2.55,9.59-7.52,12.21,1.17,1.66,1.93,3.79,1.93,6.42,0,8.97-8.35,16.63-17.32,16.63h-32.78l6.83-48.51h35.88ZM104.45,80.05h23.12c3.11,0,6.07-2.83,6.07-5.86,0-2.55-1.93-4.76-4.62-4.76h-23.12l-1.45,10.63ZM107.01,61.49h26.22c3.24,0,6.14-2.83,6.14-5.86,0-2.55-1.93-4.76-4.62-4.76h-26.22l-1.52,10.63Z"/>
    <path class="cls-2" d="M204.37,50.52h-22.77c-10.49,0-17.59,7.66-17.59,16.84,0,7.38,4.83,13.04,13.46,13.04h22.77l-1.31,9.31h-22.77c-13.59,0-21.94-9.04-21.94-21.25,0-15.04,12.28-27.26,28.36-27.26h23.12l-1.31,9.32Z"/>
    <path class="cls-2" d="M241.97,41.2c12.76,0,21.94,9.18,21.94,21.46,0,15.18-13.59,27.05-28.77,27.05h-26.7l6.83-48.51h26.7ZM219.41,80.39h17.04c9.32,0,17.73-7.38,17.73-16.63,0-7.59-5.8-13.25-13.52-13.25h-17.04l-4.21,29.88Z"/>
    <path class="cls-2" d="M320.91,41.2l-1.31,9.32h-34.64l-1.52,10.56h33.26l-1.24,8.97h-33.26l-1.45,10.35h34.64l-1.31,9.31h-44.3l6.83-48.51h44.3Z"/>
    <path class="cls-2" d="M375.34,41.2l-1.31,9.32h-34.64l-1.52,10.76h33.26l-1.24,8.97h-33.26l-2.76,19.46h-9.66l6.83-48.51h44.3Z"/>
    <path class="cls-2" d="M428.61,50.52h-22.77c-10.49,0-17.59,7.66-17.59,16.84,0,7.38,4.83,13.04,13.46,13.04h15.39l2.14-14.9h8.76l-3.45,24.22h-24.15c-13.59,0-21.94-9.04-21.94-21.25,0-15.04,12.28-27.26,28.36-27.26h23.12l-1.31,9.32Z"/>
    <path class="cls-2" d="M451.66,41.2l-2.83,20.08h33.4l2.83-20.08h9.66l-6.83,48.51h-9.66l2.76-19.46h-33.4l-2.76,19.46h-9.66l6.83-48.51h9.66Z"/>
    <path class="cls-2" d="M515.14,41.2l-6.83,48.51h-9.66l6.83-48.51h9.66Z"/>
    <path class="cls-2" d="M515.89,89.71l1.31-9.38h18.42c3.73,0,6.9-3.31,7.45-7.04l4.49-32.09h9.73l-4.48,32.09c-1.24,9.04-9.32,16.42-18.49,16.42h-18.42Z"/>
    <path class="cls-2" d="M576.75,60.94l29.26-19.73h14.63l-31.53,22.63,25.32,25.88h-15.18l-18.77-19.8-5.59,4.07-2.21,15.73h-9.66l6.83-48.51h9.66l-2.76,19.73Z"/>
    <path class="cls-2" d="M636.23,41.2l-5.52,39.19h30.64l-1.31,9.31h-40.3l6.83-48.51h9.66Z"/>
    <path class="cls-2" d="M687.29,41.2l16.21,32.09,25.25-32.09h2.83l7.66,48.51h-9.73l-4.97-29.39-22.63,29.39h-1.38l-14.49-29.46-13.11,29.46h-9.73l21.25-48.51h2.83Z"/>
    <path class="cls-2" d="M755.53,41.2l37.4,30.22,4.28-30.22h9.66l-6.83,48.51h-1.38l-37.4-30.22-4.28,30.22h-9.66l6.83-48.51h1.38Z"/>
    <path class="cls-2" d="M872.28,62.32c0,15.18-11.45,28.22-33.19,28.22-18.08,0-26.43-9.73-26.43-21.87,0-15.04,11.59-28.29,33.47-28.29,17.8,0,26.15,9.8,26.15,21.94ZM822.39,67.56c0,7.45,4.97,13.32,18.08,13.32,15.87,0,22.08-8.21,22.08-17.46,0-7.45-4.97-13.39-17.87-13.39-16.15,0-22.29,8.28-22.29,17.53Z"/>
    <path class="cls-2" d="M916.85,41.2c10.63,0,17.39,7.8,17.39,16.97,0,11.11-10,21.05-22.42,21.32h-22.56l-1.45,10.21h-9.66l6.83-48.51h31.88ZM890.56,69.84h22.49c5.93,0,11.38-4.55,11.38-10.56,0-4.9-3.73-8.42-8.69-8.42h-22.49l-2.69,18.98Z"/>
    <path class="cls-2" d="M998.41,62.32c0,11.45-6.62,21.53-19.32,26.01l2.9,6h-10.56l-1.86-4c-1.38.14-2.83.21-4.35.21-18.08,0-26.43-9.73-26.43-21.87,0-15.04,11.59-28.29,33.47-28.29,17.8,0,26.15,9.8,26.15,21.94ZM975.15,79.84c9.52-2.55,13.52-9.11,13.52-16.42s-4.97-13.39-17.87-13.39c-16.15,0-22.29,8.28-22.29,17.53,0,7.18,4.62,12.97,16.63,13.32l-2.55-5.52h10.49l2.07,4.48Z"/>
    <path class="cls-2" d="M1039.53,41.2c10.63,0,17.39,7.8,17.39,16.97,0,7.38-4.48,14.08-11.11,18.08l6.42,13.46h-10.56l-4.9-10.35c-.76.07-1.52.14-2.28.14h-19.11l-1.45,10.21h-9.66l6.83-48.51h28.43ZM1016.69,69.84h19.04c5.93,0,11.38-4.55,11.38-10.56,0-4.9-3.73-8.42-8.69-8.42h-19.04l-2.69,18.98Z"/>
    <path class="cls-2" d="M1109.43,54.73s-5.93-5.11-18.01-5.11-14.77,2.69-14.77,5.52,3.11,4.14,14.97,5.45c16.28,1.31,22.15,4.55,22.15,12.49,0,10.83-8.56,17.46-26.56,17.46s-24.7-7.11-24.7-7.11l6.07-7.66s6.49,5.52,20.22,5.52,15.04-2.76,15.04-5.93c0-2.55-2.21-4.42-14.42-5.52-15.73-1.45-22.56-5.11-22.56-13.32,0-9.87,8.76-16.15,26.22-16.15s23.25,6.28,23.25,6.28l-6.9,8.07Z"/>
    <path class="cls-2" d="M1174.36,41.2l-1.31,9.32h-19.94l-5.52,39.19h-9.66l5.52-39.19h-19.94l1.31-9.32h49.54Z"/>
    <path class="cls-2" d="M1191.74,41.2l-3.66,26.22c-1.1,7.87,3.73,13.46,14.35,13.46s16.97-5.59,18.08-13.46l3.66-26.22h9.73l-3.86,26.91c-1.59,11.18-12.21,22.29-28.98,22.29s-24.29-11.11-22.7-22.29l3.79-26.91h9.59Z"/>
    <path class="cls-2" d="M1265.5,73.08l23.6-31.88h10.97l-36.23,48.51h-1.38l-22.49-48.51h10.97l14.56,31.88Z"/>
    <path class="cls-2" d="M87.27,153.71l-16.21-32.08-25.25,32.08h-2.83l-7.66-48.51h9.73l4.97,29.39,22.63-29.39h1.38l14.49,29.46,13.11-29.46h9.73l-21.25,48.51h-2.83Z"/>
    <path class="cls-2" d="M127.36,105.2l13.66,17.04,18.56-17.04h12.35l-25.81,23.81,20.36,24.7h-12.21l-15.18-17.8-19.73,17.8h-12.21l26.77-24.7-18.84-23.81h12.28Z"/>
    <path class="cls-2" d="M186.56,105.2l13.94,18.29,18.98-18.29h11.87l-27.05,25.67-3.24,22.84h-9.66l3.24-22.84-19.94-25.67h11.87Z"/>
    <path class="cls-2" d="M288.75,126.32c0,15.18-11.45,28.22-33.19,28.22-18.08,0-26.43-9.73-26.43-21.87,0-15.04,11.59-28.29,33.47-28.29,17.8,0,26.15,9.8,26.15,21.94ZM238.87,131.56c0,7.45,4.97,13.32,18.08,13.32,15.87,0,22.08-8.21,22.08-17.46,0-7.45-5.04-13.39-17.87-13.39-16.21,0-22.29,8.28-22.29,17.53Z"/>
    <path class="cls-2" d="M314.7,105.2l-6.83,48.51h-9.66l5.59-39.54h-10.14l1.24-8.97h19.8Z"/>
    <path class="cls-2" d="M317.94,145.84l34.43-21.87c2.21-1.38,3.1-2.48,3.1-4.76,0-2.69-3.24-5.11-10.56-5.11s-12.9,1.72-18.77,4.97l-4.62-8.14c6.49-3.86,14.56-6.55,25.25-6.55,14.01,0,20.29,5.17,20.29,12.35s-3.24,10.07-10.42,14.77l-19.25,12.56h26.7l-1.38,9.66h-45.88l1.1-7.87Z"/>
    <path class="cls-2" d="M369.14,146.46l7.8-6.62s5.04,5.24,16.7,5.24c8.9,0,11.87-2.9,11.87-6.28,0-2.48-1.66-4.49-7.73-4.49h-13.04l1.17-8.35h12.49c8.56,0,9.8-3.31,9.8-6.14,0-2.97-3.17-5.73-10.97-5.73-7.25,0-14.14,1.72-18.63,4.55l-4.35-7.73c6.55-4.28,14.28-6.55,24.98-6.55,12.7,0,20.7,5.86,20.7,13.8,0,4.55-2.21,8.49-6.35,11.52,2.48,1.93,3.66,4.69,3.66,7.87,0,9.38-8.9,16.97-25.05,16.97-18.29,0-23.05-8.07-23.05-8.07Z"/>
    <path class="cls-2" d="M466.5,105.2l-4.35,30.57h10.49l-1.24,8.97h-10.49l-1.24,8.97h-9.66l1.24-8.97h-29.46l.83-5.73,37.47-33.81h6.42ZM436.41,136.32h16.01l2.28-16.01-18.29,16.01Z"/>
    <path class="cls-2" d="M526.04,105.2l-1.24,8.97h-30.91l-2.35,10h15.25c12.08,0,17.73,3.79,17.73,11.45,0,10.42-9.11,18.91-26.63,18.91s-21.8-8.07-21.8-8.07l7.8-6.62s4.28,5.24,15.94,5.24,14.35-3.59,14.35-7.11c0-2.83-2.42-4.9-9.04-4.9h-24.36l.76-5.11,5.38-22.77h39.12Z"/>
    <path class="cls-2" d="M530.53,140.19c0-4.14,2.28-8.21,4.69-11.73l16.22-23.25h11.04l-12.63,17.94s2.55-.76,7.31-.76c14.49,0,22.15,5.8,22.15,14.35,0,10.42-9.73,17.73-26.63,17.73-14.49,0-22.15-5.8-22.15-14.28ZM541.63,139.08c0,3.73,3.8,6.49,12.28,6.49,9.87,0,14.28-3.38,14.28-7.87,0-3.86-3.73-6.55-12.28-6.55-9.8,0-14.28,3.31-14.28,7.94Z"/>
    <path class="cls-2" d="M628.51,105.2l-32.91,48.51h-10.21l27.95-39.54h-30.29l1.24-8.97h44.23Z"/>
    <path class="cls-2" d="M678.12,119.21c-1.17,8.28-9.04,10.83-9.04,10.83,0,0,5.73,2.76,4.62,10.35-1.04,7.45-7.73,14.08-23.39,14.08s-20.56-6.62-19.53-14.08c1.1-7.59,7.52-10.35,7.52-10.35,0,0-7.18-2.55-6-10.83,1.17-8.42,8.9-14.83,25.05-14.83s21.94,6.42,20.77,14.83ZM663.7,139.5c0-2.55-2.42-5.04-10.63-5.04-9.59,0-12.14,3.1-12.14,6.07,0,2.62,2.35,5.24,10.56,5.24,9.66,0,12.21-3.38,12.21-6.28ZM669.08,118.73c0-2.9-2.83-5.59-12.97-5.59-11.73,0-14.63,3.45-14.63,6.62,0,2.83,2.76,5.93,12.83,5.93,11.73,0,14.77-3.86,14.77-6.97Z"/>
    <path class="cls-2" d="M734.21,118.73c0,4.14-2.28,8.21-4.69,11.73l-16.21,23.25h-11.04l12.63-17.94s-2.55.76-7.31.76c-14.49,0-22.15-5.8-22.15-14.35,0-10.42,9.73-17.73,26.7-17.73,14.42,0,22.08,5.8,22.08,14.28ZM723.1,119.83c0-3.73-3.73-6.49-12.21-6.49-9.87,0-14.35,3.38-14.35,7.87,0,3.86,3.79,6.56,12.28,6.56,9.87,0,14.28-3.31,14.28-7.94Z"/>
    <path class="cls-2" d="M748.63,148.53c0,3.24-3.04,6-6.35,6-2.76,0-4.69-2.14-4.69-4.76,0-3.31,2.9-6.07,6.21-6.07,2.76,0,4.83,2.21,4.83,4.83ZM742.56,105.2c9.18,0,15.11,4.62,15.11,12.56,0,9.66-7.45,12.21-8.56,17.8l-.83,4.21h-8l.34-4.21c1.17-8.56,7.11-8.76,7.11-15.11,0-3.59-2.69-5.8-6.49-5.8l1.31-9.45Z"/>
    <path class="cls-2" d="M802.8,149.22h-32.77l-3.31,4.48h-10.97l36.22-48.51h1.38l22.49,48.51h-10.97l-2.07-4.48ZM776.65,140.25h22.01l-8.35-18.42-13.66,18.42Z"/>
    <path class="cls-2" d="M865.03,105.2c7.52,0,12.97,5.93,12.97,13.25,0,4.9-2.55,9.59-7.52,12.21,1.17,1.66,1.93,3.79,1.93,6.42,0,8.97-8.35,16.63-17.32,16.63h-32.78l6.83-48.51h35.88ZM833.36,144.05h23.12c3.1,0,6.07-2.83,6.07-5.86,0-2.55-1.93-4.76-4.62-4.76h-23.12l-1.45,10.63ZM835.92,125.49h26.22c3.24,0,6.14-2.83,6.14-5.86,0-2.55-1.93-4.76-4.62-4.76h-26.22l-1.52,10.63Z"/>
    <path class="cls-2" d="M933.28,114.52h-22.77c-10.49,0-17.59,7.66-17.59,16.84,0,7.38,4.83,13.04,13.46,13.04h22.77l-1.31,9.31h-22.77c-13.59,0-21.94-9.04-21.94-21.25,0-15.04,12.28-27.26,28.36-27.26h23.12l-1.31,9.32Z"/>
    <path class="cls-2" d="M970.88,105.2c12.76,0,21.94,9.18,21.94,21.46,0,15.18-13.59,27.05-28.77,27.05h-26.7l6.83-48.51h26.7ZM948.32,144.39h17.04c9.32,0,17.73-7.38,17.73-16.63,0-7.59-5.8-13.25-13.52-13.25h-17.04l-4.21,29.88Z"/>
    <path class="cls-2" d="M1049.82,105.2l-1.31,9.32h-34.64l-1.52,10.56h33.26l-1.24,8.97h-33.26l-1.45,10.35h34.64l-1.31,9.31h-44.3l6.83-48.51h44.3Z"/>
    <path class="cls-2" d="M1104.26,105.2l-1.31,9.32h-34.64l-1.52,10.76h33.26l-1.24,8.97h-33.26l-2.76,19.46h-9.66l6.83-48.51h44.3Z"/>
    <path class="cls-2" d="M1157.52,114.52h-22.77c-10.49,0-17.59,7.66-17.59,16.84,0,7.38,4.83,13.04,13.46,13.04h15.39l2.14-14.9h8.76l-3.45,24.22h-24.15c-13.59,0-21.94-9.04-21.94-21.25,0-15.04,12.28-27.26,28.36-27.26h23.12l-1.31,9.32Z"/>
    <path class="cls-2" d="M1180.57,105.2l-2.83,20.08h33.4l2.83-20.08h9.66l-6.83,48.51h-9.66l2.76-19.46h-33.4l-2.76,19.46h-9.66l6.83-48.51h9.66Z"/>
    <path class="cls-2" d="M1244.05,105.2l-6.83,48.51h-9.66l6.83-48.51h9.66Z"/>
    <path class="cls-2" d="M1244.81,153.71l1.31-9.38h18.42c3.73,0,6.9-3.31,7.45-7.04l4.49-32.09h9.73l-4.48,32.09c-1.24,9.04-9.32,16.42-18.49,16.42h-18.42Z"/>
    <path class="cls-2" d="M46.98,188.94l29.26-19.73h14.63l-31.53,22.63,25.32,25.88h-15.18l-18.77-19.8-5.59,4.07-2.21,15.73h-9.66l6.83-48.51h9.66l-2.76,19.73Z"/>
    <path class="cls-2" d="M106.46,169.2l-5.52,39.19h30.64l-1.31,9.31h-40.3l6.83-48.51h9.66Z"/>
    <path class="cls-2" d="M157.51,169.2l16.22,32.09,25.25-32.09h2.83l7.66,48.51h-9.73l-4.97-29.39-22.63,29.39h-1.38l-14.49-29.46-13.11,29.46h-9.73l21.25-48.51h2.83Z"/>
    <path class="cls-2" d="M225.76,169.2l37.4,30.22,4.28-30.22h9.66l-6.83,48.51h-1.38l-37.4-30.22-4.28,30.22h-9.66l6.83-48.51h1.38Z"/>
    <path class="cls-2" d="M342.5,190.32c0,15.18-11.45,28.22-33.19,28.22-18.08,0-26.43-9.73-26.43-21.87,0-15.04,11.59-28.29,33.46-28.29,17.8,0,26.15,9.8,26.15,21.94ZM292.62,195.56c0,7.45,4.97,13.32,18.08,13.32,15.87,0,22.08-8.21,22.08-17.46,0-7.45-4.97-13.39-17.87-13.39-16.15,0-22.29,8.28-22.29,17.53Z"/>
    <path class="cls-2" d="M387.08,169.2c10.63,0,17.39,7.8,17.39,16.97,0,11.11-10,21.05-22.42,21.32h-22.56l-1.45,10.21h-9.66l6.83-48.51h31.88ZM360.79,197.84h22.49c5.93,0,11.39-4.55,11.39-10.56,0-4.9-3.73-8.42-8.69-8.42h-22.49l-2.69,18.98Z"/>
    <path class="cls-2" d="M468.63,190.32c0,11.45-6.62,21.53-19.32,26.01l2.9,6h-10.56l-1.86-4c-1.38.14-2.83.21-4.35.21-18.08,0-26.43-9.73-26.43-21.87,0-15.04,11.59-28.29,33.46-28.29,17.8,0,26.15,9.8,26.15,21.94ZM445.38,207.84c9.52-2.55,13.52-9.11,13.52-16.42s-4.97-13.39-17.87-13.39c-16.15,0-22.29,8.28-22.29,17.53,0,7.18,4.62,12.97,16.63,13.32l-2.55-5.52h10.49l2.07,4.48Z"/>
    <path class="cls-2" d="M509.76,169.2c10.63,0,17.39,7.8,17.39,16.97,0,7.38-4.49,14.08-11.11,18.08l6.42,13.46h-10.56l-4.9-10.35c-.76.07-1.52.14-2.28.14h-19.11l-1.45,10.21h-9.66l6.83-48.51h28.43ZM486.92,197.84h19.04c5.93,0,11.38-4.55,11.38-10.56,0-4.9-3.73-8.42-8.69-8.42h-19.04l-2.69,18.98Z"/>
    <path class="cls-2" d="M579.65,182.73s-5.93-5.11-18.01-5.11-14.77,2.69-14.77,5.52,3.11,4.14,14.97,5.45c16.28,1.31,22.15,4.55,22.15,12.49,0,10.83-8.56,17.46-26.56,17.46s-24.7-7.11-24.7-7.11l6.07-7.66s6.49,5.52,20.22,5.52,15.04-2.76,15.04-5.93c0-2.55-2.21-4.42-14.42-5.52-15.73-1.45-22.56-5.11-22.56-13.32,0-9.87,8.76-16.15,26.22-16.15s23.25,6.28,23.25,6.28l-6.9,8.07Z"/>
    <path class="cls-2" d="M644.58,169.2l-1.31,9.32h-19.94l-5.52,39.19h-9.66l5.52-39.19h-19.94l1.31-9.32h49.54Z"/>
    <path class="cls-2" d="M661.97,169.2l-3.66,26.22c-1.1,7.87,3.73,13.46,14.35,13.46s16.97-5.59,18.08-13.46l3.66-26.22h9.73l-3.86,26.91c-1.59,11.18-12.21,22.29-28.98,22.29s-24.29-11.11-22.7-22.29l3.79-26.91h9.59Z"/>
    <path class="cls-2" d="M735.73,201.08l23.6-31.88h10.97l-36.23,48.51h-1.38l-22.49-48.51h10.97l14.56,31.88Z"/>
    <path class="cls-2" d="M824.19,217.71l-16.22-32.08-25.25,32.08h-2.83l-7.66-48.51h9.73l4.97,29.39,22.63-29.39h1.38l14.49,29.46,13.11-29.46h9.73l-21.25,48.51h-2.83Z"/>
    <path class="cls-2" d="M864.27,169.2l13.66,17.04,18.56-17.04h12.35l-25.81,23.81,20.36,24.7h-12.21l-15.18-17.8-19.73,17.8h-12.21l26.77-24.7-18.84-23.81h12.28Z"/>
    <path class="cls-2" d="M923.47,169.2l13.94,18.29,18.97-18.29h11.87l-27.05,25.67-3.24,22.84h-9.66l3.24-22.84-19.94-25.67h11.87Z"/>
    <path class="cls-2" d="M1025.66,190.32c0,15.18-11.45,28.22-33.19,28.22-18.08,0-26.43-9.73-26.43-21.87,0-15.04,11.59-28.29,33.46-28.29,17.8,0,26.15,9.8,26.15,21.94ZM975.78,195.56c0,7.45,4.97,13.32,18.08,13.32,15.87,0,22.08-8.21,22.08-17.46,0-7.45-5.04-13.39-17.87-13.39-16.21,0-22.29,8.28-22.29,17.53Z"/>
    <path class="cls-2" d="M1051.61,169.2l-6.83,48.51h-9.66l5.59-39.54h-10.14l1.24-8.97h19.8Z"/>
    <path class="cls-2" d="M1054.85,209.84l34.43-21.87c2.21-1.38,3.1-2.48,3.1-4.76,0-2.69-3.24-5.11-10.56-5.11s-12.9,1.72-18.77,4.97l-4.62-8.14c6.49-3.86,14.56-6.55,25.25-6.55,14.01,0,20.29,5.17,20.29,12.35s-3.24,10.07-10.42,14.77l-19.25,12.56h26.7l-1.38,9.66h-45.88l1.1-7.87Z"/>
    <path class="cls-2" d="M1106.05,210.46l7.8-6.62s5.04,5.24,16.7,5.24c8.9,0,11.87-2.9,11.87-6.28,0-2.48-1.66-4.49-7.73-4.49h-13.04l1.17-8.35h12.49c8.56,0,9.8-3.31,9.8-6.14,0-2.97-3.17-5.73-10.97-5.73-7.25,0-14.14,1.72-18.63,4.55l-4.35-7.73c6.55-4.28,14.28-6.55,24.98-6.55,12.7,0,20.7,5.86,20.7,13.8,0,4.55-2.21,8.49-6.35,11.52,2.48,1.93,3.66,4.69,3.66,7.87,0,9.38-8.9,16.97-25.05,16.97-18.28,0-23.05-8.07-23.05-8.07Z"/>
    <path class="cls-2" d="M1203.41,169.2l-4.35,30.57h10.49l-1.24,8.97h-10.49l-1.24,8.97h-9.66l1.24-8.97h-29.46l.83-5.73,37.47-33.81h6.42ZM1173.32,200.32h16.01l2.28-16.01-18.29,16.01Z"/>
    <path class="cls-2" d="M1262.95,169.2l-1.24,8.97h-30.91l-2.35,10h15.25c12.08,0,17.73,3.79,17.73,11.45,0,10.42-9.11,18.91-26.63,18.91s-21.8-8.07-21.8-8.07l7.8-6.62s4.28,5.24,15.94,5.24,14.35-3.59,14.35-7.11c0-2.83-2.42-4.9-9.04-4.9h-24.36l.76-5.11,5.38-22.77h39.12Z"/>
    <path class="cls-2" d="M1267.44,204.19c0-4.14,2.28-8.21,4.69-11.73l16.21-23.25h11.04l-12.63,17.94s2.55-.76,7.31-.76c14.49,0,22.15,5.8,22.15,14.35,0,10.42-9.73,17.73-26.63,17.73-14.49,0-22.15-5.8-22.15-14.28ZM1278.55,203.08c0,3.73,3.79,6.49,12.28,6.49,9.87,0,14.28-3.38,14.28-7.87,0-3.86-3.73-6.55-12.28-6.55-9.8,0-14.28,3.31-14.28,7.94Z"/>
    <path class="cls-2" d="M80.03,233.2l-32.91,48.51h-10.21l27.95-39.54h-30.29l1.24-8.97h44.23Z"/>
    <path class="cls-2" d="M129.64,247.21c-1.17,8.28-9.04,10.83-9.04,10.83,0,0,5.73,2.76,4.62,10.35-1.04,7.45-7.73,14.08-23.39,14.08s-20.56-6.62-19.53-14.08c1.1-7.59,7.52-10.35,7.52-10.35,0,0-7.18-2.55-6-10.83,1.17-8.42,8.9-14.83,25.05-14.83s21.94,6.42,20.77,14.83ZM115.22,267.5c0-2.55-2.41-5.04-10.63-5.04-9.59,0-12.14,3.1-12.14,6.07,0,2.62,2.35,5.24,10.56,5.24,9.66,0,12.21-3.38,12.21-6.28ZM120.6,246.73c0-2.9-2.83-5.59-12.97-5.59-11.73,0-14.63,3.45-14.63,6.62,0,2.83,2.76,5.93,12.83,5.93,11.73,0,14.77-3.86,14.77-6.97Z"/>
    <path class="cls-2" d="M185.74,246.73c0,4.14-2.28,8.21-4.69,11.73l-16.21,23.25h-11.04l12.63-17.94s-2.55.76-7.31.76c-14.49,0-22.15-5.8-22.15-14.35,0-10.42,9.73-17.73,26.7-17.73,14.42,0,22.08,5.8,22.08,14.28ZM174.63,247.83c0-3.73-3.73-6.49-12.21-6.49-9.87,0-14.35,3.38-14.35,7.87,0,3.86,3.79,6.56,12.28,6.56,9.87,0,14.28-3.31,14.28-7.94Z"/>
    <path class="cls-2" d="M200.16,276.53c0,3.24-3.04,6-6.35,6-2.76,0-4.69-2.14-4.69-4.76,0-3.31,2.9-6.07,6.21-6.07,2.76,0,4.83,2.21,4.83,4.83ZM194.08,233.2c9.18,0,15.11,4.62,15.11,12.56,0,9.66-7.45,12.21-8.56,17.8l-.83,4.21h-8l.35-4.21c1.17-8.56,7.11-8.76,7.11-15.11,0-3.59-2.69-5.8-6.49-5.8l1.31-9.45Z"/>
    <path class="cls-1" d="M241.21,281.71v-12.14h-19.25v12.14h-9.66v-29.81c0-11.59,8.07-19.53,19.25-19.53s19.32,7.94,19.32,19.53v29.81h-9.66ZM221.96,260.59h19.25v-8.69c0-6.07-3.79-9.87-9.66-9.87s-9.59,3.79-9.59,9.87v8.69Z"/>
    <path class="cls-1" d="M280.47,233.2c8.28,0,14.97,6.76,14.97,14.97,0,4.14-1.73,7.52-4.49,9.8,2.14,2.21,3.52,5.24,3.52,8.83,0,8.14-6.76,14.9-15.04,14.9h-18.35v-48.51h19.39ZM270.74,253.49h9.73c2.97,0,5.31-2.48,5.31-5.31s-2.42-5.31-5.31-5.31h-9.73v10.63ZM270.74,272.05h8.69c2.9,0,5.31-2.48,5.31-5.31s-2.42-5.31-5.31-5.31h-8.69v10.63Z"/>
    <path class="cls-1" d="M330.98,242.52h-5.59c-9.52,0-15.32,6.55-15.32,14.83s5.8,15.04,15.39,15.04h5.59v9.31h-5.59c-15.04,0-25.12-10.49-25.12-24.36s10.01-24.15,24.7-24.15h5.93v9.32Z"/>
    <path class="cls-1" d="M351.81,233.2c13.94,0,25.12,10.49,25.12,24.29s-11.18,24.22-25.12,24.22h-12.97v-48.51h12.97ZM348.5,272.39h3.31c8.56,0,15.46-6.49,15.46-14.9s-6.97-14.97-15.46-14.97h-3.31v29.88Z"/>
    <path class="cls-1" d="M410.39,233.2v9.32h-16.63v10.76h15.73v8.97h-15.73v10.14h16.63v9.31h-26.29v-48.51h26.29Z"/>
    <path class="cls-1" d="M445.24,233.2v9.32h-16.63v10.76h15.73v8.97h-15.73v19.46h-9.66v-48.51h26.29Z"/>
    <path class="cls-1" d="M482.29,242.52h-7.11c-9.52,0-15.32,6.55-15.32,14.83s5.8,15.04,15.39,15.04h.14v-14.9h8.76v24.22h-8.9c-15.04,0-25.12-10.49-25.12-24.36s10.01-24.15,24.7-24.15h7.45v9.32Z"/>
    <path class="cls-1" d="M502.16,233.2v20.08h21.04v-20.08h9.66v48.51h-9.66v-19.46h-21.04v19.46h-9.66v-48.51h9.66Z"/>
    <path class="cls-1" d="M552.74,233.2v48.51h-9.66v-48.51h9.66Z"/>
    <path class="cls-1" d="M575.99,233.2l.07,32.09c0,9.04-7.04,16.42-16.21,16.42v-9.66c3.73,0,6.49-3.04,6.49-6.76v-32.09h9.66Z"/>
    <path class="cls-1" d="M595.52,233.2v19.46l16.63-19.46h11.73l-19.67,23.32,19.53,25.19h-12.35l-13.66-18.08-2.21,2.55v15.52h-9.66v-48.51h9.66Z"/>
    <path class="cls-1" d="M637.61,233.2v39.19h15.94v9.31h-25.6v-48.51h9.66Z"/>
    <path class="cls-1" d="M662.79,233.2l20.63,21.39,20.63-21.39h3.04v48.51h-9.66v-27.46l.14-.83-13.46,14.35h-1.38l-13.52-14.35.21.83v27.46h-9.66v-48.51h3.04Z"/>
    <path class="cls-1" d="M718.68,233.2l29.33,27.46v-27.46h9.66v48.51h-1.38l-29.33-27.46v27.46h-9.66v-48.51h1.38Z"/>
    <path class="cls-1" d="M815.14,257.49c0,13.8-11.25,25.05-25.12,25.05s-25.18-11.32-25.18-25.05,11.32-25.12,25.18-25.12,25.12,11.38,25.12,25.12ZM774.5,257.56c0,8.42,6.97,15.32,15.46,15.32s15.52-6.9,15.52-15.39-6.97-15.46-15.52-15.46-15.46,7.04-15.46,15.53Z"/>
    <path class="cls-1" d="M836.88,233.2c11.66,0,19.87,8.9,19.87,19.11s-8.14,18.91-19.53,19.18h-5.24v10.21h-9.66v-48.51h14.56ZM831.98,261.84h5.18c5.45,0,9.94-4,9.94-9.45s-4.48-9.52-9.94-9.52h-5.18v18.98Z"/>
    <path class="cls-1" d="M910.98,257.42c0,12.14-8.76,22.43-20.29,24.63l-.07,8h-9.66l.07-8c-11.66-2.21-20.35-12.49-20.35-24.56,0-13.8,11.32-25.12,25.18-25.12s25.12,11.38,25.12,25.05ZM870.34,257.56c0,6.69,4.48,12.49,10.63,14.56v-9.45h9.66v9.45c6.21-2.07,10.69-7.87,10.69-14.63,0-8.49-6.97-15.46-15.52-15.46s-15.46,7.04-15.46,15.53Z"/>
    <path class="cls-1" d="M932.72,233.2c11.66,0,19.87,8.9,19.87,19.11,0,6.35-3.17,12.21-8.35,15.73l1.03,1.59c1.52,2.28,3.45,2.76,6.56,2.76v9.31c-7.8,0-10.7-1.38-14.01-6.56l-2.42-3.79c-.76.07-1.59.14-2.35.14h-5.24v10.21h-9.66v-48.51h14.56ZM927.82,261.84h5.18c5.45,0,9.94-4,9.94-9.45s-4.48-9.52-9.94-9.52h-5.18v18.98Z"/>
    <path class="cls-1" d="M982.19,242.79h-5.11c-3.79,0-5.24,2.14-5.24,4.62,0,4.9,7.87,12.7,7.87,20.77s-5.38,13.52-15.52,13.52h-6.69v-9.66h4.35c4.07,0,6.76-1.79,6.76-5.38,0-5.04-7.8-13.11-7.8-21.25,0-7.31,5.38-12.21,14.42-12.21h6.97v9.59Z"/>
    <path class="cls-1" d="M1019.24,233.2v9.32h-11.66v39.19h-9.66v-39.19h-11.66v-9.32h32.98Z"/>
    <path class="cls-1" d="M1035.25,233.2v29.19c0,5.8,4.69,10.49,10.49,10.49s10.56-4.69,10.56-10.49v-29.19h9.66v29.19c0,11.18-8.97,20.15-20.22,20.15s-20.15-8.97-20.15-20.15v-29.19h9.66Z"/>
    <path class="cls-1" d="M1079.89,233.2l12.42,28.77,12.42-28.77h10.07l-21.8,48.51h-1.38l-21.8-48.51h10.07Z"/>
    <path class="cls-1" d="M1159.66,281.71l-13.59-27.88-13.59,27.88h-4.07l-13.52-48.51h9.73l7.52,27.32,13.25-27.32h1.38l13.25,27.32,7.52-27.32h9.73l-13.52,48.51h-4.07Z"/>
    <path class="cls-1" d="M1189.05,233.2l11.32,17.04,11.25-17.04h10.97l-16.15,24.29,16.15,24.22h-10.83l-11.38-17.11-11.39,17.11h-10.83l16.08-24.22-16.08-24.29h10.9Z"/>
    <path class="cls-1" d="M1263.5,233.2v14.08c0,9.87-5.87,17.04-14.42,19.04v15.39h-9.66v-15.39c-8.69-1.93-14.49-9.18-14.49-19.04v-14.08h9.66v14.08c0,6.07,3.79,9.87,9.66,9.87s9.59-3.79,9.59-9.87v-14.08h9.66Z"/>
    <path class="cls-1" d="M1318.56,257.49c0,13.8-11.25,25.05-25.12,25.05s-25.19-11.32-25.19-25.05,11.32-25.12,25.19-25.12,25.12,11.38,25.12,25.12ZM1277.92,257.56c0,8.42,6.97,15.32,15.46,15.32s15.53-6.9,15.53-15.39-6.97-15.46-15.53-15.46-15.46,7.04-15.46,15.53Z"/>
    <path class="cls-1" d="M45.8,297.2v48.51h-9.66v-39.54h-7.59v-8.97h17.25Z"/>
    <path class="cls-1" d="M51.74,305.14s4.69-8.76,15.52-8.76c9.87,0,16.08,7.8,16.08,16.28,0,2.97-.83,6.69-3.59,10.42l-9.52,12.97h12.97v9.66h-29.39l-.07-3.66,17.32-23.6c1.38-1.86,2.28-3.04,2.28-5.52,0-4.14-3.24-6.9-6.49-6.9s-5.45,1.31-7.59,4.69l-7.52-5.59Z"/>
    <path class="cls-1" d="M88.93,303.83s3.45-7.45,13.39-7.45c8.97,0,15.32,7.38,15.32,15.59,0,4.14-1.59,7.87-4.62,10.35,2.83,2.35,4.69,5.66,4.69,9.8,0,7.8-6.42,14.42-14.63,14.42-9.73,0-13.59-7.31-13.59-7.31l6.83-6.07s2.28,3.66,6.42,3.66c3.66,0,5.38-2.35,5.38-4.97,0-2.76-2-4.97-5.38-4.97h-3.1l.07-9.04h2.35c3.73,0,5.86-2.55,5.86-5.8s-2.28-5.93-5.93-5.93c-4.35,0-6.07,3.86-6.07,3.86l-6.97-6.14Z"/>
    <path class="cls-1" d="M151.65,297.2v30.57h6.49v8.97h-6.49v8.97h-9.66v-8.97h-19.8v-5.73l23.05-33.81h6.42ZM134.26,328.32h7.73v-12.77l-7.73,12.77Z"/>
    <path class="cls-1" d="M188.5,297.2v8.97h-13.25l-.97,9.94h1.72c10.21,0,15.66,6.21,15.66,14.56s-6.35,15.87-15.32,15.87c-9.59,0-13.52-7.31-13.52-7.31l6.83-6.07s2.48,3.66,6.49,3.66c3.45,0,5.87-2.69,5.87-5.8,0-3.38-2.55-5.93-6.69-5.93h-9.94v-4.35l2.28-23.53h20.84Z"/>
    <path class="cls-1" d="M223.27,297.2l-8.97,15.94c8.83.55,15.8,7.8,15.8,16.63s-7.52,16.77-16.84,16.77-16.77-7.59-16.77-16.56c0-3.38,1.1-6.35,2.62-9.04l13.04-23.74h11.11ZM213.34,336.88c3.86,0,7.04-3.17,7.04-7.11s-3.17-7.04-7.04-7.04-7.18,3.17-7.18,7.04,3.24,7.11,7.18,7.11Z"/>
    <path class="cls-1" d="M262.39,297.2l-17.18,48.51h-10.21l14.01-39.54h-14.49v-8.97h27.88Z"/>
    <path class="cls-1" d="M265.36,311.97c0-8.56,6.97-15.59,15.59-15.59s15.59,7.04,15.59,15.59c0,4.48-2,8.28-5.24,10.63,2.62,2.35,4.14,5.73,4.14,9.52,0,7.87-6.49,14.42-14.49,14.42s-14.56-6.49-14.56-14.49c0-3.79,1.52-7.11,4.07-9.45-3.11-2.42-5.11-6.07-5.11-10.63ZM275.02,311.97c0,3.24,2.69,5.87,5.93,5.87s5.93-2.62,5.93-5.87-2.76-5.93-5.93-5.93-5.93,2.69-5.93,5.93ZM275.98,331.91c0,2.76,2.14,4.97,4.9,4.97s5.11-2.21,5.11-4.97-2.35-5.04-5.04-5.04c-2.83,0-4.97,2.35-4.97,5.04Z"/>
    <path class="cls-1" d="M317.52,329.22s-.41.07-.9.07c-8.56,0-15.18-7.31-15.18-16.08s7.52-16.84,16.77-16.84,16.84,7.66,16.84,16.56c0,3.38-1.17,6.35-2.69,9.04l-13.04,23.74h-11.04l9.25-16.49ZM311.17,313.14c0,3.86,3.17,7.04,7.04,7.04s7.18-3.17,7.18-7.04-3.24-7.11-7.18-7.11-7.04,3.17-7.04,7.11Z"/>
    <path class="cls-1" d="M341.53,297.2c10,0,16.97,5.31,16.97,14.49,0,8.14-5.93,10.76-6.21,15.87l-.21,4.21h-8l-.21-4.21c-.07-7.94,4.97-8.69,4.97-14.21,0-4.14-3.17-6.69-7.31-6.69v-9.45ZM353.68,341.15c0,2.97-2.48,5.38-5.52,5.38s-5.38-2.42-5.38-5.38,2.35-5.45,5.38-5.45,5.52,2.48,5.52,5.45Z"/>
    <path class="cls-2" d="M366.24,345.71v-33.74c0-9.25,4.28-15.46,13.32-15.46s13.39,6.21,13.39,15.46v33.74h-9.66v-11.73h-7.38v11.73h-9.66ZM375.9,325.01h7.38v-13.11c0-4.14-1.45-5.87-3.73-5.87s-3.66,1.73-3.66,5.87v13.11Z"/>
    <path class="cls-2" d="M411.91,297.2c8.28,0,14.97,6.69,14.97,14.97,0,4.42-1.86,7.59-4.83,9.59,2.21,2.21,3.59,5.24,3.59,8.97,0,8.28-6.69,14.97-14.97,14.97h-10.21v-48.51h11.45ZM410.12,317.49h1.79c2.9,0,5.31-2.42,5.31-5.31s-2.42-5.31-5.31-5.31h-1.79v10.63ZM410.12,336.05h.55c2.9,0,5.31-2.42,5.31-5.31s-2.42-5.31-5.31-5.31h-.55v10.63Z"/>
    <path class="cls-2" d="M450.97,306.72c-7.11,0-10.56,4.9-10.56,14.77s3.45,14.7,10.56,14.7v9.52c-14.08,0-20.22-10.35-20.22-24.22s6.35-24.29,20.22-24.29v9.52Z"/>
    <path class="cls-2" d="M463.8,297.2c11.59,0,19.94,8.21,19.94,24.29s-8.35,24.22-19.94,24.22h-6.97v-48.51h6.97ZM466.49,335.43h.83c3.52,0,6.76-4.14,6.76-14.01s-3.24-13.94-6.76-13.94h-.83v27.94Z"/>
    <path class="cls-2" d="M507.61,297.2v9.32h-8.62v10.42h8.62v8.97h-8.62v10.49h8.62v9.31h-18.29v-48.51h18.29Z"/>
    <path class="cls-2" d="M532.38,297.2v9.32h-8.62v10.42h8.62v8.97h-8.62v19.8h-9.66v-48.51h18.29Z"/>
    <path class="cls-2" d="M546.94,321.49c0,7.18,1.79,11.66,5.52,13.59v-13.59h8.97v24.22h-3.93c-14.08,0-20.22-10.35-20.22-24.22s6.35-24.29,20.22-24.29h3.31v9.52h-3.31c-7.11,0-10.56,4.9-10.56,14.77Z"/>
    <path class="cls-2" d="M577.44,297.2v19.8h8.76v-19.8h9.66v48.51h-9.66v-19.73h-8.76v19.73h-9.66v-48.51h9.66Z"/>
    <path class="cls-2" d="M612.7,297.2v48.51h-9.66v-48.51h9.66Z"/>
    <path class="cls-2" d="M634.02,297.2v32.09c0,9.04-7.04,16.42-16.22,16.42v-9.66c3.73,0,6.56-3.04,6.56-6.76v-32.09h9.66Z"/>
    <path class="cls-2" d="M650.58,297.2v19.18l7.31-19.18h11.11l-9.59,22.63,9.52,25.88h-11.25l-6.07-17.32-1.04,2.55v14.77h-9.66v-48.51h9.66Z"/>
    <path class="cls-2" d="M682.8,297.2v39.19h8.62v9.31h-18.29v-48.51h9.66Z"/>
    <path class="cls-2" d="M699.84,297.2l12.35,20.36,12.77-20.36h3.45v48.51h-8.97v-25.12l-6.49,12.21h-1.52l-6.07-12.21v25.12h-8.97v-48.51h3.45Z"/>
    <path class="cls-2" d="M736.96,297.2l16.63,23.32v-23.32h8.97v48.51h-1.38l-16.63-23.32v23.32h-8.97v-48.51h1.38Z"/>
    <path class="cls-2" d="M782.71,346.47c-8.69,0-14.35-8.14-14.35-25.05s5.59-24.91,14.35-24.91,14.42,8.21,14.42,24.91-5.59,25.05-14.42,25.05ZM782.71,336.95c2.69,0,4.76-3.79,4.76-15.52s-2.07-15.39-4.76-15.39-4.69,3.73-4.69,15.39,2.07,15.52,4.69,15.52Z"/>
    <path class="cls-2" d="M812.59,297.2c10.83,0,17.11,9.25,17.11,19.18s-6.28,18.49-17.11,19.11v10.21h-9.66v-48.51h9.66ZM812.59,325.84c4.49,0,7.45-3.86,7.45-9.45s-2.97-9.52-7.45-9.52v18.98Z"/>
    <path class="cls-2" d="M852.81,345.5l.21,7.45h-9.66l.14-7.25c-6.14-2.42-9.94-10.42-9.94-24.29,0-16.7,5.59-24.91,14.35-24.91s14.42,8.21,14.42,24.91c0,13.52-3.59,21.39-9.52,24.08ZM847.92,336.95c2.69,0,4.76-3.79,4.76-15.52s-2.07-15.39-4.76-15.39-4.69,3.73-4.69,15.39,2.07,15.52,4.69,15.52Z"/>
    <path class="cls-2" d="M877.79,297.2c10.83,0,17.11,9.25,17.11,19.18,0,5.93-2.28,11.32-6.42,14.77l2,3.17c.9,1.52,1.72,2,3.45,2.07v9.31c-6.28,0-9.11-1.31-11.04-4.97l-3.11-5.73c-.62.14-1.31.21-2,.21v10.49h-9.66v-48.51h9.66ZM877.79,325.84c4.49,0,7.45-3.86,7.45-9.45s-2.97-9.52-7.45-9.52v18.98Z"/>
    <path class="cls-2" d="M920.43,297.2v9.32h-2.83c-3.73,0-5.11,2.35-5.11,5.04,0,4.76,4.97,12.56,4.97,19.87,0,8.76-5.38,14.28-15.39,14.28h-3.86v-9.31h2.48c4,0,6.42-1.93,6.42-5.87,0-4.76-4.9-12.9-4.9-20.98,0-7.52,5.38-12.35,14.35-12.35h3.86Z"/>
    <path class="cls-2" d="M948.03,297.2v9.32h-7.52v39.19h-9.66v-39.19h-7.52v-9.32h24.7Z"/>
    <path class="cls-2" d="M962.45,297.2v30.5c0,6.9,1.31,9.25,3.66,9.25s3.73-2.35,3.73-9.25v-30.5h9.66v30.29c0,12.01-4.35,18.98-13.39,18.98s-13.32-6.97-13.32-18.98v-30.29h9.66Z"/>
    <path class="cls-2" d="M992.88,297.2l4.76,20.7.9,8.28.9-8.28,4.76-20.7h10.56l-14.83,48.51h-2.76l-14.7-48.51h10.42Z"/>
    <path class="cls-2" d="M1024.48,297.2l3.73,17.18.55,4.83,6.14-22.01h2.69l6.07,22.01.55-4.83,3.73-17.18h10.56l-14.15,48.51h-2.07l-6.21-24.01-5.93,24.01h-2.07l-14.01-48.51h10.42Z"/>
    <path class="cls-2" d="M1069.75,297.2l3.59,16.15,3.66-16.15h10.56l-7.87,24.29,7.87,24.22h-10.56l-3.66-16.08-3.59,16.08h-10.56l7.87-24.22-7.87-24.29h10.56Z"/>
    <path class="cls-2" d="M1099.97,297.2v12.21c0,5.31,1.31,7.18,3.66,7.18s3.73-1.86,3.73-7.18v-12.21h9.66v11.11c0,9.66-2.83,15.25-8.56,17.11v20.29h-9.66v-20.29c-5.73-1.86-8.49-7.45-8.49-17.11v-11.11h9.66Z"/>
    <path class="cls-2" d="M1135.57,346.47c-8.69,0-14.35-8.14-14.35-25.05s5.59-24.91,14.35-24.91,14.42,8.21,14.42,24.91-5.59,25.05-14.42,25.05ZM1135.57,336.95c2.69,0,4.76-3.79,4.76-15.52s-2.07-15.39-4.76-15.39-4.69,3.73-4.69,15.39,2.07,15.52,4.69,15.52Z"/>
    <path class="cls-2" d="M1168.21,297.2v48.51h-9.66v-39.54h-4.14v-8.97h13.8Z"/>
    <path class="cls-2" d="M1172.76,305.62c2.42-5.24,6.35-9.11,13.46-9.11,7.94,0,13.59,6.14,13.59,13.04,0,4.49-.83,7.66-4.35,13.87l-6.76,12.63h10.9v9.66h-24.98v-2.97l13.18-24.29c1.52-2.83,1.86-4.35,1.86-6.49,0-3.31-1.66-5.66-4.21-5.66s-4,1.72-5.24,4.83l-7.45-5.52Z"/>
    <path class="cls-2" d="M1227.96,321.7s3.45,2.76,3.45,10.56c0,8.28-5.66,14.28-13.59,14.28-7.11,0-11.04-3.86-13.46-9.11l7.45-5.52c1.59,3.38,2.55,4.83,5.24,4.83s4.21-1.93,4.21-5.24-.9-4.62-3.17-4.62h-2.76v-9.04h2.76c2.28,0,3.17-2,3.17-5.87,0-3.31-1.66-5.66-4.21-5.66-2.42,0-3.86,1.45-5.24,4.83l-7.45-5.52c2.42-5.24,6.35-9.11,13.46-9.11,7.94,0,13.59,5.8,13.59,14.28,0,7.52-3.45,10.9-3.45,10.9Z"/>
    <path class="cls-2" d="M1261.84,297.2v31.26h4.42v8.97h-4.42v8.28h-9.66v-8.28h-17.04v-5.73l19.6-34.5h7.11ZM1245.83,329.01h6.35v-12.76l-6.35,12.76Z"/>
    <path class="cls-2" d="M1271.36,324.8v-4.07l1.45-23.53h20.7v8.97h-12.63l-.48,9.59h2.69c9.38,0,13.32,5.52,13.32,15.25,0,9.04-5.66,15.53-13.59,15.53-7.11,0-10.49-3.86-12.9-9.11l7.45-5.52c1.17,3.11,2.28,4.83,4.97,4.83s3.93-2.07,3.93-5.8c0-4.21-1.66-6.14-4.49-6.14h-10.42Z"/>
    <path class="cls-2" d="M1314.42,346.54c-7.87,0-14.35-6.9-14.35-16.77,0-3.24.97-6.49,2.07-9.25l9.25-23.32h10.14l-6.49,16.49s.34-.07.76-.07c7.25,0,12.9,6.55,12.9,16.15s-6.35,16.77-14.28,16.77ZM1314.42,336.88c2.62,0,4.62-2.48,4.62-7.11s-2-7.04-4.62-7.04-4.69,2.48-4.69,7.04,2,7.11,4.69,7.11Z"/>
    <path class="cls-2" d="M53.19,361.2l-13.8,48.51h-10.21l11.25-39.54h-11.73v-8.97h24.5Z"/>
    <path class="cls-2" d="M55.67,375.62c0-8.62,5.04-15.25,13.66-15.25s13.73,6.62,13.73,15.25c0,4.62-1.17,7.94-4.14,10.97,2,2.97,3.04,5.59,3.04,9.45,0,8-4.62,14.49-12.63,14.49s-12.63-6.49-12.63-14.49c0-3.86.76-6.49,3.04-9.45-2.9-3.04-4.07-6.35-4.07-10.97ZM65.33,375.97c0,3.24,1.45,5.87,4,5.87s4.07-2.62,4.07-5.87-1.52-5.93-4.07-5.93-4,2.69-4,5.93ZM66.23,395.91c0,2.76,1.04,4.97,3.11,4.97s3.17-2.21,3.17-4.97-1.1-5.04-3.17-5.04-3.11,2.28-3.11,5.04Z"/>
    <path class="cls-2" d="M101.07,360.51c7.87,0,14.35,6.76,14.35,16.63,0,3.24-.97,6.49-2.07,9.25l-9.25,23.32h-10.14l6.49-16.49s-.34.07-.76.07c-7.25,0-12.9-6.56-12.9-16.15s6.35-16.63,14.28-16.63ZM101.07,370.03c-2.62,0-4.62,2.48-4.62,7.11s2,7.04,4.62,7.04,4.69-2.48,4.69-7.04-2-7.11-4.69-7.11Z"/>
    <path class="cls-2" d="M119.63,361.2c10,0,16.9,5.24,16.9,14.56,0,8.07-5.93,10.7-6.21,15.8l-.21,4.21h-7.93l-.28-4.21c0-7.87,4.97-8.69,4.97-14.49,0-3.93-3.1-6.42-7.24-6.42v-9.45ZM131.71,405.15c0,3.04-2.42,5.38-5.45,5.38s-5.38-2.35-5.38-5.38,2.35-5.45,5.38-5.45,5.45,2.42,5.45,5.45Z"/>
    <path class="cls-1" d="M219.27,409.71v-14.01h-69.69v14.01h-5.24v-24.01c0-13.8,10.63-24.5,26.84-24.5h26.5c16.22,0,26.84,10.7,26.84,24.5v24.01h-5.24ZM149.58,390.6h69.69v-4.9c0-10.9-8.62-19.25-21.6-19.25h-26.5c-12.97,0-21.6,8.35-21.6,19.25v4.9Z"/>
    <path class="cls-1" d="M302.83,361.2c9.8,0,16.28,5.87,16.28,13.66,0,5.52-2.69,9.52-8.49,11.32,4.62,1.73,6.83,5.24,6.83,9.94,0,7.87-6.14,13.59-16.28,13.59h-64.03v-48.51h65.69ZM242.38,383.28h60.31c7.18,0,11.04-3.52,11.04-8.42s-4.14-8.42-11.04-8.42h-60.31v16.84ZM242.38,404.46h58.72c7.18,0,10.97-3.31,10.97-8.21s-4.07-7.87-10.97-7.87h-58.72v16.08Z"/>
    <path class="cls-1" d="M406.12,361.2v5.24h-54.1c-13.25,0-21.32,7.8-21.32,19.04s8.07,18.98,21.32,18.98h54.1v5.24h-54.1c-16.49,0-26.57-10.07-26.57-24.22s10.07-24.29,26.57-24.29h54.1Z"/>
    <path class="cls-1" d="M479.6,361.2c13.8,0,24.91,10.63,24.91,24.29s-11.11,24.22-24.91,24.22h-64.45v-48.51h64.45ZM420.4,404.67h59.2c10.9,0,19.67-8.42,19.67-19.18s-8.76-19.18-19.67-19.18h-59.2v38.36Z"/>
    <path class="cls-1" d="M585.66,361.2v5.24h-66.38v16.84h66.38v5.11h-66.38v16.08h66.38v5.24h-71.62v-48.51h71.62Z"/>
    <path class="cls-1" d="M668.11,361.2v5.24h-66.38v16.84h66.38v5.11h-66.38v21.32h-5.24v-48.51h71.62Z"/>
    <path class="cls-1" d="M756.09,361.2v5.24h-54.1c-13.25,0-21.32,7.8-21.32,19.04s8.07,18.98,21.32,18.98h48.85v-18.98h5.24v24.22h-54.1c-16.49,0-26.57-10.07-26.57-24.22s10.07-24.29,26.57-24.29h54.1Z"/>
    <path class="cls-1" d="M854.13,409.71h-5.24v-21.25h-76.59v21.25h-5.24v-48.51h5.24v22.08h76.59v-22.08h5.24v48.51Z"/>
    <path class="cls-1" d="M937.69,361.2v5.11h-34.57v38.36h34.57v5.04h-74.45v-5.04h34.64v-38.36h-34.64v-5.11h74.45Z"/>
    <path class="cls-1" d="M941.76,404.46h42.3c13.04,0,21.6-8.62,21.6-19.94v-23.32h5.24v23.32c0,14.21-10.56,25.19-26.84,25.19h-42.3v-5.24Z"/>
    <path class="cls-1" d="M1028.08,409.71h-5.24v-48.51h5.24v21.67l65.48-21.67h13.32l-69.69,23.39,69.69,25.12h-13.32l-63.62-22.7-1.86.62v22.08Z"/>
    <path class="cls-1" d="M1119.23,361.2v43.26h65.21v5.24h-70.45v-48.51h5.24Z"/>
    <path class="cls-1" d="M1194.16,361.2l51.34,26.77,50.58-26.77h1.93v48.51h-5.17v-40.37l-46.51,24.29h-1.66l-47.27-24.29v40.37h-5.11v-48.51h1.86Z"/>
    <path class="cls-1" d="M34.01,425.2l79.76,40.78v-40.78h5.24v48.51h-.76l-79.76-40.78v40.78h-5.24v-48.51h.76Z"/>
    <path class="cls-1" d="M154.82,473.71c-16.49,0-26.29-10.07-26.29-24.22s9.8-24.29,26.29-24.29h42.09c16.49,0,26.29,10.14,26.29,24.29s-9.8,24.22-26.29,24.22h-42.09ZM196.91,468.46c13.25,0,21.05-7.73,21.05-18.97s-7.8-19.04-21.05-19.04h-42.09c-13.25,0-21.04,7.8-21.04,19.04s7.8,18.97,21.04,18.97h42.09Z"/>
    <path class="cls-1" d="M292.76,425.2c12.21,0,20.56,8.35,20.56,18.7s-8.35,18.56-20.56,18.56h-54.79v11.25h-5.24v-48.51h60.03ZM237.97,457.36h54.79c9.45,0,15.18-6,15.18-13.46s-5.73-13.45-15.18-13.45h-54.79v26.91Z"/>
    <path class="cls-1" d="M368.86,473.71v8.35h-5.24v-8.35h-18.42c-16.49,0-26.29-10.07-26.29-24.22s9.8-24.29,26.29-24.29h42.09c16.49,0,26.29,10.14,26.29,24.29s-9.8,24.22-26.29,24.22h-18.42ZM368.86,468.46h18.42c13.25,0,21.05-7.73,21.05-18.97s-7.8-19.04-21.05-19.04h-42.09c-13.25,0-21.04,7.8-21.04,19.04s7.8,18.97,21.04,18.97h18.42v-7.25h5.24v7.25Z"/>
    <path class="cls-1" d="M483.13,425.2c12.21,0,20.56,8.35,20.56,18.7,0,6-2.83,11.32-7.52,14.7l4.9,7.94c.9,1.45,1.73,1.93,3.11,1.93h.41v5.24h-.83c-3.17,0-5.04-1.1-6.49-3.45l-5.73-9.25c-2.55.9-5.38,1.45-8.42,1.45h-54.79v11.25h-5.24v-48.51h60.03ZM428.34,457.36h54.79c9.45,0,15.18-6,15.18-13.46s-5.73-13.45-15.18-13.45h-54.79v26.91Z"/>
    <path class="cls-1" d="M590.49,425.2v5.11h-56.3c-13.18,0-16.77,2.62-16.77,7.31s3.17,7.11,14.63,7.73l40.3,2.21c14.7.83,20.22,5.45,20.22,12.97,0,7.93-6.42,13.18-23.32,13.18h-57.89v-5.11h56.79c13.39,0,18.15-2.76,18.15-7.8,0-4.69-3.31-7.31-15.87-8l-39.74-2.14c-13.11-.69-19.25-4.9-19.25-12.97,0-7.45,5.73-12.49,22.42-12.49h56.65Z"/>
    <path class="cls-1" d="M671.84,425.2v5.11h-34.64v43.4h-5.24v-43.4h-34.64v-5.11h74.52Z"/>
    <path class="cls-1" d="M684.6,425.2v24.01c0,10.9,8.62,19.25,21.6,19.25h26.5c12.97,0,21.6-8.35,21.6-19.25v-24.01h5.24v24.01c0,13.8-10.63,24.5-26.84,24.5h-26.5c-16.21,0-26.84-10.7-26.84-24.5v-24.01h5.24Z"/>
    <path class="cls-1" d="M772.09,425.2l41.54,38.78,3.59,3.59,3.66-3.59,41.47-38.78h7.59l-52.23,48.51h-.97l-52.16-48.51h7.52Z"/>
    <path class="cls-1" d="M964.05,473.71l-38.92-41.95-38.85,41.95h-1.86l-13.46-48.51h5.31l11.04,39.95,36.98-39.95h1.66l36.98,39.95,11.04-39.95h5.31l-13.39,48.51h-1.86Z"/>
    <path class="cls-1" d="M991.03,425.2l42.23,21.46,42.3-21.46h9.87l-46.85,24.22,46.85,24.29h-9.87l-42.3-21.46-42.23,21.46h-9.94l46.85-24.29-46.85-24.22h9.94Z"/>
    <path class="cls-1" d="M1093.22,425.2v8.35c0,10.9,8.62,18.56,21.6,18.56h26.5c12.97,0,21.6-7.66,21.6-18.56v-8.35h5.24v8.35c0,13.8-10.63,23.8-26.84,23.8h-10.63v16.35h-5.24v-16.35h-10.63c-16.21,0-26.84-10-26.84-23.8v-8.35h5.24Z"/>
    <path class="cls-1" d="M1200.65,473.71c-16.49,0-26.29-10.07-26.29-24.22s9.8-24.29,26.29-24.29h30.98c16.49,0,26.29,10.14,26.29,24.29s-9.8,24.22-26.29,24.22h-30.98ZM1231.63,468.46c13.25,0,21.04-7.73,21.04-18.97s-7.8-19.04-21.04-19.04h-30.98c-13.25,0-21.04,7.8-21.04,19.04s7.8,18.97,21.04,18.97h30.98Z"/>
    <path class="cls-1" d="M86.24,489.2v43.47h17.46v5.04H30.69v-5.04h50.3v-38.36h-48.58v-5.11h53.82Z"/>
    <path class="cls-1" d="M109.22,495.62s4.14-6.42,15.73-6.42h43.26c11.11,0,16.08,4.76,16.08,11.73s-3.73,10.9-15.66,15.11l-28.57,10c-7.25,2.55-12.7,4.49-16.84,6.42h62.17v5.24h-76.31v-5.17c8.69-4.21,20.22-8.83,31.33-12.63l28.36-9.66c6.35-2.14,8.97-4.49,8.97-8.83s-3.59-7.11-10.28-7.11h-41.4c-6.07,0-10.14,1.86-12.49,4.49l-4.35-3.17Z"/>
    <path class="cls-1" d="M205.95,494.31c-5.73,0-8.56,4.55-8.56,4.55l-4.28-3.24s3.17-6.42,12.28-6.42h47.54c7.87,0,13.73,5.38,13.73,13.32,0,5.18-2.28,8.97-6.42,11.04,4.14,1.86,6.76,5.66,6.76,10.56,0,7.8-5.8,13.59-13.73,13.59h-47.89c-9.11,0-12.28-6.42-12.28-6.42l4.28-3.24s2.83,4.42,8.56,4.42h47.2c4.69,0,8.62-3.24,8.62-8.35,0-4.76-4.07-7.73-9.04-7.73h-41.33v-5.11h41.33c4.97,0,8.97-3.59,8.97-8.49s-4-8.49-8.97-8.49h-46.78Z"/>
    <path class="cls-1" d="M331.81,489.2h3.59v33.33h16.28v4.9h-16.28v10.28h-5.24v-10.28h-56.58v-3.17l58.24-35.05ZM289.17,522.53h40.99v-27.39l-46.09,27.74,5.11-.34Z"/>
    <path class="cls-1" d="M370.31,537.71c-9.11,0-12.28-6.42-12.28-6.42l4.28-3.24s2.83,4.55,8.56,4.55h44.71c6.42,0,10.49-3.73,10.49-9.04s-4.07-8.49-10.7-8.49h-56.24l2.69-25.88h65.27v5.11h-60.86l-1.59,15.66h50.92c10.07,0,15.87,5.52,15.87,13.59s-5.8,14.15-15.52,14.15h-45.61Z"/>
    <path class="cls-1" d="M453.66,537.71c-8.35,0-15.25-6.9-15.25-15.25,0-2.9.83-5.45,2.14-7.8l14.15-25.46h6l-10.7,18.97c1.52-.62,3.38-.97,6.76-.97h44.78c8.35,0,15.18,6.9,15.18,15.25s-6.83,15.25-15.18,15.25h-47.89ZM453.66,512.52c-5.52,0-10,4.49-10,9.94s4.49,10,10,10h47.89c5.45,0,9.94-4.49,9.94-10s-4.49-9.94-9.94-9.94h-47.89Z"/>
    <path class="cls-1" d="M585.8,489.2l-17.18,48.51h-5.59l15.32-43.4h-64.51v-5.11h71.97Z"/>
    <path class="cls-1" d="M605.05,537.71c-7.52,0-13.39-5.93-13.39-13.04,0-4.49,2.14-8.35,5.73-10.56-3.59-1.79-6.28-6-6.28-11.11,0-8.14,5.8-13.8,14.21-13.8h47.54c8.42,0,14.21,5.66,14.21,13.8,0,5.11-2.69,9.31-6.28,11.11,3.59,2.21,5.73,6.07,5.73,10.56,0,7.11-5.87,13.04-13.39,13.04h-48.09ZM653.28,511.49c4.69,0,8.56-3.86,8.56-8.56s-3.59-8.49-8.56-8.49h-48.37c-4.97,0-8.56,3.79-8.56,8.49s3.86,8.56,8.56,8.56h48.37ZM653.34,532.46c4.55,0,8-3.86,8-8s-3.45-8.07-8-8.07h-48.51c-4.55,0-8,3.93-8,8.07s3.45,8,8,8h48.51Z"/>
    <path class="cls-1" d="M737.25,489.2c8.35,0,15.25,6.9,15.25,15.25,0,2.9-.83,5.45-2.14,7.8l-14.15,25.46h-6l10.7-18.97c-1.52.62-3.38.97-6.76.97h-45.26c-8.35,0-15.18-6.9-15.18-15.25s6.83-15.25,15.18-15.25h48.37ZM737.25,514.39c5.52,0,10-4.48,10-9.94s-4.48-10-10-10h-48.37c-5.45,0-9.94,4.48-9.94,10s4.48,9.94,9.94,9.94h48.37Z"/>
    <path class="cls-1" d="M785.34,523.77s-.21-4.14-.21-4.48c0-3.79,2.14-6.42,7.18-7.52l16.21-3.52c5.52-1.17,7.87-3.66,7.87-7.73s-3.31-7.04-9.11-7.04h-32.15c-6.07,0-10.14,1.86-12.49,4.49l-4.35-3.17s4.14-6.42,15.73-6.42h33.53c10,0,15.39,4.69,15.39,11.94s-3.79,11.18-12.01,12.9l-16.01,3.38c-3.59.76-4.21,1.73-4.28,4l-.14,3.17h-5.17ZM782.99,535.09c0-2.21.9-3.45,4.76-3.45s4.76,1.24,4.76,3.45-.9,3.45-4.76,3.45-4.76-1.17-4.76-3.45Z"/>
    <path class="cls-2" d="M873.04,533.22h-32.77l-3.31,4.49h-10.97l36.22-48.51h1.38l22.49,48.51h-10.97l-2.07-4.49ZM846.89,524.25h22.01l-8.35-18.42-13.66,18.42Z"/>
    <path class="cls-2" d="M935.28,489.2c7.52,0,12.97,5.93,12.97,13.25,0,4.9-2.55,9.59-7.52,12.21,1.17,1.66,1.93,3.79,1.93,6.42,0,8.97-8.35,16.63-17.32,16.63h-32.78l6.83-48.51h35.88ZM903.61,528.05h23.12c3.1,0,6.07-2.83,6.07-5.87,0-2.55-1.93-4.76-4.62-4.76h-23.12l-1.45,10.63ZM906.16,509.49h26.22c3.24,0,6.14-2.83,6.14-5.87,0-2.55-1.93-4.76-4.62-4.76h-26.22l-1.52,10.63Z"/>
    <path class="cls-2" d="M1003.52,498.52h-22.77c-10.49,0-17.59,7.66-17.59,16.84,0,7.38,4.83,13.04,13.46,13.04h22.77l-1.31,9.32h-22.77c-13.59,0-21.94-9.04-21.94-21.25,0-15.04,12.28-27.25,28.36-27.25h23.12l-1.31,9.31Z"/>
    <path class="cls-2" d="M1041.12,489.2c12.76,0,21.94,9.18,21.94,21.46,0,15.18-13.59,27.05-28.77,27.05h-26.7l6.83-48.51h26.7ZM1018.56,528.39h17.04c9.32,0,17.73-7.38,17.73-16.63,0-7.59-5.8-13.25-13.52-13.25h-17.04l-4.21,29.88Z"/>
    <path class="cls-2" d="M1120.06,489.2l-1.31,9.31h-34.64l-1.52,10.56h33.26l-1.24,8.97h-33.26l-1.45,10.35h34.64l-1.31,9.32h-44.3l6.83-48.51h44.3Z"/>
    <path class="cls-2" d="M1174.5,489.2l-1.31,9.31h-34.64l-1.52,10.76h33.26l-1.24,8.97h-33.26l-2.76,19.46h-9.66l6.83-48.51h44.3Z"/>
    <path class="cls-2" d="M1192.09,489.2l-6.83,48.51h-9.66l6.83-48.51h9.66Z"/>
    <path class="cls-2" d="M1192.85,537.71l1.31-9.38h18.42c3.73,0,6.9-3.31,7.45-7.04l4.49-32.08h9.73l-4.48,32.08c-1.24,9.04-9.32,16.42-18.49,16.42h-18.42Z"/>
    <path class="cls-2" d="M1253.71,508.94l29.26-19.73h14.63l-31.53,22.63,25.32,25.88h-15.18l-18.77-19.8-5.59,4.07-2.21,15.73h-9.66l6.83-48.51h9.66l-2.76,19.73Z"/>
    <path class="cls-2" d="M49.74,553.2l-5.52,39.19h30.64l-1.31,9.32h-40.3l6.83-48.51h9.66Z"/>
    <path class="cls-2" d="M100.8,553.2l16.21,32.08,25.25-32.08h2.83l7.66,48.51h-9.73l-4.97-29.39-22.63,29.39h-1.38l-14.49-29.46-13.11,29.46h-9.73l21.25-48.51h2.83Z"/>
    <path class="cls-2" d="M169.04,553.2l37.4,30.22,4.28-30.22h9.66l-6.83,48.51h-1.38l-37.4-30.22-4.28,30.22h-9.66l6.83-48.51h1.38Z"/>
    <path class="cls-2" d="M285.79,574.32c0,15.18-11.45,28.22-33.19,28.22-18.08,0-26.43-9.73-26.43-21.87,0-15.04,11.59-28.29,33.46-28.29,17.8,0,26.15,9.8,26.15,21.94ZM235.9,579.56c0,7.45,4.97,13.32,18.08,13.32,15.87,0,22.08-8.21,22.08-17.46,0-7.45-4.97-13.39-17.87-13.39-16.15,0-22.29,8.28-22.29,17.53Z"/>
    <path class="cls-2" d="M330.36,553.2c10.63,0,17.39,7.8,17.39,16.97,0,11.11-10,21.04-22.42,21.32h-22.56l-1.45,10.21h-9.66l6.83-48.51h31.88ZM304.07,581.84h22.49c5.93,0,11.38-4.55,11.38-10.56,0-4.9-3.73-8.42-8.69-8.42h-22.49l-2.69,18.97Z"/>
    <path class="cls-2" d="M411.92,574.32c0,11.45-6.62,21.53-19.32,26.01l2.9,6h-10.56l-1.86-4c-1.38.14-2.83.21-4.35.21-18.08,0-26.43-9.73-26.43-21.87,0-15.04,11.59-28.29,33.46-28.29,17.8,0,26.15,9.8,26.15,21.94ZM388.66,591.84c9.52-2.55,13.52-9.11,13.52-16.42s-4.97-13.39-17.87-13.39c-16.15,0-22.29,8.28-22.29,17.53,0,7.18,4.62,12.97,16.63,13.32l-2.55-5.52h10.49l2.07,4.48Z"/>
    <path class="cls-2" d="M453.04,553.2c10.63,0,17.39,7.8,17.39,16.97,0,7.38-4.49,14.08-11.11,18.08l6.42,13.46h-10.56l-4.9-10.35c-.76.07-1.52.14-2.28.14h-19.11l-1.45,10.21h-9.66l6.83-48.51h28.43ZM430.2,581.84h19.04c5.93,0,11.38-4.55,11.38-10.56,0-4.9-3.73-8.42-8.69-8.42h-19.04l-2.69,18.97Z"/>
    <path class="cls-2" d="M522.93,566.73s-5.93-5.11-18.01-5.11-14.77,2.69-14.77,5.52,3.1,4.14,14.97,5.45c16.28,1.31,22.15,4.55,22.15,12.49,0,10.83-8.56,17.46-26.57,17.46s-24.7-7.11-24.7-7.11l6.07-7.66s6.49,5.52,20.22,5.52,15.04-2.76,15.04-5.93c0-2.55-2.21-4.42-14.42-5.52-15.73-1.45-22.56-5.11-22.56-13.32,0-9.87,8.76-16.15,26.22-16.15s23.25,6.28,23.25,6.28l-6.9,8.07Z"/>
    <path class="cls-2" d="M587.86,553.2l-1.31,9.31h-19.94l-5.52,39.19h-9.66l5.52-39.19h-19.94l1.31-9.31h49.54Z"/>
    <path class="cls-2" d="M605.25,553.2l-3.66,26.22c-1.1,7.87,3.73,13.46,14.35,13.46s16.97-5.59,18.08-13.46l3.66-26.22h9.73l-3.86,26.91c-1.59,11.18-12.21,22.29-28.98,22.29s-24.29-11.11-22.7-22.29l3.79-26.91h9.59Z"/>
    <path class="cls-2" d="M679.01,585.08l23.6-31.88h10.97l-36.23,48.51h-1.38l-22.49-48.51h10.97l14.56,31.88Z"/>
    <path class="cls-2" d="M767.47,601.71l-16.22-32.08-25.25,32.08h-2.83l-7.66-48.51h9.73l4.97,29.39,22.63-29.39h1.38l14.49,29.46,13.11-29.46h9.73l-21.25,48.51h-2.83Z"/>
    <path class="cls-2" d="M807.56,553.2l13.66,17.04,18.56-17.04h12.35l-25.81,23.8,20.36,24.7h-12.21l-15.18-17.8-19.73,17.8h-12.21l26.77-24.7-18.84-23.8h12.28Z"/>
    <path class="cls-2" d="M866.76,553.2l13.94,18.29,18.97-18.29h11.87l-27.05,25.67-3.24,22.84h-9.66l3.24-22.84-19.94-25.67h11.87Z"/>
    <path class="cls-2" d="M964.74,553.2l-36.43,38.85h30.29l-1.38,9.66h-50.09l35.95-38.85h-29.05l1.38-9.66h49.33Z"/>
    <path class="cls-2" d="M1025.39,574.32c0,15.18-11.45,28.22-33.19,28.22-18.08,0-26.43-9.73-26.43-21.87,0-15.04,11.59-28.29,33.46-28.29,17.8,0,26.15,9.8,26.15,21.94ZM975.5,579.56c0,7.45,4.97,13.32,18.08,13.32,15.87,0,22.08-8.21,22.08-17.46,0-7.45-5.04-13.39-17.87-13.39-16.21,0-22.29,8.28-22.29,17.53Z"/>
    <path class="cls-2" d="M1051.33,553.2l-6.83,48.51h-9.66l5.59-39.54h-10.14l1.24-8.97h19.8Z"/>
    <path class="cls-2" d="M1054.57,593.84l34.43-21.87c2.21-1.38,3.1-2.48,3.1-4.76,0-2.69-3.24-5.11-10.56-5.11s-12.9,1.73-18.77,4.97l-4.62-8.14c6.49-3.86,14.56-6.55,25.25-6.55,14.01,0,20.29,5.17,20.29,12.35s-3.24,10.07-10.42,14.77l-19.25,12.56h26.7l-1.38,9.66h-45.88l1.1-7.87Z"/>
    <path class="cls-2" d="M1105.77,594.46l7.8-6.62s5.04,5.24,16.7,5.24c8.9,0,11.87-2.9,11.87-6.28,0-2.48-1.66-4.48-7.73-4.48h-13.04l1.17-8.35h12.49c8.56,0,9.8-3.31,9.8-6.14s-3.17-5.73-10.97-5.73c-7.25,0-14.14,1.73-18.63,4.55l-4.35-7.73c6.55-4.28,14.28-6.55,24.98-6.55,12.7,0,20.7,5.87,20.7,13.8,0,4.55-2.21,8.49-6.35,11.52,2.48,1.93,3.66,4.69,3.66,7.87,0,9.38-8.9,16.97-25.05,16.97-18.28,0-23.05-8.07-23.05-8.07Z"/>
    <path class="cls-2" d="M1203.13,553.2l-4.35,30.57h10.49l-1.24,8.97h-10.49l-1.24,8.97h-9.66l1.24-8.97h-29.46l.83-5.73,37.47-33.81h6.42ZM1173.05,584.32h16.01l2.28-16.01-18.29,16.01Z"/>
    <path class="cls-2" d="M1262.68,553.2l-1.24,8.97h-30.91l-2.35,10h15.25c12.08,0,17.73,3.79,17.73,11.45,0,10.42-9.11,18.91-26.63,18.91s-21.8-8.07-21.8-8.07l7.8-6.62s4.28,5.24,15.94,5.24,14.35-3.59,14.35-7.11c0-2.83-2.41-4.9-9.04-4.9h-24.36l.76-5.11,5.38-22.77h39.12Z"/>
    <path class="cls-2" d="M1267.16,588.18c0-4.14,2.28-8.21,4.69-11.73l16.21-23.25h11.04l-12.63,17.94s2.55-.76,7.31-.76c14.49,0,22.15,5.8,22.15,14.35,0,10.42-9.73,17.73-26.63,17.73-14.49,0-22.15-5.8-22.15-14.28ZM1278.27,587.08c0,3.73,3.79,6.49,12.28,6.49,9.87,0,14.28-3.38,14.28-7.87,0-3.86-3.73-6.56-12.28-6.56-9.8,0-14.28,3.31-14.28,7.94Z"/>
    <path class="cls-2" d="M80.03,617.2l-32.91,48.51h-10.21l27.95-39.54h-30.29l1.24-8.97h44.23Z"/>
    <path class="cls-2" d="M129.64,631.21c-1.17,8.28-9.04,10.83-9.04,10.83,0,0,5.73,2.76,4.62,10.35-1.04,7.45-7.73,14.08-23.39,14.08s-20.56-6.62-19.53-14.08c1.1-7.59,7.52-10.35,7.52-10.35,0,0-7.18-2.55-6-10.83,1.17-8.42,8.9-14.83,25.05-14.83s21.94,6.42,20.77,14.83ZM115.22,651.49c0-2.55-2.41-5.04-10.63-5.04-9.59,0-12.14,3.1-12.14,6.07,0,2.62,2.35,5.24,10.56,5.24,9.66,0,12.21-3.38,12.21-6.28ZM120.6,630.73c0-2.9-2.83-5.59-12.97-5.59-11.73,0-14.63,3.45-14.63,6.62,0,2.83,2.76,5.93,12.83,5.93,11.73,0,14.77-3.86,14.77-6.97Z"/>
    <path class="cls-2" d="M185.74,630.73c0,4.14-2.28,8.21-4.69,11.73l-16.21,23.25h-11.04l12.63-17.94s-2.55.76-7.31.76c-14.49,0-22.15-5.8-22.15-14.35,0-10.42,9.73-17.73,26.7-17.73,14.42,0,22.08,5.8,22.08,14.28ZM174.63,631.83c0-3.73-3.73-6.49-12.21-6.49-9.87,0-14.35,3.38-14.35,7.87,0,3.86,3.79,6.55,12.28,6.55,9.87,0,14.28-3.31,14.28-7.93Z"/>
    <path class="cls-2" d="M200.16,660.53c0,3.24-3.04,6-6.35,6-2.76,0-4.69-2.14-4.69-4.76,0-3.31,2.9-6.07,6.21-6.07,2.76,0,4.83,2.21,4.83,4.83ZM194.08,617.2c9.18,0,15.11,4.62,15.11,12.56,0,9.66-7.45,12.21-8.56,17.8l-.83,4.21h-8l.35-4.21c1.17-8.56,7.11-8.76,7.11-15.11,0-3.59-2.69-5.8-6.49-5.8l1.31-9.45Z"/>
    <path class="cls-1" d="M213.68,665.71v-30.22c0-11.18,7.59-18.98,18.08-18.98s18.15,7.8,18.15,18.98v30.22h-5.24v-16.01h-25.74v16.01h-5.24ZM218.92,644.59h25.74v-9.11c0-8.28-5.24-13.73-12.9-13.73s-12.83,5.45-12.83,13.73v9.11Z"/>
    <path class="cls-1" d="M277.43,617.2c8.69,0,14.7,6.28,14.7,14.01,0,5.24-2.48,9.25-7.38,11.25,3.38,1.79,5.66,5.52,5.66,10,0,7.31-5.87,13.25-13.39,13.25h-14.15v-48.51h14.56ZM268.12,639.56h9.59c5.59,0,9.18-3.59,9.18-8.35s-3.59-8.76-9.45-8.76h-9.32v17.11ZM268.12,660.46h8.9c4.28,0,8.14-3.52,8.14-8s-3.86-7.8-8.14-7.8h-8.9v15.8Z"/>
    <path class="cls-1" d="M323.04,665.71c-14.28,0-24.29-10.35-24.29-24.22s10-24.29,24.29-24.29h3.52v5.24h-3.52c-11.52,0-19.04,8.14-19.04,19.04s7.52,19.04,19.04,19.04h3.52v5.17h-3.52Z"/>
    <path class="cls-1" d="M348.92,617.2c13.8,0,24.91,10.63,24.91,24.29s-11.11,24.22-24.91,24.22h-12.83v-48.51h12.83ZM341.33,660.67h7.59c10.9,0,19.67-8.42,19.67-19.18s-8.76-19.18-19.67-19.18h-7.59v38.36Z"/>
    <path class="cls-1" d="M405.91,617.2v5.11h-17.32v16.56h15.94v5.11h-15.94v16.7h17.32v5.04h-22.56v-48.51h22.56Z"/>
    <path class="cls-1" d="M438.82,617.2v5.11h-17.32v16.56h15.94v5.11h-15.94v21.73h-5.24v-48.51h22.56Z"/>
    <path class="cls-1" d="M477.94,641.49v24.22h-8.76c-14.28,0-24.29-10.35-24.29-24.22s10-24.29,24.29-24.29h7.31v5.24h-7.31c-11.52,0-19.04,8.14-19.04,19.04s7.52,19.04,19.04,19.04h3.52v-19.04h5.24Z"/>
    <path class="cls-1" d="M493.81,617.2v21.73h27.6v-21.73h5.24v48.51h-5.24v-21.67h-27.6v21.67h-5.24v-48.51h5.24Z"/>
    <path class="cls-1" d="M544.87,617.2v48.51h-5.24v-48.51h5.24Z"/>
    <path class="cls-1" d="M566.68,617.2v34.15c0,7.93-6.14,14.21-14.01,14.35v-5.24c5.11-.28,8.76-4.14,8.76-9.11v-34.15h5.24Z"/>
    <path class="cls-1" d="M584.41,617.2v23.67l23.94-23.67h6.49l-23.11,23.46,22.22,25.05h-6.83l-18.97-21.18-3.73,3.59v17.59h-5.24v-48.51h5.24Z"/>
    <path class="cls-1" d="M625.4,617.2v43.4h17.59v5.11h-22.84v-48.51h5.24Z"/>
    <path class="cls-1" d="M653.2,617.2l20.91,27.39,20.63-27.39h2.42v48.51h-5.24v-34.84l.07-.9-17.39,22.84h-.97l-17.39-22.84.07.9v34.84h-5.24v-48.51h2.14Z"/>
    <path class="cls-1" d="M710.89,617.2l32.43,36.22v-36.22h5.24v48.51h-.76l-32.43-36.23v36.23h-5.24v-48.51h.76Z"/>
    <path class="cls-1" d="M782.99,616.44c13.87,0,25.05,11.25,25.05,25.05s-11.18,24.98-25.05,24.98-24.98-11.11-24.98-24.98,11.11-25.05,24.98-25.05ZM782.99,661.29c10.97,0,19.8-8.83,19.8-19.8s-8.83-19.8-19.8-19.8-19.73,8.9-19.73,19.8,8.76,19.8,19.73,19.8Z"/>
    <path class="cls-1" d="M827.43,617.2c10.35,0,18.7,8.35,18.7,18.7s-8.35,18.7-18.7,18.7h-4.62v11.11h-5.24v-48.51h9.87ZM822.8,649.35h4.62c7.45,0,13.45-6,13.45-13.45s-6-13.45-13.45-13.45h-4.62v26.91Z"/>
    <path class="cls-1" d="M876.9,616.44c13.87,0,25.05,11.25,25.05,25.05,0,12.97-9.8,23.53-22.43,24.84v6.62h-5.24v-6.62c-12.63-1.31-22.36-11.87-22.36-24.84,0-13.8,11.11-25.05,24.98-25.05ZM874.28,661.15v-7.25h5.24v7.25c9.73-1.31,17.18-9.59,17.18-19.66,0-10.9-8.83-19.8-19.8-19.8s-19.73,8.9-19.73,19.8c0,10.07,7.38,18.35,17.11,19.66Z"/>
    <path class="cls-1" d="M921.33,617.2c10.35,0,18.7,8.35,18.7,18.7,0,5.8-2.62,10.97-6.76,14.42l4.97,8.14c.97,1.59,1.93,2.07,3.86,2.21v5.04c-4.49,0-6.21-1.24-8.07-4.21l-5.38-8.42c-2.21.97-4.69,1.52-7.31,1.52h-4.62v11.11h-5.24v-48.51h9.87ZM916.71,649.35h4.62c7.45,0,13.46-6,13.46-13.45s-6-13.45-13.46-13.45h-4.62v26.91Z"/>
    <path class="cls-1" d="M968.6,617.2v5.11h-5.45c-4.14,0-6.76,2.21-6.76,6.21,0,7.59,10.21,15.53,10.21,25.12,0,7.11-4.62,12.08-12.28,12.08h-7.8v-5.11h6.21c4.62,0,7.93-2.55,7.93-7.45,0-7.24-10.21-15.25-10.21-25.25,0-6.35,4.35-10.69,10.76-10.69h7.38Z"/>
    <path class="cls-1" d="M1002.06,617.2v5.11h-11.8v43.4h-5.24v-43.4h-11.8v-5.11h28.84Z"/>
    <path class="cls-1" d="M1015.1,617.2v30.22c0,8.28,5.24,13.73,12.83,13.73s12.9-5.45,12.9-13.73v-30.22h5.24v30.22c0,11.18-7.59,18.98-18.15,18.98s-18.08-7.8-18.08-18.98v-30.22h5.24Z"/>
    <path class="cls-1" d="M1057.67,617.2l16.15,38.23,16.28-38.23h5.45l-21.18,48.51h-1.1l-21.11-48.51h5.52Z"/>
    <path class="cls-1" d="M1142.2,665.71l-14.83-36.36-14.9,36.36h-1.66l-13.39-48.51h5.31l9.8,35.6,14.01-35.6h1.59l14.08,35.6,9.8-35.6h5.31l-13.46,48.51h-1.66Z"/>
    <path class="cls-1" d="M1165.8,617.2l14.14,20.35,14.08-20.35h6l-16.84,24.29,16.84,24.22h-5.93l-14.15-20.35-14.21,20.35h-5.93l16.77-24.22-16.77-24.29h6Z"/>
    <path class="cls-1" d="M1208.78,617.2v10.21c0,8.28,5.24,13.73,12.83,13.73s12.9-5.45,12.9-13.73v-10.21h5.24v10.21c0,10.21-6.35,17.66-15.52,18.84v19.46h-5.24v-19.46c-9.11-1.17-15.46-8.62-15.46-18.84v-10.21h5.24Z"/>
    <path class="cls-1" d="M1270.95,616.44c13.87,0,25.05,11.25,25.05,25.05s-11.18,24.98-25.05,24.98-24.98-11.11-24.98-24.98,11.11-25.05,24.98-25.05ZM1270.95,661.29c10.97,0,19.8-8.83,19.8-19.8s-8.83-19.8-19.8-19.8-19.73,8.9-19.73,19.8,8.76,19.8,19.73,19.8Z"/>
    <path class="cls-1" d="M1313.8,617.2v48.51h-5.24v-43.61h-7.52v-4.9h12.77Z"/>
    <path class="cls-1" d="M29.18,687.69c1.38-2.9,5.38-7.31,13.25-7.31,8.69,0,14.77,6.9,14.77,14.77,0,4.35-1.38,8.35-4.35,12.14l-13.32,17.18h18.49v5.24h-27.25v-2.55l17.39-22.43c2.69-3.52,3.59-5.59,3.59-9.59,0-5.17-4.42-9.52-9.52-9.52-3.79,0-6.76,1.72-8.97,5.04l-4.07-2.97Z"/>
    <path class="cls-1" d="M64.23,686.24s3.38-5.87,11.8-5.87,14.49,6.83,14.49,14.7c0,5.73-2.97,9.8-6.69,11.66,4.14,1.79,6.42,6.07,6.42,10.63,0,7.45-5.8,13.18-13.25,13.18-8.14,0-11.8-5.87-11.8-5.87l3.73-3.31s2.76,3.93,7.94,3.93c4.9,0,8.21-3.52,8.21-7.93s-3.45-7.94-8.07-8.07h-2.48v-4.9h2.07c4-.07,8.69-3.73,8.69-9.31,0-5.11-4.07-9.38-9.45-9.38s-7.87,3.93-7.87,3.93l-3.73-3.38Z"/>
    <path class="cls-1" d="M122.95,681.2v33.33h6.42v4.9h-6.42v10.28h-5.24v-10.28h-21.67v-3.17l23.32-35.05h3.59ZM102.8,714.53h14.9v-22.56l-14.9,22.56Z"/>
    <path class="cls-1" d="M158.96,681.2v4.9h-14.7l-1.38,15.53h2.9c10,0,15.66,5.38,15.66,14.28,0,8-6.28,14.63-14.14,14.63-8.56,0-12.14-5.87-12.14-5.87l3.73-3.31s2.69,3.93,8.28,3.93c4.9,0,9.04-4.07,9.04-9.38,0-6-4.07-9.45-10.83-9.45h-7.45v-2.48l2.21-22.77h18.84Z"/>
    <path class="cls-1" d="M190.56,681.2l-11.04,19.67s1.31-.48,3.59-.48c8.14,0,15.11,6.62,15.11,14.9s-6.9,15.25-15.18,15.25-15.04-7.11-15.04-15.53c0-2.69.97-5.66,3.17-9.66l13.39-24.15h6ZM183.04,725.29c5.45,0,9.94-4.49,9.94-10s-4.48-9.94-9.94-9.94-10,4.49-10,9.94,4.48,10,10,10Z"/>
    <path class="cls-1" d="M228.58,681.2l-17.18,48.51h-5.59l15.39-43.61h-18.42v-4.9h25.81Z"/>
    <path class="cls-1" d="M233.07,695.07c0-8.07,6.56-14.7,14.56-14.7s14.7,6.62,14.7,14.7c0,5.52-3.31,10-7.87,11.94,3.73,1.86,6.35,5.8,6.35,10.42,0,7.04-6,13.11-13.18,13.11s-13.11-5.87-13.11-13.11c0-4.62,2.55-8.56,6.35-10.42-4.55-1.93-7.8-6.42-7.8-11.94ZM238.31,695.07c0,5.11,4.21,9.31,9.32,9.31s9.45-4.21,9.45-9.31-4.28-9.45-9.45-9.45-9.32,4.28-9.32,9.45ZM247.63,725.29c4.42,0,8-3.52,8-7.93s-3.52-8-8-8-7.94,3.59-7.94,8,3.52,7.93,7.94,7.93Z"/>
    <path class="cls-1" d="M276.19,729.71l11.04-19.67s-1.31.48-3.59.48c-8.14,0-15.11-6.62-15.11-14.9s6.9-15.25,15.18-15.25,15.04,7.11,15.04,15.52c0,2.97-.97,5.66-3.17,9.66l-13.39,24.15h-6ZM283.71,685.62c-5.45,0-9.94,4.48-9.94,10s4.49,9.94,9.94,9.94,10-4.48,10-9.94-4.49-10-10-10Z"/>
    <path class="cls-2" d="M306.83,681.2c5.45.41,13.66,3.59,13.66,13.94,0,8.9-6.42,11.52-6.62,18.42l-.14,4.9h-4.21l-.21-4.9c-.35-8.76,6.07-10.07,6.07-17.73,0-6.62-4.97-9.18-8.56-9.52v-5.11ZM314.9,726.95c0,1.79-1.45,3.17-3.24,3.17s-3.24-1.38-3.24-3.17,1.38-3.24,3.24-3.24,3.24,1.38,3.24,3.24Z"/>
    <path class="cls-2" d="M348.02,729.71v-15.59h-13.18v15.59h-5.24v-33.26c0-10.35,4.42-15.94,11.8-15.94s11.87,5.59,11.87,15.94v33.26h-5.24ZM334.84,696.66v12.35h13.18v-12.35c0-8.21-2.83-10.97-6.62-10.97s-6.55,2.76-6.55,10.97Z"/>
    <path class="cls-2" d="M369.75,681.2c8.83,0,14.83,5.86,14.83,13.66,0,4.97-2.62,9.38-7.59,11.18,4.21,1.86,6.35,5.73,6.35,10,0,7.87-5.93,13.66-15.04,13.66h-6.28v-48.51h7.73ZM367.27,703.28h2.48c6.07,0,9.59-3.86,9.59-8.42,0-4.83-3.73-8.42-9.59-8.42h-2.48v16.84ZM367.27,724.46h1.03c6.14,0,9.8-3.1,9.8-8s-3.66-8.07-9.8-8.07h-1.03v16.08Z"/>
    <path class="cls-2" d="M407.77,686.38c-9.52,0-13.11,7.87-13.11,19.11s3.59,19.04,13.11,19.04v5.17c-12.28,0-18.35-9.66-18.35-24.22s6.07-24.29,18.35-24.29v5.17Z"/>
    <path class="cls-2" d="M414.67,729.71v-48.51h6.69c9.11,0,16.63,9.25,16.63,24.29s-7.45,24.22-16.63,24.22h-6.69ZM422.05,724.46c5.11,0,10.7-6.35,10.7-18.97s-5.59-19.04-10.7-19.04h-2.14v38.02h2.14Z"/>
    <path class="cls-2" d="M461.32,681.2v5.24h-11.38v16.84h11.38v5.11h-11.38v16.08h11.38v5.24h-16.63v-48.51h16.63Z"/>
    <path class="cls-2" d="M485.26,681.2v5.24h-11.38v16.84h11.38v5.11h-11.38v21.32h-5.24v-48.51h16.63Z"/>
    <path class="cls-2" d="M495.81,705.49c0,10.07,2.83,17.39,10.28,18.77v-18.77h4.76v24.22h-1.93c-12.28,0-18.35-9.66-18.35-24.22s6.07-24.29,18.35-24.29h1.93v5.17h-1.93c-9.52,0-13.11,7.87-13.11,19.11Z"/>
    <path class="cls-2" d="M523.55,681.2v22.08h14.01v-22.08h5.24v48.51h-5.24v-21.32h-14.01v21.32h-5.24v-48.51h5.24Z"/>
    <path class="cls-2" d="M556.46,681.2v48.51h-5.24v-48.51h5.24Z"/>
    <path class="cls-2" d="M573.92,681.2v36.22c0,6.97-4.76,12.28-11.87,12.28v-5.17c4.07,0,6.56-3.04,6.56-6.76v-36.57h5.31Z"/>
    <path class="cls-2" d="M587.38,681.2v19.25l13.66-19.25h6.07v.9l-15.53,22.01,15.66,24.77v.83h-6.21l-13.32-21.04-.34.48v20.56h-5.24v-48.51h5.24Z"/>
    <path class="cls-2" d="M616.91,681.2v43.47h10.49v5.04h-15.66v-48.51h5.17Z"/>
    <path class="cls-2" d="M634.71,681.2l12.7,29.46,12.9-29.46h1.86v48.51h-4.9v-30.57l-9.32,21.39h-1.17l-8.97-21.39v30.57h-4.9v-48.51h1.79Z"/>
    <path class="cls-2" d="M671.62,681.2l17.73,32.02v-32.02h4.83v48.51h-1.03l-17.73-32.02v32.02h-4.83v-48.51h1.04Z"/>
    <path class="cls-2" d="M727.1,705.49c0,15.18-4.55,24.98-13.11,24.98s-12.97-9.8-12.97-24.98,4.49-24.98,12.97-24.98,13.11,9.73,13.11,24.98ZM706.26,705.49c0,12.83,2.62,19.8,7.73,19.8,5.38,0,7.87-6.97,7.87-19.8s-2.55-19.8-7.87-19.8-7.73,6.97-7.73,19.8Z"/>
    <path class="cls-2" d="M738.83,681.2c10.14,0,17.25,8.69,17.25,18.42s-6.42,17.73-16.91,18.08v12.01h-5.24v-48.51h4.9ZM739.17,712.46c6.9,0,11.66-5.73,11.66-12.83s-4.76-13.18-11.66-13.18v26.01Z"/>
    <path class="cls-2" d="M786.64,705.49c0,13.46-3.59,22.7-10.35,24.56l.14,6.9h-5.24l.07-6.76c-7.04-1.59-10.7-10.9-10.7-24.7,0-15.25,4.49-24.98,12.97-24.98s13.11,9.73,13.11,24.98ZM765.81,705.49c0,12.56,2.55,19.8,7.73,19.8s7.87-6.97,7.87-19.8-2.55-19.8-7.87-19.8-7.73,6.97-7.73,19.8Z"/>
    <path class="cls-2" d="M803.13,717.08c-1.38.34-2.9.62-4.42.62v12.01h-5.24v-48.51h4.9c10.14,0,17.25,8.69,17.25,18.42,0,6.14-2.69,11.73-7.38,15.04l5.11,8.07c.76,1.24,1.59,1.72,2.97,1.72h.48v5.24h-1.1c-3.45,0-5.38-1.31-7.52-4.69l-5.04-7.93ZM798.72,712.46c6.9,0,11.66-5.73,11.66-12.83s-4.76-13.18-11.66-13.18v26.01Z"/>
    <path class="cls-2" d="M840.32,681.2v5.11h-1.52c-4.55,0-7.66,2.62-7.66,8.97,0,5.93,4.83,13.18,4.83,20.56,0,8.14-3.79,13.87-13.25,13.87h-3.24v-5.24h2.42c6.14,0,8.56-2.76,8.56-8.69s-4.83-13.32-4.83-21.11,5.17-13.46,12.63-13.46h2.07Z"/>
    <path class="cls-2" d="M864.61,681.2v5.11h-8.35v43.4h-5.24v-43.4h-8.35v-5.11h21.94Z"/>
    <path class="cls-2" d="M888.28,714.32v-33.12h5.24v33.33c0,10.35-4.42,15.94-11.87,15.94s-11.8-5.59-11.8-15.94v-33.33h5.24v33.12c0,8.21,2.83,10.97,6.56,10.97s6.62-2.76,6.62-10.97Z"/>
    <path class="cls-2" d="M909.39,704.73l2.83,12.01,2.83-12.01,6.35-23.53h5.66l-14.28,48.51h-1.04l-14.21-48.51h5.59l6.28,23.53Z"/>
    <path class="cls-2" d="M933.2,681.2l4.83,23.67,1.31,6.76,7.18-30.43h2.28l7.38,30.43,1.17-6.76,4.83-23.67h5.66l-11.18,48.51h-1.04l-8-33.67-7.87,33.67h-.97l-11.18-48.51h5.59Z"/>
    <path class="cls-2" d="M975.56,681.2l6.14,19.8,6.21-19.8h5.66l-8.49,24.22,8.69,24.29h-5.66l-6.49-19.8-6.35,19.8h-5.73l8.69-24.29-8.35-24.22h5.66Z"/>
    <path class="cls-2" d="M1015.58,693.14v-11.94h5.24v12.14c0,9.04-3.38,14.42-9.18,15.66v20.7h-5.24v-20.7c-5.87-1.17-9.25-6.55-9.25-15.66v-12.14h5.24v11.94c0,8.21,2.83,10.97,6.56,10.97s6.62-2.76,6.62-10.97Z"/>
    <path class="cls-2" d="M1052.01,705.49c0,14.97-4.76,24.98-13.11,24.98s-12.97-10-12.97-24.98,4.69-24.98,12.97-24.98,13.11,9.94,13.11,24.98ZM1031.18,705.49c0,12.63,2.76,19.8,7.73,19.8s7.87-7.18,7.87-19.8-2.76-19.8-7.87-19.8-7.73,7.18-7.73,19.8Z"/>
    <path class="cls-2" d="M1067.26,681.2v48.51h-5.24v-43.61h-5.8v-4.9h11.04Z"/>
    <path class="cls-2" d="M1073.06,688.24c1.79-4.14,4.97-7.31,10.97-7.31,6.69,0,11.04,5.04,11.04,12.83,0,3.79-1.03,7.38-3.38,11.94l-9.8,18.77h13.46v5.24h-21.87v-1.79l13.11-24.29c2.55-4.49,2.97-7.45,2.97-9.52,0-5.24-2.48-7.93-5.8-7.93s-5.11,1.66-6.62,5.04l-4.07-2.97Z"/>
    <path class="cls-2" d="M1110.94,703.07c3.17,0,5.38-2.07,5.38-7.87,0-6.35-2.48-9.45-5.8-9.45s-4.83,1.66-6.35,5.04l-4.07-2.97c1.79-4.14,4.97-7.31,10.21-7.31,6.62,0,11.52,4.97,11.52,14.83,0,8-4.42,10.35-4.42,10.35,0,0,4.69,3.31,4.69,11.11,0,8.62-4.9,13.66-11.52,13.66-5.24,0-8.69-3.17-10.49-7.31l4.07-2.97c1.52,3.38,3.31,5.04,6.62,5.04,3.66,0,5.8-3.04,5.8-8.56s-2.48-8.62-5.66-8.62h-3.79v-4.97h3.79Z"/>
    <path class="cls-2" d="M1148.4,681.2v33.33h4.21v4.9h-4.21v10.28h-5.24v-10.28h-16.84v-2.97l18.28-35.26h3.8ZM1132.46,714.53h10.7v-21.67l-10.7,21.67Z"/>
    <path class="cls-2" d="M1166.69,702.04c8.28,0,11.94,6.97,11.94,14.77,0,8.62-4.9,13.66-11.52,13.66-5.24,0-8.69-3.17-10.49-7.31l4.07-2.97c1.52,3.38,3.31,5.04,6.62,5.04s5.8-3.04,5.8-8.28c0-6.07-2.48-9.94-7.59-9.94h-6.9v-2.62l1.45-23.18h16.42v4.9h-11.94l-.9,15.94h3.04Z"/>
    <path class="cls-2" d="M1200.29,681.2l-7.52,18.49s.97-.41,2.9-.41c7.45,0,12.35,6.9,12.35,15.18s-4.62,16.01-12.42,16.01-12.28-7.25-12.28-16.08c0-3.45.76-6.62,2.21-10.28l9.18-22.91h5.59ZM1195.6,725.29c4.97,0,7.18-5.04,7.18-10.63s-2.42-10.49-7.18-10.49-7.24,5.04-7.24,10.49,2.21,10.63,7.24,10.63Z"/>
    <path class="cls-2" d="M1231.96,681.2l-13.8,48.51h-5.45l12.42-43.61h-14.56v-4.9h21.39Z"/>
    <path class="cls-2" d="M1241.07,707.28c-3.86-2.48-5.93-7.25-5.93-12.21,0-8.07,4.48-14.7,12.49-14.7s12.63,6.62,12.63,14.7c0,4.97-2.14,9.73-6.14,12.21,2.83,2.28,4.55,5.93,4.55,10.56,0,7.04-4.69,12.7-11.04,12.7s-11.04-5.66-11.04-12.7c0-4.62,1.73-8.35,4.49-10.56ZM1247.62,685.62c-4.42,0-7.25,4.28-7.25,9.45,0,4.9,2.83,9.31,7.25,9.31s7.38-4.42,7.38-9.31c0-5.18-2.9-9.45-7.38-9.45ZM1247.62,710.18c-3.59,0-5.86,3.38-5.86,7.66s2.28,7.45,5.86,7.45,5.87-3.38,5.87-7.45c0-4.28-2.28-7.66-5.87-7.66Z"/>
    <path class="cls-2" d="M1272.39,729.71l7.52-18.49s-.97.41-2.9.41c-7.45,0-12.35-6.9-12.35-15.18s4.83-15.94,12.42-15.94,12.28,7.59,12.28,16.21c0,3.45-.76,6.42-2.21,10.07l-9.18,22.91h-5.59ZM1277.09,685.69c-4.76,0-7.18,5.24-7.18,10.76s2.42,10.28,7.18,10.28,7.24-4.83,7.24-10.28-2.42-10.76-7.24-10.76Z"/>
    <path class="cls-2" d="M1294.06,681.2c5.45.41,13.66,3.59,13.66,13.94,0,8.9-6.42,11.52-6.62,18.42l-.14,4.9h-4.21l-.21-4.9c-.34-8.76,6.07-10.07,6.07-17.73,0-6.62-4.97-9.18-8.56-9.52v-5.11ZM1302.13,726.95c0,1.79-1.45,3.17-3.24,3.17s-3.24-1.38-3.24-3.17,1.38-3.24,3.24-3.24,3.24,1.38,3.24,3.24Z"/>
  </g>
</svg>