<?xml version="1.0" encoding="UTF-8"?>
<svg id="Layer_1" data-name="Layer 1" xmlns="http://www.w3.org/2000/svg" xmlns:xlink="http://www.w3.org/1999/xlink" viewBox="0 0 1366 768">
  <defs>
    <style>
      .cls-1 {
        fill: #e5070b;
      }

      .cls-2 {
        fill: #c3bfb6;
      }

      .cls-3 {
        fill: #12100b;
      }

      .cls-4 {
        fill: #3b45c4;
      }

      .cls-5 {
        clip-path: url(#clippath);
      }
    </style>
    <clipPath id="clippath">
      <rect class="cls-2" x="-10" y="-10" width="1386" height="788"/>
    </clipPath>
  </defs>
  <g>
    <rect class="cls-2" x="-10" y="-10" width="1386" height="788"/>
    <g class="cls-5">
      <rect class="cls-2" x="-.35" y="-3.25" width="1366.71" height="779.89"/>
    </g>
  </g>
  <g>
    <path class="cls-3" d="M141.82,409.78h-33.14l-7.68,18.57c-.96,2.4-1.44,4.32-1.44,5.76,0,5.6,5.76,6.72,14.25,7.2v4.64h-32.98v-4.64c6.88-.64,9.44-4.32,13.29-13.13l38.9-90.12h6.4l38.74,90.29c4,9.12,7.68,12.33,13.13,12.97v4.64h-52.35v-4.64c7.68-.16,11.53-3.2,11.53-7.04,0-3.04-1.28-6.4-3.04-10.56l-5.6-13.93ZM139.42,404.17l-14.09-34.74-14.41,34.74h28.49Z"/>
    <path class="cls-3" d="M279.95,448.52c-15.05,0-22.73-8.48-22.73-24.17v-46.26h-26.57v52.19c0,8.64,2.08,10.57,16.81,11.05v4.64h-50.91v-4.64c7.52-.96,10.57-2.4,10.57-11.05v-52.19h-10.41v-5.76h10.41v-10.41c0-23.85,10.08-37.78,32.02-37.78,13.29,0,24.33,5.44,24.33,15.05,0,5.44-3.68,9.28-9.12,9.28-14.09,0-7.68-19.53-20.17-19.53-6.4,0-10.57,6.08-10.57,15.05,0,12.49,3.52,20.65,7.04,28.33h19.53l25.93-22.73h4.64v22.73h21.93v5.76h-21.93v46.74c0,8,3.36,11.37,8.8,11.37s9.12-3.84,12.17-9.12l3.84,2.72c-5.6,11.05-13.13,18.73-25.61,18.73Z"/>
    <path class="cls-3" d="M344.86,448.52c-23.69,0-36.5-16.65-36.5-40.5,0-22.09,13.13-38.26,36.5-38.26,21.13,0,30.58,12.33,32.34,33.14h-44.98c.32,16.17,7.68,29.94,23.85,29.94,9.76,0,15.05-4.96,18.73-14.41l4.48,1.6c-3.84,16.49-15.05,28.49-34.42,28.49ZM332.21,397.61h21.13c0-16.49-3.2-23.05-10.08-23.05s-11.05,6.56-11.05,23.05Z"/>
    <path class="cls-3" d="M380.92,386.08v-4.8c15.21-.48,24.17-4.16,30.09-11.53l4,.8v27.85c.8-3.36,1.76-6.56,3.68-11.21,4.16-9.92,9.29-17.45,22.25-17.45v24.49c-2.88-.64-6.08-1.28-9.45-1.28-11.85,0-16.49,10.56-16.49,22.89v15.85c0,7.04,4.32,8.96,15.21,9.44v4.8h-49.3v-4.8c6.88-.64,10.57-2.24,10.57-9.44v-31.86c0-8.64-2.88-12.17-10.57-13.77Z"/>
    <path class="cls-3" d="M507.38,448.52c-10.08,0-16.17-7.04-16.17-17.77v-52.67h-16.33l22.89-21.13h1.44v17.13h25.13v4h-25.13v51.07c0,8.64,4,12.81,11.04,12.81,4.96,0,10.89-2.4,14.89-8.64l1.44,1.12c-4.16,8.32-11.04,14.09-19.21,14.09Z"/>
    <path class="cls-3" d="M529.86,339.02v-2.08c9.76-.32,16.17-3.04,19.05-10.56l1.6.32v59.55c6.56-8.64,16.01-14.73,24.65-14.73,15.53,0,23.05,10.73,23.05,27.21v35.22c0,7.2,3.68,8.8,10.57,9.44v2.56h-29.29v-2.56c7.04-.64,10.73-2.24,10.73-9.44v-33.46c0-13.29-4-22.73-17.45-22.73-9.12,0-16.65,5.44-22.25,12.65v43.54c0,7.2,3.68,8.8,10.73,9.44v2.56h-29.29v-2.56c6.72-.64,10.57-2.24,10.57-9.44v-82.76c0-8.32-3.2-11.69-12.65-12.17Z"/>
    <path class="cls-3" d="M646.83,448.52c-20.97,0-32.98-16.65-32.98-37.3,0-23.53,12.33-39.7,32.34-39.7,12.65,0,26.89,7.84,27.53,31.38h-52.51c0,24.97,10.89,39.54,29.13,39.54,9.76,0,18.25-4,22.89-16.65l1.92.48c-4,12.81-12.97,22.25-28.33,22.25ZM621.53,400.01h43.54c.32-16.49-6.72-24.97-20.01-24.97-14.73,0-22.09,10.08-23.53,24.97Z"/>
    <path class="cls-3" d="M775.85,376.64v32.82h-2.24c-.96-10.73-3.68-15.21-13.93-15.21h-24.81v34.9c0,10.89,2.08,13.93,19.37,14.73v2.08h-43.22v-2.08c14.09-.64,16.17-4,16.17-14.73v-71.4c0-10.73-2.08-14.41-16.17-15.05v-2.08h65.95c4.96,0,8.32-.32,13.13-.8l.64.96c-2.24,8.64-3.04,17.45.64,27.69l-2.56.96c-5.28-16.65-9.92-24.81-30.58-25.61l-23.37-.96v48.5h24.81c10.25,0,12.97-4.16,13.93-14.73h2.24Z"/>
    <path class="cls-3" d="M842.16,447.71c-5.6,0-10.25-4.16-10.08-14.09-3.04,9.76-11.69,14.89-21.13,14.89-11.69,0-19.05-6.88-19.05-17.29,0-19.05,24.33-24.33,40.18-26.89v-6.72c0-15.37-5.44-22.09-16.33-22.09s-16.17,6.08-21.61,16.01l-1.92-.64c3.52-9.12,12.65-19.37,26.09-19.37,15.85,0,21.77,9.28,21.77,24.97v35.54c0,8.32,2.88,10.4,5.92,10.4,2.4,0,4.48-1.6,6.08-3.84l1.28.96c-2.4,4.32-5.44,8.16-11.21,8.16ZM832.08,421.3v-13.93c-10.88,1.6-32.66,6.24-32.66,22.73,0,7.36,4.64,12.81,13.93,12.81,10.4,0,18.73-8.32,18.73-21.61Z"/>
    <path class="cls-3" d="M860.38,339.02v-2.08c9.77-.32,16.17-3.04,19.05-10.56l1.6.32v107.41c0,7.2,3.68,8.8,12.33,9.44v2.4h-32.98v-2.4c8.8-.64,12.65-2.24,12.65-9.44v-82.92c0-8.32-3.2-11.69-12.65-12.17Z"/>
    <path class="cls-3" d="M902.3,339.02v-2.08c9.76-.32,16.17-3.04,19.05-10.56l1.6.32v107.41c0,7.2,3.68,8.8,12.33,9.44v2.4h-32.98v-2.4c8.8-.64,12.65-2.24,12.65-9.44v-82.92c0-8.32-3.2-11.69-12.65-12.17Z"/>
    <path class="cls-3" d="M993.22,361.91c0-4.8-1.6-7.52-6.08-7.52-3.2,0-6.24.8-10.08,1.76l-1.28-4.64,38.9-13.45,2.72,2.56v87.56c0,9.93,2.56,12.01,14.41,13.13v4.64h-56.19v-4.64c15.05-1.12,17.61-3.2,17.61-13.13v-66.27Z"/>
    <path class="cls-3" d="M1073.11,338.22c29.46,0,40.66,23.37,40.66,49.3,0,33.46-19.21,61.15-55.55,61.15-5.6,0-12.65-1.28-17.45-3.52l1.92-4c4.48,2.08,9.6,3.36,14.89,3.36,19.53,0,27.37-24.01,29.46-46.42-5.76,5.28-13.45,8.16-21.61,8.16-18.89,0-29.13-13.13-29.13-30.58,0-21.29,12.97-37.46,36.82-37.46ZM1073.11,343.02c-8.16,0-11.05,11.37-11.05,26.41,0,16.65,5.28,27.05,14.25,27.05,4.8,0,8.32-1.6,11.21-4.48l.16-7.36c0-21.13-3.84-41.62-14.57-41.62Z"/>
    <path class="cls-3" d="M1158.27,338.22c29.46,0,40.66,23.37,40.66,49.3,0,33.46-19.21,61.15-55.55,61.15-5.6,0-12.65-1.28-17.45-3.52l1.92-4c4.48,2.08,9.6,3.36,14.89,3.36,19.53,0,27.37-24.01,29.46-46.42-5.76,5.28-13.45,8.16-21.61,8.16-18.89,0-29.13-13.13-29.13-30.58,0-21.29,12.97-37.46,36.82-37.46ZM1158.27,343.02c-8.16,0-11.05,11.37-11.05,26.41,0,16.65,5.28,27.05,14.25,27.05,4.8,0,8.32-1.6,11.21-4.48l.16-7.36c0-21.13-3.84-41.62-14.57-41.62Z"/>
    <path class="cls-3" d="M1205.13,421.3c0-13.77,7.52-22.25,16.81-27.21-7.36-6.08-12.49-13.77-12.49-25.45,0-19.69,14.73-30.42,34.9-30.42,18.57,0,31.86,10.57,31.86,25.93,0,10.57-6.24,18.57-14.57,23.53-4.32,2.56-9.6,4.48-14.41,5.28v-1.92c3.84-1.28,6.88-3.52,9.28-6.4l5.12,3.04c10.41,6.56,19.53,14.89,19.53,29.13,0,19.37-14.41,31.7-39.38,31.7-23.37,0-36.66-11.85-36.66-27.21ZM1218.26,420.98c0,14.57,8.96,22.73,23.69,22.73s20.17-6.72,20.17-15.85c0-14.89-20.01-19.85-35.38-30.1l-4.8-3.68c4.8-2.56,10.57-4.32,15.37-5.12v1.92c-3.84,1.28-7.52,3.68-10.56,6.88-4.96,5.28-8.48,13.45-8.48,23.21ZM1229.14,358.71c0,12.33,13.93,18.25,27.37,25.93,4.32-5.12,6.56-12.49,6.56-20.17,0-13.77-5.6-21.61-17.61-21.61-10.25,0-16.33,5.92-16.33,15.85Z"/>
  </g>
  <g>
    <path class="cls-4" d="M130.64,117.9l.32,1.59c-1.75,8.27-1.91,15.9-.48,26.08l-3.82.64c-3.5-19.72-10.81-29.73-26.87-29.73-13.2,0-21.15,6.68-21.15,17.17,0,9.86,5.25,15.42,19.08,20.83l10.65,4.13c18.44,7.15,25.44,18.12,25.44,31.48,0,19.72-14.95,31-35.77,31-10.97,0-21.15-2.23-28.3-5.09l-.95-1.11c.16-8.59-.64-17.81-2.38-27.51l3.82-.64c4.45,20.19,12.56,30.05,28.78,30.05,13.04,0,21.31-7.79,21.31-20.03s-6.84-19.4-19.24-24.01l-9.86-3.5c-17.81-6.52-24.64-15.74-24.64-29.26,0-17.17,13.36-27.82,34.02-27.82,11.61,0,20.99,2.38,30.05,5.72Z"/>
    <path class="cls-4" d="M196.15,221.08c-26.39,0-38.64-14.79-38.64-36.89v-55.17c0-8.43-2.07-10.81-14.15-11.13v-3.98h46.11v3.98c-12.56.32-16.06,2.7-16.06,10.97v56.6c0,17.65,9.22,28.46,28.3,28.46s28.3-10.81,28.3-28.46v-56.6c0-9.06-3.34-10.49-16.22-10.97v-3.98h33.39v3.98c-9.7.48-12.88,1.91-12.88,11.13l.16,55.17c0,22.1-12.24,36.89-38.32,36.89Z"/>
    <path class="cls-4" d="M252.27,118.05v-4.13l44.84-.16c23.85-.16,41.5,6.68,41.5,26.55s-17.97,26.55-41.5,26.55h-14.63v33.87c0,10.33,2.39,12.88,19.24,13.67v4.13h-49.45v-4.13c12.24-.95,14.31-3.34,14.31-13.67v-68.85c0-10.81-2.54-12.88-14.31-13.83ZM294.41,162.73c20.19-.64,26.71-9.38,26.71-22.42s-6.84-22.1-26.71-22.42l-11.92-.32v45.47l11.92-.32Z"/>
    <path class="cls-4" d="M414.77,146.51v36.25h-4.13c-.79-11.92-2.7-16.06-13.04-16.06h-18.44v48.02l29.1-.95c17.49-.48,21.78-7.95,27.82-24.96l3.98.95c-3.98,12.72-5.41,21.31-5.57,28.62l-.95.95c-2.7-.64-6.84-.79-11.29-.79h-73.3v-4.13c12.08-.95,14.31-3.18,14.31-13.99v-68.53c0-10.49-2.23-12.88-14.31-13.83v-4.13h64.71c7,0,11.61-.32,16.06-.8l.95,1.27c-1.75,8.11-1.75,17.81,1.11,28.3l-3.97.95c-5.56-16.85-9.7-24.33-26.87-24.96l-21.78-.79v44.36h18.44c10.33,0,12.24-3.82,13.04-15.74h4.13Z"/>
    <path class="cls-4" d="M525.43,221.08l-45.95-54.22h-5.09v33.55c0,10.81,2.38,13.04,17.33,13.99v4.13h-47.54v-4.13c11.92-.95,14.31-3.18,14.31-13.99v-68.37c0-10.81-2.38-13.04-14.31-13.99v-4.13h46.27c24.17,0,40.07,7.79,40.07,25.76,0,16.22-12.56,24.01-31.96,26.08l42.45,49.13v3.66c-5.09,0-10.65.95-15.58,2.54ZM487.75,162.57c16.54-.64,25.28-7.63,25.28-22.1s-8.59-22.26-26.08-22.58l-12.56-.32v45.47l13.36-.48Z"/>
    <path class="cls-4" d="M598.89,221.08c-31.64,0-52.15-23.21-52.15-54.69s18.13-55.01,51.83-55.01,51.2,21.31,51.2,55.81c0,30.37-16.54,53.9-50.88,53.9ZM600.16,218.06c35.14,0,40.23-27.51,40.39-51.04,0-24.64-10.81-52.63-43.57-52.63s-41.02,23.85-41.02,48.49c-.16,29.1,11.92,55.17,44.2,55.17Z"/>
    <path class="cls-4" d="M736.42,221.4l-49.92-55.17h-7.47v35.93c0,11.45,3.18,13.52,17.49,14.31v2.07h-41.18v-2.07c13.04-.79,16.06-2.86,16.06-14.47v-71.55c0-11.61-3.02-13.67-16.06-14.47v-2.07h41.82c21.31,0,36.09,7.31,36.09,25.44s-13.36,25.76-36.41,26.55l45.63,50.56v2.07c-1.91,0-4.93,1.11-6.04,2.86ZM691.9,163.21c21.94-1.27,32.12-7.95,32.12-23.37s-10.33-22.26-30.37-23.05l-14.63-.48v47.54l12.88-.64Z"/>
    <path class="cls-4" d="M847.24,167.34v1.75l-6.52,1.27v31.8c0,6.36.16,13.52.79,16.38l-1.75.48c-1.91-3.98-2.7-6.52-6.04-6.52-6.52,0-12.88,8.75-35.3,8.59-31.64-.16-51.99-22.58-51.99-55.01,0-30.69,18.29-54.69,55.65-54.69,10.81,0,24.01,1.75,35.62,5.41v1.59c-1.91,7.95-2.38,16.22.32,26.87l-2.07.48c-6.2-23.53-17.97-31.48-35.93-31.48-31.8,0-44.36,26.23-44.36,52.15s12.56,51.83,43.57,51.83c20.67,0,33.87-9.22,33.87-25.6v-21.62l-33.23-1.91v-1.75h47.38Z"/>
    <path class="cls-4" d="M917.2,177.36h-41.34v-.95l-10.65,26.55c-.95,2.54-1.75,4.77-1.75,6.68,0,3.98,3.82,6.36,12.56,6.84v2.07h-28.78v-2.07c8.43-.64,10.97-4.77,13.83-11.77l36.57-90.47h1.59l36.09,87.45c4.93,11.77,8.27,14.31,16.38,14.79v2.07h-33.71v-2.07c7.15-.32,11.29-1.91,11.29-6.84,0-1.91-.48-4.13-1.75-7.15l-10.33-25.12ZM915.93,174.5l-20.03-48.49-19.24,48.49h39.27Z"/>
    <path class="cls-4" d="M965.86,118.69h1.43v1.75l71.07,85.38-.32-79.34c0-8.27-2.7-10.49-17.49-10.65v-1.91h31.48v1.91c-9.06.16-11.13,2.38-11.13,9.06l-.64,83.31.48.48-.48,1.75v8.11h-1.91l-70.91-85.22.48,68.85c0,10.18,2.7,14.15,17.65,14.31v2.07h-34.66v-2.07c12.08-.16,14.15-4.13,14.15-14.31v-71.55l-13.36-16.06.48-.64h9.7l3.98,4.77Z"/>
    <path class="cls-4" d="M1052.51,115.99v-2.07h39.11v2.07c-13.83.79-15.74,3.97-15.74,14.79v70.91c0,10.81,1.91,13.99,15.74,14.79v2.07h-39.11v-2.07c13.83-.79,15.74-4.29,15.74-14.79v-70.91c0-10.49-1.91-13.99-15.74-14.79Z"/>
    <path class="cls-4" d="M1160.95,116.31v1.11c-1.75,7.63-1.59,17.81.32,27.03l-2.23.32c-2.54-20.51-11.77-30.53-27.82-30.53-15.1,0-23.85,7.79-23.85,20.67s6.68,18.76,20.35,23.21l10.65,3.5c17.33,5.56,25.76,15.9,25.76,30.85,0,18.92-13.67,28.62-31.64,28.62-10.65,0-21.15-2.54-29.1-4.77l-.95-1.11c-.16-9.86-1.43-19.87-3.34-28.78l2.07-.16c5.88,20.35,13.2,31.96,31.64,31.96,13.51,0,23.69-8.11,23.69-23.69,0-12.4-6.04-20.83-21.31-25.6l-12.24-3.82c-15.26-4.93-22.74-14.95-22.74-27.51,0-17.81,13.51-26.23,31.48-26.23,8.75,0,19.72,1.43,29.26,4.93Z"/>
    <path class="cls-4" d="M1205.94,216.47v2.07h-36.09v-2.07c13.36-.64,15.42-4.29,15.42-10.97l.64-78.7c-.16-7.31-2.07-10.18-16.06-10.81v-2.07h23.85l45.31,95.24,43.09-94.92v-.16h.16v-.16h24.64v2.07c-14.79.64-16.85,3.66-16.85,10.81v78.7c0,6.84,2.07,10.33,16.85,10.97v2.07h-41.66v-2.07c14.47-.64,16.85-4.13,16.85-10.97v-81.72l-44.52,94.76h-2.54l-46.11-94.44.32,81.41c0,6.84,2.7,10.33,16.7,10.97Z"/>
  </g>
  <g>
    <path class="cls-1" d="M207.7,630.18v1.75l-6.52,1.27v31.8c0,6.36.16,13.51.79,16.38l-1.75.48c-1.91-3.97-2.7-6.52-6.04-6.52-6.52,0-12.88,8.74-35.3,8.59-31.64-.16-51.99-22.58-51.99-55.01,0-30.69,18.29-54.69,55.65-54.69,10.81,0,24.01,1.75,35.62,5.41v1.59c-1.91,7.95-2.38,16.22.32,26.87l-2.07.48c-6.2-23.53-17.97-31.48-35.93-31.48-31.8,0-44.36,26.23-44.36,52.15s12.56,51.83,43.57,51.83c20.67,0,33.87-9.22,33.87-25.6v-21.62l-33.23-1.91v-1.75h47.38Z"/>
    <path class="cls-1" d="M279.75,640.19h-41.34v-.95l-10.65,26.55c-.95,2.54-1.75,4.77-1.75,6.68,0,3.97,3.81,6.36,12.56,6.84v2.07h-28.78v-2.07c8.43-.64,10.97-4.77,13.83-11.77l36.57-90.47h1.59l36.09,87.45c4.93,11.77,8.27,14.31,16.38,14.79v2.07h-33.71v-2.07c7.15-.32,11.29-1.91,11.29-6.84,0-1.91-.48-4.13-1.75-7.15l-10.33-25.12ZM278.48,637.33l-20.03-48.49-19.24,48.49h39.27Z"/>
    <path class="cls-1" d="M319.05,578.82v-2.07h39.11v2.07c-13.83.79-15.74,3.98-15.74,14.79v70.91c0,10.81,1.91,13.99,15.74,14.79v2.07h-39.11v-2.07c13.83-.79,15.74-4.29,15.74-14.79v-70.91c0-10.49-1.91-13.99-15.74-14.79Z"/>
    <path class="cls-1" d="M432.59,640.19h-41.34v-.95l-10.65,26.55c-.95,2.54-1.75,4.77-1.75,6.68,0,3.97,3.81,6.36,12.56,6.84v2.07h-28.78v-2.07c8.43-.64,10.97-4.77,13.83-11.77l36.57-90.47h1.59l36.09,87.45c4.93,11.77,8.27,14.31,16.38,14.79v2.07h-33.71v-2.07c7.15-.32,11.29-1.91,11.29-6.84,0-1.91-.48-4.13-1.75-7.15l-10.33-25.12ZM431.32,637.33l-20.03-48.49-19.24,48.49h39.27Z"/>
    <path class="cls-1" d="M557.41,683.92c-32.44,0-53.58-22.26-53.58-54.38s21.62-55.33,63.44-55.33c10.97,0,25.28,2.23,34.98,5.41v2.54c-2.38,8.11-2.38,18.13,0,29.41l-4.93.95c-3.66-16.85-11.77-32.75-31.96-32.75-24.17,0-35.14,18.29-35.14,43.88,0,29.26,13.99,49.93,37.84,49.93,19.87,0,28.62-13.04,33.39-27.82l5.41.95c-4.61,18.13-17.33,37.21-49.45,37.21Z"/>
    <path class="cls-1" d="M669.15,683.92c-38.48,0-57.88-22.58-57.88-54.22s18.6-55.49,57.88-55.49,57.88,23.85,57.88,55.49-19.4,54.22-57.88,54.22ZM670.74,678.35c20.19,0,29.89-15.9,29.89-43.09,0-23.21-4.13-55.49-31.8-55.49-22.9,0-31.16,17.97-31.16,44.36s7.16,54.22,33.07,54.22Z"/>
    <path class="cls-1" d="M764.38,676.76v4.61h-36.41v-4.61c12.08-1.11,14.15-3.34,14.31-12.72l1.11-68.37c.16-10.33-1.75-13.51-14.63-14.31v-4.61h40.54l32.75,72.98,32.59-72.98h38.32v4.61c-12.08.79-14.31,3.98-14.31,14.31v68.37c0,9.38,2.22,11.61,14.31,12.72v4.61h-52.63v-4.61c11.77-1.11,14.31-3.34,14.31-12.72v-73.62l-42.29,90.95h-2.54l-41.82-90.63.48,73.3c0,9.38,2.23,11.61,15.9,12.72Z"/>
    <path class="cls-1" d="M878.81,581.36v-4.61h49.77c24.8,0,45.15,4.93,45.15,26.39s-20.35,26.55-45.15,26.39l-11.45-.16v36.41c0,6.68,2.7,10.81,19.56,10.97v4.61h-57.88v-4.77c12.08-.64,14.31-4.13,14.31-10.81v-73.3c0-8.74-4.77-10.18-14.31-11.13ZM925.87,624.93c15.9-.48,21.46-9.38,21.46-21.78s-5.56-21.15-21.46-21.78l-8.74-.32v44.2l8.74-.32Z"/>
    <path class="cls-1" d="M1061.13,647.83l4.45,1.11c-4.13,13.67-6.52,25.44-7.16,33.39l-.95.64c-3.97-1.43-8.43-1.59-16.54-1.59h-66.62v-4.61c12.08-.95,14.31-4.13,14.31-12.08v-72.5c0-7.16-3.82-10.18-14.31-10.81v-4.61h54.38v4.61c-13.36.64-16.06,1.91-16.06,10.97v85.22l17.33-1.11c18.6-1.27,24.48-8.59,31.16-28.62Z"/>
    <path class="cls-1" d="M1135.48,608.71v36.09h-4.61c-.64-11.13-2.86-15.42-13.04-15.42h-13.2v47.86l18.28-.64c20.83-.79,26.71-8.74,33.39-28.78l4.45,1.11c-4.13,13.67-6.52,24.49-7.15,31.8l-.96.64h-86.33v-4.61c12.08-.95,14.31-3.97,14.31-12.4v-70.91c0-7.95-2.22-11.13-14.31-12.08v-4.61h85.22l1.43,1.91c-2.7,8.9-2.7,19.08-.16,29.89l-5.09.95c-3.66-19.24-8.74-27.35-26.71-27.98l-16.38-.64v42.93h13.2c10.18,0,12.4-3.97,13.04-15.1h4.61Z"/>
    <path class="cls-1" d="M1160.52,581.52v-4.77h54.54v4.77c-7,.64-9.86,3.34-9.86,7.16,0,2.54,1.11,5.41,3.02,8.27l13.83,21.46,15.58-22.1c2.23-3.18,3.66-5.57,3.66-7.95,0-3.82-3.34-6.52-10.97-6.84v-4.77h32.75v4.77c-6.52.64-11.45,4.93-17.65,13.51l-20.35,28.3,27.51,43.88c4.45,7,6.68,8.27,12.24,9.38v4.77h-53.26v-4.77c11.29-.64,12.56-3.82,12.56-6.04,0-1.91-.79-3.5-2.54-6.36l-15.58-24.8-16.06,21.46c-2.38,3.18-3.97,5.88-3.97,8.74,0,3.82,2.7,6.36,10.97,7v4.77h-35.14v-4.77c7.31-1.43,12.72-4.29,20.99-15.42l20.03-26.71-26.23-41.34c-5.88-9.22-9.86-11.13-16.06-11.61Z"/>
  </g>
</svg>