<?xml version="1.0" encoding="UTF-8"?>
<svg id="Layer_1" data-name="Layer 1" xmlns="http://www.w3.org/2000/svg" xmlns:xlink="http://www.w3.org/1999/xlink" viewBox="0 0 1366 768">
  <defs>
    <style>
      .cls-1 {
        fill: #b9cae6;
      }

      .cls-2 {
        fill: #12100b;
      }

      .cls-3 {
        clip-path: url(#clippath);
      }
    </style>
    <clipPath id="clippath">
      <rect class="cls-1" x="-10.04" y="-10.09" width="1386" height="788"/>
    </clipPath>
  </defs>
  <g>
    <rect class="cls-1" x="-10.04" y="-10.09" width="1386" height="788"/>
    <g class="cls-3">
      <rect class="cls-1" x="-.39" y="-3.34" width="1366.71" height="779.89"/>
    </g>
  </g>
  <g>
    <path class="cls-2" d="M402.57,55.42h32.7c8.34,0,14.74,1.7,19.2,5.1,4.46,3.4,6.69,7.96,6.69,13.66,0,3.95-1.04,7.39-3.13,10.31-2.08,2.93-5.4,5.05-9.93,6.36,5.56,1.25,9.56,3.37,12.01,6.36,2.45,3,3.68,6.84,3.68,11.52,0,3.8-.99,7.32-2.96,10.53-1.98,3.22-4.94,5.8-8.89,7.74-3.95,1.94-8.78,2.91-14.48,2.91h-34.89V55.42ZM431.32,85.15c2.71,0,4.75-.71,6.14-2.14,1.39-1.43,2.08-3.35,2.08-5.76s-.7-4.32-2.08-5.71c-1.39-1.39-3.44-2.08-6.14-2.08h-7.68v15.69h7.68ZM439.66,113.57c1.61-1.46,2.41-3.58,2.41-6.36s-.82-4.79-2.47-6.25c-1.65-1.46-3.97-2.2-6.97-2.2h-9v17.01h9c3.07,0,5.41-.73,7.02-2.19Z"/>
    <path class="cls-2" d="M509.11,114.88h16.9v15.03h-53.98v-15.03h17.01v-49.04h-15.36v-14.92h35.44v63.97Z"/>
    <path class="cls-2" d="M576.26,123c-4.39,5.49-10.28,8.23-17.67,8.23-4.17,0-7.81-.73-10.92-2.19-3.11-1.46-5.49-3.47-7.13-6.04-1.65-2.56-2.47-5.45-2.47-8.67,0-5.05,1.76-9.12,5.27-12.23,3.51-3.11,8.81-5.03,15.91-5.76l15.03-1.43v-3.07c0-2.27-.64-4.02-1.92-5.27-1.28-1.24-3.13-1.87-5.54-1.87-4.68,0-7.46,1.97-8.34,5.92h-19.42c.66-5.92,3.31-10.53,7.95-13.82,4.64-3.29,11.21-4.94,19.69-4.94,9.22,0,16.06,1.87,20.52,5.6,4.46,3.73,6.69,9.11,6.69,16.13v36.32h-17.66v-6.91ZM559.63,117.74c1.28,1.1,3.05,1.64,5.32,1.64,2.85,0,5.06-.91,6.64-2.74,1.57-1.83,2.36-4.21,2.36-7.13v-4.61l-8.01,1.1c-5.49.73-8.23,3.15-8.23,7.24,0,1.9.64,3.4,1.92,4.5Z"/>
    <path class="cls-2" d="M618.99,127.56c-4.57-2.45-8.12-5.92-10.64-10.42-2.52-4.5-3.79-9.67-3.79-15.53s1.26-11.03,3.79-15.53,6.07-7.99,10.64-10.48c4.57-2.49,9.82-3.73,15.75-3.73,8.56,0,15.2,1.94,19.91,5.82,4.72,3.88,7.66,9.14,8.83,15.8h-19.53c-.73-2.71-1.85-4.63-3.35-5.76-1.5-1.13-3.35-1.7-5.54-1.7-3.15,0-5.63,1.28-7.46,3.84-1.83,2.56-2.74,6.44-2.74,11.63s.91,9,2.74,11.63c1.83,2.63,4.32,3.95,7.46,3.95,2.19,0,4.02-.57,5.49-1.7,1.46-1.13,2.6-3.09,3.4-5.87h19.42c-1.17,6.88-4.11,12.22-8.83,16.02-4.72,3.8-11.32,5.71-19.8,5.71-5.92,0-11.17-1.22-15.75-3.67Z"/>
    <path class="cls-2" d="M693.65,104.46v25.45h-20.08V50.92h20.08v41.69l16.79-19.42h21.94l-21.61,24.69,22.16,32.04h-22.71l-16.57-25.45Z"/>
  </g>
  <g>
    <path class="cls-2" d="M808.86,129.91h-18.65v-31.05h-19.75v31.05h-18.65V55.42h18.65v28.31h19.75v-28.31h18.65v74.5Z"/>
    <path class="cls-2" d="M832.39,127.5c-4.5-2.49-7.9-5.96-10.2-10.42-2.3-4.46-3.46-9.55-3.46-15.25s1.21-10.93,3.62-15.47c2.41-4.53,5.82-8.08,10.2-10.64,4.39-2.56,9.51-3.84,15.36-3.84s11.19,1.32,15.58,3.95c4.39,2.63,7.73,6.27,10.04,10.92,2.3,4.65,3.38,9.93,3.24,15.85l-.11,3.62h-39.17c.95,8.05,4.64,12.07,11.08,12.07,4.39,0,7.39-1.65,9-4.94h17.77c-1.39,5.27-4.48,9.56-9.27,12.89-4.79,3.33-10.63,4.99-17.5,4.99-6.29,0-11.69-1.24-16.18-3.73ZM858.45,95.57c-.37-3.22-1.41-5.8-3.13-7.73-1.72-1.94-4.08-2.91-7.08-2.91-2.63,0-4.87.9-6.69,2.69-1.83,1.79-3.07,4.44-3.73,7.96h20.63Z"/>
    <path class="cls-2" d="M925.92,123c-4.1,5.49-9.98,8.23-17.67,8.23-4.24,0-7.94-.73-11.08-2.19-3.15-1.46-5.58-3.49-7.3-6.09-1.72-2.6-2.58-5.5-2.58-8.72,0-10.53,6.95-16.49,20.85-17.88l15.91-1.54v-2.52c0-2.56-.73-4.54-2.19-5.93-1.46-1.39-3.51-2.08-6.14-2.08s-4.68.53-6.14,1.59c-1.46,1.06-2.49,2.65-3.07,4.77h-18.1c.8-6.07,3.49-10.71,8.06-13.93,4.57-3.22,10.92-4.83,19.04-4.83,8.56,0,15.1,1.77,19.64,5.32,4.53,3.55,6.8,8.98,6.8,16.29v36.43h-16.02v-6.91ZM907.87,118.28c1.35,1.17,3.24,1.76,5.65,1.76,3.36,0,5.92-1.1,7.68-3.29,1.76-2.19,2.63-5.16,2.63-8.89v-3.07l-9.87,1.32c-5.41.73-8.12,3.22-8.12,7.46,0,1.97.67,3.55,2.03,4.72Z"/>
    <path class="cls-2" d="M951.16,73.19h19.86l10.75,36.87,9.76-36.87h19.53l-18.65,56.72h-21.72l-19.53-56.72Z"/>
    <path class="cls-2" d="M1046.28,150.54h-18.98l11.63-26.55-21.83-50.8h19.2l12.51,31.05,12.07-31.05h18.1l-32.7,77.35Z"/>
  </g>
  <g>
    <path class="cls-2" d="M66.07,125.03c-5.19-4.13-8.12-9.97-8.78-17.5h22.16c.22,2.63,1.17,4.68,2.85,6.14,1.68,1.46,3.91,2.2,6.69,2.2,2.49,0,4.39-.64,5.71-1.92,1.32-1.28,1.97-2.87,1.97-4.77,0-1.46-.48-2.69-1.43-3.68-.95-.99-2.52-1.74-4.72-2.25l-12.84-3.18c-6.73-1.68-11.72-4.29-14.98-7.84-3.26-3.55-4.88-8.25-4.88-14.1,0-4.39,1.11-8.41,3.35-12.07,2.23-3.66,5.61-6.56,10.15-8.72,4.53-2.16,10.06-3.24,16.57-3.24,8.92,0,16.04,2.05,21.34,6.14,5.3,4.1,8.28,9.62,8.94,16.57h-21.94c-.88-4.97-3.66-7.46-8.34-7.46-2.34,0-4.17.59-5.49,1.76-1.32,1.17-1.98,2.67-1.98,4.5,0,3.15,1.94,5.16,5.81,6.04l13.28,3.29c6.51,1.54,11.34,4.12,14.48,7.74,3.14,3.62,4.72,8.25,4.72,13.88,0,7.46-2.4,13.44-7.19,17.94-4.79,4.5-12.2,6.75-22.22,6.75s-18.07-2.06-23.26-6.2Z"/>
    <path class="cls-2" d="M150.06,114.66c1.06,1.17,2.61,1.75,4.66,1.75,2.27,0,4.08-.91,5.43-2.74,1.35-1.83,2.03-4.24,2.03-7.24v-33.25h21.72v56.72h-19.31v-8.34c-3.73,6.44-9.55,9.65-17.45,9.65-6.44,0-11.45-1.74-15.03-5.21-3.58-3.47-5.38-8.76-5.38-15.85v-36.98h21.72v36.65c0,2.05.53,3.66,1.59,4.83Z"/>
    <path class="cls-2" d="M215.29,122.23v28.31h-21.72v-77.35h20.41v10.31c3.29-7.75,9.25-11.63,17.88-11.63,4.17,0,7.97,1.23,11.41,3.68,3.44,2.45,6.18,5.92,8.23,10.42,2.05,4.5,3.07,9.71,3.07,15.63s-1.06,11.23-3.18,15.69c-2.12,4.46-4.96,7.9-8.5,10.31-3.55,2.41-7.41,3.62-11.58,3.62-7.17,0-12.51-3-16.02-9ZM217.76,112.52c1.65,2.3,3.9,3.46,6.75,3.46,2.63,0,4.72-1.15,6.25-3.46,1.54-2.3,2.3-5.98,2.3-11.03s-.75-8.61-2.25-10.92c-1.5-2.3-3.57-3.46-6.2-3.46-2.85,0-5.12,1.15-6.8,3.46-1.68,2.3-2.52,5.94-2.52,10.92s.82,8.72,2.47,11.03Z"/>
    <path class="cls-2" d="M275.69,127.5c-4.65-2.49-8.17-5.98-10.59-10.48-2.41-4.5-3.62-9.71-3.62-15.63,0-5.56,1.19-10.57,3.57-15.03,2.38-4.46,5.87-7.99,10.48-10.59,4.61-2.59,10.17-3.89,16.68-3.89s11.74,1.34,16.13,4c4.39,2.67,7.68,6.24,9.87,10.7,2.19,4.46,3.29,9.4,3.29,14.81,0,1.83-.07,3.44-.22,4.83h-37.85c.8,7.97,3.91,11.96,9.33,11.96,1.68,0,3.07-.38,4.17-1.15s2.01-1.99,2.74-3.67h19.86c-1.46,5.56-4.55,9.93-9.27,13.11-4.72,3.18-10.74,4.77-18.05,4.77-6.36,0-11.87-1.24-16.51-3.73ZM300.1,96.01c-.22-3.66-.97-6.42-2.25-8.28-1.28-1.87-3.16-2.8-5.65-2.8-4.9,0-7.79,3.69-8.67,11.08h16.57Z"/>
    <path class="cls-2" d="M353.64,84.71c1.83-3.95,4.75-6.95,8.78-9,4.02-2.05,8.59-3.07,13.71-3.07,3.36,0,6.47.26,9.33.77v18.87c-3.37-.51-7.1-.77-11.19-.77-5.92,0-10.37,1.13-13.33,3.4-2.96,2.27-4.44,5.96-4.44,11.08v23.92h-21.72v-56.72h18.87v11.52Z"/>
  </g>
  <g>
    <path class="cls-2" d="M395.3,244.61h-10.86v-59.58l-11.08,59.58h-11.41l-11.08-59.58v59.58h-10.86v-74.5h17.34l10.31,56.07,10.31-56.07h17.34v74.5Z"/>
    <path class="cls-2" d="M420.09,242.25c-4.32-2.45-7.61-5.89-9.87-10.31-2.27-4.42-3.4-9.53-3.4-15.31s1.17-11.15,3.51-15.69c2.34-4.53,5.65-8.06,9.93-10.59,4.28-2.52,9.16-3.79,14.65-3.79,5.78,0,10.75,1.26,14.92,3.79s7.33,6.09,9.49,10.7c2.16,4.61,3.2,9.95,3.13,16.02l-.11,3.29h-40.38c.44,4.98,1.87,8.65,4.28,11.03,2.41,2.38,5.49,3.57,9.22,3.57,5.71,0,9.47-2.3,11.3-6.91h14.48c-1.32,5.27-4.22,9.56-8.72,12.89-4.5,3.33-10.11,4.99-16.84,4.99-6.07,0-11.27-1.22-15.58-3.67ZM447.63,210.92c-.29-4.24-1.54-7.53-3.73-9.88-2.19-2.34-5.12-3.51-8.78-3.51-3.37,0-6.18,1.13-8.45,3.4-2.27,2.27-3.77,5.6-4.5,9.98h25.45Z"/>
    <path class="cls-2" d="M483.95,242.36c-3.95-2.38-7.1-5.8-9.44-10.26-2.34-4.46-3.51-9.73-3.51-15.8s1.13-11.47,3.4-15.96c2.27-4.5,5.32-7.92,9.16-10.26,3.84-2.34,8.06-3.51,12.67-3.51,7.75,0,13.68,2.74,17.77,8.23v-29.18h14.59v79h-13.17v-9.33c-3.73,7.1-9.91,10.64-18.54,10.64-4.68,0-9-1.19-12.95-3.56ZM489.93,229.36c2.6,3.29,5.98,4.94,10.15,4.94s7.44-1.63,10.04-4.88c2.6-3.25,3.9-7.62,3.9-13.11s-1.3-9.78-3.9-13.11c-2.6-3.33-5.94-4.99-10.04-4.99s-7.64,1.65-10.2,4.94c-2.56,3.29-3.84,7.68-3.84,13.17s1.3,9.76,3.9,13.06Z"/>
    <path class="cls-2" d="M541.77,232.65h18.21v-32.81h-15.25v-11.96h29.73v44.77h17.99v11.96h-50.69v-11.96ZM561.03,176.03c-1.65-1.68-2.47-3.69-2.47-6.03s.82-4.44,2.47-6.09c1.65-1.65,3.75-2.47,6.31-2.47s4.55.82,6.2,2.47c1.65,1.65,2.47,3.68,2.47,6.09s-.82,4.35-2.47,6.03c-1.65,1.68-3.71,2.52-6.2,2.52s-4.66-.84-6.31-2.52Z"/>
    <path class="cls-2" d="M624.28,231.06c1.68,1.87,4.09,2.8,7.24,2.8,3.58,0,6.45-1.17,8.61-3.51,2.16-2.34,3.24-5.45,3.24-9.33v-33.14h14.59v56.72h-13.06v-8.45c-1.9,3.14-4.35,5.56-7.35,7.24-3,1.68-6.4,2.52-10.2,2.52-6.36,0-11.3-1.79-14.81-5.38s-5.27-8.74-5.27-15.47v-37.2h14.48v35.22c0,3.44.84,6.09,2.52,7.95Z"/>
    <path class="cls-2" d="M716.11,200.61c-.81-1.24-2.12-1.87-3.95-1.87s-3.2.64-4.11,1.92c-.92,1.28-1.37,3.05-1.37,5.32v38.62h-12.73v-38.4c0-2.49-.4-4.35-1.21-5.6-.81-1.24-2.12-1.87-3.95-1.87s-3.09.64-4,1.92c-.92,1.28-1.37,3.05-1.37,5.32v38.62h-12.73v-56.72h10.75v5.6c2.49-4.61,6.4-6.91,11.74-6.91s9,2.27,11.19,6.8c2.78-4.54,6.76-6.8,11.96-6.8,4.75,0,8.23,1.63,10.42,4.88,2.19,3.26,3.29,7.62,3.29,13.11v40.05h-12.73v-38.4c0-2.49-.4-4.35-1.21-5.6Z"/>
  </g>
  <g>
    <path class="cls-2" d="M807.52,244.61h-14.81l-26.88-52.01v52.01h-12.95v-74.5h14.81l26.88,51.79v-51.79h12.95v74.5Z"/>
    <path class="cls-2" d="M832.75,242.25c-4.32-2.45-7.59-5.87-9.82-10.26-2.23-4.39-3.35-9.47-3.35-15.25s1.17-11.28,3.51-15.85c2.34-4.57,5.61-8.1,9.82-10.59,4.21-2.49,8.98-3.73,14.32-3.73,8.56,0,15.2,2.69,19.91,8.06,4.72,5.38,7.08,12.6,7.08,21.67l-.11,3.84h-40.82c.44,5.19,1.96,9.09,4.55,11.69,2.6,2.6,5.87,3.89,9.82,3.89,3.29,0,5.96-.68,8.01-2.03,2.05-1.35,3.51-3.24,4.39-5.65h13.06c-1.25,5.27-4.06,9.56-8.45,12.89-4.39,3.33-9.91,4.99-16.57,4.99-5.92,0-11.05-1.22-15.36-3.67ZM860.95,211.25c-.37-4.75-1.74-8.38-4.11-10.86-2.38-2.49-5.54-3.73-9.49-3.73-3.58,0-6.6,1.25-9.05,3.73-2.45,2.49-4.04,6.11-4.77,10.86h27.43Z"/>
    <path class="cls-2" d="M902.42,231.93c1.83,2.01,4.42,3.02,7.79,3.02,3.88,0,6.95-1.26,9.22-3.79,2.27-2.52,3.4-5.91,3.4-10.15v-33.14h13.06v56.72h-11.74v-8.34c-1.9,3.15-4.33,5.54-7.3,7.19-2.96,1.65-6.42,2.47-10.37,2.47-6.29,0-11.17-1.79-14.65-5.38-3.47-3.58-5.21-8.74-5.21-15.47v-37.2h13.06v35.55c0,3.66.91,6.49,2.74,8.5Z"/>
    <path class="cls-2" d="M984.44,232.1c1.65,1.32,4.62,1.97,8.94,1.97,4.61,0,8.78-.33,12.51-.99v10.75c-4.68.95-9.8,1.43-15.36,1.43-7.75,0-13.29-1.57-16.62-4.72-3.33-3.14-4.99-8.08-4.99-14.81v-26.99h-16.24v-10.86h16.24v-16.02h13.06v16.02h23.92v10.86h-23.92v25.67c0,3.8.82,6.36,2.47,7.68Z"/>
    <path class="cls-2" d="M1037.81,199.62c1.61-3.8,4.28-6.8,8.01-9s8.56-3.29,14.48-3.29c4.31,0,7.5.26,9.54.77v12.29c-3.44-.37-6.88-.55-10.31-.55-7.32,0-12.58,1.25-15.8,3.73-3.22,2.49-4.83,6.36-4.83,11.63v29.4h-13.06v-56.72h11.96v11.74Z"/>
    <path class="cls-2" d="M1124.93,237.14c-4.32,5.85-10.39,8.78-18.21,8.78-4.1,0-7.74-.73-10.92-2.19-3.18-1.46-5.65-3.47-7.41-6.04-1.76-2.56-2.63-5.45-2.63-8.67,0-10.24,6.8-16.09,20.41-17.55l17.67-1.76v-3.29c0-3.36-.97-5.89-2.91-7.57-1.94-1.68-4.66-2.52-8.17-2.52-3.8,0-6.73.71-8.78,2.14-2.05,1.43-3.33,3.71-3.84,6.86h-13.06c.73-6.14,3.29-10.81,7.68-13.99,4.39-3.18,10.35-4.77,17.88-4.77s13.53,1.7,17.77,5.1c4.24,3.4,6.36,8.54,6.36,15.42v37.52h-11.85v-7.46ZM1102.22,234.4c1.9,1.54,4.5,2.3,7.79,2.3,4.32,0,7.68-1.3,10.09-3.9,2.41-2.59,3.62-6.05,3.62-10.37v-4.61l-14.04,1.76c-3.66.51-6.29,1.5-7.9,2.96-1.61,1.46-2.41,3.47-2.41,6.03,0,2.34.95,4.28,2.85,5.82Z"/>
    <path class="cls-2" d="M1184.39,233.74h17.99v10.86h-49.15v-10.86h18.1v-57.27h-16.57v-10.86h29.62v68.14Z"/>
  </g>
  <g>
    <path class="cls-2" d="M59.38,170.11h30.94c8.41,0,14.77,1.72,19.09,5.16,4.31,3.44,6.47,8.01,6.47,13.71,0,3.95-.92,7.33-2.74,10.15-1.83,2.82-4.68,4.85-8.56,6.09,5.05,1.24,8.7,3.37,10.97,6.36,2.27,3,3.4,6.8,3.4,11.41,0,4.1-.97,7.77-2.91,11.03-1.94,3.26-4.88,5.83-8.83,7.74s-8.82,2.85-14.59,2.85h-33.24v-74.5ZM88.89,200.28c3.14,0,5.58-.79,7.3-2.36,1.72-1.57,2.58-3.71,2.58-6.42,0-2.56-.86-4.62-2.58-6.2-1.72-1.57-4.15-2.36-7.3-2.36h-12.73v17.34h12.73ZM98.66,229.36c1.98-1.61,2.96-3.99,2.96-7.13s-.99-5.39-2.96-6.97c-1.98-1.57-4.76-2.36-8.34-2.36h-14.15v18.87h14.15c3.58,0,6.36-.8,8.34-2.41Z"/>
    <path class="cls-2" d="M139.09,242.3c-4.5-2.41-8.05-5.85-10.64-10.31-2.6-4.46-3.9-9.69-3.9-15.69s1.3-11.25,3.9-15.75c2.6-4.5,6.14-7.95,10.64-10.37s9.53-3.62,15.09-3.62,10.59,1.21,15.09,3.62,8.05,5.87,10.64,10.37c2.6,4.5,3.9,9.75,3.9,15.75s-1.3,11.23-3.9,15.69c-2.6,4.46-6.14,7.9-10.64,10.31-4.5,2.41-9.53,3.62-15.09,3.62s-10.59-1.21-15.09-3.62ZM163.5,228.53c2.34-2.96,3.51-7.04,3.51-12.23s-1.17-9.29-3.51-12.29c-2.34-3-5.45-4.5-9.33-4.5s-6.99,1.5-9.33,4.5c-2.34,3-3.51,7.1-3.51,12.29s1.17,9.27,3.51,12.23c2.34,2.96,5.45,4.44,9.33,4.44s6.98-1.48,9.33-4.44Z"/>
    <path class="cls-2" d="M229.11,231.33h17.88v13.28h-52.23v-13.28h17.99v-52.56h-16.02v-13.28h22.38v.11h9.98v65.72Z"/>
    <path class="cls-2" d="M270.25,242.36c-3.95-2.38-7.11-5.8-9.49-10.26-2.38-4.46-3.57-9.73-3.57-15.8s1.13-11.58,3.4-16.07c2.27-4.5,5.32-7.9,9.16-10.2,3.84-2.3,8.06-3.46,12.67-3.46,7.46,0,13.2,2.52,17.23,7.57v-28.53h16.35v79h-14.59v-8.89c-3.58,6.8-9.69,10.2-18.32,10.2-4.61,0-8.89-1.19-12.84-3.56ZM277.5,228.48c2.41,3.07,5.52,4.61,9.33,4.61s6.98-1.52,9.33-4.55c2.34-3.03,3.51-7.11,3.51-12.23s-1.17-9.22-3.51-12.29c-2.34-3.07-5.45-4.61-9.33-4.61s-7,1.54-9.38,4.61c-2.38,3.07-3.57,7.17-3.57,12.29s1.21,9.11,3.62,12.18Z"/>
  </g>
  <g>
    <path class="cls-2" d="M588.05,356.55h-11.3l-32.59-60.89v60.89h-8.78v-74.5h11.3l32.59,60.79v-60.79h8.78v74.5Z"/>
    <path class="cls-2" d="M613.62,354.19c-4.1-2.45-7.24-5.91-9.44-10.37-2.19-4.46-3.29-9.62-3.29-15.47s1.1-11.14,3.29-15.63,5.34-7.99,9.44-10.48c4.1-2.49,8.89-3.73,14.37-3.73s10.38,1.25,14.48,3.73c4.1,2.49,7.24,5.96,9.44,10.42,2.19,4.46,3.29,9.66,3.29,15.58s-1.1,11.01-3.29,15.47c-2.19,4.46-5.34,7.94-9.44,10.42-4.1,2.49-8.89,3.73-14.37,3.73s-10.39-1.23-14.48-3.68ZM641.05,343.98c3.22-4.06,4.83-9.31,4.83-15.75s-1.59-11.79-4.77-15.85c-3.18-4.06-7.55-6.09-13.11-6.09s-9.82,2.05-13,6.14c-3.18,4.1-4.77,9.4-4.77,15.91s1.61,11.58,4.83,15.63c3.22,4.06,7.57,6.09,13.06,6.09s9.73-2.03,12.95-6.09Z"/>
    <path class="cls-2" d="M685.48,310.46c3.29-7.53,10.79-11.3,22.49-11.3,4.83,0,8.23.29,10.2.88v8.56c-3.58-.51-7.32-.77-11.19-.77-7.9,0-13.4,1.33-16.51,4-3.11,2.67-4.66,6.79-4.66,12.34v32.37h-8.78v-56.72h8.45v10.64Z"/>
    <path class="cls-2" d="M780.28,309.42c-1.25-2.01-3.29-3.02-6.14-3.02s-4.94,1.03-6.47,3.07c-1.54,2.05-2.3,4.9-2.3,8.56v38.51h-8.56v-37.96c0-4.1-.62-7.15-1.87-9.16-1.24-2.01-3.29-3.02-6.14-3.02s-4.94,1.03-6.47,3.07c-1.54,2.05-2.3,4.9-2.3,8.56v38.51h-8.56v-56.72h7.13v6.25c2.49-5.05,6.51-7.57,12.07-7.57s9.91,2.38,12.4,7.13c1.39-2.19,3.16-3.93,5.32-5.21,2.16-1.28,4.59-1.92,7.3-1.92,4.97,0,8.72,1.65,11.25,4.94s3.79,7.9,3.79,13.83v39.28h-8.56v-37.96c0-4.1-.62-7.15-1.87-9.16Z"/>
    <path class="cls-2" d="M841.61,348.64c-4.54,6.14-10.79,9.22-18.76,9.22-3.95,0-7.52-.71-10.7-2.14-3.18-1.43-5.67-3.42-7.46-5.98-1.79-2.56-2.69-5.49-2.69-8.78,0-10.02,6.69-15.73,20.08-17.12l19.09-1.97v-4.06c0-4.02-1.19-7-3.57-8.94-2.38-1.94-5.65-2.91-9.82-2.91-4.76,0-8.41.9-10.97,2.69-2.56,1.79-4.1,4.66-4.61,8.61h-8.78c.73-6.14,3.2-10.81,7.41-13.99,4.21-3.18,9.86-4.77,16.95-4.77s12.18,1.63,16.13,4.88c3.95,3.25,5.92,8.17,5.92,14.76v38.4h-8.23v-7.9ZM814.78,347.66c2.3,1.83,5.54,2.74,9.71,2.74,5.12,0,9.16-1.46,12.12-4.39,2.96-2.92,4.44-6.84,4.44-11.74v-5.92l-17.45,2.19c-4.46.59-7.62,1.72-9.49,3.4-1.87,1.68-2.8,3.95-2.8,6.8s1.15,5.08,3.46,6.91Z"/>
    <path class="cls-2" d="M897.45,348.86h18.21v7.68h-45.2v-7.68h18.21v-63.64h-17.12v-7.68h25.89v71.32Z"/>
  </g>
  <g>
    <path class="cls-2" d="M933.2,282.05h26.66c8.19,0,14.32,1.68,18.38,5.05,4.06,3.37,6.09,8.05,6.09,14.04,0,4.24-1.28,7.88-3.84,10.92-2.56,3.04-5.81,4.99-9.76,5.87,5.19.66,9.33,2.56,12.4,5.71,3.07,3.15,4.61,7.1,4.61,11.85,0,14.04-8.93,21.07-26.77,21.07h-27.76v-74.5ZM959.75,315.07c4.97,0,8.94-1.15,11.9-3.46,2.96-2.3,4.44-5.65,4.44-10.04s-1.5-7.35-4.5-9.55c-3-2.19-7.13-3.29-12.4-3.29h-18.1v26.33h18.65ZM974.18,346.62c3.47-2.16,5.21-5.87,5.21-11.14,0-4.68-1.7-8.12-5.1-10.31s-8.06-3.29-13.99-3.29h-19.2v27.98h18.43c6.29,0,11.17-1.08,14.65-3.24Z"/>
    <path class="cls-2" d="M1011.43,354.19c-4.02-2.45-7.11-5.91-9.27-10.37-2.16-4.46-3.24-9.62-3.24-15.47s1.08-11.04,3.24-15.58c2.16-4.53,5.25-8.05,9.27-10.53,4.02-2.49,8.74-3.73,14.15-3.73s10.24,1.25,14.26,3.73c4.02,2.49,7.11,5.98,9.27,10.48,2.16,4.5,3.24,9.67,3.24,15.52s-1.08,11.01-3.24,15.47c-2.16,4.46-5.25,7.94-9.27,10.42-4.02,2.49-8.74,3.73-14.15,3.73s-10.24-1.23-14.26-3.68ZM1039.3,344.75c3.36-4.28,5.05-9.78,5.05-16.51s-1.68-12.34-5.05-16.62c-3.37-4.28-7.94-6.42-13.71-6.42s-10.33,2.16-13.66,6.47c-3.33,4.32-4.99,9.87-4.99,16.68s1.68,12.12,5.05,16.4c3.36,4.28,7.94,6.42,13.71,6.42s10.24-2.14,13.6-6.42Z"/>
    <path class="cls-2" d="M1077.7,354.19c-4.02-2.45-7.11-5.91-9.27-10.37-2.16-4.46-3.24-9.62-3.24-15.47s1.08-11.04,3.24-15.58c2.16-4.53,5.25-8.05,9.27-10.53,4.02-2.49,8.74-3.73,14.15-3.73s10.24,1.25,14.26,3.73c4.02,2.49,7.11,5.98,9.27,10.48,2.16,4.5,3.24,9.67,3.24,15.52s-1.08,11.01-3.24,15.47c-2.16,4.46-5.25,7.94-9.27,10.42-4.02,2.49-8.74,3.73-14.15,3.73s-10.24-1.23-14.26-3.68ZM1105.57,344.75c3.36-4.28,5.05-9.78,5.05-16.51s-1.68-12.34-5.05-16.62c-3.37-4.28-7.94-6.42-13.71-6.42s-10.33,2.16-13.66,6.47c-3.33,4.32-4.99,9.87-4.99,16.68s1.68,12.12,5.05,16.4c3.36,4.28,7.94,6.42,13.71,6.42s10.24-2.14,13.6-6.42Z"/>
    <path class="cls-2" d="M1145.28,327.58v28.97h-7.57v-79h7.57v45.86l28.09-23.59h9.33l-30.06,25.56,31.05,31.16h-9.33l-29.08-28.97Z"/>
  </g>
  <g>
    <path class="cls-2" d="M60.37,282.05h28.42c8.26,0,14.54,1.87,18.82,5.6,4.28,3.73,6.42,8.82,6.42,15.25,0,5.56-1.57,10.13-4.72,13.71-3.15,3.58-7.94,5.89-14.37,6.91l23.04,33.03h-13.06l-22.05-31.82h-11.08v31.82h-11.41v-74.5ZM86.81,315.51c4.97,0,8.74-1.1,11.3-3.29,2.56-2.19,3.84-5.27,3.84-9.22s-1.3-6.8-3.9-8.78c-2.6-1.98-6.42-2.96-11.47-2.96h-14.81v24.25h15.03Z"/>
    <path class="cls-2" d="M140.24,354.24c-4.17-2.41-7.35-5.81-9.55-10.2s-3.29-9.51-3.29-15.36,1.15-11.39,3.46-15.96,5.5-8.08,9.6-10.53c4.1-2.45,8.74-3.68,13.93-3.68,8.41,0,14.88,2.67,19.42,8.01,4.53,5.34,6.8,12.66,6.8,21.94l-.11,3.29h-41.58c.51,5.71,2.16,9.98,4.94,12.84,2.78,2.85,6.4,4.28,10.86,4.28,3.66,0,6.64-.79,8.94-2.36,2.3-1.57,3.9-3.75,4.77-6.53h11.19c-1.32,5.27-4.06,9.56-8.23,12.89-4.17,3.33-9.55,4.99-16.13,4.99-5.85,0-10.86-1.21-15.03-3.62ZM169.32,323.52c-.29-5.34-1.76-9.36-4.39-12.07s-6.14-4.06-10.53-4.06c-4.02,0-7.41,1.37-10.15,4.11-2.74,2.74-4.44,6.75-5.1,12.01h30.17Z"/>
    <path class="cls-2" d="M209.03,366.86c2.56,1.98,6.29,2.96,11.19,2.96s8.96-1.3,11.74-3.89c2.78-2.6,4.17-6.38,4.17-11.36v-10.42c-2.05,3.22-4.63,5.65-7.74,7.3-3.11,1.65-6.68,2.47-10.7,2.47-4.83,0-9.18-1.13-13.06-3.4-3.88-2.27-6.93-5.49-9.16-9.66-2.23-4.17-3.35-9.03-3.35-14.59s1.1-10.33,3.29-14.54c2.19-4.21,5.23-7.46,9.11-9.77,3.88-2.3,8.19-3.46,12.95-3.46,4.31,0,8.12.9,11.41,2.69,3.29,1.79,5.92,4.37,7.9,7.73v-9.11h10.31v54.09c0,7.31-2.23,13.24-6.69,17.77-4.46,4.54-11.19,6.8-20.19,6.8s-15.6-1.81-19.8-5.43c-4.21-3.62-6.57-8.5-7.08-14.65h11.41c.29,3.66,1.72,6.47,4.28,8.45ZM208.21,339.7c3.03,3.33,6.93,4.99,11.69,4.99,4.46,0,8.17-1.46,11.14-4.39s4.66-6.8,5.1-11.63v-4.83c-.44-4.9-2.16-8.81-5.16-11.74-3-2.92-6.69-4.39-11.08-4.39-4.9,0-8.83,1.68-11.79,5.05-2.96,3.37-4.44,7.86-4.44,13.5s1.52,10.11,4.55,13.44Z"/>
    <path class="cls-2" d="M274.31,345.3c1.98,2.16,4.79,3.24,8.45,3.24,4.31,0,7.72-1.41,10.2-4.22,2.49-2.81,3.73-6.6,3.73-11.36v-33.13h10.86v56.72h-9.98v-8.01c-1.76,3.07-4.13,5.39-7.13,6.97-3,1.57-6.51,2.36-10.53,2.36-6.14,0-10.94-1.79-14.37-5.38-3.44-3.58-5.16-8.74-5.16-15.47v-37.19h10.97v36.1c0,4.1.99,7.22,2.96,9.38Z"/>
    <path class="cls-2" d="M357.81,347.22h18.1v9.33h-47.18v-9.33h18.1v-60.46h-16.79v-9.22h27.76v69.67Z"/>
    <path class="cls-2" d="M432.75,348.75c-4.39,6.07-10.57,9.11-18.54,9.11-4.02,0-7.63-.71-10.81-2.14-3.18-1.43-5.65-3.42-7.41-5.98-1.76-2.56-2.63-5.49-2.63-8.78,0-10.17,6.73-15.95,20.19-17.34l18.43-1.87v-3.73c0-3.66-1.1-6.4-3.29-8.23-2.19-1.83-5.19-2.74-9-2.74-4.24,0-7.52.82-9.82,2.47-2.3,1.65-3.71,4.22-4.22,7.74h-10.97c.73-6.14,3.25-10.81,7.57-13.99,4.31-3.18,10.13-4.77,17.45-4.77s12.89,1.67,16.95,4.99c4.06,3.33,6.09,8.36,6.09,15.09v37.96h-9.98v-7.79ZM407.9,347.05c2.08,1.65,4.99,2.47,8.72,2.47,4.75,0,8.47-1.37,11.14-4.11,2.67-2.74,4-6.46,4-11.14v-5.16l-15.69,1.97c-4.1.51-7,1.55-8.72,3.13-1.72,1.57-2.58,3.71-2.58,6.42s1.04,4.77,3.13,6.42Z"/>
    <path class="cls-2" d="M476.74,311.01c3.36-7.9,10.86-11.85,22.49-11.85,4.46,0,7.75.29,9.87.88v10.42c-3.07-.44-6.66-.66-10.75-.66-7.61,0-12.98,1.28-16.13,3.84-3.15,2.56-4.72,6.55-4.72,11.96v30.94h-10.97v-56.72h10.2v11.19Z"/>
  </g>
  <g>
    <path class="cls-2" d="M454.64,400.76h-26v71.43h-3.29v-71.43h-26.11v-3.07h55.41v3.07Z"/>
    <path class="cls-2" d="M507.52,422.92c-3.15-3.8-7.61-5.71-13.39-5.71-3.66,0-6.93.95-9.82,2.85-2.89,1.9-5.16,4.59-6.8,8.06-1.65,3.48-2.47,7.41-2.47,11.79v32.26h-3.29v-79h3.29v34.78c1.68-4.31,4.21-7.7,7.57-10.15,3.36-2.45,7.31-3.68,11.85-3.68,6.73,0,11.9,2.2,15.53,6.58s5.43,10.39,5.43,17.99v33.46h-3.18v-33.35c0-6.8-1.57-12.11-4.72-15.91Z"/>
    <path class="cls-2" d="M536.81,469.11h20.96v-50.58h-19.64v-3.07h22.93v53.65h20.96v3.07h-45.2v-3.07ZM556.89,400.54c-.73-.73-1.1-1.61-1.1-2.63s.37-1.88,1.1-2.58c.73-.69,1.61-1.04,2.63-1.04s1.88.35,2.58,1.04c.69.7,1.04,1.55,1.04,2.58s-.37,1.9-1.1,2.63c-.73.73-1.57,1.1-2.52,1.1-1.02,0-1.9-.37-2.63-1.1Z"/>
    <path class="cls-2" d="M640.11,422.92c-3.11-3.8-7.55-5.71-13.33-5.71s-10.61,1.97-14.04,5.92c-3.44,3.95-5.16,9.33-5.16,16.13v32.92h-3.29v-56.72h3.07v12.07c1.54-4.24,3.99-7.53,7.35-9.87,3.36-2.34,7.5-3.51,12.4-3.51,6.51,0,11.61,2.1,15.31,6.31,3.69,4.21,5.54,10.08,5.54,17.61v34.12h-3.18v-33.35c0-6.8-1.55-12.11-4.66-15.91Z"/>
  </g>
  <g>
    <path class="cls-2" d="M679.88,397.69h2.08l12.07,70.77,14.59-70.77h2.85l14.59,70.77,12.07-70.77h2.08l-12.84,74.5h-2.63l-14.7-70.99-14.7,70.99h-2.63l-12.84-74.5Z"/>
    <path class="cls-2" d="M791.08,422.15c-3.26-4.02-7.99-6.04-14.21-6.04-3.8,0-7.22,1.03-10.26,3.07-3.04,2.05-5.43,4.87-7.19,8.45-1.75,3.58-2.63,7.68-2.63,12.29v32.26h-1.97v-79h1.97v36.21c1.61-4.75,4.17-8.48,7.68-11.19,3.51-2.71,7.64-4.06,12.4-4.06,6.8,0,12.01,2.21,15.64,6.64,3.62,4.43,5.43,10.48,5.43,18.16v33.24h-1.97v-33.24c0-7.17-1.63-12.76-4.88-16.79Z"/>
    <path class="cls-2" d="M819.99,470.21h21.61v-52.77h-20.52v-1.98h22.49v54.75h21.62v1.97h-45.2v-1.97ZM840.51,400.27c-.59-.62-.88-1.33-.88-2.14,0-.88.29-1.61.88-2.19s1.32-.88,2.19-.88c.8,0,1.5.29,2.08.88.58.59.88,1.32.88,2.19,0,.81-.29,1.52-.88,2.14-.59.62-1.28.93-2.08.93-.88,0-1.61-.31-2.19-.93Z"/>
    <path class="cls-2" d="M905.4,465.16c1.35,2.34,3.16,3.88,5.43,4.61,2.27.73,5.19,1.1,8.78,1.1s6.95-.29,10.31-.88v1.87c-3.29.66-6.95.99-10.97.99-5.71,0-10.06-1.24-13.06-3.73-3-2.49-4.5-7.13-4.5-13.93v-37.74h-17.77v-1.98h17.77v-16.02h1.98v16.02h25.45v1.98h-25.45v37.3c0,4.61.67,8.08,2.03,10.42Z"/>
    <path class="cls-2" d="M962.35,469.61c-3.84-2.6-6.75-6.12-8.72-10.59-1.97-4.46-2.96-9.47-2.96-15.03s.99-10.82,2.96-15.36c1.98-4.53,4.81-8.08,8.5-10.64,3.69-2.56,7.99-3.84,12.89-3.84,7.53,0,13.4,2.6,17.61,7.79,4.21,5.19,6.31,12.07,6.31,20.63v2.08h-46.3c.07,5.12,1.04,9.71,2.91,13.77,1.87,4.06,4.55,7.26,8.06,9.6,3.51,2.34,7.72,3.51,12.62,3.51s9.33-1.48,12.84-4.44,5.78-6.78,6.8-11.46h2.19c-1.39,5.27-3.91,9.56-7.57,12.89-3.66,3.33-8.45,4.99-14.37,4.99-5.34,0-9.93-1.3-13.77-3.89ZM996.96,442.67c0-8.19-1.96-14.67-5.87-19.42-3.91-4.75-9.27-7.13-16.07-7.13-4.39,0-8.25,1.13-11.58,3.4-3.33,2.27-5.92,5.41-7.79,9.44-1.87,4.02-2.87,8.6-3.02,13.71h44.33Z"/>
  </g>
  <g>
    <path class="cls-2" d="M66.62,467.8h45.09v4.39h-50.14v-74.5h5.05v70.11Z"/>
    <path class="cls-2" d="M130.92,467.8h20.19v-47.95h-18.65v-4.39h23.59v52.34h20.08v4.39h-45.2v-4.39ZM150.45,400.81c-.88-.84-1.32-1.88-1.32-3.13s.44-2.29,1.32-3.13c.88-.84,1.94-1.26,3.18-1.26s2.29.42,3.13,1.26c.84.84,1.26,1.88,1.26,3.13,0,1.17-.42,2.19-1.26,3.07-.84.88-1.88,1.32-3.13,1.32s-2.3-.42-3.18-1.26Z"/>
    <path class="cls-2" d="M206.13,485.68c3.33,2.71,8.1,4.06,14.32,4.06s11.36-1.59,14.76-4.77c3.4-3.18,5.1-7.85,5.1-13.99v-15.14c-1.83,4.32-4.55,7.68-8.17,10.09s-7.92,3.62-12.89,3.62-9.24-1.13-13-3.4c-3.77-2.27-6.69-5.49-8.78-9.66s-3.13-9.07-3.13-14.7c0-5.34,1.02-10.09,3.07-14.26,2.05-4.17,4.95-7.44,8.72-9.82,3.77-2.38,8.06-3.57,12.89-3.57,5.19,0,9.62,1.28,13.28,3.84,3.66,2.56,6.4,6.07,8.23,10.53v-13.06h4.61v55.19c0,7.53-2.1,13.33-6.31,17.39-4.21,4.06-10.33,6.09-18.38,6.09s-14.01-1.75-18.1-5.27c-4.1-3.51-6.29-8.45-6.58-14.81h5.05c.22,5.05,1.99,8.92,5.32,11.63ZM205.03,458.91c3.77,4.17,8.72,6.25,14.87,6.25s11.26-2.16,14.92-6.47c3.66-4.32,5.49-9.95,5.49-16.9,0-4.24-.84-8.14-2.52-11.68-1.68-3.55-4.08-6.36-7.19-8.45-3.11-2.08-6.71-3.13-10.81-3.13s-7.68.99-10.75,2.96c-3.07,1.97-5.45,4.72-7.13,8.23-1.68,3.51-2.52,7.54-2.52,12.07,0,7.24,1.88,12.95,5.65,17.12Z"/>
    <path class="cls-2" d="M299.93,423.97c-2.96-3.55-7.11-5.32-12.45-5.32-3.37,0-6.4.88-9.11,2.63-2.71,1.75-4.83,4.24-6.36,7.46-1.54,3.22-2.3,6.95-2.3,11.19v32.26h-4.83v-79h4.83v33.25c1.68-3.88,4.15-6.89,7.41-9.05,3.25-2.16,7-3.24,11.25-3.24,6.58,0,11.7,2.16,15.36,6.47,3.66,4.32,5.49,10.24,5.49,17.77v33.79h-4.83v-33.35c0-6.36-1.48-11.32-4.44-14.87Z"/>
    <path class="cls-2" d="M351.39,463.19c1.13,2.05,2.76,3.42,4.88,4.11,2.12.7,4.86,1.04,8.23,1.04,3.58,0,7.2-.29,10.86-.88v4.28c-3.44.73-7.46,1.1-12.07,1.1-6.14,0-10.75-1.32-13.82-3.95-3.07-2.63-4.61-7.2-4.61-13.71v-35.33h-17.77v-4.39h17.77v-16.02h4.83v16.02h25.02v4.39h-25.02v34.34c0,3.95.57,6.95,1.7,9Z"/>
  </g>
</svg>