<?xml version="1.0" encoding="UTF-8"?>
<svg id="Layer_1" data-name="Layer 1" xmlns="http://www.w3.org/2000/svg" xmlns:xlink="http://www.w3.org/1999/xlink" viewBox="0 0 1366 768">
  <defs>
    <style>
      .cls-1 {
        fill: #b9cae6;
      }

      .cls-2 {
        clip-path: url(#clippath);
      }
    </style>
    <clipPath id="clippath">
      <rect class="cls-1" x="-11.72" y="-10.09" width="1386" height="788"/>
    </clipPath>
  </defs>
  <g>
    <rect class="cls-1" x="-11.72" y="-10.09" width="1386" height="788"/>
    <g class="cls-2">
      <rect class="cls-1" x="-2.07" y="-3.34" width="1366.71" height="779.89"/>
    </g>
  </g>
  <g>
    <path d="M680.1,258.24c-7.79-6.19-12.17-14.94-13.16-26.23h33.22c.33,3.95,1.75,7.02,4.28,9.21,2.52,2.19,5.86,3.29,10.03,3.29,3.73,0,6.58-.96,8.55-2.88,1.97-1.92,2.96-4.3,2.96-7.15,0-2.19-.71-4.03-2.14-5.51-1.43-1.48-3.78-2.6-7.07-3.37l-19.24-4.77c-10.09-2.52-17.57-6.44-22.45-11.76-4.88-5.32-7.32-12.36-7.32-21.13,0-6.58,1.67-12.61,5.02-18.09,3.34-5.48,8.41-9.84,15.21-13.07,6.8-3.23,15.07-4.85,24.83-4.85,13.37,0,24.04,3.07,31.99,9.21,7.95,6.14,12.42,14.42,13.4,24.83h-32.89c-1.32-7.46-5.48-11.18-12.5-11.18-3.51,0-6.25.88-8.22,2.63-1.97,1.75-2.96,4-2.96,6.74,0,4.71,2.9,7.73,8.72,9.04l19.9,4.93c9.76,2.3,16.99,6.17,21.71,11.59,4.71,5.43,7.07,12.36,7.07,20.8,0,11.18-3.59,20.15-10.77,26.89-7.18,6.74-18.28,10.11-33.3,10.11s-27.08-3.1-34.86-9.29Z"/>
    <path d="M802.12,254.05v42.43h-32.56v-115.94h30.59v15.46c4.93-11.62,13.87-17.43,26.8-17.43,6.25,0,11.95,1.84,17.1,5.51,5.15,3.67,9.26,8.88,12.33,15.62,3.07,6.74,4.6,14.55,4.6,23.43s-1.59,16.83-4.77,23.52c-3.18,6.69-7.43,11.84-12.75,15.46-5.32,3.62-11.1,5.43-17.35,5.43-10.75,0-18.75-4.49-24.01-13.49ZM805.82,239.49c2.47,3.45,5.84,5.18,10.11,5.18,3.95,0,7.07-1.73,9.37-5.18s3.45-8.96,3.45-16.53-1.12-12.91-3.37-16.36c-2.25-3.45-5.34-5.18-9.29-5.18-4.28,0-7.68,1.73-10.2,5.18-2.52,3.45-3.78,8.91-3.78,16.36s1.23,13.07,3.7,16.53Z"/>
    <path d="M928.58,255.2c-3.29,3.95-7.15,6.99-11.59,9.13-4.44,2.14-9.35,3.21-14.72,3.21-9.43,0-16.86-2.38-22.28-7.15-5.43-4.77-8.14-10.83-8.14-18.17s2.8-13.84,8.39-18.5c5.59-4.66,13.59-7.48,24.01-8.47l21.38-1.97v-5.26c0-3.07-.88-5.45-2.63-7.15-1.75-1.7-4.22-2.55-7.4-2.55-6.47,0-10.25,2.8-11.35,8.39h-31.08c.88-8.66,4.85-15.51,11.92-20.56,7.07-5.04,17.19-7.56,30.34-7.56,14.69,0,25.35,2.91,31.99,8.72,6.63,5.81,9.95,13.76,9.95,23.84v54.43h-28.78v-10.36ZM905.56,246.57c1.86,1.59,4.38,2.38,7.56,2.38,3.62,0,6.5-1.09,8.63-3.29,2.14-2.19,3.21-4.99,3.21-8.39v-9.04l-9.7,1.32c-8.33,1.21-12.5,4.71-12.5,10.52,0,2.74.93,4.91,2.79,6.5Z"/>
    <path d="M1009.49,197.81c2.74-5.92,7.13-10.41,13.16-13.48,6.03-3.07,12.88-4.61,20.56-4.61,5.04,0,9.7.39,13.98,1.15v28.29c-5.04-.77-10.63-1.15-16.77-1.15-8.88,0-15.54,1.7-19.98,5.1-4.44,3.4-6.66,8.94-6.66,16.61v35.85h-32.56v-85.02h28.29v17.27Z"/>
    <path d="M1109.97,230.37v35.19h-32.56v-118.4h32.56v61.01l22.37-27.63h35.19l-31.41,37.66,32.07,47.36h-36.18l-22.04-35.19Z"/>
    <path d="M1190.55,260.71c-7.24-4.55-11.46-11.21-12.66-19.98h30.09c1.21,5.26,5.76,7.89,13.65,7.89,3.73,0,6.5-.52,8.3-1.56,1.81-1.04,2.71-2.44,2.71-4.19,0-1.42-.52-2.57-1.56-3.45-1.04-.88-2.99-1.53-5.84-1.97l-20.06-3.29c-16.88-2.74-25.33-11.57-25.33-26.48,0-5.59,1.51-10.58,4.52-14.96,3.01-4.38,7.51-7.84,13.49-10.36,5.97-2.52,13.24-3.78,21.79-3.78,25.1,0,39.25,9.37,42.43,28.12h-30.09c-.99-5.92-5.15-8.88-12.5-8.88-3.51,0-6.14.52-7.89,1.56-1.75,1.04-2.63,2.5-2.63,4.36,0,1.54.55,2.69,1.64,3.45,1.09.77,2.9,1.43,5.43,1.97l23.68,4.6c8.33,1.64,14.36,4.52,18.09,8.63,3.73,4.11,5.59,9.51,5.59,16.2,0,8.88-3.65,15.93-10.94,21.13-7.29,5.21-17.74,7.81-31.33,7.81s-23.35-2.27-30.59-6.83Z"/>
    <path d="M386.73,343.26h44.07c12.5,0,22.06,2.88,28.7,8.63,6.63,5.76,9.95,13.46,9.95,23.11,0,8.11-2.28,14.88-6.83,20.31-4.55,5.43-11.38,9.02-20.47,10.77l33.05,48.84h-22.86l-31.25-46.54h-14.14v46.54h-20.23v-111.66ZM427.35,392.44c6.91,0,12.11-1.51,15.62-4.52,3.51-3.01,5.26-7.15,5.26-12.42s-1.75-9.29-5.26-12.09c-3.51-2.8-8.77-4.19-15.79-4.19h-20.23v33.22h20.39Z"/>
    <path d="M506.45,451.39c-6.47-3.67-11.38-8.8-14.72-15.38-3.35-6.58-5.02-14.2-5.02-22.86s1.75-16.91,5.26-23.76c3.51-6.85,8.41-12.14,14.72-15.87,6.3-3.73,13.46-5.59,21.46-5.59,12.83,0,22.78,4.03,29.85,12.09,7.07,8.06,10.61,18.89,10.61,32.48l-.16,5.76h-61.18c.66,7.79,2.93,13.62,6.82,17.51,3.89,3.89,8.8,5.84,14.72,5.84,4.93,0,8.93-1.01,12-3.04,3.07-2.03,5.26-4.85,6.58-8.47h19.57c-1.87,7.89-6.08,14.33-12.66,19.32-6.58,4.99-14.86,7.48-24.83,7.48-8.88,0-16.56-1.84-23.02-5.51ZM548.71,404.93c-.55-7.12-2.61-12.55-6.17-16.28-3.56-3.73-8.3-5.59-14.22-5.59-5.37,0-9.89,1.87-13.57,5.59-3.67,3.73-6.06,9.16-7.15,16.28h41.11ZM539.51,356.09h-19.08l17.27-25.65h22.37l-20.56,25.65Z"/>
    <path d="M589.5,438.65h27.13v-52.46h-23.19v-16.28h42.76v68.74h26.97v16.28h-73.67v-16.28ZM617.78,351.32c-2.3-2.3-3.45-5.1-3.45-8.39s1.12-6.22,3.37-8.47,5.18-3.37,8.8-3.37c3.4,0,6.25,1.12,8.55,3.37,2.3,2.25,3.45,5.07,3.45,8.47s-1.15,6.08-3.45,8.39c-2.3,2.3-5.15,3.45-8.55,3.45s-6.41-1.15-8.72-3.45Z"/>
    <path d="M740.95,389.89c-3.07-3.56-7.4-5.34-12.99-5.34s-10.09,1.87-13.49,5.59c-3.4,3.73-5.1,9.1-5.1,16.12v48.68h-19.73v-85.02h17.93v12c5.37-9.32,14.2-13.98,26.48-13.98,9.32,0,16.86,2.88,22.61,8.63,5.76,5.76,8.63,14.17,8.63,25.24v53.12h-19.73v-48.84c0-7.24-1.54-12.63-4.61-16.2Z"/>
    <path d="M783.21,369.91h21.21l21.21,62.99,20.23-62.99h21.05l-30.42,85.02h-22.04l-31.25-85.02Z"/>
    <path d="M903.76,451.39c-6.47-3.67-11.38-8.8-14.72-15.38-3.35-6.58-5.02-14.2-5.02-22.86s1.75-16.91,5.26-23.76c3.51-6.85,8.41-12.14,14.72-15.87,6.3-3.73,13.46-5.59,21.46-5.59,12.83,0,22.78,4.03,29.85,12.09,7.07,8.06,10.61,18.89,10.61,32.48l-.16,5.76h-61.18c.66,7.79,2.93,13.62,6.83,17.51,3.89,3.89,8.8,5.84,14.72,5.84,4.93,0,8.93-1.01,12.01-3.04,3.07-2.03,5.26-4.85,6.58-8.47h19.57c-1.87,7.89-6.08,14.33-12.66,19.32-6.58,4.99-14.86,7.48-24.83,7.48-8.88,0-16.56-1.84-23.02-5.51ZM946.02,404.93c-.55-7.12-2.61-12.55-6.17-16.28-3.56-3.73-8.3-5.59-14.22-5.59-5.37,0-9.9,1.87-13.57,5.59-3.67,3.73-6.06,9.16-7.15,16.28h41.11Z"/>
    <path d="M1038.93,389.89c-3.07-3.56-7.4-5.34-12.99-5.34s-10.09,1.87-13.48,5.59c-3.4,3.73-5.1,9.1-5.1,16.12v48.68h-19.73v-85.02h17.92v12c5.37-9.32,14.2-13.98,26.48-13.98,9.32,0,16.86,2.88,22.61,8.63,5.76,5.76,8.63,14.17,8.63,25.24v53.12h-19.73v-48.84c0-7.24-1.54-12.63-4.6-16.2Z"/>
    <path d="M1131.1,436.18c2.47,1.97,6.93,2.96,13.4,2.96,6.91,0,13.16-.49,18.75-1.48v16.12c-7.02,1.42-14.69,2.14-23.02,2.14-11.62,0-19.93-2.36-24.91-7.07-4.99-4.71-7.48-12.11-7.48-22.2v-40.46h-24.34v-16.28h24.34v-24.01h19.57v24.01h35.85v16.28h-35.85v38.48c0,5.7,1.23,9.54,3.7,11.51Z"/>
    <path d="M1201.74,451.39c-6.47-3.67-11.38-8.8-14.72-15.38-3.35-6.58-5.02-14.2-5.02-22.86s1.75-16.91,5.26-23.76c3.51-6.85,8.41-12.14,14.72-15.87,6.3-3.73,13.46-5.59,21.46-5.59,12.83,0,22.78,4.03,29.85,12.09,7.07,8.06,10.61,18.89,10.61,32.48l-.16,5.76h-61.18c.66,7.79,2.93,13.62,6.82,17.51,3.89,3.89,8.8,5.84,14.72,5.84,4.93,0,8.93-1.01,12-3.04,3.07-2.03,5.26-4.85,6.58-8.47h19.57c-1.87,7.89-6.08,14.33-12.66,19.32-6.58,4.99-14.86,7.48-24.83,7.48-8.88,0-16.56-1.84-23.02-5.51ZM1244,404.93c-.55-7.12-2.61-12.55-6.17-16.28-3.56-3.73-8.3-5.59-14.22-5.59-5.37,0-9.89,1.87-13.57,5.59-3.67,3.73-6.06,9.16-7.15,16.28h41.11ZM1234.79,356.09h-19.08l17.27-25.65h22.37l-20.56,25.65Z"/>
    <path d="M357.3,635.5c-6.91,7.18-16.55,10.77-28.94,10.77s-22.04-3.59-28.94-10.77c-6.91-7.18-10.36-17.51-10.36-31v-71.87h7.56v72.03c0,11.18,2.63,19.76,7.89,25.74,5.26,5.98,13.21,8.96,23.84,8.96s18.58-2.99,23.85-8.96c5.26-5.97,7.89-14.55,7.89-25.74v-72.03h7.56v71.87c0,13.48-3.45,23.82-10.36,31Z"/>
    <path d="M448.65,571.85c-4.33-5.32-10.55-7.98-18.67-7.98s-14.75,2.79-19.57,8.39c-4.83,5.59-7.24,13.21-7.24,22.86v49.17h-7.24v-85.02h6.91v15.79c2.52-5.7,6.14-10.09,10.85-13.16,4.71-3.07,10.52-4.6,17.43-4.6,9.65,0,17.27,3.12,22.86,9.37,5.59,6.25,8.39,14.96,8.39,26.15v51.47h-7.24v-49.99c0-9.65-2.17-17.13-6.5-22.45Z"/>
    <path d="M493.13,637.72h30.26v-71.87h-27.96v-6.58h35.36v78.44h30.09v6.58h-67.75v-6.58ZM522.4,537.32c-1.32-1.26-1.97-2.82-1.97-4.69s.66-3.42,1.97-4.69c1.32-1.26,2.9-1.89,4.77-1.89s3.42.63,4.69,1.89c1.26,1.26,1.89,2.82,1.89,4.69,0,1.75-.63,3.29-1.89,4.6-1.26,1.32-2.82,1.97-4.69,1.97s-3.45-.63-4.77-1.89Z"/>
    <path d="M660.87,525.23v6.58c-3.62-.66-8.06-.99-13.32-.99-7.46,0-12.88,1.51-16.28,4.52-3.4,3.02-5.1,7.81-5.1,14.39v9.54h34.7v6.58h-34.7v78.44h-7.24v-78.44h-27.13v-6.58h27.13v-10.03c0-8.22,2.36-14.44,7.07-18.67,4.71-4.22,11.68-6.33,20.89-6.33,5.59,0,10.25.33,13.98.99Z"/>
    <path d="M705.35,640.59c-5.87-3.78-10.36-9.02-13.48-15.71-3.12-6.69-4.69-14.36-4.69-23.02s1.56-16.36,4.69-23.1c3.12-6.74,7.59-12.01,13.4-15.79,5.81-3.78,12.66-5.67,20.56-5.67s14.72,1.89,20.47,5.67,10.2,9.04,13.32,15.79c3.12,6.74,4.69,14.45,4.69,23.1s-1.54,16.34-4.6,23.02c-3.07,6.69-7.51,11.92-13.32,15.71-5.81,3.78-12.61,5.67-20.39,5.67s-14.77-1.89-20.64-5.67ZM742.27,634.84c4.6-3.23,8.14-7.73,10.61-13.48,2.47-5.76,3.7-12.25,3.7-19.49,0-11.18-2.74-20.31-8.22-27.38-5.48-7.07-12.99-10.61-22.53-10.61s-17.21,3.54-22.69,10.61c-5.48,7.07-8.22,16.2-8.22,27.38,0,7.24,1.23,13.73,3.7,19.49,2.47,5.75,6.06,10.25,10.77,13.48,4.71,3.24,10.25,4.85,16.61,4.85s11.68-1.62,16.28-4.85Z"/>
    <path d="M807.23,577.53c1.97-5.92,5.86-10.61,11.68-14.06,5.81-3.45,13.54-5.18,23.19-5.18,6.47,0,10.96.33,13.48.99v7.24c-4.39-.66-9.32-.99-14.8-.99-11.4,0-19.79,2.47-25.16,7.4-5.37,4.93-8.06,12.39-8.06,22.37v49.01h-7.24v-85.02h6.91v18.25Z"/>
    <path d="M946.02,564.04c-5.7,0-10.09,2.25-13.16,6.74-3.07,4.5-4.61,10.47-4.61,17.93v55.58h-7.24v-58.71c0-14.36-5.26-21.54-15.79-21.54-5.7,0-10.11,2.25-13.24,6.74-3.12,4.5-4.69,10.47-4.69,17.93v55.58h-7.07v-85.02h6.08v12.99c1.75-4.71,4.3-8.39,7.65-11.02,3.34-2.63,7.54-3.95,12.58-3.95s9.23,1.26,12.58,3.78c3.34,2.52,5.78,6.03,7.32,10.52,1.86-4.49,4.52-8,7.98-10.52,3.45-2.52,7.7-3.78,12.75-3.78,7.34,0,12.83,2.44,16.45,7.32,3.62,4.88,5.43,11.54,5.43,19.98v59.7h-7.07v-58.71c0-14.36-5.32-21.54-15.95-21.54Z"/>
    <path d="M989.76,637.72h30.26v-71.87h-27.96v-6.58h35.36v78.44h30.09v6.58h-67.75v-6.58ZM1019.03,537.32c-1.32-1.26-1.97-2.82-1.97-4.69s.66-3.42,1.97-4.69c1.31-1.26,2.9-1.89,4.77-1.89s3.42.63,4.69,1.89c1.26,1.26,1.89,2.82,1.89,4.69,0,1.75-.63,3.29-1.89,4.6-1.26,1.32-2.82,1.97-4.69,1.97s-3.45-.63-4.77-1.89Z"/>
    <path d="M1121.57,630.81c1.7,3.07,4.14,5.13,7.32,6.17,3.18,1.04,7.29,1.56,12.33,1.56,5.37,0,10.8-.44,16.28-1.32v6.41c-5.15,1.09-11.18,1.64-18.09,1.64-9.21,0-16.12-1.97-20.72-5.92-4.6-3.95-6.91-10.8-6.91-20.56v-52.95h-26.64v-6.58h26.64v-24.01h7.24v24.01h37.49v6.58h-37.49v51.47c0,5.92.85,10.42,2.55,13.48Z"/>
    <path d="M1205.52,675.21h-7.89l18.75-38.48-32.73-77.46h7.73l29.27,69.73,32.56-69.73h7.73l-55.42,115.94Z"/>
  </g>
</svg>