<?xml version="1.0" encoding="UTF-8"?>
<svg id="Layer_1" data-name="Layer 1" xmlns="http://www.w3.org/2000/svg" xmlns:xlink="http://www.w3.org/1999/xlink" viewBox="0 0 1366 768">
  <defs>
    <style>
      .cls-1 {
        fill: #12100b;
      }

      .cls-2 {
        fill: #00d800;
      }

      .cls-3 {
        clip-path: url(#clippath);
      }
    </style>
    <clipPath id="clippath">
      <rect class="cls-1" x="-10.33" y="-10" width="1386" height="788"/>
    </clipPath>
  </defs>
  <g>
    <rect class="cls-1" x="-10.33" y="-10" width="1386" height="788"/>
    <g class="cls-3">
      <rect class="cls-1" x="-.69" y="-3.25" width="1366.71" height="779.89"/>
    </g>
  </g>
  <g>
    <path class="cls-2" d="M438.21,194.26c-18.98,0-37.63-9.07-37.63-36.96s23.18-76.27,76.94-76.27c13.94,0,25.54,3.19,32.93,7.06v33.1h-5.88c-2.35-24.53-12.94-32.26-30.41-32.26-37.3,0-57.79,40.66-57.79,65.86,0,23.18,13.78,29.4,26.54,29.4,16.63,0,28.56-7.9,38.3-22.34l5.88,1.34c-9.74,17.3-24.7,31.08-48.89,31.08Z"/>
    <path class="cls-2" d="M658.52,82.71v6.05c-14.45,1.51-16.8,5.88-23.69,19.82l-37.46,75.77,14.11,2.18v6.05h-40.99v-6.05c12.1-1.34,14.62-7.56,20.66-19.99l12.6-25.37h-63.67l-21.34,43.18,12.94,2.18v6.05h-42.34v-6.05c13.78-1.34,17.14-7.56,23.18-19.82l36.96-74.93-11.09-3.02v-6.05h40.49l.17,6.05c-14.11,2.02-16.63,7.39-22.85,19.82l-12.26,24.86h63.5l20.66-41.66-11.42-3.02v-6.05h41.83Z"/>
    <path class="cls-2" d="M642.83,154.11c0-31.42,29.06-73.08,77.11-73.08,33.43,0,44.35,18.14,44.35,39.65,0,26.38-27.05,73.92-77.11,73.92-33.43,0-44.35-18.98-44.35-40.49ZM749.34,115.47c0-15.46-8.57-27.38-27.72-27.38-40.32,0-64.34,43.68-64.34,72.41,0,14.45,6.72,27.05,28.22,27.05,39.48,0,63.84-45.19,63.84-72.07Z"/>
    <path class="cls-2" d="M848.11,88.75l-18.65,3.02-44.69,91.73,16.13,3.02v6.05h-50.74v-6.05c14.95-1.01,19.82-3.19,25.37-14.62l38.98-80.14-16.13-3.02v-6.05h49.73v6.05Z"/>
    <path class="cls-2" d="M892.23,137.98l17.3,37.3c3.7,7.9,7.39,10.75,18.65,11.42v5.88h-27.72l-23.35-54.26h-13.94l-22.34,45.36,17.81,2.86v6.05h-47.54v-6.05c11.93-2.02,14.95-3.36,20.66-14.95l39.48-79.8-12.77-3.02v-6.05h51.07c21.34,0,31.92,6.55,31.92,21.17,0,11.42-7.22,31.08-49.22,34.1ZM926.67,105.39c0-10.58-7.9-14.95-20.16-14.95h-19.82l-19.66,40.15h23.02c29.57,0,36.62-15.12,36.62-25.2Z"/>
    <path class="cls-2" d="M989.95,125.71l8.74,10.25c6.72,7.9,12.6,16.13,12.6,27.55,0,13.94-9.24,30.74-36.46,30.74-13.78,0-24.36-4.2-31.25-9.07v-32.76h5.88c.34,3.02.67,8.57,1.85,13.78,3.53,15.29,13.27,20.66,24.19,20.66,13.78,0,21.5-9.58,21.5-21.5,0-8.06-4.2-13.94-10.25-21l-9.24-10.75c-5.04-5.88-9.74-13.94-9.74-23.18,0-18.98,13.61-29.4,33.26-29.4,10.08,0,21,1.68,29.4,5.38v33.1h-5.88c-.67-21.5-8.74-31.08-23.35-31.08-12.1,0-20.16,6.55-20.16,18.65,0,7.39,4.03,12.94,8.9,18.65Z"/>
  </g>
  <g>
    <path class="cls-2" d="M414.04,291.24h56.45l-.17,7.56h-1.68v-49.56l-15.46-2.18v-6.55h42.5v6.55c-9.24,1.68-11.93,3.53-11.93,12.43v82.49l14.95,2.52v5.88h-44.18v-5.88c12.1-2.69,13.94-6.22,14.11-19.66v-26.04h-54.6v43.18l17.64,2.52v5.88h-45.19v-5.88c11.42-3.19,12.43-6.55,12.43-19.66v-75.6l-12.6-2.18v-6.55h42.67v6.55l-14.95,2.18v42Z"/>
    <path class="cls-2" d="M560.79,289.9c7.22-.17,8.4-4.03,9.41-12.43h5.71v33.1h-5.71c-1.01-7.73-2.18-11.76-9.41-12.1-6.05-.34-14.78-.5-22.34-.5v43.68c8.9,1.18,20.66,1.68,28.73,1.68,11.09,0,14.45-4.2,18.98-22.85l5.88.17-2.18,29.74h-78.79v-6.22c11.26-2.69,12.26-6.22,12.26-19.32v-76.44l-12.43-2.18v-5.71h75.1l1.68,26.54-7.56.34c-1.85-10.58-4.2-17.64-17.98-18.14-7.39-.34-16.3-.5-23.69-.67v41.5l22.34-.17Z"/>
    <path class="cls-2" d="M675.38,323.67l-4.03-10.58h-40.82l-10.58,29.06,18.14,2.35v5.88h-37.13v-5.88c9.91-1.85,11.59-6.22,18.48-24.86l28.06-75.77,14.45-6.89,36.46,105,11.26,2.52v5.88h-45.7v-5.88c9.91-1.18,14.28-3.19,14.45-8.74.17-3.02-1.01-6.89-3.02-12.1ZM633.22,305.52h35.78l-17.3-52.08-18.48,52.08Z"/>
    <path class="cls-2" d="M783.52,260.5l-31.58,89.88h-7.22l-39.82-100.8-11.09-2.35v-6.72h46.54v6.72l-17.64,2.35,29.23,76.44,26.71-76.44-14.11-2.35v-6.72h34.27v6.55c-9.24,1.68-12.26,4.87-15.29,13.44Z"/>
    <path class="cls-2" d="M858.23,289.9c7.22-.17,8.4-4.03,9.41-12.43h5.71v33.1h-5.71c-1.01-7.73-2.18-11.76-9.41-12.1-6.05-.34-14.78-.5-22.34-.5v43.68c8.9,1.18,20.66,1.68,28.73,1.68,11.09,0,14.45-4.2,18.98-22.85l5.88.17-2.18,29.74h-78.79v-6.22c11.26-2.69,12.26-6.22,12.26-19.32v-76.44l-12.43-2.18v-5.71h75.1l1.68,26.54-7.56.34c-1.85-10.58-4.2-17.64-17.98-18.14-7.39-.34-16.3-.5-23.69-.67v41.5l22.34-.17Z"/>
    <path class="cls-2" d="M985.2,264.03c0-13.94-3.7-15.96-18.65-17.14v-6.38h39.48v6.38l-12.43,1.68v100.63l-8.74,1.18-65.35-89.88v81.48l17.98,2.86v5.54h-38.64v-5.21c11.42-3.19,12.43-6.55,12.43-19.66v-74.42l-12.94-4.2v-6.38h25.2l61.66,85.01v-61.49Z"/>
  </g>
  <g>
    <path class="cls-2" d="M377.49,457.71l17.3,37.3c3.7,7.9,7.39,10.75,18.65,11.42v5.88h-27.72l-23.35-54.26h-13.94l-22.34,45.36,17.81,2.86v6.05h-47.54v-6.05c11.93-2.02,14.95-3.36,20.66-14.95l39.48-79.8-12.77-3.02v-6.05h51.07c21.34,0,31.92,6.55,31.92,21.17,0,11.42-7.22,31.08-49.22,34.1ZM411.93,425.11c0-10.58-7.9-14.95-20.16-14.95h-19.82l-19.66,40.15h23.02c29.57,0,36.62-15.12,36.62-25.2Z"/>
    <path class="cls-2" d="M501.17,438.05h6.72v36.46h-6.72c0-10.75-3.7-14.45-12.94-14.45h-16.3l-20.66,41.66,20.5,1.68c3.02.17,5.71.67,8.06.67,15.96,0,22.68-9.74,31.92-25.7l6.38,2.52-15.46,31.42h-81.82v-6.05c13.78-2.18,15.62-4.87,21.34-16.3l38.81-78.46-12.77-3.02v-6.05h71.74v33.6h-6.72c.17-16.3-4.2-24.36-22.51-25.03l-14.28-.5-20.66,41.83h12.43c9.24,0,12.94-3.53,12.94-14.28Z"/>
    <path class="cls-2" d="M617.64,400.75c33.43,0,44.35,18.14,44.35,39.65,0,26.38-27.05,73.75-76.78,73.92,39.31,12.1,66.36,17.14,89.88,17.47,13.61.17,23.35-3.19,31.25-9.07l1.34,2.18c-9.91,8.74-25.7,17.47-45.02,17.14-16.13-.17-64.51-12.26-101.3-32.09-15.12-6.72-20.83-20.83-20.83-36.12,0-31.42,29.06-73.08,77.11-73.08ZM647.04,435.19c0-15.46-8.57-27.38-27.72-27.38-40.32,0-64.34,43.68-64.34,72.41,0,14.45,6.72,27.05,28.22,27.05,39.48,0,63.84-45.19,63.84-72.07Z"/>
    <path class="cls-2" d="M701.47,513.98c-28.06,0-40.66-17.3-27.89-43.01l29.4-59.47-12.77-3.02v-6.05h44.02v6.05l-16.46,3.02-30.07,61.15c-10.25,20.66-.67,31.08,18.82,31.08,20.5,0,27.22-12.1,35.62-29.9l29.74-62.33-14.78-3.02v-6.05h37.46v6.05c-10.08.84-14.11,3.19-18.31,11.93l-25.54,53.42c-9.91,20.83-19.66,40.15-49.22,40.15Z"/>
    <path class="cls-2" d="M852.91,408.48l-18.65,3.02-44.69,91.73,16.13,3.02v6.05h-50.74v-6.05c14.95-1.01,19.82-3.19,25.37-14.62l38.98-80.14-16.13-3.02v-6.05h49.73v6.05Z"/>
    <path class="cls-2" d="M896.18,438.05h6.72v36.46h-6.72c0-10.75-3.7-14.45-12.94-14.45h-16.3l-20.66,41.66,20.5,1.68c3.02.17,5.71.67,8.06.67,15.96,0,22.68-9.74,31.92-25.7l6.38,2.52-15.46,31.42h-81.82v-6.05c13.78-2.18,15.62-4.87,21.34-16.3l38.81-78.46-12.77-3.02v-6.05h71.74v33.6h-6.72c.17-16.3-4.2-24.36-22.51-25.03l-14.28-.5-20.66,41.83h12.43c9.24,0,12.94-3.53,12.94-14.28Z"/>
    <path class="cls-2" d="M1100.74,402.43v5.21l-14.45,3.53-44.86,91.9,12.26,3.19v6.05h-43.18v-6.05c13.61-1.18,16.97-5.38,22.51-16.8l36.29-74.42-89.71,97.27h-8.06l7.22-93.91-41.66,85.51,14.45,2.35v6.05h-38.98v-6.05c10.75-1.18,16.3-3.53,21.5-14.11l39.14-80.47-13.61-3.36v-5.88h34.94l-6.89,89.88,82.82-89.88h30.24Z"/>
  </g>
  <g>
    <path class="cls-2" d="M257.98,683.2c-31.75,0-47.04-23.86-43.51-54.26,2.86-26.04,24.86-58.97,58.63-58.97,9.24,0,25.7,2.35,31.92,5.21l-2.52,28.22-6.55.17c-.67-16.46-8.74-25.7-25.7-25.7-23.35,0-38.81,25.7-41.16,47.54-2.86,24.7,6.72,48.72,30.07,48.72,13.1,0,25.37-6.05,32.09-14.28l4.7,3.7c-8.06,11.42-24.19,19.66-37.97,19.66Z"/>
    <path class="cls-2" d="M415.05,681.52h-40.66l.5-5.88c11.93-2.69,13.94-6.22,15.46-19.66l3.02-25.87h-50.74l-4.87,43.01,16.13,2.52-.5,5.88h-41.66l.67-5.88c10.75-3.19,12.26-6.55,13.61-19.66,1.34-13.61,6.55-60.31,8.23-75.6l-11.09-2.18.84-6.55h39.14l-.67,6.55-14.28,2.18-4.54,42h50.74l4.7-42-14.45-2.18.84-6.55h39.14l-.84,6.55c-8.57,1.68-11.26,3.53-12.26,12.43l-9.41,82.49,13.44,2.52-.5,5.88Z"/>
    <path class="cls-2" d="M453.02,644.23l-12.94,29.06,16.8,2.35-.67,5.88h-34.1l.67-5.88c9.24-1.85,11.26-6.22,19.66-24.86l34.27-75.77,14.11-6.89,21.84,105,10.08,2.52-.67,5.88h-42l.5-5.88c14.11-1.68,16.63-5.54,12.94-20.83l-2.52-10.58h-37.97ZM479.56,584.59l-23.35,53.09h33.43l-10.08-53.09Z"/>
    <path class="cls-2" d="M578.01,570.98c21.34-.5,36.96,10.42,34.61,31.25-1.85,17.47-19.15,33.77-37.46,33.77-2.86,0-11.26-.34-13.78-.67l-4.2,36.96,17.14,3.02-.5,6.22h-42.67l.67-6.05c10.75-3.19,12.26-6.55,13.94-19.49,1.68-12.94,7.22-55.27,7.22-69.22,0-6.55-2.52-8.74-12.43-9.41h.17l.67-5.71c8.57,0,27.05-.67,36.62-.67ZM572.47,630.12c15.29,0,24.02-11.76,25.54-26.21,1.51-13.27-4.7-26.38-18.82-26.38l-11.26.34-5.71,51.07c2.69.67,7.22,1.18,10.25,1.18Z"/>
    <path class="cls-2" d="M648.91,655.99c1.34-10.75,7.56-62.83,8.57-76.94h-13.27c-13.94,0-16.13,8.57-20.33,21.84l-6.05-1.01,5.54-28.9c15.96.84,28.9.84,49.06.84,14.78,0,26.21-.17,34.1-.84l-.84,28.56-6.38,1.34c-2.02-13.1-2.69-21.67-14.28-21.84h-13.78l-10.42,91.9,14.62,4.37-.67,6.22h-41.66l.5-6.22c10.92-3.19,13.78-6.22,15.29-19.32Z"/>
    <path class="cls-2" d="M727.87,587.61c0-7.56-3.86-9.24-12.43-9.91l.84-6.05c14.62,0,56.11-.17,70.73-1.18l-1.85,29.4-6.89.34c.17-11.26-2.86-19.32-12.94-19.82-6.22-.34-15.96-.67-23.02-.67l-4.37,41.5c6.89,0,16.8,0,22.01-.17,6.72-.17,8.23-4.03,10.08-12.43h5.21l-3.7,33.1h-5.21c-.17-7.73-.84-11.76-7.39-12.1-5.38-.34-14.95-.5-22.01-.5l-4.87,42.17c7.56.84,21.67,1.68,30.41,1.68,7.73,0,11.59-11.26,14.62-20.33l5.38.17-4.7,28.73h-71.74l.67-5.88c10.75-3.19,12.6-6.55,14.11-19.66,1.51-12.94,7.06-57.79,7.06-68.38Z"/>
    <path class="cls-2" d="M841.26,570.98c21.17,0,36.79,10.42,34.44,31.25-1.51,12.94-12.26,26.04-26.04,31.92,3.86,7.56,7.06,14.28,12.77,24.19,5.38,9.58,10.92,16.63,21.17,18.48l-1.51,5.88c-6.89-.5-17.47-1.18-24.36-1.18-6.55-9.07-16.13-32.93-22.68-44.69h-10.42l-4.03,36.29,13.94,2.18-.67,6.22h-38.98l.5-6.22c10.75-3.02,11.76-6.22,13.61-19.32,1.85-12.94,7.22-55.27,7.22-69.22,0-6.55-2.52-8.74-12.26-9.41l.5-5.71c9.24,0,25.2-.67,36.79-.67ZM831.35,578.04l-5.88,51.91c1.85.5,5.21.67,7.56.67,16.13,0,26.54-12.77,28.39-28.73,1.51-13.44-5.88-24.36-18.82-24.36-3.19,0-8.74.17-11.26.5Z"/>
    <path class="cls-2" d="M1011.61,675.81l-.67,5.71h-44.69l.67-5.71,14.11-3.7-16.46-34.1-26.21,34.27,14.45,3.02-.67,6.22h-34.94l.5-6.22c8.4-.84,11.09-2.69,16.13-9.58l26.88-35.28-20.16-43.34c-2.69-5.88-5.71-8.06-13.78-9.58l.67-6.05h41.83l-.84,6.72-14.11,2.35,17.14,35.11,22.51-34.61-10.08-2.86.84-6.72h31.08l-.67,6.72c-10.25,2.02-12.94,4.54-18.82,12.77l-21.34,32.26,19.15,39.14c4.03,8.4,6.38,11.26,17.47,13.44Z"/>
    <path class="cls-2" d="M1100.99,675.81l-.67,5.71h-44.69l.67-5.71,14.11-3.7-16.46-34.1-26.21,34.27,14.45,3.02-.67,6.22h-34.94l.5-6.22c8.4-.84,11.09-2.69,16.13-9.58l26.88-35.28-20.16-43.34c-2.69-5.88-5.71-8.06-13.78-9.58l.67-6.05h41.83l-.84,6.72-14.11,2.35,17.14,35.11,22.51-34.61-10.08-2.86.84-6.72h31.08l-.67,6.72c-10.25,2.02-12.94,4.54-18.82,12.77l-21.34,32.26,19.15,39.14c4.03,8.4,6.38,11.26,17.47,13.44Z"/>
    <path class="cls-2" d="M1152.73,571.65l-.84,6.38-12.43,2.18-10.58,91.73,12.94,3.36-.5,6.22h-38.64l.5-6.22c10.92-3.19,12.1-6.22,13.78-19.32,1.68-12.94,7.22-55.27,7.22-69.22,0-6.22-3.36-7.9-11.93-9.41l.67-5.71h39.82Z"/>
  </g>
  <g>
    <path class="cls-2" d="M45.14,128.23h1.56l1.49,4.57h.11l1.5-4.57h1.56v8.1h-1.07v-3.74l.11-3.05h-.11l-1.55,4.61h-.99l-1.55-4.61h-.11l.12,3.05v3.74h-1.07v-8.1Z"/>
    <path class="cls-2" d="M58.81,135.39v.94h-5.35v-.94h2.09v-6.22h-2.09v-.94h5.35v.94h-2.09v6.22h2.09Z"/>
    <path class="cls-2" d="M66.86,135.35v.98h-5.72v-8.1h1.17v7.13h4.55Z"/>
    <path class="cls-2" d="M73.66,134.57h-3.33l-.52,1.76h-1.17l2.63-8.1h1.55l2.62,8.1h-1.22l-.56-1.76ZM73.39,133.68l-1.32-4.47h-.1l-1.37,4.47h2.78Z"/>
    <path class="cls-2" d="M85.46,134.21l1.12-.11c.17,1.02.78,1.48,2.11,1.48s1.99-.5,1.99-1.38c0-.82-.49-1.11-1.5-1.31l-1.22-.25c-1.46-.29-2.2-.99-2.2-2.27,0-1.44,1.07-2.32,3.02-2.32,1.8,0,2.81.75,3.01,2.29l-1.1.11c-.19-1.07-.77-1.47-1.93-1.47s-1.88.48-1.88,1.32c0,.75.42,1.14,1.43,1.34l1.18.23c1.53.3,2.33.89,2.33,2.23,0,1.5-1.14,2.4-3.16,2.4s-3.01-.79-3.19-2.29Z"/>
    <path class="cls-2" d="M93.79,133.28v-5.06h1.18v5c0,1.71.56,2.29,1.83,2.29s1.85-.59,1.85-2.29v-5h1.18v5.06c0,2.19-.98,3.22-3.02,3.22s-3-1.03-3-3.22Z"/>
    <path class="cls-2" d="M103.32,133.61v2.72h-1.18v-8.1h3.2c1.9,0,2.86.82,2.86,2.57v.15c0,1.83-1,2.67-2.83,2.67h-2.05ZM103.32,129.15v3.55h1.84c1.39,0,1.88-.55,1.88-1.77v-.11c0-1.19-.51-1.67-1.94-1.67h-1.78Z"/>
    <path class="cls-2" d="M111.43,129.19v2.58h3.86v.9h-3.86v2.71h4.63v.96h-5.78v-8.1h5.78v.96h-4.63Z"/>
    <path class="cls-2" d="M119.23,133.06v3.27h-1.17v-8.1h3.46c1.77,0,2.61.8,2.61,2.43,0,1.51-.8,2.29-2.32,2.35l2.4,3.32h-1.32l-2.37-3.27h-1.29ZM119.23,129.14v3.05h2.01c1.24,0,1.76-.42,1.76-1.52s-.47-1.53-1.74-1.53h-2.04Z"/>
    <path class="cls-2" d="M140.23,135.39v.94h-5.35v-.94h2.09v-6.22h-2.09v-.94h5.35v.94h-2.09v6.22h2.09Z"/>
    <path class="cls-2" d="M145.03,129.2h-2.86v-.98h6.89v.98h-2.86v7.13h-1.18v-7.13Z"/>
    <path class="cls-2" d="M154.53,134.57h-3.33l-.52,1.76h-1.17l2.63-8.1h1.55l2.62,8.1h-1.22l-.56-1.76ZM154.26,133.68l-1.32-4.47h-.1l-1.37,4.47h2.79Z"/>
    <path class="cls-2" d="M163.99,135.35v.98h-5.72v-8.1h1.17v7.13h4.55Z"/>
    <path class="cls-2" d="M171.49,135.39v.94h-5.35v-.94h2.09v-6.22h-2.09v-.94h5.35v.94h-2.09v6.22h2.09Z"/>
    <path class="cls-2" d="M173.17,132.28c0-2.65,1.1-4.23,3.4-4.23,2.01,0,2.89,1.01,3.16,2.77l-1.13.11c-.26-1.31-.77-1.89-2.06-1.89-1.51,0-2.16,1.15-2.16,3.24s.66,3.23,2.17,3.23c1.26,0,1.83-.61,2.06-1.89l1.13.11c-.26,1.77-1.21,2.77-3.21,2.77-2.27,0-3.36-1.58-3.36-4.22Z"/>
  </g>
  <g>
    <path class="cls-2" d="M1229.15,299.95h1.56l1.49,4.57h.11l1.5-4.57h1.56v8.1h-1.07v-3.74l.11-3.05h-.11l-1.55,4.61h-.99l-1.55-4.61h-.11l.12,3.05v3.74h-1.07v-8.1Z"/>
    <path class="cls-2" d="M1242.83,307.11v.94h-5.35v-.94h2.09v-6.22h-2.09v-.94h5.35v.94h-2.09v6.22h2.09Z"/>
    <path class="cls-2" d="M1250.87,307.08v.98h-5.72v-8.1h1.17v7.13h4.55Z"/>
    <path class="cls-2" d="M1257.67,306.29h-3.33l-.52,1.76h-1.17l2.63-8.1h1.55l2.62,8.1h-1.22l-.56-1.76ZM1257.4,305.41l-1.32-4.47h-.1l-1.37,4.47h2.79Z"/>
    <path class="cls-2" d="M1270.93,304.79v3.27h-1.17v-8.1h3.46c1.77,0,2.61.8,2.61,2.43,0,1.51-.8,2.29-2.32,2.35l2.4,3.32h-1.32l-2.37-3.27h-1.29ZM1270.93,300.86v3.05h2.01c1.24,0,1.76-.42,1.76-1.52s-.47-1.53-1.74-1.53h-2.04Z"/>
    <path class="cls-2" d="M1279.12,300.91v2.58h3.86v.9h-3.86v2.71h4.63v.96h-5.78v-8.1h5.78v.96h-4.63Z"/>
    <path class="cls-2" d="M1285.21,304.01c0-2.65,1.03-4.23,3.39-4.23,2.04,0,2.86,1.08,3.14,2.59l-1.15.11c-.25-1.18-.94-1.72-2.01-1.72-1.55,0-2.17,1.14-2.17,3.25s.63,3.28,2.13,3.28,2.08-.97,2.23-2.5h-2.01v-.83h3.06v4.1h-.9l-.13-1.47h-.11c-.27.75-.84,1.64-2.41,1.64-2.07,0-3.07-1.62-3.07-4.22Z"/>
    <path class="cls-2" d="M1293.84,305.01v-5.06h1.18v5c0,1.71.56,2.29,1.83,2.29s1.85-.59,1.85-2.29v-5h1.17v5.06c0,2.19-.98,3.22-3.02,3.22s-3-1.03-3-3.22Z"/>
    <path class="cls-2" d="M1308.01,307.08v.98h-5.72v-8.1h1.17v7.13h4.55Z"/>
    <path class="cls-2" d="M1314.81,306.29h-3.33l-.52,1.76h-1.17l2.63-8.1h1.55l2.62,8.1h-1.22l-.56-1.76ZM1314.54,305.41l-1.32-4.47h-.1l-1.37,4.47h2.78Z"/>
    <path class="cls-2" d="M1319.62,304.79v3.27h-1.17v-8.1h3.46c1.77,0,2.61.8,2.61,2.43,0,1.51-.8,2.29-2.32,2.35l2.4,3.32h-1.32l-2.37-3.27h-1.29ZM1319.62,300.86v3.05h2.01c1.24,0,1.76-.42,1.76-1.52s-.47-1.53-1.74-1.53h-2.04Z"/>
  </g>
  <g>
    <path class="cls-2" d="M1238.75,626.75h1.56l1.49,4.57h.11l1.5-4.57h1.56v8.1h-1.07v-3.74l.11-3.05h-.11l-1.55,4.61h-.99l-1.55-4.61h-.11l.13,3.05v3.74h-1.07v-8.1Z"/>
    <path class="cls-2" d="M1252.43,633.91v.94h-5.35v-.94h2.09v-6.22h-2.09v-.94h5.35v.94h-2.09v6.22h2.09Z"/>
    <path class="cls-2" d="M1260.47,633.88v.98h-5.72v-8.1h1.17v7.13h4.55Z"/>
    <path class="cls-2" d="M1267.27,633.09h-3.33l-.52,1.76h-1.17l2.63-8.1h1.55l2.62,8.1h-1.22l-.56-1.76ZM1267,632.2l-1.32-4.47h-.1l-1.37,4.47h2.78Z"/>
    <path class="cls-2" d="M1284.92,633.91v.94h-5.35v-.94h2.09v-6.22h-2.09v-.94h5.35v.94h-2.09v6.22h2.09Z"/>
    <path class="cls-2" d="M1289.72,627.73h-2.86v-.98h6.89v.98h-2.86v7.13h-1.18v-7.13Z"/>
    <path class="cls-2" d="M1299.22,633.09h-3.33l-.52,1.76h-1.17l2.63-8.1h1.55l2.62,8.1h-1.22l-.56-1.76ZM1298.95,632.2l-1.32-4.47h-.1l-1.37,4.47h2.79Z"/>
    <path class="cls-2" d="M1308.68,633.88v.98h-5.72v-8.1h1.17v7.13h4.55Z"/>
    <path class="cls-2" d="M1316.18,633.91v.94h-5.35v-.94h2.09v-6.22h-2.09v-.94h5.35v.94h-2.09v6.22h2.09Z"/>
    <path class="cls-2" d="M1317.86,630.81c0-2.65,1.1-4.23,3.4-4.23,2.01,0,2.89,1.01,3.16,2.77l-1.13.11c-.26-1.31-.77-1.89-2.06-1.89-1.51,0-2.16,1.15-2.16,3.24s.66,3.23,2.17,3.23c1.26,0,1.83-.61,2.06-1.89l1.13.11c-.26,1.77-1.21,2.77-3.21,2.77-2.27,0-3.36-1.58-3.36-4.22Z"/>
  </g>
  <g>
    <path class="cls-2" d="M46.32,448.84h1.56l1.49,4.57h.11l1.5-4.57h1.56v8.1h-1.07v-3.74l.11-3.05h-.11l-1.55,4.61h-.99l-1.55-4.61h-.11l.13,3.05v3.74h-1.07v-8.1Z"/>
    <path class="cls-2" d="M59.99,456v.94h-5.35v-.94h2.09v-6.22h-2.09v-.94h5.35v.94h-2.09v6.22h2.09Z"/>
    <path class="cls-2" d="M68.03,455.97v.98h-5.72v-8.1h1.17v7.13h4.55Z"/>
    <path class="cls-2" d="M74.83,455.18h-3.33l-.52,1.76h-1.17l2.63-8.1h1.55l2.62,8.1h-1.22l-.56-1.76ZM74.56,454.3l-1.32-4.47h-.1l-1.37,4.47h2.79Z"/>
    <path class="cls-2" d="M86.64,454.82l1.12-.11c.17,1.02.78,1.48,2.11,1.48s1.99-.5,1.99-1.38c0-.82-.49-1.11-1.5-1.31l-1.22-.25c-1.46-.29-2.2-.99-2.2-2.27,0-1.44,1.07-2.32,3.02-2.32,1.8,0,2.81.75,3.01,2.29l-1.1.11c-.19-1.07-.77-1.47-1.93-1.47s-1.88.48-1.88,1.32c0,.75.42,1.14,1.43,1.34l1.18.23c1.53.3,2.33.89,2.33,2.23,0,1.5-1.14,2.4-3.16,2.4s-3.01-.79-3.19-2.29Z"/>
    <path class="cls-2" d="M94.97,453.9v-5.06h1.18v5c0,1.71.57,2.29,1.83,2.29s1.85-.59,1.85-2.29v-5h1.17v5.06c0,2.19-.98,3.22-3.02,3.22s-3-1.03-3-3.22Z"/>
    <path class="cls-2" d="M104.49,454.23v2.72h-1.17v-8.1h3.2c1.9,0,2.86.82,2.86,2.57v.15c0,1.83-1,2.67-2.83,2.67h-2.05ZM104.49,449.76v3.55h1.84c1.39,0,1.88-.55,1.88-1.77v-.11c0-1.19-.51-1.67-1.94-1.67h-1.78Z"/>
    <path class="cls-2" d="M112.61,449.8v2.58h3.86v.9h-3.86v2.71h4.63v.96h-5.78v-8.1h5.78v.96h-4.63Z"/>
    <path class="cls-2" d="M120.41,453.68v3.27h-1.17v-8.1h3.46c1.77,0,2.61.8,2.61,2.43,0,1.51-.8,2.29-2.32,2.35l2.4,3.32h-1.32l-2.37-3.27h-1.29ZM120.41,449.76v3.05h2.01c1.24,0,1.76-.42,1.76-1.52s-.47-1.53-1.73-1.53h-2.04Z"/>
    <path class="cls-2" d="M141.41,456v.94h-5.35v-.94h2.09v-6.22h-2.09v-.94h5.35v.94h-2.09v6.22h2.09Z"/>
    <path class="cls-2" d="M146.2,449.82h-2.86v-.98h6.89v.98h-2.86v7.13h-1.18v-7.13Z"/>
    <path class="cls-2" d="M155.71,455.18h-3.33l-.52,1.76h-1.17l2.63-8.1h1.55l2.62,8.1h-1.22l-.56-1.76ZM155.44,454.3l-1.32-4.47h-.1l-1.37,4.47h2.78Z"/>
    <path class="cls-2" d="M165.17,455.97v.98h-5.72v-8.1h1.17v7.13h4.55Z"/>
    <path class="cls-2" d="M172.67,456v.94h-5.35v-.94h2.09v-6.22h-2.09v-.94h5.35v.94h-2.09v6.22h2.09Z"/>
    <path class="cls-2" d="M174.34,452.9c0-2.65,1.1-4.23,3.4-4.23,2.01,0,2.89,1.01,3.16,2.77l-1.13.11c-.26-1.31-.77-1.89-2.06-1.89-1.51,0-2.16,1.15-2.16,3.24s.66,3.23,2.17,3.23c1.26,0,1.83-.61,2.06-1.89l1.13.11c-.26,1.77-1.21,2.77-3.21,2.77-2.27,0-3.36-1.58-3.36-4.22Z"/>
  </g>
</svg>