<?xml version="1.0" encoding="UTF-8"?>
<svg id="Layer_1" data-name="Layer 1" xmlns="http://www.w3.org/2000/svg" xmlns:xlink="http://www.w3.org/1999/xlink" viewBox="0 0 1366 768">
  <defs>
    <style>
      .cls-1 {
        fill: #dde0e4;
      }

      .cls-2 {
        fill: #f38f1e;
      }

      .cls-3 {
        fill: #ccbbe4;
      }

      .cls-4 {
        clip-path: url(#clippath);
      }
    </style>
    <clipPath id="clippath">
      <rect x="-10" y="-10" width="1386" height="788"/>
    </clipPath>
  </defs>
  <g>
    <rect x="-10" y="-10" width="1386" height="788"/>
    <g class="cls-4">
      <rect x="-.35" y="-3.25" width="1366.71" height="779.89"/>
    </g>
  </g>
  <g>
    <path class="cls-2" d="M228.81,558.41l15.2-7.4,41-104.2-20.6-5.4v-3h67.6v3l-19.2,5.4,37.8,104.4,13,7.2v3h-65.6v-3l17.2-7.4-7.6-23h-41.8l-7.8,23,24.8,7.4v3h-54v-3ZM303.8,516.81l-16.6-50.6-17.4,50.6h34Z"/>
    <path class="cls-2" d="M412,486.41c-8.4,0-12.8,4.2-12.8,10.2,0,6.6,4.4,9.2,14.6,12.6,17.8,6,27.4,12,27.4,27.4,0,17.4-13.4,28-38.6,28-11.2,0-23.8-2.2-33-6.6v-28.6h3c.6,19.4,10.6,26.6,25,26.6,9,0,14-3.6,14-9.6,0-6.4-4.2-8.4-17.6-12.6-13.4-4.2-24.2-11.4-24.2-27.4,0-18.6,15-28.2,38.8-28.2,8.8,0,17.8,1.2,26.6,4.6v29h-3c-1.4-17.4-8-25.4-20.2-25.4Z"/>
    <path class="cls-2" d="M492.6,486.41c-8.4,0-12.8,4.2-12.8,10.2,0,6.6,4.4,9.2,14.6,12.6,17.8,6,27.4,12,27.4,27.4,0,17.4-13.4,28-38.6,28-11.2,0-23.8-2.2-33-6.6v-28.6h3c.6,19.4,10.6,26.6,25,26.6,9,0,14-3.6,14-9.6,0-6.4-4.2-8.4-17.6-12.6-13.4-4.2-24.2-11.4-24.2-27.4,0-18.6,15-28.2,38.8-28.2,8.8,0,17.8,1.2,26.6,4.6v29h-3c-1.4-17.4-8-25.4-20.2-25.4Z"/>
    <path class="cls-2" d="M530.8,521.61c0-26.2,17.6-43.4,46-43.4s43.4,17.2,43.4,43.4-18.2,43-45,43-44.4-16.8-44.4-43ZM588,528.61c0-18.8-2.4-40.2-13.8-40.2-8.4,0-11.2,9.8-11.2,25.8,0,18.8,2.4,40.2,14,40.2,8.4,0,11-10.4,11-25.8Z"/>
    <path class="cls-2" d="M671,564.61c-25.8,0-40.8-18-40.8-42.2,0-26.6,15.8-44.2,47.4-44.2,10,0,19.4,1.6,27.8,5.2v28.4h-3c-2.8-15-7.8-25-20.4-25-13.4,0-19.8,10.6-19.8,27.8,0,21.2,9,33.8,23.6,33.8,9.4,0,16.8-5,19.8-19h3c-1.8,23.8-15.2,35.2-37.6,35.2Z"/>
    <path class="cls-2" d="M719.6,493.21v-3l40.4-12v74.8l10.2,5.4v3h-50.6v-3l10.2-5.4v-59.8h-10.2ZM726,450.22c0-10.2,8.4-17.6,18-17.6s18.2,7.4,18.2,17.6-8.4,17.8-18.2,17.8-18-7.4-18-17.8Z"/>
    <path class="cls-2" d="M859.6,550.61c4,0,5-3.8,5-10v-12.6h3.4v13c0,16-6,23.6-21.4,23.6-10,0-17.4-4.8-20.8-12.6-2.8,6.6-9.2,12.6-23,12.6s-24.6-9.8-24.6-25.4c0-20.8,14.8-28,32.2-28,5.2,0,9.6.6,13.6,1.6v-10.6c0-10.4-4-15.8-13.2-15.8-10.2,0-16.8,5-19.6,25.4h-3v-29c9.6-3,19.2-4.6,27.8-4.6,27.8,0,38.2,11.2,38.2,35.2v27.2c0,7,1.2,10,5.4,10ZM817.2,550.61c6,0,6.8-8.8,6.8-13.6v-15.4c-1.8-.8-3.4-1-5.2-1-6.4,0-9,6-9,15.8,0,10.6,3.2,14.2,7.4,14.2Z"/>
    <path class="cls-2" d="M914,490.21v46.6c0,9.6,4.4,13,11.2,13s10.8-3.2,12.2-14.8h3c-1.4,17.8-9.8,29.6-29.4,29.6-16.6,0-27.2-8.6-27.2-27.2v-47.2h-12.8v-3c23.4-2.6,34.4-14.2,39.6-33.8h3.4v28h25.8v8.8h-25.8Z"/>
    <path class="cls-2" d="M1023.4,530.21h3c-1,9.4-5.6,34.4-38.2,34.4-28.2,0-41.8-20.6-41.8-42,0-25.2,13.4-44.4,42.6-44.4,26.2,0,39,18.6,37.2,41.6h-47.6c1.4,17.2,9.2,28.4,24.2,28.4,10.6,0,17.4-4.8,20.6-18ZM997.4,509.61c0-14.6-2-22.8-8.4-22.8s-10,7.6-10.6,22.8h19Z"/>
    <path class="cls-2" d="M1035.39,522.01c0-26,13.8-43.8,38.6-43.8,9.8,0,17.2,3.2,21.6,8.6v-47l-21.4-5.4v-3h63v3l-11.4,5.4v113.2l11.4,5.4v3h-41.6v-11c-3.8,7.4-11.4,14.2-26,14.2-21.4,0-34.2-16-34.2-42.6ZM1095.59,532.61v-22.2c0-14.4-4.2-22-13-22-10.6,0-15,10.4-15,29.2,0,20,5.4,31.8,15.6,31.8,7.6,0,12.4-5.2,12.4-16.8Z"/>
    <path class="cls-2" d="M475.4,706.01v-102.2l-15.6-7.4v-3h65.8c37,0,53.4,11.2,53.4,34.4s-19,34.2-52.8,34.2h-12.2v-4c20.6-1.2,29.8-10,29.8-28.2,0-15.6-8-25.2-23.8-25.2h-11.2v15.6l-.2,85.8,25.8,7.4v3h-74.6v-3l15.6-7.4Z"/>
    <path class="cls-2" d="M643.4,652.41c-8.6,0-14,7.4-14,23.4v32.2l22,5.4v3h-62.4v-3l10.2-5.4v-59.8h-10.2v-3l40.4-12v18.6c.4-1,1-2.2,1.6-3.2,5.8-9.4,12.6-15.4,27-15.4v33.6h-3c-2.4-11-5.6-14.4-11.6-14.4Z"/>
    <path class="cls-2" d="M743,685.21h3c-1,9.4-5.6,34.4-38.2,34.4-28.2,0-41.8-20.6-41.8-42,0-25.2,13.4-44.4,42.6-44.4,26.2,0,39,18.6,37.2,41.6h-47.6c1.4,17.2,9.2,28.4,24.2,28.4,10.6,0,17.4-4.8,20.6-18ZM717,664.61c0-14.6-2-22.8-8.4-22.8s-10,7.6-10.6,22.8h19Z"/>
    <path class="cls-2" d="M797.4,641.41c-8.4,0-12.8,4.2-12.8,10.2,0,6.6,4.4,9.2,14.6,12.6,17.8,6,27.4,12,27.4,27.4,0,17.4-13.4,28-38.6,28-11.2,0-23.8-2.2-33-6.6v-28.6h3c.6,19.4,10.6,26.6,25,26.6,9,0,14-3.6,14-9.6,0-6.4-4.2-8.4-17.6-12.6-13.4-4.2-24.2-11.4-24.2-27.4,0-18.6,15-28.2,38.8-28.2,8.8,0,17.8,1.2,26.6,4.6v29h-3c-1.4-17.4-8-25.4-20.2-25.4Z"/>
    <path class="cls-2" d="M878,641.41c-8.4,0-12.8,4.2-12.8,10.2,0,6.6,4.4,9.2,14.6,12.6,17.8,6,27.4,12,27.4,27.4,0,17.4-13.4,28-38.6,28-11.2,0-23.8-2.2-33-6.6v-28.6h3c.6,19.4,10.6,26.6,25,26.6,9,0,14-3.6,14-9.6,0-6.4-4.2-8.4-17.6-12.6-13.4-4.2-24.2-11.4-24.2-27.4,0-18.6,15-28.2,38.8-28.2,8.8,0,17.8,1.2,26.6,4.6v29h-3c-1.4-17.4-8-25.4-20.2-25.4Z"/>
  </g>
  <g>
    <path class="cls-3" d="M84.82,201.5h-51.2v-2l15.6-4v-111l-15.6-4v-2h51.2c44.8,0,69.6,22.2,69.6,61.6s-24.8,61.4-69.6,61.4ZM136.22,139.9c0-37.4-17.8-54.6-53.4-54.6l-16.2.2v109h16.2c35.6,0,53.4-17.2,53.4-54.6Z"/>
    <path class="cls-3" d="M239.44,192.9c5.6,0,8.2-4,8.2-12.4v-6h2v7c0,11.2-2.2,21.6-16.4,21.6-8.4,0-15.4-3.8-16.4-13-3.6,8.4-11,14.6-23.2,14.6-15.8,0-26.8-9.6-26.8-24.8,0-18.6,13.4-26.8,30.6-26.8,8.4,0,14.4,2,19.2,4.8v-14.2c0-12.4-4.8-19.2-16.2-19.2s-18.8,6.4-22.2,24.4h-2v-27.4c9.4-1.8,18-3.2,25.8-3.2,23.2,0,30.8,9,30.8,28.2v38.4c0,5.6,2.4,8,6.6,8ZM198.84,192.9c14.4,0,17.8-11.2,17.8-18.8v-9.8c-4-3.4-10-5.4-16-5.4-10.8,0-18.2,6.4-18.2,17.6,0,9.4,5.6,16.4,16.4,16.4Z"/>
    <path class="cls-3" d="M288.2,118.3v77.2l14,4v2h-44.4v-2l14.2-4v-66.4h-14.2v-1.8l30.4-9ZM269.4,87.1c0-6.2,5.2-10.8,11-10.8s11.2,4.6,11.2,10.8-5.2,11-11.2,11-11-4.6-11-11Z"/>
    <path class="cls-3" d="M300.38,71.5h57.8v2l-27.2,3.2v100.8c0,9.8,2.6,16.4,12.2,16.4,6.8,0,12-2.8,14-13.2h2c-1.8,14-8.2,24-23,24-13.8,0-21.4-7.2-21.4-24l-.2-91.8v-11.6l-14.2-3.8v-2Z"/>
    <path class="cls-3" d="M350.32,123.5v-2h44.6v2l-17,3.2,23.6,60.2,22.6-60.2-18.4-3.2v-2h32.2v2l-7.2,3.2-35.8,93.6c-10.2,26.8-19,33.6-33.8,33.6-3,0-6.4.2-10.4-2v-27h2c3.2,16.4,9.2,20.2,15.2,20.2,7.4,0,13-6,23.2-32.4l2-5-33.4-81-9.4-3.2Z"/>
    <path class="cls-3" d="M610.31,161.3l-4.4,35.2c-8,4.6-25.2,8.2-40.4,8.2-40.8,0-64.8-25.4-64.8-64,0-36.6,24-65.4,65.2-65.4,15.2,0,30.4,2.6,40.4,5v38.6h-2c-4.8-27.4-20.4-36.4-38.4-36.4-33.4,0-46.6,24.8-46.6,55,0,33,16.2,59.2,48.8,59.2,19.8,0,34-8.8,40.2-35.4h2Z"/>
    <path class="cls-3" d="M669.11,129.1c-12.8,0-21,8-21,27.4v39l14,4v2h-44.4v-2l14.2-4v-118.2l-14.2-3.8v-2h57.8v2l-27.4,3.2v58c5.6-11.4,16.2-16.4,28-16.4,17.6,0,26.8,11.8,26.8,29.6v47.6l14,4v2h-44.4v-2l14.2-4v-42.4c0-12.6-2-24-17.6-24Z"/>
    <path class="cls-3" d="M774.59,133.3c-13.8,0-17.8,18.8-17.8,29.2v33l22,4v2h-52.4v-2l14.2-4v-65.2h-14.2v-1.8l29.4-10.2v25c1-2.4,2-4.4,3.2-6.6,6.4-11.2,16.8-18.4,30.4-18.4v30.6h-2c-1.8-11.4-5.6-15.6-12.8-15.6Z"/>
    <path class="cls-3" d="M799.77,161.7c0-25.6,15-43.2,43-43.2,25.4,0,40.4,17.6,40.4,43.2s-15,43.2-42,43.2-41.4-17.6-41.4-43.2ZM866.97,164.5c0-20.4-8.2-39.8-25.8-39.8s-25.2,14-25.2,34.2,8.6,39.8,26.8,39.8,24.2-14,24.2-34.2Z"/>
    <path class="cls-3" d="M890.31,129.1v-1.8l29.4-9v19c5-12.8,16-19,28.8-19,18.2,0,27,12.2,27,29.6v47.6l14,4v2h-44.4v-2l14.2-4v-42.4c0-15-3.6-24-18-24-13,0-20.6,9.4-20.6,26.6v39.8l14,4v2h-44.4v-2l14.2-4v-66.4h-14.2Z"/>
    <path class="cls-3" d="M1029.39,118.3v77.2l14,4v2h-44.4v-2l14.2-4v-66.4h-14.2v-1.8l30.4-9ZM1010.59,87.1c0-6.2,5.2-10.8,11-10.8s11.2,4.6,11.2,10.8-5.2,11-11.2,11-11-4.6-11-11Z"/>
    <path class="cls-3" d="M1085.96,204.7c-25.4,0-37.4-19.6-37.4-42.2,0-23.8,12.2-44.2,42.2-44.2,9.2,0,18,1.6,25.4,3.6v27h-2c-2.8-15.6-11.2-24.6-26.4-24.6-18.6,0-26,13.8-26,31.4s9.2,37,31.2,37c12,0,20.6-6,23.4-18.4h2c-2.8,19-13.6,30.4-32.4,30.4Z"/>
    <path class="cls-3" d="M1120.92,71.5h57.8v2l-27.2,3.2v100.8c0,9.8,2.6,16.4,12.2,16.4,6.8,0,12-2.8,14-13.2h2c-1.8,14-8.2,24-23,24-13.8,0-21.4-7.2-21.4-24l-.2-91.8v-11.6l-14.2-3.8v-2Z"/>
    <path class="cls-3" d="M1257.48,174.3h2c-2,15.2-10.8,30.4-32.4,30.4-24.8,0-38.2-19.6-38.2-43s13.4-43.4,37.8-43.4,34.8,20,32.4,39.6h-57c1,20.6,12.2,34.8,31.2,34.8,12.6,0,20.2-4.6,24.2-18.4ZM1243.88,151.9c0-15-5.8-27.6-20.6-27.6-12.8,0-20.4,9-21.2,27.6h41.8Z"/>
    <path class="cls-3" d="M1303.58,124.5c-10.8,0-17,4.8-17,13,0,6.8,3.8,11,18.8,15.8,17.8,5.8,29.6,10.8,29.6,26.8,0,14.8-11,24.6-32,24.6-8.8,0-18.2-1.8-29.6-6.4v-24h2c2.6,18,15.4,24.4,29.2,24.4,12.4,0,17.6-6,17.6-13.4,0-8.2-4.6-11.8-20.6-16.4-18.4-5.2-27.4-11.8-27.4-26.6s11.2-24,29.8-24c9,0,15.2.8,26,3.2v27.4h-2c-2.4-13.6-7.8-24.4-24.4-24.4Z"/>
  </g>
  <g>
    <path class="cls-1" d="M348.56,383.24v-111l-15.6-4v-2h47.8c32.4,0,48.4,11.2,48.4,32.4,0,24-18.6,34.6-52.8,34.6h-5.2v-2.4c25.4-.2,38.8-10.8,38.8-30.8,0-18.2-10.8-26.8-32.8-26.8h-11.2v110l21.6,4v2h-54.6v-2l15.6-4Z"/>
    <path class="cls-1" d="M433.36,349.44c0-25.6,15-43.2,43-43.2,25.4,0,40.4,17.6,40.4,43.2s-15,43.2-42,43.2-41.4-17.6-41.4-43.2ZM500.56,352.24c0-20.4-8.2-39.8-25.8-39.8s-25.2,14-25.2,34.2,8.6,39.8,26.8,39.8,24.2-14,24.2-34.2Z"/>
    <path class="cls-1" d="M523.27,319.24v-2l31-11.2v16.6c5-9.8,14.4-16.6,28.2-16.6,22.6,0,33.4,18,33.4,40,0,27.6-11.6,46.4-38.8,46.4-8.6,0-16.6-2.6-22.4-7.4v49l20,4.4v2h-50.4v-2l14.2-4.4v-114.8h-15.2ZM600.47,348.04c0-21.6-8.8-32.6-22.8-32.6-17.6,0-23,12.8-23,29.4v25.4c2.8,11.6,12.6,16,21.8,16,22.2,0,24-22.2,24-38.2Z"/>
    <path class="cls-1" d="M660.71,312.24c-10.8,0-17,4.8-17,13,0,6.8,3.8,11,18.8,15.8,17.8,5.8,29.6,10.8,29.6,26.8,0,14.8-11,24.6-32,24.6-8.8,0-18.2-1.8-29.6-6.4v-24h2c2.6,18,15.4,24.4,29.2,24.4,12.4,0,17.6-6,17.6-13.4,0-8.2-4.6-11.8-20.6-16.4-18.4-5.2-27.4-11.8-27.4-26.6s11.2-24,29.8-24c9,0,15.2.8,26,3.2v27.4h-2c-2.4-13.6-7.8-24.4-24.4-24.4Z"/>
    <path class="cls-1" d="M730.05,306.04v77.2l14,4v2h-44.4v-2l14.2-4v-66.4h-14.2v-1.8l30.4-9ZM711.25,274.84c0-6.2,5.2-10.8,11-10.8s11.2,4.6,11.2,10.8-5.2,11-11.2,11-11-4.6-11-11Z"/>
    <path class="cls-1" d="M786.63,392.44c-25.4,0-37.4-19.6-37.4-42.2,0-23.8,12.2-44.2,42.2-44.2,9.2,0,18,1.6,25.4,3.6v27h-2c-2.8-15.6-11.2-24.6-26.4-24.6-18.6,0-26,13.8-26,31.4s9.2,37,31.2,37c12,0,20.6-6,23.4-18.4h2c-2.8,19-13.6,30.4-32.4,30.4Z"/>
    <path class="cls-1" d="M821.59,259.24h57.8v2l-27.2,3.2v100.8c0,9.8,2.6,16.4,12.2,16.4,6.8,0,12-2.8,14-13.2h2c-1.8,14-8.2,24-23,24-13.8,0-21.4-7.2-21.4-24l-.2-91.8v-11.6l-14.2-3.8v-2Z"/>
    <path class="cls-1" d="M958.14,362.04h2c-2,15.2-10.8,30.4-32.4,30.4-24.8,0-38.2-19.6-38.2-43s13.4-43.4,37.8-43.4,34.8,20,32.4,39.6h-57c1,20.6,12.2,34.8,31.2,34.8,12.6,0,20.2-4.6,24.2-18.4ZM944.55,339.64c0-15-5.8-27.6-20.6-27.6-12.8,0-20.4,9-21.2,27.6h41.8Z"/>
    <path class="cls-1" d="M1004.24,312.24c-10.8,0-17,4.8-17,13,0,6.8,3.8,11,18.8,15.8,17.8,5.8,29.6,10.8,29.6,26.8,0,14.8-11,24.6-32,24.6-8.8,0-18.2-1.8-29.6-6.4v-24h2c2.6,18,15.4,24.4,29.2,24.4,12.4,0,17.6-6,17.6-13.4,0-8.2-4.6-11.8-20.6-16.4-18.4-5.2-27.4-11.8-27.4-26.6s11.2-24,29.8-24c9,0,15.2.8,26,3.2v27.4h-2c-2.4-13.6-7.8-24.4-24.4-24.4Z"/>
  </g>
</svg>