<?xml version="1.0" encoding="UTF-8"?>
<svg id="Layer_1" data-name="Layer 1" xmlns="http://www.w3.org/2000/svg" xmlns:xlink="http://www.w3.org/1999/xlink" viewBox="0 0 1366 768">
  <defs>
    <style>
      .cls-1 {
        fill: #b9cae6;
      }

      .cls-2 {
        fill: #12100b;
      }

      .cls-3 {
        fill: none;
        stroke: #12100b;
        stroke-miterlimit: 10;
      }

      .cls-4 {
        clip-path: url(#clippath);
      }
    </style>
    <clipPath id="clippath">
      <rect class="cls-1" x="-10" y="-10.09" width="1386" height="788"/>
    </clipPath>
  </defs>
  <g>
    <rect class="cls-1" x="-10" y="-10.09" width="1386" height="788"/>
    <g class="cls-4">
      <rect class="cls-1" x="-.35" y="-3.34" width="1366.71" height="779.89"/>
    </g>
  </g>
  <path class="cls-2" d="M57.16,715.56c-3.58-2.45-6.35-5.84-8.31-10.15-1.96-4.31-2.94-9.17-2.94-14.57s.96-10.27,2.89-14.62c1.93-4.35,4.66-7.75,8.2-10.2,3.54-2.45,7.66-3.68,12.36-3.68,5.47,0,10.11,1.6,13.94,4.79,3.82,3.19,6.5,7.42,8.05,12.67v-16.2h1.79v54.38h-1.79v-16.09c-1.54,5.26-4.21,9.47-7.99,12.62-3.79,3.16-8.38,4.73-13.78,4.73-4.7,0-8.83-1.23-12.41-3.68ZM50.54,704.47c1.82,4.03,4.38,7.19,7.68,9.47,3.29,2.28,7.08,3.42,11.36,3.42s8.26-1.17,11.52-3.52c3.26-2.35,5.77-5.47,7.52-9.36,1.75-3.89,2.63-8.08,2.63-12.57v-2.31c0-4.56-.88-8.76-2.63-12.62-1.75-3.85-4.29-6.94-7.62-9.25-3.33-2.31-7.2-3.47-11.62-3.47s-8.05,1.16-11.31,3.47c-3.26,2.31-5.78,5.49-7.57,9.52-1.79,4.03-2.68,8.57-2.68,13.62s.91,9.59,2.74,13.62Z"/>
  <path class="cls-2" d="M196.85,705.04c-1.75,4.63-4.45,8.15-8.1,10.57-3.65,2.42-7.89,3.63-12.73,3.63-5.68,0-10.17-1.37-13.46-4.1-3.3-2.73-4.94-6.27-4.94-10.62,0-3.72,1.09-6.92,3.26-9.62,2.17-2.7,6.13-4.87,11.88-6.52,5.75-1.65,13.74-2.47,23.98-2.47v-3.26c0-5.75-1.42-10.1-4.26-13.04-2.84-2.94-6.82-4.42-11.94-4.42-10.73,0-16.9,5.68-18.51,17.04h-3.26c.84-6.73,3.16-11.73,6.94-14.99s8.73-4.89,14.83-4.89,10.83,1.72,14.2,5.15c3.37,3.44,5.05,8.52,5.05,15.25v35.23h-2.94v-12.94ZM164.98,713.09c2.8,2.21,6.56,3.31,11.25,3.31,6.17,0,11.11-2.07,14.83-6.21,3.72-4.14,5.57-9.71,5.57-16.72v-4.84c-9.4,0-16.74.7-22.03,2.1-5.29,1.4-8.92,3.24-10.89,5.52-1.96,2.28-2.95,5.03-2.95,8.26,0,3.51,1.4,6.36,4.21,8.57Z"/>
  <path class="cls-2" d="M301.88,716.82c-2.91,1.61-6.71,2.42-11.41,2.42-4.07,0-7.64-.77-10.73-2.31-3.09-1.54-5.43-3.65-7.05-6.31-1.61-2.66-2.42-5.64-2.42-8.94,0-5.12,1.82-9.24,5.47-12.36,3.65-3.12,8.62-4.68,14.94-4.68,4.42,0,8.17.77,11.25,2.31,3.08,1.54,5.36,3.72,6.84,6.52v-11.57c0-5.12-1.32-8.99-3.94-11.62-2.63-2.63-6.4-3.94-11.31-3.94-4.21,0-7.7.95-10.46,2.84-2.77,1.89-4.58,4.7-5.42,8.41h-4.84c.91-4.84,3.19-8.59,6.84-11.25,3.65-2.66,8.27-4,13.88-4,6.38,0,11.29,1.68,14.72,5.05,3.43,3.37,5.15,8.13,5.15,14.3v36.29h-4.31v-8.41c-1.89,3.23-4.3,5.64-7.21,7.26ZM300.57,713.51c2.59-1.23,4.61-2.86,6.05-4.89,1.44-2.03,2.16-4.21,2.16-6.52,0-2.52-.72-4.82-2.16-6.89-1.44-2.07-3.45-3.7-6.05-4.89-2.59-1.19-5.54-1.79-8.83-1.79-5.19,0-9.24,1.21-12.15,3.63-2.91,2.42-4.37,5.63-4.37,9.62s1.47,7.17,4.42,9.73c2.95,2.56,6.98,3.84,12.1,3.84,3.29,0,6.24-.61,8.83-1.84Z"/>
  <path class="cls-2" d="M415.64,710.93l-.21-2.42c-1.89,3.44-4.45,6.07-7.68,7.89-3.23,1.82-7.01,2.73-11.36,2.73-5.61,0-10.15-1.45-13.62-4.36-3.47-2.91-5.21-6.68-5.21-11.31,0-4.35,1.53-7.89,4.58-10.62s7.52-4.49,13.41-5.26l19.35-2.42v-3.05c0-4.49-1.19-7.89-3.58-10.2-2.38-2.31-5.72-3.47-9.99-3.47s-7.64.95-10.1,2.84c-2.46,1.89-4.03,4.88-4.73,8.94h-7.36c.84-5.68,3.16-10.1,6.94-13.25s8.87-4.73,15.25-4.73,11.6,1.74,15.25,5.21c3.65,3.47,5.47,8.57,5.47,15.3v23.67c0,2.59.47,4.38,1.42,5.36.95.98,2.65,1.44,5.1,1.37v4.73c-1.4.28-2.8.42-4.21.42-5.19,0-8.1-2.45-8.73-7.36ZM388.51,710.51c2.24,1.82,5.19,2.73,8.83,2.73,5.26,0,9.48-1.59,12.67-4.79,3.19-3.19,4.79-7.31,4.79-12.36v-5.79l-17.77,2.84c-4.07.63-7.07,1.79-8.99,3.47-1.93,1.68-2.89,3.93-2.89,6.73,0,2.95,1.12,5.33,3.37,7.15Z"/>
  <path class="cls-2" d="M495.8,671.49c1.96-2.95,4.66-5.22,8.1-6.84,3.43-1.61,7.29-2.42,11.57-2.42h.42c6.38,0,11.36,1.51,14.94,4.52,3.58,3.02,5.36,7.22,5.36,12.62v29.13c0,3.3.21,6.42.63,9.36h-7.99c-.35-3.5-.53-6.56-.53-9.15-2.1,3.51-4.66,6.12-7.68,7.84-3.02,1.72-6.63,2.58-10.83,2.58-5.33,0-9.69-1.42-13.09-4.26-3.4-2.84-5.1-6.54-5.1-11.1s1.44-8.2,4.31-10.94c2.87-2.73,7.22-4.73,13.04-6l10.52-2.31c2.87-.63,4.87-1.49,6-2.58,1.12-1.09,1.68-2.51,1.68-4.26,0-2.31-.98-4.24-2.95-5.78-1.96-1.54-4.77-2.31-8.41-2.31h-.32c-4.14,0-7.47,1.05-9.99,3.16-2.52,2.1-3.93,5.05-4.21,8.83h-8.52c.07-3.79,1.09-7.15,3.05-10.1ZM503.48,709.57c1.96,1.61,4.73,2.42,8.31,2.42,4.84,0,8.71-1.54,11.62-4.63,2.91-3.08,4.36-7.05,4.36-11.88v-6.94c-2.24.91-4.52,1.68-6.84,2.31l-10.52,2.84c-3.58.98-6.12,2.24-7.63,3.79-1.51,1.54-2.26,3.51-2.26,5.89,0,2.52.98,4.59,2.94,6.21Z"/>
  <path class="cls-2" d="M638.96,710.41c-4.21,5.82-10.13,8.73-17.77,8.73-3.86,0-7.31-.68-10.36-2.05-3.05-1.37-5.42-3.28-7.1-5.73-1.68-2.45-2.52-5.26-2.52-8.42,0-9.75,6.45-15.29,19.35-16.62l17.67-1.79v-3.58c0-3.51-1.05-6.13-3.16-7.89-2.1-1.75-4.98-2.63-8.62-2.63-4.07,0-7.21.79-9.41,2.37-2.21,1.58-3.56,4.05-4.05,7.42h-10.52c.7-5.89,3.12-10.36,7.26-13.41,4.14-3.05,9.71-4.58,16.72-4.58s12.36,1.6,16.25,4.79c3.89,3.19,5.84,8.01,5.84,14.46v36.39h-9.57v-7.47ZM615.14,708.78c2,1.58,4.79,2.37,8.36,2.37,4.56,0,8.12-1.31,10.68-3.94,2.56-2.63,3.84-6.19,3.84-10.67v-4.94l-15.04,1.89c-3.93.49-6.71,1.49-8.36,3-1.65,1.51-2.47,3.56-2.47,6.15s1,4.58,3,6.15Z"/>
  <path class="cls-2" d="M749.41,710.72c-4.14,5.61-9.96,8.41-17.46,8.41-3.93,0-7.42-.7-10.46-2.1-3.05-1.4-5.42-3.33-7.1-5.78-1.68-2.45-2.52-5.22-2.52-8.31,0-9.82,6.52-15.42,19.56-16.83l16.93-1.68v-3.16c0-3.22-.93-5.64-2.79-7.26-1.86-1.61-4.47-2.42-7.83-2.42-3.65,0-6.45.68-8.42,2.05-1.96,1.37-3.19,3.56-3.68,6.57h-12.52c.7-5.89,3.16-10.36,7.36-13.41,4.21-3.05,9.92-4.58,17.14-4.58s12.97,1.63,17.04,4.89c4.07,3.26,6.1,8.19,6.1,14.78v35.97h-11.36v-7.15ZM727.64,708.09c1.82,1.47,4.31,2.21,7.47,2.21,4.14,0,7.36-1.24,9.68-3.73,2.31-2.49,3.47-5.8,3.47-9.94v-4.42l-13.46,1.68c-3.51.49-6.03,1.44-7.57,2.84-1.54,1.4-2.31,3.33-2.31,5.79,0,2.24.91,4.1,2.73,5.57Z"/>
  <path class="cls-2" d="M827.04,671.81c2.1-3.01,5.01-5.35,8.73-6.99,3.71-1.65,7.92-2.47,12.62-2.47h.84c7.36,0,13.01,1.75,16.93,5.26,3.93,3.51,5.89,8.34,5.89,14.51v24.19c0,4.77.24,8.66.74,11.67h-12.83c-.35-2.45-.53-4.94-.53-7.47-4,5.82-9.89,8.73-17.67,8.73-5.61,0-10.19-1.47-13.73-4.42-3.54-2.95-5.31-6.77-5.31-11.46,0-4.42,1.45-7.98,4.36-10.68,2.91-2.7,7.52-4.64,13.83-5.84l10.62-2.1c2.45-.42,4.17-1.05,5.15-1.89.98-.84,1.47-2.03,1.47-3.58,0-1.89-.79-3.51-2.37-4.84-1.58-1.33-3.8-2-6.68-2h-.63c-3.23,0-5.84.84-7.83,2.52-2,1.68-3.1,4.07-3.31,7.15h-13.46c0-3.86,1.05-7.29,3.16-10.31ZM839.19,707.94c1.58,1.3,3.73,1.95,6.47,1.95,3.93,0,7-1.17,9.2-3.52,2.21-2.35,3.31-5.45,3.31-9.31v-6.1c-1.19.63-2.95,1.26-5.26,1.89l-8.52,2.21c-2.67.7-4.59,1.67-5.79,2.89-1.19,1.23-1.79,2.82-1.79,4.79,0,2.17.79,3.91,2.37,5.21Z"/>
  <path class="cls-2" d="M973.57,716.67c-1.75-1.16-3.16-3.03-4.21-5.63-1.82,2.8-4.19,4.87-7.1,6.21-2.91,1.33-6.54,2-10.89,2s-7.85-.72-10.94-2.16c-3.09-1.44-5.45-3.38-7.1-5.84-1.65-2.45-2.47-5.19-2.47-8.2,0-4.77,1.61-8.61,4.84-11.52,3.22-2.91,8.1-4.71,14.62-5.42l15.99-1.68v-2.63c0-2.66-.77-4.73-2.31-6.21-1.54-1.47-3.72-2.21-6.52-2.21s-5.01.6-6.63,1.79c-1.61,1.19-2.59,2.91-2.94,5.15h-15.99c.7-5.61,3.28-10.01,7.73-13.2,4.45-3.19,10.39-4.79,17.83-4.79s13.6,1.81,17.88,5.42c4.28,3.61,6.42,8.96,6.42,16.04v19.46c0,1.68.38,2.93,1.16,3.73.77.81,2.14,1.21,4.1,1.21v9.78c-2.67.28-4.73.42-6.21.42-3.09,0-5.5-.58-7.26-1.74ZM948.74,707.25c1.54,1.33,3.58,2,6.1,2,3.64,0,6.45-1.1,8.41-3.31,1.96-2.21,2.95-5.38,2.95-9.52v-3.37l-11.67,1.58c-2.59.42-4.59,1.28-6,2.58-1.4,1.3-2.1,2.93-2.1,4.89,0,2.1.77,3.82,2.31,5.15Z"/>
  <path class="cls-2" d="M1074.02,717.51c-2.59,1.16-6.07,1.74-10.41,1.74-3.93,0-7.36-.77-10.31-2.31-2.95-1.54-5.22-3.63-6.84-6.26-1.61-2.63-2.42-5.59-2.42-8.89,0-5.26,1.84-9.45,5.52-12.57,3.68-3.12,8.71-4.68,15.09-4.68s10.87,1.37,14.3,4.1v-5.57c0-5.82-2.7-8.73-8.1-8.73-2.1,0-3.84.46-5.21,1.37-1.37.91-2.23,2.14-2.58,3.68h-17.99c.77-5.19,3.4-9.33,7.89-12.41,4.49-3.08,10.41-4.63,17.77-4.63,7.92,0,14.16,1.75,18.72,5.26,4.56,3.51,6.84,8.94,6.84,16.3v34.08h-15.88v-5.89c-1.68,2.46-3.82,4.26-6.42,5.42ZM1076.6,706.52c1.58-1.33,2.37-3.12,2.37-5.36s-.81-3.96-2.42-5.36c-1.61-1.4-3.75-2.1-6.42-2.1s-4.82.7-6.47,2.1c-1.65,1.4-2.47,3.19-2.47,5.36s.81,4.03,2.42,5.36c1.61,1.33,3.79,2,6.52,2s4.89-.67,6.47-2Z"/>
  <path class="cls-2" d="M1190.57,711.35c-3.51,5.26-9.12,7.89-16.83,7.89-3.79,0-7.17-.68-10.15-2.05-2.98-1.37-5.29-3.26-6.94-5.68-1.65-2.42-2.47-5.17-2.47-8.26,0-5.4,2.52-9.69,7.57-12.88,5.05-3.19,14.16-5,27.35-5.42v-2.1c0-2.59-.67-4.52-2-5.79-1.33-1.26-3.19-1.89-5.57-1.89-4.98,0-7.89,2.42-8.73,7.26h-18.3c.91-6.73,3.58-11.76,7.99-15.09,4.42-3.33,10.76-5,19.04-5s15.15,2.03,19.56,6.1c4.42,4.07,6.63,9.64,6.63,16.72v32.82h-17.14v-6.63ZM1174.64,706.41c1.23,1.05,2.89,1.58,5,1.58,2.8,0,5-.91,6.57-2.73,1.58-1.82,2.37-4.35,2.37-7.57v-3.68c-6.17.35-10.34,1.23-12.52,2.63-2.17,1.4-3.26,3.26-3.26,5.57,0,1.75.61,3.16,1.84,4.21Z"/>
  <path class="cls-2" d="M1274.72,715.98c-3.58-2.17-6.47-5.4-8.68-9.68-2.21-4.28-3.31-9.43-3.31-15.46s1.1-11.1,3.31-15.41,5.12-7.57,8.73-9.78c3.61-2.21,7.42-3.31,11.41-3.31,4.21,0,7.68.74,10.41,2.21s4.84,3.93,6.31,7.36v-8.31h19.46v54.38h-19.46v-9.57c-1.54,3.65-3.68,6.36-6.42,8.15-2.73,1.79-6.17,2.68-10.31,2.68s-7.89-1.09-11.46-3.26ZM1286.03,701.1c1.65,2.14,3.87,3.21,6.68,3.21s4.8-1.05,6.42-3.16c1.61-2.1,2.42-5.61,2.42-10.52,0-4.63-.83-8.01-2.47-10.15-1.65-2.14-3.8-3.21-6.47-3.21s-4.93,1.09-6.57,3.26c-1.65,2.17-2.47,5.58-2.47,10.2s.82,8.22,2.47,10.36Z"/>
  <path class="cls-2" d="M37.88,60.83h2l13.78,51.33,13.78-51.33h1.58l13.46,51.33,13.78-51.33h2l-14.62,54.38h-2.21l-13.25-50.38-13.46,50.38h-2.21l-14.62-54.38Z"/>
  <path class="cls-2" d="M1284.14,209.67c2.28-8.2,3.42-17.88,3.42-29.03s-1.14-20.83-3.42-29.03c-2.28-8.2-5.8-15.53-10.57-21.98h15.88v102.02h-15.88c4.77-6.45,8.29-13.78,10.57-21.98Z"/>
  <path class="cls-2" d="M150.16,60.83h3.16l12.83,49.96,12.94-49.96h2.74l12.83,49.96,12.73-49.96h3.16l-13.99,54.38h-3.79l-12.31-48.49-12.52,48.49h-3.79l-13.99-54.38Z"/>
  <path class="cls-2" d="M1166.8,209.88c-4-2.95-6.42-7.19-7.26-12.73h3.26c.77,4.7,2.89,8.26,6.36,10.68s7.94,3.63,13.41,3.63c5.19,0,9.2-1.02,12.04-3.05,2.84-2.03,4.26-4.98,4.26-8.83,0-3.22-1.04-5.71-3.1-7.47-2.07-1.75-5.42-3.12-10.04-4.1l-10.73-2.21c-4.84-.98-8.33-2.56-10.46-4.73-2.14-2.17-3.21-5.08-3.21-8.73,0-4.42,1.72-8.01,5.15-10.78,3.44-2.77,8.17-4.15,14.2-4.15s11.15,1.49,14.72,4.47c3.58,2.98,5.68,7.49,6.31,13.52h-3.26c-1.12-10.1-7.05-15.15-17.78-15.15-5.12,0-9.08,1.1-11.88,3.31-2.81,2.21-4.21,5.1-4.21,8.68,0,2.8.84,5.07,2.52,6.78,1.68,1.72,4.63,3,8.83,3.84l10.94,2.21c5.33,1.12,9.19,2.79,11.57,5,2.38,2.21,3.58,5.31,3.58,9.31,0,4.7-1.67,8.36-5,10.99-3.33,2.63-8.15,3.94-14.46,3.94s-11.78-1.47-15.78-4.42Z"/>
  <path class="cls-2" d="M261.76,60.83h4.52l11.57,48.49,11.99-48.49h4.21l11.78,48.38,11.57-48.38h4.52l-13.04,54.38h-5.89l-11.04-45.96-11.25,45.96h-5.89l-13.04-54.38Z"/>
  <path class="cls-2" d="M1055.14,209.88c-3.96-2.95-6.33-7.19-7.1-12.73h4.73c.77,4.35,2.75,7.62,5.94,9.83,3.19,2.21,7.38,3.31,12.57,3.31,4.91,0,8.69-.95,11.36-2.84,2.66-1.89,4-4.63,4-8.2,0-2.95-.93-5.24-2.79-6.89-1.86-1.65-4.93-2.86-9.2-3.63l-10.94-2.1c-4.91-.91-8.47-2.51-10.68-4.79-2.21-2.28-3.31-5.35-3.31-9.2,0-2.88.79-5.47,2.37-7.78,1.58-2.31,3.86-4.14,6.84-5.47,2.98-1.33,6.5-2,10.57-2,6.38,0,11.38,1.51,14.99,4.52,3.61,3.02,5.77,7.5,6.47,13.46h-4.94c-1.05-9.32-6.59-13.99-16.62-13.99-4.63,0-8.26,1.04-10.89,3.1-2.63,2.07-3.94,4.72-3.94,7.94,0,2.59.79,4.68,2.37,6.26,1.58,1.58,4.29,2.75,8.15,3.52l11.04,2.1c5.33,1.05,9.2,2.75,11.62,5.1,2.42,2.35,3.63,5.52,3.63,9.52,0,4.77-1.7,8.52-5.1,11.25-3.4,2.73-8.4,4.1-14.99,4.1s-12.18-1.47-16.15-4.42Z"/>
  <path class="cls-2" d="M373.05,60.72h6.94l9.47,45.54,10.31-45.54h6.63l10.2,45.54,9.47-45.54h6.94l-11.46,54.38h-9.36l-9.15-41.65-9.15,41.65h-9.36l-11.46-54.38Z"/>
  <path class="cls-2" d="M943.01,209.67c-3.82-3.01-6.12-7.22-6.89-12.62h7.26c1.47,7.5,6.94,11.25,16.41,11.25,4.35,0,7.71-.82,10.1-2.47,2.38-1.65,3.58-4.01,3.58-7.1,0-2.52-.79-4.5-2.37-5.94-1.58-1.44-4.16-2.44-7.73-3l-11.25-1.89c-4.91-.84-8.54-2.47-10.89-4.89-2.35-2.42-3.52-5.7-3.52-9.83,0-2.95.8-5.61,2.42-7.99,1.61-2.38,3.96-4.29,7.05-5.73,3.08-1.44,6.73-2.16,10.94-2.16,6.52,0,11.64,1.54,15.36,4.63,3.72,3.09,5.92,7.54,6.63,13.36h-7.57c-1.05-8.06-5.93-12.1-14.62-12.1-4,0-7.12.89-9.36,2.68-2.25,1.79-3.37,4.05-3.37,6.78,0,2.25.7,4.05,2.1,5.42,1.4,1.37,3.79,2.37,7.15,3l11.04,2c5.4.91,9.32,2.63,11.78,5.15,2.45,2.52,3.68,5.82,3.68,9.89,0,4.91-1.77,8.82-5.31,11.73-3.54,2.91-8.89,4.36-16.04,4.36s-12.74-1.51-16.57-4.52Z"/>
  <path class="cls-2" d="M484.23,60.72h8.1l8.41,44.07,9.57-44.07h7.78l9.57,44.07,8.41-44.07h8.1l-10.83,54.38h-10.94l-8.2-39.13-8.2,39.13h-10.94l-10.83-54.38Z"/>
  <path class="cls-2" d="M831.41,209.62c-3.82-3.05-6.08-7.24-6.78-12.57h8.52c.7,3.51,2.3,6.1,4.79,7.78,2.49,1.68,6.01,2.52,10.57,2.52,4.07,0,7.24-.77,9.52-2.31,2.28-1.54,3.42-3.71,3.42-6.52,0-2.31-.7-4.14-2.1-5.47-1.4-1.33-3.79-2.24-7.15-2.73l-11.36-1.79c-9.82-1.54-14.72-6.56-14.72-15.04,0-2.95.81-5.64,2.42-8.1,1.61-2.45,4-4.42,7.15-5.89s6.87-2.21,11.15-2.21c6.59,0,11.78,1.56,15.57,4.68,3.79,3.12,6.03,7.56,6.73,13.3h-8.83c-1.05-7.43-5.61-11.15-13.67-11.15-3.65,0-6.5.82-8.57,2.47-2.07,1.65-3.1,3.73-3.1,6.26,0,2.03.65,3.7,1.95,5,1.3,1.3,3.49,2.19,6.57,2.68l11.15,1.89c10.38,1.75,15.57,6.84,15.57,15.25,0,4.98-1.81,8.98-5.42,11.99-3.61,3.02-9.1,4.52-16.46,4.52s-13.06-1.52-16.88-4.58Z"/>
  <path class="cls-2" d="M595.1,60.72h9.36l7.47,42.6,8.52-42.6h9.89l8.52,42.81,7.57-42.81h9.26l-9.99,54.38h-12.94l-7.36-37.76-7.36,37.76h-12.94l-9.99-54.38Z"/>
  <path class="cls-2" d="M712.7,197.05h10.52c.63,3.16,2.08,5.49,4.36,6.99,2.28,1.51,5.56,2.26,9.83,2.26,3.79,0,6.7-.7,8.73-2.1,2.03-1.4,3.05-3.33,3.05-5.79,0-2.03-.63-3.63-1.89-4.79-1.26-1.16-3.37-1.98-6.31-2.47l-11.67-1.89c-10.1-1.68-15.15-6.8-15.15-15.36,0-3.01.84-5.79,2.52-8.31,1.68-2.52,4.15-4.54,7.42-6.05s7.13-2.26,11.62-2.26c6.8,0,12.18,1.58,16.14,4.73,3.96,3.16,6.33,7.57,7.1,13.25h-10.73c-.91-6.73-5.15-10.1-12.73-10.1-3.3,0-5.91.74-7.84,2.21-1.93,1.47-2.89,3.33-2.89,5.58,0,1.89.61,3.4,1.84,4.52,1.23,1.12,3.28,1.93,6.15,2.42l11.15,1.89c5.61.98,9.68,2.79,12.2,5.42s3.79,6.01,3.79,10.15c0,5.05-1.88,9.12-5.63,12.2-3.75,3.09-9.45,4.63-17.09,4.63-14.58,0-22.75-5.71-24.51-17.14Z"/>
  <path class="cls-2" d="M706.08,60.72h10.41l6.63,41.33,7.57-41.33h11.88l7.47,41.33,6.63-41.33h10.52l-9.04,54.38h-14.94l-6.52-36.5-6.63,36.5h-14.93l-9.05-54.38Z"/>
  <path class="cls-2" d="M600.78,197.05h12.31c.63,2.73,2.01,4.77,4.15,6.1,2.14,1.33,5.14,2,8.99,2,3.51,0,6.15-.61,7.94-1.84,1.79-1.23,2.68-2.93,2.68-5.1,0-1.75-.56-3.14-1.68-4.15-1.12-1.02-2.98-1.74-5.57-2.16l-11.78-2c-5.26-.84-9.19-2.54-11.78-5.1-2.59-2.56-3.89-6.05-3.89-10.46,0-3.16.86-6.03,2.58-8.62,1.72-2.59,4.26-4.64,7.63-6.15,3.37-1.51,7.43-2.26,12.2-2.26,7.08,0,12.67,1.58,16.78,4.73,4.1,3.16,6.57,7.57,7.41,13.25h-12.52c-.91-5.96-4.84-8.94-11.78-8.94-3.09,0-5.5.63-7.26,1.89-1.75,1.26-2.63,2.88-2.63,4.84,0,1.61.56,2.93,1.68,3.94,1.12,1.02,3.05,1.77,5.78,2.26l11.25,1.89c5.75,1.05,9.9,2.89,12.46,5.52,2.56,2.63,3.84,6.08,3.84,10.36,0,5.05-1.96,9.17-5.89,12.36-3.93,3.19-9.78,4.79-17.56,4.79-14.87,0-23.32-5.71-25.35-17.14Z"/>
  <path class="cls-2" d="M817.05,60.83h11.25l6,40.28,6.84-40.28h13.25l6.84,40.28,6.1-40.28h11.15l-8.41,54.38h-16.2l-6-35.76-6.1,35.76h-16.3l-8.41-54.38Z"/>
  <path class="cls-2" d="M489.18,197.15h13.57c.56,2.46,1.84,4.3,3.84,5.52,2,1.23,4.82,1.84,8.47,1.84,3.29,0,5.79-.56,7.47-1.68,1.68-1.12,2.52-2.66,2.52-4.63,0-1.54-.53-2.77-1.58-3.68-1.05-.91-2.74-1.58-5.05-2l-11.99-2c-5.33-.91-9.31-2.65-11.94-5.21-2.63-2.56-3.94-6.12-3.94-10.68,0-3.22.88-6.13,2.63-8.73,1.75-2.59,4.36-4.66,7.83-6.21,3.47-1.54,7.66-2.31,12.57-2.31,7.22,0,12.92,1.6,17.09,4.79,4.17,3.19,6.71,7.59,7.62,13.2h-13.78c-.84-5.47-4.56-8.2-11.15-8.2-2.88,0-5.12.56-6.73,1.68-1.61,1.12-2.42,2.6-2.42,4.42,0,1.54.51,2.75,1.53,3.63,1.02.88,2.82,1.52,5.42,1.95l11.36,2.1c5.82,1.05,10.04,2.89,12.67,5.52s3.94,6.12,3.94,10.47c0,5.05-2.02,9.2-6.05,12.46-4.03,3.26-10.04,4.89-18.04,4.89-15.15,0-23.77-5.71-25.87-17.14Z"/>
  <path class="cls-2" d="M928.02,60.83h12.2l5.26,38.92,6-38.92h15.04l5.89,38.6,5.36-38.6h12.2l-7.68,54.38h-17.99l-5.36-34.6-5.36,34.6h-17.88l-7.68-54.38Z"/>
  <path class="cls-2" d="M385.41,209.83c-4.17-2.98-6.85-7.2-8.05-12.67h15.25c1.19,4.35,4.98,6.52,11.36,6.52,3.08,0,5.36-.49,6.84-1.47,1.47-.98,2.21-2.35,2.21-4.1,0-1.33-.46-2.4-1.37-3.21-.91-.81-2.38-1.35-4.42-1.63l-12.2-2.21c-5.47-.91-9.54-2.65-12.2-5.21-2.67-2.56-4-6.15-4-10.78,0-3.29.89-6.27,2.68-8.94,1.79-2.66,4.45-4.79,7.99-6.36,3.54-1.58,7.87-2.37,12.99-2.37,7.43,0,13.31,1.61,17.62,4.84,4.31,3.23,6.92,7.61,7.84,13.15h-15.25c-.35-2.38-1.4-4.21-3.16-5.47-1.75-1.26-4.14-1.89-7.15-1.89-2.74,0-4.84.49-6.31,1.47-1.47.98-2.21,2.28-2.21,3.89,0,1.33.49,2.38,1.47,3.16.98.77,2.7,1.37,5.15,1.79l11.25,2.1c6.03,1.05,10.36,2.89,12.99,5.52,2.63,2.63,3.94,6.19,3.94,10.68,0,5.12-2.07,9.34-6.21,12.67-4.14,3.33-10.27,5-18.41,5s-14.5-1.49-18.67-4.47Z"/>
  <path class="cls-2" d="M1039,60.83h13.15l4.52,36.92,5.15-36.92h16.72l5.15,36.92,4.52-36.92h13.15l-6.94,54.38h-19.56l-4.63-33.24-4.73,33.24h-19.56l-6.94-54.38Z"/>
  <path class="cls-2" d="M273.96,209.88c-4.28-2.95-7.05-7.19-8.31-12.73h16.83c1.12,3.72,4.59,5.57,10.41,5.57,2.8,0,4.85-.44,6.15-1.31,1.3-.88,1.95-2.01,1.95-3.42,0-1.12-.4-2-1.21-2.63-.81-.63-2.05-1.12-3.73-1.47l-12.41-2.21c-5.61-.98-9.78-2.77-12.52-5.36-2.74-2.59-4.1-6.24-4.1-10.94,0-3.37.91-6.4,2.74-9.1,1.82-2.7,4.58-4.85,8.26-6.47,3.68-1.61,8.15-2.42,13.41-2.42,7.64,0,13.67,1.61,18.09,4.84,4.42,3.23,7.15,7.61,8.2,13.15h-16.83c-.35-2.1-1.35-3.7-3-4.79-1.65-1.09-3.84-1.63-6.57-1.63-2.52,0-4.44.42-5.73,1.26-1.3.84-1.95,1.93-1.95,3.26,0,1.19.44,2.1,1.31,2.74.88.63,2.47,1.16,4.79,1.58l11.36,2.1c6.17,1.12,10.59,3,13.25,5.63,2.66,2.63,4,6.26,4,10.89,0,3.3-.91,6.29-2.74,8.99-1.82,2.7-4.63,4.86-8.41,6.47s-8.52,2.42-14.2,2.42c-8.42,0-14.76-1.47-19.04-4.42Z"/>
  <path class="cls-2" d="M1149.87,60.83h14.41l3.58,35.34,5.36-35.34h16.3l5.26,35.02,3.68-35.02h14.3l-6.73,54.38h-20.19l-4.52-31.34-4.52,31.34h-20.09l-6.84-54.38Z"/>
  <path class="cls-2" d="M153.73,197.15h18.09c.98,3.51,4.17,5.26,9.57,5.26,2.59,0,4.5-.37,5.73-1.1,1.23-.74,1.84-1.74,1.84-3,0-1.05-.37-1.88-1.1-2.47-.74-.59-1.98-1.03-3.73-1.31l-12.73-2.21c-5.33-.84-9.38-2.61-12.15-5.31-2.77-2.7-4.16-6.47-4.16-11.31,0-3.43.93-6.54,2.79-9.31,1.86-2.77,4.66-4.96,8.41-6.57,3.75-1.61,8.33-2.42,13.73-2.42,7.71,0,13.83,1.53,18.35,4.58,4.52,3.05,7.31,7.52,8.36,13.41h-18.09c-.77-4-3.68-6-8.73-6-2.31,0-4.09.37-5.31,1.1-1.23.74-1.84,1.74-1.84,3,0,1.05.38,1.88,1.16,2.47.77.6,2.14,1.07,4.1,1.42l13.36,2.52c5.68,1.05,9.78,2.91,12.31,5.57,2.52,2.67,3.79,6.21,3.79,10.62,0,5.4-2.25,9.78-6.73,13.15-4.49,3.37-10.97,5.05-19.46,5.05-16.34,0-25.52-5.71-27.56-17.14Z"/>
  <path class="cls-2" d="M1260.84,60.83h15.36l2.84,33.76,5.47-33.76h15.99l5.47,33.76,2.84-33.76h15.36l-6.63,54.38h-20.62l-4.42-29.87-4.42,29.87h-20.61l-6.63-54.38Z"/>
  <path class="cls-2" d="M51.76,129.63h34.18c-4.77,6.45-8.29,13.78-10.57,21.98-2.28,8.2-3.42,17.88-3.42,29.03s1.14,20.83,3.42,29.03c2.28,8.2,5.8,15.53,10.57,21.98h-34.18v-102.02Z"/>
  <path class="cls-2" d="M1313.43,349.13v1.89c-2.31-.42-5.19-.63-8.62-.63-5.05,0-8.73,1.04-11.04,3.1-2.31,2.07-3.47,5.45-3.47,10.15v7.26h23.14v1.89h-23.14v52.48h-1.89v-52.48h-18.3v-1.89h18.3v-7.68c0-5.05,1.35-8.76,4.05-11.15,2.7-2.38,6.75-3.58,12.15-3.58,3.37,0,6.31.21,8.83.63Z"/>
  <path class="cls-2" d="M1202.67,349.13v2.95c-2.31-.42-5.19-.63-8.62-.63-4.91,0-8.48.98-10.73,2.94-2.25,1.96-3.37,5.22-3.37,9.78v6.73h22.72v2.95h-22.72v51.43h-3.16v-51.43h-17.88v-2.95h17.88v-7.15c0-10.17,5.68-15.25,17.04-15.25,3.37,0,6.31.21,8.83.63Z"/>
  <path class="cls-2" d="M1091.9,349.13v4.21c-2.31-.42-5.15-.63-8.52-.63-4.77,0-8.24.96-10.41,2.89-2.17,1.93-3.26,5-3.26,9.2v6.1h22.19v4.21h-22.19v50.17h-4.63v-50.17h-17.35v-4.21h17.35v-6.42c0-5.26,1.51-9.24,4.52-11.94,3.01-2.7,7.47-4.05,13.36-4.05,3.58,0,6.56.21,8.94.63Z"/>
  <path class="cls-2" d="M981.24,349.13v6.1c-2.03-.35-4.8-.53-8.31-.53-4.56,0-7.87.89-9.94,2.68-2.07,1.79-3.1,4.58-3.1,8.36v5.05h21.35v6.31h-21.35v48.07h-7.15v-48.07h-16.51v-6.31h16.51v-5.15c0-5.47,1.65-9.71,4.94-12.73,3.29-3.01,8.17-4.52,14.62-4.52,3.79,0,6.77.25,8.94.74Z"/>
  <path class="cls-2" d="M870.37,349.13v7.15c-2.03-.35-4.8-.53-8.31-.53-4.42,0-7.62.86-9.62,2.58-2,1.72-3,4.36-3,7.94v4.52h20.93v7.36h-20.93v47.01h-8.41v-47.01h-16.09v-7.36h16.09v-4.63c0-5.61,1.72-9.97,5.15-13.09,3.43-3.12,8.48-4.68,15.15-4.68,3.86,0,6.87.25,9.04.74Z"/>
  <path class="cls-2" d="M759.29,349.23v8.52c-1.89-.35-4.56-.53-7.99-.53-4.21,0-7.24.77-9.1,2.31-1.86,1.54-2.79,3.93-2.79,7.15v4.1h19.88v8.94h-19.88v45.44h-10.52v-45.44h-15.57v-8.94h15.57v-4.1c0-5.82,1.77-10.32,5.31-13.52,3.54-3.19,8.71-4.79,15.51-4.79,3.79,0,6.98.28,9.57.84Z"/>
  <path class="cls-2" d="M648.11,349.44v9.78c-2.31-.42-4.87-.63-7.68-.63-4,0-6.87.68-8.62,2.05-1.75,1.37-2.63,3.56-2.63,6.57v3.58h18.93v10.41h-18.93v43.96h-12.52v-43.96h-14.94v-10.41h14.94v-3.47c0-6.17,1.84-10.87,5.52-14.09,3.68-3.22,8.99-4.84,15.93-4.84,4.35,0,7.68.35,9.99,1.05Z"/>
  <path class="cls-2" d="M536.93,349.65v10.62c-2.1-.42-4.59-.63-7.47-.63-3.79,0-6.5.63-8.15,1.89-1.65,1.26-2.47,3.3-2.47,6.1v3.26h18.2v11.46h-18.2v42.91h-13.88v-42.91h-14.62v-11.46h14.62v-3.16c0-6.31,1.88-11.1,5.63-14.36,3.75-3.26,9.13-4.89,16.14-4.89,4.28,0,7.68.39,10.2,1.16Z"/>
  <path class="cls-2" d="M425.85,349.76v11.67c-1.75-.35-4.14-.53-7.15-.53-3.65,0-6.24.54-7.78,1.63-1.54,1.09-2.31,2.89-2.31,5.42v2.95h17.35v12.73h-17.35v41.65h-15.67v-41.65h-14.09v-12.73h14.09v-2.63c0-6.52,1.93-11.45,5.79-14.78,3.86-3.33,9.36-5,16.51-5,4.7,0,8.24.42,10.62,1.26Z"/>
  <path class="cls-2" d="M314.77,349.87v12.83c-1.96-.42-4.28-.63-6.94-.63-3.44,0-5.87.49-7.31,1.47-1.44.98-2.16,2.6-2.16,4.84v2.52h16.51v13.99h-16.51v40.39h-17.35v-40.39h-13.67v-13.99h13.67v-2.21c0-6.73,1.96-11.78,5.89-15.15,3.93-3.37,9.54-5.05,16.83-5.05,4.63,0,8.31.46,11.04,1.37Z"/>
  <path class="cls-2" d="M204.74,349.97v12.62c-2.31-.42-4.73-.63-7.26-.63-3.3,0-5.68.53-7.15,1.58-1.47,1.05-2.21,2.77-2.21,5.15v2.21h16.62v14.41h-16.62v39.97h-19.14v-39.97h-14.09v-14.41h14.09v-1.79c0-6.73,1.93-11.87,5.79-15.41,3.86-3.54,9.68-5.31,17.46-5.31,4.91,0,9.08.53,12.52,1.58Z"/>
  <path class="cls-2" d="M93.73,349.97v12.62c-2.52-.42-5.01-.63-7.47-.63-3.23,0-5.57.54-7.05,1.63-1.47,1.09-2.21,2.89-2.21,5.42v1.89h16.62v14.73h-16.62v39.65h-20.82v-39.65h-14.3v-14.73h14.3v-1.47c0-6.73,1.88-11.92,5.63-15.57,3.75-3.65,9.8-5.47,18.14-5.47,5.26,0,9.85.53,13.78,1.58Z"/>
  <path class="cls-2" d="M1292.71,557.47v69.52h24.93v1.89h-51.75v-1.89h24.93v-63.95c-1.61,2.81-4.22,4.93-7.83,6.36-3.61,1.44-8.5,2.16-14.67,2.16v-1.89c6.8-.21,11.99-1.14,15.57-2.79,3.58-1.65,5.96-4.79,7.15-9.41h1.68Z"/>
  <path d="M1176.79,587.92c-1.75-1.86-4.1-3.94-7.05-6.26-2.94-2.1-5.05-4.21-6.31-6.31s-1.89-4.45-1.89-7.05c0-3.08.88-5.66,2.63-7.73,1.75-2.07,4.17-3.1,7.26-3.1,2.38,0,4.37.56,5.94,1.68,1.58,1.12,2.72,2.49,3.42,4.1.63-1.61,1.74-2.98,3.31-4.1,1.58-1.12,3.56-1.68,5.94-1.68,3.08,0,5.52,1.04,7.31,3.1,1.79,2.07,2.68,4.65,2.68,7.73,0,2.59-.61,4.94-1.84,7.05-1.23,2.1-3.31,4.21-6.26,6.31-3.02,2.25-5.4,4.3-7.15,6.15-1.75,1.86-3.09,3.94-4,6.26-.91-2.24-2.25-4.29-4-6.15ZM1176.79,622.79c-1.75-1.82-4.1-3.89-7.05-6.21-2.94-2.1-5.05-4.21-6.31-6.31s-1.89-4.45-1.89-7.05c0-3.08.88-5.68,2.63-7.78,1.75-2.1,4.17-3.16,7.26-3.16,2.38,0,4.35.58,5.89,1.74,1.54,1.16,2.7,2.58,3.47,4.26.7-1.61,1.82-3.01,3.37-4.21,1.54-1.19,3.51-1.79,5.89-1.79,3.08,0,5.52,1.05,7.31,3.16s2.68,4.7,2.68,7.78c0,2.59-.61,4.94-1.84,7.05-1.23,2.1-3.31,4.21-6.26,6.31-3.02,2.25-5.4,4.3-7.15,6.15-1.75,1.86-3.09,3.91-4,6.15-.91-2.24-2.25-4.28-4-6.1Z"/>
  <path class="cls-2" d="M1072.66,557.47v67.21h22.72v4.21h-51.12v-4.21h23.46v-57.32c-3.86,4.35-10.94,6.52-21.25,6.52v-4.21c6.59-.21,11.64-1.23,15.15-3.05,3.51-1.82,5.79-4.87,6.84-9.15h4.21Z"/>
  <path class="cls-2" d="M963.26,557.37v65.1h20.83v6.31h-50.7v-6.31h22.19v-51.85c-4,3.58-10.69,5.36-20.09,5.36v-6.31c6.45-.21,11.34-1.31,14.67-3.31,3.33-2,5.52-5,6.57-8.99h6.52Z"/>
  <path class="cls-2" d="M853.02,557.37v64.05h19.88v7.36h-50.49v-7.36h21.56v-49.22c-4.07,3.23-10.55,4.84-19.46,4.84v-7.36c6.38-.21,11.22-1.35,14.51-3.42,3.29-2.07,5.4-5.03,6.31-8.89h7.68Z"/>
  <path class="cls-2" d="M742.99,557.37v62.37h19.14v9.04h-51.12v-9.04h20.93v-45.44c-4.14,3.02-10.48,4.52-19.04,4.52v-8.83c6.17-.21,10.85-1.37,14.04-3.47,3.19-2.1,5.35-5.15,6.47-9.15h9.57Z"/>
  <path class="cls-2" d="M632.86,557.37v60.69h18.3v10.73h-51.54v-10.73h20.19v-41.65c-4.21,2.88-10.41,4.31-18.62,4.31v-10.41c6.03-.28,10.61-1.49,13.73-3.63,3.12-2.14,5.27-5.24,6.47-9.31h11.46Z"/>
  <path class="cls-2" d="M522.52,557.47v59.53h17.78v11.88h-51.96v-11.88h19.67v-39.02c-2.17,1.4-4.75,2.42-7.73,3.05-2.98.63-6.47.95-10.46.95v-11.46c5.96-.21,10.45-1.38,13.46-3.52,3.01-2.14,5.15-5.31,6.42-9.52h12.83Z"/>
  <path class="cls-2" d="M412.38,557.47v58.06h17.04v13.36h-52.38v-13.36h19.14v-35.97c-2.25,1.4-4.8,2.42-7.68,3.05-2.88.63-6.28.95-10.2.95v-12.73c5.82-.28,10.18-1.51,13.09-3.68,2.91-2.17,5.1-5.4,6.57-9.68h14.41Z"/>
  <path class="cls-2" d="M302.15,557.47v56.69h16.41v14.72h-52.8v-14.72h18.51v-32.82c-2.31,1.33-4.84,2.28-7.57,2.84-2.73.56-6.03.84-9.89.84v-13.99c5.61-.28,9.83-1.51,12.67-3.68,2.84-2.17,5.06-5.47,6.68-9.89h15.99Z"/>
  <path class="cls-2" d="M192.44,557.47v56.58h15.15v14.83h-53.43v-14.83h18.09v-32.08c-4.56,2.67-10.13,4-16.72,4v-14.94c5.47-.35,9.76-1.66,12.88-3.94,3.12-2.28,5.21-5.49,6.26-9.62h17.77Z"/>
  <path class="cls-2" d="M81.84,557.47v56.48h13.88v14.94h-53.85v-14.94h17.67v-31.24c-4.35,2.67-9.71,4-16.09,4v-15.67c5.4-.49,9.73-1.89,12.99-4.21,3.26-2.31,5.24-5.43,5.94-9.36h19.46Z"/>
  <line class="cls-3" x1="124.4" y1="42.53" x2="124.4" y2="717.88"/>
  <line class="cls-3" x1="235.7" y1="42.53" x2="235.7" y2="717.88"/>
  <line class="cls-3" x1="347" y1="42.53" x2="347" y2="717.88"/>
  <line class="cls-3" x1="458.3" y1="42.53" x2="458.3" y2="717.88"/>
  <line class="cls-3" x1="569.6" y1="42.42" x2="569.6" y2="717.88"/>
  <line class="cls-3" x1="680.9" y1="42.53" x2="680.9" y2="717.88"/>
  <line class="cls-3" x1="792.2" y1="42.53" x2="792.2" y2="717.88"/>
  <line class="cls-3" x1="903.5" y1="42.42" x2="903.5" y2="717.88"/>
  <line class="cls-3" x1="1014.8" y1="42.42" x2="1014.8" y2="717.88"/>
  <line class="cls-3" x1="1126.1" y1="42.42" x2="1126.1" y2="717.88"/>
  <line class="cls-3" x1="1237.4" y1="42.42" x2="1237.4" y2="717.88"/>
  <path class="cls-2" d="M91.73,467.52c-1.89-2.8-4.94-4.21-9.15-4.21-4.49,0-7.87,1.75-10.15,5.26-2.28,3.51-3.42,8.13-3.42,13.88v34.6h-1.89v-38.39c0-4.56-.93-8.26-2.79-11.1-1.86-2.84-4.93-4.26-9.2-4.26s-7.7,1.77-10.04,5.31c-2.35,3.54-3.52,8.15-3.52,13.83v34.6h-1.89v-54.38h1.79v9.99c1.12-3.51,2.84-6.26,5.15-8.26,2.31-2,5.22-3,8.73-3,3.72,0,6.7,1.07,8.94,3.21,2.24,2.14,3.68,5.07,4.31,8.78.91-3.72,2.56-6.64,4.94-8.78,2.38-2.14,5.47-3.21,9.26-3.21,4.63,0,8.06,1.56,10.31,4.68,2.24,3.12,3.37,7.28,3.37,12.46v38.5h-1.89v-38.39c0-4.63-.95-8.34-2.84-11.15Z"/>
  <path d="M174.24,500.44c-2.67-2.8-6.24-5.89-10.73-9.26-4.42-3.37-7.57-6.61-9.47-9.73-1.89-3.12-2.84-6.64-2.84-10.57,0-4.77,1.35-8.69,4.05-11.78,2.7-3.08,6.36-4.63,10.99-4.63,3.64,0,6.64.84,8.99,2.52,2.35,1.68,4.05,3.79,5.1,6.31.98-2.52,2.66-4.63,5.05-6.31s5.36-2.52,8.94-2.52c4.63,0,8.31,1.56,11.04,4.68,2.73,3.12,4.1,7.03,4.1,11.73,0,3.93-.95,7.45-2.84,10.57-1.89,3.12-5.05,6.36-9.47,9.73-4.49,3.37-8.06,6.45-10.73,9.26-2.67,2.81-4.7,5.89-6.1,9.26-1.4-3.37-3.44-6.45-6.1-9.26ZM184.6,491.97c1.86-1.72,4.15-3.59,6.89-5.63,3.43-2.59,5.77-4.92,6.99-6.99,1.23-2.07,1.84-4.43,1.84-7.1s-.79-4.84-2.37-6.73c-1.58-1.89-3.88-2.84-6.89-2.84s-5.29.79-7.05,2.37c-1.75,1.58-2.98,3.56-3.68,5.94-.7-2.38-1.93-4.37-3.68-5.94-1.75-1.58-4.1-2.37-7.05-2.37s-5.31.95-6.89,2.84c-1.58,1.89-2.37,4.14-2.37,6.73s.61,5.03,1.84,7.1c1.23,2.07,3.56,4.4,6.99,6.99,2.74,2.04,5.03,3.91,6.89,5.63,1.86,1.72,3.28,3.49,4.26,5.31.98-1.82,2.4-3.59,4.26-5.31Z"/>
  <path class="cls-2" d="M305.72,465.73c-3.65,0-6.45,1.44-8.41,4.31-1.96,2.88-2.94,6.7-2.94,11.46v35.55h-4.63v-37.55c0-9.19-3.37-13.78-10.1-13.78-3.65,0-6.47,1.44-8.47,4.31-2,2.88-3,6.7-3,11.46v35.55h-4.52v-54.38h3.89v8.31c1.12-3.01,2.75-5.36,4.89-7.05,2.14-1.68,4.82-2.52,8.05-2.52s5.91.81,8.05,2.42c2.14,1.62,3.7,3.86,4.68,6.73,1.19-2.88,2.89-5.12,5.1-6.73,2.21-1.61,4.93-2.42,8.15-2.42,4.7,0,8.2,1.56,10.52,4.68,2.31,3.12,3.47,7.38,3.47,12.78v38.18h-4.52v-37.55c0-9.19-3.4-13.78-10.2-13.78Z"/>
  <path class="cls-2" d="M422.85,471.04c-1.3-2.07-3.45-3.1-6.47-3.1s-5.35,1.12-6.99,3.37c-1.65,2.24-2.47,5.33-2.47,9.26v36.5h-6.94v-36.81c0-4-.67-7.05-2-9.15-1.33-2.1-3.51-3.16-6.52-3.16s-5.24,1.12-6.89,3.37c-1.65,2.24-2.47,5.33-2.47,9.26v36.5h-7.05v-54.38h5.89v6.63c2.31-5.26,6.31-7.89,11.99-7.89s9.92,2.52,12.1,7.57c1.33-2.38,3.05-4.24,5.15-5.57,2.1-1.33,4.56-2,7.36-2,4.77,0,8.34,1.58,10.73,4.73,2.38,3.16,3.58,7.54,3.58,13.15v37.76h-7.05v-36.81c0-4.07-.65-7.13-1.95-9.2Z"/>
  <path class="cls-2" d="M533.14,471.88c-1.19-1.93-3.16-2.89-5.89-2.89s-4.73.98-6.21,2.95c-1.47,1.96-2.21,4.7-2.21,8.2v36.92h-8.2v-36.39c0-3.93-.6-6.85-1.79-8.78-1.19-1.93-3.16-2.89-5.89-2.89s-4.73.98-6.21,2.95c-1.47,1.96-2.21,4.7-2.21,8.2v36.92h-8.2v-54.38h6.84v5.99c2.38-4.84,6.24-7.26,11.57-7.26s9.5,2.28,11.88,6.84c1.33-2.1,3.03-3.77,5.1-5,2.07-1.23,4.4-1.84,7-1.84,4.77,0,8.36,1.58,10.78,4.73,2.42,3.16,3.63,7.57,3.63,13.25v37.65h-8.2v-36.39c0-3.93-.6-6.85-1.79-8.78Z"/>
  <path class="cls-2" d="M643.01,472.98c-1.02-1.61-2.72-2.42-5.1-2.42s-4.1.82-5.36,2.47c-1.26,1.65-1.89,4.02-1.89,7.1v36.92h-9.68v-36.6c0-3.29-.51-5.77-1.52-7.42-1.02-1.65-2.72-2.47-5.1-2.47s-4.1.82-5.36,2.47c-1.26,1.65-1.89,4.02-1.89,7.1v36.92h-9.68v-54.38h8.1v5.79c2.31-4.7,6.13-7.05,11.46-7.05s9.15,2.24,11.46,6.73c1.33-2.1,3-3.75,5-4.94,2-1.19,4.29-1.79,6.89-1.79,4.7,0,8.19,1.56,10.47,4.68,2.28,3.12,3.42,7.45,3.42,12.99v37.97h-9.68v-36.6c0-3.37-.51-5.85-1.52-7.47Z"/>
  <path class="cls-2" d="M752.83,474.2c-.88-1.37-2.33-2.05-4.37-2.05s-3.45.68-4.47,2.05c-1.02,1.37-1.53,3.31-1.53,5.84v37.02h-11.25v-36.71c0-2.73-.44-4.79-1.31-6.15-.88-1.37-2.3-2.05-4.26-2.05s-3.45.68-4.47,2.05c-1.02,1.37-1.53,3.31-1.53,5.84v37.02h-11.15v-54.38h9.36v5.58c1.05-2.17,2.54-3.86,4.47-5.05,1.93-1.19,4.22-1.79,6.89-1.79,5.19,0,8.87,2.21,11.04,6.63,1.26-2.1,2.86-3.73,4.79-4.89,1.93-1.16,4.19-1.74,6.78-1.74,4.63,0,8.05,1.58,10.25,4.73,2.21,3.15,3.31,7.4,3.31,12.72v38.18h-11.25v-36.71c0-2.73-.44-4.79-1.31-6.15Z"/>
  <path class="cls-2" d="M863.12,474.88c-.77-1.19-2.03-1.79-3.79-1.79s-3.07.62-3.94,1.84c-.88,1.23-1.31,2.93-1.31,5.1v37.02h-12.2v-36.81c0-2.38-.39-4.17-1.16-5.36-.77-1.19-2.04-1.79-3.79-1.79s-2.96.62-3.84,1.84c-.88,1.23-1.31,2.93-1.31,5.1v37.02h-12.2v-54.38h10.31v5.36c2.38-4.42,6.13-6.62,11.25-6.62s8.62,2.17,10.73,6.52c2.66-4.35,6.48-6.52,11.46-6.52,4.56,0,7.89,1.56,9.99,4.68,2.1,3.12,3.16,7.31,3.16,12.57v38.39h-12.2v-36.81c0-2.38-.39-4.17-1.16-5.36Z"/>
  <path class="cls-2" d="M969.99,474.46c-2.81,0-4.21,1.82-4.21,5.47v37.13h-13.46v-37.02c0-3.72-1.33-5.57-4-5.57-2.8,0-4.21,1.82-4.21,5.47v37.13h-13.46v-54.38h11.36v5.26c2.31-4.35,6.06-6.52,11.25-6.52,4.84,0,8.27,2.14,10.31,6.42,2.38-4.28,6.13-6.42,11.25-6.42,4.49,0,7.75,1.56,9.78,4.68,2.03,3.12,3.05,7.24,3.05,12.36v38.6h-13.46v-37.02c0-3.72-1.4-5.57-4.21-5.57Z"/>
  <path class="cls-2" d="M1080.75,475.72c-2.17,0-3.26,1.4-3.26,4.21v37.13h-14.72v-37.13c0-2.8-1.05-4.21-3.16-4.21s-3.16,1.4-3.16,4.21v37.13h-14.72v-54.38h12.41v5.15c2.31-4.28,6.03-6.42,11.15-6.42,4.7,0,8.03,2.1,9.99,6.31,2.45-4.21,6.13-6.31,11.04-6.31,4.42,0,7.59,1.54,9.52,4.63,1.93,3.09,2.89,7.15,2.89,12.2v38.81h-14.73v-37.13c0-2.8-1.09-4.21-3.26-4.21Z"/>
  <path class="cls-2" d="M1192.04,475.82c-2.04,0-3.05,1.4-3.05,4.21v37.02h-15.14v-37.02c0-2.8-.95-4.21-2.84-4.21s-2.95,1.4-2.95,4.21v37.02h-15.15v-54.38h12.41v5.79c1.12-2.31,2.65-4.07,4.58-5.26,1.93-1.19,4.19-1.79,6.78-1.79,4.63,0,7.99,2.14,10.1,6.42,2.31-4.28,5.96-6.42,10.94-6.42,8.2,0,12.31,5.61,12.31,16.83v38.81h-15.15v-37.02c0-2.8-.95-4.21-2.84-4.21Z"/>
  <path class="cls-2" d="M1303.23,475.93c-1.82,0-2.73,1.37-2.73,4.1v37.02h-15.57v-37.02c0-2.73-.84-4.1-2.52-4.1-1.82,0-2.73,1.37-2.73,4.1v37.02h-15.57v-54.38h12.41v6.42c2.31-5.12,6.17-7.68,11.57-7.68,4.63,0,7.99,2.17,10.1,6.52,2.24-4.35,5.85-6.52,10.83-6.52,8.2,0,12.31,5.61,12.31,16.83v38.81h-15.57v-37.02c0-2.73-.84-4.1-2.52-4.1Z"/>
  <path class="cls-2" d="M54.49,268.11c.91-4.21,3.33-7.59,7.26-10.15,3.93-2.56,9.11-3.84,15.57-3.84,3.58,0,6.21.18,7.89.53v1.89c-2.38-.35-5.22-.53-8.52-.53-7.01,0-12.43,1.79-16.25,5.36-3.82,3.58-5.73,8.98-5.73,16.2v31.55h-1.89v-54.38h1.68v13.36Z"/>
  <path class="cls-2" d="M167.72,267.48c1.12-4,3.59-7.22,7.42-9.68,3.82-2.45,8.89-3.68,15.2-3.68,3.86,0,6.59.21,8.2.63v3.05c-2.8-.42-5.78-.63-8.94-.63-14.45,0-21.67,6.84-21.67,20.51v31.45h-3.05v-54.38h2.84v12.73Z"/>
  <path class="cls-2" d="M280.48,266.43c1.26-3.79,3.75-6.78,7.47-8.99,3.72-2.21,8.66-3.31,14.83-3.31,4.14,0,7.01.21,8.62.63v4.63c-2.8-.42-5.96-.63-9.47-.63-7.29,0-12.66,1.58-16.09,4.73-3.44,3.16-5.15,7.92-5.15,14.3v31.34h-4.63v-54.38h4.42v11.67Z"/>
  <path class="cls-2" d="M393.66,265.27c1.47-3.43,3.98-6.17,7.52-8.2,3.54-2.03,8.29-3.05,14.25-3.05,4.35,0,7.5.25,9.47.74v7.05c-2.95-.42-6.38-.63-10.31-.63-7.5,0-12.82,1.37-15.93,4.1-3.12,2.73-4.68,6.94-4.68,12.62v31.13h-7.26v-54.38h6.94v10.62Z"/>
  <path class="cls-2" d="M505.79,264.85c3.16-7.22,10.34-10.83,21.56-10.83,4.63,0,7.89.28,9.78.84v8.2c-3.44-.49-7.01-.74-10.73-.74-7.57,0-12.85,1.28-15.83,3.84-2.98,2.56-4.47,6.5-4.47,11.83v31.03h-8.41v-54.38h8.1v10.2Z"/>
  <path class="cls-2" d="M617.61,265.38c3.22-7.57,10.41-11.36,21.56-11.36,4.28,0,7.43.28,9.47.84v9.99c-2.95-.42-6.38-.63-10.31-.63-7.29,0-12.45,1.23-15.46,3.68-3.02,2.46-4.52,6.28-4.52,11.46v29.66h-10.52v-54.38h9.78v10.73Z"/>
  <path class="cls-2" d="M729.42,265.9c1.54-3.64,4.1-6.52,7.68-8.62s8.2-3.16,13.88-3.16c4.14,0,7.19.25,9.15.74v11.78c-3.3-.35-6.59-.53-9.89-.53-7.01,0-12.06,1.19-15.15,3.58-3.09,2.38-4.63,6.1-4.63,11.15v28.19h-12.52v-54.38h11.46v11.25Z"/>
  <path class="cls-2" d="M841.03,266.01c1.61-3.71,4.24-6.61,7.89-8.68,3.65-2.07,8.24-3.1,13.78-3.1,3.43,0,6.35.25,8.73.74v13.04c-2.94-.42-6.14-.63-9.57-.63-6.8,0-11.75,1.17-14.83,3.52-3.09,2.35-4.63,6.01-4.63,10.99v27.24h-13.88v-54.38h12.52v11.25Z"/>
  <path d="M952.85,292.51c-2.67-2.8-6.24-5.89-10.73-9.26-4.42-3.37-7.57-6.61-9.47-9.73-1.89-3.12-2.84-6.64-2.84-10.57,0-4.77,1.35-8.69,4.05-11.78,2.7-3.08,6.36-4.63,10.99-4.63,3.65,0,6.64.84,8.99,2.52,2.35,1.68,4.05,3.79,5.1,6.31.98-2.52,2.66-4.63,5.05-6.31,2.38-1.68,5.36-2.52,8.94-2.52,4.63,0,8.31,1.56,11.04,4.68,2.73,3.12,4.1,7.03,4.1,11.73,0,3.93-.95,7.45-2.84,10.57-1.89,3.12-5.05,6.36-9.47,9.73-4.49,3.37-8.06,6.45-10.73,9.26-2.67,2.81-4.7,5.89-6.1,9.26-1.4-3.37-3.44-6.45-6.1-9.26Z"/>
  <path class="cls-2" d="M1064.45,265.9c1.82-3.79,4.64-6.66,8.47-8.62,3.82-1.96,8.22-2.94,13.2-2.94,3.22,0,5.96.21,8.2.63v15.99c-2.59-.28-5.54-.42-8.83-.42-6.38,0-11.15,1.1-14.3,3.31s-4.73,5.66-4.73,10.36v24.93h-17.35v-54.38h15.36v11.15Z"/>
  <path class="cls-2" d="M1175.85,265.8c1.75-3.79,4.56-6.66,8.41-8.62,3.86-1.96,8.24-2.95,13.15-2.95,3.01,0,5.89.25,8.62.74v17.14c-3.23-.42-6.52-.63-9.89-.63-6.03,0-10.54,1.1-13.51,3.31-2.98,2.21-4.47,5.7-4.47,10.46v23.88h-19.14v-54.38h16.83v11.04Z"/>
  <path class="cls-2" d="M1287.13,265.8c1.75-3.79,4.56-6.66,8.41-8.62,3.86-1.96,8.24-2.95,13.15-2.95,3.22,0,6.21.25,8.94.74v18.09c-3.23-.49-6.8-.74-10.73-.74-5.68,0-9.94,1.09-12.78,3.26-2.84,2.17-4.26,5.72-4.26,10.62v22.93h-20.83v-54.38h18.09v11.04Z"/>
</svg>