<?xml version="1.0" encoding="UTF-8"?>
<svg id="Layer_1" data-name="Layer 1" xmlns="http://www.w3.org/2000/svg" xmlns:xlink="http://www.w3.org/1999/xlink" viewBox="0 0 1366 768">
  <defs>
    <style>
      .cls-1 {
        fill: #b2b8db;
      }

      .cls-2 {
        fill: #e5070b;
      }

      .cls-3 {
        fill: #12100b;
      }

      .cls-4 {
        fill: #3b45c4;
      }

      .cls-5 {
        fill: #fff;
      }

      .cls-6 {
        fill: #00d800;
      }

      .cls-7 {
        clip-path: url(#clippath);
      }
    </style>
    <clipPath id="clippath">
      <rect class="cls-3" x="-10" y="-10" width="1386" height="788"/>
    </clipPath>
  </defs>
  <g>
    <rect class="cls-3" x="-10" y="-10" width="1386" height="788"/>
    <g class="cls-7">
      <rect class="cls-3" x="-.35" y="-3.25" width="1366.71" height="779.89"/>
    </g>
  </g>
  <g>
    <path class="cls-1" d="M206.49,159.19c0,23.31-17.38,41.52-50.72,41.52-15.95,0-32.31-3.89-45.4-11.04l-1.43-37.63h10.43c3.07,11.45,5.93,20.25,9,27.2,7.36,5.93,17.18,8.39,28.02,8.39,17.38,0,29.86-8.79,29.86-25.56,0-11.25-7.36-19.63-20.04-25.56l-32.11-15.13c-15.95-7.57-24.95-18.61-24.95-36.81,0-22.91,18.82-38.04,43.97-38.04,12.88,0,23.11,2.66,31.9,7.98.82-2.66,1.23-5.11,1.23-7.98h11.86l.61,42.13h-10.43c-1.64-5.73-4.29-14.32-7.16-20.86-7.98-6.34-16.16-8.39-25.97-8.39-16.57,0-26.18,6.75-26.18,19.63,0,9.61,6.54,15.95,14.32,19.84l35.79,18.2c16.77,8.59,27.4,21.68,27.4,42.13ZM134.1,189.46l-.82-1.23c.41.41.61.82.82,1.23Z"/>
    <path class="cls-1" d="M363.96,59.8l-14.93,1.84v85.69c-.2,33.74-19.22,53.17-53.38,53.17s-58.7-15.54-58.9-53.17V61.64l-15.75-1.84v-10.23h51.74v10.23l-14.93,1.84v85.08c0,23.93,13.29,38.86,41.92,38.86,23.52,0,37.22-11.66,37.22-37.63V61.64l-15.75-1.84v-10.23h42.74v10.23Z"/>
    <path class="cls-1" d="M507.93,187.83l-5.73,9.61c-34.77-14.52-56.85-38.65-71.38-66.26h-20.25v54.2l17.18,1.84v10.23h-53.99v-10.23l15.75-1.84V61.64l-15.54-1.84v-10.23h64.01c34.56,0,55.22,14.32,55.22,39.88,0,21.68-16.57,34.77-37.83,39.47,11.66,24.13,27.61,42.13,52.56,58.9ZM431.85,119.11c24.54,0,38.24-9.82,38.24-29.65,0-18.82-16.16-27.61-39.27-27.61-3.68,0-12.88,0-20.25-.2v57.47h21.27Z"/>
    <path class="cls-1" d="M626.75,143.85c0,35.18-22.09,56.65-46.63,56.65-11.45,0-21.27-5.11-28.84-11.04v42.33l16.97,1.84v10.23h-53.79v-10.23l15.75-1.84v-112.48l-16.16-.82v-5.93l31.29-20.45h5.93v20.86h1.43c7.77-11.66,17.79-21.07,32.52-21.07,25.97,0,41.52,27,41.52,51.95ZM605.89,149.17c0-22.5-8.38-41.31-27.81-41.31-12.27,0-21.27,9-26.79,17.59v49.08c7.36,8.38,15.75,12.88,26.18,12.88,19.63,0,28.43-16.97,28.43-38.24Z"/>
    <path class="cls-1" d="M691.58,187.21v10.23h-51.74v-10.23l15.75-1.84v-112.07l-16.36-2.04v-6.14l40.49-22.5,6.75,11.25-9.82,6.14v125.37l14.93,1.84Z"/>
    <path class="cls-1" d="M822.05,168.4v12.07l-31.29,20.45h-3.89v-18.41h-2.04c-8.79,9-21.06,18.2-35.58,18.2-20.25,0-30.06-14.32-30.06-32.93v-48.47l-15.95-.82v-5.93l31.29-20.45h5.93v67.9c0,15.54,5.73,24.54,21.27,24.54,7.98,0,16.16-4.91,22.91-11.45v-53.79l-15.95-.82v-5.93l31.29-20.45h5.93v85.9l16.16-9.61Z"/>
    <path class="cls-1" d="M835.34,119.52c0-20.04,16.77-27.61,33.75-27.61,13.29,0,19.22,1.43,32.11,4.09v31.7h-9.41c-2.05-14.11-7.57-25.36-23.31-25.36-9.41,0-15.13,5.32-15.13,13.29,0,7.36,5.11,11.66,11.66,15.13l21.07,11.04c13.29,6.95,21.68,15.75,21.68,28.63,0,18.82-12.48,30.27-36.2,30.27-11.66,0-22.91-2.45-35.59-6.95v-31.29h9.2c1.43,20.86,11.86,26.79,24.75,26.79,11.45,0,19.63-4.7,19.63-14.32,0-7.77-4.5-10.63-13.5-15.34l-20.45-10.43c-11.25-5.73-20.25-14.93-20.25-29.65Z"/>
  </g>
  <g>
    <path class="cls-6" d="M507.6,362.97c0,17.1-12.75,30.45-37.2,30.45-11.7,0-23.7-2.85-33.3-8.1l-1.05-27.6h7.65c2.25,8.4,4.35,14.85,6.6,19.95,5.4,4.35,12.6,6.15,20.55,6.15,12.75,0,21.9-6.45,21.9-18.75,0-8.25-5.4-14.4-14.7-18.75l-23.55-11.1c-11.7-5.55-18.3-13.65-18.3-27,0-16.8,13.8-27.9,32.25-27.9,9.45,0,16.95,1.95,23.4,5.85.6-1.95.9-3.75.9-5.85h8.7l.45,30.9h-7.65c-1.2-4.2-3.15-10.5-5.25-15.3-5.85-4.65-11.85-6.15-19.05-6.15-12.15,0-19.2,4.95-19.2,14.4,0,7.05,4.8,11.7,10.5,14.55l26.25,13.35c12.3,6.3,20.1,15.9,20.1,30.9ZM454.5,385.17l-.6-.9c.3.3.45.6.6.9Z"/>
    <path class="cls-6" d="M623.1,290.08l-10.95,1.35v62.85c-.15,24.75-14.1,39-39.15,39s-43.05-11.4-43.2-39v-62.85l-11.55-1.35v-7.5h37.95v7.5l-10.95,1.35v62.4c0,17.55,9.75,28.5,30.75,28.5,17.25,0,27.3-8.55,27.3-27.6v-63.3l-11.55-1.35v-7.5h31.35v7.5Z"/>
    <path class="cls-6" d="M728.7,383.97l-4.2,7.05c-25.5-10.65-41.7-28.35-52.35-48.6h-14.85v39.75l12.6,1.35v7.5h-39.6v-7.5l11.55-1.35v-90.75l-11.4-1.35v-7.5h46.95c25.35,0,40.5,10.5,40.5,29.25,0,15.9-12.15,25.5-27.75,28.95,8.55,17.7,20.25,30.9,38.55,43.2ZM672.9,333.57c18,0,28.05-7.2,28.05-21.75,0-13.8-11.85-20.25-28.8-20.25-2.7,0-9.45,0-14.85-.15v42.15h15.6Z"/>
    <path class="cls-6" d="M815.85,351.72c0,25.8-16.2,41.55-34.2,41.55-8.4,0-15.6-3.75-21.15-8.1v31.05l12.45,1.35v7.5h-39.45v-7.5l11.55-1.35v-82.5l-11.85-.6v-4.35l22.95-15h4.35v15.3h1.05c5.7-8.55,13.05-15.45,23.85-15.45,19.05,0,30.45,19.8,30.45,38.1ZM800.55,355.62c0-16.5-6.15-30.3-20.4-30.3-9,0-15.6,6.6-19.65,12.9v36c5.4,6.15,11.55,9.45,19.2,9.45,14.4,0,20.85-12.45,20.85-28.05Z"/>
    <path class="cls-6" d="M863.4,383.52v7.5h-37.95v-7.5l11.55-1.35v-82.2l-12-1.5v-4.5l29.7-16.5,4.95,8.25-7.2,4.5v91.95l10.95,1.35Z"/>
    <path class="cls-6" d="M959.1,369.72v8.85l-22.95,15h-2.85v-13.5h-1.5c-6.45,6.6-15.45,13.35-26.1,13.35-14.85,0-22.05-10.5-22.05-24.15v-35.55l-11.7-.6v-4.35l22.95-15h4.35v49.8c0,11.4,4.2,18,15.6,18,5.85,0,11.85-3.6,16.8-8.4v-39.45l-11.7-.6v-4.35l22.95-15h4.35v63l11.85-7.05Z"/>
    <path class="cls-6" d="M968.85,333.87c0-14.7,12.3-20.25,24.75-20.25,9.75,0,14.1,1.05,23.55,3v23.25h-6.9c-1.5-10.35-5.55-18.6-17.1-18.6-6.9,0-11.1,3.9-11.1,9.75,0,5.4,3.75,8.55,8.55,11.1l15.45,8.1c9.75,5.1,15.9,11.55,15.9,21,0,13.8-9.15,22.2-26.55,22.2-8.55,0-16.8-1.8-26.1-5.1v-22.95h6.75c1.05,15.3,8.7,19.65,18.15,19.65,8.4,0,14.4-3.45,14.4-10.5,0-5.7-3.3-7.8-9.9-11.25l-15-7.65c-8.25-4.2-14.85-10.95-14.85-21.75Z"/>
  </g>
  <g>
    <path class="cls-2" d="M909.98,655.42c0-9.8,8.2-13.5,16.5-13.5,6.5,0,9.4.7,15.7,2v15.5h-4.6c-1-6.9-3.7-12.4-11.4-12.4-4.6,0-7.4,2.6-7.4,6.5,0,3.6,2.5,5.7,5.7,7.4l10.3,5.4c6.5,3.4,10.6,7.7,10.6,14,0,9.2-6.1,14.8-17.7,14.8-5.7,0-11.2-1.2-17.4-3.4v-15.3h4.5c.7,10.2,5.8,13.1,12.1,13.1,5.6,0,9.6-2.3,9.6-7,0-3.8-2.2-5.2-6.6-7.5l-10-5.1c-5.5-2.8-9.9-7.3-9.9-14.5Z"/>
    <path class="cls-2" d="M1009.78,679.32v5.9l-15.3,10h-1.9v-9h-1c-4.3,4.4-10.3,8.9-17.4,8.9-9.9,0-14.7-7-14.7-16.1v-23.7l-7.8-.4v-2.9l15.3-10h2.9v33.2c0,7.6,2.8,12,10.4,12,3.9,0,7.9-2.4,11.2-5.6v-26.3l-7.8-.4v-2.9l15.3-10h2.9v42l7.9-4.7Z"/>
    <path class="cls-2" d="M1055.48,650.82l-8.9,7.2c-2.2-3.8-3.3-5.4-5.7-5.4s-4.7,3.2-8.9,9.6v25.4l8.3.9v5h-26.3v-5l7.7-.9v-32.3l-7.9-.4v-2.9l15.3-10h2.9v13.4h.8c4.4-6.7,8.5-13.5,13.6-13.5,4.3,0,6.5,4,9.1,8.9Z"/>
    <path class="cls-2" d="M1078.07,661.12v26.5l10.3.9v5h-28.3v-5l7.7-.9v-60.5l-7.6-.9v-5h29.3c15.3,0,27.1,6,27.1,19.5s-11.7,20.4-29,20.4h-9.5ZM1078.07,627.12v28.1h8c13.2,0,20.1-4.1,20.1-14.5s-8.7-13.6-20.2-13.6h-7.9Z"/>
    <path class="cls-2" d="M1179.08,676.52l-5.9,17h-50.6v-5l7.6-.9v-60.5l-7.7-.9v-5h25.3v5l-7.3.9v60.5h17.1c8.3,0,13.6-4.7,17.4-12.9l4.1,1.8Z"/>
    <path class="cls-2" d="M1250.78,626.22l-7.3.9v41.9c-.1,16.5-9.4,26-26.1,26s-28.7-7.6-28.8-26v-41.9l-7.7-.9v-5h25.3v5l-7.3.9v41.6c0,11.7,6.5,19,20.5,19,11.5,0,18.2-5.7,18.2-18.4v-42.2l-7.7-.9v-5h20.9v5Z"/>
    <path class="cls-2" d="M1306.78,674.82c0,11.4-8.5,20.3-24.8,20.3-7.8,0-15.8-1.9-22.2-5.4l-.7-18.4h5.1c1.5,5.6,2.9,9.9,4.4,13.3,3.6,2.9,8.4,4.1,13.7,4.1,8.5,0,14.6-4.3,14.6-12.5,0-5.5-3.6-9.6-9.8-12.5l-15.7-7.4c-7.8-3.7-12.2-9.1-12.2-18,0-11.2,9.2-18.6,21.5-18.6,6.3,0,11.3,1.3,15.6,3.9.4-1.3.6-2.5.6-3.9h5.8l.3,20.6h-5.1c-.8-2.8-2.1-7-3.5-10.2-3.9-3.1-7.9-4.1-12.7-4.1-8.1,0-12.8,3.3-12.8,9.6,0,4.7,3.2,7.8,7,9.7l17.5,8.9c8.2,4.2,13.4,10.6,13.4,20.6ZM1271.37,689.62l-.4-.6c.2.2.3.4.4.6Z"/>
  </g>
  <g>
    <path class="cls-4" d="M696,507.11c0-11.76,9.84-16.2,19.8-16.2,7.8,0,11.28.84,18.84,2.4v18.6h-5.52c-1.2-8.28-4.44-14.88-13.68-14.88-5.52,0-8.88,3.12-8.88,7.8,0,4.32,3,6.84,6.84,8.88l12.36,6.48c7.8,4.08,12.72,9.24,12.72,16.8,0,11.04-7.32,17.76-21.24,17.76-6.84,0-13.44-1.44-20.88-4.08v-18.36h5.4c.84,12.24,6.96,15.72,14.52,15.72,6.72,0,11.52-2.76,11.52-8.4,0-4.56-2.64-6.24-7.92-9l-12-6.12c-6.6-3.36-11.88-8.76-11.88-17.4Z"/>
    <path class="cls-4" d="M815.75,535.78v7.08l-18.36,12h-2.28v-10.8h-1.2c-5.16,5.28-12.36,10.68-20.88,10.68-11.88,0-17.64-8.4-17.64-19.32v-28.44l-9.36-.48v-3.48l18.36-12h3.48v39.84c0,9.12,3.36,14.4,12.48,14.4,4.68,0,9.48-2.88,13.44-6.72v-31.56l-9.36-.48v-3.48l18.36-12h3.48v50.4l9.48-5.64Z"/>
    <path class="cls-4" d="M870.59,501.59l-10.68,8.64c-2.64-4.56-3.96-6.48-6.84-6.48s-5.64,3.84-10.68,11.52v30.48l9.96,1.08v6h-31.56v-6l9.24-1.08v-38.76l-9.48-.48v-3.48l18.36-12h3.48v16.08h.96c5.28-8.04,10.2-16.2,16.32-16.2,5.16,0,7.8,4.8,10.92,10.68Z"/>
    <path class="cls-4" d="M897.71,513.94v31.8l12.36,1.08v6h-33.96v-6l9.24-1.08v-72.6l-9.12-1.08v-6h35.16c18.36,0,32.52,7.2,32.52,23.4s-14.04,24.48-34.8,24.48h-11.4ZM897.71,473.15v33.72h9.6c15.84,0,24.12-4.92,24.12-17.4s-10.44-16.32-24.24-16.32h-9.48Z"/>
    <path class="cls-4" d="M1018.91,532.42l-7.08,20.4h-60.72v-6l9.12-1.08v-72.6l-9.24-1.08v-6h30.36v6l-8.76,1.08v72.6h20.52c9.96,0,16.32-5.64,20.88-15.48l4.92,2.16Z"/>
    <path class="cls-4" d="M1104.95,472.07l-8.76,1.08v50.28c-.12,19.8-11.28,31.2-31.32,31.2s-34.44-9.12-34.56-31.2v-50.28l-9.24-1.08v-6h30.36v6l-8.76,1.08v49.92c0,14.04,7.8,22.8,24.6,22.8,13.8,0,21.84-6.84,21.84-22.08v-50.64l-9.24-1.08v-6h25.08v6Z"/>
    <path class="cls-4" d="M1172.15,530.38c0,13.68-10.2,24.36-29.76,24.36-9.36,0-18.96-2.28-26.64-6.48l-.84-22.08h6.12c1.8,6.72,3.48,11.88,5.28,15.96,4.32,3.48,10.08,4.92,16.44,4.92,10.2,0,17.52-5.16,17.52-15,0-6.6-4.32-11.52-11.76-15l-18.84-8.88c-9.36-4.44-14.64-10.92-14.64-21.6,0-13.44,11.04-22.32,25.8-22.32,7.56,0,13.56,1.56,18.72,4.68.48-1.56.72-3,.72-4.68h6.96l.36,24.72h-6.12c-.96-3.36-2.52-8.4-4.2-12.24-4.68-3.72-9.48-4.92-15.24-4.92-9.72,0-15.36,3.96-15.36,11.52,0,5.64,3.84,9.36,8.4,11.64l21,10.68c9.84,5.04,16.08,12.72,16.08,24.72ZM1129.67,548.14l-.48-.72c.24.24.36.48.48.72Z"/>
  </g>
  <g>
    <path class="cls-5" d="M33.01,344.78v-6c-.76.22-1.51.44-2.27.66v-.96c.83-.27,1.63-.55,2.47-.82h.98v7.13h2v.98h-5.86v-.98h2.68Z"/>
    <path class="cls-5" d="M38.16,343.95l1.08-.12c.2.78.79,1.19,1.8,1.19,1.15,0,1.88-.59,1.88-1.89,0-1.22-.6-1.77-1.67-1.77-.96,0-1.59.57-1.96,1.06h-.98l.53-4.76h4.66v.98h-3.79l-.35,2.86h.09c.42-.54,1.06-.98,2.12-.98,1.47,0,2.44.9,2.44,2.58,0,1.89-1.18,2.84-2.96,2.84-1.63,0-2.67-.67-2.89-1.97Z"/>
    <path class="cls-5" d="M45.93,341.71c0-2.77,1.08-4.23,3.13-4.23s3.13,1.46,3.13,4.23-1.09,4.22-3.13,4.22-3.13-1.47-3.13-4.22ZM51.01,341.71c0-2.14-.53-3.26-1.96-3.26s-1.96,1.12-1.96,3.26.52,3.25,1.96,3.25,1.96-1.14,1.96-3.25ZM48.4,341.74c0-.44.17-.73.63-.73s.63.29.63.73-.16.73-.63.73-.63-.29-.63-.73Z"/>
    <path class="cls-5" d="M62.99,339.74h.96l.15,1.09h.08c.35-.74.98-1.26,2.14-1.26,1.79,0,2.61,1.19,2.61,3.17s-.83,3.18-2.63,3.18c-1.17,0-1.78-.48-2.12-1.17h-.06v3.26h-1.14v-8.27ZM67.77,342.75c0-1.5-.5-2.22-1.84-2.22s-1.83.96-1.83,2.22.56,2.23,1.83,2.23c1.34,0,1.84-.72,1.84-2.23Z"/>
    <path class="cls-5" d="M73.75,343.43c0,1.04.37,1.47,1.33,1.47.48,0,.98-.08,1.35-.22l.17.9c-.5.18-1.14.3-1.78.3-1.63,0-2.21-.78-2.21-2.35v-2.86h-1.75v-.91h1.75l.17-1.87h.98v1.87h2.81v.91h-2.81v2.77Z"/>
  </g>
  <g>
    <path class="cls-5" d="M30.24,127.31l2.77-2.39c1.04-.9,1.73-1.59,1.73-2.65,0-.88-.49-1.39-1.52-1.39-1.22,0-1.7.71-1.83,1.95l-1.07-.11c.18-1.64.99-2.78,2.91-2.78,1.76,0,2.64.92,2.64,2.3s-.92,2.36-2.14,3.3l-1.97,1.62v.08h4.2v.98h-5.72v-.92Z"/>
    <path class="cls-5" d="M37.9,124.18c0-2.77,1.08-4.23,3.13-4.23s3.13,1.46,3.13,4.23-1.09,4.22-3.13,4.22-3.13-1.47-3.13-4.22ZM42.98,124.18c0-2.14-.52-3.26-1.96-3.26s-1.96,1.12-1.96,3.26.52,3.25,1.96,3.25,1.96-1.14,1.96-3.25ZM40.37,124.21c0-.44.17-.73.63-.73s.63.29.63.73-.16.73-.63.73-.63-.29-.63-.73Z"/>
    <path class="cls-5" d="M46.03,124.18c0-2.77,1.08-4.23,3.13-4.23s3.13,1.46,3.13,4.23-1.09,4.22-3.13,4.22-3.13-1.47-3.13-4.22ZM51.11,124.18c0-2.14-.52-3.26-1.96-3.26s-1.96,1.12-1.96,3.26.52,3.25,1.96,3.25,1.96-1.14,1.96-3.25ZM48.51,124.21c0-.44.17-.73.63-.73s.63.29.63.73-.16.73-.63.73-.63-.29-.63-.73Z"/>
    <path class="cls-5" d="M63.09,122.22h.96l.15,1.09h.08c.35-.74.98-1.26,2.14-1.26,1.79,0,2.61,1.19,2.61,3.17s-.83,3.18-2.63,3.18c-1.17,0-1.78-.48-2.12-1.17h-.06v3.26h-1.14v-8.27ZM67.87,125.22c0-1.5-.5-2.22-1.84-2.22s-1.83.96-1.83,2.22.56,2.23,1.83,2.23c1.34,0,1.84-.72,1.84-2.23Z"/>
    <path class="cls-5" d="M73.86,125.9c0,1.04.37,1.47,1.33,1.47.49,0,.98-.08,1.35-.22l.17.9c-.5.18-1.14.3-1.78.3-1.63,0-2.21-.78-2.21-2.35v-2.86h-1.75v-.91h1.75l.17-1.87h.98v1.87h2.81v.91h-2.81v2.77Z"/>
  </g>
  <g>
    <path class="cls-5" d="M33.01,532.11v-6c-.76.22-1.51.44-2.27.66v-.96c.83-.27,1.63-.55,2.47-.82h.98v7.13h2v.98h-5.86v-.98h2.68Z"/>
    <path class="cls-5" d="M38.22,532.16l2.77-2.39c1.04-.9,1.73-1.59,1.73-2.65,0-.88-.49-1.39-1.52-1.39-1.22,0-1.7.71-1.83,1.95l-1.07-.11c.18-1.64.99-2.78,2.91-2.78,1.76,0,2.64.92,2.64,2.3s-.92,2.36-2.14,3.3l-1.97,1.62v.08h4.2v.98h-5.72v-.92Z"/>
    <path class="cls-5" d="M45.87,529.04c0-2.77,1.08-4.23,3.13-4.23s3.13,1.46,3.13,4.23-1.09,4.22-3.13,4.22-3.13-1.47-3.13-4.22ZM50.96,529.04c0-2.14-.52-3.26-1.96-3.26s-1.96,1.12-1.96,3.26.52,3.25,1.96,3.25,1.96-1.14,1.96-3.25ZM48.35,529.06c0-.44.17-.73.63-.73s.63.29.63.73-.16.73-.63.73-.63-.29-.63-.73Z"/>
    <path class="cls-5" d="M62.94,527.07h.96l.15,1.09h.08c.35-.74.98-1.26,2.14-1.26,1.79,0,2.61,1.19,2.61,3.17s-.83,3.18-2.63,3.18c-1.17,0-1.78-.48-2.12-1.17h-.06v3.26h-1.14v-8.27ZM67.71,530.07c0-1.5-.5-2.22-1.84-2.22s-1.83.96-1.83,2.22.56,2.23,1.83,2.23c1.34,0,1.84-.72,1.84-2.23Z"/>
    <path class="cls-5" d="M73.7,530.75c0,1.04.37,1.47,1.33,1.47.49,0,.98-.08,1.35-.22l.17.9c-.5.18-1.14.3-1.78.3-1.63,0-2.21-.78-2.21-2.35v-2.86h-1.75v-.91h1.75l.17-1.87h.98v1.87h2.81v.91h-2.81v2.77Z"/>
  </g>
  <g>
    <path class="cls-5" d="M33.01,667.91v-6c-.76.22-1.51.44-2.27.66v-.96c.83-.27,1.63-.55,2.47-.82h.98v7.13h2v.98h-5.86v-.98h2.68Z"/>
    <path class="cls-5" d="M37.81,664.84c0-2.77,1.08-4.23,3.13-4.23s3.13,1.46,3.13,4.23-1.09,4.22-3.13,4.22-3.13-1.47-3.13-4.22ZM42.9,664.84c0-2.14-.53-3.26-1.96-3.26s-1.96,1.12-1.96,3.26.52,3.25,1.96,3.25,1.96-1.14,1.96-3.25ZM40.29,664.87c0-.44.17-.73.63-.73s.63.29.63.73-.16.73-.63.73-.63-.29-.63-.73Z"/>
    <path class="cls-5" d="M45.95,664.84c0-2.77,1.08-4.23,3.13-4.23s3.13,1.46,3.13,4.23-1.09,4.22-3.13,4.22-3.13-1.47-3.13-4.22ZM51.03,664.84c0-2.14-.53-3.26-1.96-3.26s-1.96,1.12-1.96,3.26.52,3.25,1.96,3.25,1.96-1.14,1.96-3.25ZM48.42,664.87c0-.44.17-.73.63-.73s.63.29.63.73-.16.73-.63.73-.63-.29-.63-.73Z"/>
    <path class="cls-5" d="M63.01,662.87h.96l.15,1.09h.08c.35-.74.98-1.26,2.14-1.26,1.79,0,2.61,1.19,2.61,3.17s-.83,3.18-2.63,3.18c-1.17,0-1.78-.48-2.12-1.17h-.06v3.26h-1.14v-8.27ZM67.78,665.87c0-1.5-.5-2.22-1.84-2.22s-1.83.96-1.83,2.22.56,2.23,1.83,2.23c1.34,0,1.84-.72,1.84-2.23Z"/>
    <path class="cls-5" d="M73.77,666.55c0,1.04.37,1.47,1.33,1.47.49,0,.98-.08,1.35-.22l.17.9c-.5.18-1.14.3-1.78.3-1.63,0-2.21-.78-2.21-2.35v-2.86h-1.75v-.91h1.75l.17-1.87h.98v1.87h2.81v.91h-2.81v2.77Z"/>
  </g>
</svg>