<?xml version="1.0" encoding="UTF-8"?>
<svg id="Layer_1" data-name="Layer 1" xmlns="http://www.w3.org/2000/svg" viewBox="0 0 1366 768">
  <defs>
    <style>
      .cls-1 {
        fill: #12100b;
      }

      .cls-2 {
        fill: #ccbbe4;
      }
    </style>
  </defs>
  <rect class="cls-2" x="-10" y="-10" width="1386" height="788"/>
  <g>
    <path class="cls-1" d="M253.22,51.23v19.27h-70.48v61.82h70.48v19.27H92.11v-19.27h70.48v-61.82h-70.48v-19.27h161.11Z"/>
    <path class="cls-1" d="M413.31,101.48c0,28.55-23.45,51.82-52.36,51.82s-52.5-23.41-52.5-51.82,23.59-51.96,52.5-51.96,52.36,23.56,52.36,51.96ZM328.59,101.63c0,17.42,14.53,31.69,32.22,31.69s32.37-14.28,32.37-31.84-14.53-31.98-32.37-31.98-32.22,14.56-32.22,32.12Z"/>
    <path class="cls-1" d="M432.87,51.23l25.89,59.53,25.89-59.53h21l-45.46,100.36h-2.88l-45.46-100.36h21Z"/>
    <path class="cls-1" d="M675.96,51.23v19.27h-140.97v22.27h140.97v18.56h-140.97v20.99h140.97v19.27h-161.11V51.23h161.11Z"/>
    <path class="cls-1" d="M724.72,51.23c24.31,0,41.43,18.42,41.43,39.54,0,13.13-6.62,25.27-17.41,32.55l2.16,3.28c3.17,4.71,7.19,5.71,13.67,5.71v19.27c-16.25,0-22.3-2.86-29.2-13.56l-5.03-7.85c-1.58.14-3.31.29-4.89.29h-10.93v21.13h-20.14V51.23h30.35ZM714.5,110.48h10.79c11.36,0,20.71-8.28,20.71-19.56s-9.35-19.7-20.71-19.7h-10.79v39.26Z"/>
    <path class="cls-1" d="M827.85,71.08h-10.64c-7.91,0-10.93,4.43-10.93,9.57,0,10.14,16.4,26.27,16.4,42.97s-11.22,27.98-32.37,27.98h-13.95v-19.99h9.06c8.49,0,14.1-3.71,14.1-11.14,0-10.42-16.25-27.12-16.25-43.97,0-15.13,11.22-25.27,30.06-25.27h14.53v19.84Z"/>
    <path class="cls-1" d="M863.37,51.23v81.09h33.23v19.27h-53.37V51.23h20.14Z"/>
    <path class="cls-1" d="M1004.77,51.23v19.27h-72.21v21.84h69.33v18.56h-69.33v21.41h72.21v19.27h-92.35V51.23h92.35Z"/>
    <path class="cls-1" d="M1053.38,51.23c24.31,0,41.43,18.42,41.43,39.54s-16.97,39.12-40.71,39.69h-10.93v21.13h-20.14V51.23h30.35ZM1043.17,110.48h10.79c11.36,0,20.71-8.28,20.71-19.56s-9.35-19.7-20.71-19.7h-10.79v39.26Z"/>
    <path class="cls-1" d="M1275.33,51.23v19.27h-76.24v81.09h-20.14v-81.09h-76.24v-19.27h172.61Z"/>
    <path class="cls-1" d="M187.2,268.59l-28.34-57.68-28.34,57.68h-8.49l-28.19-100.36h20.28l15.68,56.53,27.62-56.53h2.88l27.62,56.53,15.68-56.53h20.28l-28.19,100.36h-8.49Z"/>
    <path class="cls-1" d="M256.23,168.23v41.54h43.87v-41.54h20.14v100.36h-20.14v-40.26h-43.87v40.26h-20.14v-100.36h20.14Z"/>
    <path class="cls-1" d="M436.75,168.23v19.27h-72.21v21.84h69.33v18.56h-69.33v21.41h72.21v19.27h-92.35v-100.36h92.35Z"/>
    <path class="cls-1" d="M457.89,168.23l167.29,71.1v-71.1h20.14v100.36h-2.88l-167.29-71.1v71.1h-20.14v-100.36h2.88Z"/>
    <path class="cls-1" d="M878.63,168.23v19.27h-76.24v81.09h-20.14v-81.09h-76.24v-19.27h172.61Z"/>
    <path class="cls-1" d="M893.29,268.59v-100.36h20.14v41.54h150.03v-41.54h20.14v100.36h-20.14v-40.26h-150.03v40.26h-20.14Z"/>
    <path class="cls-1" d="M1265.98,168.23v19.27h-140.97v22.27h140.97v18.56h-140.97v20.99h140.97v19.27h-161.11v-100.36h161.11Z"/>
    <path class="cls-1" d="M160.3,364.32s-1.15.14-4.03.14h-39.41v21.13h-20.14v-100.36h59.26c24.31,0,41.43,18.42,41.43,39.54,0,13.42-6.9,25.7-17.98,32.98l1.87,2.85c3.16,4.71,7.62,5.71,15.1,5.71v19.27c-16.25,0-23.3-3.14-30.64-13.56l-5.47-7.71ZM116.86,344.48h39.7c11.36,0,20.71-8.28,20.71-19.56s-9.35-19.7-20.71-19.7h-39.7v39.26Z"/>
    <path class="cls-1" d="M304.42,376.31h-68.33l-5.61,9.28h-22.87l61.28-100.36h2.88l61.13,100.36h-22.87l-5.61-9.28ZM247.32,357.76h45.89l-22.87-38.12-23.02,38.12Z"/>
    <path class="cls-1" d="M363.83,285.23v100.36h-20.14v-100.36h20.14Z"/>
    <path class="cls-1" d="M387.99,285.23l61.13,56.82v-56.82h20.14v100.36h-2.88l-61.13-56.82v56.82h-20.14v-100.36h2.88Z"/>
    <path class="cls-1" d="M675.24,285.23c21.58,0,35.53,13.85,35.53,30.98,0,9.42-4.32,16.13-10.93,20.56,5.32,4.57,8.78,10.85,8.78,18.13,0,17.13-13.95,30.69-35.53,30.69h-136.51v-100.36h138.67ZM556.71,327.2h118.1c10.36,0,15.25-5,15.25-10.99s-4.89-10.99-15.25-10.99h-118.1v21.99ZM556.71,365.61h115.94c10.36,0,15.25-4.71,15.25-10.71s-4.89-9.99-15.25-9.99h-115.94v20.7Z"/>
    <path class="cls-1" d="M887.98,285.23v19.27h-140.97v22.27h140.97v18.56h-140.97v20.99h140.97v19.27h-161.11v-100.36h161.11Z"/>
    <path class="cls-1" d="M1001.89,304.51h-47.47c-19.85,0-31.93,13.56-31.93,30.69s12.08,31.12,32.08,31.12h32.08v-30.84h18.27v50.11h-50.35c-31.36,0-52.36-21.7-52.36-50.39s20.86-49.97,51.5-49.97h48.19v19.27Z"/>
    <path class="cls-1" d="M1045.9,285.23v54.25c0,16.27,11.65,27.84,33.8,27.84s33.8-11.56,33.8-27.84v-54.25h20.14l-.14,55.68c0,23.13-18.84,46.11-53.8,46.11s-53.94-22.98-53.94-46.11v-55.68h20.14Z"/>
    <path class="cls-1" d="M1162.27,285.23l86.88,62.53v-62.53h20.14v100.36h-2.88l-86.88-62.53v62.53h-20.14v-100.36h2.88Z"/>
    <path class="cls-1" d="M118.75,402.23l30.62,100.36h-21.79l-2.42-10.28h-18.65l-2.28,10.28h-21.5l30.33-100.36h5.7ZM113.76,459.77l-3.42,15.7h10.96l-3.28-15.7-2.13-17.13-2.14,17.13Z"/>
    <path class="cls-1" d="M181.69,402.23v81.09h63.22v19.27h-83.16v-100.36h19.93Z"/>
    <path class="cls-1" d="M281.51,402.23v81.09h63.22v19.27h-83.16v-100.36h19.94Z"/>
    <path class="cls-1" d="M417.64,402.23v100.36h-19.93v-100.36h19.93Z"/>
    <path class="cls-1" d="M484.85,402.23l60.52,56.82v-56.82h19.94v100.36h-2.85l-60.52-56.82v56.82h-19.94v-100.36h2.85Z"/>
    <path class="cls-1" d="M704,452.48c0,28.7-20.08,51.82-60.66,51.82s-61.23-23.41-61.23-51.82,20.22-51.96,61.23-51.96,60.66,23.56,60.66,51.96ZM602.05,452.48c0,17.56,11.25,31.84,41.29,31.84s40.73-14.28,40.73-31.84-11.39-31.98-40.87-31.98-41.15,14.42-41.15,31.98Z"/>
    <path class="cls-1" d="M812.22,402.23v19.27h-41.15v81.09h-19.93v-81.09h-41.15v-19.27h102.24Z"/>
    <path class="cls-1" d="M844.98,402.23v100.36h-19.94v-100.36h19.94Z"/>
    <path class="cls-1" d="M958.89,421.51h-46.99c-19.65,0-31.61,13.56-31.61,30.69s11.96,31.12,31.75,31.12h46.85v19.27h-46.85c-31.04,0-51.83-21.7-51.83-50.39s20.65-49.97,50.98-49.97h47.7v19.27Z"/>
    <path class="cls-1" d="M1070.11,402.23v19.27h-71.48v21.84h68.63v18.56h-68.63v21.41h71.48v19.27h-91.42v-100.36h91.42Z"/>
    <path class="cls-1" d="M1226.17,402.23c28.62,0,51.69,21.56,51.69,50.25s-23.07,50.11-51.69,50.11h-137.98v-100.36h137.98ZM1108.13,483.32h118.04c17.51,0,31.75-13.28,31.75-30.84s-14.24-30.98-31.75-30.98h-118.04v61.82Z"/>
    <path class="cls-1" d="M185.54,619.59l-28.34-57.68-28.34,57.68h-8.49l-28.19-100.36h20.28l15.68,56.53,27.62-56.53h2.88l27.62,56.53,15.68-56.53h20.28l-28.19,100.36h-8.49Z"/>
    <path class="cls-1" d="M291.98,619.59v-25.13h-40.13v25.13h-20.14v-61.67c0-23.98,16.83-40.4,40.13-40.4s40.28,16.42,40.28,40.4v61.67h-20.14ZM251.85,575.91h40.13v-17.99c0-12.56-7.91-20.42-20.14-20.42s-20,7.85-20,20.42v17.99Z"/>
    <path class="cls-1" d="M378.43,539.08h-10.64c-7.91,0-10.93,4.43-10.93,9.57,0,10.14,16.4,26.27,16.4,42.97s-11.22,27.98-32.36,27.98h-13.95v-19.99h9.06c8.49,0,14.1-3.71,14.1-11.14,0-10.42-16.25-27.12-16.25-43.97,0-15.13,11.22-25.27,30.06-25.27h14.53v19.84Z"/>
    <path class="cls-1" d="M491.77,519.23v19.27h-24.31v81.09h-20.14v-81.09h-24.31v-19.27h68.76Z"/>
    <path class="cls-1" d="M526.29,519.23v41.54h43.87v-41.54h20.14v100.36h-20.14v-40.26h-43.87v40.26h-20.14v-100.36h20.14Z"/>
    <path class="cls-1" d="M666.39,519.23v19.27h-34.67v22.27h32.8v18.56h-32.8v20.99h34.67v19.27h-54.8v-100.36h54.8Z"/>
    <path class="cls-1" d="M765.78,519.23c17.26,0,31.21,13.99,31.21,30.98,0,8.57-3.6,15.56-9.35,20.27,4.46,4.57,7.34,10.85,7.34,18.27,0,16.85-14.1,30.84-31.36,30.84h-38.26v-100.36h40.42ZM745.5,561.2h20.28c6.19,0,11.08-5.14,11.08-10.99s-5.03-10.99-11.08-10.99h-20.28v21.99ZM745.5,599.61h18.12c6.04,0,11.08-5.14,11.08-10.99s-5.04-10.99-11.08-10.99h-18.12v21.99Z"/>
    <path class="cls-1" d="M868.34,519.23v19.27h-34.67v22.27h32.8v18.56h-32.8v20.99h34.67v19.27h-54.8v-100.36h54.8Z"/>
    <path class="cls-1" d="M946.44,619.59v-25.13h-40.13v25.13h-20.14v-61.67c0-23.98,16.83-40.4,40.13-40.4s40.28,16.42,40.28,40.4v61.67h-20.14ZM906.31,575.91h40.13v-17.99c0-12.56-7.91-20.42-20.14-20.42s-19.99,7.85-19.99,20.42v17.99Z"/>
    <path class="cls-1" d="M1009.59,519.23v54.25c0,16.28,11.65,27.84,33.8,27.84s33.8-11.56,33.8-27.84v-54.25h20.14l-.14,55.68c0,23.13-18.84,46.11-53.8,46.11s-53.94-22.98-53.94-46.11v-55.68h20.14Z"/>
    <path class="cls-1" d="M1182.05,519.23v19.27h-24.31v81.09h-20.14v-81.09h-24.31v-19.27h68.76Z"/>
    <path class="cls-1" d="M1270.8,519.23v29.12c0,20.42-12.23,35.26-30.06,39.4v31.84h-20.14v-31.84c-18.12-4-30.21-18.99-30.21-39.4v-29.12h20.14v29.12c0,12.56,7.91,20.42,20.14,20.42s19.99-7.85,19.99-20.42v-29.12h20.14Z"/>
    <path class="cls-1" d="M119.18,738.16c-17.94,0-29.62-16.85-29.62-51.82s11.53-51.54,29.62-51.54,29.76,16.99,29.76,51.54-11.53,51.82-29.76,51.82ZM119.18,718.46c5.55,0,9.83-7.85,9.83-32.12s-4.27-31.84-9.83-31.84-9.68,7.71-9.68,31.84,4.27,32.12,9.68,32.12Z"/>
    <path class="cls-1" d="M198.63,636.23v19.27h-17.8v21.56h17.8v18.56h-17.8v40.97h-19.93v-100.36h37.73Z"/>
    <path class="cls-1" d="M282.36,636.23v19.27h-15.52v81.09h-19.94v-81.09h-15.52v-19.27h50.98Z"/>
    <path class="cls-1" d="M312.69,636.23v40.97h18.08v-40.97h19.94v100.36h-19.94v-40.83h-18.08v40.83h-19.94v-100.36h19.94Z"/>
    <path class="cls-1" d="M462.92,636.23v19.27h-71.48v21.84h68.63v18.56h-68.63v21.41h71.48v19.27h-91.42v-100.36h91.42Z"/>
    <path class="cls-1" d="M551.78,636.23c24.06,0,41.01,18.42,41.01,39.54,0,13.13-6.55,25.27-17.23,32.55l2.14,3.28c3.13,4.71,7.12,5.71,13.53,5.71v19.27c-16.09,0-22.07-2.86-28.91-13.56l-4.98-7.85c-1.57.14-3.28.29-4.84.29h-10.82v21.13h-19.94v-100.36h30.04ZM541.67,695.48h10.68c11.25,0,20.5-8.28,20.5-19.56s-9.26-19.7-20.5-19.7h-10.68v39.26Z"/>
    <path class="cls-1" d="M668.97,736.59v-25.13h-39.73v25.13h-19.94v-61.67c0-23.98,16.66-40.4,39.73-40.4s39.87,16.42,39.87,40.4v61.67h-19.93ZM629.24,692.91h39.73v-17.99c0-12.56-7.83-20.42-19.94-20.42s-19.79,7.85-19.79,20.42v17.99Z"/>
    <path class="cls-1" d="M729.92,636.23v100.36h-19.94v-100.36h19.94Z"/>
    <path class="cls-1" d="M753.84,636.23l60.52,56.82v-56.82h19.93v100.36h-2.85l-60.52-56.82v56.82h-19.94v-100.36h2.85Z"/>
    <path class="cls-1" d="M882.14,636.23c28.76,0,51.83,21.7,51.83,50.25s-23.07,50.11-51.83,50.11h-26.77v-100.36h26.77ZM875.31,717.32h6.83c17.66,0,31.9-13.42,31.9-30.84s-14.38-30.98-31.9-30.98h-6.83v61.82Z"/>
    <path class="cls-1" d="M978.83,636.23c24.06,0,41.01,18.42,41.01,39.54,0,13.13-6.55,25.27-17.23,32.55l2.14,3.28c3.13,4.71,7.12,5.71,13.53,5.71v19.27c-16.09,0-22.07-2.86-28.91-13.56l-4.98-7.85c-1.57.14-3.27.29-4.84.29h-10.82v21.13h-19.94v-100.36h30.05ZM968.72,695.48h10.68c11.25,0,20.5-8.28,20.5-19.56s-9.26-19.7-20.5-19.7h-10.68v39.26Z"/>
    <path class="cls-1" d="M1133.9,686.48c0,28.55-23.21,51.82-51.83,51.82s-51.97-23.41-51.97-51.82,23.35-51.96,51.97-51.96,51.83,23.56,51.83,51.96ZM1050.03,686.63c0,17.42,14.38,31.69,31.9,31.69s32.04-14.28,32.04-31.84-14.38-31.98-32.04-31.98-31.9,14.56-31.9,32.12Z"/>
    <path class="cls-1" d="M1178.76,636.23c24.06,0,41.01,18.42,41.01,39.54s-16.8,39.12-40.3,39.69h-10.82v21.13h-19.94v-100.36h30.05ZM1168.65,695.48h10.68c11.25,0,20.5-8.28,20.5-19.56s-9.26-19.7-20.5-19.7h-10.68v39.26Z"/>
    <path class="cls-1" d="M1276.3,656.08h-10.54c-7.83,0-10.82,4.43-10.82,9.57,0,10.14,16.23,26.27,16.23,42.97s-11.11,27.98-32.04,27.98h-13.81v-19.99h8.97c8.4,0,13.95-3.71,13.95-11.14,0-10.42-16.09-27.12-16.09-43.97,0-15.13,11.11-25.27,29.76-25.27h14.38v19.84Z"/>
  </g>
</svg>