<?xml version="1.0" encoding="UTF-8"?>
<svg id="Layer_1" data-name="Layer 1" xmlns="http://www.w3.org/2000/svg" xmlns:xlink="http://www.w3.org/1999/xlink" viewBox="0 0 1366 768">
  <defs>
    <style>
      .cls-1 {
        fill: #dde0e4;
        stroke: #000;
        stroke-miterlimit: 10;
      }

      .cls-2 {
        clip-path: url(#clippath);
      }

      .cls-3 {
        fill: #fdbefd;
      }
    </style>
    <clipPath id="clippath">
      <rect class="cls-3" x="-10" y="-10" width="1386" height="788"/>
    </clipPath>
  </defs>
  <g>
    <rect class="cls-3" x="-10" y="-10" width="1386" height="788"/>
    <g class="cls-2">
      <rect class="cls-3" x="-.35" y="-3.25" width="1366.71" height="779.89"/>
    </g>
  </g>
  <path class="cls-1" d="M1332.24,384c0-198.56-73.14-359.52-163.36-359.52s-163.36,160.96-163.36,359.52,73.14,359.52,163.36,359.52,163.36-160.96,163.36-359.52"/>
  <path class="cls-1" d="M1005.31,384c0-198.56-73.14-359.52-163.36-359.52s-163.36,160.96-163.36,359.52,73.14,359.52,163.36,359.52,163.36-160.96,163.36-359.52"/>
  <path class="cls-1" d="M678.62,384c0-198.56-73.14-359.52-163.36-359.52s-163.36,160.96-163.36,359.52,73.14,359.52,163.36,359.52,163.36-160.96,163.36-359.52"/>
  <path class="cls-1" d="M351.89,384c0-198.56-73.14-359.52-163.36-359.52S25.16,185.44,25.16,384s73.14,359.52,163.36,359.52,163.36-160.96,163.36-359.52"/>
  <path d="M1244.31,537.09c16.28,1.81,28.88,3.77,37.82,5.88,8.94,2.11,15.17,4.97,18.69,8.59,3.51,3.62,5.27,8.64,5.27,15.07,0,8.44-3.07,15.48-9.19,21.1-6.13,5.63-15.12,10.05-26.97,13.26-11.86,3.22-26.22,5.53-43.1,6.93-16.88,1.41-36.17,2.11-57.87,2.11-16.88,0-33.05-.55-48.52-1.66-15.48-1.1-29.84-2.96-43.1-5.58-13.26-2.61-24.97-6.08-35.11-10.4-10.15-4.32-18.44-9.64-24.87-15.97-6.43-6.33-10.55-13.81-12.36-22.45h-1.51v35.87c12.25,4.62,27.07,8.64,44.46,12.06,17.38,3.42,36.27,6.08,56.66,7.99,20.39,1.91,41.14,2.86,62.24,2.86,32.95,0,60.18-1.41,81.68-4.22,21.5-2.81,38.43-6.98,50.79-12.51,12.36-5.52,21.1-12.4,26.22-20.65,5.12-8.24,7.69-17.68,7.69-28.33,0-12.86-3.62-22.85-10.85-29.99-7.23-7.13-16.83-12.36-28.78-15.67-11.96-3.32-25.27-5.77-39.94-7.38l-166.97-18.69c-12.66-1.4-23.61-3.11-32.85-5.12-9.24-2.01-16.38-5.17-21.4-9.49-5.03-4.32-7.54-10.6-7.54-18.84,0-9.24,3.62-16.73,10.85-22.45,7.23-5.73,17.28-10.1,30.14-13.11,12.86-3.01,27.78-5.07,44.76-6.18,16.98-1.1,35.11-1.66,54.4-1.66,14.06,0,28.23.5,42.5,1.51,14.26,1.01,27.98,2.71,41.14,5.12,13.16,2.41,25.17,5.73,36.02,9.95,10.85,4.22,19.99,9.55,27.43,15.97,7.43,6.43,12.46,14.27,15.07,23.51h1.51v-35.56c-15.07-5.02-31.25-9.24-48.52-12.66-17.28-3.41-35.52-6.03-54.7-7.84-19.19-1.81-39.33-2.71-60.43-2.71-33.15,0-60.53,1.51-82.13,4.52-21.6,3.01-38.63,7.44-51.09,13.26-12.46,5.83-21.25,12.71-26.37,20.65-5.12,7.94-7.69,16.93-7.69,26.98,0,13.46,3.36,24.07,10.1,31.8,6.73,7.74,16.13,13.46,28.18,17.18,12.06,3.72,25.82,6.48,41.29,8.29l166.97,18.69ZM927.39,544.92c-3.52,12.46-8.99,23.46-16.43,33-7.44,9.55-17.18,16.98-29.24,22.3-12.06,5.33-26.63,7.99-43.7,7.99h-181.44v-206.46h181.44c17.08,0,31.65,2.67,43.7,7.99,12.06,5.33,21.8,12.76,29.24,22.3,7.43,9.55,12.91,20.55,16.43,33,3.51,12.46,5.27,25.82,5.27,40.09s-1.76,27.33-5.27,39.78M976.97,463.09c-4.62-12.96-12.16-24.21-22.6-33.76-10.45-9.54-24.22-16.98-41.29-22.3-17.08-5.32-38.08-7.99-62.99-7.99h-260.71v1.51c8.24,2.41,13.71,6.08,16.43,11,2.71,4.93,4.07,10.9,4.07,17.93v151c0,7.04-1.36,13.01-4.07,17.93-2.71,4.93-8.19,8.59-16.43,11v1.51h260.71c24.91,0,45.91-2.66,62.99-7.99,17.08-5.32,30.84-12.76,41.29-22.3,10.45-9.54,17.98-20.74,22.6-33.61,4.62-12.86,6.93-26.82,6.93-41.89s-2.31-29.08-6.93-42.04M241.26,465.05c3.21-11.45,8.34-21.35,15.37-29.69,7.03-8.34,16.28-15.27,27.73-20.8,11.45-5.52,25.42-9.59,41.89-12.21,16.47-2.61,35.76-3.92,57.87-3.92s41.39,1.31,57.87,3.92c16.47,2.61,30.44,6.68,41.89,12.21,11.45,5.53,20.69,12.46,27.73,20.8,7.03,8.34,12.15,18.23,15.37,29.69,3.21,11.45,4.82,24.52,4.82,39.18s-1.61,27.73-4.82,39.18c-3.22,11.45-8.34,21.35-15.37,29.69-7.04,8.34-16.28,15.27-27.73,20.8-11.45,5.53-25.42,9.6-41.89,12.21-16.48,2.61-35.77,3.92-57.87,3.92s-41.39-1.3-57.87-3.92c-16.48-2.61-30.44-6.68-41.89-12.21-11.45-5.52-20.7-12.46-27.73-20.8-7.04-8.34-12.16-18.23-15.37-29.69-3.22-11.45-4.82-24.51-4.82-39.18s1.61-27.73,4.82-39.18M194.24,551.7c7.63,13.56,19.49,24.87,35.56,33.91,16.07,9.04,36.87,15.82,62.39,20.34,25.52,4.52,56.16,6.78,91.93,6.78,28.73,0,54.1-1.46,76.1-4.37,22-2.91,40.89-7.28,56.66-13.11,15.77-5.83,28.73-13.06,38.88-21.7,10.14-8.64,17.63-18.73,22.45-30.29,4.82-11.55,7.23-24.56,7.23-39.03s-2.41-27.47-7.23-39.03c-4.82-11.55-12.31-21.65-22.45-30.29-10.15-8.64-23.11-15.87-38.88-21.7-15.78-5.83-34.71-10.2-56.81-13.11-22.11-2.91-47.42-4.37-75.95-4.37-35.77,0-66.41,2.26-91.93,6.78-25.52,4.52-46.32,11.3-62.39,20.34-16.08,9.04-27.93,20.34-35.56,33.91-7.64,13.56-11.45,29.39-11.45,47.47s3.81,33.91,11.45,47.47M37.67,552.76c8.34,13.67,21.14,24.92,38.43,33.76,17.28,8.84,39.33,15.42,66.16,19.74,26.82,4.32,58.82,6.48,95.99,6.48,18.28,0,36.82-1.11,55.61-3.32,18.79-2.21,36.62-5.42,53.5-9.64,16.88-4.22,31.54-9.24,44-15.07v-39.18c0-8.84.7-16.28,2.11-22.3,1.4-6.03,4.62-10.35,9.64-12.96v-1.51h-86.5v1.51c8.03,1.81,14.06,4.02,18.08,6.63,4.02,2.61,6.68,6.13,7.99,10.55,1.3,4.42,1.96,10.45,1.96,18.08v15.97c0,4.42-.25,8.74-.75,12.96-.5,4.22-1.71,8.14-3.62,11.75-1.91,3.62-4.97,6.73-9.19,9.34-3.62,2.21-8.29,4.22-14.01,6.03-5.73,1.81-12.46,3.32-20.19,4.52-7.74,1.21-16.43,2.16-26.07,2.86-9.64.71-20.19,1.05-31.65,1.05-23.11,0-43.5-1.51-61.18-4.52-17.68-3.01-32.81-7.48-45.36-13.41-12.56-5.92-22.81-13.16-30.74-21.7-7.94-8.54-13.77-18.33-17.48-29.39-3.72-11.05-5.58-23.21-5.58-36.47s1.81-25.47,5.42-36.62c3.62-11.15,9.29-20.99,17.03-29.54,7.73-8.54,17.88-15.77,30.44-21.7,12.56-5.92,27.78-10.45,45.66-13.56,17.88-3.11,38.78-4.67,62.69-4.67,11.45,0,23.21.3,35.26.9,12.06.6,23.71,1.91,34.96,3.92l15.37-1.21c-13.46-2.21-27.28-3.81-41.44-4.82-14.17-1-28.89-1.51-44.15-1.51-39.18,0-72.49,2.21-99.91,6.63-27.43,4.42-49.58,11.11-66.46,20.04-16.88,8.94-29.19,20.25-36.92,33.91-7.74,13.67-11.6,29.74-11.6,48.22s4.17,34.56,12.51,48.22"/>
  <path d="M1068.56,173.65c-.81-1.81-1.21-3.41-1.21-4.82,0-1.81.6-3.41,1.81-4.82,1.21-1.4,3.51-2.41,6.93-3.01v-1.21h-46.72v1.21c4.42.81,8.09,2.76,11,5.88,2.91,3.12,6.08,7.49,9.49,13.11l122.67,195.3h2.11l113.93-198.32c2.81-4.82,5.77-8.44,8.89-10.85,3.11-2.41,6.98-4.12,11.6-5.12v-1.21h-44.31v1.21c8.64.81,14.42,2.11,17.33,3.92,2.91,1.81,4.37,4.22,4.37,7.23,0,2.21-.45,4.37-1.36,6.48-.9,2.11-1.86,4.07-2.86,5.88l-99.76,174.21h1.51l-111.22-177.52c-2.01-3.21-3.42-5.73-4.22-7.54M848.99,174.25c-1.31-2.21-1.96-4.22-1.96-6.03s.7-3.32,2.11-4.52c1.4-1.21,3.72-2.11,6.93-2.71v-1.21h-46.11v1.21c3.62.81,6.83,2.61,9.64,5.42,2.81,2.82,6.23,7.34,10.25,13.56l126.59,195.3h2.41l107.3-182.65h-1.81l-97.65,165.77,1.51.3-114.83-177.22c-1.61-2.61-3.07-5.02-4.37-7.23M787.96,155.26c-2.41,1.41-5.73,2.46-9.95,3.16-4.22.71-9.79,1.11-16.73,1.21-6.93.1-15.63.15-26.07.15h-243.83v1.21c5.62,1.81,9.24,4.47,10.85,7.99,1.61,3.52,2.41,7.38,2.41,11.6v170.29c0,5.43-.81,9.55-2.41,12.36-1.61,2.82-5.23,5.23-10.85,7.23v1.21h251.67c10.25,0,18.88.05,25.92.15,7.03.1,12.71.5,17.03,1.21,4.32.7,7.58,1.76,9.8,3.16h2.11l11.75-27.73-1.21-.3c-4.42,6.43-9.19,11.2-14.32,14.32-5.12,3.12-11.71,5.12-19.74,6.03-8.04.9-18.49,1.36-31.35,1.36h-219.72v-93.73h239.01c3.62,0,6.63.3,9.04.9,2.41.6,4.52,2.01,6.33,4.22,1.81,2.21,3.21,5.53,4.22,9.95h1.21v-31.65h-1.21c-1.01,4.82-2.41,8.29-4.22,10.4-1.81,2.11-3.92,3.42-6.33,3.92-2.41.5-5.42.75-9.04.75h-239.01v-113.02h234.79c10.45,0,18.38,1.26,23.81,3.77,5.43,2.52,9.84,7.28,13.26,14.32l1.2-.3-6.63-24.11h-1.81ZM139.05,346.05c0,7.04-1.21,12.51-3.62,16.43-2.41,3.92-6.53,6.58-12.36,7.99v1.21h44.31v-1.21c-7.84-.6-13.62-1.91-17.33-3.92-3.72-2.01-6.23-4.87-7.54-8.59-1.31-3.72-1.96-8.59-1.96-14.62v-173h-1.51v175.71ZM455.52,355.99l1.21-2.11L147.19,159.78h-36.47v1.51c2.81,1.01,5.32,2.01,7.53,3.01,2.21,1.01,4.62,2.41,7.23,4.22l330.63,206.76.9-.3v-189.58c0-7.03,1.25-12.51,3.77-16.43,2.51-3.92,6.68-6.58,12.51-7.99v-1.21h-44.61v1.21c7.84.81,13.61,2.16,17.33,4.07,3.72,1.91,6.23,4.72,7.54,8.44,1.3,3.72,1.96,8.59,1.96,14.62v167.88Z"/>
</svg>