<?xml version="1.0" encoding="UTF-8"?>
<svg id="Layer_1" data-name="Layer 1" xmlns="http://www.w3.org/2000/svg" viewBox="0 0 1366 768">
  <defs>
    <style>
      .cls-1 {
        fill: #dde0e4;
      }

      .cls-2 {
        fill: #12100b;
      }

      .cls-3 {
        fill: none;
        stroke: #000;
        stroke-miterlimit: 10;
        stroke-width: 2px;
      }
    </style>
  </defs>
  <rect class="cls-1" x="-10" y="-10" width="1386" height="788"/>
  <g>
    <path class="cls-2" d="M723.19,70.88h35.36c17.29,0,30.03,4.94,30.03,19.37,0,13.39-11.7,18.07-25.22,19.89l27.56,41.08-.26.91c-8.58-.65-14.17-5.33-20.15-13.39l-21.32-28.86v-1.04c18.59-.52,26.91-6.24,26.91-17.94s-8.19-15.47-19.5-15.47h-11.96v71.5l14.04,2.6v1.3h-35.49v-1.3l10.14-2.6v-72.15l-10.14-2.6v-1.3Z"/>
    <path class="cls-2" d="M837.57,133.15h1.3c-1.3,9.88-7.02,19.76-21.06,19.76-16.12,0-24.83-12.74-24.83-27.95s8.71-28.21,24.57-28.21,22.62,13,21.06,25.74h-37.05c.65,13.39,7.93,22.62,20.28,22.62,8.19,0,13.13-2.99,15.73-11.96ZM828.72,118.59c0-9.75-3.77-17.94-13.39-17.94-8.32,0-13.26,5.85-13.78,17.94h27.17Z"/>
    <path class="cls-2" d="M843.87,166.17c0-10.14,8.19-16.64,22.49-16.64h2.6v-8.84c-14.56-.65-23.01-8.45-23.01-22.1,0-12.48,8.32-21.71,24.18-21.71,4.94,0,9.23.91,12.61,2.47l18.46-7.93h.91v10.01h-15.73c5.46,3.9,8.19,9.75,8.19,16.64,0,12.87-7.67,21.84-21.71,22.62v8.84h4.03c13,0,21.71,5.46,21.71,16.64,0,13.13-13.13,19.24-27.69,19.24-15.6,0-27.04-6.11-27.04-19.24ZM871.3,181.51c9.88,0,16.38-5.85,16.38-14.43,0-9.49-6.37-13.39-15.6-13.39h-1.69c-10.14,0-16.12,3.9-16.12,13.39,0,8.97,8.19,14.43,17.03,14.43ZM871.17,136.27c8.19,0,11.96-5.98,11.96-14.69,0-12.61-4.81-20.67-14.04-20.67-7.67,0-11.83,5.72-11.83,14.82,0,13.78,4.94,20.54,13.91,20.54Z"/>
  </g>
  <g>
    <path class="cls-2" d="M591.66,72.44l-10.14,3.25v70.33l10.14,3.25v1.56h-36.01v-1.56l11.44-3.25v-67.34l-30.29,73.32h-2.86l-31.85-73.06v67.08l14.3,3.25v1.56h-30.29v-1.56l10.14-3.25v-70.33l-10.14-3.25v-1.56h28.73l25.22,60.32,24.18-60.32h27.43v1.56Z"/>
    <path class="cls-2" d="M642.16,132.37h1.56c-1.17,8.84-5.98,20.54-22.23,20.54s-25.61-13-25.61-27.69c0-15.99,8.71-28.47,25.61-28.47s23.4,12.87,21.97,26.13h-35.1c.78,12.87,7.28,21.32,18.85,21.32,7.8,0,12.48-2.86,14.95-11.83ZM630.85,118.2c0-9.75-2.99-17.03-10.92-17.03-7.02,0-11.18,5.72-11.7,17.03h22.62Z"/>
    <path class="cls-2" d="M650.61,125.22c0-17.03,8.97-28.47,25.09-28.47,5.98,0,11.31,1.95,14.56,6.11v-32.5l-13.91-2.47v-1.56h35.88v1.56l-8.71,2.73v75.79l9.23,2.86v1.56h-22.49v-9.23c-2.47,6.37-8.06,11.31-17.55,11.31-14.69,0-22.1-12.09-22.1-27.69ZM690.26,129.25v-12.61c-.26-8.58-4.03-15.21-12.61-15.21-10.01,0-13.65,8.58-13.65,20.54,0,13.52,4.16,22.88,14.17,22.88,8.45,0,12.09-6.5,12.09-15.6Z"/>
  </g>
  <g>
    <path class="cls-2" d="M287.04,147.19c10.14,0,14.95-5.07,14.95-12.09,0-8.84-6.63-12.09-18.59-16.77-15.47-6.11-22.36-13.52-22.36-25.87,0-14.04,10.27-23.53,29.12-23.53,7.28,0,15.08,1.04,21.71,3.12v27.04h-1.69c-1.43-16.9-7.93-24.7-20.54-24.7-9.62,0-14.56,5.07-14.56,12.35,0,7.8,5.98,11.57,18.2,16.77,12.87,5.46,22.75,10.92,22.75,25.22,0,13.52-9.36,24.18-29.77,24.18-8.71,0-16.9-1.95-24.31-4.68l-1.43-28.99h1.69c3.12,18.46,9.88,27.95,24.83,27.95Z"/>
    <path class="cls-2" d="M370.52,131.59h1.69c-.91,7.67-5.07,21.32-23.27,21.32s-26.26-13.13-26.26-27.56c0-16.12,8.71-28.6,26.39-28.6,16.77,0,24.18,12.61,22.88,26.52h-33.41c.78,11.96,6.76,20.15,17.55,20.15,7.41,0,12.09-2.99,14.43-11.83ZM357,117.81c0-9.62-2.34-16.12-8.84-16.12-5.85,0-9.23,5.33-9.75,16.12h18.59Z"/>
    <path class="cls-2" d="M399.02,96.75v11.05c2.86-6.24,8.45-11.05,17.42-11.05,7.93,0,13.65,4.03,15.86,11.83,2.86-6.89,8.19-11.83,17.42-11.83,12.35,0,17.94,8.71,17.94,20.54v28.73l7.54,3.25v1.56h-30.68v-1.56l7.28-3.25v-27.56c0-7.8-2.08-12.22-8.45-12.22-7.54,0-9.88,6.63-9.88,13v26.78l7.41,3.25v1.56h-30.55v-1.56l7.41-3.25v-27.56c0-7.41-1.95-12.22-8.71-12.22-7.28,0-9.75,6.5-9.75,13.26v26.52l7.54,3.12v1.69h-31.07v-1.69l7.67-3.12v-40.69h-7.67v-1.56l23.27-7.02Z"/>
  </g>
  <g>
    <path class="cls-2" d="M57.38,148.88l9.23-4.81v-66.43l-9.23-4.94v-1.82h41.21c21.06,0,32.63,5.59,32.63,20.02,0,9.62-7.15,15.73-20.93,17.68,15.99,2.21,24.96,8.06,24.96,20.15,0,14.04-10.79,22.1-32.24,22.1h-45.63v-1.95ZM93.79,105.72c10.27,0,14.56-5.33,14.56-13.78s-4.29-13.78-14.56-13.78h-5.46v27.56h5.46ZM94.44,143.55c12.22,0,17.94-5.59,17.94-15.47s-5.72-15.47-17.94-15.47h-6.11v30.94h6.11Z"/>
    <path class="cls-2" d="M135.67,66.33h44.85v1.95l-17.81,3.51v63.05c0,6.24,2.99,8.45,6.89,8.45,4.29,0,7.67-2.08,8.97-10.92h1.95c-1.43,12.87-7.41,20.54-19.89,20.54-11.44,0-17.55-6.24-17.55-17.94v-63.18l-7.41-3.51v-1.95Z"/>
    <path class="cls-2" d="M236.88,143.81c2.6,0,3.25-2.47,3.25-6.5v-8.19h2.21v8.45c0,10.4-3.9,15.34-13.91,15.34-6.5,0-11.31-3.12-13.52-8.19-1.82,4.29-5.98,8.19-14.95,8.19s-15.99-6.37-15.99-16.51c0-13.52,9.62-18.2,20.93-18.2,3.38,0,6.24.39,8.84,1.04v-6.89c0-6.76-2.6-10.27-8.58-10.27-6.63,0-10.92,3.25-12.74,16.51h-1.95v-18.85c6.24-1.95,12.48-2.99,18.07-2.99,18.07,0,24.83,7.28,24.83,22.88v17.68c0,4.55.78,6.5,3.51,6.5ZM209.32,143.81c3.9,0,4.42-5.72,4.42-8.84v-10.01c-1.17-.52-2.21-.65-3.38-.65-4.16,0-5.85,3.9-5.85,10.27,0,6.89,2.08,9.23,4.81,9.23Z"/>
  </g>
  <g>
    <path class="cls-2" d="M109,287.38c2.6,0,3.25-2.47,3.25-6.5v-8.19h2.21v8.45c0,10.4-3.9,15.34-13.91,15.34-6.5,0-11.31-3.12-13.52-8.19-1.82,4.29-5.98,8.19-14.95,8.19s-15.99-6.37-15.99-16.51c0-13.52,9.62-18.2,20.93-18.2,3.38,0,6.24.39,8.84,1.04v-6.89c0-6.76-2.6-10.27-8.58-10.27-6.63,0-10.92,3.25-12.74,16.51h-1.95v-18.85c6.24-1.95,12.48-2.99,18.07-2.99,18.07,0,24.83,7.28,24.83,22.88v17.68c0,4.55.78,6.5,3.51,6.5ZM81.44,287.38c3.9,0,4.42-5.72,4.42-8.84v-10.01c-1.17-.52-2.21-.65-3.38-.65-4.16,0-5.85,3.9-5.85,10.27,0,6.89,2.08,9.23,4.81,9.23Z"/>
    <path class="cls-2" d="M168.6,288.03c2.99,0,4.16-2.6,4.16-7.15v-6.5h1.82v6.89c0,9.1-2.86,14.82-12.61,14.82-6.11,0-10.79-3.12-12.35-8.32-2.08,4.81-6.37,8.71-14.95,8.71-9.75,0-16.64-6.37-16.64-16.38,0-12.87,9.36-17.81,20.54-17.81,4.16,0,7.67.65,10.4,1.56v-7.54c0-7.28-2.86-11.18-9.36-11.18-7.02,0-11.57,3.77-13.52,16.25h-1.69v-18.46c6.37-1.69,12.22-2.6,17.55-2.6,16.77,0,22.88,6.63,22.88,20.93v20.8c0,4.16,1.04,5.98,3.77,5.98ZM141.56,288.03c6.11,0,7.41-6.37,7.41-10.27v-8.58c-2.08-1.43-4.16-1.82-6.37-1.82-5.33,0-8.32,4.03-8.32,10.79s2.73,9.88,7.28,9.88Z"/>
    <path class="cls-2" d="M228.45,288.42c3.25,0,4.68-2.6,4.68-7.67v-5.2h1.56v5.72c0,8.32-2.21,14.43-11.7,14.43-5.72,0-10.4-2.73-11.57-8.06-2.21,5.07-6.76,8.84-14.95,8.84-10.01,0-17.03-6.24-17.03-16.25,0-12.48,9.1-17.68,20.28-17.68,4.68,0,8.32.91,11.31,2.21v-8.19c0-7.67-2.86-11.83-9.88-11.83s-11.83,4.03-13.91,16.12h-1.56v-18.2c6.24-1.43,11.96-2.34,17.16-2.34,15.99,0,21.58,6.24,21.58,19.76v22.75c0,3.9,1.3,5.59,4.03,5.59ZM201.67,288.42c7.67,0,9.36-6.89,9.36-11.18v-7.67c-2.47-1.82-5.33-2.47-8.19-2.47-6.24,0-10.01,4.03-10.01,11.05,0,6.37,3.12,10.27,8.84,10.27Z"/>
    <path class="cls-2" d="M287.8,288.81c3.64,0,5.33-2.6,5.33-8.06v-3.9h1.3v4.55c0,7.28-1.43,14.04-10.66,14.04-5.46,0-10.01-2.47-10.66-8.45-2.34,5.46-7.15,9.49-15.08,9.49-10.27,0-17.42-6.24-17.42-16.12,0-12.09,8.71-17.42,19.89-17.42,5.46,0,9.36,1.3,12.48,3.12v-9.23c0-8.06-3.12-12.48-10.53-12.48s-12.22,4.16-14.43,15.86h-1.3v-17.81c6.11-1.17,11.7-2.08,16.77-2.08,15.08,0,20.02,5.85,20.02,18.33v24.96c0,3.64,1.56,5.2,4.29,5.2ZM261.4,288.81c9.36,0,11.57-7.28,11.57-12.22v-6.37c-2.6-2.21-6.5-3.51-10.4-3.51-7.02,0-11.83,4.16-11.83,11.44,0,6.11,3.64,10.66,10.66,10.66Z"/>
  </g>
  <g>
    <path class="cls-2" d="M367.06,274.12h1.95c-.65,6.11-3.64,22.36-24.83,22.36-18.33,0-27.17-13.39-27.17-27.3,0-16.38,8.71-28.86,27.69-28.86,17.03,0,25.35,12.09,24.18,27.04h-30.94c.91,11.18,5.98,18.46,15.73,18.46,6.89,0,11.31-3.12,13.39-11.7ZM350.16,260.73c0-9.49-1.3-14.82-5.46-14.82s-6.5,4.94-6.89,14.82h12.35Z"/>
    <path class="cls-2" d="M421.62,275.16h1.69c-.91,7.67-5.07,21.32-23.27,21.32s-26.26-13.13-26.26-27.56c0-16.12,8.71-28.6,26.39-28.6,16.77,0,24.18,12.61,22.88,26.52h-33.41c.78,11.96,6.76,20.15,17.55,20.15,7.41,0,12.09-2.99,14.43-11.83ZM408.1,261.38c0-9.62-2.34-16.12-8.84-16.12-5.85,0-9.23,5.33-9.75,16.12h18.59Z"/>
    <path class="cls-2" d="M475.49,275.94h1.56c-1.17,8.84-5.98,20.54-22.23,20.54s-25.61-13-25.61-27.69c0-15.99,8.71-28.47,25.61-28.47s23.4,12.87,21.97,26.13h-35.1c.78,12.87,7.28,21.32,18.85,21.32,7.8,0,12.48-2.86,14.95-11.83ZM464.18,261.77c0-9.75-2.99-17.03-10.92-17.03-7.02,0-11.18,5.72-11.7,17.03h22.62Z"/>
    <path class="cls-2" d="M528.52,276.72h1.3c-1.3,9.88-7.02,19.76-21.06,19.76-16.12,0-24.83-12.74-24.83-27.95s8.71-28.21,24.57-28.21,22.62,13,21.06,25.74h-37.05c.65,13.39,7.93,22.62,20.28,22.62,8.19,0,13.13-2.99,15.73-11.96ZM519.67,262.16c0-9.75-3.77-17.94-13.39-17.94-8.32,0-13.26,5.85-13.78,17.94h27.17Z"/>
  </g>
  <g>
    <path class="cls-2" d="M561.25,250.07v-1.95l26.26-7.8v48.62l6.63,3.51v1.95h-32.89v-1.95l6.63-3.51v-38.87h-6.63ZM565.41,222.12c0-6.63,5.46-11.44,11.7-11.44s11.83,4.81,11.83,11.44-5.46,11.57-11.83,11.57-11.7-4.81-11.7-11.57Z"/>
    <path class="cls-2" d="M599.34,248.9v-1.56l23.53-7.02v49.27l7.67,3.12v1.69h-31.2v-1.69l7.67-3.12v-40.69h-7.67ZM604.93,221.21c0-5.46,4.55-9.49,9.75-9.49s9.88,4.03,9.88,9.49-4.55,9.75-9.88,9.75-9.75-4.03-9.75-9.75Z"/>
    <path class="cls-2" d="M636.19,248.12v-1.3l21.71-6.5v49.66l8.32,2.86v1.56h-30.03v-1.56l8.45-2.86v-41.86h-8.45ZM642.69,220.69c0-4.81,4.03-8.32,8.58-8.32s8.58,3.51,8.58,8.32-4.03,8.45-8.58,8.45-8.58-3.51-8.58-8.45Z"/>
    <path class="cls-2" d="M691.99,240.32v50.18l9.1,2.6v1.3h-28.86v-1.3l9.23-2.6v-43.16h-9.23v-1.17l19.76-5.85ZM679.77,220.04c0-4.03,3.38-7.02,7.15-7.02s7.28,2.99,7.28,7.02-3.38,7.15-7.28,7.15-7.15-2.99-7.15-7.15Z"/>
  </g>
  <g>
    <path class="cls-2" d="M56.73,536.19v-1.95l26.26-7.8v9.62c3.25-5.98,8.71-9.62,16.77-9.62,12.48,0,17.55,9.23,17.55,21.19v27.43l6.63,3.51v1.95h-32.63v-1.95l6.37-3.51v-27.82c0-5.85-1.95-9.62-6.89-9.62-5.2,0-7.8,3.51-7.8,11.05v26.39l6.37,3.51v1.95h-32.63v-1.95l6.63-3.51v-38.87h-6.63Z"/>
    <path class="cls-2" d="M127.52,535.02v-1.56l23.27-7.02v10.79c3.38-7.02,9.36-10.79,17.55-10.79,12.22,0,17.55,8.71,17.55,20.41v28.86l7.67,3.12v1.69h-31.07v-1.69l7.67-3.12v-27.69c0-7.54-2.21-12.09-8.97-12.09s-10.14,4.55-10.14,13.65v26.13l7.54,3.12v1.69h-31.07v-1.69l7.67-3.12v-40.69h-7.67Z"/>
    <path class="cls-2" d="M198.19,534.25v-1.3l21.32-6.5v11.57c3.25-7.41,9.75-11.57,18.07-11.57,12.09,0,17.55,8.32,17.55,19.89v29.77l8.45,2.86v1.56h-30.03v-1.56l8.32-2.86v-27.56c0-8.58-2.21-13.78-10.27-13.78-7.41,0-11.57,5.33-11.57,15.34v26l8.19,2.86v1.56h-30.03v-1.56l8.45-2.86v-41.86h-8.45Z"/>
    <path class="cls-2" d="M269.02,533.47v-1.17l19.11-5.85v12.35c3.25-8.32,10.4-12.35,18.72-12.35,11.83,0,17.55,7.93,17.55,19.24v30.94l9.1,2.6v1.3h-28.86v-1.3l9.23-2.6v-27.56c0-9.75-2.34-15.6-11.7-15.6-8.45,0-13.39,6.11-13.39,17.29v25.87l9.1,2.6v1.3h-28.86v-1.3l9.23-2.6v-43.16h-9.23Z"/>
  </g>
  <g>
    <path class="cls-2" d="M379.38,526.44v10.01c2.6-5.33,7.67-10.01,16.64-10.01,7.41,0,13,3.25,15.6,10.92,2.6-5.85,7.54-10.92,16.77-10.92,12.87,0,18.33,9.36,18.33,21.32v27.3l6.37,3.51v1.95h-32.37v-1.95l6.37-3.51v-27.17c0-6.37-1.69-10.27-6.76-10.27-5.98,0-7.28,5.85-7.28,10.01v27.43l5.98,3.51v1.95h-31.59v-1.95l5.98-3.51v-27.17c0-6.37-1.69-10.27-6.76-10.27-5.98,0-7.28,5.72-7.28,10.01v27.43l6.37,3.51v1.95h-32.63v-1.95l6.63-3.51v-38.87h-6.63v-1.95l26.26-7.8Z"/>
    <path class="cls-2" d="M480.08,526.44v11.05c2.86-6.24,8.45-11.05,17.42-11.05,7.93,0,13.65,4.03,15.86,11.83,2.86-6.89,8.19-11.83,17.42-11.83,12.35,0,17.94,8.71,17.94,20.54v28.73l7.54,3.25v1.56h-30.68v-1.56l7.28-3.25v-27.56c0-7.8-2.08-12.22-8.45-12.22-7.54,0-9.88,6.63-9.88,13v26.78l7.41,3.25v1.56h-30.55v-1.56l7.41-3.25v-27.56c0-7.41-1.95-12.22-8.71-12.22-7.28,0-9.75,6.5-9.75,13.26v26.52l7.54,3.12v1.69h-31.07v-1.69l7.67-3.12v-40.69h-7.67v-1.56l23.27-7.02Z"/>
    <path class="cls-2" d="M582.22,526.44v11.83c3.12-7.15,9.23-11.7,17.94-11.7s14.04,4.29,16.12,12.22c2.86-7.28,8.84-12.22,17.81-12.22,11.96,0,17.68,8.19,17.68,19.89v29.77l8.19,2.86v1.56h-29.38v-1.56l7.93-2.86v-27.95c0-8.71-2.47-13.52-9.75-13.52-8.45,0-11.57,7.28-11.57,15.08v26.39l8.45,2.86v1.56h-30.03v-1.56l8.32-2.86v-27.95c0-8.06-1.95-13.52-9.75-13.52s-11.31,6.11-11.44,14.43v26.91l8.19,2.86v1.56h-30.03v-1.56l8.45-2.86v-41.86h-8.45v-1.3l21.32-6.5Z"/>
    <path class="cls-2" d="M684.65,526.44v12.48c3.38-8.19,10.27-12.35,18.59-12.35,8.84,0,14.43,4.68,16.38,12.74,2.99-8.58,9.75-12.74,18.2-12.74,11.44,0,17.29,7.67,17.29,19.24v30.94l9.1,2.6v1.3h-28.21v-1.3l8.58-2.6v-28.34c0-9.62-2.73-14.95-11.05-14.95-9.49,0-13.26,7.93-13.26,17.42v25.87l9.36,2.6v1.3h-29.25v-1.3l9.36-2.6v-28.34c0-8.84-2.08-14.95-11.18-14.95s-13.13,6.89-13.26,16.9v26.26l9.1,2.6v1.3h-28.86v-1.3l9.23-2.6v-43.16h-9.23v-1.17l19.11-5.85Z"/>
  </g>
  <g>
    <path class="cls-2" d="M807.5,531.77c-5.46,0-8.32,2.73-8.32,6.63,0,4.29,2.86,5.98,9.49,8.19,11.57,3.9,17.81,7.8,17.81,17.81,0,11.31-8.71,18.2-25.09,18.2-7.28,0-15.47-1.43-21.45-4.29v-18.59h1.95c.39,12.61,6.89,17.29,16.25,17.29,5.85,0,9.1-2.34,9.1-6.24,0-4.16-2.73-5.46-11.44-8.19-8.71-2.73-15.73-7.41-15.73-17.81,0-12.09,9.75-18.33,25.22-18.33,5.72,0,11.57.78,17.29,2.99v18.85h-1.95c-.91-11.31-5.2-16.51-13.13-16.51Z"/>
    <path class="cls-2" d="M856.85,531.26c-6.11,0-9.49,2.86-9.49,7.41,0,4.29,2.73,6.37,10.66,8.97,11.7,3.9,18.33,7.54,18.33,17.68,0,10.66-8.06,17.29-23.27,17.29-6.63,0-13.78-1.3-20.54-4.29v-17.29h1.69c.91,12.09,8.19,16.64,17.42,16.64,6.76,0,10.14-2.99,10.14-7.28,0-4.55-2.86-6.24-12.35-9.1-9.88-2.99-16.51-7.54-16.51-17.68,0-10.92,8.71-17.16,22.75-17.16,5.72,0,10.79.65,17.03,2.6v18.46h-1.56c-1.17-10.27-5.2-16.25-14.3-16.25Z"/>
    <path class="cls-2" d="M905.6,530.86c-6.5,0-10.14,2.99-10.14,7.93,0,4.29,2.47,6.76,11.31,9.62,11.57,3.77,18.85,7.28,18.85,17.55s-7.67,16.64-22.1,16.64c-6.24,0-12.87-1.17-19.89-4.16v-16.51h1.43c1.3,11.96,9.1,16.25,18.2,16.25,7.41,0,10.79-3.38,10.79-7.93,0-4.94-3.12-7.02-12.87-9.88-11.05-3.25-17.16-7.67-17.16-17.55s8.06-16.38,21.19-16.38c5.72,0,10.4.65,16.9,2.34v18.2h-1.43c-1.43-9.75-5.07-16.12-15.08-16.12Z"/>
    <path class="cls-2" d="M953.23,530.48c-7.02,0-11.05,3.12-11.05,8.45,0,4.42,2.47,7.15,12.22,10.27,11.57,3.77,19.24,7.02,19.24,17.42,0,9.62-7.15,15.99-20.8,15.99-5.72,0-11.83-1.17-19.24-4.16v-15.6h1.3c1.69,11.7,10.01,15.86,18.98,15.86,8.06,0,11.44-3.9,11.44-8.71,0-5.33-2.99-7.67-13.39-10.66-11.96-3.38-17.81-7.67-17.81-17.29s7.28-15.6,19.37-15.6c5.85,0,9.88.52,16.9,2.08v17.81h-1.3c-1.56-8.84-5.07-15.86-15.86-15.86Z"/>
  </g>
  <g>
    <path class="cls-2" d="M57.38,407.91c0-16.9,8.97-28.47,25.09-28.47,6.37,0,11.18,2.08,14.04,5.59v-30.55l-13.91-3.51v-1.95h40.95v1.95l-7.41,3.51v73.58l7.41,3.51v1.95h-27.04v-7.15c-2.47,4.81-7.41,9.23-16.9,9.23-13.91,0-22.23-10.4-22.23-27.69ZM96.52,414.8v-14.43c0-9.36-2.73-14.3-8.45-14.3-6.89,0-9.75,6.76-9.75,18.98,0,13,3.51,20.67,10.14,20.67,4.94,0,8.06-3.38,8.06-10.92Z"/>
    <path class="cls-2" d="M125.13,407.91c0-16.9,8.97-28.47,25.09-28.47,6.11,0,11.18,2.08,14.3,5.85v-31.72l-13.91-2.86v-1.69h37.96v1.69l-8.19,3.12v74.88l8.45,3.12v1.69h-24.31v-8.19c-2.47,5.46-7.8,10.27-17.29,10.27-14.3,0-22.1-11.44-22.1-27.69ZM164.52,413.11v-13.39c-.13-8.84-3.38-14.82-10.92-14.82-8.71,0-12.09,7.8-12.09,19.89,0,13.39,3.9,21.97,12.61,21.97,7.02,0,10.4-5.2,10.4-13.65Z"/>
    <path class="cls-2" d="M191,407.91c0-17.03,8.97-28.47,25.09-28.47,5.98,0,11.31,1.95,14.56,6.11v-32.5l-13.91-2.47v-1.56h35.88v1.56l-8.71,2.73v75.79l9.23,2.86v1.56h-22.49v-9.23c-2.47,6.37-8.06,11.31-17.55,11.31-14.69,0-22.1-12.09-22.1-27.69ZM230.65,411.94v-12.61c-.26-8.58-4.03-15.21-12.61-15.21-10.01,0-13.65,8.58-13.65,20.54,0,13.52,4.16,22.88,14.17,22.88,8.45,0,12.09-6.5,12.09-15.6Z"/>
    <path class="cls-2" d="M255.66,407.91c0-17.03,8.84-28.47,24.96-28.47,5.85,0,11.44,1.95,14.82,6.37v-33.41l-13.91-2.08v-1.3h33.67v1.3l-9.23,2.47v76.83l10.01,2.6v1.3h-20.54v-10.27c-2.34,7.15-8.45,12.35-17.81,12.35-14.95,0-21.97-12.87-21.97-27.69ZM295.44,410.77v-11.96c-.39-8.32-4.55-15.47-14.43-15.47-11.31,0-15.34,9.23-15.34,21.19,0,13.78,4.55,23.79,15.99,23.79,10.01,0,13.78-7.8,13.78-17.55Z"/>
  </g>
  <g>
    <path class="cls-2" d="M341.34,431.7l-4.16-24.05,1.95-.52c6.24,18.72,11.44,22.23,17.42,22.23s9.23-3.77,9.23-14.69v-54.34l-13.78-4.81v-1.95h45.63v1.95l-10.14,4.81v48.1c0,15.34-4.29,27.17-26,27.17-7.15,0-14.04-1.43-20.15-3.9Z"/>
    <path class="cls-2" d="M399.2,432.09l-4.03-22.88,1.69-.39c5.33,15.34,10.27,20.8,17.16,20.8,6.5,0,9.62-3.9,9.62-16.12v-54.34l-13.78-3.9v-1.69h40.82v1.69l-9.62,3.9v50.18c0,15.08-4.55,26-24.31,26-6.24,0-12.48-1.17-17.55-3.25Z"/>
    <path class="cls-2" d="M452.64,432.35l-3.9-22.1,1.56-.26c4.68,12.87,9.49,19.76,17.03,19.76,6.89,0,9.88-4.16,9.88-17.03v-54.34l-13.78-3.25v-1.56h37.44v1.56l-9.23,3.25v51.48c0,14.95-4.55,25.35-23.27,25.35-5.46,0-11.57-1.17-15.73-2.86Z"/>
    <path class="cls-2" d="M502.72,432.61l-3.64-21.19,1.3-.26c4.03,10.4,8.71,18.85,16.77,18.85,7.41,0,10.27-4.42,10.27-18.2v-54.34l-13.78-2.6v-1.3h33.93v1.3l-8.84,2.6v53.04c0,14.69-4.81,24.57-22.1,24.57-4.81,0-10.4-1.04-13.91-2.47Z"/>
  </g>
  <g>
    <path class="cls-2" d="M597.89,435.6c-16.77,0-26.52-11.7-26.52-27.43,0-17.29,10.27-28.73,30.81-28.73,6.5,0,12.61,1.04,18.07,3.38v18.46h-1.95c-1.82-9.75-5.07-16.25-13.26-16.25-8.71,0-12.87,6.89-12.87,18.07,0,13.78,5.85,21.97,15.34,21.97,6.11,0,10.92-3.25,12.87-12.35h1.95c-1.17,15.47-9.88,22.88-24.44,22.88Z"/>
    <path class="cls-2" d="M651.32,435.6c-16.64,0-25.61-12.09-25.61-27.43,0-16.51,9.36-28.73,29.38-28.73,6.37,0,12.22,1.04,17.42,2.99v18.07h-1.69c-1.82-10.01-5.98-16.12-14.82-16.12-10.14,0-14.56,7.67-14.56,18.98,0,13,5.85,22.88,17.42,22.88,6.76,0,11.96-3.64,13.78-12.22h1.69c-1.43,14.04-9.36,21.58-23.01,21.58Z"/>
    <path class="cls-2" d="M703.84,435.6c-16.77,0-25.09-12.48-25.09-27.43,0-15.99,8.71-28.73,28.47-28.73,6.24,0,12.09,1.04,17.03,2.6v17.94h-1.56c-1.82-10.14-6.5-16.12-15.86-16.12-11.18,0-15.73,8.32-15.73,19.63,0,12.48,5.98,23.53,18.72,23.53,7.28,0,12.74-3.9,14.56-12.09h1.43c-1.56,13.13-9.1,20.67-21.97,20.67Z"/>
    <path class="cls-2" d="M755.58,435.6c-16.51,0-24.31-12.74-24.31-27.43,0-15.47,7.93-28.73,27.43-28.73,5.98,0,11.7,1.04,16.51,2.34v17.55h-1.3c-1.82-10.14-7.28-15.99-17.16-15.99-12.09,0-16.9,8.97-16.9,20.41s5.98,24.05,20.28,24.05c7.8,0,13.39-3.9,15.21-11.96h1.3c-1.82,12.35-8.84,19.76-21.06,19.76Z"/>
  </g>
  <line class="cls-3" x1="28.44" y1="176.89" x2="1337.54" y2="176.89"/>
  <line class="cls-3" x1="28.44" y1="36.48" x2="1337.54" y2="36.48"/>
  <line class="cls-3" x1="28.44" y1="317.29" x2="1337.54" y2="317.29"/>
  <line class="cls-3" x1="28.44" y1="457.7" x2="1337.54" y2="457.7"/>
  <line class="cls-3" x1="28.44" y1="598.1" x2="1337.54" y2="598.1"/>
  <g>
    <path class="cls-2" d="M89.76,676.59c-5.46,0-7.93,3.64-7.93,11.18v26.26l6.37,3.51v1.95h-32.63v-1.95l6.63-3.51v-73.58l-7.41-3.51v-1.95h44.85v1.95l-17.81,3.51v34.58c3.51-6.37,8.97-9.62,17.16-9.62,10.53,0,17.16,7.41,17.16,21.19v27.43l6.63,3.51v1.95h-32.63v-1.95l6.37-3.51v-27.43c0-5.2-1.3-10.01-6.76-10.01Z"/>
    <path class="cls-2" d="M159.36,674.9c-6.63,0-10.4,4.29-10.4,13.91v25.87l7.54,3.12v1.69h-31.07v-1.69l7.8-3.12v-74.88l-8.19-3.12v-1.69h41.73v1.69l-17.81,2.86v36.01c3.64-6.89,9.62-10.14,17.68-10.14,10.92,0,17.29,7.54,17.29,20.41v28.86l7.67,3.12v1.69h-31.07v-1.69l7.54-3.12v-27.43c0-6.5-1.3-12.35-8.71-12.35Z"/>
    <path class="cls-2" d="M228.67,673.73c-7.41,0-11.96,4.68-11.96,15.73v25.61l8.32,2.86v1.56h-30.03v-1.56l8.45-2.86v-75.79l-8.71-2.73v-1.56h39.78v1.56l-17.81,2.47v36.92c3.51-7.02,10.01-10.53,17.94-10.53,11.18,0,17.29,7.54,17.29,19.89v29.77l8.45,2.86v1.56h-30.03v-1.56l8.32-2.86v-27.43c0-7.28-1.3-13.91-10.01-13.91Z"/>
    <path class="cls-2" d="M297.73,672.43c-8.32,0-13.65,5.2-13.65,17.81v25.35l9.1,2.6v1.3h-28.86v-1.3l9.23-2.6v-76.83l-9.23-2.47v-1.3h37.57v1.3l-17.81,2.08v37.7c3.64-7.41,10.53-10.66,18.2-10.66,11.44,0,17.42,7.67,17.42,19.24v30.94l9.1,2.6v1.3h-28.86v-1.3l9.23-2.6v-27.56c0-8.19-1.3-15.6-11.44-15.6Z"/>
  </g>
  <g>
    <path class="cls-2" d="M351.58,640.44l-7.41-3.51v-1.95h44.85v1.95l-17.81,3.51v31.33c3.64-4.29,9.1-6.37,16.25-6.37,14.95,0,23.14,10.53,23.14,26.13s-7.8,30.03-25.48,30.03c-9.1,0-14.82-3.64-17.68-8.58l-14.04,7.93h-1.82v-80.47ZM389.67,692.84c0-16.9-4.29-20.8-9.49-20.8s-8.97,4.29-8.97,13.39v17.94c0,6.76,3.51,10.92,8.71,10.92,7.8,0,9.75-10.14,9.75-21.45Z"/>
    <path class="cls-2" d="M419.27,639.79l-8.19-3.12v-1.69h41.73v1.69l-17.81,2.86v33.8c3.51-5.07,9.36-7.93,16.9-7.93,15.21,0,22.75,11.05,22.75,26.26,0,16.64-7.8,29.9-25.09,29.9-8.97,0-14.95-3.9-18.07-10.4l-10.4,9.75h-1.82v-81.12ZM458.27,693.23c0-15.99-4.68-21.45-11.83-21.45s-11.44,5.46-11.44,15.86v14.95c0,8.71,5.07,13,11.05,13,9.62,0,12.22-10.27,12.22-22.36Z"/>
    <path class="cls-2" d="M484.46,639.27l-8.71-2.73v-1.56h39.78v1.56l-17.81,2.47v35.49c3.51-5.85,9.62-9.1,17.42-9.1,15.21,0,22.23,11.44,22.23,26.39,0,16.64-7.67,29.77-24.83,29.77-8.84,0-14.82-4.03-18.07-11.31l-8.19,10.66h-1.82v-81.64ZM524.11,693.49c0-15.34-4.81-21.84-13.26-21.84s-13.13,6.11-13.13,17.42v13c0,9.88,6.11,14.43,12.61,14.43,10.79,0,13.78-10.4,13.78-23.01Z"/>
    <path class="cls-2" d="M548.52,638.75l-9.23-2.47v-1.3h37.57v1.3l-17.81,2.08v37.44c3.38-6.63,9.75-10.4,17.81-10.4,15.34,0,21.97,11.83,21.97,26.52,0,17.03-7.67,29.64-24.57,29.64-8.71,0-14.95-4.29-18.33-11.7l-5.59,11.05h-1.82v-82.16ZM588.83,693.75c0-14.56-5.07-22.23-14.95-22.23s-14.82,6.89-14.82,19.11v10.79c0,11.44,7.15,16.12,14.3,16.12,12.09,0,15.47-10.53,15.47-23.79Z"/>
  </g>
  <g>
    <path class="cls-2" d="M620.47,637.19v-2.21h44.85v2.21l-17.81,3.25v73.58l7.41,3.25v2.21h-34.45v-2.21l7.41-3.25v-73.58l-7.41-3.25ZM647.64,690.76l20.8-17.81h-.13l-14.04-3.51v-1.95h33.28v1.95l-9.75,3.51-11.7,9.75,22.62,36.92-.78,1.3c-15.99-.65-21.32-3.25-28.21-13l-12.09-17.16Z"/>
    <path class="cls-2" d="M690.89,636.8v-1.82h41.73v1.82l-17.81,2.73v75.14l8.45,2.99v1.82h-32.37v-1.82l8.19-2.99v-74.88l-8.19-2.99ZM714.94,690.76l21.58-18.46-12.35-3.12v-1.69h29.77v1.69l-9.36,3.12-14.56,11.83,24.57,36.14-.65.91c-12.61-.39-17.68-3.77-24.31-12.22l-14.69-18.2Z"/>
    <path class="cls-2" d="M757.53,636.54v-1.56h39.78v1.56l-17.81,2.47v76.05l9.1,2.86v1.56h-31.07v-1.56l8.71-2.86v-75.79l-8.71-2.73ZM779.5,690.76l22.1-18.98-11.05-2.73v-1.56h27.43v1.56l-9.1,2.86-16.38,13.13,25.87,35.62-.65.65c-10.14-.13-15.47-4.29-21.84-11.7l-16.38-18.85Z"/>
    <path class="cls-2" d="M841.65,690.89v24.7l9.75,2.6v1.3h-29.51v-1.3l9.23-2.6v-76.83l-9.23-2.47v-1.3h37.57v1.3l-17.81,2.08v52.26l22.49-19.24-9.62-2.6v-1.3h24.96v1.3l-9.1,2.73-18.2,14.69,27.17,34.84-.52.52c-7.8,0-12.74-4.68-18.98-11.31l-18.2-19.37Z"/>
  </g>
  <line class="cls-3" x1="28.44" y1="737.06" x2="1337.54" y2="737.06"/>
</svg>