<?xml version="1.0" encoding="UTF-8"?>
<svg id="Layer_1" data-name="Layer 1" xmlns="http://www.w3.org/2000/svg" viewBox="0 0 1366 768">
  <defs>
    <style>
      .cls-1 {
        fill: #f7820d;
      }

      .cls-2 {
        fill: #ccbbe4;
      }

      .cls-3 {
        fill: #efeeeb;
      }
    </style>
  </defs>
  <rect class="cls-2" x="-10.25" y="-10" width="1386.25" height="788"/>
  <path class="cls-3" d="M1142.51,580.74c35.32,0,51.72-25.23,51.72-78.22v-37.85h12.62v44.15c0,70.65-13.88,136.25-103.45,136.25-52.99,0-97.14-23.97-103.45-82-22.71,52.99-69.38,92.09-146.34,92.09-99.66,0-169.05-60.55-169.05-156.43,0-117.32,84.52-169.05,193.02-169.05,52.99,0,90.83,12.62,121.11,30.28v-89.57c0-78.22-30.28-121.11-102.19-121.11s-118.59,40.37-140.03,153.91h-12.62v-172.83c59.29-11.36,113.54-20.19,162.74-20.19,146.34,0,194.28,56.77,194.28,177.88v242.22c0,35.32,15.14,50.46,41.63,50.46ZM886.41,580.74c90.83,0,112.28-70.65,112.28-118.59v-61.82c-25.23-21.45-63.08-34.06-100.92-34.06-68.12,0-114.8,40.37-114.8,111.02,0,59.29,35.32,103.45,103.45,103.45Z"/>
  <path class="cls-1" d="M632.62,463.42h12.62c-12.62,95.88-68.12,191.76-204.37,191.76-156.43,0-240.96-123.63-240.96-271.23S284.44,110.18,438.34,110.18s219.51,126.15,204.37,249.79h-359.54c6.31,129.94,76.95,219.51,196.8,219.51,79.48,0,127.42-29.02,152.65-116.06ZM546.84,322.12c0-94.62-36.59-174.1-129.94-174.1-80.74,0-128.68,56.77-133.72,174.1h263.66Z"/>
</svg>