<?xml version="1.0" encoding="UTF-8"?>
<svg id="Layer_1" data-name="Layer 1" xmlns="http://www.w3.org/2000/svg" viewBox="0 0 1366 768">
  <defs>
    <style>
      .cls-1 {
        fill: #12100b;
      }

      .cls-2 {
        fill: #ccbbe4;
      }
    </style>
  </defs>
  <rect class="cls-2" x="-10" y="-10" width="1386" height="788"/>
  <g>
    <path class="cls-1" d="M316.9,280.76v88.25c0,34,25.96,57.88,75.01,57.88h105.12c49.06,0,75.01-23.88,75.01-57.88v-88.25h36.34v88.25c0,54.25-39.45,94.22-111.35,94.22h-105.12c-71.9,0-111.35-39.97-111.35-94.22v-88.25h36.34Z"/>
    <path class="cls-1" d="M821.21,372.13c0,51.91-42.31,94.22-94.48,94.22s-94.74-42.57-94.74-94.22,42.57-94.48,94.74-94.48,94.48,42.83,94.48,94.48ZM668.34,372.39c0,31.67,26.21,57.62,58.14,57.62s58.4-25.96,58.4-57.88-26.21-58.14-58.4-58.14-58.14,26.47-58.14,58.4Z"/>
    <path class="cls-1" d="M855.47,280.76l46.46,76.57,48.02-76.57h12.98v182.46h-33.74v-94.48l-24.4,45.94h-5.71l-22.84-45.94v94.48h-33.74v-182.46h12.98Z"/>
    <path class="cls-1" d="M1038.72,466.08c-32.7,0-53.99-30.63-53.99-94.22s21.02-93.7,53.99-93.7,54.25,30.89,54.25,93.7-21.02,94.22-54.25,94.22ZM1038.72,430.27c10.12,0,17.91-14.28,17.91-58.4s-7.79-57.88-17.91-57.88-17.65,14.02-17.65,57.88,7.79,58.4,17.65,58.4Z"/>
  </g>
</svg>