<?xml version="1.0" encoding="UTF-8"?>
<svg id="Layer_1" data-name="Layer 1" xmlns="http://www.w3.org/2000/svg" xmlns:xlink="http://www.w3.org/1999/xlink" viewBox="0 0 1366 768">
  <defs>
    <style>
      .cls-1 {
        fill: #e5070b;
      }

      .cls-2 {
        fill: #c3bfb6;
      }

      .cls-3 {
        fill: #12100b;
      }

      .cls-4 {
        fill: #3b45c4;
      }

      .cls-5 {
        clip-path: url(#clippath);
      }
    </style>
    <clipPath id="clippath">
      <rect class="cls-3" x="-10" y="-10" width="1386" height="788"/>
    </clipPath>
  </defs>
  <g>
    <rect class="cls-3" x="-10" y="-10" width="1386" height="788"/>
    <g class="cls-5">
      <rect class="cls-3" x="-.35" y="-3.25" width="1366.71" height="779.89"/>
    </g>
  </g>
  <g>
    <path class="cls-2" d="M312.92,59.93v-3.45h26.36v3.45c-5.52.55-8.97,2.76-12.01,12.42l-20.42,64.45,3.31,10.49c-6.07,0-12.28.83-17.94,3.17l-20.98-67.07-17.66,52.72,3.73,11.18c-6.21,0-12.42.83-17.94,3.17l-27.05-79.63c-3.04-8.83-6.76-10.21-11.87-10.9v-3.45h39.88v3.45c-9.66.83-11.18,4.55-8.83,11.45l20.15,59.34,17.8-53.27-2.62-8.14c-2.35-7.31-4.69-8.69-12.56-9.38v-3.45h41.54v3.45c-9.66.41-11.32,4.97-8.69,13.52l17.94,57.27,17.53-57c2.76-9.11.97-13.25-9.66-13.8Z"/>
    <path class="cls-2" d="M387,143.56v3.73h-41.95v-3.73c10.49-.97,12.42-2.76,12.42-11.87v-59.62c0-9.11-1.93-10.9-12.42-11.87v-3.73h41.95v3.73c-10.49.97-12.42,2.76-12.42,11.87v25.94h41.26v-25.94c0-9.11-1.93-10.9-12.42-11.87v-3.73h41.95v3.73c-10.49.97-12.42,2.76-12.42,11.87v59.62c0,9.11,1.93,10.9,12.42,11.87v3.73h-41.95v-3.73c10.49-.97,12.42-2.76,12.42-11.87v-29.39h-41.26v29.39c0,9.11,1.93,10.9,12.42,11.87Z"/>
    <path class="cls-2" d="M504.04,114.31h-29.81l-7.18,17.66c-.97,2.35-1.38,4.14-1.38,5.52,0,4.69,4.69,5.66,12.83,6.07v3.73h-28.57v-3.73c6.21-.55,8.83-4.14,12.01-11.73l32.15-76.59h4.69l32.57,76.87c3.73,8.69,6.35,10.9,11.32,11.45v3.73h-41.12v-3.73c7.45-.28,10.76-2.62,10.76-6.35,0-2.07-.69-4.42-1.93-7.31l-6.35-15.59ZM502.24,110.03l-13.25-32.43-13.11,32.43h26.36Z"/>
    <path class="cls-2" d="M600.39,143.56v3.73h-45.54v-3.73c11.32-.28,14.35-1.66,14.35-9.52V60.76h-9.52c-13.94,0-15.87,7.73-20.98,22.63l-3.59-.83c1.79-6.49,5.11-20.01.69-25.53l.55-.97c3.45.28,8.56.41,16.15.41h50.37c7.59,0,12.56-.14,16.15-.41l.41.97c-4.42,4.97-.97,19.04.83,25.53l-3.59.83c-5.11-14.9-7.04-22.63-20.98-22.63h-9.52v73.28c0,7.87,2.9,9.25,14.21,9.52Z"/>
    <path class="cls-2" d="M652.14,143.56c10.49-.97,12.42-2.76,12.42-11.87v-59.62c0-9.11-1.93-10.9-12.42-11.87v-3.73h47.75c37.12,0,51.47,20.29,51.47,45.4s-14.35,45.4-51.47,45.4h-47.75v-3.73ZM695.74,143.01c28.15-.83,36.85-18.77,36.85-41.12s-8.69-40.3-36.85-41.26l-14.08-.55v83.49l14.08-.55Z"/>
    <path class="cls-2" d="M807.14,149.5c-31.74,0-48.3-19.73-48.3-47.06s16.15-47.75,49.54-47.75,48.3,20.29,48.3,47.75-16.56,47.06-49.54,47.06ZM809.48,145.22c21.11,0,28.43-16.28,28.43-38.64s-5.8-47.61-30.5-47.61c-22.63,0-29.95,17.39-29.95,39.33,0,23.6,8,46.92,32.02,46.92Z"/>
    <path class="cls-2" d="M955.49,143.56v3.73h-45.54v-3.73c11.32-.28,14.35-1.66,14.35-9.52V60.76h-9.52c-13.94,0-15.87,7.73-20.98,22.63l-3.59-.83c1.79-6.49,5.11-20.01.69-25.53l.55-.97c3.45.28,8.56.41,16.15.41h50.37c7.59,0,12.56-.14,16.15-.41l.41.97c-4.42,4.97-.97,19.04.83,25.53l-3.59.83c-5.11-14.9-7.04-22.63-20.98-22.63h-9.52v73.28c0,7.87,2.9,9.25,14.21,9.52Z"/>
    <path class="cls-2" d="M1021.84,143.56v3.73h-41.95v-3.73c10.49-.97,12.42-2.76,12.42-11.87v-59.62c0-9.11-1.93-10.9-12.42-11.87v-3.73h41.95v3.73c-10.49.97-12.42,2.76-12.42,11.87v25.94h41.26v-25.94c0-9.11-1.93-10.9-12.42-11.87v-3.73h41.95v3.73c-10.49.97-12.42,2.76-12.42,11.87v59.62c0,9.11,1.93,10.9,12.42,11.87v3.73h-41.95v-3.73c10.49-.97,12.42-2.76,12.42-11.87v-29.39h-41.26v29.39c0,9.11,1.93,10.9,12.42,11.87Z"/>
    <path class="cls-2" d="M1144.71,84.5v31.46h-3.73c-.69-10.07-2.48-13.8-11.32-13.8h-13.94v41.68l20.84-.69c16.56-.55,20.98-7.18,26.5-23.18l3.59.83c-3.59,11.59-5.24,20.01-5.52,26.22l-.83.69c-2.48-.28-6.49-.41-10.63-.41h-63.48v-3.73c10.49-.83,12.42-3.17,12.42-11.59v-60.31c0-8.28-1.93-10.63-12.42-11.45v-3.73h55.48c6.9,0,11.59-.14,16.42-.41l.97,1.38c-1.93,7.45-1.79,16.01.55,25.12l-3.86.83c-4.14-15.59-8.14-22.22-23.32-22.77l-16.7-.69v38.09h13.94c8.83,0,10.63-3.45,11.32-13.52h3.73Z"/>
    <path class="cls-4" d="M240.21,201.21v-3.73h40.99c20.98-.14,37.4,4.97,37.4,22.91s-16.42,23.05-37.4,22.91h-11.45v30.36c0,7.73,2.21,10.49,16.7,10.9v3.73h-46.23v-3.86c10.63-.69,12.42-3.04,12.42-10.76v-61.55c0-8.56-3.17-10.07-12.42-10.9ZM278.85,239.57c15.59-.41,20.98-8.14,20.98-19.18s-5.38-18.77-20.98-19.18l-9.11-.28v38.92l9.11-.28Z"/>
    <path class="cls-4" d="M362.87,284.56v3.73h-41.95v-3.73c10.49-.97,12.42-2.76,12.42-11.87v-59.62c0-9.11-1.93-10.9-12.42-11.87v-3.73h41.95v3.73c-10.49.97-12.42,2.76-12.42,11.87v25.94h41.26v-25.94c0-9.11-1.93-10.9-12.42-11.87v-3.73h41.95v3.73c-10.49.97-12.42,2.76-12.42,11.87v59.62c0,9.11,1.93,10.9,12.42,11.87v3.73h-41.95v-3.73c10.49-.97,12.42-2.76,12.42-11.87v-29.39h-41.26v29.39c0,9.11,1.93,10.9,12.42,11.87Z"/>
    <path class="cls-4" d="M427.23,201.21v-3.73h45.54v3.73c-11.32.28-14.21,1.66-14.21,9.52v64.31c0,7.87,2.9,9.25,14.21,9.52v3.73h-45.54v-3.73c11.32-.28,14.21-1.66,14.21-9.52v-64.31c0-7.87-2.9-9.25-14.21-9.52Z"/>
    <path class="cls-4" d="M551.95,260.96l3.59.83c-3.59,11.59-5.11,20.42-5.38,26.91l-.83.69c-2.9-.97-6.62-1.1-12.14-1.1h-58.65v-3.73c10.76-.83,12.42-3.73,12.42-11.04v-62.1c0-7.45-3.31-9.66-12.42-10.21v-3.73h42.5v3.73c-9.94.69-12.97,1.93-12.97,10.21v73.55l18.49-.97c15.46-.83,19.87-7.04,25.39-23.05Z"/>
    <path class="cls-4" d="M607.85,290.5c-31.74,0-48.3-19.73-48.3-47.06s16.15-47.75,49.54-47.75,48.3,20.29,48.3,47.75-16.56,47.06-49.54,47.06ZM610.2,286.22c21.11,0,28.43-16.28,28.43-38.64s-5.8-47.61-30.5-47.61c-22.63,0-29.95,17.39-29.95,39.33,0,23.6,8,46.92,32.02,46.92Z"/>
    <path class="cls-4" d="M659.96,201.21v-3.73h40.99c20.98-.14,37.4,4.97,37.4,22.91s-16.42,23.05-37.4,22.91h-11.45v30.36c0,7.73,2.21,10.49,16.7,10.9v3.73h-46.23v-3.86c10.63-.69,12.42-3.04,12.42-10.76v-61.55c0-8.56-3.17-10.07-12.42-10.9ZM698.6,239.57c15.59-.41,20.98-8.14,20.98-19.18s-5.38-18.77-20.98-19.18l-9.11-.28v38.92l9.11-.28Z"/>
    <path class="cls-4" d="M782.62,284.56v3.73h-41.95v-3.73c10.49-.97,12.42-2.76,12.42-11.87v-59.62c0-9.11-1.93-10.9-12.42-11.87v-3.73h41.95v3.73c-10.49.97-12.42,2.76-12.42,11.87v25.94h41.26v-25.94c0-9.11-1.93-10.9-12.42-11.87v-3.73h41.95v3.73c-10.49.97-12.42,2.76-12.42,11.87v59.62c0,9.11,1.93,10.9,12.42,11.87v3.73h-41.95v-3.73c10.49-.97,12.42-2.76,12.42-11.87v-29.39h-41.26v29.39c0,9.11,1.93,10.9,12.42,11.87Z"/>
    <path class="cls-4" d="M846.98,201.21v-3.73h45.54v3.73c-11.32.28-14.21,1.66-14.21,9.52v64.31c0,7.87,2.9,9.25,14.21,9.52v3.73h-45.54v-3.73c11.32-.28,14.21-1.66,14.21-9.52v-64.31c0-7.87-2.9-9.25-14.21-9.52Z"/>
    <path class="cls-4" d="M971.7,260.96l3.59.83c-3.59,11.59-5.11,20.42-5.38,26.91l-.83.69c-2.9-.97-6.62-1.1-12.14-1.1h-58.65v-3.73c10.76-.83,12.42-3.73,12.42-11.04v-62.1c0-7.45-3.31-9.66-12.42-10.21v-3.73h42.5v3.73c-9.94.69-12.97,1.93-12.97,10.21v73.55l18.49-.97c15.46-.83,19.87-7.04,25.39-23.05Z"/>
    <path class="cls-4" d="M1035.55,225.5v31.46h-3.73c-.69-10.07-2.48-13.8-11.32-13.8h-13.94v41.68l20.84-.69c16.56-.55,20.98-7.18,26.5-23.18l3.59.83c-3.59,11.59-5.24,20.01-5.52,26.22l-.83.69c-2.48-.28-6.49-.41-10.63-.41h-63.48v-3.73c10.49-.83,12.42-3.17,12.42-11.59v-60.31c0-8.28-1.93-10.63-12.42-11.45v-3.73h55.48c6.9,0,11.59-.14,16.42-.41l.97,1.38c-1.93,7.45-1.79,16.01.55,25.12l-3.86.83c-4.14-15.59-8.14-22.22-23.32-22.77l-16.7-.69v38.09h13.94c8.83,0,10.63-3.45,11.32-13.52h3.73Z"/>
    <path class="cls-4" d="M1121.1,200.8l.41,1.24c-1.79,6.49-2.07,12.97-.83,23.18l-3.59.55c-3.04-17.53-9.25-25.94-22.63-25.94-10.63,0-17.11,5.52-17.11,14.21s4.69,12.83,16.15,17.39l8.56,3.31c15.32,6.07,21.94,15.46,21.94,28.01,0,17.25-12.97,27.74-32.43,27.74-9.66,0-18.77-1.93-25.81-4.69l-.55-.97c.69-6.76.14-14.21-1.79-24.7l3.59-.69c3.86,18.22,11.04,26.91,24.98,26.91,11.04,0,17.66-6.76,17.66-16.56s-5.38-15.87-16.56-20.01l-8.42-3.17c-13.52-4.97-20.98-12.56-20.98-25.39,0-15.59,12.28-25.53,31.6-25.53,9.25,0,18.49,2.21,25.81,5.11Z"/>
    <path class="cls-2" d="M78.28,425.56v3.73h-30.91v-3.73c10.07-.69,12.28-2.21,12.42-10.35l.83-61.82c0-8.28-1.79-10.76-12.83-11.18v-3.73h30.77l32.43,68.86,29.95-68.86h30.08v3.73c-10.35.41-12.42,2.9-12.42,11.18v61.82c0,8.14,2.35,9.66,12.42,10.35v3.73h-41.81v-3.73c9.94-.69,12.42-2.21,12.42-10.35v-67.48l-36.71,81.56h-2.21l-38.64-80.32.41,66.24c0,8.14,2.35,9.66,13.8,10.35Z"/>
    <path class="cls-2" d="M229.75,396.31h-29.81l-7.18,17.66c-.97,2.35-1.38,4.14-1.38,5.52,0,4.69,4.69,5.66,12.83,6.07v3.73h-28.57v-3.73c6.21-.55,8.83-4.14,12.01-11.73l32.15-76.59h4.69l32.57,76.87c3.73,8.69,6.35,10.9,11.32,11.45v3.73h-41.12v-3.73c7.45-.28,10.76-2.62,10.76-6.35,0-2.07-.69-4.42-1.93-7.31l-6.35-15.59ZM227.96,392.03l-13.25-32.43-13.11,32.43h26.36Z"/>
    <path class="cls-2" d="M314.65,425.56v3.73h-41.95v-3.73c10.49-.97,12.42-2.76,12.42-11.87v-59.62c0-9.11-1.93-10.9-12.42-11.87v-3.73h41.95v3.73c-10.49.97-12.42,2.76-12.42,11.87v59.62c0,9.11,1.93,10.9,12.42,11.87ZM344.73,432.46l-40.99-50.23-.14-.14,29.67-26.77c3.59-3.17,5.38-5.66,5.38-8,0-2.76-2.48-4.42-9.94-5.11v-3.73h33.12v3.73c-8.97,1.1-13.39,4.97-19.6,10.49l-22.91,20.56,43.75,53.27v2.76c-7.31,0-12.56.97-18.35,3.17Z"/>
    <path class="cls-2" d="M426.4,366.5v31.46h-3.73c-.69-10.07-2.48-13.8-11.32-13.8h-13.94v41.68l20.84-.69c16.56-.55,20.98-7.18,26.5-23.18l3.59.83c-3.59,11.59-5.24,20.01-5.52,26.22l-.83.69c-2.48-.28-6.49-.41-10.63-.41h-63.48v-3.73c10.49-.83,12.42-3.17,12.42-11.59v-60.31c0-8.28-1.93-10.63-12.42-11.45v-3.73h55.48c6.9,0,11.59-.14,16.42-.41l.97,1.38c-1.93,7.45-1.79,16.01.55,25.12l-3.86.83c-4.14-15.59-8.14-22.22-23.32-22.77l-16.7-.69v38.09h13.94c8.83,0,10.63-3.45,11.32-13.52h3.73Z"/>
    <path class="cls-2" d="M530.45,431.5c-31.74,0-48.3-19.73-48.3-47.06s16.15-47.75,49.54-47.75,48.3,20.29,48.3,47.75-16.56,47.06-49.54,47.06ZM532.8,427.22c21.11,0,28.43-16.28,28.43-38.64s-5.8-47.61-30.5-47.61c-22.63,0-29.95,17.39-29.95,39.33,0,23.6,8,46.92,32.02,46.92Z"/>
    <path class="cls-2" d="M643.42,367.05v32.29h-3.73c-.55-10.35-2.48-14.08-11.32-14.08h-16.28v30.36c0,6.9,2.62,9.8,15.18,9.94v3.73h-44.71v-3.73c10.35-.41,12.42-3.04,12.42-9.94v-65.14c0-6.21-3.31-7.73-12.42-8.28v-3.73h57.96c6.76,0,11.73-.41,14.9-.97l1.1,1.38c-2.35,9.11-1.38,18.77.41,25.67l-3.86.83c-4.28-14.63-6.9-22.08-23.74-22.77l-17.25-.69v39.05h16.28c8.83,0,10.76-3.45,11.32-13.94h3.73Z"/>
    <path class="cls-2" d="M690.06,342.21v-3.73h40.99c20.98-.14,37.4,4.97,37.4,22.91s-16.42,23.05-37.4,22.91h-11.45v30.36c0,7.73,2.21,10.49,16.7,10.9v3.73h-46.23v-3.86c10.63-.69,12.42-3.04,12.42-10.76v-61.55c0-8.56-3.17-10.07-12.42-10.9ZM728.7,380.57c15.59-.41,20.98-8.14,20.98-19.18s-5.38-18.77-20.98-19.18l-9.11-.28v38.92l9.11-.28Z"/>
    <path class="cls-2" d="M812.71,425.56v3.73h-41.95v-3.73c10.49-.97,12.42-2.76,12.42-11.87v-59.62c0-9.11-1.93-10.9-12.42-11.87v-3.73h41.95v3.73c-10.49.97-12.42,2.76-12.42,11.87v25.94h41.26v-25.94c0-9.11-1.93-10.9-12.42-11.87v-3.73h41.95v3.73c-10.49.97-12.42,2.76-12.42,11.87v59.62c0,9.11,1.93,10.9,12.42,11.87v3.73h-41.95v-3.73c10.49-.97,12.42-2.76,12.42-11.87v-29.39h-41.26v29.39c0,9.11,1.93,10.9,12.42,11.87Z"/>
    <path class="cls-2" d="M921.95,431.5c-31.74,0-48.3-19.73-48.3-47.06s16.15-47.75,49.54-47.75,48.3,20.29,48.3,47.75-16.56,47.06-49.54,47.06ZM924.3,427.22c21.11,0,28.43-16.28,28.43-38.64s-5.8-47.61-30.5-47.61c-22.63,0-29.95,17.39-29.95,39.33,0,23.6,8,46.92,32.02,46.92Z"/>
    <path class="cls-2" d="M1032.57,366.5v31.46h-3.73c-.69-10.07-2.48-13.8-11.32-13.8h-13.94v41.68l20.84-.69c16.56-.55,20.98-7.18,26.5-23.18l3.59.83c-3.59,11.59-5.24,20.01-5.52,26.22l-.83.69c-2.48-.28-6.49-.41-10.63-.41h-63.48v-3.73c10.49-.83,12.42-3.17,12.42-11.59v-60.31c0-8.28-1.93-10.63-12.42-11.45v-3.73h55.48c6.9,0,11.59-.14,16.42-.41l.97,1.38c-1.93,7.45-1.79,16.01.55,25.12l-3.86.83c-4.14-15.59-8.14-22.22-23.32-22.77l-16.7-.69v38.09h13.94c8.83,0,10.63-3.45,11.32-13.52h3.73Z"/>
    <path class="cls-2" d="M1056.82,342.21v-3.73h42.37c22.91,0,35.33,6.49,35.33,22.08,0,11.87-8.56,18.63-22.36,20.42l-3.86.55v.55l5.93.41c14.08.97,24.43,8.14,24.43,22.63,0,16.01-11.73,24.15-36.85,24.15h-44.99v-3.86c10.49-.69,12.42-3.04,12.42-10.9v-61.13c0-8.83-2.9-10.35-12.42-11.18ZM1086.35,342.07v38.78l9.66-.14c13.39-.14,19.46-7.31,19.46-19.18s-6.07-19.32-19.46-19.32l-9.66-.14ZM1119.75,404.72c0-13.8-7.45-20.01-22.08-20.29l-11.32-.14v41.26l11.32-.41c14.49-.41,22.08-6.62,22.08-20.42Z"/>
    <path class="cls-2" d="M1199.23,366.5v31.46h-3.73c-.69-10.07-2.48-13.8-11.32-13.8h-13.94v41.68l20.84-.69c16.56-.55,20.98-7.18,26.5-23.18l3.59.83c-3.59,11.59-5.24,20.01-5.52,26.22l-.83.69c-2.48-.28-6.49-.41-10.63-.41h-63.48v-3.73c10.49-.83,12.42-3.17,12.42-11.59v-60.31c0-8.28-1.93-10.63-12.42-11.45v-3.73h55.48c6.9,0,11.59-.14,16.42-.41l.97,1.38c-1.93,7.45-1.79,16.01.55,25.12l-3.86.83c-4.14-15.59-8.14-22.22-23.32-22.77l-16.7-.69v38.09h13.94c8.83,0,10.63-3.45,11.32-13.52h3.73Z"/>
    <path class="cls-2" d="M1237.1,357.67c0-1.66-2.07-2.35-4.42-3.73-2.9-1.66-4.55-4.83-4.55-8.42,0-4.97,3.59-8.83,8.83-8.83,6.62,0,9.66,5.38,9.66,11.32,0,8.83-8.42,18.91-22.63,26.77l-1.24-2.07c8.83-5.8,14.35-11.04,14.35-15.04Z"/>
    <path class="cls-2" d="M1312.56,341.8l.41,1.24c-1.79,6.49-2.07,12.97-.83,23.18l-3.59.55c-3.04-17.53-9.25-25.94-22.63-25.94-10.63,0-17.11,5.52-17.11,14.21s4.69,12.83,16.15,17.39l8.56,3.31c15.32,6.07,21.94,15.46,21.94,28.01,0,17.25-12.97,27.74-32.43,27.74-9.66,0-18.77-1.93-25.81-4.69l-.55-.97c.69-6.76.14-14.21-1.79-24.7l3.59-.69c3.86,18.22,11.04,26.91,24.98,26.91,11.04,0,17.66-6.76,17.66-16.56s-5.38-15.87-16.56-20.01l-8.42-3.17c-13.52-4.97-20.98-12.56-20.98-25.39,0-15.59,12.28-25.53,31.6-25.53,9.25,0,18.49,2.21,25.81,5.11Z"/>
    <path class="cls-1" d="M371.68,572.5l-37.26-47.2h-3.59v29.39c0,9.11,1.93,10.9,14.63,11.87v3.73h-44.16v-3.73c10.49-.97,12.42-2.76,12.42-11.87v-59.62c0-9.11-1.93-10.9-12.42-11.87v-3.73h41.68c21.67,0,36.71,5.8,36.71,22.08,0,12.83-10.07,19.6-25.12,21.94l34.91,43.61v3.17c-5.8,0-11.45.69-17.8,2.21ZM340.63,521.57c13.52-.55,20.29-7.04,20.29-19.18s-6.62-18.77-20.56-19.18l-9.52-.28v38.92l9.8-.28Z"/>
    <path class="cls-1" d="M452.8,507.5v31.46h-3.73c-.69-10.07-2.48-13.8-11.32-13.8h-13.94v41.68l20.84-.69c16.56-.55,20.98-7.18,26.5-23.18l3.59.83c-3.59,11.59-5.24,20.01-5.52,26.22l-.83.69c-2.48-.28-6.49-.41-10.63-.41h-63.48v-3.73c10.49-.83,12.42-3.17,12.42-11.59v-60.31c0-8.28-1.93-10.63-12.42-11.45v-3.73h55.48c6.9,0,11.59-.14,16.42-.41l.97,1.38c-1.93,7.45-1.79,16.01.55,25.12l-3.86.83c-4.14-15.59-8.14-22.22-23.32-22.77l-16.7-.69v38.09h13.94c8.83,0,10.63-3.45,11.32-13.52h3.73Z"/>
    <path class="cls-1" d="M540.25,566.56v3.73h-45.54v-3.73c11.32-.28,14.35-1.66,14.35-9.52v-73.28h-9.52c-13.94,0-15.87,7.73-20.98,22.63l-3.59-.83c1.79-6.49,5.11-20.01.69-25.53l.55-.97c3.45.28,8.56.41,16.15.41h50.37c7.59,0,12.56-.14,16.15-.41l.41.97c-4.42,4.97-.97,19.04.83,25.53l-3.59.83c-5.11-14.9-7.04-22.63-20.98-22.63h-9.52v73.28c0,7.87,2.9,9.25,14.21,9.52Z"/>
    <path class="cls-1" d="M611.68,572.5c-24.98,0-35.33-13.25-35.33-33.12v-46.37c0-7.04-1.93-9.38-12.01-9.8v-3.73h43.19v3.73c-11.18.55-14.08,2.9-14.08,9.52l-.14,48.02c0,15.46,7.73,24.43,24.29,24.43s24.01-8.97,24.01-24.43v-48.02c0-7.18-2.76-9.11-13.94-9.52v-3.73h29.67v3.73c-8.83.41-11.45,2.35-11.45,9.8l.14,46.37c0,19.87-10.35,33.12-34.36,33.12Z"/>
    <path class="cls-1" d="M733.03,572.5l-37.26-47.2h-3.59v29.39c0,9.11,1.93,10.9,14.63,11.87v3.73h-44.16v-3.73c10.49-.97,12.42-2.76,12.42-11.87v-59.62c0-9.11-1.93-10.9-12.42-11.87v-3.73h41.68c21.67,0,36.71,5.8,36.71,22.08,0,12.83-10.07,19.6-25.12,21.94l34.91,43.61v3.17c-5.8,0-11.45.69-17.8,2.21ZM701.98,521.57c13.52-.55,20.29-7.04,20.29-19.18s-6.62-18.77-20.56-19.18l-9.52-.28v38.92l9.8-.28Z"/>
    <path class="cls-1" d="M831.14,544.48l-.14-48.71c0-9.38-1.93-11.87-15.46-12.56v-3.73h30.64v3.73c-8.83.83-10.9,3.04-10.9,12.56v74.52h-4l-60.44-70.66.28,54.37c0,9.38,1.79,11.87,15.04,12.56v3.73h-31.33v-3.73c10.07-.83,11.87-3.04,11.87-12.56v-59.2l-11.87-13.8.55-1.52h19.87l55.89,65Z"/>
    <path class="cls-1" d="M941.12,566.56v3.73h-45.54v-3.73c11.32-.28,14.35-1.66,14.35-9.52v-73.28h-9.52c-13.94,0-15.87,7.73-20.98,22.63l-3.59-.83c1.79-6.49,5.11-20.01.69-25.53l.55-.97c3.45.28,8.56.41,16.15.41h50.37c7.59,0,12.56-.14,16.15-.41l.41.97c-4.42,4.97-.97,19.04.83,25.53l-3.59.83c-5.11-14.9-7.04-22.63-20.98-22.63h-9.52v73.28c0,7.87,2.9,9.25,14.21,9.52Z"/>
    <path class="cls-1" d="M1013.5,572.5c-31.74,0-48.3-19.73-48.3-47.06s16.15-47.75,49.54-47.75,48.3,20.29,48.3,47.75-16.56,47.06-49.54,47.06ZM1015.85,568.22c21.11,0,28.43-16.28,28.43-38.64s-5.8-47.61-30.5-47.61c-22.63,0-29.95,17.39-29.95,39.33,0,23.6,8,46.92,32.02,46.92Z"/>
    <path class="cls-2" d="M428.14,649.05v32.29h-3.73c-.55-10.35-2.48-14.08-11.32-14.08h-16.28v30.36c0,6.9,2.62,9.8,15.18,9.94v3.73h-44.71v-3.73c10.35-.41,12.42-3.04,12.42-9.94v-65.14c0-6.21-3.31-7.73-12.42-8.28v-3.73h57.96c6.76,0,11.73-.41,14.9-.97l1.1,1.38c-2.35,9.11-1.38,18.77.41,25.67l-3.86.83c-4.28-14.63-6.9-22.08-23.74-22.77l-17.25-.69v39.05h16.28c8.83,0,10.76-3.45,11.32-13.94h3.73Z"/>
    <path class="cls-2" d="M485.19,678.31h-29.81l-7.18,17.66c-.97,2.35-1.38,4.14-1.38,5.52,0,4.69,4.69,5.66,12.83,6.07v3.73h-28.57v-3.73c6.21-.55,8.83-4.14,12.01-11.73l32.15-76.59h4.69l32.57,76.87c3.73,8.69,6.35,10.9,11.32,11.45v3.73h-41.12v-3.73c7.45-.28,10.76-2.62,10.76-6.35,0-2.07-.69-4.42-1.93-7.31l-6.35-15.59ZM483.39,674.03l-13.25-32.43-13.11,32.43h26.36Z"/>
    <path class="cls-2" d="M585.64,623.8l.41,1.24c-1.79,6.49-2.07,12.97-.83,23.18l-3.59.55c-3.04-17.53-9.25-25.94-22.63-25.94-10.63,0-17.11,5.52-17.11,14.21s4.69,12.83,16.15,17.39l8.56,3.31c15.32,6.07,21.94,15.46,21.94,28.01,0,17.25-12.97,27.74-32.43,27.74-9.66,0-18.77-1.93-25.81-4.69l-.55-.97c.69-6.76.14-14.21-1.79-24.7l3.59-.69c3.86,18.22,11.04,26.91,24.98,26.91,11.04,0,17.66-6.76,17.66-16.56s-5.38-15.87-16.56-20.01l-8.42-3.17c-13.52-4.97-20.98-12.56-20.98-25.39,0-15.59,12.28-25.53,31.6-25.53,9.25,0,18.49,2.21,25.81,5.11Z"/>
    <path class="cls-2" d="M635.77,707.56v3.73h-41.95v-3.73c10.49-.97,12.42-2.76,12.42-11.87v-59.62c0-9.11-1.93-10.9-12.42-11.87v-3.73h41.95v3.73c-10.49.97-12.42,2.76-12.42,11.87v25.94h41.26v-25.94c0-9.11-1.93-10.9-12.42-11.87v-3.73h41.95v3.73c-10.49.97-12.42,2.76-12.42,11.87v59.62c0,9.11,1.93,10.9,12.42,11.87v3.73h-41.95v-3.73c10.49-.97,12.42-2.76,12.42-11.87v-29.39h-41.26v29.39c0,9.11,1.93,10.9,12.42,11.87Z"/>
    <path class="cls-2" d="M700.13,624.21v-3.73h45.54v3.73c-11.32.28-14.21,1.66-14.21,9.52v64.31c0,7.87,2.9,9.25,14.21,9.52v3.73h-45.54v-3.73c11.32-.28,14.21-1.66,14.21-9.52v-64.31c0-7.87-2.9-9.25-14.21-9.52Z"/>
    <path class="cls-2" d="M795.21,713.5c-31.74,0-48.3-19.73-48.3-47.06s16.15-47.75,49.54-47.75,48.3,20.29,48.3,47.75-16.56,47.06-49.54,47.06ZM797.56,709.22c21.11,0,28.43-16.28,28.43-38.64s-5.8-47.61-30.5-47.61c-22.63,0-29.95,17.39-29.95,39.33,0,23.6,8,46.92,32.02,46.92Z"/>
    <path class="cls-2" d="M923.35,685.48l-.14-48.71c0-9.38-1.93-11.87-15.46-12.56v-3.73h30.64v3.73c-8.83.83-10.9,3.04-10.9,12.56v74.52h-4l-60.44-70.66.28,54.37c0,9.38,1.79,11.87,15.04,12.56v3.73h-31.33v-3.73c10.07-.83,11.87-3.04,11.87-12.56v-59.2l-11.87-13.8.55-1.52h19.87l55.89,65Z"/>
    <path class="cls-2" d="M994.99,641.05c0,12.01-8,18.35-17.66,24.7-8.28,5.38-13.94,9.52-13.94,17.25v3.31h-4v-5.38c0-8.83,1.79-13.11,7.59-19.04,5.93-6.21,11.04-11.32,11.04-19.87s-5.66-15.04-16.15-14.9c-9.38,0-15.18,4.69-19.46,13.39l-3.45-1.38c4-10.76,12.83-20.56,29.81-20.56s26.22,8.42,26.22,22.49ZM952.21,703.84c0-5.66,3.86-10.07,9.66-10.07s9.66,4.42,9.66,10.07-3.86,9.94-9.66,9.94-9.66-4.42-9.66-9.94Z"/>
  </g>
</svg>