<?xml version="1.0" encoding="UTF-8"?>
<svg id="Layer_1" data-name="Layer 1" xmlns="http://www.w3.org/2000/svg" xmlns:xlink="http://www.w3.org/1999/xlink" viewBox="0 0 1366 768">
  <defs>
    <style>
      .cls-1 {
        fill: #12100b;
      }

      .cls-2 {
        fill: #ccbbe4;
      }

      .cls-3 {
        fill: none;
        stroke: #000;
        stroke-miterlimit: 10;
        stroke-width: 2px;
      }

      .cls-4 {
        clip-path: url(#clippath);
      }
    </style>
    <clipPath id="clippath">
      <rect class="cls-2" x="-10" y="-10" width="1386" height="788"/>
    </clipPath>
  </defs>
  <g>
    <rect class="cls-2" x="-10" y="-10" width="1386" height="788"/>
    <g class="cls-4">
      <rect class="cls-2" x="-.35" y="-3.25" width="1366.71" height="779.89"/>
    </g>
  </g>
  <g>
    <path class="cls-1" d="M195.31,41.2v2.86h-78.39v97.51h-2.88V44.06H35.78v-2.86h159.52Z"/>
    <path class="cls-1" d="M334.25,41.2c29.2,0,52.65,21.41,52.65,50.25s-23.45,50.11-52.65,50.11h-85.73c-29.2,0-52.65-21.13-52.65-50.11s23.45-50.25,52.65-50.25h85.73ZM248.52,44.06c-27.76,0-49.77,19.99-49.77,47.4s22.01,47.25,49.77,47.25h85.73c27.76,0,49.77-19.7,49.77-47.25s-22.01-47.4-49.77-47.4h-85.73Z"/>
    <path class="cls-1" d="M531.46,41.2c20.43,0,37.11,15.99,37.11,36.26s-16.69,36.26-37.11,36.26h-118.38v27.84h-2.88V41.2h121.26ZM413.07,110.87h118.38c18.99,0,34.23-14.56,34.23-33.41s-15.25-33.41-34.23-33.41h-118.38v66.81Z"/>
    <path class="cls-1" d="M593.01,41.2v97.51h130.9v2.86h-133.78V41.2h2.88Z"/>
    <path class="cls-1" d="M876.38,41.2v2.86h-70.92v94.65h70.92v2.86h-144.71v-2.86h70.92V44.06h-70.92v-2.86h144.71Z"/>
    <path class="cls-1" d="M897.95,41.2l164.7,96.08V41.2h2.88v100.36h-.72l-164.85-96.08v96.08h-2.88V41.2h.86Z"/>
    <path class="cls-1" d="M1238.86,41.2v2.86h-138.81v46.4h138.81v2.85h-138.81v45.4h138.81v2.86h-141.69V41.2h141.69Z"/>
  </g>
  <g>
    <path class="cls-1" d="M92.89,328.24c-34.38,0-54.8-20.84-54.8-50.11s20.43-50.25,54.8-50.25h87.75c34.38,0,54.8,20.99,54.8,50.25s-20.43,50.11-54.8,50.11h-87.75ZM180.63,317.39c27.62,0,43.87-15.99,43.87-39.26s-16.25-39.4-43.87-39.4h-87.75c-27.62,0-43.87,16.13-43.87,39.4s16.25,39.26,43.87,39.26h87.75Z"/>
    <path class="cls-1" d="M404.59,227.88v10.85h-138.38v34.83h138.38v10.56h-138.38v44.11h-10.93v-100.36h149.31Z"/>
    <path class="cls-1" d="M576.33,227.88v10.85h-138.38v34.83h138.38v10.56h-138.38v44.11h-10.93v-100.36h149.31Z"/>
    <path class="cls-1" d="M609.7,227.88v89.51h135.93v10.85h-146.87v-100.36h10.93Z"/>
    <path class="cls-1" d="M909.17,227.88v10.56h-72.07v79.38h72.07v10.42h-155.21v-10.42h72.21v-79.38h-72.21v-10.56h155.21Z"/>
    <path class="cls-1" d="M929.88,227.88l166.28,84.37v-84.37h10.93v100.36h-1.58l-166.29-84.37v84.37h-10.93v-100.36h1.58Z"/>
    <path class="cls-1" d="M1283.44,227.88v10.85h-138.38v34.83h138.38v10.56h-138.38v33.26h138.38v10.85h-149.31v-100.36h149.31Z"/>
  </g>
  <g>
    <path class="cls-1" d="M208.4,414.56v19.27h-76.24v81.09h-20.14v-81.09H35.78v-19.27h172.61Z"/>
    <path class="cls-1" d="M380.29,514.92v-25.13h-144.28v25.13h-20.14v-48.54c0-29.84,21.86-51.82,61.71-51.82h61.13c39.84,0,61.71,21.99,61.71,51.82v48.54h-20.14ZM236.01,471.23h144.28v-4.85c0-18.7-14.38-31.84-41.57-31.84h-61.13c-27.19,0-41.57,13.13-41.57,31.84v4.85Z"/>
    <path class="cls-1" d="M589.14,414.56v19.99h-114.36c-25.75,0-38.69,11.28-38.69,30.27s12.95,30.12,38.69,30.12h96.09v-30.12h18.27v50.11h-114.36c-38.41,0-58.83-20.27-58.83-50.11s20.43-50.25,58.83-50.25h114.36Z"/>
    <path class="cls-1" d="M628.83,414.56v81.09h140.97v19.27h-161.11v-100.36h20.14Z"/>
    <path class="cls-1" d="M940.25,414.56v19.27h-70.48v61.82h70.48v19.27h-161.11v-19.27h70.48v-61.82h-70.48v-19.27h161.11Z"/>
    <path class="cls-1" d="M960.24,414.56l167.29,71.67v-71.67h20.14v100.36h-2.88l-167.29-71.67v71.67h-20.14v-100.36h2.88Z"/>
    <path class="cls-1" d="M1331.06,414.56v19.27h-140.97v22.27h140.97v18.56h-140.97v20.99h140.97v19.27h-161.11v-100.36h161.11Z"/>
  </g>
  <g>
    <path class="cls-1" d="M191.85,599.66c26.75,0,46.03,19.27,46.03,44.97,0,31.84-28.48,55.96-60.27,55.96h-85.73c-26.61,0-46.03-18.42-46.03-44.11,0-31.84,28.48-56.82,60.27-56.82h85.73ZM105.84,602.52c-30.21,0-57.11,23.56-57.11,53.82,0,24.27,18.12,41.4,43.44,41.4h85.73c30.21,0,57.11-22.56,57.11-52.96,0-24.27-17.98-42.26-43.44-42.26h-85.73Z"/>
    <path class="cls-1" d="M274.56,600.23l-7.05,49.68c-3.16,22.56,12.37,39.83,39.41,39.83h55.24c27.04,0,47.47-17.27,50.63-39.83l7.05-49.68h10.93l-7.05,49.68c-4.03,28.55-29.34,50.68-63.15,50.68h-55.24c-33.8,0-52.79-22.13-48.76-50.68l7.05-49.68h10.93Z"/>
    <path class="cls-1" d="M619.05,600.23l-2.73,19.27h-76.24l-11.51,81.09h-20.14l11.51-81.09h-76.24l2.73-19.27h172.61Z"/>
    <path class="cls-1" d="M653.86,600.23l-11.51,81.09h140.97l-2.73,19.27h-161.11l14.24-100.36h20.14Z"/>
    <path class="cls-1" d="M964.27,600.23l-2.73,19.27h-70.48l-8.77,61.82h70.48l-2.73,19.27h-161.11l2.73-19.27h70.48l8.77-61.82h-70.48l2.73-19.27h161.11Z"/>
    <path class="cls-1" d="M984.83,600.23l154.34,84.37,11.94-84.37h10.93l-14.24,100.36h-1.58l-154.35-84.37-11.94,84.37h-10.93l14.24-100.36h1.58Z"/>
    <path class="cls-1" d="M1333.07,600.23l-.29,2.86h-138.81c-2.16,15.85-4.46,30.55-6.62,46.4h138.67l-.29,2.86h-138.81l-6.47,45.4h138.67l-.29,2.86h-141.83l14.38-100.36h141.69Z"/>
  </g>
  <line class="cls-3" x1="28.45" y1="362.5" x2="1337.55" y2="362.5"/>
  <line class="cls-3" x1="28.45" y1="175.27" x2="1337.55" y2="175.27"/>
  <line class="cls-3" x1="28.45" y1="549.73" x2="1337.55" y2="549.73"/>
  <line class="cls-3" x1="28.45" y1="736.96" x2="1337.55" y2="736.96"/>
</svg>