<?xml version="1.0" encoding="UTF-8"?>
<svg id="Layer_1" data-name="Layer 1" xmlns="http://www.w3.org/2000/svg" xmlns:xlink="http://www.w3.org/1999/xlink" viewBox="0 0 1366 768">
  <defs>
    <style>
      .cls-1 {
        fill: none;
        stroke: #fff;
        stroke-miterlimit: 10;
        stroke-width: 3px;
      }

      .cls-2 {
        fill: #b2b8db;
      }

      .cls-3 {
        fill: #fff;
      }

      .cls-4 {
        clip-path: url(#clippath);
      }
    </style>
    <clipPath id="clippath">
      <rect class="cls-2" x="-10" y="-10" width="1386" height="788"/>
    </clipPath>
  </defs>
  <g>
    <rect class="cls-2" x="-10" y="-10" width="1386" height="788"/>
    <g class="cls-4">
      <rect class="cls-2" x="-.35" y="-3.25" width="1366.71" height="779.89"/>
    </g>
  </g>
  <g>
    <path class="cls-3" d="M181.1,86.58v26.95h22.54l.98-5.68h4.8v18.62h-4.8l-1.08-7.15h-22.44v26.56l10.88.88v4.9h-28.42v-4.9l7.45-.88v-59.29l-7.35-.88v-4.9h47.73l5.78,16.66-4.02,1.76c-3.72-8.04-8.92-12.64-17.05-12.64h-15Z"/>
    <path class="cls-3" d="M287.73,147.05l-2.74,4.61c-16.66-6.96-27.25-18.52-34.2-31.75h-9.7v25.97l8.23.88v4.9h-25.87v-4.9l7.55-.88v-59.29l-7.45-.88v-4.9h30.68c16.56,0,26.46,6.86,26.46,19.11,0,10.39-7.94,16.66-18.13,18.92,5.59,11.56,13.23,20.19,25.19,28.23ZM251.27,114.12c11.76,0,18.33-4.7,18.33-14.21,0-9.02-7.74-13.23-18.82-13.23-1.76,0-6.17,0-9.7-.1v27.54h10.19Z"/>
    <path class="cls-3" d="M326.73,153.23c-20.97,0-35.28-16.76-35.28-37.05s13.03-36.56,34.69-36.75c21.07-.2,35.28,16.86,35.28,36.56s-12.35,37.24-34.69,37.24ZM328.69,147.35c15.39,0,21.66-14.21,21.66-28.13,0-18.62-8.04-33.91-25.19-33.91s-22.64,13.33-22.64,29.6,7.84,32.44,26.17,32.44Z"/>
    <path class="cls-3" d="M447.66,86.58v59.29l7.15.88v4.9h-24.8v-4.9l7.55-.88v-59.29l-25.19,64.98h-4.31l-25.38-64.49v58.8l7.16.88v4.9h-20.48v-4.9l7.55-.88v-59.29l-7.55-.88v-4.9h22.93l20.78,54.69,20.88-54.69h20.88v4.9l-7.15.88Z"/>
    <path class="cls-3" d="M542.33,97.85c-.98-3.72-2.16-7.55-3.53-11.27h-18.62v59.29l9.12.88v4.9h-27.74v-4.9l8.53-.88v-59.29h-19.31c-1.37,3.72-2.55,7.55-3.53,11.27l-4.9-.59,1.67-16.47h61.55l1.67,16.47-4.9.59Z"/>
    <path class="cls-3" d="M569.86,86.58v59.29l7.06.88v4.9h-24.89v-4.9l7.55-.88h.2v-59.29l-7.55-.88v-4.9h24.8v4.9l-7.15.88Z"/>
    <path class="cls-3" d="M662.67,86.58v59.29l7.15.88v4.9h-24.8v-4.9l7.55-.88v-59.29l-25.19,64.98h-4.31l-25.38-64.49v58.8l7.16.88v4.9h-20.48v-4.9l7.55-.88v-59.29l-7.55-.88v-4.9h22.93l20.78,54.69,20.88-54.69h20.88v4.9l-7.15.88Z"/>
    <path class="cls-3" d="M731.17,135l-5.78,16.66h-49.59v-4.9l7.35-.88v-59.29l-7.35-.88v-4.9h47.73l5.78,16.66-4.02,1.76c-3.72-8.04-8.92-12.64-17.05-12.64h-15v25.97h22.54l.98-5.68h4.8v18.62h-4.8l-1.08-7.15h-22.44v27.54h16.86c8.13,0,13.33-4.61,17.05-12.64l4.02,1.76Z"/>
    <path class="cls-3" d="M820.06,97.85c-.98-3.72-2.16-7.55-3.53-11.27h-18.62v59.29l9.12.88v4.9h-27.74v-4.9l8.53-.88v-59.29h-19.31c-1.37,3.72-2.55,7.55-3.53,11.27l-4.9-.59,1.67-16.47h61.55l1.67,16.47-4.9.59Z"/>
    <path class="cls-3" d="M865.63,153.23c-20.97,0-35.28-16.76-35.28-37.05s13.03-36.56,34.69-36.75c21.07-.2,35.28,16.86,35.28,36.56s-12.35,37.24-34.69,37.24ZM867.59,147.35c15.39,0,21.66-14.21,21.66-28.13,0-18.62-8.04-33.91-25.19-33.91s-22.64,13.33-22.64,29.6,7.84,32.44,26.17,32.44Z"/>
    <path class="cls-3" d="M988.52,97.85c-.98-3.72-2.16-7.55-3.53-11.27h-18.62v59.29l9.12.88v4.9h-27.74v-4.9l8.53-.88v-59.29h-19.31c-1.37,3.72-2.55,7.55-3.53,11.27l-4.9-.59,1.67-16.47h61.55l1.67,16.47-4.9.59Z"/>
    <path class="cls-3" d="M1016.05,86.58v59.29l7.06.88v4.9h-24.89v-4.9l7.55-.88h.2v-59.29l-7.55-.88v-4.9h24.8v4.9l-7.15.88Z"/>
    <path class="cls-3" d="M1108.86,86.58v59.29l7.15.88v4.9h-24.8v-4.9l7.55-.88v-59.29l-25.19,64.98h-4.31l-25.38-64.49v58.8l7.16.88v4.9h-20.48v-4.9l7.55-.88v-59.29l-7.55-.88v-4.9h22.93l20.78,54.69,20.88-54.69h20.88v4.9l-7.15.88Z"/>
    <path class="cls-3" d="M1177.36,135l-5.78,16.66h-49.59v-4.9l7.35-.88v-59.29l-7.35-.88v-4.9h47.73l5.78,16.66-4.02,1.76c-3.72-8.04-8.92-12.64-17.05-12.64h-15v25.97h22.54l.98-5.68h4.8v18.62h-4.8l-1.08-7.15h-22.44v27.54h16.86c8.13,0,13.33-4.61,17.05-12.64l4.02,1.76Z"/>
    <path class="cls-3" d="M177.48,192.45c-.98-3.72-2.16-7.55-3.53-11.27h-18.62v59.29l9.12.88v4.9h-27.74v-4.9l8.53-.88v-59.29h-19.31c-1.37,3.72-2.55,7.55-3.53,11.27l-4.9-.59,1.67-16.47h61.55l1.67,16.47-4.9.59Z"/>
    <path class="cls-3" d="M256.56,241.36v4.9h-24.89v-4.9l7.55-.88h.1v-27.34h-35.48v27.34l7.15.88v4.9h-24.8v-4.9l7.55-.88v-59.29l-7.55-.88v-4.9h24.8v4.9l-7.15.88v26.17h35.48v-26.17h-.1l-7.55-.88v-4.9h24.8v4.9l-7.06.88v59.29l7.15.88Z"/>
    <path class="cls-3" d="M317.42,229.6l-5.78,16.66h-49.59v-4.9l7.35-.88v-59.29l-7.35-.88v-4.9h47.73l5.78,16.66-4.02,1.76c-3.72-8.04-8.92-12.64-17.05-12.64h-15v25.97h22.54l.98-5.68h4.8v18.62h-4.8l-1.08-7.15h-22.44v27.54h16.86c8.13,0,13.33-4.61,17.05-12.64l4.02,1.76Z"/>
    <path class="cls-3" d="M403.66,229.6l-5.78,16.66h-49.59v-4.9l7.35-.88v-59.29l-7.35-.88v-4.9h47.73l5.78,16.66-4.02,1.76c-3.72-8.04-8.92-12.64-17.05-12.64h-15v25.97h22.54l.98-5.68h4.8v18.62h-4.8l-1.08-7.15h-22.44v27.54h16.86c8.13,0,13.33-4.61,17.05-12.64l4.02,1.76Z"/>
    <path class="cls-3" d="M481.37,241.36v4.9h-25.87v-4.9l7.55-.88-6.27-15.78h-29.01l-5.68,15.78,8.33.88v4.9h-21.37v-4.9l7.15-.88,23.52-65.08h7.84l26.95,65.08,6.86.88ZM454.13,218.13l-12.74-31.46-11.27,31.46h24.01Z"/>
    <path class="cls-3" d="M548.89,241.65l-2.74,4.61c-16.66-6.96-27.25-18.52-34.2-31.75h-9.7v25.97l8.23.88v4.9h-25.87v-4.9l7.55-.88v-59.29l-7.45-.88v-4.9h30.68c16.56,0,26.46,6.86,26.46,19.11,0,10.39-7.94,16.66-18.13,18.92,5.59,11.56,13.23,20.19,25.19,28.23ZM512.43,208.72c11.76,0,18.33-4.7,18.33-14.21,0-9.02-7.74-13.23-18.82-13.23-1.76,0-6.17,0-9.7-.1v27.54h10.19Z"/>
    <path class="cls-3" d="M609.85,192.45c-.98-3.72-2.16-7.55-3.53-11.27h-18.62v59.29l9.12.88v4.9h-27.74v-4.9l8.53-.88v-59.29h-19.31c-1.37,3.72-2.55,7.55-3.53,11.27l-4.9-.59,1.67-16.47h61.55l1.67,16.47-4.9.59Z"/>
    <path class="cls-3" d="M688.93,241.36v4.9h-24.89v-4.9l7.55-.88h.1v-27.34h-35.48v27.34l7.15.88v4.9h-24.8v-4.9l7.55-.88v-59.29l-7.55-.88v-4.9h24.8v4.9l-7.15.88v26.17h35.48v-26.17h-.1l-7.55-.88v-4.9h24.8v4.9l-7.06.88v59.29l7.15.88Z"/>
    <path class="cls-3" d="M775.96,192.45c-.98-3.72-2.16-7.55-3.53-11.27h-18.62v59.29l9.12.88v4.9h-27.74v-4.9l8.53-.88v-59.29h-19.31c-1.37,3.72-2.55,7.55-3.53,11.27l-4.9-.59,1.67-16.47h61.55l1.67,16.47-4.9.59Z"/>
    <path class="cls-3" d="M849.65,241.65l-2.74,4.61c-16.66-6.96-27.25-18.52-34.2-31.75h-9.7v25.97l8.23.88v4.9h-25.87v-4.9l7.55-.88v-59.29l-7.45-.88v-4.9h30.68c16.56,0,26.46,6.86,26.46,19.11,0,10.39-7.94,16.66-18.13,18.92,5.59,11.56,13.23,20.19,25.19,28.23ZM813.19,208.72c11.76,0,18.33-4.7,18.33-14.21,0-9.02-7.74-13.23-18.82-13.23-1.76,0-6.17,0-9.7-.1v27.54h10.19Z"/>
    <path class="cls-3" d="M907.96,229.6l-5.78,16.66h-49.59v-4.9l7.35-.88v-59.29l-7.35-.88v-4.9h47.73l5.78,16.66-4.02,1.76c-3.72-8.04-8.92-12.64-17.05-12.64h-15v25.97h22.54l.98-5.68h4.8v18.62h-4.8l-1.08-7.15h-22.44v27.54h16.86c8.13,0,13.33-4.61,17.05-12.64l4.02,1.76Z"/>
    <path class="cls-3" d="M994.89,181.18v59.29l7.15.88v4.9h-24.8v-4.9l7.55-.88v-59.29l-25.19,64.98h-4.31l-25.38-64.49v58.8l7.16.88v4.9h-20.48v-4.9l7.55-.88v-59.29l-7.55-.88v-4.9h22.93l20.78,54.69,20.88-54.69h20.88v4.9l-7.15.88Z"/>
    <path class="cls-3" d="M1067.51,225.97c0,13.43-10.68,20.29-27.93,20.29h-31.56v-4.9l7.25-.88v-59.29l-7.25-.88v-4.9h26.66c12.64,0,28.62,2.94,28.62,16.66,0,10.29-8.62,14.01-13.82,15.58,10,2.16,18.03,7.84,18.03,18.33ZM1025.26,181.28v24.5h10.39c9.41,0,16.37-4.02,16.37-12.54s-7.15-11.96-16.17-11.96h-10.58ZM1056.24,225.68c0-9.31-6.86-14.11-17.74-14.11h-13.23v28.91h11.86c12.35,0,19.11-5.1,19.11-14.8Z"/>
    <path class="cls-3" d="M1129.15,229.6l-5.78,16.66h-49.59v-4.9l7.45-.88v-59.29l-7.55-.88v-4.9h24.8v4.9l-7.15.88v59.29h16.76c8.13,0,13.33-4.61,17.05-12.64l4.02,1.76Z"/>
    <path class="cls-3" d="M1187.16,229.6l-5.78,16.66h-49.59v-4.9l7.35-.88v-59.29l-7.35-.88v-4.9h47.73l5.78,16.66-4.02,1.76c-3.72-8.04-8.92-12.64-17.05-12.64h-15v25.97h22.54l.98-5.68h4.8v18.62h-4.8l-1.08-7.15h-22.44v27.54h16.86c8.13,0,13.33-4.61,17.05-12.64l4.02,1.76Z"/>
    <path class="cls-3" d="M1244.59,227.93c0,11.17-8.33,19.9-24.31,19.9-7.64,0-15.48-1.86-21.76-5.29l-.69-18.03h5c1.47,5.49,2.84,9.7,4.31,13.04,3.53,2.84,8.23,4.02,13.43,4.02,8.33,0,14.31-4.21,14.31-12.25,0-5.39-3.53-9.41-9.6-12.25l-15.39-7.25c-7.64-3.63-11.96-8.92-11.96-17.64,0-10.98,9.02-18.23,21.07-18.23,6.17,0,11.07,1.27,15.29,3.82.39-1.27.59-2.45.59-3.82h5.68l.29,20.19h-5c-.78-2.74-2.06-6.86-3.43-10-3.82-3.04-7.74-4.02-12.45-4.02-7.94,0-12.54,3.23-12.54,9.41,0,4.61,3.14,7.64,6.86,9.51l17.15,8.72c8.04,4.12,13.13,10.39,13.13,20.19ZM1209.89,242.44l-.39-.59c.2.2.29.39.39.59Z"/>
  </g>
  <g>
    <path class="cls-3" d="M554.12,631.04c0,6.84-5.1,12.18-14.88,12.18-4.68,0-9.48-1.14-13.32-3.24l-.42-11.04h3.06c.9,3.36,1.74,5.94,2.64,7.98,2.16,1.74,5.04,2.46,8.22,2.46,5.1,0,8.76-2.58,8.76-7.5,0-3.3-2.16-5.76-5.88-7.5l-9.42-4.44c-4.68-2.22-7.32-5.46-7.32-10.8,0-6.72,5.52-11.16,12.9-11.16,3.78,0,6.78.78,9.36,2.34.24-.78.36-1.5.36-2.34h3.48l.18,12.36h-3.06c-.48-1.68-1.26-4.2-2.1-6.12-2.34-1.86-4.74-2.46-7.62-2.46-4.86,0-7.68,1.98-7.68,5.76,0,2.82,1.92,4.68,4.2,5.82l10.5,5.34c4.92,2.52,8.04,6.36,8.04,12.36ZM532.88,639.92l-.24-.36c.12.12.18.24.24.36Z"/>
    <path class="cls-3" d="M574.16,611.36c9.42,0,15.6,7.14,15.6,16.02s-5.76,15.84-15,15.84c-9.9,0-15.54-8.16-15.54-16.02,0-8.88,5.88-15.84,14.94-15.84ZM565.34,625.88c0,6.78,3.66,13.5,10.08,13.5,5.22,0,8.16-4.5,8.16-10.68,0-7.44-3.9-13.86-10.08-13.86-5.22,0-8.16,4.62-8.16,11.04Z"/>
    <path class="cls-3" d="M648.32,639.26v3h-15.18v-3l4.62-.54v-14.82c0-4.38-1.26-7.86-5.76-7.86-3.3,0-5.82,2.58-7.8,5.34v17.34l4.38.54v3h-15.18v-3l4.62-.54v-14.82c0-4.38-1.26-7.86-5.28-7.86-3.6,0-6.18,2.64-8.16,5.46v17.22l4.38.54v3h-15.18v-3l4.62-.54v-19.38l-4.74-.24v-1.74l9.18-6h1.74v6h.6c2.46-3,5.88-6.06,10.26-6.06s7.38,2.88,8.4,7.02c2.52-3.24,6.54-7.02,11.34-7.02,5.4,0,8.76,4.44,8.76,10.26v17.16l4.38.54Z"/>
    <path class="cls-3" d="M678.32,636.02c-2.1,3.96-6,7.2-12.12,7.2-9.24,0-14.58-7.2-14.58-15.48,0-8.7,4.92-16.44,14.34-16.44,7.14,0,12.12,5.52,12.3,13.8h-20.7c0,6.42,3.36,13.32,10.5,13.32,3.36,0,6.12-1.08,8.34-3.78l1.92,1.38ZM657.74,621.86h13.62c-.6-4.08-2.58-7.02-6.78-7.02-3.9,0-6.24,3.48-6.84,7.02Z"/>
    <path class="cls-3" d="M702.74,638c-1.86,2.4-5.88,5.22-9.24,5.22-4.08,0-6.42-1.8-6.54-5.94v-21.12h-5.4v-2.28l11.22-8.76h1.56l-1.26,7.14h9.18v3.9h-9.18v18.24c0,2.64,1.08,3.78,3.24,3.78,1.92,0,3.72-1.26,4.92-2.22l1.5,2.04Z"/>
    <path class="cls-3" d="M739.94,639.26v3h-15.18v-3l4.62-.54v-15.12c0-4.2-1.26-7.56-5.34-7.56-3.42,0-5.7,2.22-8.16,5.64v17.04l4.38.54v3h-15.18v-3l4.62-.54v-32.88l-4.8-.6v-1.8l11.88-6.6,1.98,3.3-2.88,1.8v15.54h.66c2.58-3.24,6.12-6.18,10.62-6.18,5.64,0,8.4,4.5,8.4,10.32v17.1l4.38.54Z"/>
    <path class="cls-3" d="M757.94,639.26v3h-15.18v-3l4.62-.54v-19.38l-4.74-.24v-1.74l9.18-6h1.74v27.36l4.38.54ZM746.9,600.86c0-2.22,1.74-3.96,3.9-3.96s3.96,1.74,3.96,3.96-1.74,3.9-3.96,3.9-3.9-1.74-3.9-3.9Z"/>
    <path class="cls-3" d="M796.46,639.26v3h-15.18v-3l4.62-.54v-14.82c0-4.38-1.26-7.86-5.28-7.86-3.6,0-6.18,2.64-8.16,5.46v17.22l4.38.54v3h-15.18v-3l4.62-.54v-19.38l-4.74-.24v-1.74l9.18-6h1.74v6h.6c2.46-3,5.88-6.06,10.26-6.06,5.4,0,8.76,4.44,8.76,10.26v17.16l4.38.54Z"/>
    <path class="cls-3" d="M829.52,616.88c-1.8,0-3.78,0-5.88-.18,1.14,1.74,1.8,3.9,1.8,6.3,0,6.78-5.4,11.52-12.72,11.52-1.62,0-3.12-.24-4.56-.6-1.02.9-2.16,1.98-2.16,3.06,0,1.14,1.02,1.74,2.34,1.74,4.26,0,7.32-.06,11.16-.06,6.24,0,9.42,3.18,9.42,7.44,0,6.96-9.42,10.68-19.32,10.68-5.58,0-9.9-2.58-9.9-6.54,0-2.82,1.86-4.8,4.08-6.18-2.1-.48-3.84-1.44-3.84-3.42,0-2.76,3.66-5.64,6.18-7.5-4.02-1.86-6.6-5.52-6.6-10.32,0-6.78,5.58-11.52,12.9-11.52,1.8,0,3.54.3,5.04.78,2.58.66,5.76.84,7.98.84,1.2,0,2.94-.06,4.08-.18v4.14ZM806.78,644.42c-1.2,1.26-1.98,2.52-1.98,4.2,0,3.66,4.38,4.62,8.46,4.62,5.88,0,11.22-1.62,11.22-5.34,0-2.76-2.88-3.66-7.14-3.66-3.48,0-5.46.24-8.64.24-.6,0-1.26,0-1.92-.06ZM819.14,623.96c0-5.46-1.92-10.14-7.08-10.14-4.38,0-6.24,3.78-6.24,8.04,0,5.4,2.16,9.84,7.02,9.84s6.3-3.6,6.3-7.74Z"/>
    <path class="cls-3" d="M616.04,704.26v3h-15.84v-3l4.62-.54-3.84-9.66h-17.76l-3.48,9.66,5.1.54v3h-13.08v-3l4.38-.54,14.4-39.84h4.8l16.5,39.84,4.2.54ZM599.36,690.04l-7.8-19.26-6.9,19.26h14.7Z"/>
    <path class="cls-3" d="M651.98,704.26v3h-14.7v-3l3.84-.48-9.06-11.82-3.36,2.76v9l4.38.54v3h-15.18v-3l4.62-.54v-32.88l-4.74-.6v-1.8l11.88-6.6,1.98,3.3-2.94,1.86v23.88l12.12-10.08-4.62-.54v-3h13.68v3l-4.32.54-9,7.44,11.7,15.54,3.72.48Z"/>
    <path class="cls-3" d="M700.1,680.26l-3.78.48-9.54,26.52h-2.16l-7.8-17.82-7.86,17.82h-2.16l-11.88-26.58-3.84-.42v-3h14.58v3l-4.38.54,7.98,17.94,5.88-13.08-2.1-4.86-4.62-.54v-3h15.18v3l-4.2.54,7.38,17.28,6.3-17.28-4.62-.54v-3h11.64v3Z"/>
    <path class="cls-3" d="M729.2,703.78v2.88c-1.26.54-2.28,1.08-3.96,1.08-2.52,0-4.5-1.2-5.4-3.72h-.72c-2.46,2.4-5.64,4.2-9.36,4.2-5.58,0-8.34-3.72-8.34-7.98s3.36-6.6,7.02-7.86c3.12-1.08,6.78-2.22,10.68-3.36v-3.48c0-4.02-2.16-6.06-5.7-6.06-2.46,0-4.38.9-4.38,3.24,0,.84.36,1.92.96,2.64l-6.24,1.32c-.54-.96-.72-1.98-.72-3.06,0-4.38,5.1-7.32,10.98-7.32,7.2,0,11.34,2.34,11.34,8.82v16.14c0,1.56.42,3,1.86,3,.72,0,1.32-.18,1.98-.48ZM719.12,700.66v-8.64c-2.76.78-5.34,1.56-7.38,2.28-3,1.02-4.08,3-4.08,5.22,0,3.06,2.46,4.74,5.16,4.74s4.74-1.62,6.3-3.6Z"/>
    <path class="cls-3" d="M757.22,681.64l-5.34,4.32c-1.32-2.28-1.98-3.24-3.42-3.24s-2.82,1.92-5.34,5.76v15.24l4.98.54v3h-15.78v-3l4.62-.54v-19.38l-4.74-.24v-1.74l9.18-6h1.74v8.04h.48c2.64-4.02,5.1-8.1,8.16-8.1,2.58,0,3.9,2.4,5.46,5.34Z"/>
    <path class="cls-3" d="M793.64,699.34v3.54l-9.18,5.4h-1.14v-4.62h-.66c-2.28,2.46-5.46,4.56-9.24,4.56-8.46,0-13.08-7.56-13.08-15.36,0-9.12,5.94-16.56,14.28-16.56,2.94,0,5.76,1.02,8.04,2.46v-7.92l-4.8-.6v-1.8l11.88-6.6,1.98,3.3-2.88,1.8v35.04l4.8-2.64ZM782.66,700.84v-16.14c-1.74-2.58-4.5-4.5-7.68-4.5-5.7,0-8.52,5.04-8.52,10.98,0,6.6,3.12,12.42,9.3,12.42,2.7,0,5.1-1.08,6.9-2.76Z"/>
  </g>
  <rect class="cls-1" x="41.21" y="33.46" width="1278.25" height="314.57"/>
  <rect class="cls-1" x="41.21" y="425.07" width="1278.25" height="314.57"/>
</svg>