<?xml version="1.0" encoding="UTF-8"?>
<svg id="Layer_1" data-name="Layer 1" xmlns="http://www.w3.org/2000/svg" xmlns:xlink="http://www.w3.org/1999/xlink" viewBox="0 0 1366 768">
  <defs>
    <style>
      .cls-1 {
        fill: #dde0e4;
      }

      .cls-2 {
        fill: #12100b;
      }

      .cls-3 {
        clip-path: url(#clippath);
      }
    </style>
    <clipPath id="clippath">
      <rect class="cls-1" x="-10.04" y="-10.09" width="1386" height="788"/>
    </clipPath>
  </defs>
  <g>
    <rect class="cls-1" x="-10.04" y="-10.09" width="1386" height="788"/>
    <g class="cls-3">
      <rect class="cls-1" x="-.39" y="-3.34" width="1366.71" height="779.89"/>
    </g>
  </g>
  <g>
    <path class="cls-2" d="M157.99,171.64h-12.99l-65.45-90.77v90.77h-13.16V59.98h13.16l65.45,89.79V59.98h12.99v111.66Z"/>
    <path class="cls-2" d="M177.89,129.38c0-26.64,15.46-44.73,39.8-44.73s39.96,17.92,39.96,44.56-15.46,44.4-39.8,44.4-39.96-17.76-39.96-44.24ZM244.49,129.21c0-19.08-9.87-32.89-26.8-32.89s-26.64,13.98-26.64,33.05,10.03,32.56,26.8,32.56,26.64-13.81,26.64-32.72Z"/>
    <path class="cls-2" d="M287.57,98.3c3.45-7.89,10.03-12.66,19.9-12.66,1.48,0,4.11.16,6.08.66v12.17c-1.32-.16-2.63-.16-4.44-.16-14.14,0-21.05,6.41-21.05,20.23v53.12h-13.16v-85.02h12.66v11.68Z"/>
    <path class="cls-2" d="M417.98,96.49c-11.51,0-22.04,8.06-22.04,22.86v52.29h-12.99v-50.32c0-16.44-9.21-24.83-21.05-24.83s-21.87,7.89-21.87,22.86v52.29h-13.16v-85.02h12.66v11.18c5.26-8.22,13.98-13.16,25.32-13.16,12,0,21.71,5.43,26.8,15.46,5.59-9.54,15.62-15.46,28.45-15.46,18.91,0,31.9,12.66,31.9,35.19v51.8h-13.16v-50.32c0-16.44-9.04-24.83-20.88-24.83Z"/>
    <path class="cls-2" d="M526.19,159.8c-6.91,9.37-16.12,13.81-28.12,13.81-16.44,0-29.6-10.36-29.6-25.32s9.87-23.68,28.45-25.65l28.61-2.96v-6.08c0-12.5-8.06-17.76-20.06-17.76s-20.06,4.93-21.71,16.94h-13.16c2.3-18.75,15.62-28.12,34.86-28.12s33.05,9.04,33.05,29.44v57.56h-12.33v-11.84ZM500.54,162.43c15.46,0,24.83-9.54,24.83-24.17v-8.88l-26.15,3.29c-12.33,1.48-16.77,7.24-16.77,15.29s6.91,14.47,18.09,14.47Z"/>
    <path class="cls-2" d="M573.72,171.64h-13.16V53.24h13.16v118.4Z"/>
  </g>
  <g>
    <path class="cls-2" d="M373.67,308.19h38.08c17.12,0,25.9,8.45,25.9,19.86,0,6.58-3.51,13.06-13.17,15.58,11.74,2.74,15.8,8.89,15.8,17.34,0,11.63-8.56,21.73-26.33,21.73h-40.27v-74.5ZM408.01,337.71c5.6,0,8.23-3.4,8.23-7.57,0-4.5-2.85-7.9-8.34-7.9h-13.17v15.47h13.28ZM418.99,359.87c0-5.49-3.62-8.34-9.44-8.34h-14.81v17.01h14.7c6.47,0,9.55-3.18,9.55-8.67Z"/>
    <path class="cls-2" d="M467.15,382.69h-19.97v-79h19.97v79Z"/>
    <path class="cls-2" d="M511.7,375.89c-4.17,5.27-10.31,8.12-17.56,8.12-12.84,0-20.63-7.35-20.63-16.9s6.58-16.57,21.29-18l15.03-1.43v-3.07c0-4.5-2.74-7.13-7.46-7.13s-7.57,2.08-8.34,5.93h-19.53c1.32-11.52,10.31-18.76,27.65-18.76,18.87,0,27.32,8.01,27.32,21.73v36.32h-17.78v-6.8ZM500.29,372.16c6.04,0,9.11-4.17,9.11-9.88v-4.61l-8.56,1.1c-5.16.77-7.9,3.29-7.9,7.02s2.85,6.36,7.35,6.36Z"/>
    <path class="cls-2" d="M534.84,354.38c0-17.89,12.29-29.74,30.17-29.74s26.55,9.11,28.75,21.62h-19.53c-1.43-5.82-4.83-7.46-9-7.46-5.93,0-10.2,4.72-10.2,15.47s4.17,15.58,10.31,15.58c4.17,0,7.46-1.76,9-7.57h19.31c-2.3,13.17-10.97,21.73-28.64,21.73s-30.17-11.74-30.17-29.63Z"/>
    <path class="cls-2" d="M619.77,357.02v25.68h-19.97v-79h19.97v41.92l17.01-19.64h21.73l-21.84,24.8,22.49,31.93h-22.38l-17.01-25.68Z"/>
  </g>
  <g>
    <path class="cls-2" d="M735.52,382.69h-18.65v-31.05h-33.03v31.05h-18.65v-74.5h18.65v28.31h33.03v-28.31h18.65v74.5Z"/>
    <path class="cls-2" d="M743.31,354.6c0-17.45,11.41-29.96,29.19-29.96s29.3,12.84,28.86,30.72l-.11,3.62h-40.05c.99,9,5.38,12.07,11.96,12.07,4.83,0,7.57-1.87,9-4.94h17.78c-2.74,10.31-12.62,17.89-27.43,17.89-18.65,0-29.19-12.4-29.19-29.41ZM783.03,348.35c-.66-6.14-4.06-10.64-10.42-10.64-5.71,0-9.66,3.51-11.08,10.64h21.51Z"/>
    <path class="cls-2" d="M844.14,375.78c-4.17,5.6-10.31,8.23-17.67,8.23-12.84,0-20.85-7.35-20.85-17.01s5.38-16.35,20.74-17.89l15.91-1.54v-2.52c0-5.16-3.07-8.01-8.34-8.01s-8.12,2.19-9.22,6.36h-18.1c1.65-12.07,10.75-18.76,27.1-18.76s26.44,6.69,26.44,21.62v36.43h-16.02v-6.91ZM831.52,372.82c7.24,0,10.53-5.05,10.53-12.18v-3.18l-11.08,1.54c-4.72.66-7.35,3.4-7.35,7.02,0,3.84,2.85,6.8,7.9,6.8Z"/>
    <path class="cls-2" d="M863.55,325.97h18.76l12.95,40.49,11.96-40.49h18.43l-19.75,56.73h-21.73l-20.63-56.73Z"/>
    <path class="cls-2" d="M953.85,403.32h-18.98l11.96-25.68-22.17-51.68h19.2l12.07,33.69,12.51-33.69h18.1l-32.7,77.36Z"/>
  </g>
  <g>
    <path class="cls-2" d="M56.42,360.53h22.16c.55,5.05,4.06,8.12,11.96,8.12,8.56,0,11.3-3.07,11.3-6.58,0-3.18-1.65-5.27-6.25-6.04l-17.89-2.96c-13.83-2.3-20.52-9.98-20.52-22.16s10.64-24.03,31.6-24.03,31.71,8.45,33.25,22.17h-21.95c-.88-4.5-4.5-6.91-11.41-6.91s-10.2,2.85-10.2,6.58c0,3.07,1.76,4.83,6.03,5.49l18.1,2.74c14.48,2.19,20.52,10.53,20.52,22.49,0,13.61-9.98,24.58-32.7,24.58s-32.81-8.78-34.02-23.48Z"/>
    <path class="cls-2" d="M157.25,369.2c4.5,0,7.46-3.95,7.46-9.99v-33.25h21.73v56.73h-19.31v-8.34c-3.84,6.58-9.77,9.66-17.45,9.66-12.4,0-20.41-6.36-20.41-21.07v-36.98h21.73v36.65c0,3.95,1.98,6.58,6.25,6.58Z"/>
    <path class="cls-2" d="M216.28,375.67v27.65h-21.73v-77.36h20.41v9.33c3.29-7.79,9.33-10.64,17.34-10.64,12.18,0,24.36,10.31,24.36,29.74s-12.18,29.63-24.36,29.63c-7.35,0-12.73-2.74-16.02-8.34ZM225.49,368.76c5.38,0,9.44-3.95,9.44-14.48s-3.95-14.37-9.33-14.37-9.33,3.95-9.33,14.37,3.84,14.48,9.22,14.48Z"/>
    <path class="cls-2" d="M260.38,354.17c0-16.46,10.64-29.52,30.39-29.52s29.63,13.72,29.63,29.52c0,1.65,0,2.74-.22,4.83h-38.4c.77,8.67,3.84,11.96,9.33,11.96,4.28,0,6.04-1.32,7.46-4.83h19.86c-2.85,10.86-12.4,17.89-27.65,17.89-19.2,0-30.39-12.18-30.39-29.85ZM299.01,348.79c-.11-7.24-2.85-11.08-8.23-11.08-4.5,0-7.9,2.96-8.89,11.08h17.12Z"/>
    <path class="cls-2" d="M345.3,336.06c3.18-7.68,9.11-10.64,15.58-10.64,1.76,0,2.63.22,3.62.55v17.45c-1.87-.11-3.29-.22-5.27-.22-7.02,0-11.08,4.39-11.08,11.08v28.42h-21.73v-56.73h18.87v10.1Z"/>
  </g>
  <g>
    <path class="cls-2" d="M373.6,497.39h-15.03v-60.9l-20.41,60.9h-11.96l-20.52-61.01v61.01h-15.14v-74.5h23.59l18.1,53.44,17.89-53.44h23.48v74.5Z"/>
    <path class="cls-2" d="M383.36,469.41c0-18,11.52-30.06,28.09-30.06,17.78,0,27.87,12.29,27.54,30.5l-.11,3.29h-41.04c.99,10.31,6.47,14.59,14.15,14.59,6.25,0,9.77-2.74,11.41-6.91h14.37c-2.52,10.1-11.52,17.89-25.9,17.89-18.1,0-28.53-12.07-28.53-29.3ZM424.29,463.7c-.77-8.56-5.38-13.39-12.73-13.39-6.91,0-12.07,4.39-13.5,13.39h26.22Z"/>
    <path class="cls-2" d="M444.25,469.08c0-19.09,11.52-29.74,25.02-29.74,7.9,0,13.94,2.96,17.78,8.45v-29.41h14.48v79h-13.06v-9.55c-3.62,7.13-9.99,10.86-18.65,10.86-13.5,0-25.57-10.86-25.57-29.63ZM473,487.07c8.23,0,14.04-6.91,14.04-17.99s-5.93-18.1-14.04-18.1c-8.56,0-14.15,7.13-14.15,18.1s5.93,17.99,14.15,17.99Z"/>
    <path class="cls-2" d="M511.4,422.77c0-4.72,3.51-8.56,8.78-8.56s8.56,3.84,8.56,8.56-3.51,8.56-8.56,8.56-8.78-3.95-8.78-8.56ZM512.71,440.66h14.48v56.73h-14.48v-56.73Z"/>
    <path class="cls-2" d="M562.42,486.63c7.13,0,11.85-5.05,11.85-12.84v-33.14h14.48v56.73h-12.95v-8.56c-3.84,6.47-9.98,9.88-17.67,9.88-12.73,0-20.08-7.35-20.08-20.85v-37.2h14.48v35.22c0,6.8,3.51,10.75,9.88,10.75Z"/>
    <path class="cls-2" d="M661.72,451.85c-6.25,0-11.19,4.17-11.19,12.29v33.25h-14.48v-32.59c0-8.89-4.39-12.95-10.53-12.95s-11.08,4.06-11.08,12.29v33.25h-14.48v-56.73h13.06v7.9c3.62-6.14,9.77-9.22,17.34-9.22,8.12,0,14.37,3.73,17.67,10.42,3.84-6.91,10.31-10.42,18.32-10.42,12.4,0,20.41,8.34,20.41,22.49v35.55h-14.48v-32.59c0-8.89-4.39-12.95-10.53-12.95Z"/>
  </g>
  <g>
    <path class="cls-2" d="M762.81,497.39h-12.95l-39.17-54.42v54.42h-13.06v-74.5h13.06l39.17,53.99v-53.99h12.95v74.5Z"/>
    <path class="cls-2" d="M773.23,469.51c0-18.32,11.41-30.17,27.65-30.17,17.45,0,27.21,12.07,26.99,30.39,0,1.87-.11,3.18-.11,3.18h-41.59c1.1,10.86,7.02,15.58,15.14,15.58,6.8,0,10.75-3.07,12.29-7.68h13.17c-2.41,9.99-11.19,17.89-25.35,17.89-17.89,0-28.2-11.96-28.2-29.19ZM814.49,464.03c-.66-9.66-5.71-14.59-13.61-14.59-7.35,0-12.95,4.83-14.37,14.59h27.98Z"/>
    <path class="cls-2" d="M859.8,487.73c7.79,0,12.73-5.49,12.73-13.94v-33.14h13.06v56.73h-11.85v-8.23c-3.73,6.14-9.77,9.55-17.56,9.55-12.51,0-19.86-7.35-19.86-20.85v-37.2h13.06v35.55c0,7.35,3.62,11.52,10.42,11.52Z"/>
    <path class="cls-2" d="M922.23,486.85c1.97,0,3.4-.11,4.61-.33v10.75c-2.52.55-4.39.77-7.57.77-11.96,0-17.56-6.8-17.56-18.65v-27.87h-9.11v-10.86h9.11v-16.02h13.06v16.02h12.07v10.86h-12.07v27.1c0,5.71,2.63,8.23,7.46,8.23Z"/>
    <path class="cls-2" d="M947.13,449.98c2.63-6.36,7.79-9.88,14.37-9.88,1.1,0,2.52.11,3.73.44v11.52c-.88-.11-1.98-.11-3.29-.11-9.11,0-13.72,4.28-13.72,13.28v32.15h-13.06v-56.73h11.96v9.33Z"/>
    <path class="cls-2" d="M1008.14,490.03c-4.39,5.93-10.53,8.67-18.21,8.67-11.85,0-20.3-7.13-20.3-16.9s6.04-16.13,19.86-17.56l17.56-1.76v-3.29c0-6.91-4.28-10.09-11.08-10.09s-10.86,2.74-11.96,9h-13.17c1.65-12.29,10.64-18.76,25.13-18.76s24.03,6.36,24.03,20.52v37.53h-11.85v-7.35ZM993.11,489.49c8.89,0,13.83-5.71,13.83-14.26v-4.61l-14.48,1.87c-6.69.77-9.44,4.17-9.44,8.67s3.73,8.34,10.09,8.34Z"/>
    <path class="cls-2" d="M1044.56,497.39h-13.06v-79h13.06v79Z"/>
  </g>
  <g>
    <path class="cls-2" d="M60.7,422.88h34.34c17.45,0,25.46,8.01,25.46,19.86,0,6.91-3.29,12.84-11.52,15.36,10.86,2.74,14.7,8.67,14.7,17.67,0,11.85-8.45,21.62-26.44,21.62h-36.54v-74.5ZM93.72,452.95c6.47,0,9.88-3.62,9.88-8.56,0-5.49-3.73-8.67-10.31-8.67h-15.69v17.23h16.13ZM106.78,474.89c0-6.36-4.5-9.22-11.41-9.22h-17.78v18.87h17.67c7.46,0,11.52-3.18,11.52-9.66Z"/>
    <path class="cls-2" d="M128.94,469.08c0-18.32,12.84-29.74,29.41-29.74s29.41,11.3,29.41,29.74-12.84,29.63-29.41,29.63-29.41-11.19-29.41-29.63ZM171.29,469.08c0-10.53-5.38-16.79-13.06-16.79s-13.06,6.25-13.06,16.79,5.49,16.68,13.17,16.68,12.95-6.25,12.95-16.68Z"/>
    <path class="cls-2" d="M211.34,497.39h-16.35v-79h16.35v79Z"/>
    <path class="cls-2" d="M218.58,469.08c0-19.42,11.74-29.74,25.13-29.74,7.46,0,13.28,2.63,17.23,7.57v-28.53h16.35v79h-14.59v-8.67c-3.73,6.69-9.88,9.99-18.21,9.99-13.39,0-25.9-10.75-25.9-29.63ZM248.21,485.86c7.57,0,12.73-6.47,12.73-16.79s-5.16-16.9-12.73-16.9-13.06,6.58-13.06,16.9,5.38,16.79,13.06,16.79Z"/>
  </g>
  <g>
    <path class="cls-2" d="M498.92,609.32h-8.67l-43.67-60.57v60.57h-8.78v-74.5h8.78l43.67,59.91v-59.91h8.67v74.5Z"/>
    <path class="cls-2" d="M512.19,581.12c0-17.78,10.31-29.85,26.55-29.85s26.66,11.96,26.66,29.74-10.31,29.63-26.55,29.63-26.66-11.85-26.66-29.52ZM556.63,581.01c0-12.73-6.58-21.95-17.89-21.95s-17.78,9.33-17.78,22.05,6.69,21.73,17.89,21.73,17.78-9.22,17.78-21.84Z"/>
    <path class="cls-2" d="M585.37,560.39c2.3-5.27,6.69-8.45,13.28-8.45.99,0,2.74.11,4.06.44v8.12c-.88-.11-1.76-.11-2.96-.11-9.44,0-14.04,4.28-14.04,13.5v35.44h-8.78v-56.73h8.45v7.79Z"/>
    <path class="cls-2" d="M672.38,559.18c-7.68,0-14.7,5.38-14.7,15.25v34.89h-8.67v-33.58c0-10.97-6.14-16.57-14.04-16.57s-14.59,5.27-14.59,15.25v34.89h-8.78v-56.73h8.45v7.46c3.51-5.49,9.33-8.78,16.9-8.78,8.01,0,14.48,3.62,17.89,10.31,3.73-6.36,10.42-10.31,18.98-10.31,12.62,0,21.29,8.45,21.29,23.48v34.56h-8.78v-33.58c0-10.97-6.04-16.57-13.94-16.57Z"/>
    <path class="cls-2" d="M744.58,601.42c-4.61,6.25-10.75,9.22-18.76,9.22-10.97,0-19.75-6.91-19.75-16.9s6.58-15.8,18.98-17.12l19.09-1.98v-4.06c0-8.34-5.38-11.85-13.39-11.85s-13.39,3.29-14.48,11.3h-8.78c1.54-12.51,10.42-18.76,23.26-18.76s22.05,6.03,22.05,19.64v38.4h-8.23v-7.9ZM727.46,603.18c10.31,0,16.57-6.36,16.57-16.13v-5.93l-17.45,2.19c-8.23.99-11.19,4.83-11.19,10.2s4.61,9.66,12.07,9.66Z"/>
    <path class="cls-2" d="M776.28,609.32h-8.78v-79h8.78v79Z"/>
  </g>
  <g>
    <path class="cls-2" d="M795.62,534.82h28.86c16.9,0,24.47,7.46,24.47,19.53,0,8.01-6.15,14.59-13.72,16.35,10.42,1.32,17.12,8.12,17.12,17.56,0,13.06-7.79,21.07-26.77,21.07h-29.96v-74.5ZM824.25,567.85c10.31,0,16.68-5.05,16.68-13.5,0-9.11-6.8-12.84-18.43-12.84h-18.98v26.33h20.74ZM844.44,588.26c0-9.88-7.9-13.61-19.53-13.61h-21.4v27.98h20.52c12.07,0,20.41-3.18,20.41-14.37Z"/>
    <path class="cls-2" d="M861.34,581.12c0-17.67,9.99-29.85,26.12-29.85s26.33,12.07,26.33,29.74-10.09,29.63-26.22,29.63-26.22-12.07-26.22-29.52ZM906.21,581.01c0-13.28-6.8-23.04-18.76-23.04s-18.65,9.88-18.65,23.15,7.02,22.82,18.76,22.82,18.65-9.77,18.65-22.93Z"/>
    <path class="cls-2" d="M922.23,581.12c0-17.67,9.99-29.85,26.12-29.85s26.33,12.07,26.33,29.74-10.09,29.63-26.22,29.63-26.22-12.07-26.22-29.52ZM967.11,581.01c0-13.28-6.8-23.04-18.76-23.04s-18.65,9.88-18.65,23.15,7.02,22.82,18.76,22.82,18.65-9.77,18.65-22.93Z"/>
    <path class="cls-2" d="M994.1,580.47v28.86h-7.57v-79h7.57v45.76l27.32-23.48h8.67l-28.86,25.57,30.07,31.16h-8.89l-28.31-28.86Z"/>
  </g>
  <g>
    <path class="cls-2" d="M62.56,534.82h32.04c17.01,0,25.24,8.34,25.24,20.85,0,10.86-5.93,18.54-19.09,20.63l22.82,33.03h-12.73l-22.17-31.82h-14.7v31.82h-11.41v-74.5ZM92.96,568.29c10.31,0,15.36-4.83,15.36-12.51s-5.16-11.74-15.47-11.74h-18.87v24.25h18.98Z"/>
    <path class="cls-2" d="M128.72,581.45c0-18.54,11.52-30.17,26.99-30.17,17.23,0,26.44,11.74,26.33,30.28,0,1.87-.11,2.96-.11,2.96h-42.24c.99,11.74,7.68,17.12,16.46,17.12,7.68,0,12.07-3.62,13.72-8.89h11.08c-2.3,9.88-10.42,17.89-24.47,17.89-17.56,0-27.76-11.74-27.76-29.19ZM170.75,576.3c-.77-10.97-6.47-16.13-14.92-16.13s-14.37,5.38-15.91,16.13h30.83Z"/>
    <path class="cls-2" d="M216.61,622.6c9.99,0,15.91-5.27,15.91-15.25v-10.53c-4.06,6.47-10.42,9.88-18.54,9.88-13.94,0-25.02-10.64-25.02-27.65s10.97-27.76,24.8-27.76c8.78,0,15.36,3.73,19.31,10.31v-9h10.31v54.1c0,13.72-7.79,24.58-26.77,24.58s-26.11-8.78-26.88-20.08h11.3c.55,7.13,5.49,11.41,15.58,11.41ZM216.17,597.47c9.55,0,16.35-7.46,16.35-18.43s-7.02-18.54-16.35-18.54c-9.88,0-16.46,7.13-16.46,18.54s7.02,18.43,16.46,18.43Z"/>
    <path class="cls-2" d="M278.6,601.31c8.78,0,13.94-6.04,13.94-15.58v-33.14h10.86v56.73h-9.98v-8.01c-3.51,6.03-9.55,9.33-17.67,9.33-12.18,0-19.53-7.24-19.53-20.85v-37.2h10.97v36.1c0,8.12,4.06,12.62,11.41,12.62Z"/>
    <path class="cls-2" d="M328.08,609.32h-10.97v-79h10.97v79Z"/>
    <path class="cls-2" d="M377.12,601.64c-4.5,6.14-10.64,9-18.54,9-11.41,0-19.97-7.02-19.97-16.9s6.25-15.91,19.31-17.34l18.43-1.87v-3.73c0-7.57-4.94-10.97-12.29-10.97s-12.18,3.07-13.28,10.2h-10.86c1.54-12.4,10.42-18.76,24.14-18.76s23.04,6.14,23.04,20.08v37.97h-9.98v-7.68ZM360.99,602.3c9.66,0,15.14-6.04,15.14-15.25v-5.16l-15.91,1.98c-7.46.88-10.31,4.5-10.31,9.44s4.17,9,11.08,9Z"/>
    <path class="cls-2" d="M410.15,561.04c2.41-5.71,7.24-9.11,13.83-9.11,1.1,0,2.63.11,3.95.44v9.88c-.88-.11-1.98-.11-3.18-.11-9.33,0-13.83,4.28-13.83,13.39v33.8h-10.97v-56.73h10.2v8.45Z"/>
  </g>
  <g>
    <path class="cls-2" d="M350.36,653.53h-26v71.43h-3.4v-71.43h-26.11v-3.07h55.52v3.07Z"/>
    <path class="cls-2" d="M382.29,669.99c-10.97,0-19.09,9.22-19.09,22.71v32.26h-3.18v-79h3.18v34.89c3.29-8.56,10.42-13.94,19.53-13.94,13.61,0,20.96,9.55,20.96,24.58v33.47h-3.29v-33.36c0-13.39-6.25-21.62-18.1-21.62Z"/>
    <path class="cls-2" d="M418.38,650.68c0-2.08,1.65-3.62,3.73-3.62,1.98,0,3.51,1.54,3.51,3.62,0,1.98-1.54,3.73-3.51,3.73-2.08,0-3.73-1.76-3.73-3.73ZM420.36,668.24h3.18v56.73h-3.18v-56.73Z"/>
    <path class="cls-2" d="M463.37,669.99c-11.85,0-19.2,8.56-19.2,22.05v32.92h-3.18v-56.73h3.07v11.96c3.18-8.34,9.77-13.28,19.64-13.28,12.95,0,20.96,8.67,20.96,23.92v34.12h-3.29v-33.36c0-13.39-6.15-21.62-18-21.62Z"/>
  </g>
  <g>
    <path class="cls-2" d="M498.24,650.46h2.19l23.92,70.66,21.4-70.66h1.43l23.48,70.77,22.27-70.77h2.19l-23.7,74.5h-1.65l-23.26-70.44-21.29,70.44h-1.65l-25.35-74.5Z"/>
    <path class="cls-2" d="M628.03,668.9c-11.52,0-20.08,9.88-20.08,23.81v32.26h-1.98v-79h1.98v36.21c3.18-9.33,10.53-15.25,20.08-15.25,13.94,0,21.07,9.77,21.07,24.8v33.25h-1.98v-33.25c0-14.04-6.47-22.82-19.09-22.82Z"/>
    <path class="cls-2" d="M664.24,650.9c0-1.76,1.32-3.07,3.07-3.07,1.65,0,2.96,1.32,2.96,3.07,0,1.65-1.32,3.07-2.96,3.07-1.76,0-3.07-1.43-3.07-3.07ZM666.21,668.24h1.98v56.73h-1.98v-56.73Z"/>
    <path class="cls-2" d="M700.55,723.65c1.87,0,2.85-.11,4.61-.33v1.87c-1.54.33-2.52.44-4.83.44-6.47,0-11.63-3.29-11.63-12.18v-43.23h-10.31v-1.98h10.31v-16.02h1.98v16.02h14.48v1.98h-14.48v42.79c0,8.67,4.83,10.64,9.88,10.64Z"/>
    <path class="cls-2" d="M711.96,696.77c0-17.23,9.33-29.85,24.36-29.85s23.92,11.74,23.92,28.42v2.08h-46.3c.22,15.03,8.45,26.88,23.59,26.88,10.31,0,17.67-6.69,19.64-15.91h2.19c-2.52,9.77-9.44,17.89-21.94,17.89-16.46,0-25.46-13.06-25.46-29.52ZM758.27,695.45c0-16.35-8.23-26.55-21.95-26.55s-21.95,11.08-22.38,26.55h44.33Z"/>
  </g>
  <g>
    <path class="cls-2" d="M69.26,720.47h37.75v4.5h-42.79v-74.5h5.05v70.01Z"/>
    <path class="cls-2" d="M114.57,650.46c0-2.52,1.87-4.39,4.39-4.39s4.39,1.87,4.39,4.39-1.98,4.39-4.39,4.39-4.39-1.98-4.39-4.39ZM116.54,668.24h4.83v56.73h-4.83v-56.73Z"/>
    <path class="cls-2" d="M160.43,742.52c12.73,0,19.86-6.36,19.86-18.76v-15.14c-3.62,8.56-10.97,13.72-21.07,13.72-14.59,0-24.69-10.64-24.69-27.76,0-16.02,9.88-27.65,24.36-27.65,10.75,0,18.1,5.71,21.62,14.37v-13.06h4.61v55.19c0,14.81-8.34,23.48-24.69,23.48s-24.14-7.68-24.69-20.08h4.94c.55,10.09,7.24,15.69,19.75,15.69ZM159.77,717.94c12.84,0,20.52-9.77,20.52-23.37,0-12.73-7.9-23.26-20.63-23.26s-20.41,9.66-20.41,23.26c0,14.59,8.34,23.37,20.52,23.37Z"/>
    <path class="cls-2" d="M224.18,671.42c-10.2,0-17.78,8.23-17.78,21.29v32.26h-4.83v-79h4.83v33.36c3.51-7.79,10.2-12.4,18.76-12.4,13.17,0,20.74,9.22,20.74,24.25v33.8h-4.72v-33.36c0-12.73-6.14-20.19-17.01-20.19Z"/>
    <path class="cls-2" d="M278.49,721.13c1.98,0,3.07-.11,4.61-.33v4.28c-1.65.44-3.07.55-5.38.55-7.68,0-13.06-4.28-13.06-13.72v-39.28h-9.98v-4.39h9.98v-16.02h4.83v16.02h13.61v4.39h-13.61v38.62c0,7.68,4.17,9.88,9,9.88Z"/>
  </g>
</svg>