<?xml version="1.0" encoding="UTF-8"?>
<svg id="Layer_1" data-name="Layer 1" xmlns="http://www.w3.org/2000/svg" viewBox="0 0 1366 768">
  <defs>
    <style>
      .cls-1 {
        fill: #dde0e4;
      }
    </style>
  </defs>
  <rect x="-10" y="-10" width="1386" height="788"/>
  <g>
    <path class="cls-1" d="M174.78,173.83v-98.21h-5c-21.07,0-26.96,2.32-30,29.64h-1.79v-36.78c3.04.71,6.61.89,10,.89h68.92c3.39,0,6.96-.18,10-.89v36.78h-1.79c-3.04-27.32-8.93-29.64-30-29.64h-4.82v98.21l19.28,3.57v1.79h-54.1v-1.79l19.28-3.57Z"/>
    <path class="cls-1" d="M284.6,154.9h1.79c-1.79,13.57-9.64,27.14-28.93,27.14-22.14,0-34.1-17.5-34.1-38.39s11.96-38.75,33.75-38.75,31.07,17.86,28.93,35.35h-50.89c.89,18.39,10.89,31.07,27.86,31.07,11.25,0,18.03-4.11,21.61-16.43ZM272.45,134.9c0-13.39-5.18-24.64-18.39-24.64-11.43,0-18.21,8.04-18.93,24.64h37.32Z"/>
    <path class="cls-1" d="M322.09,113.12v44.64c0,8.39,1.96,14.64,11.25,14.64,5.71,0,10.36-2.5,12.14-11.79h1.79c-1.43,11.96-7.14,21.43-20.18,21.43-12.14,0-19.46-6.43-19.46-21.43v-47.5h-15v-1.79c16.79-2.5,24.11-10,26.78-28.57h2.68v25h23.75v5.36h-23.75Z"/>
    <path class="cls-1" d="M399.05,118.29c-12.32,0-15.89,16.79-15.89,26.07v29.46l19.64,3.57v1.79h-46.78v-1.79l12.68-3.57v-58.21h-12.68v-1.61l26.25-9.11v22.32c.89-2.14,1.79-3.93,2.86-5.89,5.71-10,15-16.43,27.14-16.43v27.32h-1.79c-1.61-10.18-5-13.93-11.43-13.93Z"/>
    <path class="cls-1" d="M487.79,171.51c5,0,7.32-3.57,7.32-11.07v-5.36h1.79v6.25c0,10-1.96,19.28-14.64,19.28-7.5,0-13.75-3.39-14.64-11.61-3.21,7.5-9.82,13.04-20.71,13.04-14.11,0-23.93-8.57-23.93-22.14,0-16.61,11.96-23.93,27.32-23.93,7.5,0,12.86,1.79,17.14,4.29v-12.68c0-11.07-4.29-17.14-14.46-17.14s-16.79,5.71-19.82,21.78h-1.79v-24.46c8.39-1.61,16.07-2.86,23.03-2.86,20.71,0,27.5,8.04,27.5,25.18v34.28c0,5,2.14,7.14,5.89,7.14ZM451.54,171.51c12.86,0,15.89-10,15.89-16.79v-8.75c-3.57-3.04-8.93-4.82-14.29-4.82-9.64,0-16.25,5.71-16.25,15.71,0,8.39,5,14.64,14.64,14.64Z"/>
    <path class="cls-1" d="M539.56,182.04c-22.68,0-33.39-17.5-33.39-37.68,0-21.25,10.89-39.46,37.68-39.46,8.21,0,16.07,1.43,22.68,3.21v24.11h-1.79c-2.5-13.93-10-21.96-23.57-21.96-16.61,0-23.21,12.32-23.21,28.03s8.21,33.03,27.86,33.03c10.71,0,18.39-5.36,20.89-16.43h1.79c-2.5,16.96-12.14,27.14-28.93,27.14Z"/>
    <path class="cls-1" d="M620.98,114.55c-11.43,0-18.75,7.14-18.75,24.46v34.82l12.5,3.57v1.79h-39.64v-1.79l12.68-3.57v-105.53l-12.68-3.39v-1.79h51.6v1.79l-24.46,2.86v51.78c5-10.18,14.46-14.64,25-14.64,15.71,0,23.93,10.54,23.93,26.43v42.5l12.5,3.57v1.79h-39.64v-1.79l12.68-3.57v-37.85c0-11.25-1.79-21.43-15.71-21.43Z"/>
    <path class="cls-1" d="M714.55,118.29c-12.32,0-15.89,16.79-15.89,26.07v29.46l19.64,3.57v1.79h-46.78v-1.79l12.68-3.57v-58.21h-12.68v-1.61l26.25-9.11v22.32c.89-2.14,1.79-3.93,2.86-5.89,5.71-10,15-16.43,27.14-16.43v27.32h-1.79c-1.61-10.18-5-13.93-11.43-13.93Z"/>
    <path class="cls-1" d="M741.15,143.65c0-22.86,13.39-38.57,38.39-38.57,22.68,0,36.07,15.71,36.07,38.57s-13.39,38.57-37.5,38.57-36.96-15.71-36.96-38.57ZM801.14,146.15c0-18.21-7.32-35.53-23.03-35.53s-22.5,12.5-22.5,30.53,7.68,35.53,23.93,35.53,21.61-12.5,21.61-30.53Z"/>
    <path class="cls-1" d="M854.71,104.9v17.14c4.64-11.25,14.11-16.96,25.53-16.96,12.14,0,19.82,6.43,22.5,17.5,4.11-11.79,13.39-17.5,25-17.5,15.71,0,23.75,10.54,23.75,26.43v42.5l12.5,3.57v1.79h-38.75v-1.79l11.79-3.57v-38.93c0-13.21-3.75-20.53-15.18-20.53-13.03,0-18.21,10.89-18.21,23.93v35.53l12.86,3.57v1.79h-40.18v-1.79l12.86-3.57v-38.93c0-12.14-2.86-20.53-15.36-20.53s-18.03,9.46-18.21,23.21v36.07l12.5,3.57v1.79h-39.64v-1.79l12.68-3.57v-59.28h-12.68v-1.61l26.25-8.04Z"/>
    <path class="cls-1" d="M1038.09,171.51c5,0,7.32-3.57,7.32-11.07v-5.36h1.79v6.25c0,10-1.96,19.28-14.64,19.28-7.5,0-13.75-3.39-14.64-11.61-3.21,7.5-9.82,13.04-20.71,13.04-14.11,0-23.93-8.57-23.93-22.14,0-16.61,11.96-23.93,27.32-23.93,7.5,0,12.86,1.79,17.14,4.29v-12.68c0-11.07-4.29-17.14-14.46-17.14s-16.78,5.71-19.82,21.78h-1.79v-24.46c8.39-1.61,16.07-2.86,23.03-2.86,20.71,0,27.5,8.04,27.5,25.18v34.28c0,5,2.14,7.14,5.89,7.14ZM1001.84,171.51c12.86,0,15.89-10,15.89-16.79v-8.75c-3.57-3.04-8.93-4.82-14.29-4.82-9.64,0-16.25,5.71-16.25,15.71,0,8.39,5,14.64,14.64,14.64Z"/>
    <path class="cls-1" d="M1079.68,113.12v44.64c0,8.39,1.96,14.64,11.25,14.64,5.71,0,10.36-2.5,12.14-11.79h1.79c-1.43,11.96-7.14,21.43-20.18,21.43-12.14,0-19.46-6.43-19.46-21.43v-47.5h-15v-1.79c16.79-2.5,24.11-10,26.78-28.57h2.68v25h23.75v5.36h-23.75Z"/>
    <path class="cls-1" d="M1140.75,104.9v68.92l12.5,3.57v1.79h-39.64v-1.79l12.68-3.57v-59.28h-12.68v-1.61l27.14-8.04ZM1123.97,77.05c0-5.54,4.64-9.64,9.82-9.64s10,4.11,10,9.64-4.64,9.82-10,9.82-9.82-4.11-9.82-9.82Z"/>
    <path class="cls-1" d="M1197.35,182.04c-22.68,0-33.39-17.5-33.39-37.68,0-21.25,10.89-39.46,37.68-39.46,8.21,0,16.07,1.43,22.68,3.21v24.11h-1.79c-2.5-13.93-10-21.96-23.57-21.96-16.61,0-23.21,12.32-23.21,28.03s8.21,33.03,27.86,33.03c10.71,0,18.39-5.36,20.89-16.43h1.79c-2.5,16.96-12.14,27.14-28.93,27.14Z"/>
  </g>
  <g>
    <path class="cls-1" d="M250.1,574.98l-11.07-6.61v-2.68h55.53v2.68l-11.79,6.61,20,55.17,16.07-44.64-3.93-10.54-11.07-6.61v-2.68h54.64v2.68l-11.43,6.61,17.14,55.53,19.11-55.53-15.36-6.61v-2.68h36.78v2.68l-10.54,6.61-37.68,100.53h-4.82l-27.68-75.89-29.46,75.89h-4.64l-39.82-100.53Z"/>
    <path class="cls-1" d="M395.8,604.09h36.07v50.18c0,6.96,2.5,10.53,7.68,10.53,6.96,0,10.71-5.36,10.71-15v-38.21l-9.11-4.82v-2.68h45.17v2.68l-9.11,4.82v56.42l10.18,4.82v2.68h-37.14v-9.82c-4.46,8.39-12.32,12.68-22.68,12.68-14.28,0-22.68-9.46-22.68-27.32v-39.46l-9.11-4.82v-2.68Z"/>
    <path class="cls-1" d="M531.5,608.55c-7.5,0-11.43,3.75-11.43,9.11,0,5.89,3.93,8.21,13.04,11.25,15.89,5.36,24.46,10.71,24.46,24.46,0,15.54-11.96,25-34.46,25-10,0-21.25-1.96-29.46-5.89v-25.53h2.68c.54,17.32,9.46,23.75,22.32,23.75,8.04,0,12.5-3.21,12.5-8.57,0-5.71-3.75-7.5-15.71-11.25-11.96-3.75-21.61-10.18-21.61-24.46,0-16.61,13.39-25.18,34.64-25.18,7.86,0,15.89,1.07,23.75,4.11v25.89h-2.68c-1.25-15.54-7.14-22.68-18.03-22.68Z"/>
    <path class="cls-1" d="M561.14,606.77v-2.68h49.64v2.68l-11.96,4.82,15.53,36.43,14.46-36.43-12.32-4.82v-2.68h30v2.68l-8.39,4.82-30.71,73.92c-9.11,22.14-14.29,37.14-30.89,37.14-5.89,0-12.14-1.43-15.36-3.57v-29.11h2.68c3.04,14.29,6.25,23.57,15,23.57,6.61,0,10.53-5.89,18.75-26.25l2.14-5.36-30.18-70.35-8.39-4.82Z"/>
    <path class="cls-1" d="M719.7,665.87c3.57,0,4.46-3.39,4.46-8.93v-11.25h3.04v11.61c0,14.28-5.36,21.07-19.11,21.07-8.93,0-15.53-4.29-18.57-11.25-2.5,5.89-8.21,11.25-20.53,11.25s-21.96-8.75-21.96-22.68c0-18.57,13.21-25,28.75-25,4.64,0,8.57.54,12.14,1.43v-9.46c0-9.29-3.57-14.11-11.79-14.11-9.11,0-15,4.46-17.5,22.68h-2.68v-25.89c8.57-2.68,17.14-4.11,24.82-4.11,24.82,0,34.1,10,34.1,31.43v24.28c0,6.25,1.07,8.93,4.82,8.93ZM681.84,665.87c5.36,0,6.07-7.86,6.07-12.14v-13.75c-1.61-.71-3.04-.89-4.64-.89-5.71,0-8.04,5.36-8.04,14.11,0,9.46,2.86,12.68,6.61,12.68Z"/>
    <path class="cls-1" d="M731.66,614.62v-2.68l36.07-10.71v13.21c4.46-8.21,11.96-13.21,23.03-13.21,17.14,0,24.11,12.68,24.11,29.11v37.68l9.11,4.82v2.68h-44.82v-2.68l8.75-4.82v-38.21c0-8.04-2.68-13.21-9.46-13.21-7.14,0-10.71,4.82-10.71,15.18v36.25l8.75,4.82v2.68h-44.82v-2.68l9.11-4.82v-53.39h-9.11Z"/>
    <path class="cls-1" d="M900.21,665.87c3.57,0,4.46-3.39,4.46-8.93v-11.25h3.04v11.61c0,14.28-5.36,21.07-19.11,21.07-8.93,0-15.53-4.29-18.57-11.25-2.5,5.89-8.21,11.25-20.53,11.25s-21.96-8.75-21.96-22.68c0-18.57,13.21-25,28.75-25,4.64,0,8.57.54,12.14,1.43v-9.46c0-9.29-3.57-14.11-11.79-14.11-9.11,0-15,4.46-17.5,22.68h-2.68v-25.89c8.57-2.68,17.14-4.11,24.82-4.11,24.82,0,34.1,10,34.1,31.43v24.28c0,6.25,1.07,8.93,4.82,8.93ZM862.36,665.87c5.36,0,6.07-7.86,6.07-12.14v-13.75c-1.61-.71-3.04-.89-4.64-.89-5.71,0-8.04,5.36-8.04,14.11,0,9.46,2.86,12.68,6.61,12.68Z"/>
    <path class="cls-1" d="M948.24,601.23v13.75c3.57-7.32,10.54-13.75,22.86-13.75,10.18,0,17.86,4.46,21.43,15,3.57-8.04,10.36-15,23.03-15,17.68,0,25.18,12.86,25.18,29.28v37.5l8.75,4.82v2.68h-44.46v-2.68l8.75-4.82v-37.32c0-8.75-2.32-14.11-9.29-14.11-8.21,0-10,8.04-10,13.75v37.68l8.21,4.82v2.68h-43.39v-2.68l8.21-4.82v-37.32c0-8.75-2.32-14.11-9.28-14.11-8.21,0-10,7.86-10,13.75v37.68l8.75,4.82v2.68h-44.82v-2.68l9.11-4.82v-53.39h-9.11v-2.68l36.07-10.71Z"/>
    <path class="cls-1" d="M1123.58,647.65h2.68c-.89,8.39-5,30.71-34.11,30.71-25.18,0-37.32-18.39-37.32-37.5,0-22.5,11.96-39.64,38.03-39.64,23.39,0,34.82,16.61,33.21,37.14h-42.5c1.25,15.36,8.21,25.36,21.61,25.36,9.46,0,15.53-4.29,18.39-16.07ZM1100.37,629.26c0-13.03-1.79-20.36-7.5-20.36s-8.93,6.79-9.46,20.36h16.96Z"/>
  </g>
  <g>
    <path class="cls-1" d="M380.35,406.92h55.17v2.32l-18.21,5.36v11.96l-.18,53.03c0,19.11,7.86,28.21,25.89,28.21s25.53-10.71,25.53-29.11v-64.1l-17.86-5.36v-2.32h38.75v2.32l-11.96,5.36v65.53c-.18,25-15.36,39.46-41.78,39.46s-42.5-13.39-42.5-38.21l.18-66.78-13.03-5.36v-2.32Z"/>
    <path class="cls-1" d="M495.34,454.24v-2.14l31.96-9.64v14.82c4.64-9.64,12.86-14.82,24.11-14.82,16.78,0,24.11,11.96,24.11,28.03v39.64l10.54,4.29v2.32h-42.68v-2.32l10.54-4.29v-38.03c0-10.36-3.04-16.61-12.32-16.61s-13.93,6.25-13.93,18.75v35.89l10.36,4.29v2.32h-42.68v-2.32l10.54-4.29v-55.89h-10.54Z"/>
    <path class="cls-1" d="M621.94,452.1v42.85c0,8.57,3.04,12.86,10.54,12.86,5.89,0,10-2.86,11.43-12.5h2.32c-1.43,14.28-8.04,24.28-23.75,24.28-13.75,0-22.32-7.14-22.32-23.03v-44.46h-12.86v-2.32c18.93-2.32,28.03-11.61,31.78-29.46h2.86v25h23.39v6.79h-23.39Z"/>
    <path class="cls-1" d="M654.08,454.24v-2.14l32.32-9.64v67.67l10.54,4.29v2.32h-42.85v-2.32l10.53-4.29v-55.89h-10.53ZM661.75,416.21c0-7.5,6.25-13.04,13.39-13.04s13.57,5.54,13.57,13.04-6.25,13.39-13.57,13.39-13.39-5.54-13.39-13.39Z"/>
    <path class="cls-1" d="M737.1,452.1v42.85c0,8.57,3.04,12.86,10.54,12.86,5.89,0,10-2.86,11.43-12.5h2.32c-1.43,14.28-8.04,24.28-23.75,24.28-13.75,0-22.32-7.14-22.32-23.03v-44.46h-12.86v-2.32c18.93-2.32,28.03-11.61,31.78-29.46h2.86v25h23.39v6.79h-23.39Z"/>
    <path class="cls-1" d="M761.56,400.67h57.32v2.32l-24.28,3.93v88.03c0,8.75,3.39,12.86,10,12.86,6.07,0,10.71-2.68,12.5-13.57h2.14c-1.79,15.36-8.93,25.36-24.46,25.36-14.29,0-21.96-7.68-21.96-23.21v-89.1l-11.25-4.29v-2.32Z"/>
    <path class="cls-1" d="M889.95,490.31h2.32c-1.25,10.54-6.96,29.28-31.96,29.28s-36.07-18.04-36.07-37.85c0-22.14,11.96-39.28,36.25-39.28,23.03,0,33.21,17.32,31.43,36.43h-45.89c1.07,16.43,9.29,27.68,24.11,27.68,10.18,0,16.61-4.11,19.82-16.25ZM871.38,471.38c0-13.21-3.21-22.14-12.14-22.14-8.04,0-12.68,7.32-13.39,22.14h25.53Z"/>
    <path class="cls-1" d="M902.09,481.56c0-23.21,12.32-39.1,34.46-39.1,8.39,0,15.36,2.86,19.64,8.04v-43.57l-19.11-3.93v-2.32h52.14v2.32l-11.25,4.29v102.85l11.61,4.29v2.32h-33.39v-11.25c-3.39,7.5-10.71,14.11-23.75,14.11-19.64,0-30.36-15.71-30.36-38.03ZM956.19,488.7v-18.39c-.18-12.14-4.64-20.36-15-20.36-11.96,0-16.61,10.71-16.61,27.32,0,18.39,5.36,30.18,17.32,30.18,9.64,0,14.29-7.14,14.29-18.75Z"/>
  </g>
  <g>
    <path class="cls-1" d="M489.49,341.35v-96.6l-13.93-4.46v-2.14h33.03l51.25,72.14v-65.53l-22.14-4.46v-2.14h44.1v2.14l-13.93,4.46v104.99h-2.68l-67.67-92.85v84.46l22.68,4.46v2.14h-44.64v-2.14l13.93-4.46Z"/>
    <path class="cls-1" d="M653.38,339.74c4.46,0,6.43-3.57,6.43-10.54v-7.14h2.14v7.86c0,11.43-3.04,19.82-16.07,19.82-7.86,0-14.29-3.75-15.89-11.07-3.04,6.96-9.29,12.14-20.53,12.14-13.75,0-23.39-8.57-23.39-22.32,0-17.14,12.5-24.28,27.86-24.28,6.43,0,11.43,1.25,15.53,3.04v-11.25c0-10.53-3.93-16.25-13.57-16.25s-16.25,5.54-19.11,22.14h-2.14v-25c8.57-1.96,16.43-3.21,23.57-3.21,21.96,0,29.64,8.57,29.64,27.14v31.25c0,5.36,1.79,7.68,5.54,7.68ZM594.99,252.97c0-5.54,5-9.82,10-9.82s10,4.29,10,9.82-5,9.82-10,9.82-10-4.29-10-9.82ZM616.6,339.74c10.54,0,12.86-9.46,12.86-15.36v-10.54c-3.39-2.5-7.32-3.39-11.25-3.39-8.57,0-13.75,5.54-13.75,15.18,0,8.75,4.29,14.11,12.14,14.11ZM624.63,252.97c0-5.54,4.82-9.82,9.82-9.82,5.36,0,10,4.29,10,9.82s-4.64,9.82-10,9.82c-5,0-9.82-4.29-9.82-9.82Z"/>
    <path class="cls-1" d="M703.95,350.82c-23.03,0-34.46-17.14-34.46-37.68,0-21.96,11.96-39.46,39.1-39.46,8.57,0,16.61,1.43,23.39,3.57v24.64h-2.14c-2.5-13.93-8.93-22.14-21.78-22.14-15.36,0-21.61,11.43-21.61,26.96,0,17.14,8.21,32.32,25.71,32.32,10,0,17.5-5.36,20-16.61h1.96c-2.14,18.04-12.5,28.39-30.18,28.39Z"/>
    <path class="cls-1" d="M783.6,285.11c-10.18,0-16.43,6.43-16.43,21.61v35.18l11.43,3.93v2.14h-41.25v-2.14l11.61-3.93v-104.1l-11.96-3.75v-2.14h54.64v2.14l-24.46,3.39v50.71c4.82-9.64,13.75-14.46,24.64-14.46,15.36,0,23.75,10.36,23.75,27.32v40.89l11.61,3.93v2.14h-41.25v-2.14l11.43-3.93v-37.68c0-10-1.79-19.11-13.75-19.11Z"/>
    <path class="cls-1" d="M865.72,279.75c-8.93,0-13.93,4.11-13.93,10.89,0,5.89,3.39,9.29,15.53,13.21,15.89,5.18,25.89,10,25.89,24.11s-10.54,22.86-30.36,22.86c-8.57,0-17.68-1.61-27.32-5.71v-22.68h1.96c1.79,16.43,12.5,22.32,25,22.32,10.18,0,14.82-4.64,14.82-10.89,0-6.79-4.29-9.64-17.68-13.57-15.18-4.46-23.57-10.54-23.57-24.11s11.07-22.5,29.1-22.5c7.86,0,14.29.89,23.21,3.21v25h-1.96c-1.96-13.39-6.96-22.14-20.71-22.14Z"/>
  </g>
</svg>