<?xml version="1.0" encoding="UTF-8"?>
<svg id="Layer_1" data-name="Layer 1" xmlns="http://www.w3.org/2000/svg" xmlns:xlink="http://www.w3.org/1999/xlink" viewBox="0 0 1366 768">
  <defs>
    <style>
      .cls-1 {
        fill: #b9cae6;
      }

      .cls-2 {
        fill: #12100b;
      }

      .cls-3 {
        clip-path: url(#clippath);
      }
    </style>
    <clipPath id="clippath">
      <rect class="cls-2" x="-10.6" y="-10" width="1386" height="788"/>
    </clipPath>
  </defs>
  <g>
    <rect class="cls-2" x="-10.6" y="-10" width="1386" height="788"/>
    <g class="cls-3">
      <rect class="cls-2" x="-.96" y="-3.25" width="1366.71" height="779.89"/>
    </g>
  </g>
  <g>
    <path class="cls-1" d="M481.17,113.39c-5.32-4.3-8.37-10.51-9.15-18.64h8.91c.7,5.94,3.05,10.42,7.04,13.42,3.99,3.01,9.22,4.51,15.71,4.51s11.9-1.35,15.54-4.05c3.63-2.7,5.45-6.27,5.45-10.73,0-3.91-1.15-6.94-3.46-9.09-2.31-2.15-5.92-3.81-10.85-4.98l-19-4.22c-5.79-1.33-10.18-3.65-13.19-6.98-3.01-3.32-4.51-7.56-4.51-12.72,0-4.46,1.13-8.38,3.4-11.78,2.27-3.4,5.51-6.04,9.73-7.92,4.22-1.88,9.15-2.81,14.77-2.81,8.91,0,16.08,1.98,21.52,5.92,5.43,3.95,8.5,9.87,9.2,17.76h-8.91c-.7-5.55-2.93-9.69-6.68-12.43-3.75-2.74-8.83-4.1-15.24-4.1-5.94,0-10.57,1.29-13.89,3.87-3.32,2.58-4.98,6.1-4.98,10.55,0,3.21.98,5.82,2.93,7.86,1.95,2.03,5.16,3.6,9.62,4.69l18.53,4.22c6.57,1.49,11.55,3.93,14.95,7.33s5.1,7.99,5.1,13.78c0,7.04-2.66,12.62-7.97,16.77-5.32,4.14-12.66,6.21-22.04,6.21s-17.2-2.15-22.51-6.45Z"/>
    <path class="cls-1" d="M559.26,108.7c2.42,2.74,5.98,4.1,10.67,4.1,5.39,0,9.61-1.78,12.66-5.33,3.05-3.56,4.57-8.34,4.57-14.36v-35.29h7.97v60.62h-7.5v-9.26c-3.83,7.11-10.32,10.67-19.46,10.67-6.65,0-11.75-1.93-15.3-5.8-3.56-3.87-5.33-9.36-5.33-16.47v-39.75h8.09v39.16c0,5.08,1.21,8.99,3.63,11.73Z"/>
    <path class="cls-1" d="M658.63,68.54c-2.7-3.32-6.59-4.98-11.67-4.98s-9.17,1.74-12.25,5.22c-3.09,3.48-4.63,8.38-4.63,14.71v34.94h-7.97v-60.62h7.74v9.15c3.75-7.04,9.97-10.55,18.64-10.55,6.88,0,12.31,2.19,16.3,6.57,3.99,4.38,5.98,10.55,5.98,18.53v36.93h-8.09v-35.53c0-6.25-1.35-11.04-4.04-14.36Z"/>
    <path class="cls-1" d="M706.06,116.09c-3.6-2.5-6.41-5.94-8.44-10.32v12.66h-7.74V34.01h7.97v35.29c2.03-4.06,4.85-7.23,8.44-9.5,3.59-2.27,7.93-3.4,13.01-3.4s9.75,1.33,13.78,3.99c4.03,2.66,7.19,6.39,9.5,11.2,2.3,4.81,3.46,10.34,3.46,16.59s-1.17,11.78-3.52,16.59c-2.34,4.81-5.57,8.52-9.67,11.14-4.1,2.62-8.74,3.93-13.89,3.93s-9.3-1.25-12.9-3.75ZM703.3,106.12c3.63,4.46,8.46,6.68,14.48,6.68,3.83,0,7.23-1.01,10.2-3.05,2.97-2.03,5.29-4.92,6.98-8.68,1.68-3.75,2.52-8.05,2.52-12.9,0-7.43-1.76-13.43-5.28-18-3.52-4.57-8.32-6.86-14.42-6.86-3.91,0-7.37,1.06-10.38,3.17-3.01,2.11-5.35,5.04-7.04,8.79-1.68,3.75-2.52,7.97-2.52,12.66v.47c0,7.35,1.82,13.25,5.45,17.71Z"/>
    <path class="cls-1" d="M772.48,115.91c-4.34-2.62-7.64-6.27-9.91-10.96-2.27-4.69-3.4-10.12-3.4-16.3,0-6.49,1.19-12.17,3.58-17.06,2.38-4.88,5.67-8.64,9.85-11.26,4.18-2.62,8.93-3.93,14.25-3.93,8.75,0,15.44,2.81,20.05,8.44,4.61,5.63,6.92,13.45,6.92,23.45l-.12,2.81h-45.96c.39,6.8,2.36,12.1,5.92,15.89,3.56,3.79,8.15,5.69,13.78,5.69,4.53,0,8.27-1.07,11.2-3.22,2.93-2.15,4.87-5.06,5.8-8.74h8.44c-1.33,5.63-4.1,10.22-8.33,13.78-4.22,3.56-9.73,5.33-16.53,5.33-6.02,0-11.2-1.31-15.54-3.93ZM805.49,84.19c-.31-6.88-2.13-12.08-5.45-15.59-3.32-3.52-7.72-5.28-13.19-5.28-5.16,0-9.46,1.82-12.9,5.45-3.44,3.63-5.47,8.78-6.1,15.42h37.64Z"/>
    <path class="cls-1" d="M841.77,115.91c-4.1-2.62-7.33-6.33-9.67-11.14-2.34-4.81-3.52-10.34-3.52-16.59s1.15-11.78,3.46-16.59c2.3-4.81,5.47-8.54,9.5-11.2,4.03-2.66,8.62-3.99,13.78-3.99s9.42,1.13,13.01,3.4c3.59,2.27,6.41,5.43,8.44,9.5v-35.29h8.09v84.42h-7.62v-13.25c-2.03,4.53-4.89,8.11-8.56,10.73-3.67,2.62-8.01,3.93-13.01,3.93s-9.79-1.31-13.89-3.93ZM839.66,101.08c1.68,3.75,4,6.65,6.98,8.68,2.97,2.03,6.37,3.05,10.2,3.05s7.27-1.01,10.32-3.05c3.05-2.03,5.41-4.88,7.09-8.56,1.68-3.67,2.52-7.93,2.52-12.78v-.47c0-4.69-.86-8.91-2.58-12.66-1.72-3.75-4.1-6.68-7.15-8.79-3.05-2.11-6.45-3.17-10.2-3.17-6.1,0-10.9,2.29-14.42,6.86-3.52,4.57-5.28,10.57-5.28,18,0,4.85.84,9.15,2.52,12.9Z"/>
  </g>
  <g>
    <path class="cls-1" d="M420.97,348.09c4.73,4.14,7.09,9.69,7.09,16.65,0,4.53-1.05,8.62-3.17,12.25-2.11,3.63-5.3,6.51-9.56,8.62-4.26,2.11-9.4,3.17-15.42,3.17h-17.71v32.71h-16.06v-79.61h34c9.15,0,16.08,2.07,20.81,6.21ZM397.93,376.35c4.3,0,7.6-.98,9.91-2.93,2.3-1.95,3.46-4.69,3.46-8.21s-1.13-6.21-3.4-8.09c-2.27-1.88-5.59-2.81-9.97-2.81h-15.71v22.04h15.71Z"/>
    <path class="cls-1" d="M451.74,418.97c-4.61-2.62-8.13-6.29-10.55-11.02-2.42-4.73-3.63-10.18-3.63-16.36s1.25-11.92,3.75-16.77c2.5-4.85,6.04-8.62,10.61-11.32,4.57-2.7,9.79-4.04,15.65-4.04,6.17,0,11.49,1.35,15.95,4.04,4.46,2.7,7.84,6.51,10.14,11.43,2.3,4.92,3.42,10.63,3.34,17.12l-.12,3.52h-43.15c.47,5.32,1.99,9.25,4.57,11.78,2.58,2.54,5.86,3.81,9.85,3.81,6.1,0,10.12-2.46,12.08-7.39h15.48c-1.41,5.63-4.51,10.22-9.32,13.78-4.81,3.56-10.81,5.33-18,5.33-6.49,0-12.04-1.31-16.65-3.93ZM481.17,385.5c-.31-4.53-1.64-8.05-3.99-10.55-2.34-2.5-5.47-3.75-9.38-3.75-3.6,0-6.61,1.21-9.03,3.63-2.42,2.42-4.03,5.98-4.81,10.67h27.2Z"/>
    <path class="cls-1" d="M530.3,373.42c1.8-4.14,4.73-7.37,8.79-9.67,4.06-2.3,9.18-3.46,15.36-3.46,3.83,0,7.07.27,9.73.82v14.54c-3.28-.47-6.84-.7-10.67-.7-7.58,0-13.09,1.31-16.53,3.93-3.44,2.62-5.16,6.7-5.16,12.25v30.37h-15.48v-60.62h13.95v12.55Z"/>
    <path class="cls-1" d="M593.85,418.97c-4.61-2.62-8.13-6.29-10.55-11.02-2.42-4.73-3.63-10.18-3.63-16.36s1.25-11.92,3.75-16.77c2.5-4.85,6.04-8.62,10.61-11.32,4.57-2.7,9.79-4.04,15.65-4.04,6.17,0,11.49,1.35,15.95,4.04,4.46,2.7,7.84,6.51,10.14,11.43,2.3,4.92,3.42,10.63,3.34,17.12l-.12,3.52h-43.15c.47,5.32,1.99,9.25,4.57,11.78,2.58,2.54,5.86,3.81,9.85,3.81,6.1,0,10.12-2.46,12.08-7.39h15.48c-1.41,5.63-4.51,10.22-9.32,13.78-4.81,3.56-10.81,5.33-18,5.33-6.49,0-12.04-1.31-16.65-3.93ZM623.28,385.5c-.31-4.53-1.64-8.05-3.99-10.55-2.34-2.5-5.47-3.75-9.38-3.75-3.6,0-6.61,1.21-9.03,3.63-2.42,2.42-4.03,5.98-4.81,10.67h27.2Z"/>
    <path class="cls-1" d="M689.94,375.94c-2.07-2.38-4.98-3.58-8.74-3.58s-6.78,1.25-9.09,3.75c-2.31,2.5-3.46,6.06-3.46,10.67v34.71h-15.48v-60.62h13.95v8.56c3.99-6.64,10.36-9.97,19.11-9.97,6.72,0,12.12,2.01,16.18,6.04,4.06,4.03,6.1,9.95,6.1,17.76v38.22h-15.48v-34.71c0-4.85-1.04-8.46-3.11-10.85Z"/>
    <path class="cls-1" d="M760.99,375.94c-2.07-2.38-4.98-3.58-8.74-3.58s-6.78,1.25-9.09,3.75c-2.31,2.5-3.46,6.06-3.46,10.67v34.71h-15.48v-60.62h13.95v8.56c3.99-6.64,10.36-9.97,19.11-9.97,6.72,0,12.12,2.01,16.18,6.04,4.06,4.03,6.1,9.95,6.1,17.76v38.22h-15.48v-34.71c0-4.85-1.04-8.46-3.11-10.85Z"/>
    <path class="cls-1" d="M794.93,408.71h19.46v-35.06h-16.3v-12.78h31.77v47.84h19.23v12.78h-54.17v-12.78ZM815.51,348.21c-1.76-1.8-2.64-3.95-2.64-6.45s.88-4.75,2.64-6.51,4-2.64,6.74-2.64,4.87.88,6.62,2.64,2.64,3.93,2.64,6.51-.88,4.65-2.64,6.45c-1.76,1.8-3.97,2.7-6.62,2.7s-4.98-.9-6.74-2.7Z"/>
    <path class="cls-1" d="M906.91,413.64c-4.61,6.18-11.06,9.26-19.35,9.26-4.46,0-8.37-.78-11.73-2.35-3.36-1.56-5.98-3.71-7.86-6.45-1.88-2.74-2.81-5.86-2.81-9.38,0-10.94,7.35-17.2,22.04-18.76l18.29-1.88v-3.28c0-3.36-.96-5.88-2.87-7.56-1.92-1.68-4.63-2.52-8.15-2.52s-6.51.72-8.5,2.17c-1.99,1.45-3.3,3.65-3.93,6.62h-15.59c.86-6.57,3.65-11.55,8.38-14.95,4.73-3.4,11.24-5.1,19.52-5.1s14.95,1.84,19.52,5.51c4.57,3.68,6.86,9.26,6.86,16.77v39.75h-13.84v-7.86ZM883.98,410.18c1.84,1.52,4.4,2.29,7.68,2.29,4.38,0,7.74-1.33,10.08-3.99,2.34-2.66,3.52-6.21,3.52-10.67v-4.46l-13.6,1.76c-3.67.55-6.33,1.56-7.97,3.05-1.64,1.49-2.46,3.52-2.46,6.1,0,2.42.92,4.4,2.76,5.92Z"/>
    <path class="cls-1" d="M971.86,408.71h19.35v12.78h-54.17v-12.78h19.35v-58.98h-17.35v-12.78h23.22v.12h9.61v71.64Z"/>
  </g>
  <g>
    <path class="cls-1" d="M386.67,724.55h-15.36v-60.97l-9.5,60.97h-16.06l-9.38-60.97v60.97h-15.36v-79.61h24.86l7.97,52.76,7.97-52.76h24.86v79.61Z"/>
    <path class="cls-1" d="M397.45,708.13h17.24v-27.79h-14.89v-16.42h38.11v44.2h17.24v16.42h-57.69v-16.42ZM417.44,652.73c-2.31-2.38-3.46-5.14-3.46-8.27s1.15-5.75,3.46-8.09c2.3-2.34,5.29-3.52,8.97-3.52s6.47,1.17,8.85,3.52c2.38,2.35,3.58,5.04,3.58,8.09,0,1.96-.55,3.85-1.64,5.69-1.09,1.84-2.58,3.32-4.46,4.46-1.88,1.13-3.99,1.7-6.33,1.7-3.67,0-6.66-1.19-8.97-3.58Z"/>
    <path class="cls-1" d="M477.59,722.32c-3.79-2.42-6.82-6.02-9.09-10.79-2.27-4.77-3.4-10.51-3.4-17.24s1.13-12.37,3.4-17.18c2.27-4.81,5.29-8.44,9.09-10.9,3.79-2.46,7.95-3.69,12.49-3.69,7.89,0,13.6,3.05,17.12,9.15v-31.54h23.21v84.42h-21.81v-10.79c-3.36,8.13-9.54,12.19-18.53,12.19-4.54,0-8.7-1.21-12.49-3.63ZM491.02,705.73c1.8,2.39,4.18,3.58,7.15,3.58,2.58,0,4.73-1.19,6.45-3.58,1.72-2.38,2.58-6.27,2.58-11.67,0-5.08-.88-8.83-2.64-11.26-1.76-2.42-3.93-3.63-6.51-3.63-2.89,0-5.24,1.21-7.04,3.63-1.8,2.42-2.7,6.21-2.7,11.37s.9,9.17,2.7,11.55Z"/>
    <path class="cls-1" d="M535.93,663.93h17.12l3.17,37.64,6.1-37.64h17.82l6.1,37.64,3.17-37.64h17.12l-7.39,60.62h-22.98l-4.92-33.3-4.92,33.3h-22.98l-7.39-60.62Z"/>
    <path class="cls-1" d="M626.85,721.97c-4.96-2.66-8.73-6.39-11.31-11.2-2.58-4.81-3.87-10.38-3.87-16.71,0-5.94,1.27-11.29,3.81-16.06,2.54-4.77,6.27-8.54,11.2-11.32,4.93-2.77,10.87-4.16,17.82-4.16s12.55,1.43,17.24,4.28c4.69,2.85,8.21,6.67,10.55,11.43,2.35,4.77,3.52,10.04,3.52,15.83,0,1.96-.08,3.67-.23,5.16h-40.45c.86,8.52,4.18,12.78,9.96,12.78,1.8,0,3.28-.41,4.46-1.23,1.17-.82,2.15-2.13,2.93-3.93h21.22c-1.56,5.94-4.87,10.61-9.91,14.01-5.04,3.4-11.47,5.1-19.29,5.1-6.8,0-12.68-1.33-17.65-3.99ZM652.94,688.32c-.24-3.91-1.04-6.86-2.4-8.85-1.37-1.99-3.38-2.99-6.04-2.99-5.24,0-8.32,3.95-9.26,11.84h17.71Z"/>
    <path class="cls-1" d="M694.33,721.09c-5.16-3.24-8.17-7.99-9.03-14.25h21.46c.86,3.75,4.1,5.63,9.73,5.63,2.66,0,4.63-.37,5.92-1.11,1.29-.74,1.93-1.74,1.93-2.99,0-1.01-.37-1.84-1.11-2.46-.74-.62-2.13-1.09-4.16-1.41l-14.3-2.35c-12.04-1.95-18.06-8.25-18.06-18.88,0-3.99,1.07-7.54,3.22-10.67,2.15-3.13,5.35-5.59,9.61-7.39,4.26-1.8,9.44-2.7,15.54-2.7,17.9,0,27.98,6.68,30.25,20.05h-21.46c-.7-4.22-3.68-6.33-8.91-6.33-2.5,0-4.38.37-5.63,1.11-1.25.74-1.88,1.78-1.88,3.11,0,1.1.39,1.92,1.17,2.46.78.55,2.07,1.02,3.87,1.41l16.88,3.28c5.94,1.17,10.24,3.22,12.9,6.16,2.66,2.93,3.99,6.78,3.99,11.55,0,6.33-2.6,11.36-7.8,15.07-5.2,3.71-12.64,5.57-22.34,5.57s-16.65-1.62-21.81-4.87Z"/>
    <path class="cls-1" d="M799.27,706.96c1.56,1.17,4.3,1.76,8.21,1.76s8.25-.39,12.78-1.17v15.59c-5.55,1.41-12.15,2.11-19.81,2.11-9.15,0-15.89-1.72-20.23-5.16-4.34-3.44-6.51-9.42-6.51-17.94v-21.81h-15.24v-16.42h15.48v-17.12h23.1v17.12h23.21v16.42h-23.33v20.17c0,3.13.78,5.28,2.34,6.45Z"/>
    <path class="cls-1" d="M844.24,721.97c-4.96-2.66-8.74-6.39-11.31-11.2-2.58-4.81-3.87-10.38-3.87-16.71,0-5.94,1.27-11.29,3.81-16.06,2.54-4.77,6.27-8.54,11.2-11.32,4.92-2.77,10.86-4.16,17.82-4.16s12.54,1.43,17.23,4.28c4.69,2.85,8.21,6.67,10.55,11.43,2.35,4.77,3.52,10.04,3.52,15.83,0,1.96-.08,3.67-.23,5.16h-40.45c.86,8.52,4.18,12.78,9.97,12.78,1.8,0,3.28-.41,4.46-1.23,1.17-.82,2.15-2.13,2.93-3.93h21.22c-1.56,5.94-4.87,10.61-9.91,14.01s-11.47,5.1-19.29,5.1c-6.8,0-12.68-1.33-17.65-3.99ZM870.33,688.32c-.23-3.91-1.04-6.86-2.4-8.85s-3.38-2.99-6.04-2.99c-5.24,0-8.33,3.95-9.26,11.84h17.71Z"/>
    <path class="cls-1" d="M927.55,676.24c1.95-4.22,5.08-7.43,9.38-9.62,4.3-2.19,9.19-3.28,14.66-3.28,3.6,0,6.92.27,9.97.82v20.17c-3.6-.55-7.58-.82-11.96-.82-6.33,0-11.08,1.21-14.25,3.63-3.17,2.42-4.75,6.37-4.75,11.84v25.56h-23.22v-60.62h20.17v12.31Z"/>
    <path class="cls-1" d="M1013.14,681.46c-1.25-1.45-3.01-2.17-5.28-2.17-5.79,0-8.68,3.71-8.68,11.14v34.12h-23.22v-60.62h20.64v9.61c1.95-3.59,4.51-6.33,7.68-8.21s6.78-2.81,10.85-2.81c6.88,0,12.45,1.88,16.71,5.63,4.26,3.75,6.39,9.38,6.39,16.88v39.51h-23.21v-36.82c0-2.74-.63-4.83-1.88-6.27Z"/>
  </g>
</svg>