<?xml version="1.0" encoding="UTF-8"?>
<svg id="Layer_1" data-name="Layer 1" xmlns="http://www.w3.org/2000/svg" xmlns:xlink="http://www.w3.org/1999/xlink" viewBox="0 0 1366 768">
  <defs>
    <style>
      .cls-1 {
        fill: #c3bfb6;
      }

      .cls-2 {
        fill: #12100b;
      }

      .cls-3 {
        clip-path: url(#clippath);
      }
    </style>
    <clipPath id="clippath">
      <rect class="cls-2" x="-10" y="-10" width="1386" height="788"/>
    </clipPath>
  </defs>
  <g>
    <rect class="cls-2" x="-10" y="-10" width="1386" height="788"/>
    <g class="cls-3">
      <rect class="cls-2" x="-.35" y="-3.25" width="1366.71" height="779.89"/>
    </g>
  </g>
  <g>
    <path class="cls-1" d="M152.46,131.63h-44.6l-11.2,27.8c-1.6,3.8-2.2,6.4-2.2,8.8,0,6.6,6.6,7.8,19.6,8.4v5.2h-41.8v-5.2c9.4-.8,13.4-6.2,18-17.4l45-109.4h5.6l46.2,109.8c5.8,13.6,9.6,16.4,16.6,17v5.2h-55v-5.2c11.8-.2,16.8-3.6,16.8-9.6,0-2.2-.4-4.8-1.8-8l-11.2-27.4ZM150.26,126.23l-20.2-50-20,50h40.2Z"/>
    <path class="cls-1" d="M275.06,92.03c-2,8.6-1.8,17.6.6,27.8l-3.2,1c-5.2-19.6-12-27.4-25.6-27.4-10.2,0-17.4,5.6-17.4,15.8,0,6.8,4,12.2,15.8,16.4l8.2,2.8c15.4,5.6,23.6,13.8,23.6,27.8,0,16.8-12.4,28.8-35.2,28.8-10.8,0-22.4-2.6-30-5.6,1.6-8.4,1.4-17-.8-27l3.8-.6c3.4,18.2,12.4,27.8,27.6,27.8,10,0,17.6-5.6,17.6-15.4,0-8.8-4.8-14.6-16.4-18.4l-8.8-3c-11.6-3.8-21.8-11.4-21.8-26.4,0-16.8,13.8-28,34.8-28,8,0,16.6,1.4,27.2,3.6Z"/>
    <path class="cls-1" d="M287.06,108.03v-3.8c16-.8,25.6-5.8,31-16l2.8.6v18.4c6.8-11.4,17.6-19,30.6-19,25.2,0,36.2,20.4,36.2,45.6,0,30.6-16.2,51.2-44,51.2-8,0-15.6-1.8-22.8-4.4v25.6c0,9,4.6,11,19.2,11.8v3.8h-53v-3.8c10.2-.8,15-2.8,15-11.8v-81.4c0-11.6-4.2-16-15-16.8ZM368.06,139.03c0-20.8-6.8-38.2-25.4-38.2-11,0-18.6,6.8-21.8,13.8v43.8c1.2,13.4,11.6,22,22,22,18.6,0,25.2-20,25.2-41.4Z"/>
    <path class="cls-1" d="M443.26,185.03c-28,0-44-20.8-44-48.8s17.4-47.8,43.6-47.8c20.6,0,35.8,11.4,36.8,38.4h-61.6c.2,26.6,12.8,43.8,33.8,43.8,10.6,0,20.4-5,26-16.2l3.4,1.6c-5,15.2-17,29-38,29ZM418.26,121.63h39.8c1-16.8-5.6-28.6-17.4-28.6-14.2,0-21.4,11.6-22.4,28.6Z"/>
    <path class="cls-1" d="M489.26,108.03v-3.8c16-.8,25.4-5.6,30.8-16l3,.6v18.2c8-10,19-18.8,33-18.8,18.8,0,26.6,12.4,26.6,30.8v47.2c0,9,4.6,11,14.8,11.8v3.8h-48.4v-3.8c10-.8,14.6-2.8,14.6-11.8v-41.8c0-14.4-4.8-23.6-18.2-23.6-8.6,0-16.6,5.2-22.4,12.2v53.2c0,9,4.6,11,14.6,11.8v3.8h-48.4v-3.8c10.2-.8,15-2.8,15-11.8v-41.4c0-11.6-4.2-16-15-16.8Z"/>
  </g>
  <g>
    <path class="cls-1" d="M373.35,298.19v1.4c-2.2,9.6-2,22.4.4,34l-2.8.4c-3.2-25.8-14.8-38.4-35-38.4-19,0-30,9.8-30,26s8.4,23.6,25.6,29.2l13.4,4.4c21.8,7,32.4,20,32.4,38.8,0,23.8-17.2,36-39.8,36-13.4,0-26.6-3.2-36.6-6l-1.2-1.4c-.2-12.4-1.8-25-4.2-36.2l2.6-.2c7.4,25.6,16.6,40.2,39.8,40.2,17,0,29.8-10.2,29.8-29.8,0-15.6-7.6-26.2-26.8-32.2l-15.4-4.8c-19.2-6.2-28.6-18.8-28.6-34.6,0-22.4,17-33,39.6-33,11,0,24.8,1.8,36.8,6.2Z"/>
    <path class="cls-1" d="M385.68,349.58v-2.8c11.8-.2,20-3.6,23.6-13l2.2.2v18.2c7.8-10.4,19.6-18.4,30.6-18.4,21.2,0,29,15.4,29,34.8v43.4c0,9,4.6,11,15.4,11.8v3h-41.2v-3c11-.8,15.6-2.8,15.6-11.8v-42c0-17-4.8-28.4-21.2-28.4-10.8,0-20.2,5.4-28.2,15.8v54.6c0,9,4.6,11,15.6,11.8v3h-41.2v-3c10.8-.8,15.4-2.8,15.4-11.8v-47.2c0-10.4-4-14.6-15.6-15.2Z"/>
    <path class="cls-1" d="M491.35,382.18c0-27.4,15.8-48,44-48s44,20.6,44,48-16,47.8-44,47.8-44-20.4-44-47.8ZM568.95,382.18c0-26.4-10.6-44.2-33.6-44.2s-33.8,17.8-33.8,44.2,10.6,44.2,33.8,44.2,33.6-17.8,33.6-44.2Z"/>
    <path class="cls-1" d="M634.05,340.19v-3.2h33.8v3.2c-11.8,1.4-13,8.6-8.8,19l21,51.2,21-53c3.6-9,3.2-15.6-11-17.2v-3.2h29.6v3.2c-6,1.4-8.2,3.6-11.6,12l-30.4,74.6h-1.6l-26.4-63.8-25.4,63.8h-1.8l-29.2-71c-5.4-13.4-7.2-14.8-12.8-15.6v-3.2h34v3.2c-10.6,1.4-14.4,6-9,19.4l20.8,51.2,21-53.6-2.2-5.4c-3.4-8.2-4.8-9.4-11-11.6Z"/>
    <path class="cls-1" d="M719.43,293.19v-2.6c12.2-.4,20.2-3.8,23.8-13.2l2,.4v77.2c6.6-12.4,18.8-21.2,33.6-21.2,25.6,0,37,21.4,37,46.2,0,26.4-15.2,50-43,50-13,0-26-3.4-37.6-7.8v-113.8c0-10.4-4-14.6-15.8-15.2ZM745.23,360.19v36c-.2,20.8,12.6,31,27.2,31,25,0,33.6-21.2,33.6-44,0-21.4-8-40.6-31-40.6-12.4,0-23.4,6.8-29.8,17.6Z"/>
    <path class="cls-1" d="M824.97,349.58v-2.8c14.4-.2,20.4-5,23.6-13h2.2v78.2c0,9,4.6,11,15.4,11.8v3h-41v-3c10.8-.8,15.4-2.8,15.4-11.8v-47.6c0-11.2-5.4-14.2-15.6-14.8ZM834.37,310.39c0-6.2,3.4-9.4,9.2-9.4s9.2,3.2,9.2,9.4-3.2,9.4-9.2,9.4-9.2-3.2-9.2-9.4Z"/>
    <path class="cls-1" d="M875.91,349.58v-2.8c11.8-.2,20-3.6,23.6-13l2.2.2v27.2c1-5,2-8.2,4.2-11.6,3.8-6,12-15.8,29.2-15.8v13.8c-4.6-1.4-8.2-1.8-12-1.8-14.6,0-21.4,14.8-21.4,29v37.6c0,8.8,5.4,11.2,21.2,11.8v2.6h-46.8v-2.6c10.8-.8,15.4-2.8,15.4-11.8v-47.6c0-10.4-4-14.6-15.6-15.2Z"/>
    <path class="cls-1" d="M996.17,293.19v-2.6c12.2-.4,20-3.8,23.6-13.2l2,.4v132c0,11.8,5,15,18.6,12.6l.4,3.2-27.6,4.6-1.4-21.6c-4.8,11.4-15.2,21.4-32.8,21.4-24,0-37.6-18.2-37.6-44.8s13.6-51.4,43.2-51.4c9,0,17.4,2,27.2,8.6v-34c0-10.4-4-14.6-15.6-15.2ZM1011.77,403.58v-38.6c-2-18.4-12.4-28.4-28.2-28.4-22.4,0-32.6,19.8-32.6,41.4,0,24.8,9.4,43.4,32,43.4,15.8,0,25-9.4,28.8-17.8Z"/>
  </g>
  <g>
    <path class="cls-1" d="M617.51,545.47v-5.8h62.6c31.2,0,56.8,6.2,56.8,33.2s-25.6,33.4-56.8,33.2l-14.4-.2v45.8c0,8.4,3.4,13.6,24.6,13.8v5.8h-72.8v-6c15.2-.8,18-5.2,18-13.6v-92.2c0-11-6-12.8-18-14ZM676.71,600.27c20-.6,27-11.8,27-27.4s-7-26.6-27-27.4l-11-.4v55.6l11-.4Z"/>
    <path class="cls-1" d="M807.63,673.46c-11.8,0-18.8-7-20.6-15-4.2,7.8-12.8,16-27.4,16s-24-8.2-24-21.2c0-19.4,17.8-29.8,51.2-36.4v-3c0-12.6-4.6-19.8-16.6-19.8-10.8,0-19.6,5.2-28.6,16.8l-5.6-4.2c13.2-20,27.4-30.6,46.2-30.6,23,0,34,13,34,34.6v37.8c0,5,.8,8,4.4,8,2.8,0,5-2.6,7-14.2l5.2,1.4c-3.2,22.2-12.2,29.8-25.2,29.8ZM786.83,640.07v-14.6c-7.8,1.6-17.8,8-17.8,19.8,0,5.6,2.8,10,8,10,7.2,0,9.8-7.6,9.8-15.2Z"/>
    <path class="cls-1" d="M835.47,596.47v-6c19-.6,30.2-5.2,37.6-14.4l5,1v34.8c1-4.2,2.2-8.2,4.6-14,5.2-12.4,11.6-21.8,27.8-21.8v30.6c-3.6-.8-7.6-1.6-11.8-1.6-14.8,0-20.6,13.2-20.6,28.6v19.8c0,8.8,5.4,11.2,19,11.8v6h-61.6v-6c8.6-.8,13.2-2.8,13.2-11.8v-39.8c0-10.8-3.6-15.2-13.2-17.2Z"/>
    <path class="cls-1" d="M987.27,673.46c-11.8,0-18.8-7-20.6-15-4.2,7.8-12.8,16-27.4,16s-24-8.2-24-21.2c0-19.4,17.8-29.8,51.2-36.4v-3c0-12.6-4.6-19.8-16.6-19.8-10.8,0-19.6,5.2-28.6,16.8l-5.6-4.2c13.2-20,27.4-30.6,46.2-30.6,23,0,34,13,34,34.6v37.8c0,5,.8,8,4.4,8,2.8,0,5-2.6,7-14.2l5.2,1.4c-3.2,22.2-12.2,29.8-25.2,29.8ZM966.47,640.07v-14.6c-7.8,1.6-17.8,8-17.8,19.8,0,5.6,2.8,10,8,10,7.2,0,9.8-7.6,9.8-15.2Z"/>
    <path class="cls-1" d="M1014.65,541.67v-6c19-.6,30.2-5.2,37.6-14.4l5,1v131.2c0,9,4.6,11,13.2,11.8v6h-55.8v-6c8.6-.8,13.2-2.8,13.2-11.8v-94.6c0-10.8-3.6-15.2-13.2-17.2Z"/>
    <path class="cls-1" d="M1074.12,541.67v-6c19-.6,30.2-5.2,37.6-14.4l5,1v131.2c0,9,4.6,11,13.2,11.8v6h-55.8v-6c8.6-.8,13.2-2.8,13.2-11.8v-94.6c0-10.8-3.6-15.2-13.2-17.2Z"/>
    <path class="cls-1" d="M1176.22,674.46c-29.6,0-45.6-20.8-45.6-50.6,0-27.6,16.4-47.8,45.6-47.8,26.4,0,38.2,15.4,40.4,41.4h-56.2c.4,20.2,9.6,37.4,29.8,37.4,12.2,0,18.8-6.2,23.4-18l5.6,2c-4.8,20.6-18.8,35.6-43,35.6ZM1160.42,610.87h26.4c0-20.6-4-28.8-12.6-28.8s-13.8,8.2-13.8,28.8Z"/>
    <path class="cls-1" d="M1219.3,541.67v-6c19-.6,30.2-5.2,37.6-14.4l5,1v131.2c0,9,4.6,11,13.2,11.8v6h-55.8v-6c8.6-.8,13.2-2.8,13.2-11.8v-94.6c0-10.8-3.6-15.2-13.2-17.2Z"/>
  </g>
</svg>