<?xml version="1.0" encoding="UTF-8"?>
<svg id="Layer_1" data-name="Layer 1" xmlns="http://www.w3.org/2000/svg" viewBox="0 0 1366 768">
  <defs>
    <style>
      .cls-1 {
        stroke-dasharray: 1.01 15.18;
      }

      .cls-1, .cls-2, .cls-3 {
        fill: none;
        stroke: #00d800;
        stroke-linecap: round;
        stroke-linejoin: round;
        stroke-width: 5px;
      }

      .cls-2 {
        stroke-dasharray: 1 14.97;
      }

      .cls-4 {
        fill: #00d800;
      }

      .cls-5 {
        stroke: #000;
        stroke-miterlimit: 10;
        stroke-width: 3px;
      }
    </style>
  </defs>
  <g>
    <path class="cls-4" d="M-64.73,418.57c-19.55,0-28.34-12.06-19.44-29.98l20.49-41.45-8.9-2.11v-4.22h30.68v4.22l-11.48,2.11-20.96,42.62c-7.14,14.4-.47,21.66,13.11,21.66,14.29,0,18.97-8.43,24.83-20.84l20.72-43.44-10.3-2.11v-4.22H.14v4.22c-7.03.58-9.84,2.22-12.76,8.31l-17.8,37.24c-6.91,14.52-13.7,27.99-34.31,27.99Z"/>
    <path class="cls-4" d="M15.87,370.79l6.09,7.14c4.68,5.5,8.78,11.24,8.78,19.2,0,9.72-6.44,21.43-25.41,21.43-9.6,0-16.98-2.93-21.78-6.32v-22.83h4.1c.23,2.11.47,5.97,1.29,9.6,2.46,10.66,9.25,14.4,16.86,14.4,9.6,0,14.99-6.67,14.99-14.99,0-5.62-2.93-9.72-7.14-14.64l-6.44-7.49c-3.51-4.1-6.79-9.72-6.79-16.16,0-13.23,9.48-20.49,23.19-20.49,7.03,0,14.64,1.17,20.49,3.75v23.07h-4.1c-.47-14.99-6.09-21.66-16.28-21.66-8.43,0-14.05,4.57-14.05,13,0,5.15,2.81,9.02,6.21,13Z"/>
    <path class="cls-4" d="M87.69,365.64h4.68v25.41h-4.68c0-7.49-2.58-10.07-9.02-10.07h-11.36l-14.4,29.04,14.29,1.17c2.11.12,3.98.47,5.62.47,11.12,0,15.81-6.79,22.25-17.92l4.45,1.76-10.77,21.9H31.72v-4.22c9.6-1.52,10.89-3.4,14.87-11.36l27.05-54.68-8.9-2.11v-4.22h50v23.42h-4.68c.12-11.36-2.93-16.98-15.69-17.45l-9.95-.35-14.4,29.16h8.66c6.44,0,9.02-2.46,9.02-9.95Z"/>
  </g>
  <g>
    <path class="cls-4" d="M20.61,70.73v3.63l-10.07,2.46-31.26,64.05,8.55,2.22v4.22h-30.09v-4.22c9.49-.82,11.83-3.75,15.69-11.71L-1.29,79.51l-62.53,67.8h-5.62l5.04-65.46-29.04,59.6,10.07,1.64v4.22h-27.17v-4.22c7.49-.82,11.36-2.46,14.99-9.84l27.28-56.09-9.48-2.34v-4.1h24.36l-4.8,62.65L-.47,70.73h21.08Z"/>
    <path class="cls-4" d="M35.38,148.48c-19.55,0-28.34-12.06-19.44-29.98l20.49-41.45-8.9-2.11v-4.22h30.68v4.22l-11.48,2.11-20.96,42.62c-7.14,14.4-.47,21.66,13.11,21.66,14.29,0,18.97-8.43,24.83-20.84l20.73-43.44-10.3-2.11v-4.22h26.11v4.22c-7.03.58-9.84,2.22-12.76,8.31l-17.8,37.24c-6.91,14.52-13.7,27.99-34.31,27.99Z"/>
    <path class="cls-4" d="M115.98,100.71l6.09,7.14c4.68,5.5,8.78,11.24,8.78,19.2,0,9.72-6.44,21.43-25.41,21.43-9.6,0-16.98-2.93-21.78-6.32v-22.83h4.1c.23,2.11.47,5.97,1.29,9.6,2.46,10.66,9.25,14.4,16.86,14.4,9.6,0,14.99-6.67,14.99-14.99,0-5.62-2.93-9.72-7.14-14.64l-6.44-7.49c-3.51-4.1-6.79-9.72-6.79-16.16,0-13.23,9.48-20.49,23.18-20.49,7.03,0,14.64,1.17,20.49,3.75v23.07h-4.1c-.47-14.99-6.09-21.66-16.28-21.66-8.43,0-14.05,4.57-14.05,13,0,5.15,2.81,9.02,6.21,13Z"/>
    <path class="cls-4" d="M187.8,95.56h4.68v25.41h-4.68c0-7.49-2.58-10.07-9.02-10.07h-11.36l-14.4,29.04,14.29,1.17c2.11.12,3.98.47,5.62.47,11.12,0,15.81-6.79,22.25-17.92l4.45,1.76-10.77,21.9h-57.03v-4.22c9.6-1.52,10.89-3.4,14.87-11.36l27.05-54.68-8.9-2.11v-4.22h50v23.42h-4.68c.12-11.36-2.93-16.98-15.69-17.45l-9.95-.35-14.4,29.16h8.67c6.44,0,9.02-2.46,9.02-9.95Z"/>
  </g>
  <rect class="cls-5" x="-10" y="-10" width="1386" height="788"/>
  <g>
    <path class="cls-4" d="M998.6,227.71c25.2,0,40.8,12,40.8,33,0,58.8-81,124.2-81,163.8,0,8.4,3.6,12.6,10.8,12.6,13.8,0,31.8-20.4,48.6-51l7.8,4.2c-16.8,33-48,87-87,87-16.2,0-29.4-10.8-29.4-30.6,0-46.8,79.8-121.8,79.8-160.2,0-10.2-6-16.2-19.2-16.2-47.4,0-105.6,100.2-117,121.2-24,43.8-34.8,67.2-39,82.2h-51l180-336c5.4-10.2,15-28.8,15-36,0-7.8-.6-12-22.8-25.8l2.4-7.2,90.6-24.6,6,4.2-32.4,60.6c-36.6,67.8-60,108.6-87,156.6-25.8,45.6-39.6,70.2-48,82.2h4.2c43.8-64.2,82.2-120,127.8-120Z"/>
    <path class="cls-4" d="M1128.2,267.91c-13.2,0-32.4,15.6-60,51.6l-7.2-6c38.4-51.6,65.4-85.8,96.6-85.8,22.8,0,27.6,17.4,29.4,43.8,2.4,30.6-.6,118.8-12,174,33.6-43.8,87.6-106.2,87.6-164.4,0-19.2-7.2-27.6-19.8-31.8,10.8-10.8,21.6-18,36-18,16.8,0,27.6,12,27.6,30.6,0,75.6-203.4,327.6-342,327.6-24.6,0-42.6-12-42.6-33.6,0-23.4,20.4-37.8,45-37.8-5.4,23.4,4.2,36.6,28.8,36.6,57.6,0,115.8-51.6,141-75.6,9.6-72,9.6-155.4,4.2-193.8-1.8-10.8-3.6-17.4-12.6-17.4Z"/>
  </g>
  <g>
    <path class="cls-4" d="M63.55,670.25v.98h-5.72v-8.1h1.17v7.13h4.55Z"/>
    <path class="cls-4" d="M71.04,670.29v.94h-5.35v-.94h2.09v-6.22h-2.09v-.94h5.35v.94h-2.09v6.22h2.09Z"/>
    <path class="cls-4" d="M72.71,667.18c0-2.65,1.03-4.23,3.39-4.23,2.04,0,2.86,1.08,3.14,2.59l-1.15.11c-.25-1.18-.94-1.72-2.01-1.72-1.55,0-2.17,1.14-2.17,3.25s.63,3.28,2.13,3.28,2.08-.97,2.23-2.5h-2.01v-.83h3.06v4.1h-.9l-.13-1.47h-.11c-.27.75-.85,1.64-2.41,1.64-2.07,0-3.07-1.62-3.07-4.22Z"/>
    <path class="cls-4" d="M81.47,663.13h1.17v3.48h3.44v-3.48h1.18v8.1h-1.18v-3.64h-3.44v3.64h-1.17v-8.1Z"/>
    <path class="cls-4" d="M91.94,664.1h-2.86v-.98h6.89v.98h-2.86v7.13h-1.18v-7.13Z"/>
  </g>
  <g>
    <path class="cls-4" d="M308.43,667.32v3.27h-1.17v-8.1h3.46c1.77,0,2.61.8,2.61,2.43,0,1.51-.8,2.29-2.32,2.35l2.4,3.32h-1.32l-2.37-3.27h-1.29ZM308.43,663.4v3.05h2.01c1.24,0,1.76-.42,1.76-1.52s-.47-1.53-1.74-1.53h-2.04Z"/>
    <path class="cls-4" d="M316.63,663.44v2.58h3.86v.9h-3.86v2.71h4.63v.96h-5.78v-8.1h5.78v.96h-4.63Z"/>
    <path class="cls-4" d="M322.71,666.54c0-2.65,1.03-4.23,3.39-4.23,2.04,0,2.86,1.08,3.14,2.59l-1.15.11c-.25-1.18-.94-1.72-2.01-1.72-1.55,0-2.17,1.14-2.17,3.25s.63,3.28,2.13,3.28,2.08-.97,2.23-2.5h-2.01v-.83h3.06v4.1h-.9l-.13-1.47h-.11c-.27.75-.84,1.64-2.41,1.64-2.07,0-3.07-1.62-3.07-4.22Z"/>
    <path class="cls-4" d="M331.34,667.54v-5.06h1.18v5c0,1.71.56,2.29,1.83,2.29s1.85-.59,1.85-2.29v-5h1.17v5.06c0,2.19-.98,3.22-3.02,3.22s-3-1.03-3-3.22Z"/>
    <path class="cls-4" d="M345.52,669.61v.98h-5.72v-8.1h1.17v7.13h4.55Z"/>
    <path class="cls-4" d="M352.32,668.83h-3.33l-.52,1.76h-1.17l2.63-8.1h1.55l2.62,8.1h-1.22l-.56-1.76ZM352.05,667.94l-1.32-4.47h-.1l-1.37,4.47h2.78Z"/>
    <path class="cls-4" d="M357.12,667.32v3.27h-1.17v-8.1h3.46c1.77,0,2.61.8,2.61,2.43,0,1.51-.8,2.29-2.32,2.35l2.4,3.32h-1.32l-2.37-3.27h-1.29ZM357.12,663.4v3.05h2.01c1.24,0,1.76-.42,1.76-1.52s-.47-1.53-1.74-1.53h-2.04Z"/>
  </g>
  <g>
    <path class="cls-4" d="M583.51,668.24c0,1.35-.94,2.12-2.81,2.12h-3.26v-8.1h3.23c1.86,0,2.64.79,2.64,2.09,0,1.07-.48,1.7-1.4,1.88v.11c.92.17,1.6.66,1.6,1.89ZM578.58,665.88h2.03c1.09,0,1.56-.5,1.56-1.37s-.47-1.35-1.56-1.35h-2.03v2.72ZM580.65,669.46c1.15,0,1.73-.41,1.73-1.36s-.58-1.35-1.73-1.35h-2.07v2.71h2.07Z"/>
    <path class="cls-4" d="M585.21,666.31c0-2.7,1.03-4.22,3.3-4.22s3.3,1.52,3.3,4.22-1.03,4.22-3.3,4.22-3.3-1.52-3.3-4.22ZM590.62,666.31c0-2.1-.6-3.25-2.11-3.25s-2.09,1.15-2.09,3.25.58,3.25,2.08,3.25,2.12-1.15,2.12-3.25Z"/>
    <path class="cls-4" d="M599.7,669.39v.98h-5.72v-8.1h1.17v7.13h4.55Z"/>
    <path class="cls-4" d="M607.9,666.33c0,2.79-1.19,4.04-3.63,4.04h-2.53v-8.1h2.64c2.32,0,3.52,1.22,3.52,4.07ZM606.69,666.33c0-2.36-.82-3.11-2.35-3.11h-1.43v6.19h1.43c1.54,0,2.35-.75,2.35-3.08Z"/>
  </g>
  <path class="cls-4" d="M456.78,716.46c-13.04,0-22.5-8.83-22.5-21.45,0-11.78,6.1-19.77,23.55-23.55,5.89-1.26,13.46-2.52,23.34-4v-16.19c0-10.31-7.78-14.3-15.98-14.3-5.47,0-8.2.84-11.15,1.89l-5.47,18.72h-5.47c-3.15-6.1-4.63-11.15-4.84-18.09,9.67-5.89,19.98-13.88,33.86-13.88s25.87,11.36,25.87,24.82c0,9.25-.42,27.97-.42,37.01,0,9.88,1.26,14.93,10.09,14.93,1.26,0,2.73-.21,4.42-.42l.63,6.94-27.97,5.47-3.58-12.41c-4.42,8.62-13.04,14.51-24.4,14.51ZM480.96,674.18c-6.1,1.05-11.36,2.31-17.04,3.79-7.57,1.89-12.83,6.94-12.83,13.67,0,7.99,4.84,12.41,12.83,12.41,6.31,0,14.3-3.58,16.82-9.25l.21-20.61Z"/>
  <path class="cls-4" d="M215.78,702.02c-4.82,6.71-11.32,13.41-23.26,13.41-13.41,0-21.37-8.8-21.37-20.33s7.75-20.96,24.31-24.1l20.33-3.77v-15.72c0-13.62-7.75-18.23-15.92-18.23-3.35,0-7.54.84-10.48,1.89l-6.29,19.91h-3.56c-2.51-5.66-3.35-9.85-3.56-16.76,7.33-5.45,20.95-12.36,30.59-12.36,14.88,0,22.63,10.69,22.63,24.73,0,9.22-.84,34.37-.84,43.38s2.31,12.78,14.04,12.78v2.72l-21.16,5.87c-3.77-4.61-5.03-9.01-5.45-13.41ZM215.78,698.45v-27.24l-12.15,3.35c-10.9,3.14-17.81,8.8-17.81,18.44,0,7.96,4.61,13.83,13.83,13.83,7.12,0,12.78-3.56,16.13-8.38Z"/>
  <g>
    <path class="cls-4" d="M792.52,667.05v3.27h-1.17v-8.1h3.46c1.77,0,2.61.8,2.61,2.43,0,1.51-.8,2.29-2.32,2.35l2.4,3.32h-1.32l-2.37-3.27h-1.29ZM792.52,663.13v3.05h2.01c1.24,0,1.76-.42,1.76-1.52s-.47-1.53-1.74-1.53h-2.04Z"/>
    <path class="cls-4" d="M800.71,663.18v2.58h3.86v.9h-3.86v2.71h4.63v.96h-5.78v-8.1h5.78v.96h-4.63Z"/>
    <path class="cls-4" d="M806.8,666.27c0-2.65,1.03-4.23,3.39-4.23,2.04,0,2.86,1.08,3.14,2.59l-1.15.11c-.25-1.18-.94-1.72-2.01-1.72-1.55,0-2.17,1.14-2.17,3.25s.63,3.28,2.13,3.28,2.08-.97,2.23-2.5h-2.01v-.83h3.06v4.1h-.9l-.13-1.47h-.11c-.27.75-.84,1.64-2.41,1.64-2.07,0-3.07-1.62-3.07-4.22Z"/>
    <path class="cls-4" d="M815.43,667.27v-5.06h1.18v5c0,1.71.56,2.29,1.83,2.29s1.85-.59,1.85-2.29v-5h1.17v5.06c0,2.19-.98,3.22-3.02,3.22s-3-1.03-3-3.22Z"/>
    <path class="cls-4" d="M829.6,669.35v.98h-5.72v-8.1h1.17v7.13h4.55Z"/>
    <path class="cls-4" d="M836.4,668.56h-3.33l-.52,1.76h-1.17l2.63-8.1h1.55l2.62,8.1h-1.22l-.56-1.76ZM836.13,667.67l-1.32-4.47h-.1l-1.37,4.47h2.78Z"/>
    <path class="cls-4" d="M841.21,667.05v3.27h-1.17v-8.1h3.46c1.77,0,2.61.8,2.61,2.43,0,1.51-.8,2.29-2.32,2.35l2.4,3.32h-1.32l-2.37-3.27h-1.29ZM841.21,663.13v3.05h2.01c1.24,0,1.76-.42,1.76-1.52s-.47-1.53-1.74-1.53h-2.04Z"/>
    <path class="cls-4" d="M862.21,669.38v.94h-5.35v-.94h2.09v-6.22h-2.09v-.94h5.35v.94h-2.09v6.22h2.09Z"/>
    <path class="cls-4" d="M867,663.19h-2.86v-.98h6.89v.98h-2.86v7.13h-1.18v-7.13Z"/>
    <path class="cls-4" d="M876.5,668.56h-3.33l-.52,1.76h-1.17l2.63-8.1h1.55l2.62,8.1h-1.22l-.56-1.76ZM876.24,667.67l-1.32-4.47h-.1l-1.37,4.47h2.78Z"/>
    <path class="cls-4" d="M885.97,669.35v.98h-5.72v-8.1h1.17v7.13h4.55Z"/>
    <path class="cls-4" d="M893.46,669.38v.94h-5.35v-.94h2.09v-6.22h-2.09v-.94h5.35v.94h-2.09v6.22h2.09Z"/>
    <path class="cls-4" d="M895.14,666.27c0-2.65,1.1-4.23,3.4-4.23,2.01,0,2.89,1.01,3.16,2.77l-1.13.11c-.26-1.31-.77-1.89-2.06-1.89-1.51,0-2.16,1.15-2.16,3.24s.66,3.23,2.17,3.23c1.26,0,1.83-.61,2.06-1.89l1.13.11c-.26,1.77-1.21,2.77-3.21,2.77-2.27,0-3.36-1.58-3.36-4.22Z"/>
  </g>
  <g>
    <path class="cls-4" d="M1057.45,662.22h1.18v3.48h3.44v-3.48h1.18v8.1h-1.18v-3.64h-3.44v3.64h-1.18v-8.1Z"/>
    <path class="cls-4" d="M1068.03,667.39l-3.06-5.17h1.28l2.4,4.01h.09l2.35-4.01h1.16l-3.06,5.14v2.97h-1.16v-2.93Z"/>
    <path class="cls-4" d="M1075.15,667.6v2.72h-1.18v-8.1h3.2c1.9,0,2.86.82,2.86,2.57v.15c0,1.83-1,2.67-2.83,2.67h-2.05ZM1075.15,663.14v3.55h1.84c1.39,0,1.88-.55,1.88-1.77v-.11c0-1.19-.51-1.67-1.94-1.67h-1.78Z"/>
    <path class="cls-4" d="M1083.27,663.18v2.58h3.86v.9h-3.86v2.71h4.63v.96h-5.78v-8.1h5.78v.96h-4.63Z"/>
    <path class="cls-4" d="M1091.07,667.05v3.27h-1.17v-8.1h3.46c1.77,0,2.61.8,2.61,2.43,0,1.51-.8,2.29-2.32,2.35l2.4,3.32h-1.32l-2.37-3.27h-1.29ZM1091.07,663.13v3.05h2.01c1.24,0,1.76-.42,1.76-1.52s-.47-1.53-1.74-1.53h-2.04Z"/>
    <path class="cls-4" d="M1112.07,669.38v.94h-5.35v-.94h2.09v-6.22h-2.09v-.94h5.35v.94h-2.09v6.22h2.09Z"/>
    <path class="cls-4" d="M1116.87,663.19h-2.86v-.98h6.89v.98h-2.86v7.13h-1.18v-7.13Z"/>
    <path class="cls-4" d="M1126.37,668.56h-3.33l-.52,1.76h-1.17l2.63-8.1h1.55l2.62,8.1h-1.22l-.56-1.76ZM1126.1,667.67l-1.32-4.47h-.1l-1.37,4.47h2.78Z"/>
    <path class="cls-4" d="M1135.83,669.35v.98h-5.72v-8.1h1.17v7.13h4.55Z"/>
    <path class="cls-4" d="M1143.33,669.38v.94h-5.35v-.94h2.09v-6.22h-2.09v-.94h5.35v.94h-2.09v6.22h2.09Z"/>
    <path class="cls-4" d="M1145.01,666.27c0-2.65,1.1-4.23,3.4-4.23,2.01,0,2.89,1.01,3.16,2.77l-1.13.11c-.26-1.31-.77-1.89-2.06-1.89-1.51,0-2.16,1.15-2.16,3.24s.66,3.23,2.17,3.23c1.26,0,1.83-.61,2.06-1.89l1.13.11c-.26,1.77-1.21,2.77-3.21,2.77-2.27,0-3.36-1.58-3.36-4.22Z"/>
  </g>
  <path class="cls-4" d="M1005.23,699.77c4.63,0,8.83-4.63,11.78-8.83l3.15,1.68c-2.1,7.99-15.98,21.03-25.03,21.03-7.57,0-9.67-5.47-9.67-13.04,0-6.52,3.15-15.77,6.52-26.92h-1.05c-7.36,12.83-18.93,39.54-35.96,39.54-12.2,0-15.98-10.31-16.19-23.98-.42-27.97,16.4-63.09,45.43-63.09,7.99,0,15.56,2.1,20.19,4.42,0,0,5.47-4.42,8.2-4.42,1.68,0,3.79,1.47,3.79,3.15-8.41,17.67-14.09,50.47-14.09,65.41,0,2.52.42,5.05,2.94,5.05ZM979.57,634.57c-18.72,0-25.45,33.02-25.87,48.37-.21,7.99,1.89,17.88,7.78,17.88,11.57,0,33.65-45.43,34.28-59.1-2.52-3.58-10.31-7.15-16.19-7.15Z"/>
  <path class="cls-4" d="M1249.87,699.71c4.32,0,10.68-7.15,16.58-15.56l3.18,1.05c-8.63,15.35-21.35,28.6-33.39,28.6-5.91,0-9.31-3.15-9.31-8.41s2.95-10.31,7.27-16.61l11.58-17.04h-1.59c-9.31,12.83-29.98,41.64-47.24,41.64-8.18,0-12.49-4.84-12.49-12.2,0-29.02,40.88-74.87,72.23-74.87,8.4,0,16.13,2.1,20.21,4.42,4.09-2.31,7.95-4.42,10.45-4.42,1.59,0,3.63,1.47,2.95,3.15-14.99,16.4-43.61,56.36-43.61,67.3,0,1.89,1.14,2.94,3.18,2.94ZM1249.64,634.72c-20.9,0-47.02,39.75-47.02,58.05,0,4.42,2.5,6.1,5.68,6.1s7.95-2.52,12.49-6.73c12.95-11.99,32.03-35.12,44.29-53-3.63-2.73-9.54-4.42-15.45-4.42Z"/>
  <g>
    <path class="cls-4" d="M251.04,119.74h1.82l1.74,5.34h.13l1.75-5.34h1.83v9.47h-1.25v-4.37l.13-3.57h-.13l-1.82,5.38h-1.16l-1.81-5.38h-.13l.15,3.57v4.37h-1.25v-9.47Z"/>
    <path class="cls-4" d="M267.02,128.11v1.1h-6.27v-1.1h2.45v-7.27h-2.45v-1.1h6.27v1.1h-2.45v7.27h2.45Z"/>
    <path class="cls-4" d="M276.41,128.07v1.14h-6.7v-9.47h1.37v8.33h5.33Z"/>
    <path class="cls-4" d="M284.35,127.15h-3.9l-.61,2.06h-1.37l3.08-9.47h1.82l3.07,9.47h-1.43l-.66-2.06ZM284.04,126.11l-1.54-5.23h-.11l-1.6,5.23h3.26Z"/>
    <path class="cls-4" d="M305,128.11v1.1h-6.27v-1.1h2.45v-7.27h-2.45v-1.1h6.27v1.1h-2.45v7.27h2.45Z"/>
    <path class="cls-4" d="M310.58,120.88h-3.35v-1.14h8.07v1.14h-3.35v8.33h-1.38v-8.33Z"/>
    <path class="cls-4" d="M321.68,127.15h-3.9l-.61,2.06h-1.37l3.08-9.47h1.82l3.07,9.47h-1.43l-.66-2.06ZM321.37,126.11l-1.54-5.23h-.11l-1.6,5.23h3.26Z"/>
    <path class="cls-4" d="M332.73,128.07v1.14h-6.7v-9.47h1.37v8.33h5.33Z"/>
    <path class="cls-4" d="M341.48,128.11v1.1h-6.27v-1.1h2.45v-7.27h-2.45v-1.1h6.27v1.1h-2.45v7.27h2.45Z"/>
    <path class="cls-4" d="M343.42,124.48c0-3.1,1.28-4.94,3.98-4.94,2.35,0,3.38,1.18,3.7,3.23l-1.32.13c-.3-1.53-.9-2.21-2.41-2.21-1.77,0-2.53,1.34-2.53,3.79s.77,3.77,2.55,3.77c1.48,0,2.15-.71,2.41-2.21l1.32.13c-.3,2.07-1.42,3.24-3.76,3.24-2.65,0-3.94-1.85-3.94-4.93Z"/>
  </g>
  <g>
    <path class="cls-4" d="M758.04,119.74h1.82l1.74,5.34h.13l1.75-5.34h1.83v9.47h-1.25v-4.37l.13-3.57h-.13l-1.82,5.38h-1.16l-1.81-5.38h-.13l.15,3.57v4.37h-1.25v-9.47Z"/>
    <path class="cls-4" d="M774.02,128.11v1.1h-6.27v-1.1h2.45v-7.27h-2.45v-1.1h6.27v1.1h-2.45v7.27h2.45Z"/>
    <path class="cls-4" d="M783.41,128.07v1.14h-6.7v-9.47h1.37v8.33h5.33Z"/>
    <path class="cls-4" d="M791.35,127.15h-3.9l-.61,2.06h-1.37l3.08-9.47h1.82l3.07,9.47h-1.43l-.66-2.06ZM791.04,126.11l-1.54-5.23h-.11l-1.6,5.23h3.26Z"/>
    <path class="cls-4" d="M805.14,126.73l1.31-.13c.2,1.19.92,1.73,2.47,1.73s2.33-.59,2.33-1.61c0-.96-.57-1.29-1.76-1.53l-1.42-.29c-1.7-.34-2.58-1.15-2.58-2.65,0-1.69,1.25-2.71,3.54-2.71,2.11,0,3.29.87,3.53,2.67l-1.29.13c-.22-1.25-.9-1.72-2.27-1.72s-2.2.56-2.2,1.54c0,.88.49,1.33,1.68,1.57l1.38.27c1.79.35,2.73,1.04,2.73,2.61,0,1.75-1.34,2.8-3.7,2.8s-3.52-.92-3.74-2.68Z"/>
    <path class="cls-4" d="M814.87,125.65v-5.91h1.38v5.85c0,1.99.66,2.68,2.14,2.68s2.17-.69,2.17-2.68v-5.85h1.38v5.91c0,2.56-1.15,3.76-3.54,3.76s-3.52-1.2-3.52-3.76Z"/>
    <path class="cls-4" d="M826,126.03v3.17h-1.38v-9.47h3.74c2.23,0,3.35.96,3.35,3v.18c0,2.13-1.17,3.11-3.31,3.11h-2.4ZM826,120.81v4.15h2.15c1.63,0,2.21-.64,2.21-2.07v-.13c0-1.39-.59-1.95-2.27-1.95h-2.08Z"/>
    <path class="cls-4" d="M835.47,120.86v3.01h4.53v1.05h-4.53v3.16h5.42v1.12h-6.77v-9.47h6.77v1.12h-5.42Z"/>
    <path class="cls-4" d="M844.58,125.39v3.82h-1.37v-9.47h4.06c2.07,0,3.06.93,3.06,2.84,0,1.76-.94,2.68-2.72,2.75l2.81,3.88h-1.55l-2.77-3.82h-1.51ZM844.58,120.81v3.57h2.36c1.46,0,2.06-.49,2.06-1.78s-.55-1.79-2.03-1.79h-2.39Z"/>
    <path class="cls-4" d="M869.14,128.11v1.1h-6.27v-1.1h2.45v-7.27h-2.45v-1.1h6.27v1.1h-2.45v7.27h2.45Z"/>
    <path class="cls-4" d="M874.73,120.88h-3.35v-1.14h8.07v1.14h-3.35v8.33h-1.38v-8.33Z"/>
    <path class="cls-4" d="M885.82,127.15h-3.9l-.61,2.06h-1.37l3.08-9.47h1.82l3.07,9.47h-1.43l-.66-2.06ZM885.51,126.11l-1.54-5.23h-.11l-1.6,5.23h3.26Z"/>
    <path class="cls-4" d="M896.88,128.07v1.14h-6.7v-9.47h1.37v8.33h5.33Z"/>
    <path class="cls-4" d="M905.63,128.11v1.1h-6.27v-1.1h2.45v-7.27h-2.45v-1.1h6.27v1.1h-2.45v7.27h2.45Z"/>
    <path class="cls-4" d="M907.57,124.48c0-3.1,1.28-4.94,3.98-4.94,2.35,0,3.38,1.18,3.7,3.23l-1.32.13c-.3-1.53-.9-2.21-2.41-2.21-1.77,0-2.53,1.34-2.53,3.79s.77,3.77,2.55,3.77c1.48,0,2.15-.71,2.41-2.21l1.32.13c-.3,2.07-1.42,3.24-3.76,3.24-2.65,0-3.94-1.85-3.94-4.93Z"/>
  </g>
  <g>
    <path class="cls-4" d="M758.26,150.11l3.25-2.79c1.22-1.05,2.03-1.86,2.03-3.09,0-1.03-.58-1.62-1.78-1.62-1.42,0-1.99.83-2.14,2.28l-1.26-.13c.21-1.91,1.16-3.25,3.4-3.25,2.07,0,3.09,1.07,3.09,2.69s-1.08,2.75-2.51,3.86l-2.31,1.89v.09h4.92v1.14h-6.7v-1.07Z"/>
    <path class="cls-4" d="M766.94,146.94c0-3.86,1.28-5.42,3.7-5.42,1.86,0,2.87.96,3.11,2.21l-1.26.15c-.21-.73-.7-1.29-1.88-1.29-1.95,0-2.35,1.61-2.45,4.07h.1c.4-.87,1.3-1.54,2.63-1.54,1.8,0,3.04,1.07,3.04,3.01,0,2.07-1.26,3.25-3.39,3.25s-3.61-1.37-3.61-4.45ZM772.68,148.21c0-1.37-.75-2.11-2.07-2.11s-2.19.91-2.19,2.16c0,1.13.8,2.07,2.14,2.07s2.12-.75,2.12-2.12Z"/>
    <path class="cls-4" d="M776.31,144.14c0-1.65.91-2.57,2.47-2.57s2.47.93,2.47,2.57-.91,2.59-2.47,2.59-2.47-.94-2.47-2.59ZM780.13,144.14c0-1.12-.4-1.69-1.35-1.69s-1.35.57-1.35,1.69.4,1.7,1.35,1.7,1.35-.58,1.35-1.7Z"/>
  </g>
  <g>
    <path class="cls-4" d="M189.26,294.12l3.25-2.79c1.22-1.05,2.03-1.86,2.03-3.09,0-1.03-.58-1.62-1.78-1.62-1.42,0-1.99.83-2.14,2.28l-1.26-.13c.21-1.91,1.16-3.25,3.4-3.25,2.07,0,3.09,1.07,3.09,2.69s-1.08,2.75-2.51,3.86l-2.31,1.89v.09h4.92v1.14h-6.7v-1.07Z"/>
    <path class="cls-4" d="M197.95,290.94c0-3.86,1.28-5.42,3.7-5.42,1.86,0,2.87.96,3.11,2.21l-1.26.15c-.21-.73-.7-1.29-1.88-1.29-1.95,0-2.35,1.61-2.45,4.07h.1c.4-.87,1.3-1.54,2.63-1.54,1.8,0,3.04,1.07,3.04,3.01,0,2.07-1.26,3.25-3.39,3.25s-3.61-1.37-3.61-4.45ZM203.68,292.21c0-1.37-.75-2.11-2.07-2.11s-2.19.91-2.19,2.16c0,1.13.8,2.07,2.14,2.07s2.12-.75,2.12-2.12Z"/>
    <path class="cls-4" d="M207.31,288.14c0-1.65.91-2.57,2.47-2.57s2.47.93,2.47,2.57-.91,2.59-2.47,2.59-2.47-.94-2.47-2.59ZM211.13,288.14c0-1.12-.4-1.69-1.35-1.69s-1.35.57-1.35,1.69.4,1.7,1.35,1.7,1.35-.58,1.35-1.7Z"/>
  </g>
  <g>
    <path class="cls-4" d="M251.72,148.69c0-1.49,1.11-2.21,2.03-2.38v-.11c-.78-.19-1.67-.81-1.67-2.17,0-1.57,1.28-2.51,3.4-2.51s3.42.94,3.42,2.51c0,1.38-.93,1.99-1.69,2.17v.11c.94.17,2.03.93,2.03,2.38,0,1.71-1.42,2.72-3.76,2.72s-3.76-1.01-3.76-2.72ZM257.91,148.55c0-1.1-.84-1.76-2.43-1.76s-2.43.66-2.43,1.76c0,1.21.93,1.81,2.43,1.81s2.43-.6,2.43-1.81ZM257.58,144.2c0-1.14-.79-1.63-2.1-1.63s-2.1.49-2.1,1.63c0,.94.69,1.62,2.1,1.62s2.1-.68,2.1-1.62Z"/>
    <path class="cls-4" d="M261.43,144.14c0-1.65.91-2.57,2.47-2.57s2.47.93,2.47,2.57-.91,2.59-2.47,2.59-2.47-.94-2.47-2.59ZM265.25,144.14c0-1.12-.4-1.69-1.35-1.69s-1.35.57-1.35,1.69.4,1.7,1.35,1.7,1.35-.58,1.35-1.7Z"/>
  </g>
  <g>
    <path class="cls-4" d="M108.72,266.57c0-1.49,1.11-2.21,2.03-2.38v-.11c-.78-.19-1.67-.81-1.67-2.17,0-1.57,1.28-2.51,3.4-2.51s3.42.94,3.42,2.51c0,1.38-.93,1.99-1.69,2.17v.11c.94.17,2.03.93,2.03,2.38,0,1.71-1.42,2.72-3.76,2.72s-3.76-1.01-3.76-2.72ZM114.91,266.43c0-1.1-.84-1.76-2.43-1.76s-2.43.66-2.43,1.76c0,1.21.93,1.81,2.43,1.81s2.43-.6,2.43-1.81ZM114.58,262.08c0-1.14-.79-1.63-2.1-1.63s-2.1.49-2.1,1.63c0,.94.69,1.62,2.1,1.62s2.1-.68,2.1-1.62Z"/>
    <path class="cls-4" d="M118.43,262.02c0-1.65.91-2.57,2.47-2.57s2.47.93,2.47,2.57-.91,2.59-2.47,2.59-2.47-.94-2.47-2.59ZM122.25,262.02c0-1.12-.4-1.69-1.35-1.69s-1.35.57-1.35,1.69.4,1.7,1.35,1.7,1.35-.58,1.35-1.7Z"/>
  </g>
  <g>
    <path class="cls-4" d="M429.84,457.45c13.15,0,25.11-13.2,33.48-25.2l8.97,4.8c-5.98,22.8-45.44,60-71.14,60-21.52,0-27.5-15.6-27.5-37.2,0-18.6,8.97-45,18.53-76.8h-2.99c-20.92,36.6-53.81,112.8-102.23,112.8-34.68,0-45.44-29.4-46.04-68.4-1.2-79.8,46.63-180,129.14-180,22.72,0,44.24,6,57.39,12.6,0,0,15.54-12.6,23.32-12.6,4.78,0,10.76,4.2,10.76,9-23.91,50.4-40.06,144-40.06,186.6,0,7.2,1.2,14.4,8.37,14.4ZM356.91,271.45c-53.21,0-72.34,94.2-73.54,138-.6,22.8,5.38,51,22.12,51,32.88,0,95.66-129.6,97.45-168.6-7.17-10.2-29.29-20.4-46.03-20.4Z"/>
    <path class="cls-4" d="M642.68,523.45c-49.62,0-86.09-30-135.71-30-8.97,0-13.75,6.6-19.73,6.6-10.16,0-11.96-5.4-11.96-12.6,56.2-46.8,139.9-142.8,163.21-193.8-23.91,7.2-50.82,7.2-74.13,6.6-18.53-.6-36.47-3-52.01-7.2-2.99-6.6-4.78-13.2-4.78-21.6,0-9,4.78-19.8,10.16-24,37.67,9.6,91.47,11.4,133.92,11.4,14.95,0,15.54-8.4,24.51-8.4,5.38,0,10.76,5.4,11.96,10.8-37.67,70.8-104.03,151.8-151.86,200.4,37.67,4.8,74.13,15,104.62,15,13.75,0,25.11-4.2,34.08-12,10.16,12.6,4.19,58.8-32.28,58.8Z"/>
  </g>
  <path class="cls-4" d="M709.93,702.64c-4.19,7.54-12.15,13.83-25.15,13.83-15.3,0-22.42-9.85-22.42-21.37,0-13.2,8.8-22.21,26.82-26.19,2.51-.63,11.73-2.72,20.74-4.4v-11.94c0-7.33-3.14-12.36-11.11-12.36-3.98,0-8.17.84-12.15,2.51l-5.87,19.7h-7.54c-3.35-5.66-6.29-14.25-6.29-22.42,12.57-7.75,25.15-13.83,39.61-13.83,17.81,0,32.9,10.69,32.9,30.59,0,5.45-1.05,23.26-1.05,34.58,0,7.75,1.68,11.32,10.9,11.32v6.92l-33.53,5.87c-2.72-2.51-5.24-8.38-5.87-12.78ZM709.93,695.94v-20.75l-8.59,3.14c-4.82,1.89-7.33,6.08-7.33,11.32,0,7.33,4.19,9.85,8.17,9.85s6.29-1.47,7.75-3.56Z"/>
  <g>
    <line class="cls-3" x1="179.5" y1="283.67" x2="179.27" y2="284.12"/>
    <line class="cls-1" x1="172.18" y1="297.54" x2="62.28" y2="505.52"/>
    <line class="cls-3" x1="58.73" y1="512.23" x2="58.5" y2="512.67"/>
  </g>
  <g>
    <line class="cls-3" x1="99.5" y1="259.67" x2="99.43" y2="260.17"/>
    <line class="cls-2" x1="97.32" y1="274.99" x2="64.63" y2="504.77"/>
    <line class="cls-3" x1="63.57" y1="512.18" x2="63.5" y2="512.67"/>
  </g>
  <line class="cls-3" x1="57.51" y1="257.67" x2="57.51" y2="512.67"/>
  <line class="cls-3" x1="57.5" y1="512.67" x2="178.5" y2="512.67"/>
</svg>