<?xml version="1.0" encoding="UTF-8"?>
<svg id="Layer_1" data-name="Layer 1" xmlns="http://www.w3.org/2000/svg" xmlns:xlink="http://www.w3.org/1999/xlink" viewBox="0 0 1366 768">
  <defs>
    <style>
      .cls-1 {
        fill: #dde0e4;
      }

      .cls-2 {
        clip-path: url(#clippath);
      }
    </style>
    <clipPath id="clippath">
      <rect class="cls-1" x="-10" y="-10" width="1386" height="788"/>
    </clipPath>
  </defs>
  <g>
    <rect class="cls-1" x="-10" y="-10" width="1386" height="788"/>
    <g class="cls-2">
      <rect class="cls-1" x="-.35" y="-3.25" width="1366.71" height="779.89"/>
    </g>
  </g>
  <g>
    <g>
      <path d="M194.03,318.58c0-2.55-.25-4.64-.77-6.26-.51-1.62-1.77-2.89-3.77-3.83-2-.94-5.22-1.57-9.64-1.92v-.64h23.38v.64c-2.98.51-5.09,1.7-6.32,3.58-1.24,1.87-1.85,4.6-1.85,8.18v78.68l-.38.26-141.15-86.35c-2.04-1.28-3.88-2.26-5.49-2.94-1.62-.68-3.24-1.15-4.85-1.41v-.64h33.72l117.77,72.3-.64.89v-60.55ZM59.53,311.55h1.15v71.53c0,2.47.26,4.53.77,6.2.51,1.66,1.74,2.96,3.7,3.9,1.96.94,5.15,1.58,9.58,1.92v.64h-23.38v-.64c3.07-.51,5.19-1.7,6.39-3.58,1.19-1.87,1.79-4.6,1.79-8.17v-71.79Z"/>
      <path d="M293.79,396.5c-12.35,0-23.23-.64-32.64-1.92-9.41-1.28-17.44-3.17-24.08-5.68-6.64-2.51-12.07-5.6-16.29-9.26-4.22-3.66-7.3-7.92-9.26-12.77-1.96-4.85-2.94-10.3-2.94-16.35s.98-11.5,2.94-16.35c1.96-4.85,5.04-9.13,9.26-12.84,4.21-3.7,9.64-6.79,16.29-9.26,6.64-2.47,14.67-4.34,24.08-5.62,9.41-1.28,20.29-1.92,32.64-1.92s23.23.64,32.64,1.92c9.41,1.28,17.44,3.15,24.08,5.62,6.64,2.47,12.07,5.56,16.29,9.26,4.21,3.7,7.3,7.98,9.26,12.84,1.96,4.85,2.94,10.3,2.94,16.35s-.98,11.52-2.94,16.41c-1.96,4.9-5.05,9.18-9.26,12.84-4.22,3.66-9.64,6.73-16.29,9.2-6.64,2.47-14.65,4.34-24.01,5.62-9.37,1.28-20.27,1.92-32.7,1.92ZM293.79,395.35c10.05,0,18.75-.57,26.12-1.72,7.37-1.15,13.58-2.92,18.65-5.3,5.07-2.38,9.13-5.36,12.2-8.94,3.07-3.58,5.28-7.77,6.64-12.58,1.36-4.81,2.04-10.24,2.04-16.29s-.68-11.45-2.04-16.22c-1.36-4.77-3.58-8.94-6.64-12.52-3.07-3.58-7.13-6.58-12.2-9.01-5.07-2.43-11.28-4.22-18.65-5.36-7.37-1.15-16.07-1.72-26.12-1.72s-18.76.57-26.12,1.72c-7.37,1.15-13.58,2.94-18.65,5.36-5.07,2.43-9.11,5.43-12.13,9.01-3.02,3.58-5.22,7.75-6.58,12.52-1.36,4.77-2.04,10.18-2.04,16.22s.68,11.35,2.04,16.16c1.36,4.81,3.55,9.01,6.58,12.58,3.02,3.58,7.07,6.58,12.13,9.01,5.07,2.43,11.3,4.22,18.71,5.36,7.41,1.15,16.09,1.72,26.06,1.72Z"/>
      <path d="M383.33,313.34c-2.04-2.13-3.77-3.75-5.17-4.85-1.41-1.11-2.87-1.74-4.41-1.92v-.64h36.02v.64c-1.36.26-2.43.72-3.19,1.41-.77.68-1.15,1.49-1.15,2.43,0,.77.19,1.47.58,2.11.38.64.83,1.21,1.34,1.72l68.85,70.89-4.21,3.58,61.18-67.06c3.07-3.41,5.11-5.81,6.13-7.22s1.53-2.66,1.53-3.77c0-1.19-.66-2.11-1.98-2.75-1.32-.64-3.68-1.09-7.09-1.34v-.64h21.33v.64c-1.11.09-2.21.36-3.32.83-1.11.47-2.34,1.21-3.71,2.24-1.36,1.02-2.98,2.55-4.85,4.6l-75.75,83.03h-.77l-81.37-83.92Z"/>
      <path d="M590.9,317.56l-70.89,68.98c-.85.85-1.55,1.62-2.11,2.3-.56.68-.83,1.45-.83,2.3,0,.77.55,1.58,1.66,2.43,1.11.85,3.45,1.36,7.03,1.53v.64h-19.42v-.64c1.79-.34,3.47-1.09,5.05-2.24,1.57-1.15,2.96-2.28,4.15-3.39l73.96-71.91h1.41ZM628.58,359.33v.89h-82l.51-.89h81.49ZM568.8,311.3c-2.13-2.04-3.77-3.45-4.92-4.22-1.15-.77-2.28-1.23-3.38-1.41v-.77h25.67l81.88,76.13c2.72,2.39,5.32,4.64,7.79,6.77,2.47,2.13,4.68,3.83,6.64,5.11,1.96,1.28,3.4,2,4.34,2.17v.64h-36.66v-.64c1.11-.17,2.06-.47,2.87-.89.81-.43,1.21-1.06,1.21-1.92,0-.68-.19-1.32-.57-1.92-.38-.59-.92-1.15-1.6-1.66l-83.28-77.41Z"/>
    </g>
    <g>
      <path d="M684.59,350.51c0-6.47,1.06-12.2,3.19-17.18,2.13-4.98,5.37-9.28,9.71-12.9,4.34-3.62,9.84-6.58,16.48-8.88,6.64-2.3,14.43-4.02,23.38-5.17,8.94-1.15,19.12-1.72,30.53-1.72,9.02,0,17.75.36,26.18,1.09,8.43.72,16.35,1.92,23.76,3.58,7.41,1.66,14.05,3.77,19.93,6.32v10.35h-.51c-.94-3.49-3.07-6.45-6.39-8.88-3.32-2.43-7.39-4.41-12.2-5.94-4.81-1.53-10.09-2.7-15.84-3.51-5.75-.81-11.52-1.36-17.31-1.66-5.79-.3-11.24-.45-16.35-.45-12.69,0-23.72.89-33.08,2.68-9.37,1.79-17.18,4.53-23.44,8.24-6.26,3.7-10.94,8.37-14.05,13.99-3.11,5.62-4.66,12.31-4.66,20.05s1.55,14.33,4.66,19.99c3.11,5.66,7.81,10.35,14.11,14.05,6.3,3.7,14.18,6.45,23.63,8.24,9.45,1.79,20.52,2.68,33.21,2.68,4.94,0,10.28-.17,16.03-.51,5.75-.34,11.5-.94,17.24-1.79,5.75-.85,11.07-2.04,15.97-3.58,4.9-1.53,9.01-3.4,12.33-5.62,3.32-2.21,5.37-4.9,6.13-8.05h.51v9.58c-5.2,2.22-11.37,4.13-18.52,5.75-7.15,1.62-15.09,2.87-23.82,3.77-8.73.89-17.95,1.34-27.65,1.34-11.41,0-21.59-.57-30.53-1.72s-16.71-2.89-23.31-5.24c-6.6-2.34-12.07-5.32-16.41-8.94-4.34-3.62-7.58-7.92-9.71-12.9-2.13-4.98-3.19-10.67-3.19-17.05Z"/>
      <path d="M928.56,318.96l-73.06,68.34c-.85.85-1.53,1.6-2.04,2.24-.51.64-.77,1.3-.77,1.98,0,.94.62,1.75,1.85,2.43,1.23.68,3.34,1.11,6.32,1.28v.51h-18.27v-.51c1.96-.43,3.72-1.19,5.3-2.3,1.57-1.11,3-2.3,4.28-3.58l75.62-70.64.77.26ZM973.27,359.58v.64h-89.03l.13-.64h88.9ZM911.83,310.79c-1.87-1.62-3.28-2.79-4.21-3.51-.94-.72-1.83-1.26-2.68-1.6v-.64h11.75l95.03,81.37c2.04,1.7,3.87,3.19,5.49,4.47,1.62,1.28,3.04,2.28,4.28,3,1.23.72,2.24,1.17,3,1.34v.51h-21.59v-.51c.85-.17,1.6-.38,2.24-.64.64-.26.96-.77.96-1.53,0-.51-.17-.98-.51-1.41-.34-.43-.77-.89-1.28-1.41l-92.48-79.45Z"/>
      <path d="M1035.6,314.62c0-1.7-.34-3.3-1.02-4.79-.68-1.49-2.22-2.62-4.6-3.39v-.51h107.04c9.28,0,17.01,1.17,23.18,3.51,6.17,2.34,10.79,5.9,13.86,10.67,3.07,4.77,4.6,10.86,4.6,18.27s-1.53,13.28-4.6,18.14-7.69,8.45-13.86,10.79c-6.17,2.34-13.9,3.51-23.18,3.51h-93.37v16.22c0,2.22.51,3.98,1.53,5.3,1.02,1.32,2.81,2.28,5.37,2.87v.51h-20.57v-.51c2.38-.85,3.92-2,4.6-3.45.68-1.45,1.02-3.02,1.02-4.73v-72.43ZM1043.65,370.06h90.69c6.05,0,11.28-.68,15.71-2.04,4.43-1.36,8.11-3.43,11.05-6.2,2.94-2.77,5.11-6.13,6.51-10.09s2.11-8.41,2.11-13.35-.7-9.62-2.11-13.54c-1.41-3.92-3.58-7.22-6.51-9.9s-6.62-4.73-11.05-6.13c-4.43-1.41-9.67-2.11-15.71-2.11h-90.69v63.36Z"/>
      <path d="M1213.15,350.64c-5.88-.59-11.11-1.6-15.71-3s-8.17-3.53-10.73-6.39c-2.55-2.85-3.83-6.66-3.83-11.43,0-4.17,1.23-7.81,3.7-10.92,2.47-3.11,6.47-5.73,12.01-7.86,5.53-2.13,12.73-3.72,21.59-4.79,8.86-1.06,19.71-1.6,32.57-1.6,9.88,0,19.2.43,27.97,1.28,8.77.85,16.73,2.07,23.89,3.64,7.15,1.58,13.33,3.51,18.52,5.81v10.47h-.64c-.85-3.58-2.98-6.56-6.39-8.94-3.41-2.38-7.64-4.34-12.71-5.88-5.07-1.53-10.56-2.68-16.48-3.45-5.92-.77-11.84-1.3-17.75-1.6-5.92-.3-11.39-.45-16.41-.45-8.86,0-17.18.3-24.97.89-7.79.6-14.65,1.66-20.57,3.19-5.92,1.53-10.56,3.73-13.92,6.58-3.37,2.85-5.05,6.49-5.05,10.92,0,4,1.23,7.07,3.71,9.2,2.47,2.13,5.77,3.66,9.9,4.6,4.13.94,8.71,1.7,13.73,2.3l77.79,8.05c6.39.6,11.82,1.6,16.29,3s7.92,3.45,10.35,6.13c2.43,2.68,3.64,6.32,3.64,10.92,0,4.34-1.26,8.07-3.77,11.18-2.51,3.11-6.54,5.68-12.07,7.73-5.54,2.04-12.8,3.58-21.78,4.6-8.99,1.02-19.99,1.53-33.02,1.53-10.99,0-20.87-.51-29.63-1.53-8.77-1.02-16.46-2.34-23.06-3.96-6.6-1.62-12.12-3.45-16.54-5.49v-10.47h.51c.68,3.41,2.57,6.28,5.68,8.62,3.11,2.34,7.09,4.3,11.94,5.88,4.85,1.58,10.2,2.81,16.03,3.7,5.83.89,11.79,1.51,17.88,1.85,6.09.34,11.9.51,17.44.51,9.62,0,18.39-.32,26.31-.96,7.92-.64,14.77-1.77,20.57-3.39,5.79-1.62,10.24-3.81,13.35-6.58,3.11-2.77,4.66-6.32,4.66-10.67,0-3.66-1-6.45-3-8.37-2-1.92-5-3.36-9.01-4.34-4-.98-9.07-1.77-15.2-2.36l-77.79-8.18Z"/>
    </g>
  </g>
  <g>
    <g>
      <path d="M87.25,456.53c0-6.47,1.06-12.2,3.19-17.18,2.13-4.98,5.37-9.28,9.71-12.9,4.34-3.62,9.84-6.58,16.48-8.88,6.64-2.3,14.43-4.02,23.38-5.17,8.94-1.15,19.12-1.72,30.53-1.72,9.03,0,17.75.36,26.19,1.09,8.43.72,16.35,1.92,23.76,3.58,7.41,1.66,14.05,3.77,19.93,6.32v10.35h-.51c-.94-3.49-3.07-6.45-6.39-8.88-3.32-2.43-7.39-4.41-12.2-5.94-4.81-1.53-10.09-2.7-15.84-3.51-5.75-.81-11.52-1.36-17.31-1.66-5.79-.3-11.24-.45-16.35-.45-12.69,0-23.72.89-33.08,2.68-9.37,1.79-17.18,4.53-23.44,8.24-6.26,3.7-10.94,8.37-14.05,13.99-3.11,5.62-4.66,12.31-4.66,20.05s1.55,14.33,4.66,19.99c3.11,5.66,7.81,10.35,14.11,14.05,6.3,3.7,14.18,6.45,23.63,8.24,9.45,1.79,20.52,2.68,33.21,2.68,4.94,0,10.28-.17,16.03-.51,5.75-.34,11.5-.94,17.24-1.79,5.75-.85,11.07-2.04,15.97-3.58,4.9-1.53,9.01-3.4,12.33-5.62,3.32-2.21,5.36-4.9,6.13-8.05h.51v9.58c-5.2,2.22-11.37,4.13-18.52,5.75-7.15,1.62-15.09,2.87-23.82,3.77-8.73.89-17.95,1.34-27.65,1.34-11.41,0-21.59-.57-30.53-1.72s-16.71-2.89-23.31-5.24c-6.6-2.34-12.07-5.32-16.41-8.94-4.34-3.62-7.58-7.92-9.71-12.9-2.13-4.98-3.19-10.67-3.19-17.05Z"/>
      <path d="M331.22,424.98l-73.06,68.34c-.85.85-1.53,1.6-2.04,2.24-.51.64-.77,1.3-.77,1.98,0,.94.62,1.75,1.85,2.43,1.23.68,3.34,1.11,6.32,1.28v.51h-18.27v-.51c1.96-.43,3.72-1.19,5.3-2.3,1.57-1.11,3-2.3,4.28-3.58l75.62-70.64.77.26ZM375.93,465.6v.64h-89.03l.13-.64h88.9ZM314.49,416.8c-1.87-1.62-3.28-2.79-4.22-3.51-.94-.72-1.83-1.26-2.68-1.6v-.64h11.75l95.03,81.37c2.04,1.7,3.87,3.19,5.49,4.47,1.62,1.28,3.04,2.28,4.28,3,1.23.72,2.24,1.17,3,1.34v.51h-21.59v-.51c.85-.17,1.6-.38,2.24-.64.64-.26.96-.77.96-1.53,0-.51-.17-.98-.51-1.41-.34-.43-.77-.89-1.28-1.41l-92.48-79.45Z"/>
      <path d="M438.26,420.63c0-1.7-.34-3.3-1.02-4.79-.68-1.49-2.22-2.62-4.6-3.39v-.51h107.04c9.28,0,17.01,1.17,23.18,3.51,6.17,2.34,10.79,5.9,13.86,10.67,3.07,4.77,4.6,10.86,4.6,18.27s-1.53,13.28-4.6,18.14c-3.07,4.85-7.69,8.45-13.86,10.79-6.18,2.34-13.9,3.51-23.18,3.51h-93.37v16.22c0,2.22.51,3.98,1.53,5.3,1.02,1.32,2.81,2.28,5.36,2.87v.51h-20.57v-.51c2.38-.85,3.92-2,4.6-3.45.68-1.45,1.02-3.02,1.02-4.73v-72.43ZM446.31,476.07h90.69c6.05,0,11.28-.68,15.71-2.04,4.43-1.36,8.11-3.43,11.05-6.2,2.94-2.77,5.11-6.13,6.51-10.09,1.4-3.96,2.11-8.41,2.11-13.35s-.7-9.62-2.11-13.54c-1.41-3.92-3.58-7.22-6.51-9.9s-6.62-4.73-11.05-6.13c-4.43-1.41-9.67-2.11-15.71-2.11h-90.69v63.36Z"/>
      <path d="M615.81,456.66c-5.88-.59-11.11-1.6-15.71-3-4.6-1.41-8.17-3.53-10.73-6.39-2.55-2.85-3.83-6.66-3.83-11.43,0-4.17,1.23-7.81,3.7-10.92,2.47-3.11,6.47-5.73,12.01-7.86,5.53-2.13,12.73-3.72,21.59-4.79,8.86-1.06,19.71-1.6,32.57-1.6,9.88,0,19.2.43,27.97,1.28,8.77.85,16.73,2.07,23.89,3.64,7.15,1.58,13.33,3.51,18.52,5.81v10.47h-.64c-.85-3.58-2.98-6.56-6.39-8.94-3.41-2.38-7.64-4.34-12.71-5.88-5.07-1.53-10.56-2.68-16.48-3.45-5.92-.77-11.84-1.3-17.75-1.6-5.92-.3-11.39-.45-16.41-.45-8.86,0-17.18.3-24.97.89-7.79.6-14.65,1.66-20.57,3.19-5.92,1.53-10.56,3.73-13.92,6.58-3.37,2.85-5.05,6.49-5.05,10.92,0,4,1.23,7.07,3.7,9.2,2.47,2.13,5.77,3.66,9.9,4.6,4.13.94,8.71,1.7,13.73,2.3l77.79,8.05c6.39.6,11.82,1.6,16.29,3s7.92,3.45,10.35,6.13c2.43,2.68,3.64,6.32,3.64,10.92,0,4.34-1.26,8.07-3.77,11.18-2.51,3.11-6.54,5.68-12.07,7.73-5.54,2.04-12.8,3.58-21.78,4.6-8.99,1.02-19.99,1.53-33.02,1.53-10.99,0-20.86-.51-29.63-1.53-8.77-1.02-16.46-2.34-23.06-3.96-6.6-1.62-12.11-3.45-16.54-5.49v-10.47h.51c.68,3.41,2.57,6.28,5.68,8.62,3.11,2.34,7.09,4.3,11.94,5.88,4.85,1.58,10.2,2.81,16.03,3.7,5.83.89,11.79,1.51,17.88,1.85,6.09.34,11.9.51,17.44.51,9.62,0,18.39-.32,26.31-.96s14.77-1.77,20.57-3.39c5.79-1.62,10.24-3.81,13.35-6.58,3.11-2.77,4.66-6.32,4.66-10.67,0-3.66-1-6.45-3-8.37-2-1.92-5-3.36-9.01-4.34-4-.98-9.07-1.77-15.2-2.36l-77.79-8.18Z"/>
    </g>
    <g>
      <path d="M828.49,502.51c-12.35,0-23.23-.64-32.64-1.92-9.41-1.28-17.44-3.17-24.08-5.68-6.64-2.51-12.07-5.6-16.29-9.26-4.21-3.66-7.3-7.92-9.26-12.77-1.96-4.85-2.94-10.3-2.94-16.35s.98-11.5,2.94-16.35c1.96-4.85,5.05-9.13,9.26-12.84s9.64-6.79,16.29-9.26c6.64-2.47,14.67-4.34,24.08-5.62,9.41-1.28,20.29-1.92,32.64-1.92s23.23.64,32.64,1.92c9.41,1.28,17.44,3.15,24.08,5.62,6.64,2.47,12.07,5.56,16.29,9.26s7.3,7.98,9.26,12.84c1.96,4.85,2.94,10.3,2.94,16.35s-.98,11.52-2.94,16.41c-1.96,4.9-5.05,9.18-9.26,12.84-4.21,3.66-9.64,6.73-16.29,9.2-6.64,2.47-14.65,4.34-24.01,5.62-9.37,1.28-20.27,1.92-32.7,1.92ZM828.49,501.36c10.05,0,18.75-.57,26.12-1.72,7.37-1.15,13.58-2.92,18.65-5.3,5.07-2.38,9.13-5.36,12.2-8.94,3.07-3.58,5.28-7.77,6.64-12.58,1.36-4.81,2.04-10.24,2.04-16.29s-.68-11.45-2.04-16.22c-1.36-4.77-3.58-8.94-6.64-12.52-3.07-3.58-7.13-6.58-12.2-9.01-5.07-2.43-11.28-4.22-18.65-5.36-7.37-1.15-16.07-1.72-26.12-1.72s-18.76.57-26.12,1.72c-7.37,1.15-13.58,2.94-18.65,5.36-5.07,2.43-9.11,5.43-12.13,9.01-3.02,3.58-5.22,7.75-6.58,12.52-1.36,4.77-2.04,10.18-2.04,16.22s.68,11.35,2.04,16.16c1.36,4.81,3.55,9.01,6.58,12.58,3.02,3.58,7.07,6.58,12.13,9.01,5.07,2.43,11.3,4.22,18.71,5.36,7.41,1.15,16.09,1.72,26.06,1.72Z"/>
      <path d="M1070.55,424.59c0-2.55-.25-4.64-.77-6.26-.51-1.62-1.77-2.89-3.77-3.83-2-.94-5.22-1.57-9.64-1.92v-.64h23.38v.64c-2.98.51-5.09,1.7-6.32,3.58-1.24,1.87-1.85,4.6-1.85,8.18v78.68l-.38.26-141.15-86.35c-2.04-1.28-3.88-2.26-5.49-2.94-1.62-.68-3.24-1.15-4.85-1.41v-.64h33.72l117.77,72.3-.64.89v-60.55ZM936.04,417.57h1.15v71.53c0,2.47.25,4.53.77,6.2.51,1.66,1.75,2.96,3.71,3.9,1.96.94,5.15,1.58,9.58,1.92v.64h-23.38v-.64c3.07-.51,5.19-1.7,6.39-3.58,1.19-1.87,1.79-4.6,1.79-8.17v-71.79Z"/>
      <path d="M1092.77,423.83c0-2.64-.51-4.94-1.53-6.9-1.02-1.96-3.15-3.4-6.39-4.34v-.64h33.47v.64c-3.49.94-5.77,2.39-6.83,4.34-1.07,1.96-1.6,4.26-1.6,6.9v76.9h74.72c6.9,0,12.62-.28,17.18-.83,4.55-.55,8.37-1.64,11.43-3.26,3.07-1.62,5.66-4.13,7.79-7.54l.64.26-5.75,14.31h-1.02c-.85-.6-2.26-1.02-4.21-1.28-1.96-.26-4.96-.43-9.01-.51-4.04-.09-9.73-.13-17.05-.13h-99.76v-.64c3.24-.94,5.37-2.38,6.39-4.34,1.02-1.96,1.53-4.34,1.53-7.15v-65.78ZM1215.27,468.92c0,2.04.19,3.7.58,4.98s1.21,2.3,2.49,3.07c1.28.77,3.19,1.41,5.75,1.92v.51h-34.74v-.51c3.75-.77,6.15-1.85,7.22-3.26,1.06-1.41,1.6-3.64,1.6-6.71v-16.99l-68.98-36.53c-.77-.51-1.64-.96-2.62-1.34-.98-.38-1.92-.72-2.81-1.02-.89-.3-1.68-.45-2.36-.45v-.51h41.39v.51c-1.11.51-1.66,1.19-1.66,2.04,0,.68.4,1.34,1.21,1.98.81.64,2.57,1.68,5.3,3.13l47.52,24.52,50.2-25.42c1.36-.68,2.41-1.3,3.13-1.85.72-.55,1.09-1.13,1.09-1.72,0-.85-.68-1.47-2.04-1.85-1.36-.38-3.49-.66-6.39-.83v-.51h20.82v.51c-1.36.26-3.26.89-5.68,1.92-2.43,1.02-4.75,2.09-6.96,3.19l-54.03,27.46v23.76Z"/>
    </g>
  </g>
</svg>