<?xml version="1.0" encoding="UTF-8"?>
<svg id="Layer_1" data-name="Layer 1" xmlns="http://www.w3.org/2000/svg" xmlns:xlink="http://www.w3.org/1999/xlink" viewBox="0 0 1366 768">
  <defs>
    <style>
      .cls-1 {
        fill: #12100b;
      }

      .cls-2 {
        fill: #e5e1bd;
      }

      .cls-3 {
        clip-path: url(#clippath);
      }
    </style>
    <clipPath id="clippath">
      <rect class="cls-1" x="-10" y="-10" width="1386" height="788"/>
    </clipPath>
  </defs>
  <g>
    <rect class="cls-1" x="-10" y="-10" width="1386" height="788"/>
    <g class="cls-3">
      <rect class="cls-1" x="-.35" y="-3.25" width="1366.71" height="779.89"/>
    </g>
  </g>
  <g>
    <path class="cls-2" d="M319.97,507.95v10.46h-129.63v-10.46c35.93-1.36,45.48-5,45.48-31.38v-246.07h-45.03c-45.49,0-49.12,25.47-65.5,71.41l-10.01-2.73c6.82-22.29,9.55-39.12,9.55-54.13,0-12.28-2.73-20.92-7.28-26.38l1.37-2.73c10.01,1.82,22.29,2.73,43.21,2.73h186.03c20.92,0,33.2-.91,43.21-2.73l1.36,2.73c-4.55,5.46-7.28,14.1-7.28,26.38,0,15.01,2.73,31.84,10.01,54.13l-10.01,2.73c-16.37-45.94-20.01-71.41-65.95-71.41h-45.03v246.07c0,26.38,10.01,30.02,45.49,31.38Z"/>
    <path class="cls-2" d="M374.55,415.62c0-65.04,40.48-108.71,100.98-108.71,70.05,0,105.53,41.85,105.53,110.07s-39.57,108.71-100.07,108.71c-67.77,0-106.44-43.67-106.44-110.07ZM483.72,516.59c44.58,0,57.31-35.48,57.31-79.14,0-76.42-23.2-121.9-67.77-121.9s-58.22,35.93-58.22,80.05c0,75.05,22.74,120.99,68.68,120.99Z"/>
    <path class="cls-2" d="M660.19,410.16l64.59-52.31c11.37-9.1,16.83-15.46,16.83-24.11,0-6.37-3.64-12.28-10.01-15.92v-4.09h76.42v8.64c-16.83.91-39.12,10.46-59.58,27.75l-42.3,35.02,106.43,133.27h-45.03l-89.15-111.89-18.19,15.01v62.31c0,20.47,10.46,25.02,34.57,26.84v7.73h-105.52v-7.73c24.11-1.82,34.57-6.37,34.57-26.84v-248.8l-34.57-14.1v-7.73c29.57-1.36,51.85-13.19,65.95-31.38l5,.46v227.88Z"/>
    <path class="cls-2" d="M965.85,313.73h65.04v7.73c-14.1,3.18-19.1,7.73-28.2,29.57l-80.05,187.85c-5.91,11.83-8.19,16.83-14.1,27.75-11.37,21.38-31.84,42.76-63.22,42.76v-44.58c31.84,0,51.85-.91,65.5-27.29l10.01-22.29c-25.02-63.68-44.58-109.16-69.59-172.39-4.09-11.37-10.01-19.56-26.38-21.38v-7.73h87.33v7.73c-20.01,1.37-23.2,15.47-14.56,37.3l43.21,110.53,47.3-115.53c7.73-17.74,2.73-29.11-22.29-32.29v-7.73Z"/>
    <path class="cls-2" d="M1033.62,415.62c0-65.04,40.48-108.71,100.98-108.71,70.05,0,105.53,41.85,105.53,110.07s-39.57,108.71-100.07,108.71c-67.77,0-106.44-43.67-106.44-110.07ZM1142.78,516.59c44.58,0,57.31-35.48,57.31-79.14,0-76.42-23.2-121.9-67.77-121.9s-58.22,35.93-58.22,80.05c0,75.05,22.74,120.99,68.68,120.99Z"/>
  </g>
</svg>