<?xml version="1.0" encoding="UTF-8"?>
<svg id="Layer_1" data-name="Layer 1" xmlns="http://www.w3.org/2000/svg" viewBox="0 0 1366 768">
  <defs>
    <style>
      .cls-1 {
        fill: #12100b;
      }

      .cls-2 {
        fill: #ccbbe4;
      }
    </style>
  </defs>
  <rect class="cls-2" x="-10" y="-10" width="1386" height="788"/>
  <g>
    <path class="cls-1" d="M119.11,46.16c35.78,0,64.71,29.22,64.71,64.71,0,17.89-7.46,32.5-19.38,42.34,9.24,9.54,15.21,22.66,15.21,38.17,0,35.19-29.22,64.41-65.01,64.41H35.32V46.16h83.79ZM77.07,133.84h42.05c12.82,0,22.96-10.74,22.96-22.96s-10.44-22.96-22.96-22.96h-42.05v45.92ZM77.07,214.05h37.57c12.52,0,22.96-10.73,22.96-22.96s-10.44-22.96-22.96-22.96h-37.57v45.92Z"/>
    <path class="cls-1" d="M422.38,151.13c0,59.64-48.61,108.25-108.55,108.25s-108.84-48.91-108.84-108.25,48.91-108.55,108.84-108.55,108.55,49.2,108.55,108.55ZM246.74,151.43c0,36.38,30.12,66.2,66.8,66.2s67.09-29.82,67.09-66.5-30.12-66.8-67.09-66.8-66.8,30.42-66.8,67.1Z"/>
    <path class="cls-1" d="M562.83,255.8c-79.62,0-121.96-42.34-121.96-104.67s42.35-104.97,121.96-104.97h180.41c79.62,0,121.96,42.34,121.96,104.67s-42.34,104.97-121.96,104.97h-180.41ZM743.25,214.05c53.38,0,80.22-23.56,80.22-63.22s-26.84-62.92-80.22-62.92h-180.41c-53.38,0-80.22,23.56-80.22,63.22s26.84,62.92,80.22,62.92h180.41Z"/>
    <path class="cls-1" d="M909.95,46.16l89.16,92.44,89.16-92.44h13.12v209.64h-41.75v-118.68l.6-3.58-58.15,62.03h-5.96l-58.45-62.03.89,3.58v118.68h-41.75V46.16h13.12Z"/>
    <path class="cls-1" d="M1187.28,236.12c0,12.82-10.44,23.26-23.56,23.26s-23.56-10.44-23.56-23.26,10.14-23.56,23.26-23.56,23.86,10.74,23.86,23.56ZM1184.59,46.16l-2.68,143.44h-35.78l-3.28-143.44h41.75Z"/>
  </g>
  <g>
    <path class="cls-1" d="M104.2,286.12c37.57,0,63.52,27.14,63.52,60.54,0,22.66-10.74,39.96-31.91,48.61,14.61,7.75,24.45,23.86,24.45,43.24,0,31.61-25.35,57.25-57.85,57.25h-61.13v-209.64h62.92ZM63.95,382.73h41.45c24.15,0,39.66-15.51,39.66-36.08s-15.51-37.87-40.85-37.87h-40.26v73.95ZM63.95,473.09h38.47c18.49,0,35.19-15.21,35.19-34.59s-16.7-33.7-35.19-33.7h-38.47v68.29Z"/>
    <path class="cls-1" d="M303.7,283.13c59.94,0,108.25,48.31,108.25,107.95s-48.31,107.65-108.25,107.65-107.95-47.71-107.95-107.65,48.01-107.95,107.95-107.95ZM303.7,476.37c47.41,0,85.58-37.87,85.58-85.29s-38.17-85.29-85.58-85.29-85.29,38.17-85.29,85.29,37.87,85.29,85.29,85.29Z"/>
    <path class="cls-1" d="M551.8,495.75c-71.27,0-113.62-43.54-113.62-104.67s42.34-104.97,113.62-104.97h181.9c71.27,0,113.62,43.84,113.62,104.97s-42.34,104.67-113.62,104.67h-181.9ZM733.71,473.09c57.25,0,90.95-33.4,90.95-82.01s-33.7-82.3-90.95-82.3h-181.9c-57.25,0-90.95,33.7-90.95,82.3s33.7,82.01,90.95,82.01h181.9Z"/>
    <path class="cls-1" d="M886.39,286.12l54.87,127.33,55.76-127.33h8.05v209.64h-21.17v-132.1l-40.26,92.44h-5.07l-38.77-92.44v132.1h-21.17v-209.64h7.75Z"/>
    <path class="cls-1" d="M1059.64,469.51c8.35,0,14.91,6.56,14.91,14.91s-6.56,14.91-14.91,14.91-14.91-6.56-14.91-14.91,6.56-14.91,14.91-14.91ZM1070.97,286.12l-1.79,158.05h-19.08l-1.79-158.05h22.66Z"/>
  </g>
  <g>
    <path class="cls-1" d="M322.79,527.03c44.73,0,73.66,28.93,73.66,64.71,0,19.68-8.95,33.7-22.66,42.94,11.03,9.54,18.19,22.66,18.19,37.87,0,35.78-28.92,64.11-73.66,64.11H35.32v-209.64h287.47ZM77.07,614.71h244.82c21.47,0,31.61-10.44,31.61-22.96s-10.14-22.96-31.61-22.96H77.07v45.92ZM77.07,694.92h240.35c21.47,0,31.61-9.84,31.61-22.37s-10.14-20.87-31.61-20.87H77.07v43.24Z"/>
    <path class="cls-1" d="M634.11,632c0,59.64-48.61,108.25-108.55,108.25s-108.84-48.91-108.84-108.25,48.91-108.55,108.84-108.55,108.55,49.2,108.55,108.55ZM458.47,632.3c0,36.38,30.12,66.2,66.8,66.2s67.09-29.82,67.09-66.5-30.12-66.8-67.09-66.8-66.8,30.42-66.8,67.1Z"/>
    <path class="cls-1" d="M714.62,739.95c-37.57,0-62.03-35.19-62.03-108.25s24.16-107.65,62.03-107.65,62.32,35.49,62.32,107.65-24.15,108.25-62.32,108.25ZM714.62,698.8c11.63,0,20.58-16.4,20.58-67.1s-8.95-66.5-20.58-66.5-20.28,16.1-20.28,66.5,8.95,67.1,20.28,67.1Z"/>
    <path class="cls-1" d="M816.91,527.03l53.38,87.97,55.17-87.97h14.91v209.64h-38.77v-108.55l-28.03,52.78h-6.56l-26.24-52.78v108.55h-38.77v-209.64h14.91Z"/>
    <path class="cls-1" d="M1019.68,716.99c0,12.82-10.44,23.26-23.56,23.26s-23.56-10.44-23.56-23.26,10.14-23.56,23.26-23.56,23.86,10.74,23.86,23.56ZM1017,527.03l-2.68,143.44h-35.78l-3.28-143.44h41.75Z"/>
  </g>
</svg>