<?xml version="1.0" encoding="UTF-8"?>
<svg id="Layer_1" data-name="Layer 1" xmlns="http://www.w3.org/2000/svg" xmlns:xlink="http://www.w3.org/1999/xlink" viewBox="0 0 1366 768">
  <defs>
    <style>
      .cls-1 {
        fill: #12100b;
        font-family: ABCNormalMono-Regular, 'ABC Normal Mono';
        font-size: 13px;
      }

      .cls-2 {
        fill: #c3bfb6;
      }

      .cls-3 {
        fill: #fff;
      }

      .cls-4 {
        clip-path: url(#clippath);
      }
    </style>
    <clipPath id="clippath">
      <rect class="cls-2" x="-10" y="-10" width="1386" height="788"/>
    </clipPath>
  </defs>
  <g>
    <rect class="cls-2" x="-10" y="-10" width="1386" height="788"/>
    <g class="cls-4">
      <rect class="cls-2" x="-.35" y="-3.25" width="1366.71" height="779.89"/>
    </g>
  </g>
  <g>
    <rect class="cls-3" x="620.03" y="15.12" width="125.95" height="30.49" rx="15.25" ry="15.25"/>
    <text class="cls-1" transform="translate(655.52 34.52)"><tspan x="0" y="0">Ongoing</tspan></text>
  </g>
  <g>
    <path d="M162.14,408.21h-83.4v-1.92l-21.49,53.57c-1.92,5.13-3.53,9.62-3.53,13.47,0,8.02,7.7,12.83,25.34,13.79v4.17H20.99v-4.17c17-1.28,22.13-9.62,27.91-23.74l73.78-182.53h3.21l72.82,176.43c9.94,23.74,16.68,28.87,33.04,29.83v4.17h-68.01v-4.17c14.44-.64,22.78-3.85,22.78-13.79,0-3.85-.96-8.34-3.53-14.44l-20.85-50.68ZM159.57,402.43l-40.42-97.84-38.81,97.84h79.23Z"/>
    <path d="M245.51,367.47v-4.49c23.1-.32,32.72-8.02,37.85-20.85h3.53v125.43c0,14.44,7.38,17.64,24.7,18.93v4.81h-65.76v-4.81c17.32-1.28,24.7-4.49,24.7-18.93v-76.35c0-17.96-8.66-22.78-25.02-23.74ZM260.58,304.59c0-9.94,5.45-15.08,14.76-15.08s14.76,5.13,14.76,15.08-5.13,15.08-14.76,15.08-14.76-5.13-14.76-15.08Z"/>
    <path d="M327.21,367.47v-4.49c18.93-.32,32.08-5.77,37.85-20.85l3.53.32v29.19c12.51-16.68,31.44-29.51,49.08-29.51,34,0,46.51,24.7,46.51,55.82v69.61c0,14.44,7.38,17.64,24.7,18.93v4.81h-66.08v-4.81c17.64-1.28,25.02-4.49,25.02-18.93v-67.36c0-27.27-7.7-45.55-34-45.55-17.32,0-32.4,8.66-45.23,25.34v87.57c0,14.44,7.38,17.64,25.02,18.93v4.81h-66.08v-4.81c17.32-1.28,24.7-4.49,24.7-18.93v-75.71c0-16.68-6.42-23.42-25.02-24.38Z"/>
    <path d="M496.71,419.76c0-43.95,25.34-76.99,70.57-76.99s70.57,33.04,70.57,76.99-25.66,76.67-70.57,76.67-70.57-32.72-70.57-76.67ZM621.17,419.76c0-42.34-17-70.89-53.89-70.89s-54.21,28.55-54.21,70.89,17,70.89,54.21,70.89,53.89-28.55,53.89-70.89Z"/>
  </g>
  <g>
    <path d="M1221.03,419h66.4l15.4-37.21c1.92-4.81,2.89-8.66,2.89-11.55,0-11.23-11.55-13.47-28.55-14.44v-9.3h66.08v9.3c-13.79,1.28-18.93,8.66-26.62,26.3l-77.95,180.6h-12.83l-77.63-180.92c-8.02-18.29-15.4-24.7-26.3-25.98v-9.3h104.9v9.3c-15.4.32-23.1,6.42-23.1,14.11,0,6.09,2.57,12.83,6.09,21.17l11.23,27.91ZM1225.85,430.23l28.23,69.61,28.87-69.61h-57.1Z"/>
    <path d="M1115.24,466.48v9.62c-28.87,1.28-46.51,6.74-60.31,23.1h-8.02v-124.14c0-14.44-7.38-17.64-21.17-18.93v-9.62h89.5v9.62c-13.79,1.28-21.17,4.49-21.17,18.93v63.84c0,18.93,7.06,24.38,21.17,27.59ZM1101.77,539.62c0,16.36-13.79,30.15-30.15,30.15s-30.15-13.79-30.15-30.15,13.79-30.15,30.15-30.15,30.15,13.79,30.15,30.15Z"/>
    <path d="M1017.69,466.48v9.62c-30.47.96-48.44,8.34-60.31,23.1l-8.02-1.6v-28.55c-10.59,15.4-23.42,30.15-48.12,30.15-31.76,0-41.38-21.81-41.38-53.25v-70.89c0-14.44-7.38-17.64-21.17-18.93v-9.62h86.29v9.62c-10.59,1.28-17.96,4.49-17.96,18.93v68.33c0,15.72,6.42,25.34,19.89,25.34,9.3,0,15.4-3.85,22.46-9.94v-83.73c0-14.44-7.38-17.64-17.96-18.93v-9.62h86.29v9.62c-13.79,1.28-21.17,4.49-21.17,18.93v63.84c0,17.32,5.77,24.38,21.17,27.59Z"/>
    <path d="M836.1,420.29c0,47.48-27.91,78.91-79.55,78.91s-79.56-31.44-79.56-78.91,27.91-78.91,79.56-78.91,79.55,31.44,79.55,78.91ZM727.03,420.29c0,42.99,9.3,64.48,29.51,64.48s29.51-21.49,29.51-64.48-9.3-64.48-29.51-64.48-29.51,21.49-29.51,64.48Z"/>
  </g>
</svg>