<?xml version="1.0" encoding="UTF-8"?>
<svg id="Layer_1" data-name="Layer 1" xmlns="http://www.w3.org/2000/svg" xmlns:xlink="http://www.w3.org/1999/xlink" viewBox="0 0 1366 768">
  <defs>
    <style>
      .cls-1 {
        fill: #dde0e4;
      }

      .cls-2 {
        clip-path: url(#clippath);
      }
    </style>
    <clipPath id="clippath">
      <rect class="cls-1" x="-10" y="-10" width="1386" height="788"/>
    </clipPath>
  </defs>
  <g>
    <rect class="cls-1" x="-10" y="-10" width="1386" height="788"/>
    <g class="cls-2">
      <rect class="cls-1" x="-.35" y="-3.25" width="1366.71" height="779.89"/>
    </g>
  </g>
  <g>
    <path d="M110.47,387.95c0-48.46,6.36-107.83,55.73-107.83s55.73,59.37,55.73,107.83-6.36,107.83-55.73,107.83-55.73-59.37-55.73-107.83ZM214.06,387.95c0-46.65-2.72-106.62-47.86-106.62s-47.86,59.97-47.86,106.62,2.73,106.62,47.86,106.62,47.86-59.97,47.86-106.62Z"/>
    <path d="M305.9,283.75v-1.21h19.69v1.21c-6.06,2.73-7.27,8.18-7.27,21.2v196.28h-1.21l-85.42-194.16v168.11c0,10.9,1.21,16.66,11.21,18.17v1.21h-19.69v-1.21c5.75-2.73,7.27-7.27,7.27-21.2v-168.11l-6.06-13.63c-1.21-2.73-2.12-4.54-3.63-6.36v-1.51h7.88l88.45,201.43v-181.74c0-10.9-.91-16.96-11.21-18.48Z"/>
    <path d="M327.41,387.95c0-48.46,6.36-107.83,55.73-107.83s55.73,59.37,55.73,107.83-6.36,107.83-55.73,107.83-55.73-59.37-55.73-107.83ZM431,387.95c0-46.65-2.73-106.62-47.86-106.62s-47.86,59.97-47.86,106.62,2.72,106.62,47.86,106.62,47.86-59.97,47.86-106.62Z"/>
    <path d="M510.82,486.39l54.83-203.85h12.12v1.21c-4.24,2.73-5.45,7.27-5.45,21.2v167.2c0,13.93,1.21,18.17,5.45,21.2v1.21h-18.17v-1.21c4.24-3.03,6.06-7.27,6.06-21.2v-184.47l-56.95,211.43h-1.21l-58.76-207.19v183.26c0,8.78,0,17.27,11.81,18.17v1.21h-19.69v-1.21c4.85-2.12,6.66-9.39,6.66-18.17v-172.35c0-11.51-1.21-16.36-5.45-19.08v-1.21h11.21l57.55,203.85Z"/>
    <path d="M633.74,281.63v-1.51h6.66l48.16,198.1c2.42,9.69,3.63,13.63,8.18,15.15v1.21h-18.17v-1.21c3.94-.61,4.85-3.33,4.85-5.76,0-2.12-.61-5.15-1.52-9.09l-16.36-67.85h-56.95l-16.96,63.31c-1.21,4.85-1.82,8.18-1.82,10.6,0,4.24,1.51,8.18,10,8.78v1.21h-19.69v-1.21c4.85-2.42,6.66-6.66,10-19.08l47.56-177.2-.61-3.03c-1.51-6.06-2.12-8.18-3.33-12.42ZM665.24,409.46l-26.65-109.65-29.69,109.65h56.34Z"/>
    <path d="M698.16,283.75c-15.45,0-20.9,3.33-24.54,21.2h-1.21l1.51-25.44h1.21c2.72,2.12,5.45,3.03,13.33,3.03h71.49c7.88,0,10.6-.91,13.33-3.03h1.21l1.51,25.44h-1.21c-3.63-17.87-9.09-21.2-24.54-21.2h-22.72v184.77c0,15.15.61,21.51,5.45,24.84v1.21h-17.57v-1.21c4.85-3.33,5.45-9.69,5.45-24.84v-184.77h-22.72Z"/>
    <path d="M771.22,387.95c0-48.46,6.36-107.83,55.73-107.83s55.73,59.37,55.73,107.83-6.36,107.83-55.73,107.83-55.73-59.37-55.73-107.83ZM874.82,387.95c0-46.65-2.73-106.62-47.86-106.62s-47.86,59.97-47.86,106.62,2.72,106.62,47.86,106.62,47.86-59.97,47.86-106.62Z"/>
    <path d="M885.87,283.75v-1.21h99.65v1.21c-4.24,3.03-5.45,7.27-5.45,21.2v167.2c0,13.93,1.21,18.17,5.45,21.2v1.21h-17.57v-1.21c4.24-3.03,5.45-7.27,5.45-21.2v-188.41h-75.42v188.41c0,13.93,1.21,18.17,5.45,21.2v1.21h-17.57v-1.21c4.24-3.03,5.45-7.27,5.45-21.2v-167.2c0-13.93-1.21-18.17-5.45-21.2Z"/>
    <path d="M988.71,387.95c0-48.46,6.36-107.83,55.73-107.83s55.73,59.37,55.73,107.83-6.36,107.83-55.73,107.83-55.73-59.37-55.73-107.83ZM1092.3,387.95c0-46.65-2.72-106.62-47.86-106.62s-47.86,59.97-47.86,106.62,2.73,106.62,47.86,106.62,47.86-59.97,47.86-106.62Z"/>
    <path d="M1120.92,282.54v1.21c-4.24,2.73-5.45,7.27-5.45,21.2v167.2c0,13.93,1.21,18.48,5.45,21.2v1.21h-17.57v-1.21c4.24-2.73,5.45-7.27,5.45-21.2v-167.2c0-13.93-1.21-18.48-5.45-21.2v-1.21h17.57Z"/>
    <path d="M1143.09,282.54v1.21c-4.24,2.73-5.45,7.27-5.45,21.2v167.2c0,13.93,1.21,18.48,5.45,21.2v1.21h-17.57v-1.21c4.24-2.73,5.45-7.27,5.45-21.2v-167.2c0-13.93-1.21-18.48-5.45-21.2v-1.21h17.57Z"/>
    <path d="M1198.58,281.63v-1.51h6.66l48.16,198.1c2.42,9.69,3.63,13.63,8.18,15.15v1.21h-18.17v-1.21c3.94-.61,4.85-3.33,4.85-5.76,0-2.12-.61-5.15-1.51-9.09l-16.36-67.85h-56.95l-16.96,63.31c-1.21,4.85-1.82,8.18-1.82,10.6,0,4.24,1.51,8.18,9.99,8.78v1.21h-19.69v-1.21c4.85-2.42,6.66-6.66,10-19.08l47.55-177.2-.61-3.03c-1.52-6.06-2.12-8.18-3.33-12.42ZM1230.09,409.46l-26.66-109.65-29.68,109.65h56.34Z"/>
  </g>
</svg>