<?xml version="1.0" encoding="UTF-8"?>
<svg id="Layer_1" data-name="Layer 1" xmlns="http://www.w3.org/2000/svg" xmlns:xlink="http://www.w3.org/1999/xlink" viewBox="0 0 1366 768">
  <defs>
    <style>
      .cls-1 {
        fill: #b2b8db;
      }

      .cls-2 {
        clip-path: url(#clippath);
      }
    </style>
    <clipPath id="clippath">
      <rect class="cls-1" x="-10.6" y="-10" width="1386" height="788"/>
    </clipPath>
  </defs>
  <g>
    <rect class="cls-1" x="-10.6" y="-10" width="1386" height="788"/>
    <g class="cls-2">
      <rect class="cls-1" x="-.96" y="-3.25" width="1366.71" height="779.89"/>
    </g>
  </g>
  <g>
    <path d="M270.64,215.21v12.63h-66.68v-12.63l19.45-2.27-16.17-40.67h-74.77l-14.65,40.67,21.47,2.27v12.63h-55.07v-12.63l18.44-2.27,60.62-167.72h20.21l69.46,167.72,17.68,2.27ZM200.41,155.35l-32.84-81.08-29.05,81.08h61.88Z"/>
    <path d="M384.56,119.99l-22.48,18.19c-5.56-9.6-8.34-13.64-14.4-13.64s-11.87,8.08-22.48,24.25v64.16l20.97,2.27v12.63h-66.43v-12.63l19.45-2.27v-81.59l-19.96-1.01v-7.33l38.65-25.26h7.33v33.85h2.02c11.11-16.92,21.47-34.1,34.35-34.1,10.86,0,16.42,10.1,22.99,22.48Z"/>
    <path d="M481.81,209.91c-7.83,10.1-24.75,21.98-38.9,21.98-17.18,0-27.03-7.58-27.53-25.01v-88.91h-22.73v-9.6l47.24-36.88h6.57l-5.3,30.06h38.65v16.42h-38.65v76.79c0,11.11,4.55,15.91,13.64,15.91,8.08,0,15.66-5.3,20.71-9.35l6.32,8.59Z"/>
    <path d="M556.32,215.21v12.63h-63.91v-12.63l19.45-2.27v-81.59l-19.96-1.01v-7.33l38.65-25.26h7.33v115.18l18.44,2.27ZM509.85,53.55c0-9.35,7.33-16.67,16.42-16.67s16.67,7.33,16.67,16.67-7.33,16.42-16.67,16.42-16.42-7.33-16.42-16.42Z"/>
    <path d="M634.88,112.41c-23.24,0-38.14,20.71-38.14,46.73s14.4,52.29,46.48,52.29c14.65,0,25.76-6.06,34.61-16.42l8.08,4.55c-6.31,16.92-22.99,32.33-51.53,32.33-36.88,0-61.63-28.29-61.63-63.65,0-38.65,24.75-70.47,66.43-70.47,13.89,0,26.77,3.54,35.87,10.86,5.3,4.29,9.09,11.11,9.09,17.43,0,7.07-4.29,11.87-10.36,11.87-6.82,0-10.86-3.03-13.64-9.35-4.04-9.35-11.87-16.17-25.26-16.17Z"/>
    <path d="M848.83,191.98v14.9l-38.65,25.26h-4.8v-22.73h-2.53c-10.86,11.11-26.02,22.48-43.95,22.48-25.01,0-37.13-17.68-37.13-40.67v-59.87l-19.7-1.01v-7.33l38.65-25.26h7.33v83.86c0,19.2,7.07,30.31,26.27,30.31,9.85,0,19.96-6.06,28.29-14.15v-66.43l-19.7-1.01v-7.33l38.65-25.26h7.33v106.09l19.96-11.87Z"/>
    <path d="M922.59,215.21v12.63h-63.91v-12.63l19.45-2.27V74.52l-20.21-2.53v-7.58l50.01-27.79,8.34,13.89-12.12,7.58v154.84l18.44,2.27Z"/>
    <path d="M1052.67,213.19v12.12c-5.3,2.27-9.6,4.55-16.67,4.55-10.61,0-18.94-5.05-22.73-15.66h-3.03c-10.36,10.1-23.74,17.68-39.4,17.68-23.49,0-35.11-15.66-35.11-33.59s14.15-27.79,29.55-33.09c13.13-4.55,28.54-9.35,44.96-14.15v-14.65c0-16.92-9.09-25.51-24-25.51-10.36,0-18.44,3.79-18.44,13.64,0,3.54,1.52,8.08,4.04,11.11l-26.27,5.56c-2.27-4.04-3.03-8.34-3.03-12.88,0-18.44,21.47-30.82,46.22-30.82,30.31,0,47.74,9.85,47.74,37.13v67.95c0,6.57,1.77,12.63,7.83,12.63,3.03,0,5.56-.76,8.33-2.02ZM1010.24,200.06v-36.37c-11.62,3.28-22.48,6.57-31.07,9.6-12.63,4.29-17.18,12.63-17.18,21.98,0,12.88,10.36,19.96,21.72,19.96s19.96-6.82,26.52-15.16Z"/>
    <path d="M1150.68,209.91c-7.83,10.1-24.75,21.98-38.9,21.98-17.18,0-27.03-7.58-27.53-25.01v-88.91h-22.73v-9.6l47.24-36.88h6.57l-5.3,30.06h38.65v16.42h-38.65v76.79c0,11.11,4.55,15.91,13.64,15.91,8.08,0,15.66-5.3,20.71-9.35l6.31,8.59Z"/>
    <path d="M1274.45,201.57c-8.84,16.67-25.26,30.31-51.02,30.31-38.9,0-61.38-30.31-61.38-65.17,0-36.63,20.71-69.21,60.37-69.21,30.06,0,51.02,23.24,51.78,58.1h-87.14c0,27.03,14.15,56.08,44.2,56.08,14.15,0,25.76-4.55,35.11-15.91l8.08,5.81ZM1187.81,141.96h57.34c-2.53-17.18-10.86-29.55-28.54-29.55-16.42,0-26.27,14.65-28.8,29.55Z"/>
  </g>
  <g>
    <path d="M241.96,322.47c-2.53-9.6-5.56-19.45-9.09-29.05h-47.99v152.82l23.49,2.27v12.63h-71.48v-12.63l21.98-2.27v-152.82h-49.76c-3.54,9.6-6.57,19.45-9.09,29.05l-12.63-1.52,4.29-42.44h158.63l4.29,42.44-12.63,1.52Z"/>
    <path d="M363.21,446.49v12.12c-5.3,2.27-9.6,4.55-16.67,4.55-10.61,0-18.94-5.05-22.73-15.66h-3.03c-10.36,10.1-23.74,17.68-39.4,17.68-23.49,0-35.11-15.66-35.11-33.59s14.15-27.79,29.55-33.09c13.13-4.55,28.54-9.35,44.96-14.15v-14.65c0-16.92-9.09-25.51-24-25.51-10.36,0-18.44,3.79-18.44,13.64,0,3.54,1.52,8.08,4.04,11.11l-26.27,5.56c-2.27-4.04-3.03-8.34-3.03-12.88,0-18.44,21.47-30.82,46.22-30.82,30.31,0,47.74,9.85,47.74,37.13v67.95c0,6.57,1.77,12.63,7.83,12.63,3.03,0,5.56-.76,8.33-2.02ZM320.77,433.36v-36.37c-11.62,3.28-22.48,6.57-31.07,9.6-12.63,4.29-17.18,12.63-17.18,21.98,0,12.88,10.36,19.96,21.72,19.96s19.96-6.82,26.52-15.16Z"/>
    <path d="M522.85,448.51v12.63h-63.91v-12.63l19.45-2.27v-62.39c0-18.44-5.3-33.09-22.23-33.09-15.16,0-26.02,11.11-34.35,22.99v72.49l18.44,2.27v12.63h-63.91v-12.63l19.45-2.27v-81.59l-19.96-1.01v-7.33l38.65-25.26h7.33v25.26h2.53c10.36-12.63,24.75-25.51,43.19-25.51,22.73,0,36.88,18.69,36.88,43.19v72.24l18.44,2.27Z"/>
    <path d="M662.03,354.3c-7.58,0-15.91,0-24.75-.76,4.8,7.33,7.58,16.42,7.58,26.52,0,28.54-22.73,48.5-53.55,48.5-6.82,0-13.13-1.01-19.2-2.53-4.29,3.79-9.09,8.33-9.09,12.88,0,4.8,4.29,7.33,9.85,7.33,17.93,0,30.82-.25,46.98-.25,26.27,0,39.66,13.39,39.66,31.32,0,29.3-39.66,44.96-81.33,44.96-23.49,0-41.68-10.86-41.68-27.53,0-11.87,7.83-20.21,17.18-26.02-8.84-2.02-16.17-6.06-16.17-14.4,0-11.62,15.41-23.74,26.02-31.57-16.92-7.83-27.79-23.24-27.79-43.45,0-28.54,23.49-48.5,54.31-48.5,7.58,0,14.9,1.26,21.22,3.28,10.86,2.78,24.25,3.54,33.59,3.54,5.05,0,12.38-.25,17.18-.76v17.43ZM566.3,470.24c-5.05,5.3-8.34,10.61-8.34,17.68,0,15.41,18.44,19.45,35.62,19.45,24.75,0,47.24-6.82,47.24-22.48,0-11.62-12.12-15.41-30.06-15.41-14.65,0-22.99,1.01-36.37,1.01-2.53,0-5.3,0-8.08-.25ZM618.33,384.1c0-22.99-8.08-42.69-29.81-42.69-18.44,0-26.27,15.91-26.27,33.85,0,22.73,9.09,41.42,29.55,41.42s26.52-15.16,26.52-32.58Z"/>
    <path d="M785.05,434.87c-8.84,16.67-25.26,30.31-51.02,30.31-38.9,0-61.38-30.31-61.38-65.17,0-36.63,20.71-69.21,60.37-69.21,30.06,0,51.02,23.24,51.78,58.1h-87.14c0,27.03,14.15,56.08,44.2,56.08,14.15,0,25.76-4.55,35.11-15.91l8.08,5.81ZM698.41,375.26h57.34c-2.53-17.18-10.86-29.55-28.54-29.55-16.42,0-26.27,14.65-28.8,29.55Z"/>
    <path d="M907.81,353.29l-22.48,18.19c-5.56-9.6-8.34-13.64-14.4-13.64s-11.87,8.08-22.48,24.25v64.16l20.97,2.27v12.63h-66.43v-12.63l19.45-2.27v-81.59l-19.96-1.01v-7.33l38.65-25.26h7.33v33.85h2.02c11.11-16.92,21.47-34.1,34.35-34.1,10.86,0,16.42,10.1,22.99,22.48Z"/>
    <path d="M984.1,448.51v12.63h-63.91v-12.63l19.45-2.27v-81.59l-19.96-1.01v-7.33l38.65-25.26h7.33v115.18l18.44,2.27ZM937.62,286.85c0-9.35,7.33-16.67,16.42-16.67s16.67,7.33,16.67,16.67-7.33,16.42-16.67,16.42-16.42-7.33-16.42-16.42Z"/>
    <path d="M1146.26,448.51v12.63h-63.91v-12.63l19.45-2.27v-62.39c0-18.44-5.3-33.09-22.23-33.09-15.16,0-26.02,11.11-34.35,22.99v72.49l18.44,2.27v12.63h-63.91v-12.63l19.45-2.27v-81.59l-19.96-1.01v-7.33l38.65-25.26h7.33v25.26h2.53c10.36-12.63,24.75-25.51,43.19-25.51,22.73,0,36.88,18.69,36.88,43.19v72.24l18.44,2.27Z"/>
    <path d="M1271.3,434.87c-8.84,16.67-25.26,30.31-51.02,30.31-38.9,0-61.38-30.31-61.38-65.17,0-36.63,20.71-69.21,60.37-69.21,30.06,0,51.02,23.24,51.78,58.1h-87.14c0,27.03,14.15,56.08,44.2,56.08,14.15,0,25.76-4.55,35.11-15.91l8.08,5.81ZM1184.66,375.26h57.34c-2.53-17.18-10.86-29.55-28.54-29.55-16.42,0-26.27,14.65-28.8,29.55Z"/>
  </g>
  <g>
    <path d="M271.77,686.25v12.63h-66.68v-12.63l19.45-2.27-16.17-40.67h-74.77l-14.65,40.67,21.47,2.27v12.63h-55.07v-12.63l18.44-2.27,60.62-167.72h20.21l69.46,167.72,17.68,2.27ZM201.55,626.39l-32.84-81.08-29.05,81.08h61.88Z"/>
    <path d="M412.97,665.54v14.9l-38.65,22.73h-4.8v-19.45h-2.78c-9.6,10.36-22.99,19.2-38.9,19.2-35.62,0-55.07-31.83-55.07-64.66,0-38.39,25.01-69.72,60.12-69.72,12.38,0,24.25,4.29,33.85,10.36v-33.34l-20.21-2.53v-7.58l50.01-27.79,8.33,13.89-12.12,7.58v147.51l20.21-11.11ZM366.75,671.86v-67.95c-7.33-10.86-18.94-18.94-32.33-18.94-24,0-35.87,21.22-35.87,46.22,0,27.79,13.13,52.29,39.15,52.29,11.37,0,21.47-4.55,29.05-11.62Z"/>
    <path d="M545.84,585.22l-18.19,2.27-40.67,111.39h-19.2l-43.7-111.65-17.43-2.02v-12.63h62.39v12.63l-16.67,2.02,31.57,84.11,29.3-84.11-18.19-2.02v-12.63h50.77v12.63Z"/>
    <path d="M658.5,672.61c-8.84,16.67-25.26,30.31-51.02,30.31-38.9,0-61.38-30.31-61.38-65.17,0-36.63,20.71-69.21,60.37-69.21,30.06,0,51.02,23.24,51.78,58.1h-87.14c0,27.03,14.15,56.08,44.2,56.08,14.15,0,25.76-4.55,35.11-15.91l8.08,5.81ZM571.86,613h57.34c-2.53-17.18-10.86-29.55-28.54-29.55-16.42,0-26.27,14.65-28.8,29.55Z"/>
    <path d="M814.1,686.25v12.63h-63.91v-12.63l19.45-2.27v-62.39c0-18.44-5.3-33.09-22.23-33.09-15.16,0-26.02,11.11-34.35,22.99v72.49l18.44,2.27v12.63h-63.91v-12.63l19.45-2.27v-81.59l-19.96-1.01v-7.33l38.65-25.26h7.33v25.26h2.53c10.36-12.63,24.75-25.51,43.19-25.51,22.73,0,36.88,18.69,36.88,43.19v72.24l18.44,2.27Z"/>
    <path d="M902,680.95c-7.83,10.1-24.75,21.98-38.9,21.98-17.18,0-27.03-7.58-27.53-25.01v-88.91h-22.73v-9.6l47.24-36.88h6.57l-5.3,30.06h38.65v16.42h-38.65v76.79c0,11.11,4.55,15.91,13.64,15.91,8.08,0,15.66-5.3,20.71-9.35l6.31,8.59Z"/>
    <path d="M1050.02,663.01v14.9l-38.65,25.26h-4.8v-22.73h-2.53c-10.86,11.11-26.02,22.48-43.95,22.48-25.01,0-37.13-17.68-37.13-40.67v-59.87l-19.7-1.01v-7.33l38.65-25.26h7.33v83.86c0,19.2,7.07,30.31,26.27,30.31,9.85,0,19.96-6.06,28.29-14.15v-66.43l-19.7-1.01v-7.33l38.65-25.26h7.33v106.09l19.96-11.87Z"/>
    <path d="M1156.62,591.03l-22.48,18.19c-5.56-9.6-8.34-13.64-14.4-13.64s-11.87,8.08-22.48,24.25v64.16l20.97,2.27v12.63h-66.43v-12.63l19.45-2.27v-81.59l-19.96-1.01v-7.33l38.65-25.26h7.33v33.85h2.02c11.11-16.92,21.47-34.1,34.35-34.1,10.86,0,16.42,10.1,22.99,22.48Z"/>
    <path d="M1273.32,672.61c-8.84,16.67-25.26,30.31-51.02,30.31-38.9,0-61.38-30.31-61.38-65.17,0-36.63,20.71-69.21,60.37-69.21,30.06,0,51.02,23.24,51.78,58.1h-87.14c0,27.03,14.15,56.08,44.2,56.08,14.15,0,25.76-4.55,35.11-15.91l8.08,5.81ZM1186.68,613h57.34c-2.53-17.18-10.86-29.55-28.54-29.55-16.42,0-26.27,14.65-28.8,29.55Z"/>
  </g>
</svg>